<svg width="987" height="1055" viewBox="0 0 987 1055" fill="none" xmlns="http://www.w3.org/2000/svg">
<path d="M20.5978 835.714L152.821 804.404C161.157 802.471 168.436 799.658 177.544 797.831C181.493 797.039 186.507 794.689 188.881 790.103C190.969 786.07 191.948 780.812 188.881 776.428C186.619 773.194 185.34 772.458 181.54 771.343C177.042 770.024 172.441 770.431 168.111 771.343C158.673 773.332 141.728 778.817 134.416 780.512L14.1872 808.381C6.59628 810.141 1.87679 817.686 3.6463 825.237C5.41433 832.781 13.0025 837.473 20.5978 835.714Z" fill="#EEC033"/>
<path d="M37.1884 750.059L122.66 730.245C134.234 727.563 157.467 720.847 168.666 716.893C172.548 715.491 177.198 712.547 180.119 709.643C182.239 707.535 184.949 699.625 183.04 695.124C180.352 688.79 173.529 688.031 166.461 688.852C164.634 689.065 162.796 689.401 161.015 689.803C150.35 693.65 127.417 700.324 116.251 702.912L30.7764 722.726C23.1857 724.486 18.4663 732.03 20.2353 739.581C22.0046 747.125 29.5941 751.814 37.1884 750.059Z" fill="#EEC033"/>
<path d="M27.5333 670.503L104.493 652.663C118.3 649.463 141.591 643.019 156.501 636.099C162.439 633.343 168.436 631.243 171.357 628.339C175.47 624.251 176.636 619.106 174.278 613.821C172.591 610.04 168.793 607.39 166.325 606.774C163.764 606.134 160.603 606.245 157.184 606.838C153.687 607.444 138.197 611.936 135.113 612.986C123.276 618.217 110.887 622.363 98.0833 625.33L21.122 643.17C13.5311 644.93 8.81159 652.475 10.5811 660.026C12.3487 667.568 19.9412 672.26 27.5333 670.503Z" fill="#EEC033"/>
<path fill-rule="evenodd" clip-rule="evenodd" d="M277.53 121.128C275.032 119.396 273.083 116.86 272.119 113.739C269.834 106.332 274.021 98.4824 281.478 96.2073C369.886 69.2472 464.134 65.3537 554.015 84.9403C561.622 86.5927 566.446 94.0786 564.776 101.652C563.108 109.221 555.582 114.012 547.967 112.353C462.808 93.7971 373.522 97.4929 289.751 123.041C285.438 124.356 280.979 123.519 277.53 121.128Z" fill="#EEC033"/>
<path d="M774.491 125.699C701.481 75.0833 620.136 42.3395 532.74 28.3976C530.568 28.0529 528.597 27.233 526.912 26.0653C522.599 23.0749 520.156 17.8083 521.042 12.3207C522.277 4.66928 529.518 -0.538682 537.214 0.689055C628.843 15.3057 714.096 49.6153 790.637 102.679C830.512 130.323 866.958 162.525 898.96 198.385C904.135 204.183 903.601 213.053 897.77 218.196C891.943 223.336 883.023 222.804 877.847 217.013C847.314 182.799 812.538 152.076 774.491 125.699Z" fill="#EEC033"/>
<path d="M785.801 333.716C792.09 329.136 800.924 330.495 805.526 336.744C833.415 374.595 855.139 416.482 870.098 461.235C872.555 468.589 868.55 476.534 861.154 478.975C856.758 480.427 852.157 479.615 848.617 477.161C846.209 475.491 844.306 473.071 843.307 470.083C829.281 428.105 808.907 388.822 782.755 353.325C778.149 347.076 779.512 338.296 785.801 333.716Z" fill="#EEC033"/>
<path d="M68.0818 497.505C85.9654 493.357 101.594 482.828 112.098 467.852L154.596 407.26C156.493 404.557 160.39 399.244 160.39 399.244C160.39 399.244 161.587 396.789 162.061 395.505C163.237 392.319 163.675 389.24 162.945 386.5C162.239 383.847 160.345 381.166 156.135 378.876C153.269 377.318 150.784 376.828 148.626 376.942C146.454 377.056 144.455 377.792 142.589 378.922C140.194 380.373 138.149 382.376 136.354 384.369C134.693 386.627 133.056 388.907 131.442 391.208L88.9436 451.8C82.4365 461.078 72.7482 467.603 61.6738 470.17L27.9623 477.983C20.3712 479.743 15.6526 487.288 17.4228 494.836C18.2454 498.351 20.3252 501.241 23.0896 503.158C26.2656 505.36 30.3154 506.258 34.3717 505.318L68.0818 497.505Z" fill="#EEC033"/>
<path fill-rule="evenodd" clip-rule="evenodd" d="M645.205 907.484C627.325 928.349 607.981 948.337 587.701 966.89C581.965 972.138 581.595 981.015 586.873 986.716C588.123 988.065 589.566 989.109 591.12 989.854C596.186 992.285 602.439 991.547 606.819 987.54C627.935 968.219 648.079 947.407 666.696 925.681C671.747 919.785 671.035 910.928 665.106 905.902C659.159 900.881 650.259 901.591 645.205 907.484Z" fill="#EEC033"/>
<path d="M145.86 865.113L29.1768 891.549C21.5794 893.27 16.8196 900.794 18.552 908.35C19.3635 911.894 21.4513 914.807 24.2346 916.737C27.3918 918.926 31.4119 919.826 35.4486 918.912L152.13 892.474C211.573 879.007 267.15 854.557 316.328 820.822C320.085 818.245 323.686 814.258 325.37 810.058C326.358 807.593 327.156 803.773 324.233 799.88C322.006 796.914 318.693 795.879 315.675 795.704C312.486 795.519 308.758 796.188 304.932 797.349C299.352 799.042 295.635 801.158 290.11 804.404C240.064 833.805 190.886 854.912 145.86 865.113Z" fill="#EEC033"/>
<path d="M163.695 942.77L65.2436 965.078C57.6448 966.798 52.8843 974.322 54.6166 981.877C55.4282 985.422 57.5159 988.335 60.2993 990.264C63.4565 992.453 67.4766 993.354 71.5133 992.439L169.967 970.133C268.641 947.775 358.203 899.523 430.162 831.063C432.322 827.972 434.093 824.959 435.118 822.08C435.682 820.498 436.419 817.871 435.844 815.25C435.844 815.25 436.229 817.02 435.842 815.241C435.454 813.462 434.376 811.648 432.647 809.968C427.62 805.081 418.304 809.164 414.665 810.815C411.8 812.114 407.264 815.712 407.264 815.712C407.264 815.712 390 829.528 382.461 835.733C319.532 887.529 244.859 924.382 163.695 942.77Z" fill="#EEC033"/>
<path d="M154.279 1026.62L181.525 1020.44C250.235 1004.88 304.789 984.277 373.142 940.897C428.533 905.743 500.999 832.13 500.999 832.13L519.998 812.123C519.998 812.123 529.974 800.593 536.929 798.75C542.253 797.338 546.718 799.965 548.756 801.51C550.25 802.643 551.711 804.398 552.59 806.785C554.69 812.486 550.296 816.953 547.165 821.366C539.531 832.13 464.752 914.944 393.615 961.166C320.55 1008.64 261.79 1031.04 187.795 1047.8L160.55 1053.98C156.514 1054.89 152.493 1053.99 149.336 1051.8C146.556 1049.88 144.467 1046.96 143.654 1043.42C141.921 1035.86 146.679 1028.34 154.279 1026.62Z" fill="#EEC033"/>
<path d="M492.159 952.236C498.089 947.215 506.989 947.918 512.059 953.813C517.112 959.71 516.402 968.567 510.474 973.593C488.626 992.108 465.417 1009.48 441.486 1025.23C436.522 1028.49 430.231 1028.23 425.616 1025.04C424.201 1024.05 422.943 1022.8 421.924 1021.27C417.622 1014.81 419.404 1006.1 425.904 1001.82L492.159 952.236Z" fill="#EEC033"/>
<path d="M644.182 783.858L589.127 844.667C568.089 867.903 545.28 889.875 521.324 909.976C515.366 914.976 514.614 923.828 519.641 929.749C520.067 930.25 520.523 930.717 521.001 931.145C526.156 935.758 534.082 935.993 539.531 931.42C564.466 910.497 588.213 887.625 610.109 863.441C610.109 863.441 645.702 826.751 665.106 801.283C688.47 770.616 710.953 728.639 716.64 718.462C718.535 715.069 721.189 703.761 713.228 700.369C706.097 697.331 697.881 701.904 695.029 708.284C685.93 728.639 647.476 780.22 644.182 783.858Z" fill="#EEC033"/>
<path d="M889.337 543.985C897.94 607.372 893.207 670.431 875.275 731.437C873.089 738.873 865.251 743.141 857.77 740.967C856.251 740.526 854.87 739.857 853.652 739.012C848.814 735.658 846.44 729.493 848.183 723.564C853.048 707.013 856.876 690.298 859.665 673.459C866.517 632.096 867.096 589.99 861.362 547.74C860.32 540.059 865.737 532.993 873.463 531.955C881.186 530.918 888.293 536.303 889.337 543.985Z" fill="#EEC033"/>
<path d="M616.233 291.847C620.332 285.259 629.03 283.219 635.659 287.296C641.544 290.913 647.413 294.748 653.106 298.695C822.575 416.183 864.309 648.853 746.134 817.337L699.066 884.445C694.606 890.803 685.809 892.362 679.416 887.929C673.022 883.496 671.452 874.751 675.911 868.393L722.981 801.283C832.258 645.481 793.668 430.353 636.96 321.712C631.692 318.06 626.262 314.51 620.815 311.162L620.798 311.152C614.173 307.117 612.124 298.457 616.233 291.847Z" fill="#EEC033"/>
<path d="M960.232 336.805C950.623 318.208 939.889 299.937 928.325 282.499C924.034 276.031 925.832 267.324 932.338 263.058C938.846 258.795 947.598 260.581 951.889 267.052C964.012 285.333 975.267 304.488 985.339 323.979C988.9 330.873 986.166 339.331 979.233 342.874C974.426 345.33 968.856 344.781 964.696 341.897C962.873 340.633 961.322 338.919 960.232 336.805Z" fill="#EEC033"/>
<path d="M730.562 294.824L730.557 294.819C715.69 280.989 699.63 268.067 682.819 256.412C679.726 254.268 676.61 252.167 673.472 250.111C607.542 206.903 531.902 183.138 454.063 180.533C448.472 180.346 442.871 180.268 437.261 180.3C415.875 180.421 394.366 182.137 372.886 185.484C263.908 202.462 167.107 259.52 100.344 346.148C95.7351 352.127 87.231 353.395 81.0793 349.131C80.8885 348.998 80.7267 348.881 80.5821 348.769L80.5546 348.748C74.3696 344.038 73.1963 335.229 77.9381 329.077C149.132 236.705 252.317 175.865 368.516 157.759C371.183 157.343 373.851 156.951 376.519 156.583C376.989 156.518 377.459 156.453 377.93 156.39C491.375 141.073 605.017 168.261 698.965 233.392C716.878 245.811 733.998 259.588 749.848 274.331C755.539 279.628 755.835 288.504 750.508 294.162C745.175 299.826 736.244 300.125 730.562 294.824Z" fill="#EEC033"/>
<path d="M552.549 278.858C559.914 281.4 567.957 277.523 570.513 270.204C573.067 262.888 569.167 254.892 561.807 252.344C522.582 238.806 481.542 231.914 439.819 231.858C432.023 231.848 425.696 238.126 425.687 245.873C425.678 250.648 428.063 254.866 431.737 257.414C434.014 258.993 436.781 259.92 439.779 259.925C478.352 259.975 516.293 266.346 552.549 278.858Z" fill="#EEC033"/>
<path d="M378.828 250.681C380.421 258.268 375.528 265.7 367.897 267.286C338.21 273.45 314.387 280.584 283.291 296.505C260.148 308.355 211.138 343.886 211.138 343.886C211.138 343.886 198.866 355.194 188.881 346.148C178.896 337.101 188.881 324.087 188.881 324.087C191.554 320.743 240.357 286.935 265.099 274.051C300.716 255.503 323.028 247.932 362.126 239.814C369.755 238.231 377.235 243.095 378.828 250.681Z" fill="#EEC033"/>
<path d="M617.108 117.481C619.974 110.275 628.173 106.741 635.421 109.59C673.824 124.68 710.617 144.338 744.772 168.016C805.472 210.098 855.754 263.015 894.238 325.311C931.396 385.458 955.871 451.487 966.987 521.571C968.202 529.223 962.945 536.407 955.244 537.616C951.495 538.204 947.865 537.269 944.975 535.265C941.926 533.152 939.728 529.869 939.104 525.937C917.389 389.032 842.632 270.073 728.626 191.036C696.269 168.604 661.421 149.986 625.049 135.688C617.802 132.842 614.245 124.688 617.108 117.481Z" fill="#EEC033"/>
<path d="M124.185 556.588C110.146 565.202 101.628 569.127 86.2519 575.069C60.6653 584.957 17.7943 590.938 17.7943 590.938C13.7405 591.879 9.68781 590.981 6.51231 588.78C3.74902 586.864 1.67045 583.978 0.84427 580.46C-0.925353 572.909 3.79545 565.365 11.3838 563.607C11.3838 563.607 54.4422 558.089 79.8423 547.736C94.1352 541.91 102.013 538.009 114.949 529.615C133.671 517.467 145.987 504.41 157.9 491.985C162.641 489.526 167.758 488.676 172.794 491.414C177.005 493.703 178.898 496.385 179.604 499.038C180.334 501.778 179.981 504.739 178.72 508.043C177.412 511.472 174.478 514.206 173.094 515.585C159.183 529.442 145.446 543.543 124.185 556.588Z" fill="#EEC033"/>
<path d="M361.957 730.006C361.957 724.472 361.957 718.345 361.957 711.626C361.957 704.511 361.957 695.617 361.957 684.944C361.957 673.876 361.957 659.646 361.957 642.254C361.957 630 361.957 617.351 361.957 604.306C361.957 590.867 361.957 577.032 361.957 562.802C361.957 548.176 361.957 532.76 361.957 516.554C361.957 500.347 361.957 483.152 361.957 464.969C361.957 441.647 362.541 422.872 363.709 408.641C365.267 394.411 367.992 383.541 371.886 376.031C375.78 368.125 381.231 362.789 388.24 360.022C395.638 357.255 404.983 355.871 416.274 355.871C422.504 355.871 428.15 355.871 433.212 355.871C438.663 355.871 444.115 355.871 449.566 355.871C455.017 355.871 461.442 355.871 468.84 355.871C476.627 355.871 486.167 355.871 497.459 355.871C520.431 355.871 541.263 359.231 559.953 365.951C578.643 372.275 594.996 381.367 609.014 393.225C623.42 405.084 635.491 419.314 645.225 435.916C654.96 452.518 662.163 471.096 666.835 491.651C671.897 511.81 674.428 533.551 674.428 556.872C674.428 586.123 669.95 613.2 660.995 638.103C652.429 662.611 639.969 683.956 623.615 702.139C607.651 720.322 588.572 734.354 566.377 744.236C544.183 754.119 519.458 759.06 492.202 759.06C484.415 759.06 476.627 759.06 468.84 759.06C461.442 759.06 454.044 759.06 446.645 759.06C436.911 759.06 429.513 756.49 424.451 751.352C419.389 745.818 416.859 739.493 416.859 732.378C416.859 725.263 419.389 719.136 424.451 713.997C429.513 708.463 436.911 705.696 446.645 705.696C454.822 705.696 462.415 705.696 469.424 705.696C476.432 705.696 484.025 705.696 492.202 705.696C512.449 705.696 530.555 702.139 546.519 695.024C562.484 687.513 575.917 677.236 586.819 664.192C598.111 650.752 606.677 634.941 612.518 616.758C618.748 598.575 621.863 578.613 621.863 556.872C621.863 535.132 619.332 515.368 614.27 497.58C609.208 479.397 601.616 463.783 591.492 450.739C581.368 437.695 568.519 427.615 552.944 420.5C537.369 412.989 518.874 409.234 497.459 409.234C486.167 409.234 476.627 409.234 468.84 409.234C461.052 409.234 453.654 409.234 446.645 409.234C440.026 409.234 432.044 409.234 422.699 409.234C420.363 409.234 418.416 410.222 416.859 412.199C415.69 413.78 414.912 416.349 414.522 419.907C414.133 423.069 413.938 427.022 413.938 431.765C413.938 436.509 413.938 441.647 413.938 447.181C414.328 452.715 414.522 458.645 414.522 464.969C414.522 481.176 414.522 498.371 414.522 516.554C414.522 534.737 414.522 554.303 414.522 575.253C414.522 595.808 414.522 618.141 414.522 642.254C414.522 661.622 414.522 676.445 414.522 686.723C414.522 697 414.522 705.301 414.522 711.626C414.522 717.555 414.522 723.682 414.522 730.006C414.522 739.888 411.797 747.399 406.345 752.537C401.284 757.676 395.248 760.245 388.24 760.245C381.231 760.245 375.001 757.676 369.55 752.537C364.488 747.399 361.957 739.888 361.957 730.006Z" fill="white"/>
<path d="M245.545 730.826C245.545 718.135 245.545 706.598 245.545 696.215C245.545 685.831 245.545 676.409 245.545 667.949C245.545 659.104 245.545 651.028 245.545 643.721C245.545 625.262 245.545 606.418 245.545 587.189C245.545 567.961 245.545 548.732 245.545 529.504C245.545 509.891 245.545 491.047 245.545 472.972C245.545 464.127 245.545 455.474 245.545 447.014C245.545 438.169 245.545 428.747 245.545 418.748C245.545 408.749 245.545 397.405 245.545 384.714C245.545 375.1 248.79 367.985 255.28 363.37C262.269 358.371 270.257 355.871 279.243 355.871C288.229 355.871 295.967 358.371 302.457 363.37C309.446 367.985 312.941 375.1 312.941 384.714C312.941 397.405 312.941 408.749 312.941 418.748C312.941 428.747 312.941 438.169 312.941 447.014C312.941 455.474 312.941 464.127 312.941 472.972C312.941 491.047 312.941 509.891 312.941 529.504C312.941 548.732 312.941 567.961 312.941 587.189C312.941 606.418 312.941 625.262 312.941 643.721C312.941 651.028 312.941 659.104 312.941 667.949C312.941 676.409 312.941 685.831 312.941 696.215C312.941 706.598 312.941 718.135 312.941 730.826C312.941 740.825 309.446 748.324 302.457 753.323C295.967 757.938 288.229 760.245 279.243 760.245C270.257 760.245 262.269 757.938 255.28 753.323C248.79 748.324 245.545 740.825 245.545 730.826Z" fill="white"/>
</svg>
