<svg width="24" height="25" viewBox="0 0 24 25" fill="none" xmlns="http://www.w3.org/2000/svg">
<mask id="mask0_189_1697" style="mask-type:alpha" maskUnits="userSpaceOnUse" x="0" y="0" width="24" height="25">
<rect y="0.5" width="24" height="24" fill="#D9D9D9"/>
</mask>
<g mask="url(#mask0_189_1697)">
<path d="M4.89961 21.5L4.74961 20.225L4.54961 20.125C4.48294 20.0917 4.39128 20.0333 4.27461 19.95L3.07461 20.45L1.97461 18.55L2.99961 17.775V17.25L1.97461 16.45L3.07461 14.55L4.27461 15.05C4.35794 15 4.43711 14.95 4.51211 14.9C4.58711 14.85 4.66628 14.8083 4.74961 14.775L4.89961 13.5H7.09961L7.24961 14.775L7.44961 14.875C7.48294 14.8917 7.52461 14.9167 7.57461 14.95L7.72461 15.05L8.92461 14.55L10.0246 16.45L8.99961 17.225V17.775L14.4746 14.6L13.3496 16.575L13.6496 16.8L9.69961 19.1L8.92461 20.45L7.72461 19.95C7.64128 20 7.56211 20.05 7.48711 20.1C7.41211 20.15 7.33294 20.1917 7.24961 20.225L7.09961 21.5H4.89961ZM5.99961 16C5.58294 16 5.22878 16.1458 4.93711 16.4375C4.64544 16.7292 4.49961 17.0833 4.49961 17.5C4.49961 17.9167 4.64544 18.2708 4.93711 18.5625C5.22878 18.8542 5.58294 19 5.99961 19C6.41628 19 6.77044 18.8542 7.06211 18.5625C7.35378 18.2708 7.49961 17.9167 7.49961 17.5C7.49961 17.0833 7.35378 16.7292 7.06211 16.4375C6.77044 16.1458 6.41628 16 5.99961 16ZM9.89961 10.5L9.74961 9.225C9.71628 9.19167 9.67461 9.16667 9.62461 9.15C9.57461 9.13333 9.53294 9.10833 9.49961 9.075V14.575L9.12461 13.925L7.99961 14.4V9.3L6.99961 7.55L7.99961 6.775V6.25L6.97461 5.45L8.07461 3.55L9.27461 4.05C9.35794 4 9.43711 3.95 9.51211 3.9C9.58711 3.85 9.66628 3.80833 9.74961 3.775L9.89961 2.5H12.0996L12.2496 3.775L12.4496 3.875C12.5163 3.90833 12.6079 3.96667 12.7246 4.05L13.9246 3.55L15.0246 5.45L13.9996 6.225V6.75L15.0246 7.55L13.9246 9.45L12.7246 8.95C12.6413 9 12.5621 9.05 12.4871 9.1C12.4121 9.15 12.3329 9.19167 12.2496 9.225L12.0996 10.5H9.89961ZM10.9996 5C10.5829 5 10.2288 5.14583 9.93711 5.4375C9.64544 5.72917 9.49961 6.08333 9.49961 6.5C9.49961 6.91667 9.64544 7.27083 9.93711 7.5625C10.2288 7.85417 10.5829 8 10.9996 8C11.4163 8 11.7704 7.85417 12.0621 7.5625C12.3538 7.27083 12.4996 6.91667 12.4996 6.5C12.4996 6.08333 12.3538 5.72917 12.0621 5.4375C11.7704 5.14583 11.4163 5 10.9996 5ZM16.8996 21.5L16.7496 20.225L16.5496 20.125C16.4829 20.0917 16.3913 20.0333 16.2746 19.95L15.0746 20.45L13.9746 18.55L14.9996 17.775V17.25L13.9746 16.475L15.0746 14.55L16.2746 15.05C16.3246 15.0167 16.3579 14.9958 16.3746 14.9875L16.7496 14.8L11.3496 11H12.5496L12.6496 10.1L17.5246 13.5H19.0996L19.2496 14.775L19.4496 14.875C19.4829 14.8917 19.5246 14.9167 19.5746 14.95L19.7246 15.05L20.9246 14.55L22.0246 16.45L20.9996 17.225V17.75L22.0246 18.55L20.9246 20.45L19.7246 19.95C19.6413 20 19.5621 20.05 19.4871 20.1C19.4121 20.15 19.3329 20.1917 19.2496 20.225L19.0996 21.5H16.8996ZM17.9996 16C17.5829 16 17.2288 16.1458 16.9371 16.4375C16.6454 16.7292 16.4996 17.0833 16.4996 17.5C16.4996 17.9167 16.6454 18.2708 16.9371 18.5625C17.2288 18.8542 17.5829 19 17.9996 19C18.4163 19 18.7704 18.8542 19.0621 18.5625C19.3538 18.2708 19.4996 17.9167 19.4996 17.5C19.4996 17.0833 19.3538 16.7292 19.0621 16.4375C18.7704 16.1458 18.4163 16 17.9996 16Z" fill="#FD9F41"/>
</g>
</svg>
