<svg width="61" height="64" viewBox="0 0 61 64" fill="none" xmlns="http://www.w3.org/2000/svg">
<path d="M60.5 58.9166V61.2231C60.5 62.2972 59.6215 63.1788 58.5443 63.1788H2.45882C1.38162 63.1788 0.5 62.2972 0.5 61.22V58.957C0.5 58.4323 0.925289 58.0071 1.44992 58.0071H4.3276C4.61941 58.0071 4.85845 57.768 4.85845 57.4762V53.1923C4.85845 52.6676 5.28374 52.2424 5.80836 52.2424H18.9706C19.4114 52.2424 19.7901 52.5466 19.8926 52.9781C20.6811 56.3183 23.0124 59.0625 26.0857 60.4284C26.2036 60.4812 26.2906 60.5805 26.3371 60.7016C26.8493 62.0861 28.5163 63.1012 30.5 63.1012C32.4805 63.1012 34.1476 62.0892 34.6598 60.7016C34.7063 60.5805 34.7933 60.4781 34.9112 60.4253C37.9876 59.0625 40.3158 56.3152 41.1043 52.975C41.2068 52.5466 41.5855 52.2393 42.0263 52.2393H55.0457C55.5704 52.2393 55.9957 52.6645 55.9957 53.1892V57.4328C55.9957 57.7246 56.2347 57.9636 56.5265 57.9636H59.5501C60.0747 57.9698 60.5 58.392 60.5 58.9166Z" fill="#FD9F41"/>
<path d="M33.09 43H36.5V41H34.82C35.24 40.34 35.5 39.68 35.5 39C35.5 36.37 33 35 30.5 35C28.15 35 26.03 37.06 25.79 37.29L27.21 38.71C27.69 38.23 29.21 37 30.5 37C31.54 37 33.5 37.42 33.5 39C33.5 39.5 33 40.24 32.26 41H24.5V43H30.13C29.71 43.36 28.25 44.67 27.91 45H24.5V47H26.18C25.76 47.66 25.5 48.32 25.5 49C25.5 51.63 28 53 30.5 53C32.85 53 34.97 50.94 35.21 50.71L33.79 49.29C33.32 49.77 31.79 51 30.5 51C29.46 51 27.5 50.58 27.5 49C27.5 48.5 28 47.76 28.74 47H36.5V45H30.88L33.09 43Z" fill="#FD9F41"/>
<path d="M36.3266 26.8148C36.311 27.2401 36.131 27.6282 35.8485 27.9107C35.5536 28.2056 35.1469 28.3887 34.6999 28.3887H34.5261C34.2001 28.3887 33.9331 28.6557 33.9331 28.9816V31.2105C33.9331 31.2974 33.9145 31.3813 33.8835 31.4589C33.7966 31.6669 33.5234 31.7196 33.362 31.5644C32.7101 30.9467 31.6515 30.5462 30.4532 30.5462C29.2519 30.5462 28.1871 30.9529 27.5352 31.5737C27.3737 31.7289 27.1037 31.6762 27.0136 31.4713C26.9795 31.3937 26.9609 31.3068 26.9609 31.2167V28.9847C26.9609 28.6588 26.7001 28.3887 26.3773 28.3918C25.9799 28.3949 25.5981 28.2614 25.2939 28.0255C24.9958 27.7927 24.7785 27.4636 24.704 27.0756C24.5954 26.5137 24.7879 25.9829 25.1511 25.6197C25.446 25.3248 25.8526 25.1416 26.2997 25.1416H34.6223C35.5443 25.1385 36.3576 25.8929 36.3266 26.8148Z" fill="#FD9F41"/>
<path d="M17.5425 26.7622C17.5425 27.2092 17.3593 27.6159 17.0644 27.9108C16.7695 28.2057 16.3629 28.3889 15.9158 28.3889H15.6737C15.444 28.3889 15.2546 28.5751 15.2546 28.808V48.7128C15.2546 49.1815 14.8728 49.5633 14.404 49.5633H8.85664C8.38789 49.5633 8.00296 49.1784 8.00296 48.7097V28.808C8.00296 28.5782 7.8167 28.3889 7.58388 28.3889C6.84816 28.3889 6.159 27.9357 5.95412 27.2279C5.77407 26.6101 5.96963 26.011 6.36388 25.6167C6.65879 25.3218 7.06546 25.1387 7.51248 25.1387H15.9127C16.8099 25.1387 17.5425 25.8713 17.5425 26.7622Z" fill="#FD9F41"/>
<path d="M54.8688 26.815C54.8533 27.2403 54.6732 27.6252 54.3938 27.9108C54.0989 28.2057 53.6923 28.3889 53.2452 28.3889H53.0093C52.7796 28.3889 52.5902 28.5751 52.5902 28.808V48.7128C52.5902 49.1815 52.2084 49.5633 51.7397 49.5633H46.1892C45.7204 49.5633 45.3386 49.1815 45.3386 48.7128V28.808C45.3386 28.5782 45.1523 28.3889 44.9195 28.3889H44.9133C44.1186 28.3889 43.3953 27.8518 43.2463 27.0727C43.1376 26.5108 43.3332 25.9799 43.6933 25.6167C43.9851 25.3218 44.3918 25.1387 44.8388 25.1387H53.1614C54.0896 25.1387 54.8998 25.893 54.8688 26.815Z" fill="#FD9F41"/>
<path d="M29.6776 0.260762L1.11799 19.7651C0.164968 20.4977 0.683388 22.0188 1.88475 22.0188H59.0567C60.2581 22.0188 60.7765 20.4977 59.8235 19.7651L31.2111 0.260762C30.761 -0.0869205 30.1308 -0.0869205 29.6776 0.260762ZM31.2173 6.61217L43.1255 14.8696C44.1375 15.5712 43.6408 17.1606 42.4083 17.1606H18.5921C17.3597 17.1606 16.863 15.5712 17.875 14.8696L29.78 6.61217C30.2146 6.31105 30.7858 6.31105 31.2173 6.61217Z" fill="#FD9F41"/>
</svg>
