<svg width="61" height="53" viewBox="0 0 61 53" fill="none" xmlns="http://www.w3.org/2000/svg">
<path d="M60.4896 13.2925C60.2228 19.7039 55.118 24.9936 48.7158 25.4665C46.9455 25.5968 45.2449 25.3664 43.6776 24.8359C43.1926 24.6723 42.6591 24.7905 42.2953 25.1542L28.6936 38.756C28.6694 38.7802 28.6451 38.8045 28.6178 38.8257C26.6353 40.7263 23.4554 40.6445 21.579 38.5832C21.5275 38.5286 21.479 38.471 21.4335 38.4134C19.8117 36.4521 20.0239 33.5238 21.8427 31.705L23.1826 30.3652L35.3475 18.2033C35.7082 17.8396 35.8264 17.306 35.6627 16.821C35.2292 15.5418 34.9958 14.1746 34.9958 12.7499C34.9958 5.70805 40.7039 0 47.7488 0C49.1917 0 50.5801 0.239478 51.8714 0.682056C52.1412 0.772997 52.2231 1.11554 52.0199 1.31864L44.1869 9.15168C44.096 9.24565 44.0566 9.376 44.0808 9.50332L45.0296 13.9928C45.0569 14.1231 45.1479 14.2292 45.2721 14.2747L50.959 16.3603C51.0984 16.4118 51.256 16.3784 51.3591 16.2754L59.2255 8.59998C59.4286 8.39991 59.7711 8.48478 59.859 8.75457C60.3289 10.1733 60.5532 11.7011 60.4896 13.2925Z" fill="#FD9F41"/>
<path d="M19.1308 25.4937H1.56098C0.978955 25.4937 0.5 25.0178 0.5 24.4328V16.0268C0.5 15.4448 0.975924 14.9658 1.56098 14.9658H19.1308C19.7128 14.9658 20.1917 15.4417 20.1917 16.0268V24.4328C20.1887 25.0178 19.7128 25.4937 19.1308 25.4937Z" fill="#FD9F41"/>
<path d="M8.95447 38.962H1.2245C0.827387 38.962 0.5 38.6376 0.5 38.2375V29.1586C0.5 28.7615 0.824356 28.4341 1.2245 28.4341H8.95447C9.35158 28.4341 9.67896 28.7584 9.67896 29.1586V38.2375C9.67896 38.6346 9.35461 38.962 8.95447 38.962Z" fill="#FD9F41"/>
<path d="M19.8036 29.8284C19.1671 30.656 18.6062 31.5442 18.1819 32.499C17.33 34.4118 16.9663 36.4944 17.8211 38.4617C17.909 38.6618 18 38.8528 18.1 39.0346C18.1152 39.0619 18.097 39.0922 18.0667 39.0922H13.5075C13.2316 39.0922 13.0073 38.7618 13.0073 38.3587V29.1676C13.0073 28.7644 13.2316 28.437 13.5075 28.437H18.8427C19.0246 28.437 19.7066 28.44 20.1856 28.4643C20.4342 28.4764 20.5221 28.9008 20.3705 29.0978L19.8036 29.8284Z" fill="#FD9F41"/>
<path d="M19.1308 52.7379H1.56098C0.978955 52.7379 0.5 52.262 0.5 51.6769V43.2709C0.5 42.6889 0.975924 42.21 1.56098 42.21H19.1308C19.7128 42.21 20.1917 42.6859 20.1917 43.2709V51.6769C20.1887 52.262 19.7128 52.7379 19.1308 52.7379Z" fill="#FD9F41"/>
<path d="M42.3208 52.7364H23.7992C23.202 52.7364 22.7109 52.2484 22.7109 51.6482V43.2968C22.7109 42.6996 23.199 42.2085 23.7992 42.2085H42.3208C42.918 42.2085 43.4091 42.6965 43.4091 43.2968V51.6482C43.4091 52.2484 42.921 52.7364 42.3208 52.7364Z" fill="#FD9F41"/>
<path d="M23.2714 25.4936C22.6712 25.4936 22.1831 25.0056 22.1831 24.4084V16.9361C22.1831 15.8509 23.0622 14.9688 24.1505 14.9688H32.9353C33.7174 14.9688 34.1085 15.9145 33.5568 16.4693L25.5328 24.4933C24.9871 25.0389 24.7234 25.4936 23.8019 25.4936H23.2714Z" fill="#FD9F41"/>
<path d="M49.5556 52.74H47.7762C47.0729 52.74 46.5 52.1637 46.5 51.4631V43.4868C46.5 42.7832 47.076 42.21 47.7762 42.21H49.5556C50.2589 42.21 50.8318 42.7862 50.8318 43.4868V51.4631C50.8318 52.1667 50.2589 52.74 49.5556 52.74Z" fill="#FD9F41"/>
<path d="M35.0167 38.7102H50.1311C50.416 38.7102 50.6464 38.4798 50.6464 38.1949V28.9553C50.6464 28.6703 50.416 28.4399 50.1311 28.4399H43.4197C43.2741 28.4399 43.1377 28.5006 43.0377 28.6097L34.6348 37.8493C34.3347 38.1797 34.5681 38.7102 35.0167 38.7102Z" fill="#FD9F41"/>
</svg>
