<svg width="61" height="66" viewBox="0 0 61 66" fill="none" xmlns="http://www.w3.org/2000/svg">
<path d="M19.1516 54.2303C19.396 54.7409 20.6726 57.3708 21.3912 58.341C21.4678 58.4431 21.3912 58.5817 21.2672 58.5817H3.02215C2.75953 58.5817 2.4969 58.5525 2.24522 58.4869C1.59596 58.3118 0.512639 57.8522 0.512639 56.7215C0.512639 55.1057 0.512639 2.14781 0.512639 2.14781C0.512639 2.14781 0.202596 0.00674042 2.65375 0.00674042C5.10489 0.00674042 46.8583 0.00674042 46.8583 0.00674042C46.8583 0.00674042 49.1235 -0.241292 49.1235 2.27183V23.4637C49.1235 23.5622 49.0286 23.6388 48.9302 23.6133L44.7646 22.5446C44.699 22.5263 44.6516 22.468 44.6479 22.3987L44.4947 5.37949C44.4947 5.29559 44.4254 5.22629 44.3415 5.22629H5.53166C5.44777 5.22629 5.37847 5.29559 5.37847 5.37949V53.9968C5.37847 54.0807 5.44777 54.15 5.53166 54.15H19.002C19.0713 54.1427 19.1261 54.1756 19.1516 54.2303Z" fill="#FD9F41"/>
<path d="M37.5898 14.6253H12.3524C11.5646 14.6253 10.9263 13.987 10.9263 13.1991C10.9263 12.4113 11.5646 11.7729 12.3524 11.7729H37.5898C38.3777 11.7729 39.016 12.4113 39.016 13.1991C39.0196 13.987 38.3777 14.6253 37.5898 14.6253Z" fill="#FD9F41"/>
<path d="M37.5898 22.45H12.3524C11.5646 22.45 10.9263 21.8117 10.9263 21.0238C10.9263 20.236 11.5646 19.5977 12.3524 19.5977H37.5898C38.3777 19.5977 39.016 20.236 39.016 21.0238C39.0196 21.8117 38.3777 22.45 37.5898 22.45Z" fill="#FD9F41"/>
<path d="M22.6895 30.2737H12.1335C11.3456 30.2737 10.7073 29.6354 10.7073 28.8476C10.7073 28.0597 11.3456 27.4214 12.1335 27.4214H22.6895C23.4773 27.4214 24.1156 28.0597 24.1156 28.8476C24.1156 29.6318 23.4773 30.2737 22.6895 30.2737Z" fill="#FD9F41"/>
<path d="M40.9201 26.2842C30.1051 26.2842 21.3401 35.0527 21.3401 45.8639C21.3401 56.6787 30.1051 65.4472 40.9201 65.4472C51.7351 65.4472 60.5001 56.6787 60.5001 45.8639C60.5001 35.0527 51.7351 26.2842 40.9201 26.2842ZM40.9201 60.928C32.6001 60.928 25.8557 54.1838 25.8557 45.8639C25.8557 42.4644 26.9828 39.3276 28.8869 36.8072L49.4152 58.3055C46.9969 59.9614 44.0716 60.928 40.9201 60.928ZM52.9789 54.8878L32.4578 33.4041C34.8688 31.7627 37.7832 30.8034 40.9201 30.8034C49.2402 30.8034 55.9845 37.5476 55.9845 45.8639C55.9845 49.2488 54.8683 52.3746 52.9789 54.8878Z" fill="#FD9F41"/>
<path d="M36.7509 49.3778C37.5169 49.7426 40.9857 53.1202 41.8903 54.0065C42.1383 54.2509 42.3207 54.5536 42.3827 54.8965C42.452 55.2868 42.39 55.7828 41.8502 56.1986C40.993 56.8625 39.8622 56.2461 39.7127 55.8375C39.5704 55.4436 39.5522 55.2904 39.5522 54.8819C39.5522 54.5573 36.5649 52.3432 35.3721 51.4751C34.9235 51.1469 34.6754 50.5852 34.814 50.049C34.949 49.5456 35.518 48.7942 36.7509 49.3778Z" fill="#FD9F41"/>
<path d="M44.6693 42.4056C43.9033 42.0408 40.4345 38.6632 39.5299 37.7769C39.2819 37.5325 39.0995 37.2298 39.0375 36.8869C38.9682 36.4966 39.0302 36.0006 39.57 35.5848C40.4272 34.9209 41.5579 35.5373 41.7075 35.9459C41.8497 36.3398 41.868 36.493 41.868 36.9015C41.868 37.2261 44.8553 39.4401 46.0481 40.3082C46.4967 40.6365 46.7447 41.1982 46.6061 41.7344C46.4748 42.2378 45.9022 42.9891 44.6693 42.4056Z" fill="#FD9F41"/>
</svg>
