<svg width="22" height="22" viewBox="0 0 22 22" fill="none" xmlns="http://www.w3.org/2000/svg">
<path fill-rule="evenodd" clip-rule="evenodd" d="M3.66489 21.5001C2.82639 21.5001 2.02989 21.1671 1.42989 20.5746C0.829895 19.9821 0.504395 19.1781 0.504395 18.3396V3.65464C0.504395 2.81614 0.837395 2.01964 1.42989 1.41964C2.02239 0.819641 2.82639 0.494141 3.66489 0.494141H18.3499C19.1884 0.494141 19.9849 0.827141 20.5849 1.41964C21.1849 2.01214 21.5104 2.81614 21.5104 3.65464V18.3396C21.5104 19.1781 21.1774 19.9746 20.5849 20.5746C19.9924 21.1746 19.1884 21.5001 18.3499 21.5001H3.66489ZM16.4899 12.6351H14.2699V19.9701H18.3499C18.5642 19.9707 18.7765 19.929 18.9746 19.8472C19.1727 19.7655 19.3526 19.6454 19.5042 19.4939C19.6557 19.3424 19.7758 19.1624 19.8575 18.9643C19.9392 18.7662 19.981 18.5539 19.9804 18.3396V3.65464C19.9806 3.44046 19.9386 3.22835 19.8567 3.03044C19.7748 2.83253 19.6547 2.65271 19.5033 2.50126C19.3518 2.34982 19.172 2.22972 18.9741 2.14785C18.7762 2.06598 18.5641 2.02394 18.3499 2.02414H3.66489C3.23282 2.02533 2.81879 2.19749 2.51327 2.50301C2.20775 2.80854 2.03558 3.22257 2.03439 3.65464V18.3396C2.03558 18.7717 2.20775 19.1857 2.51327 19.4913C2.81879 19.7968 3.23282 19.969 3.66489 19.9701H11.8249V12.6351H9.3799V10.1901H11.8249V8.87614C11.8249 6.38614 13.0369 5.29114 15.1099 5.29114C16.0804 5.29114 16.6024 5.36164 16.8499 5.39614L16.8649 5.39764V7.73764H15.4549C14.7439 7.73764 14.4079 8.04214 14.3059 8.65564C14.2814 8.81545 14.2699 8.97697 14.2714 9.13864V10.1841H16.8364L16.4869 12.6291L16.4899 12.6351Z" fill="#FD9F41"/>
</svg>
