<svg width="1697" height="559" viewBox="0 0 1697 559" fill="none" xmlns="http://www.w3.org/2000/svg">
<path d="M10.5949 442.26L80.2041 425.681C84.5929 424.657 88.425 423.168 93.2198 422.2C95.2987 421.781 97.9384 420.537 99.1881 418.108C100.287 415.973 100.803 413.189 99.1881 410.867C97.9971 409.155 97.324 408.765 95.3234 408.174C92.9556 407.476 90.5331 407.691 88.2537 408.174C83.2852 409.227 74.3643 412.132 70.5148 413.029L7.22004 427.787C3.2238 428.719 0.739209 432.714 1.67078 436.712C2.60156 440.707 6.59638 443.192 10.5949 442.26Z" fill="#FFA54B"/>
<path d="M19.3291 396.904L64.3261 386.412C70.4191 384.992 82.6501 381.435 88.5459 379.342C90.5896 378.599 93.0378 377.04 94.5754 375.503C95.6914 374.387 97.1182 370.198 96.113 367.815C94.698 364.46 91.1062 364.059 87.3853 364.494C86.4234 364.606 85.4557 364.784 84.518 364.997C78.9036 367.034 66.83 370.568 60.9516 371.939L15.9535 382.431C11.9574 383.362 9.47281 387.357 10.4041 391.356C11.3356 395.35 15.3311 397.833 19.3291 396.904Z" fill="#FFA54B"/>
<path d="M14.2461 354.777L54.762 345.331C62.0304 343.636 74.2922 340.224 82.1414 336.559C85.2677 335.1 88.4251 333.988 89.9627 332.451C92.1277 330.286 92.7416 327.561 91.5002 324.763C90.6122 322.761 88.6125 321.357 87.3135 321.031C85.9653 320.692 84.3012 320.751 82.5014 321.065C80.66 321.386 72.5057 323.764 70.882 324.321C64.6502 327.091 58.128 329.286 51.3874 330.857L10.8709 340.304C6.87468 341.236 4.39006 345.231 5.32162 349.229C6.2522 353.223 10.2493 355.707 14.2461 354.777Z" fill="#FFA54B"/>
<path fill-rule="evenodd" clip-rule="evenodd" d="M145.858 63.8703C144.543 62.9532 143.516 61.6102 143.009 59.9574C141.806 56.0355 144.01 51.8788 147.936 50.6741C194.479 36.3981 244.096 34.3364 291.414 44.708C295.419 45.5829 297.958 49.5469 297.079 53.5571C296.201 57.565 292.239 60.1022 288.23 59.2238C243.398 49.3978 196.393 51.3549 152.291 64.8832C150.021 65.5796 147.673 65.1363 145.858 63.8703Z" fill="#FFA54B"/>
<path d="M407.485 66.2908C369.048 39.4885 326.224 22.1498 280.214 14.7673C279.07 14.5847 278.033 14.1506 277.146 13.5323C274.875 11.9488 273.589 9.16001 274.055 6.25419C274.706 2.20256 278.518 -0.555178 282.569 0.094938C330.808 7.83482 375.689 26.0025 415.985 54.1011C436.977 68.7391 456.164 85.7909 473.011 104.779C475.736 107.85 475.455 112.546 472.385 115.27C469.318 117.992 464.622 117.71 461.897 114.643C445.822 96.5262 427.515 80.258 407.485 66.2908Z" fill="#FFA54B"/>
<path d="M413.438 176.441C416.749 174.015 421.4 174.735 423.823 178.044C438.505 198.087 449.942 220.267 457.817 243.965C459.111 247.859 457.002 252.066 453.108 253.358C450.794 254.127 448.372 253.697 446.508 252.398C445.24 251.514 444.239 250.232 443.713 248.65C436.329 226.422 425.603 205.62 411.835 186.824C409.41 183.515 410.128 178.866 413.438 176.441Z" fill="#FFA54B"/>
<path d="M35.5931 263.171C45.0079 260.974 53.2358 255.399 58.7655 247.469L81.1388 215.384C82.1371 213.952 84.189 211.139 84.189 211.139C84.189 211.139 84.8192 209.839 85.0687 209.159C85.6877 207.472 85.9183 205.842 85.5342 204.391C85.1623 202.986 84.1655 201.566 81.9488 200.354C80.4401 199.529 79.132 199.269 77.9957 199.33C76.8526 199.39 75.8001 199.78 74.8177 200.378C73.5566 201.147 72.4803 202.207 71.5349 203.262C70.6607 204.458 69.7987 205.665 68.9491 206.884L46.5758 238.969C43.1501 243.882 38.0497 247.337 32.2195 248.696L14.472 252.833C10.4756 253.765 7.9915 257.76 8.92346 261.757C9.35651 263.619 10.4514 265.149 11.9068 266.164C13.5788 267.33 15.7108 267.805 17.8462 267.308L35.5931 263.171Z" fill="#FFA54B"/>
<path fill-rule="evenodd" clip-rule="evenodd" d="M339.421 480.264C330.008 491.312 319.825 501.897 309.148 511.721C306.129 514.5 305.934 519.201 308.712 522.219C309.37 522.934 310.13 523.486 310.948 523.881C313.615 525.168 316.907 524.778 319.213 522.656C330.33 512.425 340.934 501.404 350.735 489.9C353.395 486.778 353.02 482.088 349.898 479.427C346.768 476.768 342.082 477.144 339.421 480.264Z" fill="#FFA54B"/>
<path d="M76.5398 457.828L15.1114 471.826C11.1117 472.737 8.60588 476.722 9.51791 480.723C9.94517 482.6 11.0443 484.142 12.5096 485.164C14.1717 486.323 16.2881 486.8 18.4132 486.315L79.8406 472.316C111.134 465.185 140.393 452.238 166.283 434.375C168.261 433.01 170.157 430.899 171.043 428.675C171.564 427.369 171.983 425.347 170.445 423.286C169.272 421.715 167.528 421.167 165.939 421.074C164.26 420.976 162.298 421.331 160.283 421.945C157.346 422.841 155.389 423.962 152.481 425.681C126.134 441.249 100.244 452.426 76.5398 457.828Z" fill="#FFA54B"/>
<path d="M85.9288 498.949L34.0989 510.762C30.0985 511.672 27.5923 515.656 28.5043 519.657C28.9315 521.534 30.0306 523.077 31.4959 524.098C33.158 525.257 35.2744 525.734 37.3996 525.25L89.2306 513.438C141.178 501.599 188.328 476.049 226.212 439.797C227.348 438.161 228.281 436.565 228.821 435.041C229.117 434.203 229.506 432.812 229.202 431.424C229.202 431.424 229.405 432.361 229.201 431.419C228.998 430.477 228.43 429.517 227.52 428.627C224.873 426.04 219.969 428.201 218.053 429.075C216.545 429.764 214.157 431.669 214.157 431.669C214.157 431.669 205.068 438.985 201.099 442.27C167.97 469.698 128.658 489.212 85.9288 498.949Z" fill="#FFA54B"/>
<path d="M80.9716 543.348L95.3157 540.079C131.488 531.836 160.208 520.928 196.193 497.957C225.354 479.342 263.504 440.362 263.504 440.362L273.506 429.769C273.506 429.769 278.757 423.663 282.419 422.687C285.222 421.94 287.572 423.33 288.645 424.148C289.432 424.748 290.201 425.678 290.664 426.942C291.77 429.96 289.456 432.326 287.808 434.663C283.789 440.362 244.422 484.215 206.971 508.69C168.506 533.829 137.571 545.69 98.6162 554.567L84.2734 557.837C82.1482 558.321 80.0318 557.844 78.3697 556.685C76.906 555.665 75.8061 554.121 75.3781 552.244C74.4661 548.243 76.9707 544.26 80.9716 543.348Z" fill="#FFA54B"/>
<path d="M258.85 503.961C261.972 501.303 266.657 501.675 269.326 504.797C271.986 507.919 271.612 512.609 268.492 515.27C256.99 525.074 244.771 534.273 232.173 542.611C229.559 544.341 226.247 544.204 223.818 542.51C223.073 541.991 222.411 541.325 221.875 540.515C219.61 537.094 220.548 532.484 223.97 530.219L258.85 503.961Z" fill="#FFA54B"/>
<path d="M338.883 414.802L309.899 447.001C298.824 459.305 286.815 470.94 274.204 481.584C271.067 484.231 270.672 488.919 273.318 492.054C273.542 492.319 273.782 492.566 274.034 492.793C276.748 495.236 280.92 495.361 283.789 492.939C296.916 481.86 309.418 469.748 320.945 456.942C320.945 456.942 339.683 437.514 349.898 424.028C362.198 407.789 374.034 385.562 377.028 380.172C378.026 378.376 379.424 372.388 375.232 370.592C371.478 368.983 367.153 371.405 365.651 374.783C360.861 385.562 340.617 412.875 338.883 414.802Z" fill="#FFA54B"/>
<path d="M467.946 287.783C472.474 321.348 469.983 354.739 460.542 387.043C459.392 390.981 455.265 393.24 451.327 392.09C450.527 391.856 449.8 391.502 449.159 391.054C446.612 389.278 445.362 386.014 446.28 382.874C448.841 374.11 450.856 365.259 452.325 356.343C455.932 334.44 456.237 312.144 453.218 289.771C452.67 285.704 455.521 281.962 459.589 281.413C463.654 280.863 467.396 283.715 467.946 287.783Z" fill="#FFA54B"/>
<path d="M324.169 154.27C326.327 150.781 330.906 149.701 334.396 151.86C337.494 153.775 340.584 155.806 343.581 157.896C432.798 220.109 454.769 343.313 392.556 432.529L367.776 468.065C365.429 471.431 360.798 472.257 357.432 469.909C354.065 467.562 353.239 462.931 355.587 459.565L380.367 424.028C437.896 341.528 417.58 227.612 335.081 170.084C332.307 168.15 329.449 166.271 326.581 164.498L326.572 164.492C323.084 162.356 322.006 157.77 324.169 154.27Z" fill="#FFA54B"/>
<path d="M505.268 178.076C500.21 168.229 494.559 158.554 488.471 149.32C486.212 145.895 487.158 141.285 490.583 139.025C494.01 136.768 498.617 137.714 500.876 141.14C507.259 150.82 513.183 160.964 518.486 171.285C520.361 174.935 518.922 179.414 515.271 181.29C512.741 182.59 509.809 182.3 507.619 180.773C506.659 180.103 505.842 179.195 505.268 178.076Z" fill="#FFA54B"/>
<path d="M384.358 155.846L384.355 155.844C376.528 148.521 368.073 141.678 359.223 135.506C357.595 134.371 355.955 133.259 354.303 132.17C319.594 109.29 279.772 96.7061 238.794 95.3265C235.851 95.2274 232.902 95.1861 229.949 95.203C218.69 95.2671 207.366 96.176 196.058 97.948C138.686 106.939 87.7249 137.152 52.5775 183.024C50.1512 186.19 45.6742 186.861 42.4356 184.603C42.3352 184.533 42.25 184.471 42.1739 184.412L42.1594 184.4C38.9033 181.907 38.2856 177.242 40.7819 173.984C78.2623 125.071 132.584 92.8545 193.757 83.267C195.162 83.0469 196.566 82.8393 197.971 82.6442C198.218 82.6098 198.466 82.5758 198.713 82.5422C258.437 74.4317 318.264 88.828 367.724 123.317C377.154 129.893 386.167 137.188 394.511 144.995C397.507 147.799 397.663 152.499 394.858 155.496C392.051 158.495 387.349 158.654 384.358 155.846Z" fill="#FFA54B"/>
<path d="M290.642 147.392C294.52 148.738 298.754 146.685 300.099 142.809C301.444 138.935 299.391 134.701 295.516 133.352C274.866 126.184 253.261 122.534 231.295 122.504C227.191 122.499 223.86 125.823 223.855 129.926C223.85 132.454 225.106 134.688 227.04 136.037C228.239 136.873 229.696 137.364 231.274 137.366C251.581 137.393 271.555 140.767 290.642 147.392Z" fill="#FFA54B"/>
<path d="M199.186 132.472C200.025 136.489 197.449 140.425 193.432 141.264C177.803 144.528 165.261 148.306 148.89 156.737C136.707 163.011 110.905 181.826 110.905 181.826C110.905 181.826 104.445 187.814 99.1881 183.024C93.9314 178.233 99.1881 171.342 99.1881 171.342C100.596 169.571 126.288 151.669 139.313 144.846C158.064 135.025 169.81 131.016 190.394 126.717C194.41 125.879 198.347 128.455 199.186 132.472Z" fill="#FFA54B"/>
<path d="M324.63 61.939C326.139 58.1234 330.455 56.2521 334.27 57.7608C354.488 65.7512 373.858 76.1604 391.839 88.6987C423.794 110.982 450.266 139.003 470.526 171.99C490.088 203.839 502.972 238.803 508.824 275.914C509.464 279.966 506.697 283.77 502.642 284.41C500.669 284.722 498.758 284.227 497.236 283.166C495.631 282.047 494.474 280.308 494.145 278.226C482.714 205.732 443.357 142.74 383.339 100.888C366.304 89.01 347.959 79.1511 328.81 71.5803C324.995 70.073 323.122 65.7552 324.63 61.939Z" fill="#FFA54B"/>
<path d="M65.1287 294.457C57.738 299.018 53.2536 301.096 45.1588 304.243C31.6886 309.478 9.11904 312.646 9.11904 312.646C6.9849 313.144 4.85135 312.669 3.1796 311.503C1.72485 310.488 0.630585 308.96 0.195637 307.098C-0.735986 303.099 1.7493 299.104 5.74423 298.173C5.74423 298.173 28.4125 295.252 41.7844 289.769C49.309 286.684 53.4562 284.619 60.2665 280.174C70.1229 273.741 76.6064 266.827 82.8782 260.247C85.374 258.946 88.0681 258.496 90.7191 259.945C92.9358 261.158 93.9325 262.578 94.3045 263.982C94.6886 265.433 94.5026 267.001 93.839 268.751C93.1503 270.566 91.6058 272.014 90.8769 272.745C83.5537 280.082 76.3218 287.549 65.1287 294.457Z" fill="#FFA54B"/>
<path d="M189.688 390.009C189.688 387.016 189.688 383.701 189.688 380.066C189.688 376.217 189.688 371.406 189.688 365.633C189.688 359.645 189.688 351.948 189.688 342.539C189.688 335.91 189.688 329.068 189.688 322.011C189.688 314.741 189.688 307.257 189.688 299.559C189.688 291.647 189.688 283.308 189.688 274.541C189.688 265.774 189.688 256.472 189.688 246.636C189.688 234.02 190.002 223.863 190.63 216.165C191.468 208.468 192.935 202.587 195.029 198.524C197.124 194.248 200.057 191.361 203.828 189.864C207.808 188.368 212.836 187.619 218.911 187.619C222.262 187.619 225.3 187.619 228.023 187.619C230.956 187.619 233.889 187.619 236.822 187.619C239.755 187.619 243.211 187.619 247.191 187.619C251.381 187.619 256.513 187.619 262.588 187.619C274.948 187.619 286.156 189.437 296.211 193.072C306.266 196.493 315.064 201.411 322.606 207.826C330.357 214.241 336.851 221.939 342.088 230.92C347.325 239.901 351.201 249.951 353.715 261.07C356.438 271.975 357.8 283.736 357.8 296.352C357.8 312.175 355.39 326.823 350.572 340.294C345.964 353.551 339.26 365.098 330.462 374.934C321.873 384.77 311.608 392.361 299.667 397.707C287.727 403.053 274.424 405.726 259.76 405.726C255.571 405.726 251.381 405.726 247.191 405.726C243.211 405.726 239.231 405.726 235.251 405.726C230.013 405.726 226.033 404.336 223.31 401.556C220.587 398.563 219.225 395.141 219.225 391.292C219.225 387.443 220.587 384.129 223.31 381.349C226.033 378.356 230.013 376.859 235.251 376.859C239.65 376.859 243.735 376.859 247.505 376.859C251.276 376.859 255.361 376.859 259.76 376.859C270.654 376.859 280.395 374.934 288.984 371.085C297.572 367.023 304.8 361.463 310.665 354.407C316.74 347.136 321.349 338.583 324.491 328.747C327.843 318.911 329.519 308.112 329.519 296.352C329.519 284.591 328.157 273.9 325.434 264.277C322.711 254.441 318.626 245.995 313.179 238.938C307.733 231.882 300.819 226.429 292.44 222.58C284.061 218.518 274.11 216.486 262.588 216.486C256.513 216.486 251.381 216.486 247.191 216.486C243.002 216.486 239.021 216.486 235.251 216.486C231.689 216.486 227.395 216.486 222.367 216.486C221.11 216.486 220.063 217.021 219.225 218.09C218.596 218.945 218.178 220.335 217.968 222.26C217.759 223.97 217.654 226.109 217.654 228.675C217.654 231.24 217.654 234.02 217.654 237.014C217.863 240.008 217.968 243.215 217.968 246.636C217.968 255.403 217.968 264.705 217.968 274.541C217.968 284.377 217.968 294.962 217.968 306.295C217.968 317.414 217.968 329.495 217.968 342.539C217.968 353.017 217.968 361.035 217.968 366.595C217.968 372.154 217.968 376.645 217.968 380.066C217.968 383.274 217.968 386.588 217.968 390.009C217.968 395.355 216.502 399.418 213.569 402.198C210.846 404.977 207.598 406.367 203.828 406.367C200.057 406.367 196.705 404.977 193.772 402.198C191.049 399.418 189.688 395.355 189.688 390.009Z" fill="black"/>
<path d="M130.949 391.502C130.949 384.601 130.949 378.328 130.949 372.682C130.949 367.036 130.949 361.913 130.949 357.312C130.949 352.503 130.949 348.111 130.949 344.138C130.949 334.101 130.949 323.855 130.949 313.399C130.949 302.944 130.949 292.488 130.949 282.033C130.949 271.368 130.949 261.121 130.949 251.293C130.949 246.484 130.949 241.779 130.949 237.178C130.949 232.369 130.949 227.246 130.949 221.809C130.949 216.372 130.949 210.203 130.949 203.302C130.949 198.075 132.308 194.206 135.027 191.697C137.954 188.978 141.3 187.619 145.064 187.619C148.828 187.619 152.069 188.978 154.788 191.697C157.715 194.206 159.179 198.075 159.179 203.302C159.179 210.203 159.179 216.372 159.179 221.809C159.179 227.246 159.179 232.369 159.179 237.178C159.179 241.779 159.179 246.484 159.179 251.293C159.179 261.121 159.179 271.368 159.179 282.033C159.179 292.488 159.179 302.944 159.179 313.399C159.179 323.855 159.179 334.101 159.179 344.138C159.179 348.111 159.179 352.503 159.179 357.312C159.179 361.913 159.179 367.036 159.179 372.682C159.179 378.328 159.179 384.601 159.179 391.502C159.179 396.939 157.715 401.016 154.788 403.735C152.069 406.244 148.828 407.499 145.064 407.499C141.3 407.499 137.954 406.244 135.027 403.735C132.308 401.016 130.949 396.939 130.949 391.502Z" fill="black"/>
<path d="M1591.7 311.244C1597.76 311.244 1604.25 311.244 1611.15 311.244C1618.05 311.244 1625.05 311.244 1632.16 311.244C1639.48 311.244 1646.59 311.244 1653.49 311.244C1656 311.244 1658.2 311.348 1660.08 311.557C1662.17 311.557 1663.74 311.453 1664.78 311.244C1666.04 310.825 1666.87 310.198 1667.29 309.362C1667.92 308.525 1668.03 307.061 1667.61 304.97C1666.14 298.279 1663.53 292.528 1659.77 287.719C1656.21 282.7 1651.61 278.936 1645.96 276.427C1640.32 273.708 1633.94 272.349 1626.83 272.349C1617.42 272.349 1609.06 274.545 1601.74 278.936C1594.63 283.327 1588.98 289.601 1584.8 297.756C1580.83 305.702 1578.84 315.008 1578.84 325.672C1578.84 336.964 1581.03 346.583 1585.43 354.53C1589.82 362.476 1595.78 368.54 1603.31 372.722C1611.04 376.695 1619.82 378.682 1629.65 378.682C1634.04 378.682 1638.64 378.264 1643.45 377.427C1648.26 376.382 1653.07 374.918 1657.88 373.036C1662.9 371.154 1667.92 368.854 1672.94 366.135C1677.54 363.417 1681.62 362.685 1685.17 363.939C1688.94 365.194 1691.76 367.494 1693.64 370.84C1695.52 373.977 1695.94 377.427 1694.9 381.191C1694.06 384.955 1691.34 388.092 1686.74 390.601C1680.26 394.365 1673.78 397.502 1667.29 400.011C1660.81 402.311 1654.33 403.984 1647.85 405.03C1641.57 406.284 1635.51 406.912 1629.65 406.912C1615.02 406.912 1601.74 403.67 1589.82 397.188C1577.9 390.706 1568.38 381.4 1561.27 369.272C1554.16 357.143 1550.61 342.61 1550.61 325.672C1550.61 309.362 1553.96 295.142 1560.65 283.014C1567.34 270.676 1576.43 261.162 1587.94 254.47C1599.44 247.569 1612.4 244.119 1626.83 244.119C1638.33 244.119 1648.89 246.419 1658.51 251.02C1668.13 255.62 1676.08 262.103 1682.35 270.467C1688.83 278.622 1693.12 288.451 1695.21 299.952C1696.46 306.434 1696.67 312.185 1695.84 317.203C1695 322.222 1692.91 326.404 1689.56 329.75C1686.22 332.887 1681.51 335.291 1675.45 336.964C1669.59 338.637 1662.27 339.474 1653.49 339.474C1646.8 339.474 1640.63 339.474 1634.99 339.474C1629.34 339.474 1624.01 339.474 1618.99 339.474C1614.18 339.474 1609.47 339.474 1604.87 339.474C1600.48 339.474 1596.09 339.474 1591.7 339.474C1586.47 339.474 1582.5 338.114 1579.78 335.396C1577.06 332.468 1575.7 329.123 1575.7 325.359C1575.7 321.595 1577.06 318.353 1579.78 315.635C1582.5 312.707 1586.47 311.244 1591.7 311.244Z" fill="black"/>
<path d="M1492.16 390.918C1492.16 386.527 1492.16 381.926 1492.16 377.117C1492.16 372.098 1492.16 367.184 1492.16 362.374C1492.16 357.356 1492.16 352.755 1492.16 348.573C1492.16 343.554 1492.16 338.013 1492.16 331.949C1492.16 325.675 1492.16 318.879 1492.16 311.56C1492.16 302.778 1490.7 295.563 1487.77 289.917C1485.05 284.062 1480.97 279.671 1475.54 276.744C1470.1 273.816 1463.41 272.352 1455.46 272.352C1448.56 272.352 1442.29 273.502 1436.64 275.803C1431 277.894 1426.08 281.03 1421.9 285.212C1417.93 289.395 1414.79 294.622 1412.49 300.896C1410.19 307.169 1409.04 314.383 1409.04 322.539C1409.04 326.094 1409.04 330.799 1409.04 336.654C1409.04 342.3 1409.04 348.364 1409.04 354.846C1409.04 361.329 1409.04 367.811 1409.04 374.294C1409.04 380.567 1409.04 386.108 1409.04 390.918C1409.04 395.1 1408.1 398.55 1406.22 401.269C1404.34 403.778 1401.93 405.451 1399 406.287C1396.28 407.124 1393.46 407.124 1390.53 406.287C1387.82 405.451 1385.52 403.778 1383.63 401.269C1381.75 398.55 1380.81 395.1 1380.81 390.918C1380.81 386.945 1380.81 381.612 1380.81 374.921C1380.81 368.02 1380.81 360.597 1380.81 352.651C1380.81 344.495 1380.81 336.654 1380.81 329.126C1380.81 321.389 1380.81 314.697 1380.81 309.051C1380.81 303.405 1380.81 299.537 1380.81 297.445C1380.81 293.263 1380.81 289.081 1380.81 284.899C1380.81 280.717 1380.81 276.534 1380.81 272.352C1380.81 268.17 1380.81 263.988 1380.81 259.806C1380.81 254.578 1382.17 250.605 1384.89 247.886C1387.82 245.168 1391.16 243.809 1394.93 243.809C1398.69 243.809 1401.93 245.168 1404.65 247.886C1407.58 250.605 1409.04 254.578 1409.04 259.806C1409.04 264.406 1409.04 268.693 1409.04 272.666C1409.04 276.639 1409.04 280.612 1409.04 284.585C1409.04 288.558 1409.04 292.845 1409.04 297.445C1409.04 298.7 1409.04 302.15 1409.04 307.796C1409.04 313.233 1409.04 319.925 1409.04 327.871C1409.04 335.608 1409.04 343.659 1409.04 352.023C1409.04 360.179 1409.04 367.811 1409.04 374.921C1409.04 381.822 1409.04 387.154 1409.04 390.918C1409.04 395.1 1408.1 398.55 1406.22 401.269C1404.34 403.778 1401.93 405.451 1399 406.287C1396.28 407.124 1393.46 407.124 1390.53 406.287C1387.82 405.451 1385.52 403.778 1383.63 401.269C1381.75 398.55 1380.81 395.1 1380.81 390.918C1380.81 386.108 1380.81 381.09 1380.81 375.862C1380.81 370.425 1380.81 364.884 1380.81 359.238C1380.81 353.592 1380.81 347.946 1380.81 342.3C1380.81 336.445 1380.81 330.903 1380.81 325.675C1380.81 315.011 1382.69 304.764 1386.46 294.936C1390.43 285.108 1395.87 276.43 1402.77 268.902C1409.67 261.165 1417.82 255.101 1427.23 250.709C1436.64 246.318 1446.78 244.122 1457.66 244.122C1466.65 244.122 1474.91 245.586 1482.44 248.514C1490.18 251.441 1496.87 255.832 1502.51 261.688C1508.16 267.334 1512.55 274.339 1515.69 282.703C1518.82 291.068 1520.39 300.687 1520.39 311.56C1520.39 316.37 1520.39 321.911 1520.39 328.185C1520.39 334.249 1520.39 341.045 1520.39 348.573C1520.39 353.801 1520.39 358.715 1520.39 363.315C1520.39 367.707 1520.39 372.098 1520.39 376.489C1520.39 380.881 1520.39 385.69 1520.39 390.918C1520.39 396.146 1518.93 400.119 1516 402.837C1513.28 405.556 1510.04 406.915 1506.28 406.915C1502.51 406.915 1499.17 405.556 1496.24 402.837C1493.52 400.119 1492.16 396.146 1492.16 390.918Z" fill="black"/>
<path d="M1309.46 390.915C1309.46 386.524 1309.46 382.028 1309.46 377.427C1309.46 372.827 1309.46 368.436 1309.46 364.253C1309.46 359.862 1309.46 355.68 1309.46 351.707C1309.46 344.597 1309.46 338.428 1309.46 333.2C1309.46 327.973 1309.46 322.745 1309.46 317.517C1309.46 312.289 1309.46 306.121 1309.46 299.011C1309.46 295.038 1309.46 291.065 1309.46 287.092C1309.46 283.118 1309.46 278.936 1309.46 274.545C1309.46 269.944 1309.46 265.03 1309.46 259.803C1309.46 254.575 1310.82 250.706 1313.54 248.197C1316.47 245.479 1319.82 244.119 1323.58 244.119C1327.34 244.119 1330.59 245.479 1333.3 248.197C1336.23 250.706 1337.69 254.575 1337.69 259.803C1337.69 265.24 1337.69 270.049 1337.69 274.231C1337.69 278.204 1337.69 282.177 1337.69 286.151C1337.69 289.915 1337.69 294.201 1337.69 299.011C1337.69 303.82 1337.69 309.466 1337.69 315.949C1337.69 322.222 1337.69 328.6 1337.69 335.082C1337.69 341.356 1337.69 346.897 1337.69 351.707C1337.69 356.516 1337.69 361.012 1337.69 365.194C1337.69 369.377 1337.69 373.559 1337.69 377.741C1337.69 381.714 1337.69 386.105 1337.69 390.915C1337.69 396.143 1336.23 400.116 1333.3 402.834C1330.59 405.553 1327.34 406.912 1323.58 406.912C1319.82 406.912 1316.47 405.657 1313.54 403.148C1310.82 400.429 1309.46 396.352 1309.46 390.915ZM1309.46 203.97C1309.46 201.67 1309.46 199.788 1309.46 198.324C1309.46 196.86 1309.46 195.397 1309.46 193.933C1309.46 192.469 1309.46 190.692 1309.46 188.6C1309.46 183.791 1310.82 180.236 1313.54 177.936C1316.47 175.427 1319.82 174.172 1323.58 174.172C1327.34 174.172 1330.59 175.427 1333.3 177.936C1336.23 180.236 1337.69 183.791 1337.69 188.6C1337.69 190.692 1337.69 192.469 1337.69 193.933C1337.69 195.397 1337.69 196.86 1337.69 198.324C1337.69 199.788 1337.69 201.67 1337.69 203.97C1337.69 208.78 1336.23 212.439 1333.3 214.948C1330.59 217.249 1327.34 218.399 1323.58 218.399C1319.82 218.399 1316.47 217.249 1313.54 214.948C1310.82 212.439 1309.46 208.78 1309.46 203.97Z" fill="black"/>
<path d="M1267.12 257.847C1267.12 263.283 1267.12 268.302 1267.12 272.903C1267.12 277.503 1267.12 282.417 1267.12 287.645C1267.12 292.663 1267.12 298.519 1267.12 305.21C1267.12 311.693 1267.12 319.43 1267.12 328.421C1267.12 340.341 1265.24 350.901 1261.48 360.102C1257.71 369.302 1252.38 377.144 1245.48 383.627C1238.79 389.9 1230.84 394.709 1221.64 398.055C1212.65 401.401 1202.82 403.074 1192.16 403.074C1181.49 403.074 1171.56 401.087 1162.36 397.114C1153.16 393.141 1145.11 387.495 1138.21 380.176C1131.31 372.857 1125.97 364.284 1122.21 354.456C1118.45 344.418 1116.56 333.44 1116.56 321.521C1116.56 305.628 1119.81 291.618 1126.29 279.489C1132.98 267.152 1141.97 257.533 1153.26 250.632C1164.76 243.732 1177.62 240.281 1191.84 240.281C1202.51 240.281 1212.34 242.268 1221.33 246.241C1230.53 250.005 1238.48 255.546 1245.17 262.865C1252.07 269.975 1257.4 278.444 1261.16 288.272C1265.14 298.1 1267.12 308.974 1267.12 320.893C1267.12 325.703 1267.12 330.408 1267.12 335.008C1267.12 339.4 1267.12 343.686 1267.12 347.869C1267.12 351.842 1267.12 355.606 1267.12 359.161C1267.12 364.807 1267.12 370.034 1267.12 374.844C1267.12 379.653 1267.12 384.881 1267.12 390.527C1267.12 395.755 1265.66 399.728 1262.73 402.446C1260.01 405.165 1256.77 406.524 1253.01 406.524C1249.25 406.524 1245.9 405.165 1242.97 402.446C1240.25 399.728 1238.89 395.755 1238.89 390.527C1238.89 387.181 1238.89 383.731 1238.89 380.176C1238.89 376.621 1238.89 373.171 1238.89 369.825C1238.89 366.27 1238.89 362.715 1238.89 359.161C1238.89 356.86 1238.89 353.306 1238.89 348.496C1238.89 343.477 1238.89 338.459 1238.89 333.44C1238.89 328.212 1238.89 324.03 1238.89 320.893C1238.89 310.647 1236.91 301.551 1232.93 293.604C1228.96 285.658 1223.42 279.489 1216.31 275.098C1209.2 270.707 1201.05 268.511 1191.84 268.511C1184.94 268.511 1178.57 269.87 1172.71 272.589C1166.86 275.098 1161.84 278.758 1157.65 283.567C1153.68 288.168 1150.54 293.709 1148.24 300.191C1145.94 306.674 1144.79 313.784 1144.79 321.521C1144.79 329.258 1145.94 336.368 1148.24 342.85C1150.54 349.332 1153.79 354.978 1157.97 359.788C1162.15 364.597 1167.17 368.361 1173.02 371.08C1178.88 373.589 1185.26 374.844 1192.16 374.844C1199.06 374.844 1205.33 373.903 1210.98 372.021C1216.83 370.139 1221.85 367.316 1226.03 363.552C1230.22 359.579 1233.35 354.665 1235.44 348.81C1237.74 342.955 1238.89 336.158 1238.89 328.421C1238.89 322.357 1238.89 315.979 1238.89 309.288C1238.89 302.596 1238.89 296.009 1238.89 289.527C1238.89 283.044 1238.89 277.085 1238.89 271.648C1238.89 266.002 1238.89 261.401 1238.89 257.847C1238.89 252.619 1240.25 248.646 1242.97 245.927C1245.9 243.209 1249.25 241.85 1253.01 241.85C1256.77 241.85 1260.01 243.209 1262.73 245.927C1265.66 248.646 1267.12 252.619 1267.12 257.847Z" fill="black"/>
<path d="M1085.26 274.545C1075.64 273.081 1067.49 273.395 1060.8 275.486C1054.11 277.368 1048.67 280.609 1044.49 285.21C1040.51 289.601 1037.59 294.933 1035.7 301.207C1033.82 307.48 1032.88 314.276 1032.88 321.595C1032.88 326.405 1032.88 331.946 1032.88 338.219C1032.88 344.493 1032.88 350.87 1032.88 357.353C1032.88 363.835 1032.88 370.004 1032.88 375.859C1032.88 381.714 1032.88 386.733 1032.88 390.915C1032.88 395.097 1031.94 398.443 1030.06 400.952C1028.18 403.462 1025.77 405.135 1022.84 405.971C1020.12 407.017 1017.3 407.121 1014.37 406.285C1011.66 405.448 1009.36 403.775 1007.47 401.266C1005.59 398.548 1004.65 395.097 1004.65 390.915C1004.65 386.524 1004.65 381.087 1004.65 374.605C1004.65 367.913 1004.65 361.012 1004.65 353.903C1004.65 346.584 1004.65 339.683 1004.65 333.201C1004.65 326.718 1004.65 321.49 1004.65 317.517C1004.65 311.662 1004.65 305.493 1004.65 299.011C1004.65 292.529 1004.65 286.046 1004.65 279.564C1004.65 272.872 1004.65 266.703 1004.65 261.057C1004.65 255.621 1006.01 251.648 1008.73 249.138C1011.66 246.42 1015 245.061 1018.77 245.061C1022.53 245.061 1025.77 246.42 1028.49 249.138C1031.42 251.857 1032.88 255.83 1032.88 261.057C1032.88 267.958 1032.88 274.441 1032.88 280.505C1032.88 286.36 1032.88 292.32 1032.88 298.384C1032.88 304.239 1032.88 310.617 1032.88 317.517C1032.88 320.236 1032.88 324.732 1032.88 331.005C1032.88 337.278 1032.88 344.284 1032.88 352.021C1032.88 359.758 1032.88 367.181 1032.88 374.291C1032.88 381.192 1032.88 386.733 1032.88 390.915C1032.88 395.097 1031.94 398.443 1030.06 400.952C1028.18 403.462 1025.77 405.135 1022.84 405.971C1020.12 407.017 1017.3 407.121 1014.37 406.285C1011.66 405.448 1009.36 403.775 1007.47 401.266C1005.59 398.548 1004.65 395.097 1004.65 390.915C1004.65 385.06 1004.65 377.95 1004.65 369.586C1004.65 361.221 1004.65 353.171 1004.65 345.434C1004.65 337.697 1004.65 331.841 1004.65 327.868C1004.65 318.877 1005.7 310.094 1007.79 301.52C1010.09 292.947 1013.43 285.001 1017.82 277.682C1022.22 270.363 1027.76 264.09 1034.45 258.862C1041.14 253.634 1048.98 249.87 1057.97 247.57C1067.17 245.27 1077.53 244.851 1089.03 246.315C1094.25 247.152 1098.02 249.138 1100.32 252.275C1102.62 255.412 1103.46 258.862 1102.83 262.626C1102.41 266.39 1100.63 269.526 1097.5 272.036C1094.57 274.336 1090.49 275.172 1085.26 274.545Z" fill="black"/>
<path d="M876.997 185.465C876.997 190.483 876.997 195.293 876.997 199.893C876.997 204.285 876.997 208.676 876.997 213.067C876.997 217.458 876.997 222.163 876.997 227.182C876.997 235.547 876.997 245.061 876.997 255.726C876.997 266.181 876.997 277.055 876.997 288.347C876.997 299.639 876.997 310.617 876.997 321.282C876.997 331.737 876.997 341.147 876.997 349.512C876.997 354.53 876.997 359.235 876.997 363.627C876.997 368.018 876.997 372.409 876.997 376.801C876.997 381.192 876.997 385.897 876.997 390.916C876.997 396.143 875.534 400.117 872.606 402.835C869.888 405.553 866.647 406.913 862.883 406.913C859.119 406.913 855.773 405.658 852.845 403.149C850.127 400.43 848.768 396.353 848.768 390.916C848.768 383.388 848.768 376.173 848.768 369.273C848.768 362.372 848.768 355.785 848.768 349.512C848.768 337.174 848.768 326.196 848.768 316.577C848.768 306.749 848.768 297.339 848.768 288.347C848.768 279.355 848.768 270.05 848.768 260.431C848.768 250.602 848.768 239.52 848.768 227.182C848.768 223 848.768 218.818 848.768 214.635C848.768 210.453 848.768 206.062 848.768 201.462C848.768 196.652 848.768 191.32 848.768 185.465C848.768 180.237 850.127 176.368 852.845 173.859C855.773 171.14 859.119 169.781 862.883 169.781C866.647 169.781 869.888 171.14 872.606 173.859C875.534 176.368 876.997 180.237 876.997 185.465ZM965.138 271.095C959.492 275.278 953.637 279.564 947.572 283.956C941.717 288.347 935.653 292.738 929.38 297.13C923.315 301.521 917.147 306.017 910.873 310.617C905.855 314.381 902.509 316.891 900.836 318.145C899.163 319.191 899.163 320.445 900.836 321.909C902.509 323.164 905.75 325.673 910.56 329.437C917.042 334.665 923.629 340.206 930.321 346.061C937.221 351.707 943.913 357.458 950.395 363.313C956.878 369.168 963.151 374.919 969.215 380.565C973.188 384.12 975.175 387.884 975.175 391.857C975.175 395.621 973.92 398.862 971.411 401.58C968.902 404.299 965.66 405.763 961.687 405.972C957.923 406.39 954.159 404.822 950.395 401.267C944.54 396.039 938.371 390.602 931.889 384.956C925.407 379.101 918.924 373.35 912.442 367.704C905.959 361.849 899.477 356.412 892.994 351.394C884.421 344.702 877.938 338.847 873.547 333.828C869.365 328.601 867.274 323.791 867.274 319.4C867.483 314.799 869.783 310.094 874.175 305.285C878.566 300.266 885.153 294.516 893.935 288.033C900.418 283.224 906.691 278.623 912.755 274.232C919.029 269.841 925.093 265.554 930.948 261.372C937.012 256.98 942.763 252.694 948.2 248.511C952.382 245.375 956.355 244.12 960.119 244.747C964.092 245.375 967.124 247.257 969.215 250.393C971.515 253.321 972.456 256.771 972.038 260.744C971.62 264.508 969.32 267.959 965.138 271.095Z" fill="black"/>
<path d="M667.48 202.714C667.48 206.896 667.48 211.496 667.48 216.515C667.48 221.534 667.48 226.552 667.48 231.571C667.48 236.59 667.48 241.19 667.48 245.372C667.48 256.664 667.48 266.492 667.48 274.857C667.48 283.012 667.48 290.645 667.48 297.755C667.48 304.655 667.48 311.869 667.48 319.397C667.48 330.899 669.78 341.145 674.381 350.137C678.981 358.919 685.359 365.82 693.514 370.839C701.879 375.857 711.498 378.367 722.371 378.367C733.663 378.367 743.283 375.857 751.229 370.839C759.384 365.82 765.657 358.919 770.049 350.137C774.44 341.145 776.636 330.899 776.636 319.397C776.636 311.869 776.636 304.655 776.636 297.755C776.636 290.645 776.636 283.012 776.636 274.857C776.636 266.492 776.636 256.664 776.636 245.372C776.636 241.817 776.636 237.426 776.636 232.198C776.636 226.761 776.636 221.429 776.636 216.201C776.636 210.974 776.636 206.478 776.636 202.714C776.636 197.486 777.995 193.513 780.713 190.794C783.641 188.076 786.987 186.717 790.751 186.717C794.515 186.717 797.756 188.076 800.474 190.794C803.402 193.513 804.866 197.486 804.866 202.714C804.866 206.896 804.866 211.496 804.866 216.515C804.866 221.534 804.866 226.552 804.866 231.571C804.866 236.59 804.866 241.19 804.866 245.372C804.866 252.9 804.866 260.219 804.866 267.329C804.866 274.23 804.866 281.862 804.866 290.227C804.866 298.382 804.866 308.105 804.866 319.397C804.866 331.944 802.879 343.55 798.906 354.214C794.933 364.879 789.287 374.184 781.968 382.131C774.649 389.868 765.971 395.932 755.934 400.323C745.896 404.505 734.709 406.597 722.371 406.597C710.452 406.597 699.369 404.505 689.123 400.323C679.086 395.932 670.303 389.868 662.775 382.131C655.456 374.184 649.706 364.879 645.523 354.214C641.341 343.55 639.25 331.944 639.25 319.397C639.25 308.105 639.25 298.382 639.25 290.227C639.25 281.862 639.25 274.23 639.25 267.329C639.25 260.219 639.25 252.9 639.25 245.372C639.25 241.817 639.25 237.426 639.25 232.198C639.25 226.761 639.25 221.429 639.25 216.201C639.25 210.974 639.25 206.478 639.25 202.714C639.25 197.486 640.609 193.513 643.328 190.794C646.255 188.076 649.601 186.717 653.365 186.717C657.129 186.717 660.37 188.076 663.089 190.794C666.016 193.513 667.48 197.486 667.48 202.714Z" fill="black"/>
</svg>
