<svg width="81" height="53" viewBox="0 0 81 53" fill="none" xmlns="http://www.w3.org/2000/svg">
<path d="M78.6826 52.1718H32.4583C31.7079 52.1718 31.0938 51.5577 31.0938 50.8073V44.8548C31.0938 44.1044 31.7079 43.4902 32.4583 43.4902H78.6826C79.433 43.4902 80.0471 44.1044 80.0471 44.8548V50.8073C80.0471 51.5577 79.433 52.1718 78.6826 52.1718Z" fill="#FD9F41"/>
<path d="M59.6508 22.6608V39.9341C59.6508 40.3266 59.3303 40.6486 58.9363 40.6486H52.3082C51.9158 40.6486 51.5938 40.3281 51.5938 39.9341V22.6608C51.5938 22.2683 51.9143 21.9463 52.3082 21.9463H58.9378C59.3287 21.9463 59.6508 22.2683 59.6508 22.6608Z" fill="#FD9F41"/>
<path d="M74.5903 22.6608V39.9341C74.5903 40.3266 74.2697 40.6486 73.8758 40.6486H67.2462C66.8538 40.6486 66.5317 40.3281 66.5317 39.9341V22.6608C66.5317 22.2683 66.8523 21.9463 67.2462 21.9463H73.8758C74.2697 21.9463 74.5903 22.2683 74.5903 22.6608Z" fill="#FD9F41"/>
<path d="M44.7604 22.6608V39.9341C44.7604 40.3266 44.4399 40.6486 44.046 40.6486H37.4164C37.0239 40.6486 36.7019 40.3281 36.7019 39.9341V22.6608C36.7019 22.2683 37.0225 21.9463 37.4164 21.9463H44.046C44.4399 21.9463 44.7604 22.2683 44.7604 22.6608Z" fill="#FD9F41"/>
<path d="M54.233 0.383078L31.8413 14.3312C29.6799 15.6777 30.634 19.012 33.1804 19.012H77.9637C80.5101 19.012 81.4628 15.6763 79.3028 14.3312L56.9097 0.383078C56.0903 -0.127693 55.0523 -0.127693 54.233 0.383078Z" fill="#FD9F41"/>
<path d="M30.1773 28.8051C30.1773 34.9718 25.1774 39.9717 19.0107 39.9717C18.4774 39.9717 17.9547 39.9342 17.4409 39.8608C17.4709 40.087 17.4799 40.3356 17.4799 40.5948L18.1943 50.7248C18.1943 51.5202 17.5428 52.1717 16.7474 52.1717H13.7262C12.9308 52.1717 12.2792 51.5202 12.2792 50.7248L12.9488 40.5948C12.9488 40.3476 12.9593 40.111 12.9892 39.8923C12.5564 39.9447 12.116 39.9717 11.6681 39.9717C5.49989 39.9717 0.5 34.9718 0.5 28.8051C0.5 24.6665 2.7513 21.0522 6.09754 19.1229C6.07208 18.8503 6.06009 18.5732 6.06009 18.2946C6.06009 13.2258 10.1688 9.11719 15.2375 9.11719C20.3048 9.11719 24.4135 13.2258 24.4135 18.2946C24.4135 18.5372 24.4045 18.7769 24.385 19.0151C27.8376 20.9129 30.1773 24.5856 30.1773 28.8051Z" fill="#FD9F41"/>
</svg>
