<svg width="3231" height="970" viewBox="0 0 3231 970" fill="none" xmlns="http://www.w3.org/2000/svg">
<path d="M18.4169 768.77L139.417 739.95C147.046 738.171 153.707 735.582 162.042 733.9C165.655 733.171 170.244 731.008 172.416 726.787C174.327 723.074 175.223 718.235 172.416 714.2C170.346 711.223 169.176 710.545 165.698 709.519C161.582 708.305 157.371 708.679 153.409 709.519C144.772 711.35 129.266 716.398 122.574 717.958L12.5504 743.611C5.60386 745.231 1.28495 752.175 2.90427 759.126C4.52222 766.07 11.4663 770.389 18.4169 768.77Z" fill="#EEC033"/>
<path d="M33.5994 689.928L111.816 671.69C122.408 669.221 143.669 663.039 153.917 659.4C157.47 658.109 161.725 655.4 164.398 652.727C166.338 650.787 168.818 643.505 167.071 639.363C164.611 633.532 158.368 632.834 151.9 633.59C150.228 633.785 148.546 634.095 146.915 634.465C137.156 638.006 116.169 644.149 105.951 646.531L27.7315 664.769C20.7852 666.389 16.4664 673.333 18.0852 680.283C19.7043 687.228 26.6496 691.544 33.5994 689.928Z" fill="#EEC033"/>
<path d="M24.7637 616.7L95.1914 600.28C107.826 597.334 129.14 591.402 142.784 585.033C148.219 582.496 153.707 580.563 156.38 577.89C160.143 574.127 161.21 569.392 159.053 564.527C157.509 561.046 154.033 558.607 151.775 558.04C149.431 557.451 146.539 557.553 143.41 558.099C140.209 558.657 126.035 562.791 123.212 563.758C112.38 568.573 101.042 572.389 89.3254 575.121L18.8966 591.541C11.9501 593.161 7.63112 600.106 9.25044 607.056C10.868 613.999 17.8161 618.317 24.7637 616.7Z" fill="#EEC033"/>
<path fill-rule="evenodd" clip-rule="evenodd" d="M253.541 111.024C251.255 109.43 249.471 107.095 248.589 104.222C246.498 97.4051 250.33 90.1797 257.154 88.0855C338.058 63.2698 424.306 59.686 506.558 77.7147C513.519 79.2356 517.933 86.1261 516.406 93.0969C514.879 100.064 507.992 104.474 501.023 102.947C423.092 85.867 341.385 89.2689 264.724 112.785C260.777 113.995 256.697 113.225 253.541 111.024Z" fill="#EEC033"/>
<path d="M708.32 115.232C641.507 68.6418 567.066 38.5025 487.088 25.6696C485.101 25.3523 483.297 24.5976 481.756 23.5228C477.808 20.7702 475.572 15.9226 476.384 10.8715C477.514 3.82865 484.14 -0.965051 491.183 0.165028C575.034 13.6191 653.051 45.1995 723.096 94.0425C759.585 119.487 792.938 149.128 822.224 182.136C826.959 187.472 826.471 195.637 821.135 200.371C815.803 205.102 807.64 204.612 802.903 199.282C774.961 167.789 743.138 139.51 708.32 115.232Z" fill="#EEC033"/>
<path d="M718.669 306.702C724.425 302.486 732.509 303.737 736.72 309.489C762.243 344.33 782.123 382.884 795.812 424.078C798.06 430.847 794.395 438.16 787.627 440.407C783.604 441.743 779.394 440.996 776.154 438.737C773.95 437.2 772.209 434.973 771.295 432.222C758.459 393.583 739.814 357.425 715.883 324.752C711.667 318.999 712.915 310.917 718.669 306.702Z" fill="#EEC033"/>
<path d="M61.8705 457.463C78.2361 453.645 92.5384 443.953 102.151 430.169L141.041 374.396C142.777 371.908 146.344 367.018 146.344 367.018C146.344 367.018 147.439 364.758 147.873 363.576C148.949 360.644 149.35 357.81 148.682 355.288C148.035 352.846 146.303 350.377 142.45 348.27C139.827 346.836 137.553 346.384 135.578 346.489C133.591 346.595 131.761 347.272 130.054 348.313C127.862 349.648 125.991 351.492 124.347 353.326C122.828 355.405 121.329 357.503 119.852 359.621L80.9616 415.393C75.0067 423.933 66.1408 429.94 56.0064 432.302L25.1563 439.494C18.2095 441.113 13.8914 448.058 15.5114 455.006C16.2642 458.242 18.1675 460.902 20.6972 462.666C23.6036 464.693 27.3097 465.519 31.0217 464.654L61.8705 457.463Z" fill="#EEC033"/>
<path fill-rule="evenodd" clip-rule="evenodd" d="M590.007 834.831C573.645 854.036 555.944 872.434 537.385 889.512C532.136 894.343 531.797 902.513 536.627 907.76C537.771 909.002 539.091 909.963 540.513 910.649C545.15 912.887 550.871 912.207 554.88 908.519C574.203 890.735 592.637 871.578 609.674 851.581C614.297 846.153 613.645 838.001 608.219 833.375C602.778 828.753 594.633 829.407 590.007 834.831Z" fill="#EEC033"/>
<path d="M133.047 795.83L26.2677 820.164C19.3152 821.747 14.9594 828.673 16.5447 835.628C17.2874 838.89 19.1979 841.572 21.7451 843.348C24.6342 845.363 28.3131 846.192 32.0072 845.35L138.785 821.015C193.182 808.619 244.042 786.114 289.045 755.063C292.484 752.69 295.779 749.021 297.32 745.154C298.225 742.885 298.954 739.37 296.279 735.787C294.241 733.056 291.21 732.104 288.448 731.942C285.529 731.772 282.118 732.388 278.617 733.456C273.51 735.014 270.109 736.963 265.053 739.95C219.255 767.013 174.251 786.44 133.047 795.83Z" fill="#EEC033"/>
<path d="M149.368 867.31L59.2732 887.844C52.3194 889.427 47.9629 896.352 49.5482 903.307C50.2909 906.569 52.2014 909.251 54.7486 911.027C57.6377 913.042 61.3167 913.87 65.0107 913.029L155.107 892.496C245.406 871.917 327.366 827.503 393.218 764.489C395.194 761.643 396.815 758.87 397.753 756.22C398.269 754.764 398.944 752.346 398.417 749.934C398.417 749.934 398.769 751.563 398.415 749.925C398.061 748.288 397.074 746.618 395.491 745.071C390.891 740.574 382.366 744.331 379.036 745.851C376.414 747.047 372.263 750.359 372.263 750.359C372.263 750.359 356.464 763.076 349.566 768.787C291.977 816.463 223.643 850.385 149.368 867.31Z" fill="#EEC033"/>
<path d="M140.751 944.488L165.685 938.805C228.562 924.477 278.486 905.515 341.037 865.586C391.727 833.228 458.042 765.471 458.042 765.471L475.428 747.056C475.428 747.056 484.557 736.442 490.922 734.746C495.794 733.447 499.88 735.864 501.745 737.286C503.112 738.329 504.45 739.945 505.254 742.142C507.176 747.389 503.154 751.501 500.29 755.563C493.303 765.471 424.872 841.698 359.772 884.243C292.909 927.942 239.137 948.558 171.422 963.99L146.49 969.674C142.796 970.516 139.117 969.687 136.228 967.672C133.684 965.898 131.772 963.214 131.028 959.952C129.442 952.997 133.796 946.073 140.751 944.488Z" fill="#EEC033"/>
<path d="M449.952 876.023C455.379 871.401 463.523 872.048 468.163 877.475C472.787 882.903 472.137 891.056 466.712 895.681C446.719 912.723 425.48 928.713 403.58 943.208C399.037 946.213 393.28 945.977 389.057 943.032C387.762 942.129 386.611 940.972 385.679 939.564C381.742 933.617 383.372 925.603 389.321 921.666L449.952 876.023Z" fill="#EEC033"/>
<path d="M589.071 721.039L538.689 777.011C519.438 798.398 498.564 818.623 476.642 837.125C471.19 841.727 470.502 849.875 475.102 855.325C475.491 855.786 475.908 856.216 476.346 856.61C481.063 860.856 488.317 861.073 493.303 856.863C516.121 837.604 537.853 816.552 557.89 794.291C557.89 794.291 590.462 760.52 608.219 737.077C629.6 708.85 650.175 670.212 655.379 660.844C657.114 657.721 659.542 647.313 652.256 644.19C645.731 641.394 638.213 645.603 635.602 651.476C627.276 670.212 592.086 717.69 589.071 721.039Z" fill="#EEC033"/>
<path d="M813.418 500.246C821.29 558.591 816.96 616.634 800.549 672.787C798.549 679.632 791.376 683.56 784.53 681.56C783.14 681.153 781.877 680.538 780.761 679.76C776.334 676.673 774.161 670.998 775.757 665.541C780.209 650.306 783.712 634.92 786.265 619.421C792.534 581.348 793.065 542.591 787.817 503.702C786.864 496.632 791.821 490.128 798.891 489.173C805.959 488.218 812.462 493.175 813.418 500.246Z" fill="#EEC033"/>
<path d="M563.495 268.164C567.245 262.099 575.205 260.222 581.272 263.974C586.657 267.304 592.028 270.834 597.238 274.467C752.322 382.61 790.514 596.772 682.37 751.854L639.297 813.625C635.215 819.477 627.166 820.912 621.314 816.832C615.463 812.751 614.026 804.702 618.108 798.849L661.182 737.077C761.183 593.669 725.869 395.653 582.462 295.653C577.641 292.291 572.672 289.024 567.688 285.942L567.672 285.933C561.609 282.219 559.735 274.248 563.495 268.164Z" fill="#EEC033"/>
<path d="M878.295 309.545C869.502 292.428 859.679 275.61 849.096 259.559C845.17 253.605 846.815 245.591 852.769 241.664C858.724 237.741 866.734 239.384 870.661 245.341C881.755 262.167 892.054 279.799 901.271 297.74C904.53 304.086 902.028 311.871 895.683 315.131C891.285 317.392 886.188 316.887 882.38 314.233C880.712 313.069 879.293 311.491 878.295 309.545Z" fill="#EEC033"/>
<path d="M668.119 270.903L668.115 270.899C654.51 258.169 639.813 246.275 624.429 235.547C621.598 233.574 618.747 231.64 615.875 229.747C555.541 189.976 486.321 168.102 415.089 165.704C409.974 165.531 404.848 165.46 399.714 165.489C380.143 165.6 360.46 167.18 340.803 170.261C241.075 185.889 152.49 238.408 91.3942 318.145C87.1766 323.649 79.3943 324.816 73.7648 320.89C73.5901 320.769 73.4421 320.661 73.3098 320.558L73.2846 320.538C67.6246 316.203 66.5509 308.095 70.8902 302.432C136.041 217.407 230.468 161.407 336.803 144.741C339.245 144.358 341.686 143.998 344.128 143.658C344.558 143.599 344.988 143.539 345.418 143.481C449.235 129.383 553.231 154.407 639.204 214.358C655.597 225.789 671.264 238.47 685.768 252.041C690.977 256.916 691.247 265.086 686.372 270.294C681.493 275.508 673.319 275.783 668.119 270.903Z" fill="#EEC033"/>
<path d="M505.216 256.207C511.956 258.547 519.317 254.979 521.655 248.242C523.992 241.508 520.423 234.148 513.688 231.802C477.793 219.342 440.237 212.998 402.055 212.946C394.92 212.937 389.13 218.716 389.122 225.847C389.114 230.241 391.296 234.124 394.659 236.469C396.742 237.922 399.275 238.776 402.018 238.781C437.317 238.827 472.038 244.691 505.216 256.207Z" fill="#EEC033"/>
<path d="M346.24 230.272C347.698 237.255 343.22 244.096 336.238 245.556C309.07 251.23 287.269 257.796 258.812 272.451C237.634 283.358 192.784 316.063 192.784 316.063C192.784 316.063 181.554 326.472 172.416 318.145C163.279 309.818 172.416 297.839 172.416 297.839C174.863 294.761 219.523 263.643 242.165 251.783C274.759 234.711 295.177 227.742 330.956 220.27C337.938 218.812 344.782 223.289 346.24 230.272Z" fill="#EEC033"/>
<path d="M564.296 107.667C566.918 101.034 574.421 97.7816 581.054 100.404C616.198 114.294 649.868 132.388 681.123 154.183C736.671 192.917 782.685 241.625 817.903 298.965C851.907 354.329 874.304 415.106 884.477 479.615C885.589 486.658 880.778 493.271 873.73 494.383C870.299 494.924 866.978 494.064 864.333 492.22C861.543 490.274 859.532 487.252 858.961 483.633C839.089 357.618 770.677 248.122 666.348 175.372C636.737 154.724 604.848 137.586 571.562 124.426C564.93 121.806 561.676 114.301 564.296 107.667Z" fill="#EEC033"/>
<path d="M113.212 511.846C100.365 519.775 92.5694 523.388 78.4984 528.857C55.0835 537.958 15.8514 543.464 15.8514 543.464C12.1417 544.33 8.43298 543.504 5.52701 541.477C2.99826 539.714 1.09613 537.057 0.340071 533.82C-1.27935 526.869 3.04076 519.925 9.98504 518.307C9.98504 518.307 49.3887 513.228 72.6327 503.698C85.7125 498.336 92.9216 494.746 104.76 487.019C121.893 475.837 133.163 463.819 144.065 452.381C148.403 450.119 153.087 449.336 157.695 451.856C161.548 453.964 163.281 456.432 163.927 458.874C164.595 461.396 164.271 464.122 163.118 467.162C161.921 470.318 159.236 472.835 157.969 474.105C145.239 486.86 132.668 499.839 113.212 511.846Z" fill="#EEC033"/>
<path d="M329.723 677.95C329.723 672.747 329.723 666.985 329.723 660.666C329.723 653.976 329.723 645.613 329.723 635.577C329.723 625.17 329.723 611.788 329.723 595.434C329.723 583.911 329.723 572.017 329.723 559.751C329.723 547.113 329.723 534.104 329.723 520.723C329.723 506.97 329.723 492.474 329.723 477.235C329.723 461.995 329.723 445.827 329.723 428.729C329.723 406.799 330.269 389.143 331.361 375.762C332.818 362.381 335.367 352.159 339.008 345.097C342.65 337.663 347.748 332.645 354.302 330.043C361.221 327.442 369.96 326.141 380.521 326.141C386.347 326.141 391.627 326.141 396.361 326.141C401.459 326.141 406.557 326.141 411.655 326.141C416.753 326.141 422.761 326.141 429.68 326.141C436.963 326.141 445.884 326.141 456.444 326.141C477.929 326.141 497.411 329.3 514.889 335.619C532.368 341.566 547.662 350.115 560.771 361.266C574.245 372.417 585.533 385.798 594.637 401.409C603.74 417.02 610.477 434.49 614.847 453.818C619.581 472.774 621.947 493.218 621.947 515.148C621.947 542.653 617.76 568.114 609.385 591.531C601.373 614.576 589.721 634.648 574.427 651.746C559.497 668.844 541.654 682.039 520.898 691.331C500.142 700.624 477.019 705.27 451.529 705.27C444.246 705.27 436.963 705.27 429.68 705.27C422.761 705.27 415.842 705.27 408.924 705.27C399.82 705.27 392.901 702.854 388.168 698.022C383.434 692.818 381.067 686.871 381.067 680.18C381.067 673.49 383.434 667.729 388.168 662.897C392.901 657.693 399.82 655.091 408.924 655.091C416.571 655.091 423.672 655.091 430.226 655.091C436.781 655.091 443.882 655.091 451.529 655.091C470.464 655.091 487.397 651.746 502.326 645.055C517.256 637.993 529.819 628.329 540.015 616.063C550.575 603.425 558.587 588.558 564.049 571.46C569.875 554.362 572.788 535.591 572.788 515.148C572.788 494.704 570.421 476.12 565.687 459.393C560.953 442.295 553.853 427.613 544.385 415.347C534.917 403.082 522.901 393.603 508.335 386.913C493.769 379.851 476.472 376.319 456.444 376.319C445.884 376.319 436.963 376.319 429.68 376.319C422.397 376.319 415.478 376.319 408.924 376.319C402.733 376.319 395.268 376.319 386.529 376.319C384.344 376.319 382.523 377.249 381.067 379.107C379.974 380.594 379.246 383.01 378.882 386.355C378.518 389.329 378.336 393.046 378.336 397.506C378.336 401.966 378.336 406.799 378.336 412.002C378.7 417.206 378.882 422.781 378.882 428.729C378.882 443.968 378.882 460.137 378.882 477.235C378.882 494.333 378.882 512.732 378.882 532.432C378.882 551.76 378.882 572.76 378.882 595.434C378.882 613.647 378.882 627.586 378.882 637.25C378.882 646.914 378.882 654.719 378.882 660.666C378.882 666.242 378.882 672.003 378.882 677.95C378.882 687.243 376.333 694.305 371.235 699.137C366.501 703.969 360.857 706.385 354.302 706.385C347.748 706.385 341.921 703.969 336.823 699.137C332.09 694.305 329.723 687.243 329.723 677.95Z" fill="white"/>
<path d="M227.617 680.545C227.617 668.55 227.617 657.645 227.617 647.831C227.617 638.016 227.617 629.111 227.617 621.114C227.617 612.754 227.617 605.12 227.617 598.214C227.617 580.766 227.617 562.955 227.617 544.781C227.617 526.606 227.617 508.432 227.617 490.257C227.617 471.719 227.617 453.908 227.617 436.824C227.617 428.463 227.617 420.285 227.617 412.288C227.617 403.928 227.617 395.022 227.617 385.571C227.617 376.121 227.617 365.398 227.617 353.402C227.617 344.315 229.98 337.591 234.705 333.229C239.794 328.503 245.61 326.141 252.153 326.141C258.696 326.141 264.33 328.503 269.055 333.229C274.144 337.591 276.689 344.315 276.689 353.402C276.689 365.398 276.689 376.121 276.689 385.571C276.689 395.022 276.689 403.928 276.689 412.288C276.689 420.285 276.689 428.463 276.689 436.824C276.689 453.908 276.689 471.719 276.689 490.257C276.689 508.432 276.689 526.606 276.689 544.781C276.689 562.955 276.689 580.766 276.689 598.214C276.689 605.12 276.689 612.754 276.689 621.114C276.689 629.111 276.689 638.016 276.689 647.831C276.689 657.645 276.689 668.55 276.689 680.545C276.689 689.996 274.144 697.084 269.055 701.809C264.33 706.171 258.696 708.352 252.153 708.352C245.61 708.352 239.794 706.171 234.705 701.809C229.98 697.084 227.617 689.996 227.617 680.545Z" fill="white"/>
<path d="M3154.85 653.281C3154.85 647.535 3154.85 642.387 3154.85 637.839C3154.85 633.29 3154.85 628.741 3154.85 624.192C3154.85 619.643 3154.85 614.376 3154.85 608.391C3154.85 600.49 3154.85 592.949 3154.85 585.766C3154.85 578.344 3154.85 570.683 3154.85 562.783C3154.85 554.643 3154.85 545.664 3154.85 535.849C3154.85 526.033 3154.85 514.541 3154.85 501.373C3154.85 496.345 3154.85 491.078 3154.85 485.572C3154.85 480.065 3154.85 474.798 3154.85 469.771C3154.85 464.503 3154.85 460.074 3154.85 456.483C3154.85 450.498 3156.4 445.949 3159.51 442.837C3162.87 439.724 3166.7 438.168 3171.01 438.168C3175.32 438.168 3179.03 439.724 3182.14 442.837C3185.49 445.949 3187.17 450.498 3187.17 456.483C3187.17 460.553 3187.17 464.144 3187.17 467.257C3187.17 470.369 3187.17 473.481 3187.17 476.594C3187.17 479.706 3187.17 483.297 3187.17 487.367C3187.17 491.198 3187.17 495.867 3187.17 501.373C3187.17 510.231 3187.17 518.611 3187.17 526.511C3187.17 534.173 3187.17 542.073 3187.17 550.213C3187.17 558.353 3187.17 567.092 3187.17 576.429C3187.17 585.766 3187.17 596.42 3187.17 608.391C3187.17 614.855 3187.17 620.242 3187.17 624.551C3187.17 628.861 3187.17 633.17 3187.17 637.479C3187.17 641.549 3187.17 646.817 3187.17 653.281C3187.17 659.266 3185.49 663.815 3182.14 666.927C3179.03 670.04 3175.32 671.596 3171.01 671.596C3166.7 671.596 3162.87 670.159 3159.51 667.286C3156.4 664.174 3154.85 659.505 3154.85 653.281ZM3212.66 521.125C3209.07 521.125 3205.6 521.125 3202.25 521.125C3198.9 521.125 3195.55 521.125 3192.19 521.125C3185.01 521.125 3178.31 521.125 3172.08 521.125C3166.1 521.125 3159.52 521.125 3152.33 521.125C3150.18 521.125 3148.14 521.125 3146.23 521.125C3144.31 521.125 3142.16 521.125 3139.76 521.125C3137.61 521.125 3135.33 521.125 3132.94 521.125C3126.95 521.125 3122.41 519.568 3119.29 516.456C3116.18 513.104 3114.62 509.274 3114.62 504.964C3114.62 500.655 3116.18 496.944 3119.29 493.832C3122.41 490.48 3126.95 488.804 3132.94 488.804C3136.05 488.804 3138.57 488.804 3140.48 488.804C3142.4 488.804 3144.19 488.804 3145.87 488.804C3147.78 488.804 3149.94 488.804 3152.33 488.804C3159.04 488.804 3165.62 488.804 3172.08 488.804C3178.79 488.804 3185.49 488.804 3192.19 488.804C3196.03 488.804 3199.38 488.804 3202.25 488.804C3205.36 488.804 3208.83 488.804 3212.66 488.804C3218.65 488.804 3223.2 490.48 3226.31 493.832C3229.42 496.944 3230.98 500.655 3230.98 504.964C3230.98 509.274 3229.42 513.104 3226.31 516.456C3223.2 519.568 3218.65 521.125 3212.66 521.125Z" fill="white"/>
<path d="M3061.31 653.288C3061.31 648.261 3061.31 642.994 3061.31 637.487C3061.31 631.741 3061.31 626.115 3061.31 620.609C3061.31 614.863 3061.31 609.596 3061.31 604.807C3061.31 599.061 3061.31 592.717 3061.31 585.774C3061.31 578.592 3061.31 570.811 3061.31 562.431C3061.31 552.376 3059.63 544.116 3056.28 537.652C3053.17 530.948 3048.5 525.921 3042.27 522.569C3036.05 519.217 3028.39 517.541 3019.29 517.541C3011.39 517.541 3004.21 518.858 2997.74 521.492C2991.28 523.886 2985.65 527.477 2980.86 532.265C2976.32 537.053 2972.72 543.039 2970.09 550.221C2967.46 557.403 2966.14 565.663 2966.14 575C2966.14 579.07 2966.14 584.457 2966.14 591.161C2966.14 597.625 2966.14 604.568 2966.14 611.99C2966.14 619.411 2966.14 626.833 2966.14 634.255C2966.14 641.437 2966.14 647.782 2966.14 653.288C2966.14 658.077 2965.06 662.027 2962.91 665.139C2960.75 668.012 2958 669.928 2954.65 670.885C2951.54 671.843 2948.3 671.843 2944.95 670.885C2941.84 669.928 2939.21 668.012 2937.05 665.139C2934.9 662.027 2933.82 658.077 2933.82 653.288C2933.82 648.74 2933.82 642.635 2933.82 634.973C2933.82 627.073 2933.82 618.574 2933.82 609.476C2933.82 600.139 2933.82 591.161 2933.82 582.542C2933.82 573.684 2933.82 566.022 2933.82 559.558C2933.82 553.094 2933.82 548.665 2933.82 546.271C2933.82 541.483 2933.82 536.694 2933.82 531.906C2933.82 527.118 2933.82 522.329 2933.82 517.541C2933.82 512.753 2933.82 507.965 2933.82 503.176C2933.82 497.191 2935.38 492.642 2938.49 489.53C2941.84 486.418 2945.67 484.861 2949.98 484.861C2954.29 484.861 2958 486.418 2961.11 489.53C2964.47 492.642 2966.14 497.191 2966.14 503.176C2966.14 508.444 2966.14 513.351 2966.14 517.9C2966.14 522.449 2966.14 526.998 2966.14 531.547C2966.14 536.096 2966.14 541.004 2966.14 546.271C2966.14 547.707 2966.14 551.658 2966.14 558.122C2966.14 564.346 2966.14 572.008 2966.14 581.105C2966.14 589.964 2966.14 599.181 2966.14 608.758C2966.14 618.095 2966.14 626.833 2966.14 634.973C2966.14 642.874 2966.14 648.979 2966.14 653.288C2966.14 658.077 2965.06 662.027 2962.91 665.139C2960.75 668.012 2958 669.928 2954.65 670.885C2951.54 671.843 2948.3 671.843 2944.95 670.885C2941.84 669.928 2939.21 668.012 2937.05 665.139C2934.9 662.027 2933.82 658.077 2933.82 653.288C2933.82 647.782 2933.82 642.036 2933.82 636.051C2933.82 629.826 2933.82 623.481 2933.82 617.017C2933.82 610.553 2933.82 604.089 2933.82 597.625C2933.82 590.921 2933.82 584.577 2933.82 578.592C2933.82 566.381 2935.98 554.65 2940.28 543.398C2944.83 532.145 2951.06 522.21 2958.96 513.591C2966.86 504.733 2976.2 497.79 2986.97 492.762C2997.74 487.734 3009.36 485.22 3021.8 485.22C3032.1 485.22 3041.56 486.896 3050.18 490.248C3059.03 493.6 3066.69 498.628 3073.16 505.331C3079.62 511.795 3084.65 519.816 3088.24 529.392C3091.83 538.969 3093.63 549.982 3093.63 562.431C3093.63 567.938 3093.63 574.282 3093.63 581.465C3093.63 588.408 3093.63 596.188 3093.63 604.807C3093.63 610.793 3093.63 616.419 3093.63 621.686C3093.63 626.714 3093.63 631.741 3093.63 636.769C3093.63 641.797 3093.63 647.303 3093.63 653.288C3093.63 659.274 3091.95 663.823 3088.6 666.935C3085.49 670.047 3081.78 671.604 3077.47 671.604C3073.16 671.604 3069.33 670.047 3065.98 666.935C3062.86 663.823 3061.31 659.274 3061.31 653.288Z" fill="white"/>
<path d="M2774.42 562.072C2781.36 562.072 2788.78 562.072 2796.68 562.072C2804.58 562.072 2812.6 562.072 2820.74 562.072C2829.12 562.072 2837.26 562.072 2845.16 562.072C2848.04 562.072 2850.55 562.192 2852.71 562.431C2855.1 562.431 2856.9 562.312 2858.09 562.072C2859.53 561.593 2860.49 560.875 2860.97 559.918C2861.68 558.96 2861.8 557.284 2861.32 554.89C2859.65 547.229 2856.66 540.645 2852.35 535.138C2848.28 529.392 2843.01 525.083 2836.55 522.21C2830.08 519.098 2822.78 517.541 2814.64 517.541C2803.87 517.541 2794.29 520.055 2785.91 525.083C2777.77 530.111 2771.31 537.293 2766.52 546.63C2761.97 555.728 2759.69 566.382 2759.69 578.592C2759.69 591.52 2762.21 602.533 2767.24 611.631C2772.26 620.729 2779.09 627.672 2787.71 632.46C2796.56 637.009 2806.62 639.283 2817.87 639.283C2822.9 639.283 2828.17 638.804 2833.67 637.847C2839.18 636.649 2844.69 634.974 2850.19 632.819C2855.94 630.664 2861.68 628.031 2867.43 624.918C2872.7 621.806 2877.37 620.968 2881.44 622.404C2885.74 623.841 2888.98 626.474 2891.13 630.305C2893.29 633.896 2893.77 637.847 2892.57 642.156C2891.61 646.465 2888.5 650.057 2883.23 652.93C2875.81 657.239 2868.39 660.83 2860.97 663.703C2853.54 666.337 2846.12 668.252 2838.7 669.449C2831.52 670.886 2824.57 671.604 2817.87 671.604C2801.11 671.604 2785.91 667.893 2772.26 660.471C2758.62 653.049 2747.72 642.395 2739.58 628.509C2731.44 614.624 2727.37 597.984 2727.37 578.592C2727.37 559.918 2731.2 543.638 2738.86 529.752C2746.53 515.626 2756.94 504.733 2770.11 497.072C2783.28 489.171 2798.12 485.221 2814.64 485.221C2827.81 485.221 2839.9 487.854 2850.91 493.121C2861.92 498.388 2871.02 505.81 2878.2 515.387C2885.63 524.724 2890.53 535.976 2892.93 549.144C2894.36 556.566 2894.6 563.15 2893.65 568.896C2892.69 574.641 2890.29 579.43 2886.46 583.26C2882.63 586.852 2877.25 589.605 2870.3 591.52C2863.6 593.435 2855.22 594.393 2845.16 594.393C2837.5 594.393 2830.44 594.393 2823.98 594.393C2817.51 594.393 2811.41 594.393 2805.66 594.393C2800.15 594.393 2794.77 594.393 2789.5 594.393C2784.47 594.393 2779.45 594.393 2774.42 594.393C2768.43 594.393 2763.88 592.837 2760.77 589.725C2757.66 586.373 2756.1 582.542 2756.1 578.233C2756.1 573.923 2757.66 570.212 2760.77 567.1C2763.88 563.748 2768.43 562.072 2774.42 562.072Z" fill="white"/>
<path d="M2472 503.177C2472 508.444 2472 513.352 2472 517.901C2472 522.449 2472 526.998 2472 531.547C2472 536.096 2472 541.004 2472 546.271C2472 548.665 2472 553.214 2472 559.918C2472 566.382 2472 574.043 2472 582.901C2472 591.76 2472 600.857 2472 610.194C2472 619.292 2472 627.791 2472 635.692C2472 643.353 2472 649.219 2472 653.289C2472 658.077 2470.92 662.027 2468.77 665.14C2466.61 668.013 2463.86 669.928 2460.51 670.886C2457.39 671.843 2454.16 671.843 2450.81 670.886C2447.7 669.928 2445.06 668.013 2442.91 665.14C2440.76 662.027 2439.68 658.077 2439.68 653.289C2439.68 648.261 2439.68 642.515 2439.68 636.051C2439.68 629.587 2439.68 622.883 2439.68 615.94C2439.68 608.758 2439.68 601.695 2439.68 594.752C2439.68 587.57 2439.68 580.986 2439.68 575.001C2439.68 561.833 2441.59 549.862 2445.42 539.089C2449.49 528.076 2455.12 518.619 2462.3 510.718C2469.48 502.578 2477.86 496.353 2487.44 492.044C2497.02 487.495 2507.31 485.221 2518.32 485.221C2526.94 485.221 2535.08 486.657 2542.75 489.53C2550.41 492.403 2557.23 496.952 2563.21 503.177C2569.2 509.162 2573.87 516.823 2577.22 526.16C2580.57 535.258 2582.25 546.151 2582.25 558.84C2582.25 560.995 2582.25 565.065 2582.25 571.05C2582.25 576.796 2582.25 583.619 2582.25 591.52C2582.25 599.181 2582.25 607.082 2582.25 615.222C2582.25 623.362 2582.25 630.784 2582.25 637.487C2582.25 644.191 2582.25 649.458 2582.25 653.289C2582.25 658.077 2581.17 662.027 2579.02 665.14C2576.86 668.013 2574.11 669.928 2570.76 670.886C2567.64 671.843 2564.41 671.843 2561.06 670.886C2557.95 669.928 2555.31 668.013 2553.16 665.14C2551 662.027 2549.93 658.077 2549.93 653.289C2549.93 648.74 2549.93 642.874 2549.93 635.692C2549.93 628.27 2549.93 620.609 2549.93 612.708C2549.93 604.568 2549.93 597.146 2549.93 590.443C2549.93 583.739 2549.93 578.592 2549.93 575.001C2549.93 561.833 2551.84 549.862 2555.67 539.089C2559.74 528.076 2565.37 518.619 2572.55 510.718C2579.73 502.578 2588.11 496.353 2597.69 492.044C2607.27 487.495 2617.56 485.221 2628.57 485.221C2637.19 485.221 2645.33 486.657 2652.99 489.53C2660.66 492.403 2667.48 496.952 2673.46 503.177C2679.45 509.162 2684.12 516.823 2687.47 526.16C2690.82 535.258 2692.5 546.151 2692.5 558.84C2692.5 562.431 2692.5 567.22 2692.5 573.205C2692.5 578.951 2692.5 584.697 2692.5 590.443C2692.5 596.189 2692.5 600.977 2692.5 604.808C2692.5 610.553 2692.5 616.06 2692.5 621.327C2692.5 626.355 2692.5 631.502 2692.5 636.769C2692.5 641.797 2692.5 647.303 2692.5 653.289C2692.5 659.274 2690.82 663.823 2687.47 666.935C2684.36 670.048 2680.65 671.604 2676.34 671.604C2672.03 671.604 2668.2 670.048 2664.85 666.935C2661.73 663.823 2660.18 659.274 2660.18 653.289C2660.18 648.261 2660.18 642.994 2660.18 637.487C2660.18 631.742 2660.18 626.115 2660.18 620.609C2660.18 614.863 2660.18 609.596 2660.18 604.808C2660.18 596.428 2660.18 588.767 2660.18 581.824C2660.18 574.641 2660.18 566.98 2660.18 558.84C2660.18 549.024 2658.86 541.124 2656.23 535.138C2653.83 529.153 2650.24 524.724 2645.45 521.851C2640.9 518.978 2635.28 517.541 2628.57 517.541C2621.63 517.541 2615.29 518.619 2609.54 520.774C2603.8 522.928 2598.89 526.16 2594.82 530.47C2590.75 534.54 2587.64 539.687 2585.48 545.912C2583.33 552.137 2582.25 559.439 2582.25 567.818C2582.25 573.085 2582.25 579.669 2582.25 587.57C2582.25 595.231 2582.25 603.371 2582.25 611.99C2582.25 620.369 2582.25 628.27 2582.25 635.692C2582.25 643.114 2582.25 648.979 2582.25 653.289C2582.25 658.077 2581.17 662.027 2579.02 665.14C2576.86 668.013 2574.11 669.928 2570.76 670.886C2567.64 671.843 2564.41 671.843 2561.06 670.886C2557.95 669.928 2555.31 668.013 2553.16 665.14C2551 662.027 2549.93 658.077 2549.93 653.289C2549.93 648.979 2549.93 642.515 2549.93 633.896C2549.93 625.277 2549.93 615.94 2549.93 605.885C2549.93 595.83 2549.93 586.492 2549.93 577.874C2549.93 569.255 2549.93 562.91 2549.93 558.84C2549.93 549.024 2548.61 541.124 2545.98 535.138C2543.58 529.153 2539.99 524.724 2535.2 521.851C2530.65 518.978 2525.03 517.541 2518.32 517.541C2511.38 517.541 2505.04 518.619 2499.29 520.774C2493.55 522.928 2488.64 526.16 2484.57 530.47C2480.5 534.54 2477.39 539.687 2475.23 545.912C2473.08 552.137 2472 559.439 2472 567.818C2472 571.888 2472 577.634 2472 585.056C2472 592.478 2472 600.498 2472 609.117C2472 617.496 2472 625.636 2472 633.537C2472 641.438 2472 648.022 2472 653.289C2472 658.077 2470.92 662.027 2468.77 665.14C2466.61 668.013 2463.86 669.928 2460.51 670.886C2457.39 671.843 2454.16 671.843 2450.81 670.886C2447.7 669.928 2445.06 668.013 2442.91 665.14C2440.76 662.027 2439.68 658.077 2439.68 653.289C2439.68 649.219 2439.68 643.233 2439.68 635.333C2439.68 627.432 2439.68 618.693 2439.68 609.117C2439.68 599.54 2439.68 590.323 2439.68 581.465C2439.68 572.367 2439.68 564.586 2439.68 558.122C2439.68 551.658 2439.68 547.708 2439.68 546.271C2439.68 541.483 2439.68 536.695 2439.68 531.906C2439.68 527.118 2439.68 522.33 2439.68 517.541C2439.68 512.753 2439.68 507.965 2439.68 503.177C2439.68 497.191 2441.23 492.762 2444.35 489.889C2447.7 486.777 2451.53 485.221 2455.84 485.221C2460.15 485.221 2463.86 486.777 2466.97 489.889C2470.32 492.762 2472 497.191 2472 503.177Z" fill="white"/>
<path d="M2229.96 712.543C2229.96 707.755 2229.96 702.488 2229.96 696.742C2229.96 690.996 2229.96 684.891 2229.96 678.427C2229.96 672.202 2229.96 665.858 2229.96 659.394C2229.96 653.169 2229.96 645.987 2229.96 637.847C2229.96 629.707 2229.96 620.609 2229.96 610.553C2229.96 600.259 2229.96 589.365 2229.96 577.874C2229.96 559.678 2233.67 543.638 2241.1 529.752C2248.52 515.866 2258.69 504.972 2271.62 497.072C2284.55 489.171 2299.27 485.221 2315.79 485.221C2332.07 485.221 2346.68 489.291 2359.61 497.431C2372.77 505.331 2383.19 516.344 2390.85 530.47C2398.51 544.356 2402.34 560.396 2402.34 578.592C2402.34 592.238 2400.07 604.808 2395.52 616.299C2391.21 627.552 2385.1 637.368 2377.2 645.747C2369.3 653.887 2360.08 660.232 2349.55 664.781C2339.25 669.329 2328.12 671.604 2316.15 671.604C2303.94 671.604 2292.57 669.329 2282.04 664.781C2271.5 659.992 2262.28 653.528 2254.38 645.388C2246.72 637.009 2240.74 627.193 2236.43 615.94C2232.12 604.688 2229.96 592.478 2229.96 579.31C2229.96 571.409 2229.96 562.91 2229.96 553.813C2229.96 544.475 2229.96 535.617 2229.96 527.238C2229.96 518.619 2229.96 511.436 2229.96 505.691C2229.96 499.466 2231.52 494.917 2234.63 492.044C2237.98 488.932 2241.81 487.375 2246.12 487.375C2250.43 487.375 2254.14 488.932 2257.26 492.044C2260.61 495.156 2262.28 499.705 2262.28 505.691C2262.28 514.309 2262.28 521.971 2262.28 528.674C2262.28 535.378 2262.28 542.56 2262.28 550.221C2262.28 557.883 2262.28 567.579 2262.28 579.31C2262.28 587.929 2263.6 595.83 2266.23 603.012C2268.87 610.194 2272.58 616.539 2277.37 622.045C2282.16 627.552 2287.78 631.861 2294.25 634.974C2300.95 637.847 2308.25 639.283 2316.15 639.283C2323.81 639.283 2330.88 637.847 2337.34 634.974C2344.04 631.861 2349.79 627.671 2354.58 622.404C2359.37 616.898 2363.08 610.434 2365.71 603.012C2368.58 595.59 2370.02 587.45 2370.02 578.592C2370.02 569.734 2368.7 561.594 2366.07 554.172C2363.44 546.75 2359.72 540.286 2354.94 534.779C2350.15 529.273 2344.4 525.083 2337.7 522.21C2331 519.098 2323.69 517.541 2315.79 517.541C2305.02 517.541 2295.56 520.175 2287.42 525.442C2279.52 530.47 2273.3 537.532 2268.75 546.63C2264.44 555.728 2262.28 566.142 2262.28 577.874C2262.28 585.774 2262.28 594.154 2262.28 603.012C2262.28 611.631 2262.28 620.609 2262.28 629.946C2262.28 639.044 2262.28 648.261 2262.28 657.598C2262.28 665.738 2262.28 672.801 2262.28 678.786C2262.28 684.772 2262.28 690.398 2262.28 695.665C2262.28 700.932 2262.28 706.558 2262.28 712.543C2262.28 718.529 2260.61 723.078 2257.26 726.19C2254.14 729.302 2250.43 730.859 2246.12 730.859C2241.81 730.859 2237.98 729.302 2234.63 726.19C2231.52 723.078 2229.96 718.529 2229.96 712.543Z" fill="white"/>
<path d="M2075.48 668.013C2065.43 664.421 2056.57 659.992 2048.91 654.725C2041.49 649.219 2034.9 642.156 2029.16 633.537C2024.13 626.115 2020.18 617.736 2017.31 608.399C2014.43 599.062 2013 589.006 2013 578.233C2013 560.277 2016.83 544.356 2024.49 530.47C2032.39 516.344 2043.04 505.331 2056.45 497.431C2070.1 489.291 2085.42 485.221 2102.42 485.221C2119.65 485.221 2134.98 489.291 2148.38 497.431C2162.03 505.331 2172.68 516.344 2180.35 530.47C2188.25 544.356 2192.2 560.277 2192.2 578.233C2192.2 588.767 2190.76 598.702 2187.89 608.04C2185.25 617.137 2181.3 625.517 2176.04 633.178C2170.29 642.036 2163.71 649.099 2156.28 654.366C2148.86 659.633 2139.77 664.182 2128.99 668.013C2123.49 669.928 2118.7 669.808 2114.63 667.654C2110.8 665.499 2108.16 662.386 2106.73 658.316C2105.29 654.246 2105.53 650.296 2107.44 646.465C2109.36 642.395 2113.19 639.283 2118.94 637.128C2126.12 634.734 2131.98 631.981 2136.53 628.869C2141.08 625.517 2145.39 620.968 2149.46 615.222C2152.81 610.194 2155.33 604.568 2157 598.343C2158.92 592.119 2159.88 585.415 2159.88 578.233C2159.88 566.501 2157.36 556.087 2152.33 546.989C2147.55 537.652 2140.84 530.47 2132.22 525.442C2123.61 520.175 2113.67 517.541 2102.42 517.541C2091.16 517.541 2081.23 520.175 2072.61 525.442C2063.99 530.47 2057.29 537.652 2052.5 546.989C2047.71 556.087 2045.32 566.501 2045.32 578.233C2045.32 585.415 2046.15 592.238 2047.83 598.703C2049.75 604.927 2052.38 610.553 2055.73 615.581C2058.36 619.412 2061.12 622.644 2063.99 625.277C2067.1 627.911 2070.46 630.185 2074.05 632.101C2077.64 634.016 2081.59 635.692 2085.9 637.128C2091.64 639.283 2095.47 642.395 2097.39 646.465C2099.3 650.296 2099.54 654.246 2098.11 658.316C2096.67 662.386 2093.92 665.499 2089.85 667.654C2086.02 669.808 2081.23 669.928 2075.48 668.013Z" fill="white"/>
<path d="M1941.02 653.285C1941.02 648.257 1941.02 642.87 1941.02 637.124C1941.02 631.378 1941.02 625.632 1941.02 619.886C1941.02 614.141 1941.02 608.754 1941.02 603.726C1941.02 584.573 1941.02 563.624 1941.02 540.88C1941.02 518.136 1941.02 492.519 1941.02 464.029C1941.02 457.564 1941.02 450.023 1941.02 441.404C1941.02 432.785 1941.02 425.004 1941.02 418.061C1941.02 412.076 1942.57 407.527 1945.69 404.415C1949.04 401.302 1952.87 399.746 1957.18 399.746C1961.49 399.746 1965.2 401.302 1968.31 404.415C1971.66 407.527 1973.34 412.076 1973.34 418.061C1973.34 423.807 1973.34 429.194 1973.34 434.222C1973.34 439.01 1973.34 443.918 1973.34 448.945C1973.34 453.734 1973.34 458.761 1973.34 464.029C1973.34 476.717 1973.34 490.244 1973.34 504.609C1973.34 518.974 1973.34 534.416 1973.34 550.935C1973.34 567.216 1973.34 584.812 1973.34 603.726C1973.34 609.711 1973.34 615.338 1973.34 620.605C1973.34 625.872 1973.34 631.139 1973.34 636.406C1973.34 641.673 1973.34 647.299 1973.34 653.285C1973.34 659.27 1971.66 663.819 1968.31 666.931C1965.2 670.044 1961.49 671.6 1957.18 671.6C1952.87 671.6 1949.04 670.044 1945.69 666.931C1942.57 663.819 1941.02 659.27 1941.02 653.285Z" fill="white"/>
<path d="M1780.18 562.072C1787.13 562.072 1794.55 562.072 1802.45 562.072C1810.35 562.072 1818.37 562.072 1826.51 562.072C1834.89 562.072 1843.03 562.072 1850.93 562.072C1853.8 562.072 1856.32 562.192 1858.47 562.431C1860.87 562.431 1862.66 562.312 1863.86 562.072C1865.29 561.593 1866.25 560.875 1866.73 559.918C1867.45 558.96 1867.57 557.284 1867.09 554.89C1865.41 547.229 1862.42 540.645 1858.11 535.138C1854.04 529.392 1848.78 525.083 1842.31 522.21C1835.85 519.098 1828.54 517.541 1820.4 517.541C1809.63 517.541 1800.05 520.055 1791.68 525.083C1783.54 530.111 1777.07 537.293 1772.28 546.63C1767.73 555.728 1765.46 566.382 1765.46 578.592C1765.46 591.52 1767.97 602.533 1773 611.631C1778.03 620.729 1784.85 627.672 1793.47 632.46C1802.33 637.009 1812.38 639.283 1823.64 639.283C1828.66 639.283 1833.93 638.804 1839.44 637.847C1844.94 636.649 1850.45 634.974 1855.96 632.819C1861.7 630.664 1867.45 628.031 1873.2 624.918C1878.46 621.806 1883.13 620.968 1887.2 622.404C1891.51 623.841 1894.74 626.474 1896.9 630.305C1899.05 633.896 1899.53 637.847 1898.33 642.156C1897.38 646.465 1894.26 650.057 1889 652.93C1881.57 657.239 1874.15 660.83 1866.73 663.703C1859.31 666.337 1851.89 668.252 1844.47 669.449C1837.28 670.886 1830.34 671.604 1823.64 671.604C1806.88 671.604 1791.68 667.893 1778.03 660.471C1764.38 653.049 1753.49 642.395 1745.35 628.509C1737.21 614.624 1733.14 597.984 1733.14 578.592C1733.14 559.918 1736.97 543.638 1744.63 529.752C1752.29 515.626 1762.71 504.733 1775.87 497.072C1789.04 489.171 1803.89 485.221 1820.4 485.221C1833.57 485.221 1845.66 487.854 1856.68 493.121C1867.69 498.388 1876.79 505.81 1883.97 515.387C1891.39 524.724 1896.3 535.976 1898.69 549.144C1900.13 556.566 1900.37 563.15 1899.41 568.896C1898.45 574.641 1896.06 579.43 1892.23 583.26C1888.4 586.852 1883.01 589.605 1876.07 591.52C1869.36 593.435 1860.99 594.393 1850.93 594.393C1843.27 594.393 1836.21 594.393 1829.74 594.393C1823.28 594.393 1817.17 594.393 1811.43 594.393C1805.92 594.393 1800.53 594.393 1795.27 594.393C1790.24 594.393 1785.21 594.393 1780.18 594.393C1774.2 594.393 1769.65 592.837 1766.54 589.725C1763.42 586.373 1761.87 582.542 1761.87 578.233C1761.87 573.923 1763.42 570.212 1766.54 567.1C1769.65 563.748 1774.2 562.072 1780.18 562.072Z" fill="white"/>
<path d="M1585 497.425C1587.88 504.847 1590.39 511.55 1592.55 517.535C1594.7 523.281 1596.86 528.908 1599.01 534.414C1601.16 539.921 1603.56 546.026 1606.19 552.729C1609.07 559.672 1611.7 566.376 1614.09 572.84C1616.49 579.304 1619 585.888 1621.63 592.592C1624.27 599.056 1627.02 605.999 1629.89 613.42C1631.33 616.772 1632.41 619.286 1633.13 620.962C1633.84 622.638 1634.44 623.476 1634.92 623.476C1635.4 623.476 1636 622.638 1636.72 620.962C1637.44 619.286 1638.39 616.892 1639.59 613.78C1642.7 606.358 1645.58 599.175 1648.21 592.232C1651.08 585.289 1653.84 578.346 1656.47 571.403C1659.34 564.221 1662.1 557.039 1664.73 549.856C1667.12 543.632 1669.4 537.886 1671.55 532.619C1673.71 527.351 1675.86 521.965 1678.02 516.458C1680.17 510.712 1682.33 504.487 1684.48 497.784C1686.4 492.038 1689.39 488.327 1693.46 486.651C1697.53 484.975 1701.6 484.856 1705.67 486.292C1709.98 487.489 1713.09 490.123 1715.01 494.193C1717.16 498.023 1717.28 502.812 1715.36 508.557C1712.97 515.5 1710.58 521.845 1708.18 527.591C1706.03 533.097 1703.87 538.604 1701.72 544.11C1699.56 549.377 1697.17 555.363 1694.54 562.066C1692.38 567.333 1690.23 572.72 1688.07 578.227C1686.16 583.494 1683.88 589.24 1681.25 595.464C1678.85 601.689 1676.1 608.752 1672.99 616.653C1670.12 624.314 1666.76 633.172 1662.93 643.227C1659.34 652.564 1655.15 659.627 1650.36 664.415C1645.82 668.964 1640.91 671.239 1635.64 671.239C1630.61 671.478 1625.7 669.323 1620.92 664.775C1616.13 660.226 1611.82 653.283 1607.99 643.946C1602.24 630.539 1597.45 619.286 1593.62 610.188C1590.03 600.851 1586.92 592.711 1584.29 585.768C1581.65 578.825 1578.9 571.882 1576.03 564.939C1573.39 557.996 1571 551.772 1568.84 546.265C1566.69 540.519 1564.53 534.773 1562.38 529.027C1560.22 523.042 1557.71 516.338 1554.84 508.917C1552.68 503.171 1552.56 498.382 1554.48 494.552C1556.39 490.482 1559.39 487.729 1563.46 486.292C1567.53 484.616 1571.6 484.616 1575.67 486.292C1579.74 487.968 1582.85 491.679 1585 497.425Z" fill="white"/>
<path d="M1414.74 562.072C1421.68 562.072 1429.11 562.072 1437.01 562.072C1444.91 562.072 1452.93 562.072 1461.07 562.072C1469.45 562.072 1477.59 562.072 1485.49 562.072C1488.36 562.072 1490.88 562.192 1493.03 562.431C1495.42 562.431 1497.22 562.312 1498.42 562.072C1499.85 561.593 1500.81 560.875 1501.29 559.918C1502.01 558.96 1502.13 557.284 1501.65 554.89C1499.97 547.229 1496.98 540.645 1492.67 535.138C1488.6 529.392 1483.33 525.083 1476.87 522.21C1470.41 519.098 1463.1 517.541 1454.96 517.541C1444.19 517.541 1434.61 520.055 1426.23 525.083C1418.09 530.111 1411.63 537.293 1406.84 546.63C1402.29 555.728 1400.02 566.382 1400.02 578.592C1400.02 591.52 1402.53 602.533 1407.56 611.631C1412.59 620.729 1419.41 627.672 1428.03 632.46C1436.89 637.009 1446.94 639.283 1458.2 639.283C1463.22 639.283 1468.49 638.804 1474 637.847C1479.5 636.649 1485.01 634.974 1490.52 632.819C1496.26 630.664 1502.01 628.031 1507.75 624.918C1513.02 621.806 1517.69 620.968 1521.76 622.404C1526.07 623.841 1529.3 626.474 1531.46 630.305C1533.61 633.896 1534.09 637.847 1532.89 642.156C1531.93 646.465 1528.82 650.057 1523.56 652.93C1516.13 657.239 1508.71 660.83 1501.29 663.703C1493.87 666.337 1486.45 668.252 1479.02 669.449C1471.84 670.886 1464.9 671.604 1458.2 671.604C1441.44 671.604 1426.23 667.893 1412.59 660.471C1398.94 653.049 1388.05 642.395 1379.91 628.509C1371.77 614.624 1367.7 597.984 1367.7 578.592C1367.7 559.918 1371.53 543.638 1379.19 529.752C1386.85 515.626 1397.26 504.733 1410.43 497.072C1423.6 489.171 1438.44 485.221 1454.96 485.221C1468.13 485.221 1480.22 487.854 1491.23 493.121C1502.25 498.388 1511.35 505.81 1518.53 515.387C1525.95 524.724 1530.86 535.976 1533.25 549.144C1534.69 556.566 1534.93 563.15 1533.97 568.896C1533.01 574.641 1530.62 579.43 1526.79 583.26C1522.96 586.852 1517.57 589.605 1510.63 591.52C1503.92 593.435 1495.54 594.393 1485.49 594.393C1477.83 594.393 1470.76 594.393 1464.3 594.393C1457.84 594.393 1451.73 594.393 1445.99 594.393C1440.48 594.393 1435.09 594.393 1429.82 594.393C1424.8 594.393 1419.77 594.393 1414.74 594.393C1408.76 594.393 1404.21 592.837 1401.1 589.725C1397.98 586.373 1396.43 582.542 1396.43 578.233C1396.43 573.923 1397.98 570.212 1401.1 567.1C1404.21 563.748 1408.76 562.072 1414.74 562.072Z" fill="white"/>
<path d="M1147.11 650.052C1147.11 646.7 1147.11 642.989 1147.11 638.919C1147.11 634.61 1147.11 629.223 1147.11 622.759C1147.11 616.055 1147.11 607.436 1147.11 596.902C1147.11 589.48 1147.11 581.819 1147.11 573.918C1147.11 565.778 1147.11 557.399 1147.11 548.78C1147.11 539.922 1147.11 530.585 1147.11 520.769C1147.11 510.953 1147.11 500.538 1147.11 489.525C1147.11 475.4 1147.46 464.028 1148.18 455.409C1149.14 446.79 1150.82 440.206 1153.21 435.657C1155.6 430.869 1158.96 427.637 1163.27 425.961C1167.81 424.285 1173.56 423.447 1180.5 423.447C1184.33 423.447 1187.81 423.447 1190.92 423.447C1194.27 423.447 1197.62 423.447 1200.97 423.447C1204.33 423.447 1208.28 423.447 1212.82 423.447C1217.61 423.447 1223.48 423.447 1230.42 423.447C1244.55 423.447 1257.36 425.482 1268.85 429.552C1280.34 433.383 1290.39 438.889 1299.01 446.072C1307.87 453.254 1315.29 461.873 1321.28 471.928C1327.26 481.984 1331.69 493.236 1334.57 505.686C1337.68 517.896 1339.23 531.063 1339.23 545.189C1339.23 562.905 1336.48 579.305 1330.97 594.388C1325.71 609.232 1318.05 622.16 1307.99 633.173C1298.18 644.186 1286.44 652.685 1272.8 658.671C1259.15 664.656 1243.95 667.649 1227.19 667.649C1222.4 667.649 1217.61 667.649 1212.82 667.649C1208.28 667.649 1203.73 667.649 1199.18 667.649C1193.19 667.649 1188.64 666.092 1185.53 662.98C1182.42 659.628 1180.86 655.798 1180.86 651.488C1180.86 647.179 1182.42 643.468 1185.53 640.356C1188.64 637.004 1193.19 635.328 1199.18 635.328C1204.21 635.328 1208.87 635.328 1213.18 635.328C1217.49 635.328 1222.16 635.328 1227.19 635.328C1239.64 635.328 1250.77 633.173 1260.59 628.864C1270.4 624.315 1278.66 618.09 1285.37 610.189C1292.31 602.049 1297.58 592.473 1301.17 581.46C1305 570.447 1306.91 558.357 1306.91 545.189C1306.91 532.021 1305.36 520.05 1302.25 509.277C1299.13 498.264 1294.46 488.807 1288.24 480.906C1282.01 473.006 1274.11 466.901 1264.54 462.591C1254.96 458.042 1243.59 455.768 1230.42 455.768C1223.48 455.768 1217.61 455.768 1212.82 455.768C1208.04 455.768 1203.49 455.768 1199.18 455.768C1195.11 455.768 1190.2 455.768 1184.45 455.768C1183.02 455.768 1181.82 456.367 1180.86 457.564C1180.14 458.521 1179.67 460.077 1179.43 462.232C1179.19 464.147 1179.07 466.542 1179.07 469.415C1179.07 472.288 1179.07 475.4 1179.07 478.752C1179.31 482.103 1179.43 485.695 1179.43 489.525C1179.43 499.341 1179.43 509.756 1179.43 520.769C1179.43 531.782 1179.43 543.633 1179.43 556.322C1179.43 568.771 1179.43 582.298 1179.43 596.902C1179.43 608.633 1179.43 617.611 1179.43 623.836C1179.43 630.061 1179.43 635.088 1179.43 638.919C1179.43 642.51 1179.43 646.221 1179.43 650.052C1179.43 656.037 1177.75 660.586 1174.4 663.698C1171.29 666.811 1167.58 668.367 1163.27 668.367C1158.96 668.367 1155.13 666.811 1151.77 663.698C1148.66 660.586 1147.11 656.037 1147.11 650.052Z" fill="white"/>
<path d="M2319.86 388.844C2321.06 386.211 2322.25 383.458 2323.45 380.585C2324.89 377.712 2326.2 374.839 2327.4 371.966C2328.84 369.093 2330.15 366.22 2331.35 363.347C2332.79 360.713 2334.1 357.96 2335.3 355.087C2336.26 352.693 2337.22 350.419 2338.17 348.264C2339.13 346.109 2340.09 344.074 2341.05 342.159C2342 340.004 2342.84 337.969 2343.56 336.054C2345.24 332.463 2345.83 328.871 2345.36 325.28C2344.88 321.45 2343.68 317.38 2341.77 313.07C2339.85 308.761 2337.46 303.972 2334.58 298.705C2331.71 293.438 2328.72 287.573 2325.6 281.108C2323.21 276.081 2320.34 270.095 2316.99 263.152C2313.63 255.97 2310.04 248.429 2306.21 240.528C2302.62 232.388 2298.91 224.248 2295.08 216.108C2291.25 207.968 2287.66 200.307 2284.31 193.124C2281.91 187.618 2281.55 182.829 2283.23 178.759C2284.9 174.689 2287.66 171.816 2291.49 170.14C2295.32 168.225 2299.27 167.986 2303.34 169.422C2307.65 170.619 2311.12 173.971 2313.75 179.478C2317.11 186.899 2320.58 194.68 2324.17 202.82C2328 210.721 2331.71 218.622 2335.3 226.522C2339.13 234.423 2342.6 241.845 2345.72 248.788C2349.07 255.731 2351.94 261.716 2354.33 266.744C2360.08 278.475 2364.75 288.291 2368.34 296.191C2372.17 303.853 2374.8 310.556 2376.24 316.302C2377.92 321.809 2378.4 327.076 2377.68 332.103C2377.2 337.131 2375.52 342.877 2372.65 349.341C2371.93 351.017 2370.97 352.932 2369.78 355.087C2368.82 357.242 2367.86 359.516 2366.9 361.91C2365.95 364.305 2364.99 366.579 2364.03 368.734C2362.83 371.607 2361.64 374.48 2360.44 377.353C2359.24 380.225 2357.93 383.098 2356.49 385.971C2355.29 388.844 2354.09 391.598 2352.9 394.231C2351.7 397.104 2350.5 399.857 2349.31 402.491C2347.15 406.8 2344.4 409.793 2341.05 411.469C2337.93 413.384 2334.7 414.102 2331.35 413.624C2328.24 413.145 2325.37 411.708 2322.73 409.314C2320.34 407.159 2318.78 404.286 2318.06 400.695C2317.34 397.104 2317.94 393.154 2319.86 388.844ZM2443.4 192.765C2441.48 197.074 2439.45 201.504 2437.29 206.052C2435.38 210.601 2433.34 215.15 2431.19 219.699C2429.27 224.248 2427.36 228.557 2425.44 232.627C2423.76 236.697 2422.21 240.289 2420.77 243.401C2415.74 254.893 2410.12 267.342 2403.89 280.749C2397.91 294.156 2392.16 306.965 2386.65 319.175C2381.15 331.385 2376.6 341.441 2373.01 349.341C2372.05 351.496 2371.09 353.651 2370.14 355.805C2369.18 358.199 2368.1 360.474 2366.9 362.629C2365.95 364.783 2364.99 367.058 2364.03 369.452C2362.83 372.325 2361.64 375.078 2360.44 377.712C2359.24 380.585 2358.05 383.338 2356.85 385.971C2355.65 388.844 2354.33 391.598 2352.9 394.231C2351.7 397.104 2350.5 399.857 2349.31 402.491C2347.15 406.8 2344.4 409.793 2341.05 411.469C2337.93 413.384 2334.7 414.102 2331.35 413.624C2328.24 413.145 2325.37 411.708 2322.73 409.314C2320.34 407.159 2318.78 404.286 2318.06 400.695C2317.34 397.104 2317.94 393.154 2319.86 388.844C2321.06 386.211 2322.25 383.458 2323.45 380.585C2324.89 377.712 2326.32 374.839 2327.76 371.966C2329.2 369.093 2330.51 366.22 2331.71 363.347C2333.15 360.474 2334.46 357.721 2335.66 355.087C2336.62 352.693 2337.46 350.538 2338.17 348.623C2339.13 346.708 2339.97 344.792 2340.69 342.877C2341.65 340.962 2342.6 338.807 2343.56 336.413C2345.95 330.906 2349.07 324.083 2352.9 315.943C2356.73 307.564 2360.8 298.466 2365.11 288.65C2369.66 278.834 2374.21 268.898 2378.75 258.843C2383.3 248.788 2387.49 239.331 2391.32 230.473C2393.24 226.403 2395.39 221.495 2397.79 215.749C2400.42 210.003 2403.17 204.017 2406.05 197.793C2408.92 191.329 2411.55 185.343 2413.95 179.837C2416.34 174.33 2419.57 170.859 2423.64 169.422C2427.95 167.986 2432.02 168.105 2435.85 169.781C2439.92 171.457 2442.8 174.33 2444.47 178.4C2446.39 182.47 2446.03 187.259 2443.4 192.765Z" fill="white"/>
<path d="M2197.78 336.413C2197.78 330.668 2197.78 325.52 2197.78 320.971C2197.78 316.422 2197.78 311.874 2197.78 307.325C2197.78 302.776 2197.78 297.509 2197.78 291.524C2197.78 283.623 2197.78 276.081 2197.78 268.899C2197.78 261.477 2197.78 253.816 2197.78 245.915C2197.78 237.775 2197.78 228.797 2197.78 218.981C2197.78 209.165 2197.78 197.674 2197.78 184.506C2197.78 179.478 2197.78 174.211 2197.78 168.705C2197.78 163.198 2197.78 157.931 2197.78 152.903C2197.78 147.636 2197.78 143.207 2197.78 139.616C2197.78 133.631 2199.34 129.082 2202.45 125.969C2205.8 122.857 2209.63 121.301 2213.94 121.301C2218.25 121.301 2221.96 122.857 2225.08 125.969C2228.43 129.082 2230.1 133.631 2230.1 139.616C2230.1 143.686 2230.1 147.277 2230.1 150.389C2230.1 153.502 2230.1 156.614 2230.1 159.727C2230.1 162.839 2230.1 166.43 2230.1 170.5C2230.1 174.331 2230.1 178.999 2230.1 184.506C2230.1 193.364 2230.1 201.744 2230.1 209.644C2230.1 217.305 2230.1 225.206 2230.1 233.346C2230.1 241.486 2230.1 250.225 2230.1 259.562C2230.1 268.899 2230.1 279.553 2230.1 291.524C2230.1 297.988 2230.1 303.374 2230.1 307.684C2230.1 311.993 2230.1 316.303 2230.1 320.612C2230.1 324.682 2230.1 329.949 2230.1 336.413C2230.1 342.399 2228.43 346.948 2225.08 350.06C2221.96 353.172 2218.25 354.729 2213.94 354.729C2209.63 354.729 2205.8 353.292 2202.45 350.419C2199.34 347.307 2197.78 342.638 2197.78 336.413ZM2255.6 204.257C2252.01 204.257 2248.54 204.257 2245.19 204.257C2241.83 204.257 2238.48 204.257 2235.13 204.257C2227.95 204.257 2221.24 204.257 2215.02 204.257C2209.03 204.257 2202.45 204.257 2195.27 204.257C2193.11 204.257 2191.08 204.257 2189.16 204.257C2187.25 204.257 2185.09 204.257 2182.7 204.257C2180.54 204.257 2178.27 204.257 2175.88 204.257C2169.89 204.257 2165.34 202.701 2162.23 199.589C2159.12 196.237 2157.56 192.406 2157.56 188.097C2157.56 183.788 2159.12 180.077 2162.23 176.964C2165.34 173.613 2169.89 171.937 2175.88 171.937C2178.99 171.937 2181.5 171.937 2183.42 171.937C2185.33 171.937 2187.13 171.937 2188.8 171.937C2190.72 171.937 2192.87 171.937 2195.27 171.937C2201.97 171.937 2208.56 171.937 2215.02 171.937C2221.72 171.937 2228.43 171.937 2235.13 171.937C2238.96 171.937 2242.31 171.937 2245.19 171.937C2248.3 171.937 2251.77 171.937 2255.6 171.937C2261.59 171.937 2266.13 173.613 2269.25 176.964C2272.36 180.077 2273.92 183.788 2273.92 188.097C2273.92 192.406 2272.36 196.237 2269.25 199.589C2266.13 202.701 2261.59 204.257 2255.6 204.257Z" fill="white"/>
<path d="M2097.43 336.415C2097.43 331.388 2097.43 326.24 2097.43 320.973C2097.43 315.706 2097.43 310.678 2097.43 305.89C2097.43 300.862 2097.43 296.074 2097.43 291.525C2097.43 283.385 2097.43 276.323 2097.43 270.337C2097.43 264.352 2097.43 258.367 2097.43 252.381C2097.43 246.396 2097.43 239.333 2097.43 231.193C2097.43 226.644 2097.43 222.096 2097.43 217.547C2097.43 212.998 2097.43 208.21 2097.43 203.182C2097.43 197.915 2097.43 192.289 2097.43 186.303C2097.43 180.318 2098.98 175.889 2102.1 173.016C2105.45 169.904 2109.28 168.347 2113.59 168.347C2117.9 168.347 2121.61 169.904 2124.72 173.016C2128.07 175.889 2129.75 180.318 2129.75 186.303C2129.75 192.528 2129.75 198.035 2129.75 202.823C2129.75 207.372 2129.75 211.921 2129.75 216.469C2129.75 220.779 2129.75 225.687 2129.75 231.193C2129.75 236.7 2129.75 243.164 2129.75 250.586C2129.75 257.768 2129.75 265.07 2129.75 272.492C2129.75 279.674 2129.75 286.019 2129.75 291.525C2129.75 297.032 2129.75 302.179 2129.75 306.968C2129.75 311.756 2129.75 316.544 2129.75 321.332C2129.75 325.881 2129.75 330.909 2129.75 336.415C2129.75 342.401 2128.07 346.95 2124.72 350.062C2121.61 353.174 2117.9 354.73 2113.59 354.73C2109.28 354.73 2105.45 353.294 2102.1 350.421C2098.98 347.309 2097.43 342.64 2097.43 336.415ZM2097.43 122.38C2097.43 119.746 2097.43 117.592 2097.43 115.916C2097.43 114.24 2097.43 112.564 2097.43 110.888C2097.43 109.212 2097.43 107.177 2097.43 104.783C2097.43 99.2767 2098.98 95.2066 2102.1 92.5731C2105.45 89.7001 2109.28 88.2637 2113.59 88.2637C2117.9 88.2637 2121.61 89.7001 2124.72 92.5731C2128.07 95.2066 2129.75 99.2767 2129.75 104.783C2129.75 107.177 2129.75 109.212 2129.75 110.888C2129.75 112.564 2129.75 114.24 2129.75 115.916C2129.75 117.592 2129.75 119.746 2129.75 122.38C2129.75 127.887 2128.07 132.076 2124.72 134.949C2121.61 137.583 2117.9 138.9 2113.59 138.9C2109.28 138.9 2105.45 137.583 2102.1 134.949C2098.98 132.076 2097.43 127.887 2097.43 122.38Z" fill="white"/>
<path d="M2048.71 203.183C2037.69 201.507 2028.36 201.866 2020.69 204.26C2013.03 206.415 2006.81 210.126 2002.02 215.393C1997.47 220.421 1994.12 226.526 1991.96 233.708C1989.81 240.891 1988.73 248.672 1988.73 257.051C1988.73 262.557 1988.73 268.902 1988.73 276.084C1988.73 283.267 1988.73 290.569 1988.73 297.991C1988.73 305.412 1988.73 312.475 1988.73 319.179C1988.73 325.882 1988.73 331.628 1988.73 336.416C1988.73 341.205 1987.66 345.035 1985.5 347.908C1983.35 350.781 1980.59 352.697 1977.24 353.654C1974.13 354.851 1970.9 354.971 1967.54 354.013C1964.43 353.056 1961.8 351.14 1959.64 348.267C1957.49 345.155 1956.41 341.205 1956.41 336.416C1956.41 331.389 1956.41 325.164 1956.41 317.742C1956.41 310.081 1956.41 302.18 1956.41 294.04C1956.41 285.661 1956.41 277.76 1956.41 270.338C1956.41 262.917 1956.41 256.931 1956.41 252.382C1956.41 245.679 1956.41 238.616 1956.41 231.194C1956.41 223.773 1956.41 216.351 1956.41 208.929C1956.41 201.268 1956.41 194.205 1956.41 187.741C1956.41 181.516 1957.97 176.967 1961.08 174.094C1964.43 170.982 1968.26 169.426 1972.57 169.426C1976.88 169.426 1980.59 170.982 1983.71 174.094C1987.06 177.207 1988.73 181.756 1988.73 187.741C1988.73 195.642 1988.73 203.063 1988.73 210.006C1988.73 216.71 1988.73 223.533 1988.73 230.476C1988.73 237.18 1988.73 244.482 1988.73 252.382C1988.73 255.495 1988.73 260.642 1988.73 267.825C1988.73 275.007 1988.73 283.027 1988.73 291.886C1988.73 300.744 1988.73 309.243 1988.73 317.383C1988.73 325.284 1988.73 331.628 1988.73 336.416C1988.73 341.205 1987.66 345.035 1985.5 347.908C1983.35 350.781 1980.59 352.697 1977.24 353.654C1974.13 354.851 1970.9 354.971 1967.54 354.013C1964.43 353.056 1961.8 351.14 1959.64 348.267C1957.49 345.155 1956.41 341.205 1956.41 336.416C1956.41 329.713 1956.41 321.573 1956.41 311.996C1956.41 302.42 1956.41 293.202 1956.41 284.344C1956.41 275.486 1956.41 268.782 1956.41 264.233C1956.41 253.939 1957.61 243.883 1960 234.067C1962.64 224.251 1966.47 215.154 1971.5 206.774C1976.52 198.395 1982.87 191.212 1990.53 185.227C1998.19 179.242 2007.17 174.932 2017.46 172.299C2028 169.665 2039.85 169.186 2053.02 170.862C2059 171.82 2063.31 174.094 2065.94 177.686C2068.58 181.277 2069.53 185.227 2068.82 189.536C2068.34 193.846 2066.3 197.437 2062.71 200.31C2059.36 202.944 2054.69 203.901 2048.71 203.183Z" fill="white"/>
<path d="M1782.72 370.538C1792.53 375.326 1802.83 378.199 1813.6 379.156C1824.37 380.114 1834.55 379.037 1844.13 375.924C1853.94 373.051 1861.84 368.024 1867.83 360.841C1873.81 353.898 1876.81 344.681 1876.81 333.189C1876.81 316.191 1876.81 300.988 1876.81 287.581C1876.81 273.934 1876.81 261.485 1876.81 250.233C1876.81 240.417 1874.65 231.798 1870.34 224.376C1866.27 216.954 1860.53 211.208 1853.1 207.138C1845.92 202.829 1837.54 200.674 1827.97 200.674C1820.78 200.674 1814.2 201.991 1808.21 204.624C1802.47 207.018 1797.44 210.49 1793.13 215.039C1788.82 219.348 1785.47 224.615 1783.08 230.84C1780.68 236.825 1779.48 243.529 1779.48 250.951C1779.48 258.373 1780.68 265.316 1783.08 271.78C1785.47 278.004 1788.82 283.391 1793.13 287.94C1797.44 292.25 1802.59 295.721 1808.57 298.355C1814.56 300.749 1821.14 301.946 1828.33 301.946C1835.51 301.946 1842.09 300.749 1848.08 298.355C1854.06 295.96 1859.09 292.489 1863.16 287.94C1867.47 283.391 1870.82 278.124 1873.22 272.139C1875.61 265.914 1876.81 259.091 1876.81 251.669C1876.81 244.965 1876.81 237.903 1876.81 230.481C1876.81 222.82 1876.81 215.159 1876.81 207.497C1876.81 199.836 1876.81 192.773 1876.81 186.309C1876.81 180.084 1878.36 175.536 1881.47 172.663C1884.83 169.55 1888.66 167.994 1892.97 167.994C1897.28 167.994 1900.99 169.55 1904.1 172.663C1907.45 175.775 1909.13 180.324 1909.13 186.309C1909.13 194.21 1909.13 201.632 1909.13 208.575C1909.13 215.518 1909.13 222.461 1909.13 229.404C1909.13 236.107 1909.13 243.529 1909.13 251.669C1909.13 263.64 1907.09 274.653 1903.02 284.708C1898.95 294.763 1893.21 303.502 1885.78 310.924C1878.6 318.346 1870.1 324.091 1860.29 328.161C1850.47 332.232 1839.82 334.267 1828.33 334.267C1816.83 334.267 1806.18 332.232 1796.36 328.161C1786.55 324.091 1777.93 318.346 1770.51 310.924C1763.09 303.263 1757.34 294.404 1753.27 284.349C1749.2 274.054 1747.16 262.921 1747.16 250.951C1747.16 235.15 1750.76 221.024 1757.94 208.575C1765.12 196.125 1774.82 186.309 1787.03 179.127C1799.24 171.944 1812.88 168.353 1827.97 168.353C1843.53 168.353 1857.41 171.944 1869.62 179.127C1881.83 186.07 1891.41 195.766 1898.35 208.216C1905.54 220.426 1909.13 234.431 1909.13 250.233C1909.13 266.991 1909.13 282.194 1909.13 295.841C1909.13 309.487 1909.13 321.937 1909.13 333.189C1909.13 347.315 1906.25 359.644 1900.51 370.179C1894.76 380.713 1886.98 389.212 1877.17 395.676C1867.35 402.38 1856.34 406.928 1844.13 409.323C1831.92 411.956 1819.23 412.435 1806.06 410.759C1793.13 409.323 1780.56 405.731 1768.35 399.985C1763.09 397.352 1759.73 393.88 1758.3 389.571C1757.1 385.262 1757.34 381.191 1759.02 377.361C1760.93 373.53 1763.92 370.777 1767.99 369.101C1772.3 367.425 1777.21 367.904 1782.72 370.538Z" fill="white"/>
<path d="M1597.47 245.203C1604.41 245.203 1611.83 245.203 1619.73 245.203C1627.63 245.203 1635.65 245.203 1643.79 245.203C1652.17 245.203 1660.31 245.203 1668.22 245.203C1671.09 245.203 1673.6 245.323 1675.76 245.562C1678.15 245.562 1679.95 245.443 1681.14 245.203C1682.58 244.724 1683.54 244.006 1684.02 243.048C1684.73 242.091 1684.85 240.415 1684.38 238.021C1682.7 230.36 1679.71 223.776 1675.4 218.269C1671.33 212.523 1666.06 208.214 1659.6 205.341C1653.13 202.229 1645.83 200.672 1637.69 200.672C1626.92 200.672 1617.34 203.186 1608.96 208.214C1600.82 213.242 1594.36 220.424 1589.57 229.761C1585.02 238.859 1582.74 249.513 1582.74 261.723C1582.74 274.651 1585.26 285.664 1590.29 294.762C1595.31 303.859 1602.14 310.802 1610.76 315.591C1619.61 320.139 1629.67 322.414 1640.92 322.414C1645.95 322.414 1651.22 321.935 1656.72 320.977C1662.23 319.78 1667.74 318.104 1673.24 315.95C1678.99 313.795 1684.73 311.161 1690.48 308.049C1695.75 304.937 1700.42 304.099 1704.49 305.535C1708.8 306.972 1712.03 309.605 1714.18 313.436C1716.34 317.027 1716.82 320.977 1715.62 325.287C1714.66 329.596 1711.55 333.187 1706.28 336.06C1698.86 340.37 1691.44 343.961 1684.02 346.834C1676.59 349.468 1669.17 351.383 1661.75 352.58C1654.57 354.016 1647.63 354.735 1640.92 354.735C1624.16 354.735 1608.96 351.024 1595.31 343.602C1581.67 336.18 1570.77 325.526 1562.63 311.64C1554.49 297.754 1550.42 281.115 1550.42 261.723C1550.42 243.048 1554.25 226.768 1561.92 212.882C1569.58 198.757 1579.99 187.864 1593.16 180.203C1606.33 172.302 1621.17 168.352 1637.69 168.352C1650.86 168.352 1662.95 170.985 1673.96 176.252C1684.97 181.519 1694.07 188.941 1701.25 198.518C1708.68 207.855 1713.58 219.107 1715.98 232.275C1717.41 239.697 1717.65 246.281 1716.7 252.026C1715.74 257.772 1713.34 262.561 1709.51 266.391C1705.68 269.982 1700.3 272.736 1693.35 274.651C1686.65 276.566 1678.27 277.524 1668.22 277.524C1660.55 277.524 1653.49 277.524 1647.03 277.524C1640.56 277.524 1634.46 277.524 1628.71 277.524C1623.21 277.524 1617.82 277.524 1612.55 277.524C1607.52 277.524 1602.5 277.524 1597.47 277.524C1591.48 277.524 1586.93 275.968 1583.82 272.855C1580.71 269.504 1579.15 265.673 1579.15 261.364C1579.15 257.054 1580.71 253.343 1583.82 250.231C1586.93 246.879 1591.48 245.203 1597.47 245.203Z" fill="white"/>
<path d="M1459.9 336.413C1459.9 330.668 1459.9 325.52 1459.9 320.971C1459.9 316.422 1459.9 311.874 1459.9 307.325C1459.9 302.776 1459.9 297.509 1459.9 291.524C1459.9 283.623 1459.9 276.081 1459.9 268.899C1459.9 261.477 1459.9 253.816 1459.9 245.915C1459.9 237.775 1459.9 228.797 1459.9 218.981C1459.9 209.165 1459.9 197.674 1459.9 184.506C1459.9 179.478 1459.9 174.211 1459.9 168.705C1459.9 163.198 1459.9 157.931 1459.9 152.903C1459.9 147.636 1459.9 143.207 1459.9 139.616C1459.9 133.631 1461.46 129.082 1464.57 125.969C1467.92 122.857 1471.75 121.301 1476.06 121.301C1480.37 121.301 1484.08 122.857 1487.19 125.969C1490.55 129.082 1492.22 133.631 1492.22 139.616C1492.22 143.686 1492.22 147.277 1492.22 150.389C1492.22 153.502 1492.22 156.614 1492.22 159.727C1492.22 162.839 1492.22 166.43 1492.22 170.5C1492.22 174.331 1492.22 178.999 1492.22 184.506C1492.22 193.364 1492.22 201.744 1492.22 209.644C1492.22 217.305 1492.22 225.206 1492.22 233.346C1492.22 241.486 1492.22 250.225 1492.22 259.562C1492.22 268.899 1492.22 279.553 1492.22 291.524C1492.22 297.988 1492.22 303.374 1492.22 307.684C1492.22 311.993 1492.22 316.303 1492.22 320.612C1492.22 324.682 1492.22 329.949 1492.22 336.413C1492.22 342.399 1490.55 346.948 1487.19 350.06C1484.08 353.172 1480.37 354.729 1476.06 354.729C1471.75 354.729 1467.92 353.292 1464.57 350.419C1461.46 347.307 1459.9 342.638 1459.9 336.413ZM1517.72 204.257C1514.13 204.257 1510.66 204.257 1507.3 204.257C1503.95 204.257 1500.6 204.257 1497.25 204.257C1490.07 204.257 1483.36 204.257 1477.14 204.257C1471.15 204.257 1464.57 204.257 1457.39 204.257C1455.23 204.257 1453.2 204.257 1451.28 204.257C1449.37 204.257 1447.21 204.257 1444.82 204.257C1442.66 204.257 1440.39 204.257 1437.99 204.257C1432.01 204.257 1427.46 202.701 1424.35 199.589C1421.24 196.237 1419.68 192.406 1419.68 188.097C1419.68 183.788 1421.24 180.077 1424.35 176.964C1427.46 173.613 1432.01 171.937 1437.99 171.937C1441.11 171.937 1443.62 171.937 1445.54 171.937C1447.45 171.937 1449.25 171.937 1450.92 171.937C1452.84 171.937 1454.99 171.937 1457.39 171.937C1464.09 171.937 1470.67 171.937 1477.14 171.937C1483.84 171.937 1490.55 171.937 1497.25 171.937C1501.08 171.937 1504.43 171.937 1507.3 171.937C1510.42 171.937 1513.89 171.937 1517.72 171.937C1523.7 171.937 1528.25 173.613 1531.37 176.964C1534.48 180.077 1536.03 183.788 1536.03 188.097C1536.03 192.406 1534.48 196.237 1531.37 199.589C1528.25 202.701 1523.7 204.257 1517.72 204.257Z" fill="white"/>
<path d="M1366.36 336.421C1366.36 331.394 1366.36 326.126 1366.36 320.62C1366.36 314.874 1366.36 309.248 1366.36 303.741C1366.36 297.995 1366.36 292.728 1366.36 287.94C1366.36 282.194 1366.36 275.85 1366.36 268.907C1366.36 261.724 1366.36 253.943 1366.36 245.564C1366.36 235.509 1364.69 227.249 1361.33 220.785C1358.22 214.081 1353.55 209.053 1347.33 205.702C1341.1 202.35 1333.44 200.674 1324.35 200.674C1316.44 200.674 1309.26 201.991 1302.8 204.624C1296.33 207.018 1290.71 210.61 1285.92 215.398C1281.37 220.186 1277.78 226.172 1275.15 233.354C1272.51 240.536 1271.2 248.796 1271.2 258.133C1271.2 262.203 1271.2 267.59 1271.2 274.294C1271.2 280.758 1271.2 287.701 1271.2 295.123C1271.2 302.544 1271.2 309.966 1271.2 317.388C1271.2 324.57 1271.2 330.915 1271.2 336.421C1271.2 341.21 1270.12 345.16 1267.96 348.272C1265.81 351.145 1263.06 353.06 1259.7 354.018C1256.59 354.976 1253.36 354.976 1250.01 354.018C1246.9 353.06 1244.26 351.145 1242.11 348.272C1239.95 345.16 1238.88 341.21 1238.88 336.421C1238.88 331.872 1238.88 325.767 1238.88 318.106C1238.88 310.206 1238.88 301.706 1238.88 292.609C1238.88 283.272 1238.88 274.294 1238.88 265.675C1238.88 256.816 1238.88 249.155 1238.88 242.691C1238.88 236.227 1238.88 231.798 1238.88 229.404C1238.88 224.615 1238.88 219.827 1238.88 215.039C1238.88 210.251 1238.88 205.462 1238.88 200.674C1238.88 195.886 1238.88 191.098 1238.88 186.309C1238.88 180.324 1240.43 175.775 1243.54 172.663C1246.9 169.55 1250.73 167.994 1255.04 167.994C1259.34 167.994 1263.06 169.55 1266.17 172.663C1269.52 175.775 1271.2 180.324 1271.2 186.309C1271.2 191.576 1271.2 196.484 1271.2 201.033C1271.2 205.582 1271.2 210.131 1271.2 214.68C1271.2 219.229 1271.2 224.137 1271.2 229.404C1271.2 230.84 1271.2 234.79 1271.2 241.255C1271.2 247.479 1271.2 255.141 1271.2 264.238C1271.2 273.096 1271.2 282.314 1271.2 291.89C1271.2 301.228 1271.2 309.966 1271.2 318.106C1271.2 326.007 1271.2 332.112 1271.2 336.421C1271.2 341.21 1270.12 345.16 1267.96 348.272C1265.81 351.145 1263.06 353.06 1259.7 354.018C1256.59 354.976 1253.36 354.976 1250.01 354.018C1246.9 353.06 1244.26 351.145 1242.11 348.272C1239.95 345.16 1238.88 341.21 1238.88 336.421C1238.88 330.915 1238.88 325.169 1238.88 319.184C1238.88 312.959 1238.88 306.614 1238.88 300.15C1238.88 293.686 1238.88 287.222 1238.88 280.758C1238.88 274.054 1238.88 267.71 1238.88 261.724C1238.88 249.514 1241.03 237.783 1245.34 226.531C1249.89 215.278 1256.11 205.343 1264.01 196.724C1271.91 187.865 1281.25 180.922 1292.02 175.895C1302.8 170.867 1314.41 168.353 1326.86 168.353C1337.15 168.353 1346.61 170.029 1355.23 173.381C1364.09 176.733 1371.75 181.76 1378.21 188.464C1384.68 194.928 1389.71 202.948 1393.3 212.525C1396.89 222.102 1398.68 233.115 1398.68 245.564C1398.68 251.07 1398.68 257.415 1398.68 264.597C1398.68 271.54 1398.68 279.321 1398.68 287.94C1398.68 293.925 1398.68 299.552 1398.68 304.819C1398.68 309.846 1398.68 314.874 1398.68 319.902C1398.68 324.929 1398.68 330.436 1398.68 336.421C1398.68 342.407 1397.01 346.955 1393.66 350.068C1390.54 353.18 1386.83 354.736 1382.52 354.736C1378.21 354.736 1374.38 353.18 1371.03 350.068C1367.92 346.955 1366.36 342.407 1366.36 336.421Z" fill="white"/>
<path d="M1150.7 336.412C1150.7 328.512 1150.7 321.329 1150.7 314.865C1150.7 308.401 1150.7 302.535 1150.7 297.268C1150.7 291.762 1150.7 286.734 1150.7 282.185C1150.7 270.693 1150.7 258.962 1150.7 246.991C1150.7 235.021 1150.7 223.05 1150.7 211.079C1150.7 198.869 1150.7 187.138 1150.7 175.886C1150.7 170.379 1150.7 164.992 1150.7 159.725C1150.7 154.219 1150.7 148.353 1150.7 142.128C1150.7 135.904 1150.7 128.841 1150.7 120.94C1150.7 114.955 1152.26 110.526 1155.37 107.653C1158.72 104.541 1162.55 102.984 1166.86 102.984C1171.17 102.984 1174.88 104.541 1177.99 107.653C1181.34 110.526 1183.02 114.955 1183.02 120.94C1183.02 128.841 1183.02 135.904 1183.02 142.128C1183.02 148.353 1183.02 154.219 1183.02 159.725C1183.02 164.992 1183.02 170.379 1183.02 175.886C1183.02 187.138 1183.02 198.869 1183.02 211.079C1183.02 223.05 1183.02 235.021 1183.02 246.991C1183.02 258.962 1183.02 270.693 1183.02 282.185C1183.02 286.734 1183.02 291.762 1183.02 297.268C1183.02 302.535 1183.02 308.401 1183.02 314.865C1183.02 321.329 1183.02 328.512 1183.02 336.412C1183.02 342.637 1181.34 347.305 1177.99 350.418C1174.88 353.291 1171.17 354.727 1166.86 354.727C1162.55 354.727 1158.72 353.291 1155.37 350.418C1152.26 347.305 1150.7 342.637 1150.7 336.412Z" fill="white"/>
<path d="M1788.7 827.351C1792.78 827.351 1797.15 827.351 1801.8 827.351C1806.45 827.351 1811.16 827.351 1815.95 827.351C1820.88 827.351 1825.67 827.351 1830.32 827.351C1832.01 827.351 1833.49 827.422 1834.75 827.563C1836.16 827.563 1837.22 827.492 1837.92 827.351C1838.77 827.07 1839.33 826.647 1839.61 826.084C1840.03 825.521 1840.1 824.535 1839.82 823.126C1838.84 818.62 1837.08 814.747 1834.54 811.508C1832.15 808.128 1829.05 805.593 1825.25 803.903C1821.44 802.072 1817.15 801.157 1812.36 801.157C1806.02 801.157 1800.39 802.635 1795.46 805.593C1790.67 808.55 1786.87 812.775 1784.05 818.268C1781.38 823.619 1780.04 829.886 1780.04 837.069C1780.04 844.674 1781.52 851.152 1784.48 856.503C1787.43 861.855 1791.45 865.939 1796.52 868.756C1801.73 871.432 1807.64 872.769 1814.26 872.769C1817.22 872.769 1820.32 872.488 1823.56 871.924C1826.8 871.22 1830.03 870.234 1833.27 868.967C1836.65 867.7 1840.03 866.15 1843.41 864.32C1846.51 862.489 1849.26 861.996 1851.65 862.841C1854.19 863.686 1856.09 865.235 1857.36 867.488C1858.62 869.601 1858.91 871.924 1858.2 874.459C1857.64 876.994 1855.81 879.107 1852.71 880.797C1848.34 883.332 1843.98 885.444 1839.61 887.134C1835.25 888.683 1830.88 889.81 1826.51 890.514C1822.29 891.359 1818.2 891.782 1814.26 891.782C1804.4 891.782 1795.46 889.599 1787.43 885.233C1779.41 880.867 1773 874.6 1768.21 866.432C1763.42 858.264 1761.03 848.476 1761.03 837.069C1761.03 826.084 1763.28 816.507 1767.79 808.339C1772.29 800.03 1778.42 793.622 1786.17 789.116C1793.91 784.468 1802.64 782.145 1812.36 782.145C1820.11 782.145 1827.22 783.694 1833.7 786.792C1840.17 789.89 1845.53 794.256 1849.75 799.889C1854.12 805.382 1857 812.001 1858.41 819.746C1859.26 824.112 1859.4 827.985 1858.83 831.365C1858.27 834.745 1856.86 837.562 1854.61 839.815C1852.36 841.927 1849.19 843.547 1845.1 844.674C1841.16 845.8 1836.23 846.364 1830.32 846.364C1825.81 846.364 1821.66 846.364 1817.85 846.364C1814.05 846.364 1810.46 846.364 1807.08 846.364C1803.84 846.364 1800.67 846.364 1797.57 846.364C1794.62 846.364 1791.66 846.364 1788.7 846.364C1785.18 846.364 1782.5 845.448 1780.67 843.617C1778.84 841.646 1777.93 839.392 1777.93 836.857C1777.93 834.323 1778.84 832.14 1780.67 830.309C1782.5 828.337 1785.18 827.351 1788.7 827.351Z" fill="white"/>
<path d="M1721.66 881.003C1721.66 878.045 1721.66 874.947 1721.66 871.708C1721.66 868.328 1721.66 865.018 1721.66 861.779C1721.66 858.399 1721.66 855.301 1721.66 852.484C1721.66 849.104 1721.66 845.372 1721.66 841.288C1721.66 837.063 1721.66 832.486 1721.66 827.557C1721.66 821.642 1720.67 816.783 1718.7 812.981C1716.87 809.038 1714.12 806.08 1710.46 804.109C1706.8 802.137 1702.29 801.151 1696.94 801.151C1692.3 801.151 1688.07 801.926 1684.27 803.475C1680.47 804.883 1677.16 806.996 1674.34 809.812C1671.66 812.629 1669.55 816.15 1668 820.375C1666.45 824.6 1665.68 829.458 1665.68 834.951C1665.68 837.345 1665.68 840.514 1665.68 844.457C1665.68 848.259 1665.68 852.343 1665.68 856.709C1665.68 861.075 1665.68 865.441 1665.68 869.806C1665.68 874.031 1665.68 877.763 1665.68 881.003C1665.68 883.819 1665.04 886.143 1663.78 887.974C1662.51 889.664 1660.89 890.79 1658.92 891.354C1657.09 891.917 1655.19 891.917 1653.21 891.354C1651.38 890.79 1649.83 889.664 1648.57 887.974C1647.3 886.143 1646.67 883.819 1646.67 881.003C1646.67 878.327 1646.67 874.736 1646.67 870.229C1646.67 865.581 1646.67 860.582 1646.67 855.23C1646.67 849.738 1646.67 844.457 1646.67 839.387C1646.67 834.176 1646.67 829.67 1646.67 825.867C1646.67 822.065 1646.67 819.459 1646.67 818.051C1646.67 815.234 1646.67 812.418 1646.67 809.601C1646.67 806.784 1646.67 803.968 1646.67 801.151C1646.67 798.335 1646.67 795.518 1646.67 792.701C1646.67 789.181 1647.58 786.505 1649.41 784.674C1651.38 782.843 1653.64 781.928 1656.17 781.928C1658.71 781.928 1660.89 782.843 1662.72 784.674C1664.69 786.505 1665.68 789.181 1665.68 792.701C1665.68 795.8 1665.68 798.687 1665.68 801.362C1665.68 804.038 1665.68 806.714 1665.68 809.39C1665.68 812.066 1665.68 814.953 1665.68 818.051C1665.68 818.896 1665.68 821.22 1665.68 825.022C1665.68 828.684 1665.68 833.19 1665.68 838.542C1665.68 843.753 1665.68 849.175 1665.68 854.808C1665.68 860.3 1665.68 865.441 1665.68 870.229C1665.68 874.876 1665.68 878.468 1665.68 881.003C1665.68 883.819 1665.04 886.143 1663.78 887.974C1662.51 889.664 1660.89 890.79 1658.92 891.354C1657.09 891.917 1655.19 891.917 1653.21 891.354C1651.38 890.79 1649.83 889.664 1648.57 887.974C1647.3 886.143 1646.67 883.819 1646.67 881.003C1646.67 877.763 1646.67 874.383 1646.67 870.863C1646.67 867.201 1646.67 863.469 1646.67 859.667C1646.67 855.864 1646.67 852.062 1646.67 848.259C1646.67 844.316 1646.67 840.584 1646.67 837.063C1646.67 829.881 1647.93 822.98 1650.47 816.361C1653.14 809.742 1656.81 803.897 1661.45 798.827C1666.1 793.617 1671.59 789.533 1677.93 786.575C1684.27 783.618 1691.1 782.139 1698.42 782.139C1704.48 782.139 1710.04 783.125 1715.11 785.096C1720.32 787.068 1724.83 790.026 1728.63 793.969C1732.43 797.771 1735.39 802.489 1737.5 808.122C1739.61 813.756 1740.67 820.234 1740.67 827.557C1740.67 830.796 1740.67 834.528 1740.67 838.753C1740.67 842.837 1740.67 847.414 1740.67 852.484C1740.67 856.005 1740.67 859.315 1740.67 862.413C1740.67 865.37 1740.67 868.328 1740.67 871.285C1740.67 874.243 1740.67 877.482 1740.67 881.003C1740.67 884.523 1739.69 887.199 1737.71 889.03C1735.88 890.861 1733.7 891.776 1731.16 891.776C1728.63 891.776 1726.38 890.861 1724.4 889.03C1722.57 887.199 1721.66 884.523 1721.66 881.003Z" fill="white"/>
<path d="M1598.62 881.009C1598.62 878.051 1598.62 875.023 1598.62 871.925C1598.62 868.827 1598.62 865.869 1598.62 863.053C1598.62 860.095 1598.62 857.279 1598.62 854.603C1598.62 849.815 1598.62 845.66 1598.62 842.139C1598.62 838.618 1598.62 835.098 1598.62 831.577C1598.62 828.056 1598.62 823.902 1598.62 819.113C1598.62 816.438 1598.62 813.762 1598.62 811.086C1598.62 808.41 1598.62 805.594 1598.62 802.636C1598.62 799.538 1598.62 796.228 1598.62 792.707C1598.62 789.187 1599.54 786.581 1601.37 784.891C1603.34 783.061 1605.6 782.145 1608.13 782.145C1610.67 782.145 1612.85 783.061 1614.68 784.891C1616.65 786.581 1617.64 789.187 1617.64 792.707C1617.64 796.369 1617.64 799.608 1617.64 802.425C1617.64 805.101 1617.64 807.776 1617.64 810.452C1617.64 812.987 1617.64 815.874 1617.64 819.113C1617.64 822.352 1617.64 826.155 1617.64 830.521C1617.64 834.746 1617.64 839.041 1617.64 843.407C1617.64 847.632 1617.64 851.364 1617.64 854.603C1617.64 857.842 1617.64 860.87 1617.64 863.686C1617.64 866.503 1617.64 869.32 1617.64 872.136C1617.64 874.812 1617.64 877.77 1617.64 881.009C1617.64 884.529 1616.65 887.205 1614.68 889.036C1612.85 890.867 1610.67 891.782 1608.13 891.782C1605.6 891.782 1603.34 890.937 1601.37 889.247C1599.54 887.417 1598.62 884.67 1598.62 881.009ZM1598.62 755.106C1598.62 753.556 1598.62 752.289 1598.62 751.303C1598.62 750.317 1598.62 749.331 1598.62 748.346C1598.62 747.36 1598.62 746.163 1598.62 744.754C1598.62 741.515 1599.54 739.121 1601.37 737.572C1603.34 735.882 1605.6 735.037 1608.13 735.037C1610.67 735.037 1612.85 735.882 1614.68 737.572C1616.65 739.121 1617.64 741.515 1617.64 744.754C1617.64 746.163 1617.64 747.36 1617.64 748.346C1617.64 749.331 1617.64 750.317 1617.64 751.303C1617.64 752.289 1617.64 753.556 1617.64 755.106C1617.64 758.345 1616.65 760.809 1614.68 762.499C1612.85 764.048 1610.67 764.823 1608.13 764.823C1605.6 764.823 1603.34 764.048 1601.37 762.499C1599.54 760.809 1598.62 758.345 1598.62 755.106Z" fill="white"/>
<path d="M1570.11 793.974C1570.11 797.636 1570.11 801.016 1570.11 804.114C1570.11 807.212 1570.11 810.522 1570.11 814.043C1570.11 817.423 1570.11 821.366 1570.11 825.873C1570.11 830.238 1570.11 835.449 1570.11 841.505C1570.11 849.532 1568.84 856.644 1566.3 862.841C1563.77 869.037 1560.18 874.319 1555.53 878.684C1551.02 882.909 1545.67 886.148 1539.47 888.402C1533.42 890.655 1526.8 891.782 1519.62 891.782C1512.44 891.782 1505.75 890.444 1499.55 887.768C1493.35 885.092 1487.93 881.29 1483.28 876.361C1478.64 871.432 1475.04 865.657 1472.51 859.038C1469.97 852.279 1468.71 844.885 1468.71 836.857C1468.71 826.154 1470.89 816.719 1475.26 808.55C1479.76 800.241 1485.82 793.763 1493.42 789.116C1501.17 784.468 1509.83 782.145 1519.41 782.145C1526.59 782.145 1533.21 783.482 1539.26 786.158C1545.46 788.693 1550.81 792.425 1555.32 797.354C1559.97 802.143 1563.56 807.846 1566.09 814.465C1568.77 821.084 1570.11 828.408 1570.11 836.435C1570.11 839.674 1570.11 842.843 1570.11 845.941C1570.11 848.899 1570.11 851.786 1570.11 854.602C1570.11 857.278 1570.11 859.813 1570.11 862.207C1570.11 866.01 1570.11 869.53 1570.11 872.769C1570.11 876.009 1570.11 879.529 1570.11 883.332C1570.11 886.853 1569.12 889.528 1567.15 891.359C1565.32 893.19 1563.13 894.105 1560.6 894.105C1558.06 894.105 1555.81 893.19 1553.84 891.359C1552.01 889.528 1551.09 886.853 1551.09 883.332C1551.09 881.078 1551.09 878.755 1551.09 876.361C1551.09 873.967 1551.09 871.643 1551.09 869.389C1551.09 866.995 1551.09 864.601 1551.09 862.207C1551.09 860.658 1551.09 858.264 1551.09 855.025C1551.09 851.645 1551.09 848.265 1551.09 844.885C1551.09 841.364 1551.09 838.547 1551.09 836.435C1551.09 829.534 1549.76 823.408 1547.08 818.056C1544.4 812.705 1540.67 808.55 1535.88 805.593C1531.1 802.635 1525.6 801.157 1519.41 801.157C1514.76 801.157 1510.46 802.072 1506.52 803.903C1502.58 805.593 1499.2 808.057 1496.38 811.297C1493.7 814.395 1491.59 818.127 1490.04 822.493C1488.49 826.858 1487.72 831.647 1487.72 836.857C1487.72 842.068 1488.49 846.856 1490.04 851.222C1491.59 855.588 1493.78 859.39 1496.59 862.63C1499.41 865.869 1502.79 868.404 1506.73 870.234C1510.67 871.924 1514.97 872.769 1519.62 872.769C1524.26 872.769 1528.49 872.136 1532.29 870.868C1536.24 869.601 1539.62 867.7 1542.43 865.165C1545.25 862.489 1547.36 859.179 1548.77 855.236C1550.32 851.293 1551.09 846.716 1551.09 841.505C1551.09 837.421 1551.09 833.125 1551.09 828.619C1551.09 824.112 1551.09 819.676 1551.09 815.31C1551.09 810.945 1551.09 806.931 1551.09 803.269C1551.09 799.467 1551.09 796.368 1551.09 793.974C1551.09 790.454 1552.01 787.778 1553.84 785.947C1555.81 784.116 1558.06 783.201 1560.6 783.201C1563.13 783.201 1565.32 784.116 1567.15 785.947C1569.12 787.778 1570.11 790.454 1570.11 793.974Z" fill="white"/>
<path d="M1447.63 802.631C1441.15 801.645 1435.66 801.856 1431.15 803.264C1426.65 804.532 1422.98 806.715 1420.17 809.813C1417.49 812.77 1415.52 816.362 1414.25 820.587C1412.99 824.812 1412.35 829.389 1412.35 834.318C1412.35 837.557 1412.35 841.289 1412.35 845.514C1412.35 849.739 1412.35 854.034 1412.35 858.4C1412.35 862.766 1412.35 866.92 1412.35 870.863C1412.35 874.807 1412.35 878.187 1412.35 881.003C1412.35 883.82 1411.72 886.073 1410.45 887.763C1409.18 889.453 1407.56 890.58 1405.59 891.143C1403.76 891.847 1401.86 891.918 1399.89 891.354C1398.06 890.791 1396.51 889.664 1395.24 887.974C1393.97 886.144 1393.34 883.82 1393.34 881.003C1393.34 878.046 1393.34 874.384 1393.34 870.018C1393.34 865.512 1393.34 860.864 1393.34 856.076C1393.34 851.147 1393.34 846.5 1393.34 842.134C1393.34 837.768 1393.34 834.247 1393.34 831.571C1393.34 827.628 1393.34 823.474 1393.34 819.108C1393.34 814.742 1393.34 810.376 1393.34 806.011C1393.34 801.504 1393.34 797.349 1393.34 793.547C1393.34 789.885 1394.26 787.21 1396.09 785.52C1398.06 783.689 1400.31 782.773 1402.85 782.773C1405.38 782.773 1407.56 783.689 1409.39 785.52C1411.37 787.35 1412.35 790.026 1412.35 793.547C1412.35 798.194 1412.35 802.56 1412.35 806.644C1412.35 810.588 1412.35 814.601 1412.35 818.685C1412.35 822.629 1412.35 826.924 1412.35 831.571C1412.35 833.402 1412.35 836.43 1412.35 840.655C1412.35 844.88 1412.35 849.598 1412.35 854.809C1412.35 860.019 1412.35 865.019 1412.35 869.807C1412.35 874.455 1412.35 878.187 1412.35 881.003C1412.35 883.82 1411.72 886.073 1410.45 887.763C1409.18 889.453 1407.56 890.58 1405.59 891.143C1403.76 891.847 1401.86 891.918 1399.89 891.354C1398.06 890.791 1396.51 889.664 1395.24 887.974C1393.97 886.144 1393.34 883.82 1393.34 881.003C1393.34 877.06 1393.34 872.272 1393.34 866.638C1393.34 861.005 1393.34 855.583 1393.34 850.372C1393.34 845.162 1393.34 841.218 1393.34 838.543C1393.34 832.487 1394.04 826.572 1395.45 820.798C1397 815.024 1399.25 809.672 1402.21 804.743C1405.17 799.814 1408.9 795.589 1413.41 792.068C1417.91 788.548 1423.2 786.013 1429.25 784.463C1435.45 782.914 1442.42 782.633 1450.17 783.618C1453.69 784.182 1456.22 785.52 1457.77 787.632C1459.32 789.745 1459.88 792.068 1459.46 794.603C1459.18 797.138 1457.98 799.251 1455.87 800.941C1453.9 802.49 1451.15 803.053 1447.63 802.631Z" fill="white"/>
<path d="M1307.36 742.637C1307.36 746.017 1307.36 749.256 1307.36 752.354C1307.36 755.311 1307.36 758.269 1307.36 761.226C1307.36 764.184 1307.36 767.352 1307.36 770.732C1307.36 776.366 1307.36 782.773 1307.36 789.956C1307.36 796.997 1307.36 804.321 1307.36 811.926C1307.36 819.53 1307.36 826.924 1307.36 834.106C1307.36 841.148 1307.36 847.485 1307.36 853.119C1307.36 856.499 1307.36 859.667 1307.36 862.625C1307.36 865.582 1307.36 868.54 1307.36 871.497C1307.36 874.455 1307.36 877.623 1307.36 881.003C1307.36 884.524 1306.37 887.2 1304.4 889.031C1302.57 890.861 1300.39 891.777 1297.85 891.777C1295.32 891.777 1293.07 890.932 1291.09 889.242C1289.26 887.411 1288.35 884.665 1288.35 881.003C1288.35 875.933 1288.35 871.075 1288.35 866.427C1288.35 861.78 1288.35 857.344 1288.35 853.119C1288.35 844.81 1288.35 837.416 1288.35 830.938C1288.35 824.319 1288.35 817.981 1288.35 811.926C1288.35 805.87 1288.35 799.603 1288.35 793.125C1288.35 786.505 1288.35 779.041 1288.35 770.732C1288.35 767.916 1288.35 765.099 1288.35 762.283C1288.35 759.466 1288.35 756.508 1288.35 753.41C1288.35 750.171 1288.35 746.58 1288.35 742.637C1288.35 739.116 1289.26 736.51 1291.09 734.82C1293.07 732.99 1295.32 732.074 1297.85 732.074C1300.39 732.074 1302.57 732.99 1304.4 734.82C1306.37 736.51 1307.36 739.116 1307.36 742.637ZM1366.72 800.307C1362.92 803.124 1358.97 806.011 1354.89 808.968C1350.95 811.926 1346.86 814.883 1342.64 817.84C1338.55 820.798 1334.4 823.826 1330.17 826.924C1326.79 829.459 1324.54 831.149 1323.41 831.994C1322.29 832.698 1322.29 833.543 1323.41 834.529C1324.54 835.374 1326.72 837.064 1329.96 839.599C1334.33 843.12 1338.77 846.852 1343.27 850.795C1347.92 854.597 1352.43 858.47 1356.79 862.414C1361.16 866.357 1365.38 870.23 1369.47 874.032C1372.14 876.426 1373.48 878.961 1373.48 881.637C1373.48 884.172 1372.64 886.355 1370.95 888.186C1369.26 890.016 1367.07 891.002 1364.4 891.143C1361.86 891.425 1359.33 890.369 1356.79 887.974C1352.85 884.454 1348.69 880.792 1344.33 876.99C1339.96 873.046 1335.6 869.173 1331.23 865.371C1326.87 861.428 1322.5 857.766 1318.13 854.386C1312.36 849.88 1307.99 845.936 1305.04 842.556C1302.22 839.036 1300.81 835.796 1300.81 832.839C1300.95 829.741 1302.5 826.572 1305.46 823.333C1308.42 819.953 1312.85 816.08 1318.77 811.714C1323.13 808.475 1327.36 805.377 1331.44 802.419C1335.67 799.462 1339.75 796.575 1343.69 793.758C1347.78 790.801 1351.65 787.914 1355.31 785.097C1358.13 782.985 1360.81 782.14 1363.34 782.562C1366.02 782.985 1368.06 784.252 1369.47 786.365C1371.02 788.336 1371.65 790.66 1371.37 793.336C1371.09 795.871 1369.54 798.194 1366.72 800.307Z" fill="white"/>
<path d="M1166.26 754.258C1166.26 757.075 1166.26 760.173 1166.26 763.553C1166.26 766.933 1166.26 770.313 1166.26 773.693C1166.26 777.073 1166.26 780.171 1166.26 782.988C1166.26 790.592 1166.26 797.212 1166.26 802.845C1166.26 808.337 1166.26 813.478 1166.26 818.266C1166.26 822.913 1166.26 827.772 1166.26 832.842C1166.26 840.588 1167.81 847.488 1170.91 853.544C1174 859.459 1178.3 864.106 1183.79 867.486C1189.43 870.866 1195.9 872.556 1203.23 872.556C1210.83 872.556 1217.31 870.866 1222.66 867.486C1228.15 864.106 1232.38 859.459 1235.34 853.544C1238.29 847.488 1239.77 840.588 1239.77 832.842C1239.77 827.772 1239.77 822.913 1239.77 818.266C1239.77 813.478 1239.77 808.337 1239.77 802.845C1239.77 797.212 1239.77 790.592 1239.77 782.988C1239.77 780.593 1239.77 777.636 1239.77 774.115C1239.77 770.454 1239.77 766.862 1239.77 763.342C1239.77 759.821 1239.77 756.793 1239.77 754.258C1239.77 750.737 1240.69 748.061 1242.52 746.231C1244.49 744.4 1246.74 743.484 1249.28 743.484C1251.81 743.484 1254 744.4 1255.83 746.231C1257.8 748.061 1258.78 750.737 1258.78 754.258C1258.78 757.075 1258.78 760.173 1258.78 763.553C1258.78 766.933 1258.78 770.313 1258.78 773.693C1258.78 777.073 1258.78 780.171 1258.78 782.988C1258.78 788.057 1258.78 792.987 1258.78 797.775C1258.78 802.422 1258.78 807.563 1258.78 813.196C1258.78 818.688 1258.78 825.237 1258.78 832.842C1258.78 841.292 1257.45 849.108 1254.77 856.29C1252.09 863.473 1248.29 869.74 1243.36 875.091C1238.43 880.302 1232.59 884.386 1225.83 887.344C1219.07 890.16 1211.54 891.568 1203.23 891.568C1195.2 891.568 1187.74 890.16 1180.83 887.344C1174.07 884.386 1168.16 880.302 1163.09 875.091C1158.16 869.74 1154.29 863.473 1151.47 856.29C1148.65 849.108 1147.25 841.292 1147.25 832.842C1147.25 825.237 1147.25 818.688 1147.25 813.196C1147.25 807.563 1147.25 802.422 1147.25 797.775C1147.25 792.987 1147.25 788.057 1147.25 782.988C1147.25 780.593 1147.25 777.636 1147.25 774.115C1147.25 770.454 1147.25 766.862 1147.25 763.342C1147.25 759.821 1147.25 756.793 1147.25 754.258C1147.25 750.737 1148.16 748.061 1149.99 746.231C1151.96 744.4 1154.22 743.484 1156.75 743.484C1159.29 743.484 1161.47 744.4 1163.3 746.231C1165.27 748.061 1166.26 750.737 1166.26 754.258Z" fill="white"/>
</svg>
