<svg width="987" height="1055" viewBox="0 0 987 1055" fill="none" xmlns="http://www.w3.org/2000/svg">
<path d="M20.5978 836.146L152.821 804.835C161.157 802.903 168.436 800.089 177.544 798.262C181.493 797.47 186.507 795.121 188.881 790.535C190.969 786.501 191.948 781.244 188.881 776.86C186.619 773.626 185.34 772.89 181.54 771.775C177.042 770.455 172.441 770.862 168.111 771.775C158.673 773.763 141.728 779.248 134.416 780.943L14.1872 808.813C6.59628 810.573 1.87679 818.117 3.6463 825.668C5.41433 833.212 13.0025 837.905 20.5978 836.146Z" fill="#FFA54B"/>
<path d="M37.1884 750.491L122.66 730.677C134.234 727.994 157.467 721.279 168.666 717.325C172.548 715.922 177.198 712.978 180.119 710.075C182.239 707.967 184.949 700.056 183.04 695.556C180.352 689.221 173.529 688.462 166.461 689.284C164.634 689.496 162.796 689.833 161.015 690.235C150.35 694.081 127.417 700.756 116.251 703.344L30.7764 723.158C23.1857 724.918 18.4663 732.462 20.2353 740.013C22.0046 747.557 29.5941 752.246 37.1884 750.491Z" fill="#FFA54B"/>
<path d="M27.5333 670.935L104.493 653.095C118.3 649.895 141.591 643.45 156.501 636.53C162.439 633.774 168.436 631.675 171.357 628.771C175.47 624.682 176.636 619.538 174.278 614.253C172.591 610.472 168.793 607.822 166.325 607.205C163.764 606.566 160.603 606.676 157.184 607.269C153.687 607.876 138.197 612.367 135.113 613.418C123.276 618.649 110.887 622.794 98.0833 625.762L21.122 643.602C13.5311 645.362 8.81159 652.906 10.5811 660.457C12.3487 668 19.9412 672.691 27.5333 670.935Z" fill="#FFA54B"/>
<path fill-rule="evenodd" clip-rule="evenodd" d="M277.53 121.56C275.032 119.828 273.083 117.292 272.119 114.17C269.834 106.764 274.021 98.9141 281.478 96.6389C369.886 69.6788 464.134 65.7853 554.015 85.372C561.622 87.0243 566.446 94.5102 564.776 102.083C563.108 109.652 555.582 114.444 547.967 112.785C462.808 94.2287 373.522 97.9246 289.751 123.473C285.438 124.788 280.979 123.951 277.53 121.56Z" fill="#FFA54B"/>
<path d="M774.491 126.131C701.481 75.515 620.136 42.7711 532.74 28.8293C530.568 28.4845 528.597 27.6646 526.912 26.497C522.599 23.5065 520.156 18.24 521.042 12.7524C522.277 5.10092 529.518 -0.107041 537.214 1.1207C628.843 15.7374 714.096 50.0469 790.637 103.111C830.512 130.755 866.958 162.957 898.96 198.816C904.135 204.614 903.601 213.484 897.77 218.627C891.943 223.768 883.023 223.235 877.847 217.444C847.314 183.23 812.538 152.508 774.491 126.131Z" fill="#FFA54B"/>
<path d="M785.801 334.148C792.09 329.567 800.924 330.927 805.526 337.176C833.415 375.027 855.139 416.913 870.098 461.667C872.555 469.021 868.55 476.965 861.154 479.406C856.758 480.858 852.157 480.047 848.617 477.592C846.209 475.923 844.306 473.503 843.307 470.515C829.281 428.537 808.907 389.254 782.755 353.757C778.149 347.508 779.512 338.727 785.801 334.148Z" fill="#FFA54B"/>
<path d="M68.0818 497.937C85.9654 493.788 101.594 483.26 112.098 468.284L154.596 407.692C156.493 404.988 160.39 399.676 160.39 399.676C160.39 399.676 161.587 397.221 162.061 395.936C163.237 392.751 163.675 389.672 162.945 386.932C162.239 384.279 160.345 381.597 156.135 379.308C153.269 377.75 150.784 377.259 148.626 377.373C146.454 377.488 144.455 378.224 142.589 379.354C140.194 380.805 138.149 382.808 136.354 384.8C134.693 387.059 133.056 389.339 131.442 391.64L88.9436 452.232C82.4365 461.509 72.7482 468.035 61.6738 470.601L27.9623 478.415C20.3712 480.174 15.6526 487.719 17.4228 495.267C18.2454 498.783 20.3252 501.673 23.0896 503.589C26.2656 505.791 30.3154 506.689 34.3717 505.75L68.0818 497.937Z" fill="#FFA54B"/>
<path fill-rule="evenodd" clip-rule="evenodd" d="M645.205 907.916C627.325 928.78 607.981 948.768 587.701 967.322C581.965 972.57 581.595 981.447 586.873 987.147C588.123 988.497 589.566 989.54 591.12 990.286C596.186 992.717 602.439 991.979 606.819 987.972C627.935 968.65 648.079 947.839 666.696 926.113C671.747 920.216 671.035 911.36 665.106 906.334C659.159 901.312 650.259 902.023 645.205 907.916Z" fill="#FFA54B"/>
<path d="M145.86 865.544L29.1768 891.981C21.5794 893.701 16.8196 901.226 18.552 908.781C19.3635 912.326 21.4513 915.239 24.2346 917.169C27.3918 919.357 31.4119 920.258 35.4486 919.343L152.13 892.905C211.573 879.438 267.15 854.988 316.328 821.254C320.085 818.677 323.686 814.69 325.37 810.489C326.358 808.024 327.156 804.205 324.233 800.312C322.006 797.346 318.693 796.311 315.675 796.136C312.486 795.95 308.758 796.62 304.932 797.781C299.352 799.473 295.635 801.59 290.11 804.835C240.064 834.237 190.886 855.343 145.86 865.544Z" fill="#FFA54B"/>
<path d="M163.695 943.202L65.2436 965.51C57.6448 967.229 52.8843 974.753 54.6166 982.309C55.4282 985.853 57.5159 988.767 60.2993 990.696C63.4565 992.885 67.4766 993.785 71.5133 992.871L169.967 970.564C268.641 948.207 358.203 899.954 430.162 831.495C432.322 828.403 434.093 825.39 435.118 822.511C435.682 820.929 436.419 818.302 435.844 815.682C435.844 815.682 436.229 817.452 435.842 815.673C435.454 813.893 434.376 812.08 432.647 810.399C427.62 805.513 418.304 809.595 414.665 811.246C411.8 812.546 407.264 816.144 407.264 816.144C407.264 816.144 390 829.96 382.461 836.165C319.532 887.961 244.859 924.814 163.695 943.202Z" fill="#FFA54B"/>
<path d="M154.279 1027.05L181.525 1020.87C250.235 1005.31 304.789 984.708 373.142 941.328C428.533 906.174 500.999 832.562 500.999 832.562L519.998 812.555C519.998 812.555 529.974 801.025 536.929 799.181C542.253 797.77 546.718 800.396 548.756 801.942C550.25 803.075 551.711 804.83 552.59 807.216C554.69 812.918 550.296 817.384 547.165 821.798C539.531 832.562 464.752 915.376 393.615 961.598C320.55 1009.07 261.79 1031.47 187.795 1048.24L160.55 1054.41C156.514 1055.33 152.493 1054.43 149.336 1052.24C146.556 1050.31 144.467 1047.39 143.654 1043.85C141.921 1036.29 146.679 1028.77 154.279 1027.05Z" fill="#FFA54B"/>
<path d="M492.159 952.667C498.089 947.646 506.989 948.349 512.059 954.245C517.112 960.142 516.402 968.999 510.474 974.024C488.626 992.539 465.417 1009.91 441.486 1025.66C436.522 1028.92 430.231 1028.67 425.616 1025.47C424.201 1024.49 422.943 1023.23 421.924 1021.7C417.622 1015.24 419.404 1006.53 425.904 1002.25L492.159 952.667Z" fill="#FFA54B"/>
<path d="M644.182 784.29L589.127 845.099C568.089 868.335 545.28 890.307 521.324 910.408C515.366 915.408 514.614 924.259 519.641 930.18C520.067 930.682 520.523 931.148 521.001 931.577C526.156 936.189 534.082 936.425 539.531 931.852C564.466 910.929 588.213 888.057 610.109 863.873C610.109 863.873 645.702 827.183 665.106 801.714C688.47 771.048 710.953 729.071 716.64 718.893C718.535 715.501 721.189 704.193 713.228 700.8C706.097 697.762 697.881 702.335 695.029 708.716C685.93 729.071 647.476 780.652 644.182 784.29Z" fill="#FFA54B"/>
<path d="M889.337 544.417C897.94 607.803 893.207 670.863 875.275 731.869C873.089 739.305 865.251 743.572 857.77 741.399C856.251 740.958 854.87 740.289 853.652 739.444C848.814 736.09 846.44 729.924 848.183 723.996C853.048 707.444 856.876 690.729 859.665 673.891C866.517 632.528 867.096 590.422 861.362 548.172C860.32 540.49 865.737 533.424 873.463 532.387C881.186 531.349 888.293 536.735 889.337 544.417Z" fill="#FFA54B"/>
<path d="M616.233 292.279C620.332 285.69 629.03 283.651 635.659 287.727C641.544 291.345 647.413 295.18 653.106 299.127C822.575 416.615 864.309 649.284 746.134 817.769L699.066 884.877C694.606 891.235 685.809 892.794 679.416 888.361C673.022 883.928 671.452 875.183 675.911 868.825L722.981 801.714C832.258 645.913 793.668 430.785 636.96 322.144C631.692 318.491 626.262 314.942 620.815 311.594L620.798 311.583C614.173 307.549 612.124 298.889 616.233 292.279Z" fill="#FFA54B"/>
<path d="M960.232 337.237C950.623 318.64 939.889 300.369 928.325 282.931C924.034 276.463 925.832 267.756 932.338 263.49C938.846 259.227 947.598 261.013 951.889 267.484C964.012 285.764 975.267 304.92 985.339 324.411C988.9 331.305 986.166 339.763 979.233 343.305C974.426 345.761 968.856 345.213 964.696 342.329C962.873 341.065 961.322 339.35 960.232 337.237Z" fill="#FFA54B"/>
<path d="M730.562 295.255L730.557 295.251C715.69 281.421 699.63 268.498 682.819 256.844C679.726 254.7 676.61 252.599 673.472 250.543C607.542 207.335 531.902 183.57 454.063 180.965C448.472 180.777 442.871 180.699 437.261 180.731C415.875 180.852 394.366 182.569 372.886 185.915C263.908 202.894 167.107 259.952 100.344 346.58C95.7351 352.559 87.231 353.827 81.0793 349.562C80.8885 349.43 80.7267 349.313 80.5821 349.201L80.5546 349.18C74.3696 344.47 73.1963 335.661 77.9381 329.509C149.132 237.136 252.317 176.296 368.516 158.19C371.183 157.775 373.851 157.383 376.519 157.014C376.989 156.949 377.459 156.885 377.93 156.822C491.375 141.505 605.017 168.692 698.965 233.824C716.878 246.243 733.998 260.019 749.848 274.763C755.539 280.059 755.835 288.935 750.508 294.594C745.175 300.258 736.244 300.557 730.562 295.255Z" fill="#FFA54B"/>
<path d="M552.549 279.289C559.914 281.831 567.957 277.955 570.513 270.635C573.067 263.32 569.167 255.323 561.807 252.775C522.582 239.238 481.542 232.346 439.819 232.29C432.023 232.28 425.696 238.558 425.687 246.305C425.678 251.079 428.063 255.298 431.737 257.845C434.014 259.424 436.781 260.352 439.779 260.357C478.352 260.407 516.293 266.778 552.549 279.289Z" fill="#FFA54B"/>
<path d="M378.828 251.113C380.421 258.699 375.528 266.132 367.897 267.717C338.21 273.882 314.387 281.015 283.291 296.937C260.148 308.786 211.138 344.318 211.138 344.318C211.138 344.318 198.866 355.626 188.881 346.58C178.896 337.533 188.881 324.518 188.881 324.518C191.554 321.174 240.357 287.367 265.099 274.483C300.716 255.935 323.028 248.364 362.126 240.246C369.755 238.662 377.235 243.527 378.828 251.113Z" fill="#FFA54B"/>
<path d="M617.108 117.913C619.974 110.707 628.173 107.173 635.421 110.022C673.824 125.112 710.617 144.77 744.772 168.448C805.472 210.529 855.754 263.446 894.238 325.742C931.396 385.89 955.871 451.919 966.987 522.003C968.202 529.654 962.945 536.839 955.244 538.047C951.495 538.635 947.865 537.701 944.975 535.697C941.926 533.584 939.728 530.3 939.104 526.369C917.389 389.464 842.632 270.505 728.626 191.468C696.269 169.036 661.421 150.418 625.049 136.12C617.802 133.274 614.245 125.119 617.108 117.913Z" fill="#FFA54B"/>
<path d="M124.185 557.02C110.146 565.633 101.628 569.559 86.2519 575.501C60.6653 585.388 17.7943 591.37 17.7943 591.37C13.7405 592.31 9.68781 591.413 6.51231 589.211C3.74902 587.296 1.67045 584.409 0.84427 580.892C-0.925353 573.341 3.79545 565.797 11.3838 564.039C11.3838 564.039 54.4422 558.521 79.8423 548.168C94.1352 542.342 102.013 538.441 114.949 530.047C133.671 517.898 145.987 504.842 157.9 492.416C162.641 489.958 167.758 489.108 172.794 491.846C177.005 494.135 178.898 496.817 179.604 499.47C180.334 502.21 179.981 505.171 178.72 508.474C177.412 511.903 174.478 514.637 173.094 516.017C159.183 529.874 145.446 543.975 124.185 557.02Z" fill="#FFA54B"/>
<path d="M361.957 730.438C361.957 724.904 361.957 718.777 361.957 712.057C361.957 704.942 361.957 696.048 361.957 685.376C361.957 674.308 361.957 660.078 361.957 642.685C361.957 630.431 361.957 617.782 361.957 604.738C361.957 591.298 361.957 577.463 361.957 563.233C361.957 548.608 361.957 533.192 361.957 516.985C361.957 500.779 361.957 483.584 361.957 465.401C361.957 442.079 362.541 423.303 363.709 409.073C365.267 394.843 367.992 383.973 371.886 376.462C375.78 368.557 381.231 363.22 388.24 360.453C395.638 357.686 404.983 356.303 416.274 356.303C422.504 356.303 428.15 356.303 433.212 356.303C438.663 356.303 444.115 356.303 449.566 356.303C455.017 356.303 461.442 356.303 468.84 356.303C476.627 356.303 486.167 356.303 497.459 356.303C520.431 356.303 541.263 359.663 559.953 366.382C578.643 372.707 594.996 381.798 609.014 393.657C623.42 405.515 635.491 419.746 645.225 436.348C654.96 452.949 662.163 471.528 666.835 492.082C671.897 512.242 674.428 533.982 674.428 557.304C674.428 586.555 669.95 613.632 660.995 638.535C652.429 663.042 639.969 684.388 623.615 702.571C607.651 720.754 588.572 734.786 566.377 744.668C544.183 754.55 519.458 759.491 492.202 759.491C484.415 759.491 476.627 759.491 468.84 759.491C461.442 759.491 454.044 759.491 446.645 759.491C436.911 759.491 429.513 756.922 424.451 751.783C419.389 746.249 416.859 739.925 416.859 732.81C416.859 725.695 419.389 719.568 424.451 714.429C429.513 708.895 436.911 706.128 446.645 706.128C454.822 706.128 462.415 706.128 469.424 706.128C476.432 706.128 484.025 706.128 492.202 706.128C512.449 706.128 530.555 702.571 546.519 695.455C562.484 687.945 575.917 677.668 586.819 664.623C598.111 651.184 606.677 635.372 612.518 617.189C618.748 599.006 621.863 579.045 621.863 557.304C621.863 535.563 619.332 515.799 614.27 498.012C609.208 479.829 601.616 464.215 591.492 451.171C581.368 438.126 568.519 428.047 552.944 420.931C537.369 413.421 518.874 409.666 497.459 409.666C486.167 409.666 476.627 409.666 468.84 409.666C461.052 409.666 453.654 409.666 446.645 409.666C440.026 409.666 432.044 409.666 422.699 409.666C420.363 409.666 418.416 410.654 416.859 412.631C415.69 414.212 414.912 416.781 414.522 420.339C414.133 423.501 413.938 427.454 413.938 432.197C413.938 436.94 413.938 442.079 413.938 447.613C414.328 453.147 414.522 459.076 414.522 465.401C414.522 481.607 414.522 498.802 414.522 516.985C414.522 535.168 414.522 554.735 414.522 575.685C414.522 596.239 414.522 618.573 414.522 642.685C414.522 662.054 414.522 676.877 414.522 687.154C414.522 697.432 414.522 705.733 414.522 712.057C414.522 717.987 414.522 724.113 414.522 730.438C414.522 740.32 411.797 747.83 406.345 752.969C401.284 758.108 395.248 760.677 388.24 760.677C381.231 760.677 375.001 758.108 369.55 752.969C364.488 747.83 361.957 740.32 361.957 730.438Z" fill="black"/>
<path d="M245.545 731.258C245.545 718.567 245.545 707.03 245.545 696.646C245.545 686.263 245.545 676.841 245.545 668.381C245.545 659.535 245.545 651.459 245.545 644.153C245.545 625.693 245.545 606.849 245.545 587.621C245.545 568.393 245.545 549.164 245.545 529.936C245.545 510.323 245.545 491.479 245.545 473.404C245.545 464.559 245.545 455.906 245.545 447.446C245.545 438.601 245.545 429.179 245.545 419.18C245.545 409.181 245.545 397.836 245.545 385.145C245.545 375.531 248.79 368.417 255.28 363.802C262.269 358.802 270.257 356.303 279.243 356.303C288.229 356.303 295.967 358.802 302.457 363.802C309.446 368.417 312.941 375.531 312.941 385.145C312.941 397.836 312.941 409.181 312.941 419.18C312.941 429.179 312.941 438.601 312.941 447.446C312.941 455.906 312.941 464.559 312.941 473.404C312.941 491.479 312.941 510.323 312.941 529.936C312.941 549.164 312.941 568.393 312.941 587.621C312.941 606.849 312.941 625.693 312.941 644.153C312.941 651.459 312.941 659.535 312.941 668.381C312.941 676.841 312.941 686.263 312.941 696.646C312.941 707.03 312.941 718.567 312.941 731.258C312.941 741.256 309.446 748.755 302.457 753.755C295.967 758.37 288.229 760.677 279.243 760.677C270.257 760.677 262.269 758.37 255.28 753.755C248.79 748.755 245.545 741.256 245.545 731.258Z" fill="black"/>
</svg>
