<svg width="155" height="165" viewBox="0 0 155 165" fill="none" xmlns="http://www.w3.org/2000/svg">
<g opacity="0.1" clip-path="url(#clip0_647_94)">
<path d="M3.23461 130.704L23.9991 125.807C25.3082 125.505 26.4514 125.065 27.8817 124.779C28.5018 124.656 29.2892 124.288 29.6621 123.571C29.99 122.94 30.1437 122.118 29.6621 121.432C29.3068 120.926 29.106 120.811 28.5092 120.637C27.8028 120.431 27.0803 120.494 26.4003 120.637C24.9182 120.948 22.2571 121.806 21.1088 122.071L2.22788 126.429C1.03579 126.705 0.294636 127.885 0.572523 129.066C0.850177 130.246 2.04183 130.979 3.23461 130.704Z" fill="#EEC033"/>
<path d="M5.8403 117.308L19.2629 114.209C21.0805 113.79 24.729 112.739 26.4877 112.121C27.0974 111.902 27.8276 111.441 28.2863 110.987C28.6193 110.657 29.0449 109.42 28.7451 108.716C28.3229 107.726 27.2514 107.607 26.1415 107.735C25.8546 107.769 25.5659 107.821 25.2862 107.884C23.6114 108.486 20.0099 109.53 18.2564 109.934L4.83335 113.033C3.6413 113.308 2.90016 114.488 3.17796 115.669C3.45582 116.849 4.64768 117.582 5.8403 117.308Z" fill="#EEC033"/>
<path d="M4.32408 104.865L16.4099 102.075C18.5782 101.575 22.2359 100.567 24.5774 99.4846C25.5099 99.0536 26.4517 98.7251 26.9104 98.271C27.5563 97.6316 27.7394 96.8269 27.3691 96.0004C27.1042 95.409 26.5077 94.9946 26.1201 94.8982C25.718 94.7981 25.2215 94.8155 24.6846 94.9083C24.1355 95.003 21.7029 95.7056 21.2186 95.8698C19.3597 96.6879 17.4141 97.3363 15.4034 97.8004L3.31724 100.591C2.12515 100.866 1.38399 102.046 1.66188 103.227C1.93946 104.406 3.1318 105.14 4.32408 104.865Z" fill="#EEC033"/>
<path fill-rule="evenodd" clip-rule="evenodd" d="M43.584 18.9442C43.1917 18.6733 42.8856 18.2767 42.7342 17.7886C42.3754 16.6301 43.0329 15.4025 44.204 15.0466C58.0877 10.8301 72.8885 10.2212 87.0036 13.2845C88.1982 13.5429 88.9558 14.7137 88.6935 15.8982C88.4316 17.082 87.2497 17.8313 86.0538 17.5718C72.6803 14.6697 58.6587 15.2477 45.5032 19.2434C44.8259 19.449 44.1256 19.3181 43.584 18.9442Z" fill="#EEC033"/>
<path d="M121.627 19.6589C110.162 11.7427 97.3871 6.62168 83.6623 4.44119C83.3212 4.38728 83.0117 4.25905 82.747 4.07643C82.0697 3.60873 81.6861 2.78505 81.8252 1.9268C82.0192 0.73013 83.1563 -0.0843854 84.3649 0.10763C98.7544 2.39365 112.143 7.7596 124.163 16.0587C130.425 20.3821 136.148 25.4185 141.174 31.0269C141.987 31.9337 141.903 33.3209 140.987 34.1253C140.072 34.9292 138.671 34.846 137.858 33.9403C133.063 28.5893 127.602 23.7843 121.627 19.6589Z" fill="#EEC033"/>
<path d="M123.403 52.1928C124.391 51.4765 125.778 51.689 126.501 52.6663C130.881 58.5862 134.292 65.1372 136.642 72.1365C137.027 73.2866 136.398 74.5292 135.237 74.911C134.547 75.1381 133.824 75.0111 133.268 74.6273C132.89 74.3661 132.591 73.9876 132.434 73.5203C130.232 66.955 127.032 60.8112 122.925 55.2596C122.202 54.2823 122.416 52.9091 123.403 52.1928Z" fill="#EEC033"/>
<path d="M10.6917 77.809C13.5002 77.1602 15.9545 75.5135 17.6041 73.1713L24.278 63.6948C24.5759 63.2721 25.1879 62.4411 25.1879 62.4411C25.1879 62.4411 25.3759 62.0572 25.4503 61.8564C25.635 61.3581 25.7038 60.8765 25.5892 60.448C25.4783 60.0331 25.1809 59.6138 24.5197 59.2556C24.0696 59.012 23.6794 58.9353 23.3405 58.9531C22.9994 58.971 22.6855 59.0861 22.3924 59.2628C22.0163 59.4898 21.6952 59.803 21.4133 60.1147C21.1524 60.4679 20.8954 60.8245 20.6419 61.1843L13.9679 70.6608C12.946 72.1119 11.4245 73.1324 9.68539 73.5338L4.39128 74.7558C3.19917 75.031 2.45815 76.2111 2.73614 77.3916C2.86533 77.9413 3.19194 78.3933 3.62607 78.6931C4.12483 79.0375 4.76082 79.1779 5.39783 79.0309L10.6917 77.809Z" fill="#EEC033"/>
<path fill-rule="evenodd" clip-rule="evenodd" d="M101.324 141.929C98.5163 145.192 95.4785 148.318 92.2937 151.22C91.3929 152.04 91.3348 153.429 92.1636 154.32C92.3599 154.531 92.5866 154.695 92.8306 154.811C93.6262 155.191 94.6082 155.076 95.296 154.449C98.6121 151.427 101.776 148.172 104.699 144.775C105.492 143.852 105.381 142.467 104.449 141.681C103.516 140.896 102.118 141.007 101.324 141.929Z" fill="#EEC033"/>
<path d="M22.906 135.302L4.58185 139.437C3.38874 139.706 2.64126 140.883 2.91332 142.064C3.04076 142.619 3.36863 143.074 3.80572 143.376C4.30153 143.718 4.93285 143.859 5.56678 143.716L23.8906 139.581C33.2256 137.475 41.9535 133.651 49.6765 128.375C50.2665 127.972 50.832 127.348 51.0965 126.692C51.2516 126.306 51.377 125.709 50.9179 125.1C50.5682 124.636 50.0479 124.474 49.574 124.447C49.0732 124.418 48.4877 124.522 47.8869 124.704C47.0106 124.969 46.4269 125.3 45.5592 125.807C37.6999 130.406 29.9769 133.707 22.906 135.302Z" fill="#EEC033"/>
<path d="M25.7067 147.447L10.2458 150.936C9.05243 151.205 8.30484 152.382 8.57688 153.564C8.70433 154.118 9.03219 154.574 9.4693 154.875C9.96511 155.218 10.5964 155.359 11.2304 155.216L26.6917 151.727C42.1876 148.23 56.2525 140.684 67.5531 129.977C67.8923 129.493 68.1704 129.022 68.3314 128.572C68.42 128.324 68.5357 127.913 68.4454 127.503C68.4454 127.503 68.5059 127.78 68.4451 127.502C68.3842 127.224 68.2149 126.94 67.9434 126.677C67.1539 125.913 65.6909 126.552 65.1194 126.81C64.6695 127.013 63.9572 127.576 63.9572 127.576C63.9572 127.576 61.246 129.737 60.0621 130.707C50.1796 138.808 38.4528 144.572 25.7067 147.447Z" fill="#EEC033"/>
<path d="M24.2284 160.561L28.5072 159.595C39.2975 157.161 47.8647 153.939 58.599 147.154C67.2977 141.656 78.6779 130.144 78.6779 130.144L81.6615 127.014C81.6615 127.014 83.2281 125.211 84.3204 124.923C85.1565 124.702 85.8576 125.113 86.1777 125.355C86.4123 125.532 86.6418 125.806 86.7798 126.18C87.1096 127.071 86.4195 127.77 85.9278 128.46C84.729 130.144 72.9856 143.095 61.8141 150.325C50.3399 157.749 41.1121 161.253 29.4918 163.874L25.2132 164.84C24.5794 164.983 23.9479 164.842 23.4522 164.5C23.0156 164.199 22.6875 163.743 22.5598 163.189C22.2877 162.007 23.0349 160.83 24.2284 160.561Z" fill="#EEC033"/>
<path d="M77.2893 148.928C78.2206 148.142 79.6182 148.252 80.4144 149.174C81.208 150.097 81.0965 151.482 80.1655 152.268C76.7345 155.164 73.0897 157.881 69.3315 160.344C68.552 160.854 67.564 160.813 66.8393 160.314C66.6171 160.159 66.4195 159.964 66.2595 159.724C65.5839 158.714 65.8637 157.352 66.8845 156.683L77.2893 148.928Z" fill="#EEC033"/>
<path d="M101.163 122.594L92.5174 132.104C89.2136 135.738 85.6316 139.175 81.8695 142.318C80.9339 143.1 80.8158 144.485 81.6052 145.411C81.6721 145.489 81.7437 145.562 81.8188 145.629C82.6283 146.351 83.8731 146.387 84.7288 145.672C88.6446 142.4 92.3739 138.823 95.8125 135.04C95.8125 135.04 101.402 129.302 104.449 125.319C108.118 120.523 111.649 113.958 112.542 112.366C112.84 111.835 113.257 110.067 112.006 109.536C110.887 109.061 109.596 109.776 109.148 110.774C107.719 113.958 101.681 122.025 101.163 122.594Z" fill="#EEC033"/>
<path d="M139.663 85.0782C141.014 94.9918 140.271 104.854 137.454 114.395C137.111 115.558 135.88 116.226 134.705 115.886C134.467 115.817 134.25 115.712 134.059 115.58C133.299 115.056 132.926 114.091 133.2 113.164C133.964 110.575 134.565 107.961 135.003 105.328C136.079 98.8586 136.17 92.2733 135.27 85.6655C135.106 84.4642 135.957 83.3591 137.17 83.1968C138.383 83.0346 139.499 83.8768 139.663 85.0782Z" fill="#EEC033"/>
<path d="M96.7742 45.6442C97.4179 44.6139 98.7839 44.2948 99.8249 44.9325C100.749 45.4982 101.671 46.0979 102.565 46.7152C129.178 65.0901 135.732 101.479 117.174 127.83L109.782 138.325C109.082 139.32 107.701 139.564 106.697 138.87C105.692 138.177 105.446 136.809 106.146 135.815L113.538 125.319C130.699 100.952 124.639 67.3063 100.029 50.3151C99.2019 49.7439 98.3492 49.1887 97.4938 48.6651L97.4911 48.6635C96.4507 48.0324 96.1289 46.678 96.7742 45.6442Z" fill="#EEC033"/>
<path d="M150.796 52.6755C149.287 49.767 147.602 46.9094 145.786 44.1822C145.112 43.1706 145.394 41.8088 146.416 41.1416C147.438 40.4749 148.812 40.7542 149.486 41.7663C151.39 44.6254 153.158 47.6212 154.739 50.6696C155.298 51.7478 154.869 53.0706 153.78 53.6247C153.025 54.0088 152.151 53.923 151.497 53.4719C151.211 53.2742 150.968 53.0062 150.796 52.6755Z" fill="#EEC033"/>
<path d="M114.729 46.1101L114.728 46.1093C112.393 43.9463 109.871 41.9254 107.231 40.1025C106.745 39.7672 106.256 39.4386 105.763 39.1171C95.4093 32.3594 83.5307 28.6426 71.3068 28.2352C70.4287 28.206 69.5491 28.1938 68.6681 28.1988C65.3097 28.2177 61.9318 28.4861 58.5586 29.0095C41.4445 31.6649 26.2427 40.5886 15.7582 54.1371C15.0344 55.0722 13.6989 55.2705 12.7328 54.6036C12.7029 54.5828 12.6774 54.5645 12.6547 54.547L12.6504 54.5437C11.6791 53.8071 11.4949 52.4294 12.2395 51.4672C23.4199 37.0204 39.6243 27.5051 57.8723 24.6734C58.2911 24.6083 58.7101 24.547 59.1291 24.4895C59.2029 24.4793 59.2767 24.4691 59.3507 24.4593C77.1663 22.0637 95.0128 26.3159 109.767 36.5023C112.58 38.4446 115.268 40.5993 117.757 42.905C118.651 43.7335 118.697 45.1217 117.861 46.0066C117.023 46.8924 115.621 46.9392 114.729 46.1101Z" fill="#EEC033"/>
<path d="M86.7732 43.6129C87.9298 44.0105 89.1929 43.4041 89.5943 42.2595C89.9954 41.1152 89.3829 39.8647 88.2271 39.4662C82.0671 37.3489 75.6221 36.271 69.0699 36.2622C67.8456 36.2606 66.852 37.2425 66.8506 38.4541C66.8492 39.2009 67.2237 39.8606 67.8007 40.2591C68.1583 40.5061 68.5928 40.6511 69.0636 40.6518C75.1212 40.6597 81.0795 41.6561 86.7732 43.6129Z" fill="#EEC033"/>
<path d="M59.4918 39.2063C59.742 40.3929 58.9736 41.5552 57.7752 41.8033C53.1131 42.7673 49.3719 43.883 44.4885 46.3731C40.8541 48.2264 33.1575 53.7834 33.1575 53.7834C33.1575 53.7834 31.2303 55.5519 29.6622 54.1371C28.0942 52.7222 29.6622 50.6868 29.6622 50.6868C30.082 50.1638 37.7461 44.8763 41.6316 42.8613C47.225 39.9604 50.7289 38.7763 56.8689 37.5067C58.067 37.2591 59.2417 38.0198 59.4918 39.2063Z" fill="#EEC033"/>
<path d="M96.9114 18.3737C97.3614 17.2467 98.649 16.694 99.7873 17.1396C105.818 19.4996 111.596 22.5741 116.96 26.2773C126.492 32.8589 134.389 41.135 140.432 50.878C146.268 60.2848 150.111 70.6116 151.857 81.5726C152.048 82.7694 151.222 83.893 150.013 84.0821C149.424 84.174 148.854 84.0278 148.4 83.7144C147.921 83.3839 147.576 82.8704 147.478 82.2555C144.068 60.8438 132.328 42.2388 114.424 29.8776C109.343 26.3693 103.87 23.4575 98.1584 21.2213C97.0204 20.7762 96.4618 19.5009 96.9114 18.3737Z" fill="#EEC033"/>
<path d="M19.5022 87.0492C17.2975 88.3964 15.9598 89.0102 13.5451 89.9396C9.52697 91.486 2.79444 92.4214 2.79444 92.4214C2.15782 92.5686 1.52138 92.4282 1.0227 92.0839C0.588744 91.7843 0.262322 91.3329 0.132578 90.7827C-0.145327 89.6017 0.596035 88.4219 1.78772 88.1469C1.78772 88.1469 8.54968 87.2839 12.5386 85.6647C14.7831 84.7536 16.0203 84.1435 18.0518 82.8306C20.9919 80.9307 22.926 78.8886 24.7969 76.9454C25.5414 76.5608 26.345 76.4279 27.1358 76.8561C27.7971 77.2141 28.0944 77.6335 28.2053 78.0485C28.3199 78.477 28.2645 78.9401 28.0665 79.4568C27.861 79.9931 27.4003 80.4207 27.1829 80.6364C24.9983 82.8036 22.8411 85.009 19.5022 87.0492Z" fill="#EEC033"/>
<path d="M56.8423 114.172C56.8423 113.306 56.8423 112.348 56.8423 111.297C56.8423 110.184 56.8423 108.793 56.8423 107.124C56.8423 105.393 56.8423 103.168 56.8423 100.447C56.8423 98.531 56.8423 96.5527 56.8423 94.5125C56.8423 92.4106 56.8423 90.2469 56.8423 88.0213C56.8423 85.7339 56.8423 83.3228 56.8423 80.7882C56.8423 78.2535 56.8423 75.5642 56.8423 72.7204C56.8423 69.0729 56.934 66.1365 57.1174 63.9108C57.3621 61.6853 57.79 59.9853 58.4015 58.8107C59.0131 57.5742 59.8691 56.7397 60.9698 56.3069C62.1316 55.8742 63.5992 55.6577 65.3723 55.6577C66.3507 55.6577 67.2373 55.6577 68.0323 55.6577C68.8883 55.6577 69.7445 55.6577 70.6005 55.6577C71.4566 55.6577 72.4656 55.6577 73.6274 55.6577C74.8502 55.6577 76.3484 55.6577 78.1217 55.6577C81.7293 55.6577 85.0008 56.1832 87.9359 57.2342C90.871 58.2233 93.4391 59.6452 95.6405 61.4998C97.9028 63.3545 99.7985 65.5801 101.327 68.1766C102.856 70.7731 103.987 73.6787 104.721 76.8934C105.516 80.0463 105.913 83.4465 105.913 87.0939C105.913 91.6687 105.21 95.9035 103.804 99.7983C102.458 103.631 100.502 106.97 97.9335 109.813C95.4264 112.657 92.4303 114.852 88.9447 116.397C85.4593 117.943 81.5765 118.716 77.2962 118.716C76.0733 118.716 74.8502 118.716 73.6274 118.716C72.4656 118.716 71.3038 118.716 70.1418 118.716C68.6132 118.716 67.4514 118.314 66.6564 117.51C65.8615 116.645 65.4642 115.655 65.4642 114.543C65.4642 113.43 65.8615 112.472 66.6564 111.668C67.4514 110.802 68.6132 110.37 70.1418 110.37C71.4259 110.37 72.6184 110.37 73.7191 110.37C74.8196 110.37 76.012 110.37 77.2962 110.37C80.4758 110.37 83.3192 109.813 85.8262 108.701C88.3333 107.526 90.4429 105.919 92.155 103.879C93.9283 101.777 95.2735 99.3037 96.1908 96.4599C97.1691 93.6162 97.6583 90.4941 97.6583 87.0939C97.6583 83.6938 97.2609 80.6027 96.4659 77.8207C95.671 74.9769 94.4787 72.5349 92.8888 70.4949C91.2989 68.4548 89.2811 66.8783 86.8352 65.7656C84.3892 64.5909 81.4848 64.0036 78.1217 64.0036C76.3484 64.0036 74.8502 64.0036 73.6274 64.0036C72.4043 64.0036 71.2425 64.0036 70.1418 64.0036C69.1024 64.0036 67.8489 64.0036 66.3813 64.0036C66.0145 64.0036 65.7087 64.1581 65.4642 64.4673C65.2806 64.7146 65.1584 65.1164 65.0972 65.6728C65.0361 66.1674 65.0055 66.7856 65.0055 67.5274C65.0055 68.2693 65.0055 69.0729 65.0055 69.9384C65.0667 70.8039 65.0972 71.7314 65.0972 72.7204C65.0972 75.2552 65.0972 77.9444 65.0972 80.7882C65.0972 83.632 65.0972 86.6921 65.0972 89.9686C65.0972 93.1834 65.0972 96.6763 65.0972 100.447C65.0972 103.477 65.0972 105.795 65.0972 107.402C65.0972 109.01 65.0972 110.308 65.0972 111.297C65.0972 112.224 65.0972 113.183 65.0972 114.172C65.0972 115.717 64.6692 116.892 63.813 117.696C63.0183 118.499 62.0704 118.901 60.9698 118.901C59.8691 118.901 58.8907 118.499 58.0347 117.696C57.2398 116.892 56.8423 115.717 56.8423 114.172Z" fill="white"/>
<path d="M38.5605 114.3C38.5605 112.315 38.5605 110.511 38.5605 108.887C38.5605 107.263 38.5605 105.789 38.5605 104.466C38.5605 103.083 38.5605 101.82 38.5605 100.677C38.5605 97.79 38.5605 94.8428 38.5605 91.8354C38.5605 88.8282 38.5605 85.8208 38.5605 82.8136C38.5605 79.7462 38.5605 76.799 38.5605 73.9721C38.5605 72.5887 38.5605 71.2354 38.5605 69.9123C38.5605 68.529 38.5605 67.0554 38.5605 65.4916C38.5605 63.9277 38.5605 62.1536 38.5605 60.1687C38.5605 58.6651 39.0701 57.5523 40.0893 56.8305C41.1869 56.0487 42.4414 55.6577 43.8525 55.6577C45.2637 55.6577 46.4789 56.0487 47.4981 56.8305C48.5957 57.5523 49.1445 58.6651 49.1445 60.1687C49.1445 62.1536 49.1445 63.9277 49.1445 65.4916C49.1445 67.0554 49.1445 68.529 49.1445 69.9123C49.1445 71.2354 49.1445 72.5887 49.1445 73.9721C49.1445 76.799 49.1445 79.7462 49.1445 82.8136C49.1445 85.8208 49.1445 88.8282 49.1445 91.8354C49.1445 94.8428 49.1445 97.79 49.1445 100.677C49.1445 101.82 49.1445 103.083 49.1445 104.466C49.1445 105.789 49.1445 107.263 49.1445 108.887C49.1445 110.511 49.1445 112.315 49.1445 114.3C49.1445 115.864 48.5957 117.037 47.4981 117.818C46.4789 118.54 45.2637 118.901 43.8525 118.901C42.4414 118.901 41.1869 118.54 40.0893 117.818C39.0701 117.037 38.5605 115.864 38.5605 114.3Z" fill="white"/>
</g>
<defs>
<clipPath id="clip0_647_94">
<rect width="155" height="165" fill="white"/>
</clipPath>
</defs>
</svg>
