<svg version="1.2" xmlns="http://www.w3.org/2000/svg" viewBox="0 0 64 79" width="64" height="79">
	<title>5972733_21834</title>
	<style>
		.s0 { fill: #000000 } 
	</style>
	<g>
		<path class="s0" d="m33.8 37.3v-3.9c0-0.3-0.3-0.5-0.6-0.5-0.2-0.1-0.5 0.2-0.5 0.5v3.9c0 1.5 0.6 3 1.7 4.1l19.6 19.4q0.3-0.5 0.5-1l-19.3-19.1c-0.9-0.9-1.4-2.2-1.4-3.4z"/>
		<path class="s0" d="m22.2 70.4c-1.1-1-2.8-2.7-4.5-4.4-1.2-1.2-2.5-2.5-3.5-3.5 2 3.2 4.4 5.7 7 7.6q1 0.8 2.1 1.4-0.6-0.5-1.1-1 0 0 0-0.1z"/>
		<path class="s0" d="m34.9 3.8c4.5 0.2 9 1.6 13 3.9q-2.1-1.9-4.4-3.2c-2.8-1-5.6-1.6-8.5-1.8-0.3 0-0.6 0.2-0.6 0.5 0 0.3 0.2 0.6 0.5 0.6z"/>
		<path class="s0" d="m32.1 3.2c0-0.3-0.3-0.5-0.6-0.5q-3.5 0.2-6.8 1.2-2.3 1.1-4.4 2.9c3.4-1.7 7.3-2.8 11.3-3 0.3 0 0.5-0.3 0.5-0.6z"/>
		<path class="s0" d="m15.4 13.2l3-2.2c4.3-2.9 9.6-4.5 14.8-4.5 8.9 0 17.2 4.6 22.2 11.7q-1.1-2.5-2.6-4.7c-5.1-5-12.2-8.1-19.6-8.1-5.5 0-10.9 1.6-15.5 4.7l-2.2 1.7q-1.4 1.8-2.6 4 1.2-1.4 2.5-2.6z"/>
		<path class="s0" d="m11 54.4c-0.2-0.3-0.5-0.3-0.8-0.2q0 0 0 0.1 0.4 1 0.8 2.1 1.5 2.2 3.5 4.1 0 0 0 0l13.1 13.1q1.1 0.3 2.2 0.5l-14.6-14.4q-2.4-2.4-4.2-5.3z"/>
		<path class="s0" d="m24 64.4c-2.3-2.1-4.7-4.3-6.8-6.6q0 0 0 0-0.1 0-0.1 0c-5.1-5.2-8.1-12.2-8.1-19.5v-4.9c0-3.1 0.7-6.2 1.9-9.1 0.1-0.3 0-0.6-0.3-0.7-0.3-0.1-0.6 0-0.7 0.3q-0.6 1.4-1 2.9-0.7 3-0.9 6.2 0 0.2 0 0.4v4.9c0 7.5 3 14.9 8.4 20.2q0 0 0 0 0 0 0 0c2.2 2.3 4.5 4.5 6.8 6.7 3.2 2.9 6.4 5.9 9.3 9.3q0.5 0 1 0 0 0 0.1 0 0 0 0 0 0 0 0 0c0.1-0.2 0-0.3-0.1-0.5-2.9-3.5-6.3-6.6-9.5-9.6z"/>
		<path class="s0" d="m57 28.8q0 0 0 0 0 0.1 0 0.1 0.1 0.1 0.1 0.1 0 0 0 0l1.8 1.8q-0.1-0.9-0.2-1.8l-0.7-0.6q-0.4-1.9-1-3.8c-0.1-0.2-0.4-0.4-0.7-0.3-0.3 0.1-0.5 0.4-0.3 0.7q0.6 1.9 1 3.8z"/>
		<path class="s0" d="m50.9 16.1c-0.2 0.2-0.3 0.5 0 0.7q2.1 2.3 3.6 5c0.1 0.2 0.3 0.3 0.5 0.3q0.1 0 0.2 0c0.3-0.2 0.4-0.5 0.3-0.8q-1.6-2.8-3.9-5.2c-0.2-0.2-0.5-0.2-0.7 0z"/>
		<path class="s0" d="m48.5 14.7q0.2 0.1 0.4 0.1 0.2 0 0.4-0.2c0.2-0.3 0.1-0.6-0.1-0.8-4-3.3-9.1-5.3-14.2-5.6-0.3 0-0.6 0.2-0.6 0.5 0 0.3 0.2 0.5 0.5 0.6 4.9 0.3 9.7 2.2 13.6 5.4z"/>
		<path class="s0" d="m11.5 21.7q0.2 0.1 0.3 0.1c0.2 0 0.4-0.1 0.5-0.3 4.1-7.1 11.6-11.8 19.6-12.3 0.3 0 0.6-0.2 0.5-0.5 0-0.3-0.2-0.6-0.5-0.5-8.4 0.4-16.3 5.3-20.6 12.7-0.1 0.3 0 0.6 0.2 0.8z"/>
		<path class="s0" d="m28.2 65.6c-0.2 0.2-0.2 0.6 0 0.8q3.8 4 7.8 8 0.6-0.1 1.3-0.3-4.2-4.2-8.3-8.5c-0.2-0.2-0.6-0.2-0.8 0z"/>
		<path class="s0" d="m33.2 10.9c-12.4 0-22.5 10.1-22.5 22.5v4.9c0 6.8 2.8 13.5 7.6 18.3l7.3 7.3q0.2 0.1 0.4 0.1 0.2 0 0.4-0.2c0.2-0.2 0.2-0.5 0-0.7l-7.3-7.3c-4.7-4.6-7.3-11-7.3-17.5v-4.9c0-11.8 9.6-21.5 21.4-21.5 10.7 0 19.6 7.7 21.2 18.2q0.1 0 0.1 0 0 0.1 0 0.1 0 0.1 0.1 0.1 0 0.1 0 0.1l4.7 4.6q-0.1-0.8-0.1-1.6l-3.7-3.7c-1.8-10.9-11.1-18.8-22.3-18.8z"/>
		<path class="s0" d="m54.1 32.2c-0.2-0.2-0.6-0.2-0.8 0-0.2 0.2-0.2 0.6 0.1 0.8q2.5 2.4 5 4.8 0.1 0.2 0.3 0.2 0.3 0 0.4-0.2c0.2-0.2 0.2-0.5 0-0.7q-2.5-2.5-5-4.9z"/>
		<path class="s0" d="m51.7 30c0 0.2 0.2 0.4 0.5 0.4q0 0 0.1 0c0.3 0 0.5-0.3 0.4-0.6-1.1-6.1-5.1-11.4-10.7-14.2-0.2-0.1-0.6 0-0.7 0.3-0.1 0.3 0 0.6 0.3 0.7 5.2 2.6 9 7.6 10.1 13.4z"/>
		<path class="s0" d="m21.5 18.9c3.3-2.7 7.5-4.2 11.7-4.2q2.8 0 5.4 0.8 0.1 0 0.2 0c0.2 0 0.4-0.2 0.5-0.4 0.1-0.3-0.1-0.6-0.3-0.7q-2.8-0.8-5.8-0.8c-4.5 0-8.9 1.6-12.4 4.4-0.2 0.2-0.3 0.5-0.1 0.8q0.2 0.2 0.4 0.2 0.2 0 0.4-0.1z"/>
		<path class="s0" d="m15.4 27.7c0.7-2.3 1.9-4.5 3.5-6.3 0.2-0.2 0.1-0.6-0.1-0.8-0.2-0.2-0.6-0.1-0.7 0.1-1.7 2-3 4.3-3.7 6.7-0.1 0.3 0 0.6 0.3 0.7q0.1 0 0.2 0c0.2 0 0.4-0.1 0.5-0.4z"/>
		<path class="s0" d="m14.7 31.1c0-0.3-0.2-0.6-0.5-0.6-0.3 0-0.6 0.2-0.6 0.5q-0.2 1.2-0.2 2.4v4.9q0 1.8 0.3 3.6c0.1 0.2 0.3 0.4 0.5 0.4q0.1 0 0.1 0c0.3 0 0.5-0.3 0.5-0.6q-0.3-1.7-0.3-3.4v-4.9q0-1.2 0.2-2.3z"/>
		<path class="s0" d="m15.6 45c-0.1-0.3-0.4-0.5-0.7-0.4-0.3 0.1-0.5 0.4-0.4 0.7 1.2 3.5 3.1 6.8 5.7 9.3l19.2 19q0.5-0.2 1.1-0.4l-19.5-19.3c-2.5-2.5-4.4-5.6-5.4-8.9z"/>
		<path class="s0" d="m23.2 52.9c-0.2 0.2-0.2 0.6 0 0.8l18.9 18.8q0.5-0.3 1-0.6l-19.2-19c-0.2-0.2-0.5-0.2-0.7 0z"/>
		<path class="s0" d="m47.1 23.5c-0.1-0.3-0.5-0.3-0.7-0.1-0.3 0.1-0.3 0.5-0.1 0.7 1.7 2.5 2.7 5.4 2.9 8.4q0 0.1 0 0.1 0 0.1 0.1 0.1 0 0.1 0 0.2 0.1 0 0.1 0l9.8 9.7q0-0.7 0.1-1.4l-9-8.9c-0.2-3.2-1.3-6.2-3.2-8.8z"/>
		<path class="s0" d="m33.2 16.3q0 0 0 0c-9.4 0-17 7.7-17 17.1v4.9c0 4.7 1.6 9.3 4.6 13q0.2 0.1 0.5 0.2 0.1 0 0.3-0.2c0.2-0.2 0.3-0.5 0.1-0.7-2.9-3.5-4.4-7.8-4.4-12.3v-4.9c0-8.8 7.1-16 15.9-16q0 0 0 0c4 0 7.9 1.5 10.8 4.2q0.2 0.2 0.4 0.2 0.2 0 0.4-0.2c0.2-0.2 0.2-0.6 0-0.8-3.1-2.8-7.3-4.5-11.6-4.5z"/>
		<path class="s0" d="m48.1 34.8c-0.2 0.2-0.2 0.5 0 0.7q5.3 5.4 10.7 10.7 0.1-0.6 0.2-1.3-5.1-5.1-10.1-10.1c-0.2-0.2-0.5-0.2-0.8 0z"/>
		<path class="s0" d="m33.2 19.1q-1.3 0-2.7 0.2c-0.3 0.1-0.5 0.4-0.4 0.7 0 0.2 0.3 0.4 0.5 0.4q0.1 0 0.1 0 1.3-0.2 2.5-0.2 0 0 0 0c7 0 12.9 5.6 13.3 12.6 0 0.3 0.2 0.5 0.5 0.5q0 0 0 0c0.3 0 0.6-0.3 0.6-0.6-0.4-7.5-6.8-13.6-14.4-13.6z"/>
		<path class="s0" d="m20 38.3v-4.9c0-5.1 3-9.8 7.5-12 0.3-0.1 0.4-0.4 0.3-0.7-0.1-0.2-0.5-0.4-0.7-0.2-5 2.3-8.2 7.4-8.2 12.9v4.9c0 4.6 1.9 9.2 5.2 12.5l20.5 20.3q0.4-0.3 0.9-0.7l-20.6-20.4c-3.1-3.1-4.9-7.3-4.9-11.7z"/>
		<path class="s0" d="m35.7 57.6c-0.2 0.2-0.3 0.6 0 0.8q5.4 5.6 11 11.1 0.4-0.3 0.8-0.7-5.6-5.6-11.1-11.2c-0.2-0.2-0.5-0.2-0.7 0z"/>
		<path class="s0" d="m54 44.4c-0.2 0.3-0.2 0.6 0 0.8q2.2 2 4.3 4 0.1-0.6 0.2-1.3-1.8-1.7-3.7-3.5c-0.2-0.2-0.6-0.2-0.8 0z"/>
		<path class="s0" d="m43.8 34.8q0 0.1 0 0.2 0 0.1 0.1 0.2 0 0 0 0l7.7 7.6q0.2 0.2 0.4 0.2 0.2 0 0.4-0.2c0.2-0.2 0.2-0.6 0-0.8l-7.6-7.4v-1.2c0-6.4-5.2-11.6-11.6-11.6q0 0 0 0c-3.9 0-7.7 2.1-9.8 5.5-0.2 0.2-0.1 0.6 0.2 0.7q0.1 0.1 0.3 0.1c0.1 0 0.3-0.1 0.4-0.3 1.9-3 5.4-4.9 8.9-4.9q0 0 0 0c0.3 0 0.6-0.3 0.6-0.6 0 0.3-0.3 0.6-0.6 0.6 5.8 0 10.6 4.7 10.6 10.5z"/>
		<path class="s0" d="m23 30.9c0.1-0.3-0.1-0.6-0.4-0.6-0.3-0.1-0.6 0.1-0.6 0.4q-0.4 1.3-0.4 2.7v4.9q0 1.8 0.5 3.6c0.1 0.2 0.3 0.4 0.5 0.4q0.1 0 0.2 0c0.2-0.1 0.4-0.4 0.3-0.7q-0.4-1.6-0.4-3.3v-4.9q0-1.3 0.3-2.5z"/>
		<path class="s0" d="m23.6 44.5c-0.3 0.2-0.4 0.5-0.2 0.8q1 1.9 2.6 3.5l7.3 7.3q0.2 0.1 0.4 0.1 0.2 0 0.4-0.1c0.2-0.2 0.2-0.6 0-0.8l-7.3-7.3q-1.5-1.4-2.5-3.2c-0.1-0.3-0.4-0.4-0.7-0.3z"/>
		<path class="s0" d="m42.1 33.4c0-4.9-4-8.9-8.9-8.9-4.8 0-8.8 4-8.8 8.9v4.9c0 3.2 1.3 6.3 3.5 8.6q0.1 0 0.1 0 0 0 0 0c4.2 3.6 8.1 7.6 11.8 11.6 2.8 2.9 5.7 5.9 8.7 8.7q0.1 0.2 0.3 0.2 0.3 0 0.4-0.2c0.2-0.2 0.2-0.6 0-0.8-3-2.8-5.8-5.8-8.6-8.7-3.8-3.9-7.7-8-11.9-11.6-2.1-2.1-3.2-4.9-3.2-7.8v-4.9c0-4.3 3.5-7.8 7.7-7.8 4.3 0 7.8 3.5 7.8 7.8v2.6q0 0.1 0.1 0.2 0 0.1 0.1 0.2 0 0 0 0l16.3 16.1q0.2-0.6 0.3-1.2l-15.7-15.6c0 0 0-2.3 0-2.3z"/>
		<path class="s0" d="m31.1 45.4c-0.2 0.2-0.2 0.5 0 0.8 6.5 6.5 13.1 13 19.6 19.4q0.3-0.4 0.7-0.9c-6.5-6.3-13-12.8-19.5-19.3-0.2-0.2-0.6-0.2-0.8 0z"/>
		<path class="s0" d="m51.4 49.5c-0.2 0.2-0.2 0.6 0 0.8q2.5 2.6 5.1 5.1 0.2-0.5 0.4-1.1-2.4-2.4-4.7-4.8c-0.2-0.2-0.6-0.2-0.8 0z"/>
		<path class="s0" d="m37.6 29.1c-0.2-0.2-0.6-0.2-0.8 0-0.2 0.2-0.2 0.5 0 0.7 0.9 1 1.5 2.3 1.5 3.6v3.3c0 0.4 0.1 0.8 0.4 1.1l10.3 10.1q0.1 0.2 0.4 0.2 0.2 0 0.3-0.2c0.2-0.2 0.2-0.6 0-0.8l-10.2-10.1q-0.1-0.1-0.1-0.3v-3.3c0-1.6-0.7-3.2-1.8-4.3z"/>
		<path class="s0" d="m33.2 28.4c0.3 0 0.6-0.3 0.6-0.6 0-0.3-0.3-0.5-0.6-0.5-3.3 0-6.1 2.7-6.1 6.1v4.9c0 1.9 0.6 3.8 1.7 5.4q0.2 0.2 0.5 0.2 0.1 0 0.3-0.1c0.2-0.2 0.3-0.5 0.1-0.7-1-1.4-1.5-3.1-1.5-4.8v-4.9c0-2.8 2.3-5 5-5z"/>
		<path class="s0" d="m42.1 52.4c-0.2 0.2-0.2 0.6 0 0.8q5 5.2 10.2 10.3 0.3-0.4 0.6-0.9-5.1-5-10-10.2c-0.2-0.2-0.6-0.2-0.8 0z"/>
		<path class="s0" d="m37.6 39c-0.6-0.6-1-1.4-1-2.3v-3.3c0-1.9-1.5-3.4-3.4-3.4-1.8 0-3.3 1.5-3.3 3.4v4.9c0 1.8 0.7 3.5 1.9 4.7l8.1 8q0.1 0.1 0.3 0.1 0.3 0 0.4-0.1c0.2-0.2 0.2-0.6 0-0.8l-8-8c-1.1-1-1.7-2.4-1.7-3.9v-4.9c0-1.3 1.1-2.3 2.3-2.3 1.3 0 2.3 1 2.3 2.3v3.3c0 1.1 0.5 2.2 1.3 3l17.3 17.1q0.2 0.2 0.4 0.2 0.2 0 0.4-0.2c0.2-0.2 0.2-0.6 0-0.8z"/>
	</g>
</svg>