<svg width="281" height="303" viewBox="0 0 281 303" fill="none" xmlns="http://www.w3.org/2000/svg">
<path d="M120.38 239.501C120.944 239.567 121.445 239.88 121.749 240.356L132.306 256.86C130.186 255.943 128.068 254.951 125.952 253.88L119.072 243.124C114.313 242.551 109.614 241.656 104.989 240.509C102.555 238.618 100.14 236.636 97.7534 234.518C105.078 236.922 112.648 238.631 120.38 239.501Z" fill="url(#paint0_linear_61_525)" fill-opacity="0.05"/>
<path d="M125.725 230.582C126.315 230.624 126.853 230.945 127.172 231.444L146.68 261.942C144.845 261.439 143.01 260.895 141.168 260.277L124.52 234.25C111.599 233.222 99.1066 229.87 87.577 224.554C85.2688 222.089 82.9915 219.518 80.759 216.812C94.36 224.621 109.71 229.454 125.725 230.582Z" fill="url(#paint1_linear_61_525)" fill-opacity="0.05"/>
<path d="M129.969 221.896C130.841 221.338 131.998 221.593 132.556 222.465L159.494 264.579C157.847 264.355 156.188 264.081 154.525 263.763L129.401 224.483C128.843 223.611 129.097 222.454 129.969 221.896Z" fill="url(#paint2_linear_61_525)" fill-opacity="0.05"/>
<path d="M39.6052 108.137C40.1032 99.1875 41.6333 90.766 44.073 83.0407C51.7624 67.2478 63.7394 53.3071 79.5906 43.1681C86.6894 38.6274 94.1557 35.1175 101.811 32.5841C107.422 31.8924 113.291 31.7962 119.331 32.3342C106.283 34.1911 93.418 38.7703 81.612 46.3219C58.8749 60.8654 44.4371 83.5394 39.6052 108.137Z" fill="url(#paint3_linear_61_525)" fill-opacity="0.05"/>
<path d="M64.8953 194.432C63.9793 193 63.1276 191.572 62.2634 190.144C77.2102 206.656 97.693 217.527 120.356 220.608C121.379 220.748 122.101 221.691 121.958 222.72C121.821 223.74 120.875 224.465 119.848 224.324C101.492 221.829 84.5124 214.397 70.5546 203.113C69.6559 201.785 68.7532 200.464 67.8727 199.087C67.3764 198.311 66.8861 197.532 66.3986 196.75C65.8936 195.98 65.3915 195.208 64.8953 194.432Z" fill="url(#paint4_linear_61_525)" fill-opacity="0.05"/>
<path d="M100.407 47.0706C99.4464 47.4635 98.3563 47.0058 97.9624 46.0495C97.5696 45.0884 98.0497 43.9757 98.9835 43.6045C113.411 37.6969 128.605 35.873 143.237 37.59C149.049 39.6219 154.895 42.2076 160.715 45.4018C141.615 38.8327 120.258 38.9436 100.407 47.0706Z" fill="url(#paint5_linear_61_525)" fill-opacity="0.05"/>
<path d="M58.2849 175.885C57.7126 175.022 57.9478 173.861 58.8105 173.289C59.6355 172.831 60.8346 172.951 61.407 173.814C77.7029 198.353 106.259 213.011 135.938 212.065C136.597 212.046 137.22 212.371 137.576 212.928L171.131 265.388C169.631 265.382 168.119 265.338 166.597 265.251L134.991 215.839C104.41 216.442 75.0961 201.204 58.2849 175.885Z" fill="url(#paint6_linear_61_525)" fill-opacity="0.05"/>
<path d="M47.7892 105.593C48.8 105.818 49.437 106.82 49.2123 107.831C44.7275 127.997 47.6351 149.062 57.4056 167.139C57.8712 168.008 57.5848 169.083 56.7682 169.605C56.7274 169.631 56.6894 169.656 56.6467 169.679C55.7347 170.168 54.603 169.831 54.1065 168.92C43.9093 150.048 40.8732 128.063 45.5543 107.014C45.7771 106 46.7823 105.362 47.7892 105.593Z" fill="url(#paint7_linear_61_525)" fill-opacity="0.05"/>
<path d="M87.8481 49.098C88.7443 48.5781 89.8882 48.8822 90.412 49.7718C90.93 50.6652 90.7335 51.6622 89.7353 52.3376C88.7011 52.9375 87.6761 53.5644 86.6611 54.2136C71.3057 64.0355 59.6904 78.201 53.0648 95.1752C52.9154 95.5585 52.6551 95.8647 52.3314 96.0718C51.8443 96.3834 51.2224 96.4647 50.638 96.2385C49.6751 95.8639 49.1972 94.7764 49.5747 93.8116C56.4861 76.0956 68.6135 61.3107 84.6426 51.0579C85.7013 50.3807 86.7691 49.7306 87.8481 49.098Z" fill="url(#paint8_linear_61_525)" fill-opacity="0.05"/>
<path d="M208.942 100.2C209.814 99.6424 210.971 99.8967 211.529 100.769L235.708 138.57C237.265 143.003 238.592 147.39 239.673 151.721L208.373 102.787C207.815 101.915 208.073 100.756 208.942 100.2Z" fill="url(#paint9_linear_61_525)" fill-opacity="0.05"/>
<path d="M142.893 207.33C143.765 206.772 144.922 207.026 145.48 207.898L181.835 264.736C180.46 264.917 179.069 265.063 177.667 265.171L142.324 209.917C141.766 209.045 142.021 207.887 142.893 207.33Z" fill="url(#paint10_linear_61_525)" fill-opacity="0.05"/>
<path d="M65.3776 169.599C41.5753 132.386 52.4864 82.7517 89.6922 58.9535C126.904 35.1515 176.54 46.0584 200.342 83.2706L205.474 91.294C206.032 92.1661 205.777 93.3233 204.905 93.8811C204.033 94.4389 202.876 94.1845 202.318 93.3125L197.186 85.2891C174.499 49.821 127.181 39.4209 91.7107 62.1092C56.2431 84.7956 45.8447 132.109 68.5332 167.58C82.7187 189.758 108.05 203.223 134.645 202.729C135.68 202.709 136.532 203.533 136.552 204.567C136.564 205.242 136.22 205.84 135.686 206.182C135.406 206.361 135.077 206.469 134.714 206.474C106.825 206.995 80.257 192.861 65.3776 169.599Z" fill="url(#paint11_linear_61_525)" fill-opacity="0.05"/>
<path d="M164.752 224.119C165.624 223.561 166.781 223.815 167.339 224.687L191.686 262.751C190.421 263.1 189.137 263.411 187.84 263.69L164.183 226.706C163.625 225.834 163.88 224.676 164.752 224.119Z" fill="url(#paint12_linear_61_525)" fill-opacity="0.05"/>
<path d="M131.946 59.4678C130.912 59.4838 130.064 58.6533 130.051 57.6177C130.035 56.5841 130.864 55.7335 131.901 55.7234C156.57 55.4303 179.202 67.6184 192.443 88.32L242.512 166.597C242.887 169.386 243.174 172.149 243.356 174.869L189.289 90.3414C176.748 70.7335 155.311 59.1943 131.946 59.4678Z" fill="url(#paint13_linear_61_525)" fill-opacity="0.05"/>
<path d="M74.4585 166.355C73.8744 165.499 74.0934 164.332 74.9457 163.75C74.9632 163.739 74.9807 163.727 74.9953 163.718C75.844 163.175 76.9778 163.399 77.5507 164.237C92.5196 186.123 119.081 197.129 145.217 192.269C145.967 192.13 146.727 192.458 147.139 193.102L163.302 218.371C163.86 219.243 163.606 220.4 162.734 220.958C161.861 221.516 160.704 221.262 160.146 220.39L144.657 196.174C117.47 200.728 90.0263 189.119 74.4585 166.355Z" fill="url(#paint14_linear_61_525)" fill-opacity="0.05"/>
<path d="M73.7492 161.593C73.7171 161.613 73.688 161.632 73.6511 161.651C72.7484 162.155 71.6106 161.835 71.1024 160.931C65.84 151.528 62.8605 141.305 62.2489 130.551C62.1896 129.52 62.9794 128.641 64.014 128.575C65.0495 128.517 65.9334 129.308 65.9897 130.34C66.5652 140.518 69.3859 150.197 74.3687 159.105C74.8593 159.974 74.5775 161.063 73.7492 161.593Z" fill="url(#paint15_linear_61_525)" fill-opacity="0.05"/>
<path d="M94.7384 66.8468C102.593 61.823 111.194 58.4499 120.303 56.8199C121.32 56.6375 122.294 57.3177 122.476 58.3353C122.657 59.35 121.973 60.3378 120.961 60.5088C112.338 62.05 104.197 65.2436 96.7569 70.0025C79.7654 80.8709 68.681 98.6423 66.3349 118.76C66.2701 119.34 65.9372 119.828 65.4823 120.119C65.1294 120.345 64.7019 120.454 64.2543 120.403C63.2299 120.286 62.4898 119.354 62.6111 118.323C65.085 97.0874 76.7961 78.3234 94.7384 66.8468Z" fill="url(#paint16_linear_61_525)" fill-opacity="0.05"/>
<path d="M172.04 81.6171C172.744 80.8545 173.931 80.8223 174.689 81.5252C178.451 85.029 181.771 89.0123 184.557 93.3667L200.124 117.705C200.682 118.577 200.428 119.735 199.556 120.292C198.684 120.85 197.527 120.596 196.969 119.724L181.401 95.3851C178.787 91.2991 175.667 87.5578 172.136 84.2678C171.377 83.5619 171.334 82.3769 172.04 81.6171Z" fill="url(#paint17_linear_61_525)" fill-opacity="0.05"/>
<path d="M202.243 124.504C203.115 123.946 204.273 124.2 204.831 125.072L243.596 185.678C243.544 187.845 243.421 189.978 243.248 192.086L201.675 127.091C201.117 126.219 201.374 125.06 202.243 124.504Z" fill="url(#paint18_linear_61_525)" fill-opacity="0.05"/>
<path d="M112.053 184.087C111.079 183.74 110.573 182.666 110.925 181.689C111.273 180.71 112.349 180.207 113.324 180.562C124.895 184.729 137.684 185.114 149.333 181.653C150.135 181.416 150.997 181.736 151.448 182.442L200.752 259.523C199.595 260.033 198.417 260.511 197.221 260.955L149.042 185.632C137 188.901 123.922 188.36 112.053 184.087Z" fill="url(#paint19_linear_61_525)" fill-opacity="0.05"/>
<path d="M85.6756 87.1839C86.3381 86.3821 87.5146 86.2747 88.3154 86.942C89.1107 87.6006 89.2218 88.783 88.5574 89.5819C72.4445 108.975 70.7404 136.265 84.314 157.486C89.7707 166.017 97.4478 172.975 106.517 177.613C107.439 178.084 107.805 179.214 107.335 180.131C107.179 180.44 106.948 180.683 106.677 180.856C106.134 181.203 105.427 181.261 104.812 180.948C95.1516 176.01 86.9732 168.595 81.1584 159.504C66.7035 136.899 68.5188 107.837 85.6756 87.1839Z" fill="url(#paint20_linear_61_525)" fill-opacity="0.05"/>
<path d="M101.807 77.8935C100.314 78.8486 98.8516 79.8783 97.4635 80.9594C96.6234 81.657 95.4633 81.4496 94.8334 80.6319C94.1988 79.8132 94.345 78.6347 95.1608 78.0019C96.6395 76.8505 98.1989 75.7545 99.7884 74.7378C120.484 61.5002 147.012 61.8792 167.381 75.7002C168.238 76.2821 168.462 77.4494 167.882 78.3018C167.733 78.5199 167.547 78.6969 167.339 78.8294C166.727 79.2211 165.919 79.2365 165.28 78.8028C146.151 65.8206 121.237 65.4655 101.807 77.8935Z" fill="url(#paint21_linear_61_525)" fill-opacity="0.05"/>
<path d="M143.855 77.5174C144.117 76.5197 145.147 75.9188 146.146 76.1836C158.792 79.5245 169.629 87.4207 176.66 98.4132L222.688 170.373C223.246 171.245 222.992 172.402 222.12 172.96C221.248 173.518 220.091 173.264 219.533 172.392L173.506 100.435C166.983 90.2354 156.925 82.909 145.189 79.8083C144.187 79.5453 143.591 78.517 143.855 77.5174Z" fill="url(#paint22_linear_61_525)" fill-opacity="0.05"/>
<path d="M225.992 179.018C226.864 178.46 228.021 178.714 228.579 179.586L242.188 200.862C241.889 202.669 241.539 204.442 241.152 206.194L225.425 181.608C224.866 180.733 225.12 179.575 225.992 179.018Z" fill="url(#paint23_linear_61_525)" fill-opacity="0.05"/>
<path d="M152.674 170.459C153.546 169.901 154.703 170.156 155.261 171.028L209.036 255.1C207.993 255.775 206.923 256.423 205.825 257.031L152.105 173.046C151.547 172.174 151.805 171.015 152.674 170.459Z" fill="url(#paint24_linear_61_525)" fill-opacity="0.05"/>
<path d="M146.464 176.631C124.422 182.592 101.35 173.681 89.0529 154.455C73.6026 130.3 80.6811 98.0806 104.836 82.6305C113.305 77.2131 123.088 74.3829 133.127 74.4512C134.163 74.4584 134.995 75.303 134.988 76.3391C134.982 77.3705 134.136 78.2073 133.1 78.2001C123.788 78.1359 114.711 80.7606 106.854 85.7862C84.4437 100.121 77.8719 130.023 92.2085 152.437C103.618 170.274 125.031 178.545 145.481 173.013C146.48 172.744 147.511 173.334 147.783 174.331C148.001 175.141 147.656 175.97 146.983 176.401C146.826 176.497 146.651 176.577 146.464 176.631Z" fill="url(#paint25_linear_61_525)" fill-opacity="0.05"/>
<path d="M111.904 93.6783C99.871 101.375 93.0468 115.045 94.0915 129.349C94.167 130.385 93.3818 131.278 92.3604 131.352C91.3285 131.428 90.4337 130.653 90.3572 129.621C89.2078 113.946 96.6917 98.9621 109.886 90.5226C129.689 77.8558 156.103 83.6589 168.77 103.462L195.108 144.638C195.665 145.51 195.411 146.667 194.539 147.225C193.667 147.783 192.51 147.528 191.952 146.656L165.616 105.484C154.058 87.4204 129.966 82.1252 111.904 93.6783Z" fill="url(#paint26_linear_61_525)" fill-opacity="0.05"/>
<path d="M192.134 214.763C193.006 214.205 194.163 214.459 194.721 215.331L216.613 249.557C215.653 250.376 214.671 251.16 213.673 251.914L191.565 217.35C191.007 216.478 191.262 215.32 192.134 214.763Z" fill="url(#paint27_linear_61_525)" fill-opacity="0.05"/>
<path d="M200.763 156.967C201.636 156.409 202.793 156.663 203.351 157.535L239.208 213.594C238.735 215.142 238.225 216.664 237.681 218.159L200.195 159.554C199.637 158.682 199.891 157.525 200.763 156.967Z" fill="url(#paint28_linear_61_525)" fill-opacity="0.05"/>
<path d="M96.9447 149.407C94.7247 145.937 93.0248 142.187 91.8978 138.259C91.6103 137.264 92.1736 136.217 93.1815 135.942C94.1742 135.657 95.2159 136.231 95.4986 137.226C96.5247 140.803 98.0763 144.224 100.1 147.389C111.654 165.451 135.745 170.746 153.807 159.193C154.44 158.788 155.056 158.37 155.658 157.935C156.065 157.609 156.602 157.516 157.105 157.614C157.607 157.712 158.054 158.013 158.332 158.448L187.649 204.282C188.207 205.154 187.953 206.311 187.081 206.869C186.209 207.426 185.051 207.172 184.494 206.3L156.22 162.097C156.088 162.181 155.954 162.267 155.823 162.351C136.023 175.015 109.612 169.211 96.9447 149.407Z" fill="url(#paint29_linear_61_525)" fill-opacity="0.05"/>
<path d="M104.841 144.356C94.9596 128.907 99.4912 108.299 114.937 98.4193C117.929 96.5053 121.178 95.0889 124.594 94.2153C125.592 93.9586 126.615 94.5619 126.873 95.5685C127.133 96.5655 126.535 97.5847 125.52 97.8478C122.497 98.6222 119.612 99.8756 116.955 101.575C103.248 110.343 99.229 128.629 107.997 142.337C116.767 156.048 135.053 160.067 148.761 151.299C151.981 149.24 154.714 146.645 156.897 143.58C157.262 143.071 157.845 142.776 158.47 142.796C159.093 142.812 159.666 143.136 160 143.658L223.406 242.786C222.553 243.766 221.678 244.717 220.782 245.635L158.273 147.911C156.136 150.441 153.623 152.636 150.779 154.455C135.331 164.336 114.725 159.808 104.841 144.356Z" fill="url(#paint30_linear_61_525)" fill-opacity="0.05"/>
<path d="M135.144 97.0225C134.11 96.9405 133.34 96.0394 133.421 95.0095C133.503 93.9748 134.41 93.2016 135.436 93.2892C145.944 94.1175 155.216 99.6695 160.874 108.515L167.859 119.435C168.417 120.307 168.162 121.464 167.29 122.022C166.418 122.58 165.261 122.325 164.703 121.453L157.719 110.534C152.697 102.683 144.469 97.7611 135.144 97.0225Z" fill="url(#paint31_linear_61_525)" fill-opacity="0.05"/>
<path d="M172.005 129.388C172.877 128.83 174.034 129.084 174.592 129.956L235.063 224.496C234.45 225.838 233.805 227.15 233.135 228.434L171.436 131.975C170.878 131.103 171.133 129.945 172.005 129.388Z" fill="url(#paint32_linear_61_525)" fill-opacity="0.05"/>
<path d="M191.313 177.839C192.185 177.281 193.343 177.535 193.9 178.407L229.707 234.388C228.968 235.539 228.201 236.658 227.414 237.754L190.745 180.426C190.187 179.554 190.444 178.395 191.313 177.839Z" fill="url(#paint33_linear_61_525)" fill-opacity="0.05"/>
<path d="M122.253 109.86C113.115 115.704 110.435 127.899 116.282 137.039C116.996 138.156 117.825 139.2 118.735 140.143C119.457 140.885 119.439 142.072 118.697 142.793C117.952 143.525 116.766 143.494 116.046 142.755C114.959 141.634 113.976 140.392 113.123 139.059C106.165 128.181 109.353 113.664 120.231 106.706C131.11 99.7477 145.626 102.936 152.587 113.817L189.696 171.833C190.253 172.705 189.999 173.863 189.127 174.42C188.255 174.978 187.098 174.724 186.54 173.852L149.431 115.836C143.584 106.695 131.393 104.013 122.253 109.86Z" fill="url(#paint34_linear_61_525)" fill-opacity="0.05"/>
<path d="M126.345 148.939C125.352 148.646 124.777 147.612 125.064 146.615C125.358 145.617 126.39 145.051 127.388 145.333C132.83 146.908 138.69 146.065 143.461 143.013C146.952 140.78 149.605 137.571 151.135 133.736C151.51 132.781 152.605 132.302 153.568 132.69C154.53 133.069 154.997 134.159 154.615 135.123C152.801 139.69 149.64 143.512 145.484 146.17C139.799 149.798 132.821 150.814 126.345 148.939Z" fill="url(#paint35_linear_61_525)" fill-opacity="0.05"/>
<path d="M133.107 115.042C133.295 114.026 134.277 113.357 135.295 113.548C138.833 114.215 141.971 116.339 143.907 119.366C147.806 125.462 146.02 133.586 139.925 137.485C133.832 141.382 125.707 139.597 121.809 133.501C118.21 127.875 119.4 120.464 124.578 116.256C125.368 115.627 126.564 115.73 127.215 116.53C127.866 117.334 127.744 118.513 126.939 119.168C123.242 122.166 122.394 127.463 124.962 131.48C127.746 135.831 133.553 137.11 137.904 134.327C142.256 131.543 143.533 125.733 140.749 121.382C139.345 119.185 137.159 117.715 134.594 117.226C133.58 117.041 132.915 116.06 133.107 115.042Z" fill="url(#paint36_linear_61_525)" fill-opacity="0.05"/>
<path d="M130.555 127.908C129.742 126.637 130.114 124.944 131.385 124.131C132.657 123.317 134.347 123.691 135.16 124.963C135.974 126.234 135.6 127.924 134.331 128.736C133.057 129.551 131.369 129.18 130.555 127.908Z" fill="url(#paint37_linear_61_525)" fill-opacity="0.05"/>
<defs>
<linearGradient id="paint0_linear_61_525" x1="104.943" y1="229.919" x2="125.116" y2="261.459" gradientUnits="userSpaceOnUse">
<stop stop-color="#FD9F41"/>
<stop offset="1" stop-color="#EEC033"/>
</linearGradient>
<linearGradient id="paint1_linear_61_525" x1="93.9066" y1="208.402" x2="133.532" y2="270.352" gradientUnits="userSpaceOnUse">
<stop stop-color="#FD9F41"/>
<stop offset="1" stop-color="#EEC033"/>
</linearGradient>
<linearGradient id="paint2_linear_61_525" x1="129.969" y1="221.896" x2="157.917" y2="265.589" gradientUnits="userSpaceOnUse">
<stop stop-color="#FD9F41"/>
<stop offset="1" stop-color="#EEC033"/>
</linearGradient>
<linearGradient id="paint3_linear_61_525" x1="67.2173" y1="51.0825" x2="85.0984" y2="79.0375" gradientUnits="userSpaceOnUse">
<stop stop-color="#FD9F41"/>
<stop offset="1" stop-color="#EEC033"/>
</linearGradient>
<linearGradient id="paint4_linear_61_525" x1="76.2007" y1="181.229" x2="108.675" y2="232" gradientUnits="userSpaceOnUse">
<stop stop-color="#FD9F41"/>
<stop offset="1" stop-color="#EEC033"/>
</linearGradient>
<linearGradient id="paint5_linear_61_525" x1="119.532" y1="30.4226" x2="138.289" y2="59.7463" gradientUnits="userSpaceOnUse">
<stop stop-color="#FD9F41"/>
<stop offset="1" stop-color="#EEC033"/>
</linearGradient>
<linearGradient id="paint6_linear_61_525" x1="76.986" y1="161.663" x2="151.404" y2="278.007" gradientUnits="userSpaceOnUse">
<stop stop-color="#FD9F41"/>
<stop offset="1" stop-color="#EEC033"/>
</linearGradient>
<linearGradient id="paint7_linear_61_525" x1="35.5866" y1="112.739" x2="67.5494" y2="162.709" gradientUnits="userSpaceOnUse">
<stop stop-color="#FD9F41"/>
<stop offset="1" stop-color="#EEC033"/>
</linearGradient>
<linearGradient id="paint8_linear_61_525" x1="64.5108" y1="63.935" x2="75.5621" y2="81.2126" gradientUnits="userSpaceOnUse">
<stop stop-color="#FD9F41"/>
<stop offset="1" stop-color="#EEC033"/>
</linearGradient>
<linearGradient id="paint9_linear_61_525" x1="208.942" y1="100.2" x2="241.251" y2="150.712" gradientUnits="userSpaceOnUse">
<stop stop-color="#FD9F41"/>
<stop offset="1" stop-color="#EEC033"/>
</linearGradient>
<linearGradient id="paint10_linear_61_525" x1="142.893" y1="207.33" x2="180.258" y2="265.745" gradientUnits="userSpaceOnUse">
<stop stop-color="#FD9F41"/>
<stop offset="1" stop-color="#EEC033"/>
</linearGradient>
<linearGradient id="paint11_linear_61_525" x1="89.6951" y1="58.9516" x2="169.879" y2="184.311" gradientUnits="userSpaceOnUse">
<stop stop-color="#FD9F41"/>
<stop offset="1" stop-color="#EEC033"/>
</linearGradient>
<linearGradient id="paint12_linear_61_525" x1="164.752" y1="224.119" x2="190.108" y2="263.76" gradientUnits="userSpaceOnUse">
<stop stop-color="#FD9F41"/>
<stop offset="1" stop-color="#EEC033"/>
</linearGradient>
<linearGradient id="paint13_linear_61_525" x1="144.625" y1="47.2457" x2="231.222" y2="182.63" gradientUnits="userSpaceOnUse">
<stop stop-color="#FD9F41"/>
<stop offset="1" stop-color="#EEC033"/>
</linearGradient>
<linearGradient id="paint14_linear_61_525" x1="93.1356" y1="152.115" x2="144.592" y2="232.562" gradientUnits="userSpaceOnUse">
<stop stop-color="#FD9F41"/>
<stop offset="1" stop-color="#EEC033"/>
</linearGradient>
<linearGradient id="paint15_linear_61_525" x1="59.4584" y1="131.206" x2="77.4008" y2="159.257" gradientUnits="userSpaceOnUse">
<stop stop-color="#FD9F41"/>
<stop offset="1" stop-color="#EEC033"/>
</linearGradient>
<linearGradient id="paint16_linear_61_525" x1="83.3108" y1="74.1563" x2="98.9981" y2="98.6815" gradientUnits="userSpaceOnUse">
<stop stop-color="#FD9F41"/>
<stop offset="1" stop-color="#EEC033"/>
</linearGradient>
<linearGradient id="paint17_linear_61_525" x1="173.189" y1="80.8097" x2="198.766" y2="120.797" gradientUnits="userSpaceOnUse">
<stop stop-color="#FD9F41"/>
<stop offset="1" stop-color="#EEC033"/>
</linearGradient>
<linearGradient id="paint18_linear_61_525" x1="202.243" y1="124.504" x2="244.826" y2="191.077" gradientUnits="userSpaceOnUse">
<stop stop-color="#FD9F41"/>
<stop offset="1" stop-color="#EEC033"/>
</linearGradient>
<linearGradient id="paint19_linear_61_525" x1="124.613" y1="172.468" x2="186.235" y2="268.808" gradientUnits="userSpaceOnUse">
<stop stop-color="#FD9F41"/>
<stop offset="1" stop-color="#EEC033"/>
</linearGradient>
<linearGradient id="paint20_linear_61_525" x1="68.6391" y1="97.973" x2="117.306" y2="174.058" gradientUnits="userSpaceOnUse">
<stop stop-color="#FD9F41"/>
<stop offset="1" stop-color="#EEC033"/>
</linearGradient>
<linearGradient id="paint21_linear_61_525" x1="120.519" y1="61.4779" x2="141.989" y2="95.0444" gradientUnits="userSpaceOnUse">
<stop stop-color="#FD9F41"/>
<stop offset="1" stop-color="#EEC033"/>
</linearGradient>
<linearGradient id="paint22_linear_61_525" x1="150.231" y1="72.8526" x2="216.545" y2="176.526" gradientUnits="userSpaceOnUse">
<stop stop-color="#FD9F41"/>
<stop offset="1" stop-color="#EEC033"/>
</linearGradient>
<linearGradient id="paint23_linear_61_525" x1="225.992" y1="179.018" x2="242.73" y2="205.185" gradientUnits="userSpaceOnUse">
<stop stop-color="#FD9F41"/>
<stop offset="1" stop-color="#EEC033"/>
</linearGradient>
<linearGradient id="paint24_linear_61_525" x1="152.674" y1="170.459" x2="207.459" y2="256.11" gradientUnits="userSpaceOnUse">
<stop stop-color="#FD9F41"/>
<stop offset="1" stop-color="#EEC033"/>
</linearGradient>
<linearGradient id="paint25_linear_61_525" x1="95.1887" y1="88.8011" x2="149.99" y2="174.477" gradientUnits="userSpaceOnUse">
<stop stop-color="#FD9F41"/>
<stop offset="1" stop-color="#EEC033"/>
</linearGradient>
<linearGradient id="paint26_linear_61_525" x1="111.945" y1="89.2059" x2="162.262" y2="167.871" gradientUnits="userSpaceOnUse">
<stop stop-color="#FD9F41"/>
<stop offset="1" stop-color="#EEC033"/>
</linearGradient>
<linearGradient id="paint27_linear_61_525" x1="192.134" y1="214.763" x2="215.251" y2="250.904" gradientUnits="userSpaceOnUse">
<stop stop-color="#FD9F41"/>
<stop offset="1" stop-color="#EEC033"/>
</linearGradient>
<linearGradient id="paint28_linear_61_525" x1="200.763" y1="156.967" x2="239.259" y2="217.15" gradientUnits="userSpaceOnUse">
<stop stop-color="#FD9F41"/>
<stop offset="1" stop-color="#EEC033"/>
</linearGradient>
<linearGradient id="paint29_linear_61_525" x1="109.425" y1="125.452" x2="168.928" y2="218.479" gradientUnits="userSpaceOnUse">
<stop stop-color="#FD9F41"/>
<stop offset="1" stop-color="#EEC033"/>
</linearGradient>
<linearGradient id="paint30_linear_61_525" x1="106.651" y1="103.719" x2="204.207" y2="256.237" gradientUnits="userSpaceOnUse">
<stop stop-color="#FD9F41"/>
<stop offset="1" stop-color="#EEC033"/>
</linearGradient>
<linearGradient id="paint31_linear_61_525" x1="139.536" y1="90.2139" x2="162.033" y2="125.385" gradientUnits="userSpaceOnUse">
<stop stop-color="#FD9F41"/>
<stop offset="1" stop-color="#EEC033"/>
</linearGradient>
<linearGradient id="paint32_linear_61_525" x1="172.005" y1="129.388" x2="234.713" y2="227.424" gradientUnits="userSpaceOnUse">
<stop stop-color="#FD9F41"/>
<stop offset="1" stop-color="#EEC033"/>
</linearGradient>
<linearGradient id="paint33_linear_61_525" x1="191.313" y1="177.839" x2="228.991" y2="236.744" gradientUnits="userSpaceOnUse">
<stop stop-color="#FD9F41"/>
<stop offset="1" stop-color="#EEC033"/>
</linearGradient>
<linearGradient id="paint34_linear_61_525" x1="120.233" y1="106.705" x2="170.973" y2="186.032" gradientUnits="userSpaceOnUse">
<stop stop-color="#FD9F41"/>
<stop offset="1" stop-color="#EEC033"/>
</linearGradient>
<linearGradient id="paint35_linear_61_525" x1="137.969" y1="137.809" x2="143.946" y2="147.154" gradientUnits="userSpaceOnUse">
<stop stop-color="#FD9F41"/>
<stop offset="1" stop-color="#EEC033"/>
</linearGradient>
<linearGradient id="paint36_linear_61_525" x1="125.829" y1="115.444" x2="139.926" y2="137.484" gradientUnits="userSpaceOnUse">
<stop stop-color="#FD9F41"/>
<stop offset="1" stop-color="#EEC033"/>
</linearGradient>
<linearGradient id="paint37_linear_61_525" x1="131.384" y1="124.132" x2="134.33" y2="128.737" gradientUnits="userSpaceOnUse">
<stop stop-color="#FD9F41"/>
<stop offset="1" stop-color="#EEC033"/>
</linearGradient>
</defs>
</svg>
