<svg width="154" height="120" viewBox="0 0 154 120" fill="none" xmlns="http://www.w3.org/2000/svg">
<path d="M99.9954 105.557C99.6526 105.626 99.3616 105.844 99.1993 106.151L93.5643 116.813C94.8177 116.143 96.0665 115.426 97.3097 114.661L100.982 107.712C103.873 107.119 106.709 106.331 109.488 105.391C110.885 104.107 112.265 102.768 113.621 101.347C109.251 103.195 104.694 104.629 99.9954 105.557Z" fill="#151921" fill-opacity="0.1"/>
<path d="M96.2613 100.358C95.9016 100.413 95.5877 100.638 95.4174 100.96L85.0047 120.663C86.1043 120.26 87.2026 119.833 88.301 119.36L97.1872 102.546C105.061 101.258 112.554 98.5648 119.355 94.7162C120.646 93.0866 121.912 91.3935 123.143 89.6195C115.198 95.1029 106.028 98.8495 96.2613 100.358Z" fill="#151921" fill-opacity="0.1"/>
<path d="M93.2166 95.2453C92.6532 94.9475 91.9563 95.1625 91.6586 95.7259L77.2797 122.933C78.279 122.711 79.2827 122.458 80.2862 122.179L93.6972 96.8033C93.9949 96.2399 93.78 95.543 93.2166 95.2453Z" fill="#151921" fill-opacity="0.1"/>
<path d="M142.849 20.8585C142.087 15.3942 140.72 10.3061 138.829 5.69153C133.308 -3.6046 125.25 -11.5461 115.01 -16.9581C110.424 -19.3818 105.665 -21.1545 100.84 -22.3186C97.3623 -22.4571 93.7572 -22.2171 90.0793 -21.5793C98.1783 -21.105 106.303 -18.9514 113.93 -14.9205C128.619 -7.15742 138.631 6.01597 142.849 20.8585Z" fill="#151921" fill-opacity="0.1"/>
<path d="M131.732 75.0835C132.221 74.1584 132.671 73.2391 133.128 72.3189C124.801 83.2094 112.79 90.9215 99.044 93.9663C98.4241 94.1039 98.0289 94.7194 98.1693 95.3431C98.305 95.962 98.9224 96.3582 99.5452 96.2197C110.678 93.7538 120.716 88.3299 128.703 80.6968C129.186 79.8364 129.673 78.9799 130.143 78.0906C130.408 77.5894 130.669 77.0862 130.928 76.582C131.199 76.0838 131.467 75.5847 131.732 75.0835Z" fill="#151921" fill-opacity="0.1"/>
<path d="M102.438 -13.5035C103.048 -13.3115 103.693 -13.6478 103.886 -14.2545C104.078 -14.8641 103.727 -15.5221 103.135 -15.7023C93.9838 -18.5912 84.5701 -18.9359 75.682 -17.1373C72.2202 -15.5947 68.7658 -13.7107 65.3584 -11.4548C76.7401 -16.4576 89.8471 -17.4776 102.438 -13.5035Z" fill="#151921" fill-opacity="0.1"/>
<path d="M134.842 63.3704C135.15 62.812 134.946 62.1115 134.388 61.8044C133.858 61.5655 133.129 61.7007 132.822 62.259C124.076 78.142 107.305 88.5886 89.0505 89.5202C88.6458 89.5426 88.2803 89.7736 88.0901 90.1335L70.1792 124.023C71.099 123.943 72.0242 123.839 72.9537 123.709L89.824 91.7874C108.615 90.5991 125.82 79.7581 134.842 63.3704Z" fill="#151921" fill-opacity="0.1"/>
<path d="M137.701 19.7165C137.093 19.9058 136.753 20.553 136.942 21.1617C140.721 33.3042 140.011 46.374 134.938 57.9604C134.697 58.5174 134.927 59.1623 135.455 59.4411C135.481 59.455 135.506 59.468 135.533 59.48C136.118 59.7334 136.795 59.4694 137.053 58.8851C142.347 46.7889 143.089 33.1478 139.145 20.4745C138.956 19.8639 138.307 19.5233 137.701 19.7165Z" fill="#151921" fill-opacity="0.1"/>
<path d="M110.248 -12.9004C109.672 -13.1736 108.986 -12.9288 108.71 -12.3564C108.437 -11.782 108.609 -11.1804 109.256 -10.8169C109.921 -10.5016 110.581 -10.1693 111.237 -9.82276C121.157 -4.58002 129.004 3.51783 133.933 13.5928C134.045 13.8203 134.22 13.9949 134.429 14.1054C134.744 14.2717 135.129 14.2899 135.476 14.1214C136.048 13.8426 136.286 13.1511 136.005 12.5785C130.862 2.06306 122.67 -6.38863 112.314 -11.8614C111.63 -12.2229 110.942 -12.5673 110.248 -12.9004Z" fill="#151921" fill-opacity="0.1"/>
<path d="M38.5682 24.6164C38.0048 24.3186 37.3079 24.5336 37.0101 25.097L24.104 49.5173C23.3745 52.3159 22.7842 55.0748 22.3418 57.7865L39.0488 26.1744C39.3465 25.611 39.1296 24.9131 38.5682 24.6164Z" fill="#151921" fill-opacity="0.1"/>
<path d="M84.5442 86.9694C83.9809 86.6716 83.2839 86.8866 82.9862 87.45L63.5807 124.168C64.4339 124.209 65.2943 124.228 66.16 124.222L85.0248 88.5274C85.3226 87.9641 85.1076 87.2671 84.5442 86.9694Z" fill="#151921" fill-opacity="0.1"/>
<path d="M130.172 59.8734C142.877 35.8337 133.655 5.94204 109.619 -6.76105C85.579 -19.4661 55.6864 -10.2468 42.9814 13.793L40.2421 18.9762C39.9443 19.5396 40.1593 20.2365 40.7227 20.5343C41.286 20.832 41.983 20.617 42.2807 20.0537L45.0201 14.8704C57.1296 -8.04262 85.6264 -16.833 108.541 -4.72241C131.455 7.3872 140.244 35.8811 128.134 58.796C120.562 73.1229 105.709 82.6737 89.3693 83.7257C88.7335 83.7658 88.2531 84.3145 88.2931 84.9503C88.32 85.3646 88.5619 85.7142 88.9067 85.8965C89.0875 85.9921 89.2952 86.0415 89.5177 86.0265C106.652 84.9248 122.23 74.9013 130.172 59.8734Z" fill="#151921" fill-opacity="0.1"/>
<path d="M71.99 98.381C71.4267 98.0833 70.7297 98.2982 70.432 98.8616L57.4362 123.451C58.2298 123.601 59.0335 123.727 59.8433 123.832L72.4706 99.939C72.7684 99.3757 72.5534 98.6787 71.99 98.381Z" fill="#151921" fill-opacity="0.1"/>
<path d="M83.723 -4.29491C84.3579 -4.3378 84.8355 -4.89042 84.7908 -5.52633C84.7479 -6.16123 84.1962 -6.6408 83.5593 -6.59414C68.4119 -5.51715 55.1496 3.1124 48.0817 16.486L21.3563 67.0544C21.2687 68.7846 21.233 70.494 21.26 72.1714L50.1193 17.5653C56.8139 4.89828 69.3756 -3.27233 83.723 -4.29491Z" fill="#151921" fill-opacity="0.1"/>
<path d="M124.438 58.3468C124.753 57.7924 124.559 57.0873 124.006 56.7736C123.995 56.7677 123.984 56.7617 123.974 56.7567C123.426 56.4669 122.742 56.6622 122.433 57.2053C114.366 71.3934 98.633 79.4982 82.3526 77.848C81.8856 77.8012 81.436 78.0409 81.2159 78.4573L72.5886 94.7814C72.2908 95.3448 72.5058 96.0417 73.0692 96.3395C73.6326 96.6372 74.3295 96.4222 74.6272 95.8589L82.8951 80.2149C99.8044 81.6238 116.048 73.1043 124.438 58.3468Z" fill="#151921" fill-opacity="0.1"/>
<path d="M124.628 55.3904C124.649 55.4014 124.668 55.4113 124.691 55.4214C125.271 55.6842 125.952 55.4298 126.218 54.8495C128.967 48.8133 130.274 42.3908 130.101 35.7625C130.085 35.1272 129.556 34.6282 128.918 34.6405C128.28 34.6576 127.778 35.1877 127.796 35.824C127.961 42.0966 126.724 48.1774 124.121 53.8957C123.865 54.4542 124.093 55.1076 124.628 55.3904Z" fill="#151921" fill-opacity="0.1"/>
<path d="M106.923 -1.66379C101.849 -4.34541 96.4009 -5.97635 90.7304 -6.51221C90.0968 -6.57225 89.5344 -6.10543 89.4743 -5.47188C89.4153 -4.84023 89.8848 -4.26911 90.5147 -4.21582C95.8827 -3.70966 101.04 -2.16537 105.846 0.374846C116.823 6.17623 124.528 16.513 126.993 28.7345C127.062 29.0869 127.291 29.3695 127.585 29.5248C127.813 29.6453 128.081 29.6904 128.353 29.6365C128.975 29.5123 129.382 28.9028 129.255 28.2765C126.655 15.376 118.515 4.46221 106.923 -1.66379Z" fill="#151921" fill-opacity="0.1"/>
<path d="M60.2574 11.3364C59.7867 10.9044 59.0565 10.9452 58.6274 11.415C56.4983 13.7559 54.6644 16.3686 53.1777 19.1816L44.868 34.9047C44.5703 35.4681 44.7853 36.165 45.3487 36.4628C45.912 36.7605 46.609 36.5455 46.9067 35.9822L55.2164 20.259C56.6114 17.6193 58.335 15.1653 60.3331 12.9673C60.7632 12.4956 60.7291 11.7665 60.2574 11.3364Z" fill="#151921" fill-opacity="0.1"/>
<path d="M43.9139 39.1837C43.3505 38.886 42.6536 39.101 42.3558 39.6643L21.6638 78.8168C21.8064 80.1431 21.9906 81.4457 22.2038 82.7298L44.3945 40.7418C44.6922 40.1784 44.4753 39.4805 43.9139 39.1837Z" fill="#151921" fill-opacity="0.1"/>
<path d="M102.28 71.1408C102.859 70.8783 103.115 70.1939 102.849 69.6121C102.586 69.0295 101.9 68.7757 101.32 69.0429C94.4342 72.1889 86.6086 73.0763 79.2865 71.5471C78.7826 71.4423 78.2701 71.6824 78.0291 72.1384L51.712 121.934C52.4479 122.188 53.1948 122.421 53.9508 122.633L79.6675 73.9732C87.2215 75.3647 95.2164 74.3667 102.28 71.1408Z" fill="#151921" fill-opacity="0.1"/>
<path d="M113.522 10.3535C113.075 9.89534 112.348 9.88943 111.891 10.3396C111.436 10.784 111.429 11.515 111.877 11.9713C122.749 23.0468 125.185 39.7005 117.94 53.4095C115.027 58.9206 110.673 63.5803 105.345 66.8873C104.804 67.223 104.637 67.9352 104.972 68.4737C105.083 68.6554 105.238 68.7924 105.413 68.885C105.763 69.0702 106.2 69.0696 106.561 68.8461C112.236 65.3248 116.875 60.3597 119.979 54.4869C127.694 39.8838 125.099 22.1484 113.522 10.3535Z" fill="#151921" fill-opacity="0.1"/>
<path d="M103.151 5.47425C104.116 5.98408 105.065 6.54125 105.972 7.13367C106.523 7.51882 107.224 7.33252 107.568 6.79882C107.916 6.26423 107.766 5.54875 107.234 5.20213C106.268 4.5712 105.255 3.97831 104.229 3.43561C90.8586 -3.6304 74.6045 -2.04641 62.8141 7.46952C62.3179 7.87016 62.2395 8.59766 62.6393 9.09095C62.7413 9.21718 62.8649 9.31625 62.9987 9.38695C63.3944 9.59606 63.8908 9.56435 64.2607 9.26573C75.3336 0.327521 90.5989 -1.1596 103.151 5.47425Z" fill="#151921" fill-opacity="0.1"/>
<path d="M77.3388 7.3854C77.1273 6.78673 76.4652 6.47057 75.8655 6.68393C68.2785 9.37753 62.0329 14.7734 58.2799 21.8748L33.7113 68.3621C33.4136 68.9255 33.6286 69.6224 34.1919 69.9202C34.7553 70.2179 35.4522 70.0029 35.7499 69.4395L60.3175 22.9541C63.7997 16.3653 69.5961 11.3586 76.6373 8.85863C77.2388 8.64626 77.5521 7.98507 77.3388 7.3854Z" fill="#151921" fill-opacity="0.1"/>
<path d="M32.1258 73.8336C31.5624 73.5359 30.8655 73.7509 30.5677 74.3142L23.3036 88.059C23.5793 89.152 23.884 90.2218 24.2111 91.2768L32.6054 75.3936C32.9041 74.8283 32.6891 74.1314 32.1258 73.8336Z" fill="#151921" fill-opacity="0.1"/>
<path d="M76.6648 64.8502C76.1015 64.5525 75.4045 64.7675 75.1068 65.3308L46.4028 119.643C47.0772 120.004 47.7664 120.347 48.4713 120.664L77.1455 66.4083C77.4432 65.8449 77.2263 65.147 76.6648 64.8502Z" fill="#151921" fill-opacity="0.1"/>
<path d="M80.791 68.3193C94.6158 70.8532 108.315 64.2116 114.879 51.7913C123.126 36.1869 117.142 16.783 101.537 8.53604C96.0657 5.64431 89.92 4.4066 83.7654 4.95993C83.1302 5.01711 82.6629 5.5776 82.72 6.21283C82.7763 6.84518 83.3377 7.31541 83.9729 7.25824C89.6824 6.74444 95.3839 7.89206 100.46 10.5747C114.938 18.2262 120.493 36.2343 112.84 50.7139C106.75 62.2373 94.0362 68.4016 81.2092 66.0504C80.5826 65.9362 79.9803 66.3506 79.8642 66.9762C79.7717 67.4842 80.0257 67.9751 80.4609 68.2051C80.5618 68.256 80.6733 68.2957 80.791 68.3193Z" fill="#151921" fill-opacity="0.1"/>
<path d="M97.7627 15.671C105.537 19.7795 110.419 27.8172 110.507 36.6448C110.514 37.2846 111.041 37.7922 111.671 37.7854C112.308 37.7798 112.818 37.2584 112.812 36.6214C112.718 26.9472 107.364 18.1372 98.8401 13.6323C86.0467 6.87101 70.139 11.7765 63.3778 24.5698L49.3195 51.17C49.0218 51.7334 49.2368 52.4303 49.8002 52.7281C50.3635 53.0258 51.0605 52.8108 51.3582 52.2474L65.4154 25.6491C71.5851 13.9797 86.0941 9.50413 97.7627 15.671Z" fill="#151921" fill-opacity="0.1"/>
<path d="M54.7156 94.0358C54.1522 93.738 53.4553 93.953 53.1576 94.5164L41.4723 116.627C42.1026 117.08 42.7449 117.512 43.3954 117.923L55.1962 95.5938C55.4939 95.0304 55.2789 94.3335 54.7156 94.0358Z" fill="#151921" fill-opacity="0.1"/>
<path d="M46.4783 59.0197C45.9149 58.7219 45.218 58.9369 44.9203 59.5003L25.7806 95.7153C26.1497 96.6407 26.5401 97.5484 26.95 98.4376L46.9589 60.5777C47.2567 60.0143 47.0417 59.3174 46.4783 59.0197Z" fill="#151921" fill-opacity="0.1"/>
<path d="M109.778 49.0952C110.963 46.8531 111.815 44.4662 112.306 41.9996C112.432 41.3742 112.033 40.7609 111.401 40.6436C110.777 40.519 110.167 40.9247 110.045 41.5492C109.598 43.7956 108.82 45.9735 107.74 48.0178C101.573 59.6862 87.0639 64.1618 75.3953 57.995C74.9865 57.7789 74.5873 57.5535 74.1961 57.3178C73.9294 57.1383 73.5955 57.1089 73.2923 57.1945C72.9891 57.2801 72.7299 57.4878 72.5815 57.7685L56.933 87.3778C56.6353 87.9411 56.8503 88.6381 57.4137 88.9358C57.977 89.2335 58.674 89.0186 58.9717 88.4552L74.0635 59.8992C74.1483 59.944 74.235 59.9898 74.3198 60.0346C87.1113 66.7949 103.017 61.8885 109.778 49.0952Z" fill="#151921" fill-opacity="0.1"/>
<path d="M104.679 46.3995C109.953 36.4192 106.123 24.0087 96.1449 18.735C94.2117 17.7134 92.1465 17.01 90.0069 16.6481C89.3811 16.5416 88.7844 16.9638 88.6777 17.5943C88.5692 18.2192 88.9876 18.8139 89.6239 18.9236C91.5175 19.2446 93.351 19.8665 95.0674 20.7737C103.923 25.4538 107.32 36.4666 102.64 45.3221C97.9589 54.1794 86.9461 57.5765 78.0906 52.8964C76.0105 51.797 74.2015 50.3444 72.7065 48.5757C72.4567 48.2822 72.0836 48.1308 71.7013 48.1746C71.32 48.2165 70.985 48.4444 70.8067 48.7817L36.9626 112.82C37.5353 113.378 38.1209 113.916 38.7175 114.434L72.0826 51.3024C73.5229 52.7457 75.1761 53.9641 77.0132 54.935C86.9935 60.2096 99.4031 56.3817 104.679 46.3995Z" fill="#151921" fill-opacity="0.1"/>
<path d="M83.6752 18.907C84.3057 18.8039 84.7318 18.212 84.6297 17.5844C84.5266 16.9538 83.931 16.5257 83.3061 16.6317C76.9021 17.6751 71.4972 21.5533 68.477 27.2679L64.7489 34.3221C64.4511 34.8855 64.6661 35.5824 65.2295 35.8801C65.7929 36.1779 66.4898 35.9629 66.7875 35.3995L70.5157 28.3453C73.1963 23.2732 77.9926 19.8351 83.6752 18.907Z" fill="#151921" fill-opacity="0.1"/>
<path d="M62.7146 40.6388C62.1513 40.3411 61.4543 40.5561 61.1566 41.1194L28.8788 102.194C29.3233 102.986 29.7854 103.758 30.2622 104.511L63.1953 42.1968C63.493 41.6335 63.278 40.9365 62.7146 40.6388Z" fill="#151921" fill-opacity="0.1"/>
<path d="M53.3377 71.3449C52.7743 71.0471 52.0774 71.2621 51.7796 71.8255L32.6669 107.99C33.179 108.658 33.7068 109.306 34.2455 109.938L53.8183 72.9029C54.116 72.3395 53.8992 71.6416 53.3377 71.3449Z" fill="#151921" fill-opacity="0.1"/>
<path d="M92.2382 26.1254C98.1412 29.2452 100.407 36.5889 97.2859 42.4938C96.9045 43.2154 96.4496 43.8982 95.9389 44.5226C95.5341 45.0149 95.6054 45.7419 96.0977 46.1468C96.5918 46.5573 97.3181 46.4784 97.7219 45.988C98.3316 45.2448 98.8714 44.4333 99.3264 43.5723C103.041 36.5444 100.345 27.802 93.3175 24.0878C86.2896 20.3735 77.5472 23.0687 73.832 30.0984L54.0242 67.5777C53.7264 68.1411 53.9414 68.838 54.5048 69.1358C55.0681 69.4335 55.7651 69.2185 56.0628 68.6551L75.8706 31.1759C78.9914 25.271 86.3333 23.0046 92.2382 26.1254Z" fill="#151921" fill-opacity="0.1"/>
<path d="M91.7197 50.3063C92.3141 50.0756 92.6141 49.4122 92.3873 48.8151C92.1558 48.2179 91.4941 47.9237 90.8961 48.1476C87.6383 49.3906 84.0007 49.1723 80.9182 47.5432C78.6629 46.3513 76.872 44.5177 75.7383 42.2434C75.4594 41.6765 74.7631 41.4387 74.1923 41.7252C73.6216 42.0069 73.3905 42.6995 73.6741 43.2712C75.0192 45.9803 77.153 48.1638 79.8379 49.5827C83.5103 51.5187 87.8427 51.7861 91.7197 50.3063Z" fill="#151921" fill-opacity="0.1"/>
<path d="M85.8459 29.857C85.6786 29.2431 85.0423 28.8827 84.4275 29.0519C82.2912 29.6415 80.4746 31.1038 79.441 33.0596C77.3598 36.9974 78.8692 41.8904 82.8071 43.9716C86.7431 46.0517 91.6361 44.5424 93.7172 40.6046C95.638 36.9701 94.5304 32.4846 91.1393 30.167C90.6228 29.8217 89.8945 29.9454 89.5357 30.4692C89.1778 30.996 89.3122 31.713 89.8399 32.0738C92.2603 33.7242 93.0507 36.9308 91.6796 39.5253C90.1939 42.3364 86.6966 43.4167 83.8855 41.931C81.0743 40.4454 79.9949 36.9463 81.4806 34.1351C82.2304 32.7164 83.4964 31.703 85.0447 31.2727C85.6576 31.1073 86.0151 30.4718 85.8459 29.857Z" fill="#151921" fill-opacity="0.1"/>
<path d="M88.0663 37.6209C88.5005 36.7994 88.186 35.7799 87.3645 35.3457C86.543 34.9116 85.5254 35.227 85.0913 36.0485C84.6571 36.87 84.9726 37.8876 85.7922 38.3208C86.6156 38.7559 87.6322 38.4423 88.0663 37.6209Z" fill="#151921" fill-opacity="0.1"/>
</svg>
