<svg version="1.2" xmlns="http://www.w3.org/2000/svg" viewBox="0 0 59 80" width="59" height="80">
	<title>5972733_21834</title>
	<style>
		.s0 { fill: #000000 } 
	</style>
	<g>
		<path class="s0" d="m15.1 14.4v-4.8q-0.5 0.6-1 1.1v3.4q-2.4 1.2-4.6 2.6-0.6 1.1-1.1 2.2 3-2.3 6.4-4c0.2-0.1 0.3-0.3 0.3-0.5z"/>
		<path class="s0" d="m47.2 61.3v5.6q0.5-0.6 1-1.4v-3.9q1.8-0.9 3.4-1.9 0.4-0.9 0.8-1.8-2.3 1.6-4.9 2.9c-0.2 0.1-0.3 0.2-0.3 0.5z"/>
		<path class="s0" d="m17.3 16.7c0.3 0 0.5-0.3 0.5-0.6v-8.7q-0.5 0.4-1 0.9v7.8c0 0.3 0.2 0.6 0.5 0.6z"/>
		<path class="s0" d="m14.1 17.7c-0.1-0.3-0.4-0.4-0.7-0.2-2.4 1.4-4.6 3-6.5 4.9q-0.5 1.1-0.8 2.3c2.3-2.5 4.9-4.6 7.8-6.3 0.3-0.1 0.4-0.4 0.2-0.7z"/>
		<path class="s0" d="m44.5 59.5v10.4q0.5-0.6 1-1.1v-8.9c2.9-1.3 5.5-2.9 7.9-4.8q0.3-0.9 0.5-1.8c-2.7 2.3-5.7 4.3-9.1 5.7-0.2 0.1-0.3 0.3-0.3 0.5z"/>
		<path class="s0" d="m20.2 18.5c0.2-0.1 0.4-0.3 0.4-0.5v-12.2q-0.6 0.2-1.1 0.6v11.2c-5.8 2.2-10.7 6-14.4 10.7q-0.3 1.2-0.5 2.5c3.7-5.5 9.1-9.9 15.6-12.3z"/>
		<path class="s0" d="m48.6 54.5c-0.1-0.2-0.5-0.3-0.7-0.1q-2.8 1.7-5.8 2.8c-0.2 0-0.3 0.3-0.3 0.5v14.4q0.5-0.4 1-0.8v-13.2q3-1.2 5.7-2.8c0.2-0.2 0.3-0.5 0.1-0.8z"/>
		<path class="s0" d="m51.1 52.1c-0.2 0.2-0.2 0.5-0.1 0.7 0.2 0.3 0.6 0.3 0.8 0.1q1.5-1.2 2.8-2.5 0.2-1 0.3-2-1.7 2-3.8 3.7z"/>
		<path class="s0" d="m22.7 17.7c0.3 0 0.6-0.3 0.6-0.6v-12.5q-0.6 0.2-1.1 0.4v12.1c0 0.3 0.2 0.6 0.5 0.6z"/>
		<path class="s0" d="m39.4 55.2c-0.2 0.1-0.4 0.3-0.4 0.5v5.5c0 0.3 0.3 0.5 0.6 0.5 0.3 0 0.5-0.2 0.5-0.5v-5.1c6.2-1.9 11.5-5.7 15.2-10.7q0.1-1 0.1-2.1c-3.7 5.6-9.3 9.9-16 11.9z"/>
		<path class="s0" d="m39.6 64.4c-0.3 0-0.6 0.3-0.6 0.6v8.8q0.6-0.3 1.1-0.6v-8.2c0-0.3-0.2-0.6-0.5-0.6z"/>
		<path class="s0" d="m22.3 20.6c0.3 0 0.5-0.4 0.4-0.6-0.1-0.3-0.4-0.5-0.7-0.4-7.9 2.5-14.2 8.2-17.9 15.3q-0.1 1.4-0.1 2.9c3.2-8 9.8-14.5 18.3-17.2z"/>
		<path class="s0" d="m11.3 30.1c0.2 0.2 0.6 0.2 0.8 0 3.6-3.8 8.3-6.4 13.4-7.5 0.3-0.1 0.5-0.3 0.5-0.5v-18.3q-0.6 0.1-1.1 0.2v17.6c-5.2 1.2-9.9 3.9-13.6 7.7-0.2 0.3-0.2 0.6 0 0.8z"/>
		<path class="s0" d="m55.5 39q0-0.7 0-1.4c-3 7-9 12.6-16.6 14.9-0.3 0.1-0.4 0.4-0.3 0.7 0 0.2 0.2 0.4 0.5 0.4q0.1 0 0.1 0c7.2-2.2 13-7.2 16.3-13.5q0-0.2 0-0.3 0-0.4 0-0.8z"/>
		<path class="s0" d="m9.6 32.2c-0.3-0.2-0.6-0.2-0.8 0.1-2.4 3.3-4 7.1-4.7 11.1q0.1 2.9 0.6 5.7v-0.7c0-5.6 1.7-11 5-15.5 0.2-0.2 0.1-0.6-0.1-0.7z"/>
		<path class="s0" d="m36.9 54c-0.3 0-0.6 0.2-0.6 0.5v20.5q0.6-0.2 1.1-0.4v-20.1c0-0.3-0.2-0.5-0.5-0.5z"/>
		<path class="s0" d="m28.2 24.9c0.3-0.1 0.5-0.3 0.5-0.6v-20.9q-0.6 0.1-1.1 0.1v20.4c-12.2 1.7-21.3 12.1-21.3 24.5v7.3q0.5 1.5 1.1 2.9v-10.2c0-12 8.9-22.1 20.8-23.5z"/>
		<path class="s0" d="m55.2 33.4q-0.2-1.7-0.5-3.4c-1.2 10.8-9.6 19.5-20.6 20.8-0.3 0-0.5 0.3-0.5 0.5v24.5q0.6-0.1 1.1-0.3v-23.7c10.1-1.4 18.1-8.9 20.5-18.4z"/>
		<path class="s0" d="m47.3 41.6c-0.2-0.2-0.6-0.2-0.8 0.1-3.9 4.2-9.3 6.5-15 6.6-0.3 0-0.6 0.2-0.6 0.5v11.7c0 0.3 0.3 0.5 0.6 0.5 0.3 0 0.5-0.2 0.5-0.5v-11.2c5.8-0.2 11.3-2.6 15.3-6.9 0.2-0.2 0.2-0.6 0-0.8z"/>
		<path class="s0" d="m48.6 39.9q0.2 0.1 0.4 0.1 0.2 0 0.4-0.2c2.6-3.7 3.9-8 3.9-12.5v-3.1q-0.5-1.5-1.1-2.9v6c0 4.3-1.3 8.4-3.7 11.9-0.2 0.2-0.1 0.6 0.1 0.7z"/>
		<path class="s0" d="m30.8 27.1c0.3 0 0.6-0.3 0.6-0.6v-23q-0.6-0.1-1.1-0.1v23.1c0 0.3 0.2 0.6 0.5 0.6z"/>
		<path class="s0" d="m31.5 64.2c-0.3 0-0.6 0.2-0.6 0.5v11.5q0.6-0.1 1.1-0.1v-11.4c0-0.3-0.2-0.5-0.5-0.5z"/>
		<path class="s0" d="m27.8 27.7c0.3-0.1 0.5-0.4 0.5-0.7-0.1-0.2-0.4-0.4-0.7-0.4-10.6 1.7-18.6 11-18.6 21.8v13.5q0.5 1 1.1 1.9v-15.4c0-10.3 7.6-19.2 17.7-20.7z"/>
		<path class="s0" d="m14.7 39c-0.2-0.1-0.5 0-0.7 0.2-1.5 2.8-2.3 6-2.3 9.2v17.7q0.5 0.7 1.1 1.4v-19.1c0-3 0.7-6 2.2-8.7 0.1-0.2 0-0.5-0.3-0.7z"/>
		<path class="s0" d="m31.3 46.6c10.6 0 19.3-8.6 19.3-19.3v-9.5q-0.5-0.9-1.1-1.8v11.3c0 10.1-8.2 18.2-18.2 18.2h-0.3c-1.5 0-2.8 1.3-2.8 2.9v27.7q0.6 0.1 1.1 0.1v-27.8c0-1 0.8-1.8 1.7-1.8 0 0 0.3 0 0.3 0z"/>
		<path class="s0" d="m31 29c-5.5 0-10.8 2.5-14.5 6.7-0.2 0.2-0.2 0.5 0 0.7 0.3 0.2 0.6 0.2 0.8 0 3.5-4 8.5-6.3 13.7-6.3h0.3c1.5 0 2.8-1.2 2.8-2.8v-23.4q-0.6-0.1-1.1-0.2v23.6c0 1-0.8 1.7-1.7 1.7 0 0-0.3 0-0.3 0z"/>
		<path class="s0" d="m31 32.8h0.3c3 0 5.5-2.5 5.5-5.5v-22.5q-0.5-0.3-1.1-0.4v22.9c0 2.4-2 4.4-4.4 4.4h-0.3c-8.3 0-15.4 6.3-16.4 14.5-0.1 0.3 0.1 0.6 0.4 0.6q0.1 0 0.1 0c0.3 0 0.5-0.2 0.5-0.5 1-7.7 7.7-13.5 15.4-13.5z"/>
		<path class="s0" d="m34.4 42.5c-0.3 0.1-0.4 0.4-0.4 0.7 0.1 0.2 0.4 0.4 0.7 0.4 7.6-1.6 13.2-8.5 13.2-16.3v-13.7q-0.5-0.7-1.1-1.4v15.1c0 7.3-5.2 13.7-12.4 15.2z"/>
		<path class="s0" d="m15 49.8c-0.3 0-0.6 0.3-0.6 0.6v18.9q0.6 0.5 1.1 1v-19.9c0-0.3-0.2-0.6-0.5-0.6z"/>
		<path class="s0" d="m30.9 43.9c0.3 0 0.5-0.2 0.5-0.5 0-0.3-0.2-0.5-0.5-0.5-1 0-1.7 0.2-2 0.4-2.1 0.9-3.4 2.9-3.4 5.1v27.3q0.6 0.1 1.1 0.2v-27.5c0-1.8 1.1-3.4 2.7-4.1 0.3-0.1 0.8-0.3 1.6-0.4z"/>
		<path class="s0" d="m29.6 35.6c0.3 0 1.3-0.1 1.5-0.1 0.3-0.1 0.6-0.3 0.5-0.6 0-0.3-0.2-0.5-0.5-0.5-0.3 0-1.3 0.1-1.6 0.1-7.1 0.8-12.4 6.8-12.4 13.9v23.2q0.6 0.4 1.1 0.8v-24c0-6.6 4.9-12.1 11.4-12.8z"/>
		<path class="s0" d="m31 41.2h0.3c7.6 0 13.9-6.2 13.9-13.9v-3.6c0-0.3-0.3-0.5-0.6-0.5-0.3 0-0.5 0.2-0.5 0.5v3.6c0 7.1-5.8 12.8-12.8 12.8h-0.3c-4.5 0-8.2 3.7-8.2 8.3v26.5q0.5 0.2 1.1 0.4v-26.9c0-4 3.2-7.2 7.1-7.2z"/>
		<path class="s0" d="m39 10.3c0.3 0 0.5-0.2 0.5-0.5v-3.7q-0.5-0.3-1.1-0.6v4.3c0 0.3 0.3 0.5 0.6 0.5z"/>
		<path class="s0" d="m44.6 20.7c0.3 0 0.6-0.2 0.6-0.5v-9.8q-0.6-0.5-1.1-1v10.8c0 0.3 0.2 0.5 0.5 0.5z"/>
		<path class="s0" d="m34.2 33.8c-0.2 0.1-0.4 0.5-0.2 0.7 0.1 0.2 0.3 0.3 0.5 0.3q0.1 0 0.2 0c2.9-1.4 4.8-4.3 4.8-7.5v-13.6c0-0.3-0.2-0.6-0.5-0.6-0.3 0-0.6 0.3-0.6 0.6v13.6c0 2.8-1.6 5.3-4.2 6.5z"/>
		<path class="s0" d="m31 38.4h0.3c6.1 0 11-5 11-11.1v-19.4q-0.5-0.4-1-0.7v20.1c0 5.5-4.5 10-10 10h-0.3c-6.1 0-11 5-11 11.1v13.7c0 0.3 0.2 0.6 0.5 0.6 0.3 0 0.5-0.3 0.5-0.6v-13.7c0-5.5 4.5-10 10-10z"/>
		<path class="s0" d="m20.5 65.5c-0.3 0-0.5 0.2-0.5 0.5v7.5q0.5 0.3 1 0.6v-8.1c0-0.3-0.2-0.5-0.5-0.5z"/>
	</g>
</svg>