<svg width="77" height="87" viewBox="0 0 77 87" fill="none" xmlns="http://www.w3.org/2000/svg">
<path d="M63.3303 51.3232C63.2631 51.4729 63.2665 51.6433 63.3393 51.7892L65.8659 56.8528C65.9528 56.1915 66.0208 55.5194 66.0688 54.8361L64.4222 51.5361C64.9859 50.2714 65.4605 48.9739 65.8619 47.6572C65.7539 46.7734 65.6205 45.8811 65.4491 44.9754C64.9594 47.1475 64.2609 49.2775 63.3303 51.3232Z" fill="url(#paint0_linear_47_2640)" fill-opacity="0.2"/>
<path d="M60.3267 51.3265C60.2497 51.4789 60.2495 51.66 60.3259 51.8131L64.9947 61.1699C65.1418 60.6406 65.2791 60.1049 65.399 59.5567L61.4146 51.5716C63.0752 48.2161 64.096 44.6223 64.4872 40.976C64.2183 40.0384 63.9186 39.0928 63.5786 38.1382C63.4984 42.6675 62.4209 47.1892 60.3267 51.3265Z" fill="url(#paint1_linear_47_2640)" fill-opacity="0.2"/>
<path d="M57.5449 51.0907C57.2773 51.2242 57.1688 51.5488 57.3023 51.8164L63.7494 64.7372C63.9381 64.2955 64.116 63.8435 64.2836 63.3844L58.2705 51.3333C58.137 51.0657 57.8124 50.9572 57.5449 51.0907Z" fill="url(#paint2_linear_47_2640)" fill-opacity="0.2"/>
<path d="M42.7387 11.8267C40.4464 10.6235 38.1318 9.75449 35.8551 9.21417C30.8001 8.77932 25.5688 9.68195 20.7056 12.1085C18.5276 13.1953 16.5507 14.5259 14.7879 16.0481C13.7846 17.3366 12.8908 18.7772 12.1288 20.3543C14.5234 17.3949 17.5656 14.8845 21.1877 13.0772C28.1636 9.59644 35.9247 9.37835 42.7387 11.8267Z" fill="url(#paint3_linear_47_2640)" fill-opacity="0.2"/>
<path d="M60.3825 30.8885C60.1633 30.4491 59.9356 30.0263 59.7096 29.6004C61.5873 35.7534 61.2459 42.4425 58.6502 48.5175C58.5333 48.7916 58.66 49.1105 58.9363 49.2275C59.2094 49.3449 59.5293 49.2177 59.6467 48.9423C61.7491 44.022 62.4239 38.711 61.6956 33.5782C61.4996 33.1585 61.3058 32.7389 61.0951 32.3166C60.9763 32.0785 60.8558 31.8414 60.7343 31.6047C60.6183 31.3654 60.5013 31.1265 60.3825 30.8885Z" fill="url(#paint4_linear_47_2640)" fill-opacity="0.2"/>
<path d="M18.5873 17.848C18.8272 17.668 18.8753 17.3299 18.6966 17.0905C18.5166 16.8507 18.1696 16.8048 17.9391 16.9812C14.3359 19.6821 11.6314 23.1784 9.88812 27.0601C9.53025 28.8022 9.30468 30.6347 9.23378 32.5509C10.4366 26.8424 13.63 21.5643 18.5873 17.848Z" fill="url(#paint5_linear_47_2640)" fill-opacity="0.2"/>
<path d="M56.7647 26.5001C56.6356 26.2303 56.3129 26.1164 56.0431 26.2455C55.8073 26.3821 55.6594 26.6973 55.7885 26.9671C59.456 34.6443 58.8567 43.8962 54.2225 51.1135C54.1204 51.274 54.1086 51.4766 54.1939 51.6475L62.2246 67.7422C62.4454 67.3694 62.6586 66.9881 62.8629 66.5978L55.2987 51.4382C59.9814 43.9463 60.5492 34.4207 56.7647 26.5001Z" fill="url(#paint6_linear_47_2640)" fill-opacity="0.2"/>
<path d="M40.8953 13.4784C40.8011 13.7623 40.9552 14.0688 41.2391 14.1629C46.9033 16.0405 51.6942 19.8838 54.727 24.9855C54.8735 25.2298 55.1825 25.3181 55.433 25.1931C55.4455 25.1868 55.4572 25.181 55.4692 25.1739C55.7256 25.0203 55.81 24.6898 55.6577 24.4317C52.4909 19.1063 47.4908 15.0947 41.5789 13.1351C41.2945 13.04 40.9872 13.1945 40.8953 13.4784Z" fill="url(#paint7_linear_47_2640)" fill-opacity="0.2"/>
<path d="M20.9519 15.0344C20.6901 15.1795 20.5959 15.5081 20.7388 15.7699C20.8835 16.0307 21.1598 16.1298 21.4752 15.9825C21.7772 15.815 22.0846 15.6538 22.396 15.4984C27.1071 13.1478 32.3406 12.3681 37.5306 13.2418C37.6478 13.2615 37.7623 13.2424 37.8616 13.1929C38.0111 13.1183 38.1234 12.9762 38.154 12.7978C38.2039 12.5035 38.0051 12.2239 37.71 12.1744C32.2936 11.2617 26.8307 12.0764 21.9129 14.5303C21.5881 14.6923 21.2686 14.8607 20.9519 15.0344Z" fill="url(#paint8_linear_47_2640)" fill-opacity="0.2"/>
<path d="M15.6691 52.6291C15.4016 52.7626 15.2931 53.0871 15.4266 53.3547L21.2134 64.9521C22.0814 65.9953 22.9724 66.9746 23.8857 67.8845L16.3948 52.8716C16.2613 52.6041 15.9358 52.496 15.6691 52.6291Z" fill="url(#paint9_linear_47_2640)" fill-opacity="0.2"/>
<path d="M52.0178 52.1354C51.7502 52.2689 51.6417 52.5935 51.7752 52.861L60.4761 70.2988C60.725 69.9846 60.9673 69.6615 61.2019 69.3299L52.7434 52.378C52.6099 52.1104 52.2853 52.0019 52.0178 52.1354Z" fill="url(#paint10_linear_47_2640)" fill-opacity="0.2"/>
<path d="M54.1549 27.3262C48.4583 15.9095 34.5363 11.2568 23.1214 16.9525C11.7047 22.649 7.05071 36.5705 12.7473 47.9872L13.9755 50.4488C14.109 50.7164 14.4336 50.8249 14.7012 50.6914C14.9687 50.5579 15.0772 50.2333 14.9437 49.9657L13.7155 47.5042C8.28587 36.6225 12.722 23.3507 23.6045 17.9206C34.4861 12.4911 47.7567 16.9267 53.1867 27.8093C56.5817 34.6133 56.1648 42.8891 52.1 49.4088C51.9415 49.6622 52.0195 49.9955 52.2729 50.154C52.4383 50.257 52.6378 50.2603 52.8015 50.1786C52.8874 50.1357 52.963 50.07 53.0181 49.9811C57.2812 43.1445 57.716 34.4631 54.1549 27.3262Z" fill="url(#paint11_linear_47_2640)" fill-opacity="0.2"/>
<path d="M52.9392 60.0429C52.6716 60.1764 52.5631 60.501 52.6966 60.7685L58.5236 72.4465C58.7975 72.1847 59.0651 71.9125 59.3265 71.6323L53.6648 60.2854C53.5313 60.0179 53.2067 59.9094 52.9392 60.0429Z" fill="url(#paint12_linear_47_2640)" fill-opacity="0.2"/>
<path d="M16.9846 27.5036C17.1418 27.2497 17.0616 26.9164 16.8068 26.7597C16.5529 26.6025 16.2192 26.6818 16.0629 26.9375C12.3335 33.0094 12 40.4266 15.1691 46.7779L27.152 70.7933C27.788 71.2996 28.4303 71.7805 29.0774 72.2287L16.1377 46.2957C13.1361 40.28 13.4531 33.2554 16.9846 27.5036Z" fill="url(#paint13_linear_47_2640)" fill-opacity="0.2"/>
<path d="M52.0051 29.0963C51.8796 28.8248 51.5577 28.706 51.2871 28.831C51.2817 28.8337 51.2763 28.8364 51.2718 28.8386C51.0115 28.9685 50.8989 29.2828 51.0217 29.549C54.2283 36.504 53.0194 44.7201 47.9401 50.4787C47.7946 50.6441 47.7631 50.8811 47.8618 51.0788L51.7301 58.8314C51.8636 59.0989 52.1881 59.2074 52.4557 59.0739C52.7232 58.9404 52.8317 58.6158 52.6982 58.3483L48.9912 50.9188C54.1503 44.8543 55.3407 36.3301 52.0051 29.0963Z" fill="url(#paint14_linear_47_2640)" fill-opacity="0.2"/>
<path d="M50.9292 28.2148C50.9391 28.2099 50.948 28.2055 50.9583 28.1992C51.2169 28.0501 51.3062 27.7205 51.1575 27.4606C49.6066 24.7622 47.5141 22.5083 44.9387 20.7625C44.692 20.595 44.357 20.6605 44.1873 20.9072C44.0194 21.1552 44.0844 21.4916 44.332 21.6586C46.7697 23.3099 48.7509 25.4439 50.2206 27.9996C50.3635 28.2502 50.6751 28.3416 50.9292 28.2148Z" fill="url(#paint15_linear_47_2640)" fill-opacity="0.2"/>
<path d="M24.3296 19.3739C21.9199 20.5762 19.8086 22.2086 18.0544 24.225C17.8583 24.4502 17.8826 24.7923 18.1078 24.9884C18.3326 25.1836 18.6788 25.1606 18.8713 24.9349C20.5316 23.0258 22.5301 21.481 24.8127 20.342C30.0258 17.7409 36.0745 17.6274 41.4095 20.0279C41.5629 20.0978 41.7333 20.0877 41.8728 20.018C41.9811 19.964 42.0715 19.8742 42.1253 19.7557C42.2481 19.4844 42.1267 19.1627 41.8531 19.04C36.2221 16.5054 29.8344 16.6272 24.3296 19.3739Z" fill="url(#paint16_linear_47_2640)" fill-opacity="0.2"/>
<path d="M16.5327 40.7263C16.2393 40.7878 16.0552 41.0774 16.1171 41.3695C16.4281 42.8214 16.9233 44.235 17.5899 45.571L21.3158 53.038C21.4493 53.3056 21.7738 53.4141 22.0414 53.2806C22.3089 53.1471 22.4174 52.8225 22.2839 52.555L18.5581 45.0879C17.9326 43.8343 17.4677 42.5061 17.1754 41.1432C17.1131 40.8502 16.8257 40.664 16.5327 40.7263Z" fill="url(#paint17_linear_47_2640)" fill-opacity="0.2"/>
<path d="M22.6866 54.5712C22.4191 54.7047 22.3106 55.0293 22.4441 55.2968L31.7218 73.8907C32.2667 74.1988 32.8139 74.4846 33.3619 74.7543L23.4122 54.8137C23.2787 54.5462 22.9532 54.4382 22.6866 54.5712Z" fill="url(#paint18_linear_47_2640)" fill-opacity="0.2"/>
<path d="M50.8279 41.0448C50.8863 40.7519 50.6951 40.4673 50.4004 40.4099C50.1062 40.351 49.8221 40.5431 49.7655 40.8373C49.0833 44.3237 47.2828 47.5511 44.6982 49.9259C44.5205 50.0894 44.472 50.3505 44.5801 50.5671L56.3799 74.2157C56.678 74.0044 56.9711 73.7832 57.2584 73.5527L45.7277 50.4437C48.3232 47.9428 50.1277 44.6206 50.8279 41.0448Z" fill="url(#paint19_linear_47_2640)" fill-opacity="0.2"/>
<path d="M30.7152 20.1415C30.4182 20.1869 30.2172 20.4626 30.2639 20.7601C30.3093 21.0548 30.5859 21.2576 30.8825 21.2114C38.0786 20.0917 45.0965 23.7145 48.345 30.2251C49.6509 32.8424 50.2379 35.777 50.0432 38.7128C50.0233 39.0111 50.2494 39.2693 50.5463 39.2888C50.646 39.296 50.7404 39.2746 50.8236 39.2331C50.9901 39.1501 51.1091 38.9834 51.1227 38.7844C51.3306 35.6576 50.7048 32.5311 49.3132 29.742C45.8521 22.8078 38.3783 18.9497 30.7152 20.1415Z" fill="url(#paint20_linear_47_2640)" fill-opacity="0.2"/>
<path d="M26.0209 22.7633C26.479 22.5348 26.951 22.3249 27.4248 22.1411C27.7222 22.0362 27.8428 21.7179 27.7335 21.4406C27.6246 21.1619 27.3107 21.0234 27.0329 21.1318C26.5283 21.3278 26.0254 21.5518 25.5378 21.7952C19.1883 24.9634 15.3498 31.5959 15.7567 38.694C15.7739 38.9928 16.0299 39.2215 16.3274 39.2039C16.4034 39.1994 16.475 39.1794 16.5385 39.1477C16.7264 39.0539 16.85 38.8559 16.8372 38.6332C16.4545 31.9667 20.0597 25.7378 26.0209 22.7633Z" fill="url(#paint21_linear_47_2640)" fill-opacity="0.2"/>
<path d="M19.6945 33.1316C19.4084 33.0486 19.1068 33.2147 19.0243 33.5018C17.978 37.1319 18.329 40.9889 20.0117 44.3614L31.0276 66.4387C31.1611 66.7062 31.4857 66.8147 31.7532 66.6812C32.0208 66.5478 32.1293 66.2232 31.9958 65.9556L20.9804 43.8792C19.419 40.7501 19.0937 37.1708 20.0647 33.8018C20.1481 33.5143 19.9816 33.2141 19.6945 33.1316Z" fill="url(#paint22_linear_47_2640)" fill-opacity="0.2"/>
<path d="M32.681 68.5385C32.4134 68.672 32.3049 68.9966 32.4384 69.2641L35.6955 75.7917C36.1877 75.9853 36.679 76.1614 37.1708 76.3251L33.4071 68.7819C33.2731 68.5135 32.9485 68.405 32.681 68.5385Z" fill="url(#paint23_linear_47_2640)" fill-opacity="0.2"/>
<path d="M41.4279 49.0946C41.1604 49.2281 41.0519 49.5527 41.1854 49.8203L54.0555 75.6137C54.3776 75.4552 54.6966 75.2859 55.0102 75.1037L42.1536 49.3372C42.0201 49.0696 41.6946 48.9616 41.4279 49.0946Z" fill="url(#paint24_linear_47_2640)" fill-opacity="0.2"/>
<path d="M43.8787 48.4696C48.6239 43.8891 49.8349 36.8488 46.8918 30.9503C43.1941 23.5396 34.1575 20.5183 26.7468 24.216C24.1483 25.5126 21.9964 27.5184 20.5253 30.0171C20.3735 30.275 20.4595 30.6064 20.7174 30.7583C20.974 30.9096 21.3068 30.824 21.4586 30.5661C22.8232 28.248 24.8193 26.387 27.2299 25.1842C34.1055 21.7535 42.4925 24.5568 45.9236 31.4333C48.6543 36.9059 47.5304 43.4401 43.1276 47.6899C42.9128 47.8977 42.9062 48.2407 43.1131 48.456C43.2816 48.6301 43.5383 48.6674 43.745 48.5643C43.7919 48.5397 43.8376 48.508 43.8787 48.4696Z" fill="url(#paint25_linear_47_2640)" fill-opacity="0.2"/>
<path d="M28.4372 27.606C32.1291 25.7639 36.5294 26.0984 39.9205 28.4777C40.1663 28.6501 40.504 28.5878 40.6737 28.3455C40.8456 28.101 40.786 27.7642 40.5415 27.5923C36.826 24.9838 32.0022 24.618 27.9541 26.6379C21.8785 29.6694 19.4015 37.0777 22.4331 43.1534L28.7364 55.7861C28.8699 56.0536 29.1945 56.1621 29.462 56.0286C29.7296 55.8951 29.8381 55.5706 29.7046 55.303L23.4017 42.6712C20.6371 37.1284 22.8957 30.371 28.4372 27.606Z" fill="url(#paint26_linear_47_2640)" fill-opacity="0.2"/>
<path d="M46.5606 65.444C46.2931 65.5775 46.1846 65.9021 46.3181 66.1696L51.5575 76.6701C51.9028 76.5536 52.2428 76.4265 52.5774 76.2908L47.2862 65.6866C47.1527 65.419 46.8282 65.3105 46.5606 65.444Z" fill="url(#paint27_linear_47_2640)" fill-opacity="0.2"/>
<path d="M30.9537 59.0158C30.6861 59.1493 30.5777 59.4739 30.7111 59.7414L39.2928 76.9403C39.7467 77.0525 40.1996 77.1517 40.6508 77.2384L31.6793 59.2583C31.5458 58.9908 31.2212 58.8823 30.9537 59.0158Z" fill="url(#paint28_linear_47_2640)" fill-opacity="0.2"/>
<path d="M44.4696 32.1589C43.9383 31.0941 43.2607 30.1168 42.4542 29.2553C42.25 29.0364 41.907 29.0209 41.6895 29.2301C41.4715 29.4338 41.4596 29.7773 41.6642 29.9948C42.3988 30.7793 43.017 31.6712 43.5014 32.642C46.2664 38.1835 44.0078 44.9408 38.4663 47.7058C38.2722 47.8027 38.0771 47.8933 37.8803 47.9781C37.7389 48.0308 37.6364 48.1501 37.5862 48.2892C37.536 48.4282 37.5443 48.5838 37.6109 48.7172L44.6272 62.7789C44.7607 63.0464 45.0853 63.1549 45.3528 63.0214C45.6204 62.8879 45.7289 62.5634 45.5954 62.2958L38.8286 48.7343C38.8689 48.7142 38.91 48.6936 38.9503 48.6736C45.0251 45.6424 47.5012 38.2346 44.4696 32.1589Z" fill="url(#paint29_linear_47_2640)" fill-opacity="0.2"/>
<path d="M42.0474 33.3674C39.6824 28.6276 33.902 26.6962 29.1632 29.0608C28.2451 29.5189 27.4123 30.1143 26.6895 30.8315C26.4778 31.0411 26.4757 31.3841 26.6871 31.5971C26.8958 31.8093 27.237 31.8122 27.4527 31.5995C28.0927 30.965 28.8311 30.4357 29.6462 30.0289C33.8518 27.9305 38.9808 29.6449 41.0792 33.8504C43.1781 38.0569 41.4637 43.1859 37.2582 45.2843C36.2703 45.7772 35.2218 46.0702 34.1386 46.157C33.9584 46.172 33.7986 46.2729 33.7108 46.4307C33.6226 46.5876 33.618 46.7777 33.6979 46.9379L48.8727 77.3502C49.2421 77.2843 49.6076 77.2081 49.9681 77.1221L35.0081 47.1402C35.9523 46.9853 36.8688 46.6878 37.7413 46.2525C42.481 43.8875 44.4128 38.108 42.0474 33.3674Z" fill="url(#paint30_linear_47_2640)" fill-opacity="0.2"/>
<path d="M25.8208 33.8634C25.9538 33.5947 25.8445 33.2704 25.5772 33.1378C25.3085 33.0047 24.9824 33.1149 24.8521 33.3823C23.4997 36.11 23.5016 39.2316 24.8557 41.9455L26.5273 45.2956C26.6608 45.5632 26.9854 45.6717 27.253 45.5382C27.5205 45.4047 27.629 45.0801 27.4955 44.8126L25.8239 41.4624C24.622 39.0536 24.6216 36.2845 25.8208 33.8634Z" fill="url(#paint31_linear_47_2640)" fill-opacity="0.2"/>
<path d="M28.3807 47.7985C28.1131 47.932 28.0047 48.2566 28.1381 48.5241L42.6106 77.5289C43.0341 77.5758 43.4549 77.6106 43.8726 77.6346L29.1063 48.041C28.9728 47.7735 28.6482 47.665 28.3807 47.7985Z" fill="url(#paint32_linear_47_2640)" fill-opacity="0.2"/>
<path d="M37.5289 59.7672C37.2613 59.9007 37.1528 60.2253 37.2863 60.4929L45.856 77.6676C46.2509 77.655 46.6422 77.6307 47.0304 77.5979L38.2545 60.0098C38.121 59.7422 37.7955 59.6342 37.5289 59.7672Z" fill="url(#paint33_linear_47_2640)" fill-opacity="0.2"/>
<path d="M30.9142 32.5703C33.7176 31.1715 37.1378 32.3147 38.5371 35.119C38.7081 35.4617 38.8442 35.8219 38.9427 36.1873C39.0198 36.4763 39.3167 36.6478 39.6056 36.5707C39.8973 36.4944 40.0657 36.1958 39.989 35.9078C39.8722 35.4721 39.7102 35.0444 39.5062 34.6355C37.8408 31.2979 33.7696 29.9364 30.432 31.6017C27.0944 33.2671 25.7329 37.3383 27.3987 40.6768L36.2799 58.476C36.4134 58.7436 36.738 58.8521 37.0056 58.7186C37.2731 58.5851 37.3816 58.2605 37.2481 57.993L28.3668 40.1937C26.9676 37.3894 28.1099 33.9696 30.9142 32.5703Z" fill="url(#paint34_linear_47_2640)" fill-opacity="0.2"/>
<path d="M39.9959 39.3777C40.0704 39.088 39.8994 38.7922 39.6097 38.7155C39.3186 38.6406 39.0255 38.8125 38.9475 39.1018C38.5311 40.6841 37.4536 42.0119 35.9897 42.7423C34.9186 43.2768 33.7298 43.4587 32.5524 43.2695C32.26 43.2209 31.979 43.4215 31.9322 43.7175C31.8837 44.0122 32.0847 44.2896 32.3803 44.3377C33.7812 44.5652 35.1973 44.3481 36.4724 43.7119C38.2145 42.8403 39.5007 41.2609 39.9959 39.3777Z" fill="url(#paint35_linear_47_2640)" fill-opacity="0.2"/>
<path d="M30.5903 36.0287C30.3104 35.9247 29.999 36.0689 29.8955 36.3497C29.5365 37.3256 29.5977 38.4182 30.0612 39.347C30.9943 41.2172 33.2731 41.9789 35.1432 41.0457C37.0125 40.113 37.7742 37.8342 36.841 35.9641C35.9798 34.238 33.9662 33.4345 32.1553 34.0944C31.8824 34.1971 31.7306 34.5087 31.8323 34.7887C31.9354 35.0692 32.2456 35.2139 32.5275 35.1113C33.8185 34.6392 35.2576 35.2141 35.8724 36.4463C36.5386 37.7813 35.9947 39.4105 34.6597 40.0767C33.3247 40.7428 31.695 40.1981 31.0289 38.8631C30.6927 38.1893 30.6522 37.4294 30.9113 36.7212C31.0157 36.4423 30.871 36.1322 30.5903 36.0287Z" fill="url(#paint36_linear_47_2640)" fill-opacity="0.2"/>
<path d="M34.1579 37.3039C33.9633 36.9138 33.4885 36.7551 33.0983 36.9497C32.7082 37.1444 32.5504 37.6188 32.745 38.0089C32.9397 38.399 33.4141 38.5568 33.8033 38.3626C34.1943 38.1675 34.3526 37.694 34.1579 37.3039Z" fill="url(#paint37_linear_47_2640)" fill-opacity="0.2"/>
<defs>
<linearGradient id="paint0_linear_47_2640" x1="63.2434" y1="46.076" x2="68.0716" y2="55.7523" gradientUnits="userSpaceOnUse">
<stop stop-color="#FD9F41"/>
<stop offset="1" stop-color="#EEC033"/>
</linearGradient>
<linearGradient id="paint1_linear_47_2640" x1="59.5449" y1="40.1509" x2="69.0284" y2="59.1572" gradientUnits="userSpaceOnUse">
<stop stop-color="#FD9F41"/>
<stop offset="1" stop-color="#EEC033"/>
</linearGradient>
<linearGradient id="paint2_linear_47_2640" x1="57.5449" y1="51.0907" x2="64.2335" y2="64.4957" gradientUnits="userSpaceOnUse">
<stop stop-color="#FD9F41"/>
<stop offset="1" stop-color="#EEC033"/>
</linearGradient>
<linearGradient id="paint3_linear_47_2640" x1="24.5017" y1="10.2144" x2="28.7812" y2="18.791" gradientUnits="userSpaceOnUse">
<stop stop-color="#FD9F41"/>
<stop offset="1" stop-color="#EEC033"/>
</linearGradient>
<linearGradient id="paint4_linear_47_2640" x1="55.4336" y1="31.734" x2="63.2057" y2="47.3103" gradientUnits="userSpaceOnUse">
<stop stop-color="#FD9F41"/>
<stop offset="1" stop-color="#EEC033"/>
</linearGradient>
<linearGradient id="paint5_linear_47_2640" x1="11.6252" y1="20.1213" x2="16.1142" y2="29.1178" gradientUnits="userSpaceOnUse">
<stop stop-color="#FD9F41"/>
<stop offset="1" stop-color="#EEC033"/>
</linearGradient>
<linearGradient id="paint6_linear_47_2640" x1="50.4667" y1="29.0279" x2="68.2771" y2="64.7222" gradientUnits="userSpaceOnUse">
<stop stop-color="#FD9F41"/>
<stop offset="1" stop-color="#EEC033"/>
</linearGradient>
<linearGradient id="paint7_linear_47_2640" x1="44.4757" y1="11.5127" x2="52.1253" y2="26.8435" gradientUnits="userSpaceOnUse">
<stop stop-color="#FD9F41"/>
<stop offset="1" stop-color="#EEC033"/>
</linearGradient>
<linearGradient id="paint8_linear_47_2640" x1="28.0894" y1="11.4484" x2="30.7343" y2="16.7491" gradientUnits="userSpaceOnUse">
<stop stop-color="#FD9F41"/>
<stop offset="1" stop-color="#EEC033"/>
</linearGradient>
<linearGradient id="paint9_linear_47_2640" x1="15.6691" y1="52.6291" x2="23.4016" y2="68.126" gradientUnits="userSpaceOnUse">
<stop stop-color="#FD9F41"/>
<stop offset="1" stop-color="#EEC033"/>
</linearGradient>
<linearGradient id="paint10_linear_47_2640" x1="52.0178" y1="52.1354" x2="60.9602" y2="70.0573" gradientUnits="userSpaceOnUse">
<stop stop-color="#FD9F41"/>
<stop offset="1" stop-color="#EEC033"/>
</linearGradient>
<linearGradient id="paint11_linear_47_2640" x1="23.1205" y1="16.9529" x2="42.3109" y2="55.413" gradientUnits="userSpaceOnUse">
<stop stop-color="#FD9F41"/>
<stop offset="1" stop-color="#EEC033"/>
</linearGradient>
<linearGradient id="paint12_linear_47_2640" x1="52.9392" y1="60.0429" x2="59.0077" y2="72.205" gradientUnits="userSpaceOnUse">
<stop stop-color="#FD9F41"/>
<stop offset="1" stop-color="#EEC033"/>
</linearGradient>
<linearGradient id="paint13_linear_47_2640" x1="12.0751" y1="28.8351" x2="32.8003" y2="70.3711" gradientUnits="userSpaceOnUse">
<stop stop-color="#FD9F41"/>
<stop offset="1" stop-color="#EEC033"/>
</linearGradient>
<linearGradient id="paint14_linear_47_2640" x1="45.7063" y1="31.6156" x2="58.0214" y2="56.2968" gradientUnits="userSpaceOnUse">
<stop stop-color="#FD9F41"/>
<stop offset="1" stop-color="#EEC033"/>
</linearGradient>
<linearGradient id="paint15_linear_47_2640" x1="45.5148" y1="20.1678" x2="49.8089" y2="28.7739" gradientUnits="userSpaceOnUse">
<stop stop-color="#FD9F41"/>
<stop offset="1" stop-color="#EEC033"/>
</linearGradient>
<linearGradient id="paint16_linear_47_2640" x1="27.8357" y1="17.6245" x2="31.5901" y2="25.1488" gradientUnits="userSpaceOnUse">
<stop stop-color="#FD9F41"/>
<stop offset="1" stop-color="#EEC033"/>
</linearGradient>
<linearGradient id="paint17_linear_47_2640" x1="16.1622" y1="40.8915" x2="22.2836" y2="53.1597" gradientUnits="userSpaceOnUse">
<stop stop-color="#FD9F41"/>
<stop offset="1" stop-color="#EEC033"/>
</linearGradient>
<linearGradient id="paint18_linear_47_2640" x1="22.6866" y1="54.5712" x2="32.8778" y2="74.9958" gradientUnits="userSpaceOnUse">
<stop stop-color="#FD9F41"/>
<stop offset="1" stop-color="#EEC033"/>
</linearGradient>
<linearGradient id="paint19_linear_47_2640" x1="46.0856" y1="42.4361" x2="60.8337" y2="71.9933" gradientUnits="userSpaceOnUse">
<stop stop-color="#FD9F41"/>
<stop offset="1" stop-color="#EEC033"/>
</linearGradient>
<linearGradient id="paint20_linear_47_2640" x1="35.9153" y1="17.5174" x2="47.5626" y2="40.8603" gradientUnits="userSpaceOnUse">
<stop stop-color="#FD9F41"/>
<stop offset="1" stop-color="#EEC033"/>
</linearGradient>
<linearGradient id="paint21_linear_47_2640" x1="19.1776" y1="24.9687" x2="24.3161" y2="35.2669" gradientUnits="userSpaceOnUse">
<stop stop-color="#FD9F41"/>
<stop offset="1" stop-color="#EEC033"/>
</linearGradient>
<linearGradient id="paint22_linear_47_2640" x1="17.593" y1="34.0207" x2="33.4637" y2="65.8278" gradientUnits="userSpaceOnUse">
<stop stop-color="#FD9F41"/>
<stop offset="1" stop-color="#EEC033"/>
</linearGradient>
<linearGradient id="paint23_linear_47_2640" x1="32.681" y1="68.5385" x2="36.6868" y2="76.5666" gradientUnits="userSpaceOnUse">
<stop stop-color="#FD9F41"/>
<stop offset="1" stop-color="#EEC033"/>
</linearGradient>
<linearGradient id="paint24_linear_47_2640" x1="41.4279" y1="49.0946" x2="54.5397" y2="75.3724" gradientUnits="userSpaceOnUse">
<stop stop-color="#FD9F41"/>
<stop offset="1" stop-color="#EEC033"/>
</linearGradient>
<linearGradient id="paint25_linear_47_2640" x1="29.7065" y1="22.7392" x2="42.8222" y2="49.0248" gradientUnits="userSpaceOnUse">
<stop stop-color="#FD9F41"/>
<stop offset="1" stop-color="#EEC033"/>
</linearGradient>
<linearGradient id="paint26_linear_47_2640" x1="27.3226" y1="26.953" x2="39.3649" y2="51.0874" gradientUnits="userSpaceOnUse">
<stop stop-color="#FD9F41"/>
<stop offset="1" stop-color="#EEC033"/>
</linearGradient>
<linearGradient id="paint27_linear_47_2640" x1="46.5606" y1="65.444" x2="52.0933" y2="76.5323" gradientUnits="userSpaceOnUse">
<stop stop-color="#FD9F41"/>
<stop offset="1" stop-color="#EEC033"/>
</linearGradient>
<linearGradient id="paint28_linear_47_2640" x1="30.9537" y1="59.0158" x2="40.1667" y2="77.4799" gradientUnits="userSpaceOnUse">
<stop stop-color="#FD9F41"/>
<stop offset="1" stop-color="#EEC033"/>
</linearGradient>
<linearGradient id="paint29_linear_47_2640" x1="36.6811" y1="31.7018" x2="50.9221" y2="60.2426" gradientUnits="userSpaceOnUse">
<stop stop-color="#FD9F41"/>
<stop offset="1" stop-color="#EEC033"/>
</linearGradient>
<linearGradient id="paint30_linear_47_2640" x1="31.7053" y1="27.7923" x2="55.0532" y2="74.5848" gradientUnits="userSpaceOnUse">
<stop stop-color="#FD9F41"/>
<stop offset="1" stop-color="#EEC033"/>
</linearGradient>
<linearGradient id="paint31_linear_47_2640" x1="23.4819" y1="33.9429" x2="28.866" y2="44.7333" gradientUnits="userSpaceOnUse">
<stop stop-color="#FD9F41"/>
<stop offset="1" stop-color="#EEC033"/>
</linearGradient>
<linearGradient id="paint32_linear_47_2640" x1="28.3807" y1="47.7985" x2="43.3885" y2="77.8762" gradientUnits="userSpaceOnUse">
<stop stop-color="#FD9F41"/>
<stop offset="1" stop-color="#EEC033"/>
</linearGradient>
<linearGradient id="paint33_linear_47_2640" x1="37.5289" y1="59.7672" x2="46.5463" y2="77.8395" gradientUnits="userSpaceOnUse">
<stop stop-color="#FD9F41"/>
<stop offset="1" stop-color="#EEC033"/>
</linearGradient>
<linearGradient id="paint34_linear_47_2640" x1="30.4316" y1="31.6019" x2="42.5752" y2="55.9395" gradientUnits="userSpaceOnUse">
<stop stop-color="#FD9F41"/>
<stop offset="1" stop-color="#EEC033"/>
</linearGradient>
<linearGradient id="paint35_linear_47_2640" x1="35.5138" y1="40.6094" x2="36.9444" y2="43.4763" gradientUnits="userSpaceOnUse">
<stop stop-color="#FD9F41"/>
<stop offset="1" stop-color="#EEC033"/>
</linearGradient>
<linearGradient id="paint36_linear_47_2640" x1="31.7688" y1="34.2841" x2="35.1428" y2="41.0459" gradientUnits="userSpaceOnUse">
<stop stop-color="#FD9F41"/>
<stop offset="1" stop-color="#EEC033"/>
</linearGradient>
<linearGradient id="paint37_linear_47_2640" x1="33.0988" y1="36.9495" x2="33.8038" y2="38.3624" gradientUnits="userSpaceOnUse">
<stop stop-color="#FD9F41"/>
<stop offset="1" stop-color="#EEC033"/>
</linearGradient>
</defs>
</svg>
