<svg version="1.2" xmlns="http://www.w3.org/2000/svg" viewBox="0 0 56 76" width="56" height="76">
	<title>5972733_21834</title>
	<style>
		.s0 { fill: #000000 } 
	</style>
	<g>
		<path class="s0" d="m21.8 49.2c2.4 0 4.8-0.8 6.8-2.4 0.2-0.2 0.2-0.6 0-0.8-0.2-0.2-0.5-0.3-0.7-0.1-3.7 3.1-9.3 2.9-12.8-0.6l-12.2-12.2q-0.1 0.7-0.1 1.4l11.6 11.6c2 2 4.7 3.1 7.4 3.1z"/>
		<path class="s0" d="m29.9 44.5q0.2 0.1 0.3 0.1c0.2 0 0.4-0.1 0.5-0.2 2.5-3.7 2.3-8.6-0.3-12.1-0.2-0.3-0.5-0.3-0.8-0.1-0.2 0.1-0.3 0.5-0.1 0.7 2.4 3.2 2.5 7.6 0.3 10.9-0.2 0.2-0.1 0.6 0.1 0.7z"/>
		<path class="s0" d="m26.9 12.6c0.2-0.2 0.2-0.6 0-0.8-0.2-0.2-0.5-0.2-0.7 0l-6.3 6.3c-1.4 1.4-1.4 3.7 0 5.1l6.8 6.8q0.2 0.1 0.4 0.1 0.2 0 0.4-0.1c0.2-0.2 0.2-0.6 0-0.8l-6.8-6.8c-1-1-1-2.6 0-3.6z"/>
		<path class="s0" d="m28.7 10.1c0.2 0.2 0.5 0.2 0.7 0l6.4-6.4q-0.5-0.2-1.1-0.4l-6 6c-0.3 0.2-0.3 0.6 0 0.8z"/>
		<path class="s0" d="m21.8 21.3l8.7 8.7c2.3 2.3 3.6 5.3 3.6 8.6 0 3.2-1.3 6.3-3.6 8.6l-0.1 0.1c-4.7 4.7-12.4 4.7-17.2 0l-5.9-6c-0.2-0.2-0.5-0.2-0.7 0-0.3 0.3-0.3 0.6 0 0.8l5.9 5.9c5.1 5.2 13.5 5.2 18.7 0l0.1-0.1c2.5-2.5 3.9-5.8 3.9-9.3 0-3.6-1.4-6.9-3.9-9.4l-8.6-8.6 15.7-15.6q-0.5-0.3-1-0.6l-15.6 15.6c-0.3 0.3-0.3 0.9 0 1.3z"/>
		<path class="s0" d="m4.3 39.6q0.2 0 0.3-0.2c0.2-0.2 0.2-0.5 0-0.7l-1.9-2q0 0.6 0 1.1 0 0.2 0 0.4l1.2 1.2q0.1 0.2 0.4 0.2z"/>
		<path class="s0" d="m15.8 53.4c0.3 0.1 0.6 0 0.7-0.3 0.1-0.3 0-0.6-0.3-0.7q-2.8-1.1-4.9-3.2l-8.6-8.6q0 0.8 0.1 1.5l7.8 7.8q2.2 2.3 5.2 3.5z"/>
		<path class="s0" d="m27.4 19c0.2 0.2 0.6 0.2 0.8 0l12.5-12.5q-0.5-0.4-0.9-0.7l-12.4 12.4c-0.2 0.2-0.2 0.6 0 0.8z"/>
		<path class="s0" d="m21.8 54.6c4.2 0 8.3-1.7 11.3-4.7l0.1-0.1c6.2-6.2 6.2-16.3 0-22.5l-5.3-5.3c-0.2-0.2-0.6-0.2-0.8 0-0.2 0.2-0.2 0.5 0 0.8l5.3 5.3c2.8 2.8 4.4 6.5 4.4 10.5 0 3.9-1.6 7.7-4.4 10.5l-0.1 0.1c-3.3 3.3-8 4.8-12.7 4.2-0.3-0.1-0.5 0.1-0.6 0.4 0 0.3 0.2 0.6 0.5 0.6q1.1 0.2 2.3 0.2z"/>
		<path class="s0" d="m11.1 53.9c0.3 0.2 0.6 0.2 0.8-0.1 0.2-0.2 0.1-0.6-0.1-0.7q-1.3-0.9-2.4-2l-6.5-6.5q0.1 0.9 0.2 1.8l5.5 5.4q1.2 1.2 2.5 2.1z"/>
		<path class="s0" d="m29.2 21l5.1 5.1c3.4 3.3 5.2 7.8 5.2 12.5 0 4.7-1.8 9.1-5.2 12.4l-0.1 0.1c-5.2 5.2-13.2 6.6-19.9 3.4-0.3-0.1-0.6 0-0.8 0.3-0.1 0.2 0 0.6 0.3 0.7 7.1 3.4 15.6 1.9 21.2-3.7l0.1-0.1c3.5-3.5 5.5-8.2 5.5-13.1 0-5-2-9.7-5.5-13.2l-4.7-4.8 12.4-12.4q-0.4-0.4-0.8-0.7l-12.8 12.7c-0.2 0.3-0.2 0.6 0 0.8z"/>
		<path class="s0" d="m35.3 18.7c0.2 0.3 0.6 0.3 0.8 0l8.6-8.6q-0.4-0.4-0.7-0.8l-8.7 8.7c-0.2 0.2-0.2 0.5 0 0.7z"/>
		<path class="s0" d="m36.6 54.1c0.2-0.2 0.2-0.6 0-0.8-0.2-0.2-0.5-0.2-0.8 0-7.9 7.6-20.6 7.4-28.3-0.3l-3.9-3.9q0.2 1 0.4 1.9l2.7 2.8c8.2 8.1 21.6 8.3 29.9 0.3z"/>
		<path class="s0" d="m33.7 20.9c-0.2 0.2-0.2 0.5 0 0.7l2.6 2.6c6.9 7 7.9 17.9 2.3 26-0.2 0.2-0.2 0.5 0.1 0.7q0.1 0.1 0.3 0.1c0.2 0 0.3-0.1 0.4-0.2 6-8.5 5-20-2.4-27.3l-2.6-2.6c-0.2-0.2-0.5-0.2-0.7 0z"/>
		<path class="s0" d="m38.8 55.7l0.1-0.1c9.4-9.4 9.4-24.7 0-34.1l-0.9-0.9 8.4-8.4q-0.3-0.4-0.6-0.9l-8.9 8.9q-0.2 0.2-0.2 0.4 0 0.2 0.2 0.4l1.3 1.3c8.9 9 8.9 23.5 0 32.5l-0.1 0.1c-4.4 4.3-10.1 6.7-16.3 6.7-6.1 0-11.9-2.4-16.2-6.7l-0.7-0.7q0.4 1.2 0.9 2.4c4.4 3.9 10 6.1 16 6.1 6.5 0 12.5-2.5 17-7z"/>
		<path class="s0" d="m40.8 57.6l0.1-0.1c3-3 5.2-6.7 6.5-10.8 0.1-0.3-0.1-0.6-0.3-0.7-0.3-0.1-0.6 0.1-0.7 0.4-1.3 3.9-3.4 7.4-6.3 10.3l-0.1 0.1c-9 9-22.7 10-32.8 3q0.5 1 1.1 2c10.3 6.1 23.6 4.6 32.5-4.2z"/>
		<path class="s0" d="m40.7 21c5.3 5.7 7.8 13.5 6.6 21.2 0 0.3 0.2 0.6 0.5 0.7 0.3 0 0.6-0.2 0.6-0.5 1.1-7.9-1.3-15.8-6.6-21.8l6.2-6.1q-0.3-0.5-0.6-1l-6.7 6.7c-0.2 0.3-0.2 0.6 0 0.8z"/>
		<path class="s0" d="m23.6 68.1c0.3 0 0.5-0.2 0.5-0.5 0-0.3-0.3-0.6-0.6-0.5-4.6 0.2-9.2-0.6-13.4-2.6q0.7 1 1.4 1.8c3.8 1.4 7.9 2.1 12.1 1.8z"/>
		<path class="s0" d="m46.4 19.1c0.2 0.3 0.5 0.3 0.8 0l2.2-2.2q-0.2-0.5-0.5-1l-2.5 2.5c-0.2 0.2-0.2 0.5 0 0.7z"/>
		<path class="s0" d="m45.6 21c-0.2-0.3-0.5-0.3-0.8-0.1-0.2 0.1-0.3 0.5-0.1 0.7 8.5 11.4 7.4 26.9-2.7 37l-0.1 0.1c-4 4-8.9 6.7-14.4 7.8-0.3 0.1-0.5 0.4-0.4 0.7 0.1 0.2 0.3 0.4 0.5 0.4q0.1 0 0.1 0c5.7-1.2 10.8-4 15-8.1l0.1-0.1c10.4-10.5 11.6-26.6 2.8-38.4z"/>
		<path class="s0" d="m47.8 21.4c7.6 11.3 6.8 26.5-1.9 37-0.2 0.2-0.2 0.6 0 0.8 0.3 0.2 0.6 0.1 0.8-0.1 8.9-10.7 9.8-26.3 2.3-38l1.7-1.6q-0.3-0.6-0.5-1.1l-2.3 2.3c-0.2 0.2-0.2 0.4-0.1 0.7z"/>
		<path class="s0" d="m43.8 62.1c0.2-0.2 0.2-0.5 0-0.7-0.2-0.2-0.5-0.2-0.7 0-8.1 7.5-19.1 10.1-29.3 7.3q0.9 0.9 1.8 1.6c9.9 1.9 20.4-0.8 28.2-8.2z"/>
		<path class="s0" d="m45.7 62.6c-6.4 6.3-14.9 9.9-23.9 9.9q-1.6 0-3.2-0.2 1.3 0.7 2.5 1.2 0.4 0 0.7 0c9.3 0 18.1-3.6 24.7-10.2l0.1-0.1q1.8-1.8 3.3-3.8 1.3-2.6 2.2-5.7c-1.5 3.2-3.7 6.1-6.3 8.8z"/>
		<path class="s0" d="m52 23.2q-0.3-1.1-0.7-2.1c-0.1 0.2-0.2 0.4 0 0.6q0.4 0.8 0.7 1.5z"/>
		<path class="s0" d="m28.4 75q0 0 0 0 0.1 0 0.1 0c5.6 0 11.4-2.7 16.1-7.8-5.2 4.2-11.5 6.9-18.3 7.7q1.1 0.1 2.1 0.1z"/>
		<path class="s0" d="m21.8 43.5c1.3 0 2.5-0.5 3.4-1.4l0.2-0.1c1.8-1.9 1.8-5 0-6.9l-8.7-8.7c-3.2-3.2-3.2-8.4 0-11.6l12.5-12.6q-0.3 0-0.7 0 0 0-0.1 0 0 0 0 0-0.3 0-0.7 0l-11.8 11.8c-3.6 3.7-3.6 9.6 0 13.2l8.7 8.7c1.5 1.5 1.5 3.9 0 5.3l-0.1 0.1c-1.4 1.4-3.9 1.4-5.3 0l-15.2-15.1q-0.1 0.6-0.3 1.2l14.7 14.7c0.9 0.9 2.1 1.4 3.4 1.4z"/>
		<path class="s0" d="m22.6 39.4c-0.4 0.4-1.1 0.4-1.5 0l-3.8-3.8c-0.2-0.2-0.6-0.2-0.8 0-0.2 0.2-0.2 0.5 0 0.8l3.8 3.8c0.4 0.4 1 0.6 1.5 0.6 0.6 0 1.1-0.2 1.5-0.6l0.1-0.1c0.4-0.4 0.7-1 0.7-1.5 0-0.6-0.3-1.2-0.7-1.6l-8.6-8.6c-3.8-3.8-4.3-10-1.1-14.3 0.2-0.2 0.1-0.6-0.1-0.7-0.3-0.2-0.6-0.2-0.8 0.1-3.5 4.7-3 11.4 1.2 15.6l8.7 8.7q0.3 0.3 0.3 0.8 0 0.4-0.3 0.7z"/>
		<path class="s0" d="m15 11.8c0.2 0.3 0.6 0.3 0.8 0l9.4-9.3q-1.1 0.2-2.1 0.5l-8.1 8.1c-0.2 0.2-0.2 0.5 0 0.7z"/>
		<path class="s0" d="m14.3 33.9q0.2 0 0.4-0.1c0.2-0.2 0.2-0.6 0-0.8l-9.9-9.8q-0.1 0.6-0.3 1.1l9.4 9.5q0.2 0.1 0.4 0.1z"/>
		<path class="s0" d="m8.7 24.5c0.3 0 0.6-0.2 0.6-0.5q0-0.2-0.1-0.3c-1.1-4.6 0.3-9.4 3.6-12.7l6.5-6.4q-2.9 1.5-5.5 3.9l-1.2 1.2q-1.4 1.4-2.6 3.2c-1.8 2.8-2.5 6.1-2.1 9.5l-2-2q-0.3 0.5-0.5 1.1l2.9 2.9q0.2 0.1 0.4 0.1z"/>
		<path class="s0" d="m21.8 46.3c2 0 4-0.7 5.5-2.2l0.1-0.1c1.4-1.5 2.2-3.4 2.2-5.4 0-2.1-0.8-4-2.2-5.5l-8.7-8.7c-1-1-1.6-2.3-1.6-3.8 0-1.4 0.6-2.8 1.6-3.8l14.1-14.1q-0.7-0.1-1.3-0.3l-13.6 13.6c-2.5 2.6-2.5 6.7 0 9.2l8.7 8.7c1.2 1.2 1.9 2.9 1.9 4.7 0 1.7-0.7 3.4-1.9 4.6l-0.1 0.1c-2.6 2.6-6.8 2.6-9.3 0l-13.9-13.8q-0.1 0.7-0.2 1.4l13.3 13.2c1.5 1.5 3.5 2.2 5.4 2.2z"/>
	</g>
</svg>