<svg version="1.2" xmlns="http://www.w3.org/2000/svg" viewBox="0 0 58 76" width="58" height="76">
	<title>5972733_21834</title>
	<style>
		.s0 { fill: #000000 } 
	</style>
	<g>
		<path class="s0" d="m47.6 57.7q-0.2 0.1-0.2 0.4v5.6q0.6-0.8 1.1-1.7v-3.7q1.6-1.3 3-2.8 0.5-1.2 0.9-2.6-2.1 2.6-4.8 4.8z"/>
		<path class="s0" d="m45 56.3q-0.3 0.2-0.3 0.5v10.4q0.6-0.6 1.1-1.2v-9c3-2.2 5.5-5 7.5-8.1q0.3-1.4 0.5-2.9c-2.1 4-5.1 7.6-8.8 10.3z"/>
		<path class="s0" d="m42.6 54.9c-0.3 0-0.6 0.2-0.6 0.5v14.5q0.6-0.5 1.1-1v-13.5c0-0.3-0.2-0.5-0.5-0.5z"/>
		<path class="s0" d="m46.9 13.1q-2.3-3.1-5-5.4c-4.4-2.6-9.5-4.2-14.9-4.2q-3.6 0.1-7 0.9-2.3 1.1-4.3 2.7c3.4-1.6 7.3-2.5 11.3-2.5 7.8 0 14.8 3.3 19.9 8.5z"/>
		<path class="s0" d="m54.1 38.1q0-0.8 0-1.5c-1.1 6.4-4.4 12.2-9.4 16.5-0.2 0.2-0.2 0.5-0.1 0.7 0.2 0.3 0.6 0.3 0.8 0.1 4.1-3.5 7.1-7.9 8.7-12.8q0-0.7 0-1.4 0-0.4 0-0.8 0-0.4 0-0.8z"/>
		<path class="s0" d="m22.6 7.7c0.2 0 0.4-0.3 0.4-0.6-0.1-0.3-0.4-0.5-0.6-0.4-4.5 0.8-8.5 2.7-11.7 5.4q-1.7 2.1-3.1 4.6c3.6-4.6 8.9-7.9 15-9z"/>
		<path class="s0" d="m52.9 32.5c0-0.3-0.3-0.5-0.6-0.5-0.3 0-0.5 0.2-0.5 0.5-0.2 8.5-4.8 16.5-12.2 20.9-0.2 0.1-0.3 0.3-0.3 0.5v18q0.6-0.4 1.1-0.8v-16.9c7.5-4.6 12.3-12.9 12.5-21.7z"/>
		<path class="s0" d="m44.5 13.8c-0.2 0.2-0.2 0.5 0 0.7 4.2 4.3 6.8 9.8 7.2 15.8 0 0.2 0.3 0.5 0.5 0.5q0.1 0 0.1 0c0.3-0.1 0.5-0.3 0.5-0.6-0.5-6.2-3.2-12-7.6-16.4-0.2-0.2-0.5-0.2-0.7 0z"/>
		<path class="s0" d="m25.9 6.3c-0.3 0-0.5 0.2-0.5 0.5 0 0.3 0.2 0.5 0.6 0.6q0.5-0.1 1-0.1c5.3 0 10.3 1.7 14.6 4.8q0.1 0.1 0.3 0.1 0.2 0 0.4-0.3c0.2-0.2 0.1-0.5-0.1-0.7-4.4-3.2-9.7-5-15.2-5q-0.5 0-1.1 0.1z"/>
		<path class="s0" d="m4.4 37.6c-0.3 0-0.5 0.2-0.5 0.5v13q0.4 1.9 1.1 3.8v-16.8c0-0.3-0.3-0.5-0.6-0.5z"/>
		<path class="s0" d="m37.2 53.3c-0.3 0-0.6 0.3-0.6 0.6v19.5q0.6-0.3 1.1-0.6v-18.9c0-0.3-0.2-0.6-0.5-0.6z"/>
		<path class="s0" d="m50.1 32.1c0-12.8-10.3-23.1-23.1-23.1-12.7 0-23.1 10.3-23.1 23.1v2.7c0 0.3 0.2 0.6 0.5 0.6 0.3 0 0.6-0.3 0.6-0.6v-2.7c0-12.2 9.8-22.1 22-22.1 12.2 0 22.1 9.9 22.1 22.1 0 7.6-4.1 14.8-10.7 18.8-0.2 0.2-0.3 0.5-0.1 0.8 0.1 0.1 0.2 0.2 0.4 0.2q0.2 0 0.3 0c6.9-4.3 11.1-11.8 11.1-19.8z"/>
		<path class="s0" d="m34.5 60.8c-0.3 0-0.6 0.3-0.6 0.6v13q0.6-0.2 1.1-0.4v-12.6c0-0.3-0.2-0.6-0.5-0.6z"/>
		<path class="s0" d="m16.8 15.7c0.3-0.2 0.3-0.5 0.2-0.8-0.2-0.2-0.5-0.3-0.8-0.2-6 3.8-9.6 10.3-9.6 17.4v26.8q0.5 1.1 1.1 2.2v-29c0-6.7 3.4-12.9 9.1-16.4z"/>
		<path class="s0" d="m47.4 32.7c0-0.3-0.2-0.5-0.5-0.5q0 0 0 0c-0.3 0-0.5 0.2-0.5 0.5-0.3 7.6-5 14.5-12.2 17.3-0.2 0.1-0.3 0.3-0.3 0.5v8.7c0 0.3 0.3 0.5 0.6 0.5 0.3 0 0.5-0.2 0.5-0.5v-8.3c7.3-3.1 12.2-10.2 12.4-18.2z"/>
		<path class="s0" d="m46.9 31.4q0 0 0 0c0.3 0 0.5-0.2 0.5-0.5-0.2-3.1-1-6.1-2.6-8.8-0.1-0.3-0.4-0.3-0.7-0.2-0.3 0.1-0.4 0.5-0.2 0.7 1.4 2.6 2.3 5.4 2.4 8.3 0 0.3 0.3 0.5 0.6 0.5z"/>
		<path class="s0" d="m27 11.7c-2.7 0-5.3 0.5-7.8 1.5-0.2 0.1-0.4 0.4-0.3 0.7 0.1 0.3 0.5 0.4 0.7 0.3 2.4-1 4.9-1.5 7.4-1.5 5.8 0 11.3 2.6 15 7.2q0.2 0.2 0.4 0.2 0.2 0 0.4-0.2c0.2-0.1 0.2-0.5 0-0.7-3.9-4.8-9.6-7.5-15.8-7.5z"/>
		<path class="s0" d="m10.5 27.3c-0.3-0.1-0.6 0.1-0.7 0.4q-0.5 2.1-0.5 4.4v8.3c0 0.3 0.2 0.6 0.5 0.6 0.3 0 0.6-0.3 0.6-0.6v-8.3q0-2.1 0.5-4.2c0.1-0.2-0.1-0.5-0.4-0.6z"/>
		<path class="s0" d="m9.8 42.4c-0.3 0-0.5 0.3-0.5 0.6v20.7q0.5 0.8 1.1 1.5v-22.2c0-0.3-0.3-0.6-0.6-0.6z"/>
		<path class="s0" d="m41 42.9c0.2-0.3 0.2-0.6-0.1-0.8-0.2-0.2-0.5-0.1-0.7 0.1-2.2 2.8-5.2 4.9-8.6 5.9-0.2 0.1-0.4 0.3-0.4 0.5v26.4q0.5 0 1.1-0.2v-25.8c3.4-1.1 6.5-3.2 8.7-6.1z"/>
		<path class="s0" d="m32.4 15.2c-0.3-0.1-0.6 0.1-0.7 0.4-0.1 0.2 0.1 0.5 0.4 0.6 6.9 2.2 11.6 8.6 11.6 15.9 0 2.9-0.8 5.8-2.3 8.3-0.2 0.3-0.1 0.6 0.2 0.8q0.1 0.1 0.2 0.1c0.2 0 0.4-0.1 0.5-0.3 1.6-2.7 2.4-5.8 2.4-8.9 0-7.8-4.9-14.5-12.3-16.9z"/>
		<path class="s0" d="m27 15.5q0.8-0.1 1.5 0c0.4 0.1 0.6-0.2 0.6-0.5 0.1-0.3-0.2-0.5-0.5-0.6q-0.8 0-1.6 0c-7.1 0-13.5 4.2-16.3 10.7-0.1 0.3 0 0.6 0.3 0.7q0.1 0.1 0.2 0.1c0.2 0 0.4-0.1 0.5-0.3 2.6-6.2 8.6-10.1 15.3-10.1z"/>
		<path class="s0" d="m16.7 21.9c-0.2-0.2-0.5-0.2-0.7 0-2.6 2.8-4 6.4-4 10.2v24.7c0 0.3 0.2 0.5 0.5 0.5 0.3 0 0.6-0.2 0.6-0.5v-24.7c0-3.5 1.3-6.9 3.7-9.4 0.2-0.3 0.1-0.6-0.1-0.8z"/>
		<path class="s0" d="m12.5 59.4c-0.3 0-0.5 0.2-0.5 0.5v7.3q0.5 0.6 1.1 1.2v-8.5c0-0.3-0.3-0.5-0.6-0.5z"/>
		<path class="s0" d="m29 45.9c-0.3 0-0.5 0.2-0.5 0.5v28.9q0.5 0 1.1-0.1v-28.8c0-0.3-0.3-0.5-0.6-0.5z"/>
		<path class="s0" d="m31.5 46.4c6.3-2 10.5-7.7 10.5-14.3 0-8.3-6.7-15-15-15-2.9 0-5.7 0.8-8.1 2.4-0.3 0.1-0.4 0.5-0.2 0.7 0.2 0.3 0.5 0.4 0.7 0.2 2.3-1.5 4.9-2.2 7.6-2.2 7.7 0 13.9 6.2 13.9 13.9 0 6.1-3.9 11.5-9.7 13.3-0.3 0.1-0.5 0.4-0.4 0.7 0.1 0.2 0.3 0.4 0.6 0.4q0-0.1 0.1-0.1z"/>
		<path class="s0" d="m27 20.9c4.1 0 7.9 2.2 9.9 5.9 0.1 0.2 0.5 0.3 0.7 0.2 0.3-0.2 0.4-0.5 0.2-0.7-2.1-4-6.3-6.5-10.8-6.5-6.8 0-12.3 5.5-12.3 12.3v14.1c0 0.3 0.2 0.6 0.5 0.6 0.3 0 0.6-0.3 0.6-0.6v-14.1c0-6.2 5-11.2 11.2-11.2z"/>
		<path class="s0" d="m26.3 62.8c-0.3 0-0.5 0.3-0.5 0.6v11.7q0.5 0.1 1.1 0.1v-11.8c0-0.3-0.3-0.6-0.6-0.6z"/>
		<path class="s0" d="m15.2 50.1c-0.3 0-0.5 0.2-0.5 0.5v19.3q0.5 0.4 1.1 0.8v-20.1c0-0.3-0.3-0.5-0.6-0.5z"/>
		<path class="s0" d="m39.3 32.1q0-1.8-0.5-3.5c-0.1-0.3-0.4-0.5-0.7-0.4-0.2 0.1-0.4 0.4-0.3 0.7q0.4 1.6 0.4 3.2c0 6.2-5 11.2-11.2 11.2q-0.3 0-0.6 0-0.3 0-0.4 0.2-0.2 0.1-0.2 0.3v15.8c0 0.3 0.2 0.5 0.5 0.5 0.3 0 0.6-0.2 0.6-0.5v-15.2q0 0 0.1 0c6.8 0 12.3-5.5 12.3-12.3z"/>
		<path class="s0" d="m36.6 32.1c0-5.3-4.3-9.6-9.6-9.6q-1.5 0-3 0.5c-0.3 0.1-0.4 0.4-0.3 0.7 0.1 0.2 0.4 0.4 0.6 0.3q1.3-0.4 2.7-0.4c4.7 0 8.5 3.8 8.5 8.5 0 4.7-3.8 8.5-8.5 8.5q-1.7 0-3.2-0.6-0.2-0.1-0.5 0.1-0.2 0.1-0.2 0.4v34q0.5 0.2 1.1 0.3v-33.5q1.3 0.4 2.8 0.4c5.3 0 9.6-4.3 9.6-9.6z"/>
		<path class="s0" d="m21.9 25.3c0.2-0.2 0.3-0.5 0.1-0.8-0.2-0.2-0.5-0.3-0.8-0.1-2.4 1.9-3.8 4.7-3.8 7.7v3.7c0 0.3 0.2 0.6 0.5 0.6 0.3 0 0.6-0.3 0.6-0.6v-3.7c0-2.7 1.2-5.2 3.4-6.8z"/>
		<path class="s0" d="m17.9 38.9c-0.3 0-0.5 0.2-0.5 0.5v32.5q0.5 0.3 1.1 0.6v-33.1c0-0.3-0.3-0.5-0.6-0.5z"/>
		<path class="s0" d="m20.8 53.7c-0.3 0-0.6 0.2-0.6 0.5v19.2q0.6 0.3 1.1 0.5v-19.7c0-0.3-0.2-0.5-0.5-0.5z"/>
		<path class="s0" d="m27 26.4c3.1 0 5.7 2.6 5.7 5.7q0 0.6-0.1 1.1c-0.1 0.3 0.1 0.6 0.4 0.7 0.3 0 0.6-0.2 0.6-0.5q0.2-0.6 0.2-1.3c0-3.7-3.1-6.8-6.8-6.8-3.7 0-6.8 3.1-6.8 6.8v19.9c0 0.3 0.3 0.5 0.6 0.5 0.3 0 0.5-0.2 0.5-0.5v-19.9c0-3.1 2.6-5.7 5.7-5.7z"/>
		<path class="s0" d="m32.1 36.6c0.2-0.3 0.2-0.6-0.1-0.8-0.2-0.2-0.5-0.2-0.7 0-1.1 1.3-2.7 2-4.3 2-1.2 0-2.3-0.4-3.3-1.1-0.2-0.2-0.6-0.1-0.8 0.1-0.1 0.3-0.1 0.6 0.2 0.8 1.1 0.8 2.5 1.3 3.9 1.3 2 0 3.8-0.9 5.1-2.3z"/>
		<path class="s0" d="m25.2 29.4c-0.2-0.3-0.6-0.3-0.8-0.1-0.7 0.7-1.2 1.8-1.2 2.8 0 2.1 1.7 3.8 3.8 3.8 2.1 0 3.8-1.7 3.8-3.8 0-1.9-1.4-3.6-3.4-3.8-0.2 0-0.5 0.2-0.6 0.5 0 0.3 0.2 0.6 0.5 0.6 1.4 0.2 2.4 1.3 2.4 2.7 0 1.5-1.2 2.7-2.7 2.7-1.5 0-2.7-1.2-2.7-2.7 0-0.8 0.3-1.5 0.9-2 0.2-0.2 0.2-0.5 0-0.7z"/>
		<path class="s0" d="m27.8 32.1c0-0.4-0.4-0.8-0.8-0.8-0.4 0-0.8 0.4-0.8 0.8 0 0.4 0.4 0.8 0.8 0.8 0.4 0 0.8-0.4 0.8-0.8z"/>
	</g>
</svg>