<svg width="195" height="297" viewBox="0 0 195 297" fill="none" xmlns="http://www.w3.org/2000/svg">
<path d="M151.636 130.389C160.494 134.447 168.066 141.591 172.621 151.119C173.162 152.248 172.721 153.622 171.635 154.186C170.555 154.747 169.243 154.284 168.696 153.157C159.98 134.88 138.862 126.39 120.627 133.814L55.3191 160.376C55.9296 158.484 56.5762 156.59 57.2511 154.682L119.031 129.551C129.846 125.156 141.571 125.778 151.636 130.389Z" fill="url(#paint0_linear_61_88)" fill-opacity="0.1"/>
<path d="M174.133 162.023C174.575 161.939 175.008 162.004 175.389 162.179C176.041 162.477 176.54 163.098 176.668 163.876C179.767 182.313 171.37 200.916 155.778 210.155C154.73 210.786 153.376 210.391 152.798 209.297C152.195 208.2 152.57 206.804 153.618 206.182C167.602 197.889 175.135 181.201 172.36 164.664C172.148 163.423 172.946 162.24 174.133 162.023Z" fill="url(#paint1_linear_61_88)" fill-opacity="0.1"/>
<path d="M110.976 280.424C111.415 281.598 110.857 282.924 109.73 283.385C108.609 283.845 107.331 283.259 106.896 282.087L93.9316 247.391C90.9869 239.509 94.739 230.591 102.293 227.518L138.49 212.794C139.05 212.567 139.654 212.599 140.166 212.833C140.681 213.069 141.109 213.51 141.328 214.094C141.761 215.27 141.203 216.596 140.082 217.055L103.881 231.777C98.5768 233.935 95.9436 240.193 98.0113 245.728L110.976 280.424Z" fill="url(#paint2_linear_61_88)" fill-opacity="0.1"/>
<path d="M113.339 293.049C114.464 292.591 115.738 293.175 116.176 294.349L129.432 329.833C127.822 329.796 126.224 329.719 124.64 329.588L112.093 296.01C111.66 294.834 112.216 293.512 113.339 293.049Z" fill="url(#paint3_linear_61_88)" fill-opacity="0.1"/>
<path d="M106.27 238.163L152.566 219.328C164.782 214.362 174.421 204.706 179.707 192.143C184.993 179.579 185.28 165.644 180.515 152.889L180.309 152.328C170.463 125.972 141.894 112.894 116.647 123.163L85.1237 135.989C83.9989 136.447 82.7246 135.863 82.2898 134.691C81.8513 133.517 82.4092 132.191 83.5357 131.73L115.059 118.904C142.558 107.725 173.663 121.97 184.393 150.677L184.599 151.237C189.788 165.118 189.477 180.296 183.721 193.977C177.965 207.657 167.47 218.17 154.161 223.581L108.443 242.178L140.986 329.29C139.461 329.458 137.942 329.602 136.436 329.695L104.134 243.229C103.388 241.222 104.346 238.945 106.27 238.163Z" fill="url(#paint4_linear_61_88)" fill-opacity="0.1"/>
<path d="M70.9208 137.578C71.4357 137.814 71.8607 138.253 72.0826 138.839C72.5211 140.013 71.9633 141.339 70.8368 141.8L60.5145 146.002C61.0725 144.603 61.6033 143.204 62.1953 141.797C62.4312 141.237 62.6744 140.68 62.9139 140.121L69.2487 137.541C69.8084 137.313 70.4059 137.342 70.9208 137.578Z" fill="url(#paint5_linear_61_88)" fill-opacity="0.1"/>
<path d="M136.227 103.693C137.441 103.728 138.39 104.78 138.356 106.037C138.324 107.3 137.314 108.294 136.107 108.262C128.085 108.027 120.199 109.463 112.672 112.525L66.7515 131.204C67.6607 129.158 68.5878 127.144 69.5347 125.166L111.084 108.265C119.151 104.981 127.615 103.441 136.227 103.693Z" fill="url(#paint6_linear_61_88)" fill-opacity="0.1"/>
<path d="M123.192 256.528C124.316 256.071 125.591 256.654 126.029 257.828L152.014 327.384C150.557 327.727 149.105 328.048 147.662 328.318L121.946 259.489C121.511 258.308 122.067 256.986 123.192 256.528Z" fill="url(#paint7_linear_61_88)" fill-opacity="0.1"/>
<path d="M160.307 109.334C175.88 116.468 188.36 129.853 194.582 146.508L194.8 147.083C207.715 181.655 191.267 220.748 158.136 234.224L129.914 245.704C128.789 246.162 127.515 245.578 127.076 244.404C126.639 243.227 127.195 241.905 128.322 241.443L156.544 229.963C171.477 223.886 183.26 212.086 189.723 196.724C196.187 181.362 196.537 164.325 190.718 148.749L190.502 148.171C183.638 129.788 168.61 115.706 150.291 110.454C149.085 110.108 148.436 108.866 148.755 107.647C149.073 106.428 150.28 105.713 151.443 106.047C154.492 106.928 157.45 108.025 160.307 109.334Z" fill="url(#paint8_linear_61_88)" fill-opacity="0.1"/>
<path d="M119.804 93.7493C120.977 93.5029 122.138 94.3024 122.375 95.5452C122.616 96.7803 121.84 97.9834 120.654 98.2287C116.597 99.0717 112.569 100.297 108.688 101.876L74.25 115.884C75.4163 113.721 76.603 111.604 77.8153 109.531L107.098 97.6201C111.219 95.9439 115.492 94.6415 119.804 93.7493Z" fill="url(#paint9_linear_61_88)" fill-opacity="0.1"/>
<path d="M133.162 251.744L160.521 240.616C178.179 233.439 192.108 219.478 199.747 201.322C207.386 183.165 207.802 163.022 200.911 144.586L200.705 144.026C189.81 114.86 162.318 95.8936 132.287 96.8438C131.082 96.8727 130.066 95.8955 130.03 94.6251C129.994 93.368 130.947 92.3108 132.153 92.2687C164.033 91.2711 193.22 111.397 204.789 142.374L204.992 142.932C212.3 162.496 211.859 183.877 203.748 203.154C195.639 222.428 180.85 237.245 162.103 244.868L136.786 255.166L162.603 324.28C161.21 324.767 159.81 325.247 158.421 325.671L131.907 254.696C131.48 253.528 132.036 252.205 133.162 251.744Z" fill="url(#paint10_linear_61_88)" fill-opacity="0.1"/>
<path d="M152.036 270.811C153.161 270.353 154.435 270.937 154.873 272.111L172.812 320.137C171.468 320.758 170.125 321.378 168.784 321.939L150.79 273.772C150.353 272.594 150.909 271.272 152.036 270.811Z" fill="url(#paint11_linear_61_88)" fill-opacity="0.1"/>
<path d="M214.291 136.418C214.747 137.581 214.224 138.918 213.102 139.4C211.983 139.888 210.704 139.335 210.241 138.168C193.291 95.5092 145.947 74.4514 104.708 91.2359L83.9082 99.6934C85.4611 97.3571 87.0381 95.0688 88.6463 92.864L103.116 86.9749C146.575 69.2939 196.439 91.4736 214.291 136.418Z" fill="url(#paint12_linear_61_88)" fill-opacity="0.1"/>
<path d="M149.455 259.83C149.018 258.652 149.575 257.33 150.701 256.869L164.497 251.257C201.61 236.164 222.916 195.636 215.169 154.893C214.934 153.656 215.705 152.455 216.89 152.21C217.346 152.114 217.802 152.175 218.198 152.357C218.824 152.644 219.324 153.241 219.462 154.005C227.63 196.92 205.182 239.613 166.091 255.514L152.294 261.126C151.168 261.587 149.894 261.003 149.455 259.83Z" fill="url(#paint13_linear_61_88)" fill-opacity="0.1"/>
<path d="M225.19 134.07L225.4 134.641C244.893 186.819 220.069 245.819 170.063 266.163L165.148 268.163L182.649 315.012C181.354 315.76 180.061 316.5 178.765 317.188L160.272 267.695C160.064 267.129 160.076 266.503 160.31 265.946C160.544 265.39 160.978 264.957 161.518 264.734L168.479 261.906C216.235 242.477 239.941 186.132 221.326 136.302L221.115 135.73C212.107 111.625 194.617 92.6115 171.856 82.1844C149.096 71.7572 123.84 71.1881 100.745 80.5857L97.2427 82.0104C99.4935 79.3807 101.783 76.8793 104.106 74.4765C126.919 66.623 151.406 67.822 173.621 77.9996C197.443 88.9177 215.762 108.832 225.19 134.07Z" fill="url(#paint14_linear_61_88)" fill-opacity="0.1"/>
<path d="M235.391 129.924L235.603 130.491C241.854 147.224 244.207 165.458 242.405 183.237C242.28 184.489 241.203 185.402 239.999 185.27C238.79 185.14 237.924 184.015 238.052 182.755C239.802 165.46 237.602 148.434 231.523 132.154L231.311 131.587C212.698 81.7615 163.421 54.4283 114.702 64.4895C117.086 62.4465 119.487 60.4989 121.916 58.6746C169.973 52.6025 217.019 80.7441 235.391 129.924Z" fill="url(#paint15_linear_61_88)" fill-opacity="0.1"/>
<path d="M175.612 271.206C204.721 258.215 226.302 232.41 234.822 200.41C235.148 199.194 236.353 198.483 237.519 198.819C238.633 199.196 239.366 200.417 239.044 201.634C230.357 234.263 208.629 260.71 179.272 274.52L192.136 308.953C190.888 309.829 189.64 310.673 188.382 311.489L174.428 274.135C174.001 272.985 174.524 271.69 175.612 271.206Z" fill="url(#paint16_linear_61_88)" fill-opacity="0.1"/>
<path d="M188.97 60.035C190.048 60.612 190.473 61.9869 189.921 63.1083C189.372 64.2353 188.028 64.7307 186.976 64.1013C170.227 55.128 151.778 50.7331 133.213 51.021C135.872 49.4173 138.538 47.9738 141.218 46.6147C157.749 47.5256 174.027 52.0091 188.97 60.035Z" fill="url(#paint17_linear_61_88)" fill-opacity="0.1"/>
<path d="M193.749 288.091C194.87 287.631 196.148 288.217 196.583 289.389L201.292 301.994C200.091 302.988 198.883 303.938 197.671 304.877L192.507 291.053C192.066 289.874 192.622 288.552 193.749 288.091Z" fill="url(#paint18_linear_61_88)" fill-opacity="0.1"/>
<path d="M193.711 279.684C192.649 280.308 191.316 279.905 190.73 278.82C190.133 277.717 190.507 276.325 191.555 275.704C241.582 246.213 262.681 184.095 241.726 128.001L241.512 127.428C233.259 105.319 219.222 86.4769 200.928 72.9321C199.942 72.199 199.707 70.7727 200.409 69.7436C201.018 68.8422 202.142 68.5455 203.072 68.9715C203.209 69.0343 203.337 69.1069 203.461 69.2007C222.456 83.2647 237.021 102.824 245.591 125.765L245.807 126.334C267.561 184.574 245.65 249.063 193.711 279.684Z" fill="url(#paint19_linear_61_88)" fill-opacity="0.1"/>
<path d="M202.766 282.004C249.166 251.064 270.917 190.767 255.66 135.369C255.325 134.16 255.994 132.895 257.159 132.543C258.316 132.197 259.538 132.895 259.868 134.107C275.496 190.827 253.614 252.516 206.637 284.829L210.105 294.113C208.952 295.226 207.786 296.297 206.618 297.361L201.909 284.756C201.521 283.744 201.888 282.589 202.766 282.004Z" fill="url(#paint20_linear_61_88)" fill-opacity="0.1"/>
<path d="M254.168 117.484C254.644 118.642 254.127 119.987 253.013 120.481C251.904 120.974 250.618 120.44 250.144 119.278C232.577 76.4377 195.765 47.7604 153.806 41.0928C156.829 39.988 159.844 39.0594 162.851 38.2561C202.746 47.4454 237.178 76.0237 254.168 117.484Z" fill="url(#paint21_linear_61_88)" fill-opacity="0.1"/>
<path d="M261.913 119.134C248.649 83.6179 222.836 55.5861 189.244 40.1966C185.369 38.4214 181.405 36.9098 177.411 35.5227C181.229 35.1137 184.995 34.9533 188.689 35.0365C189.458 35.3707 190.244 35.6567 191.007 36.0063C225.67 51.8863 252.301 80.8186 265.989 117.46L266.207 118.035C268.706 124.717 270.673 131.511 272.189 138.347C272.544 146.67 272.252 155.357 271.276 164.334C270.555 149.328 267.568 134.27 262.131 119.709L261.913 119.134Z" fill="url(#paint22_linear_61_88)" fill-opacity="0.1"/>
<path d="M142.378 152.244C147.175 154.442 150.856 158.452 152.753 163.521L152.969 164.1C156.895 174.608 151.895 186.491 141.825 190.587L95.5244 209.424C78.4068 216.386 69.9088 236.584 76.5832 254.442L102.725 324.421C101.779 324.034 100.828 323.648 99.9072 323.222C99.8479 323.195 99.7923 323.169 99.7331 323.142C99.6738 323.115 99.6182 323.089 99.5589 323.062C98.7147 322.685 97.886 322.25 97.0543 321.832L72.5013 256.099C64.9516 235.89 74.567 213.037 93.9342 205.159L140.239 186.324C148.059 183.142 151.941 173.915 148.892 165.768L148.675 165.19C145.734 157.3 136.529 153.092 128.971 156.163L48.1812 189.025C48.4808 187.263 48.8412 185.482 49.1999 183.706L127.383 151.903C132.252 149.929 137.577 150.044 142.378 152.244Z" fill="url(#paint23_linear_61_88)" fill-opacity="0.1"/>
<path d="M138.483 169.35C137.625 167.062 135.154 165.921 132.949 166.815L112.643 175.074C111.518 175.532 110.244 174.948 109.809 173.776C109.372 172.598 109.929 171.276 111.055 170.815L131.36 162.555C133.509 161.681 135.861 161.731 137.983 162.703C140.099 163.672 141.725 165.446 142.567 167.689L142.775 168.255C143.616 170.498 143.565 172.951 142.635 175.162C141.704 177.373 140.01 179.068 137.857 179.944L91.5538 198.776C71.3001 207.017 59.6518 229.903 64.457 252.004C64.7244 253.238 63.9841 254.462 62.8055 254.742C61.6265 255.014 60.4525 254.254 60.1813 253.019C54.9017 228.727 67.7059 203.577 89.9658 194.516L136.265 175.683C137.326 175.252 138.164 174.414 138.623 173.324C139.081 172.234 139.109 171.024 138.691 169.916L138.483 169.35Z" fill="url(#paint24_linear_61_88)" fill-opacity="0.1"/>
<path d="M65.7168 263.092C66.8417 262.635 68.116 263.218 68.5545 264.392L87.9929 316.426C85.7019 314.814 83.4755 313.038 81.3118 311.133L64.471 266.053C64.0379 264.877 64.5941 263.555 65.7168 263.092Z" fill="url(#paint25_linear_61_88)" fill-opacity="0.1"/>
<path d="M98.9621 176.45C99.477 176.686 99.9021 177.125 100.124 177.71C100.561 178.888 100.005 180.21 98.8781 180.671L46.4433 202C46.6171 200.296 46.7818 198.591 47.0088 196.865L97.29 176.412C97.8461 176.183 98.4472 176.214 98.9621 176.45Z" fill="url(#paint26_linear_61_88)" fill-opacity="0.1"/>
<path d="M62.9274 203.4C63.9237 204.004 64.5799 205.259 64.0887 206.427C63.9342 206.794 63.7022 207.094 63.4213 207.32C51.924 223.409 49.2132 244.082 56.1831 262.739L69.5244 298.452C64.0961 291.327 59.411 283.076 55.6444 273.881L53.1528 267.211C51.3343 261.924 49.8001 256.371 48.6054 250.567C46.6843 236.671 49.3362 222.523 56.292 210.255L45.6265 214.59C45.6723 212.938 45.7378 211.28 45.8349 209.6L61.2109 203.343C61.785 203.112 62.3966 203.097 62.9274 203.4Z" fill="url(#paint27_linear_61_88)" fill-opacity="0.1"/>
<path d="M146.997 141.263C154.287 144.603 160.365 150.845 163.484 159.185L163.687 159.744C166.706 167.817 166.529 176.639 163.19 184.575C159.851 192.511 153.748 198.614 146.007 201.762L99.7085 220.595C94.2726 222.803 89.9943 227.091 87.6506 232.661C85.3086 238.228 85.1814 244.421 87.3006 250.086L116.602 328.529C114.865 328.204 113.154 327.808 111.468 327.362L83.2208 251.749C77.9736 237.703 84.6582 221.815 98.1188 216.34L144.419 197.503C151.071 194.801 156.309 189.556 159.178 182.737C162.047 175.918 162.202 168.345 159.603 161.395L159.397 160.835C154.048 146.517 138.526 139.406 124.8 144.986L51.152 174.947C51.6009 173.124 52.1052 171.284 52.6095 169.445L123.208 140.725C131.198 137.478 139.703 137.921 146.997 141.263Z" fill="url(#paint28_linear_61_88)" fill-opacity="0.1"/>
<defs>
<linearGradient id="paint0_linear_61_88" x1="103.026" y1="182.232" x2="131.088" y2="120.976" gradientUnits="userSpaceOnUse">
<stop stop-color="#FD9F41"/>
<stop offset="1" stop-color="#EEC033"/>
</linearGradient>
<linearGradient id="paint1_linear_61_88" x1="157.469" y1="211.937" x2="179.418" y2="164.025" gradientUnits="userSpaceOnUse">
<stop stop-color="#FD9F41"/>
<stop offset="1" stop-color="#EEC033"/>
</linearGradient>
<linearGradient id="paint2_linear_61_88" x1="95.8491" y1="277.756" x2="128.12" y2="207.315" gradientUnits="userSpaceOnUse">
<stop stop-color="#FD9F41"/>
<stop offset="1" stop-color="#EEC033"/>
</linearGradient>
<linearGradient id="paint3_linear_61_88" x1="115.218" y1="325.272" x2="127.37" y2="298.747" gradientUnits="userSpaceOnUse">
<stop stop-color="#FD9F41"/>
<stop offset="1" stop-color="#EEC033"/>
</linearGradient>
<linearGradient id="paint4_linear_61_88" x1="80.8866" y1="304.247" x2="163.748" y2="123.376" gradientUnits="userSpaceOnUse">
<stop stop-color="#FD9F41"/>
<stop offset="1" stop-color="#EEC033"/>
</linearGradient>
<linearGradient id="paint5_linear_61_88" x1="64.3565" y1="147.762" x2="69.3515" y2="136.859" gradientUnits="userSpaceOnUse">
<stop stop-color="#FD9F41"/>
<stop offset="1" stop-color="#EEC033"/>
</linearGradient>
<linearGradient id="paint6_linear_61_88" x1="92.4035" y1="142.955" x2="114.943" y2="93.7568" gradientUnits="userSpaceOnUse">
<stop stop-color="#FD9F41"/>
<stop offset="1" stop-color="#EEC033"/>
</linearGradient>
<linearGradient id="paint7_linear_61_88" x1="126.108" y1="318.444" x2="149.323" y2="267.77" gradientUnits="userSpaceOnUse">
<stop stop-color="#FD9F41"/>
<stop offset="1" stop-color="#EEC033"/>
</linearGradient>
<linearGradient id="paint8_linear_61_88" x1="131.633" y1="247.222" x2="188.819" y2="122.396" gradientUnits="userSpaceOnUse">
<stop stop-color="#FD9F41"/>
<stop offset="1" stop-color="#EEC033"/>
</linearGradient>
<linearGradient id="paint9_linear_61_88" x1="91.0181" y1="123.566" x2="107.472" y2="87.6511" gradientUnits="userSpaceOnUse">
<stop stop-color="#FD9F41"/>
<stop offset="1" stop-color="#EEC033"/>
</linearGradient>
<linearGradient id="paint10_linear_61_88" x1="107.18" y1="302.196" x2="194.152" y2="112.353" gradientUnits="userSpaceOnUse">
<stop stop-color="#FD9F41"/>
<stop offset="1" stop-color="#EEC033"/>
</linearGradient>
<linearGradient id="paint11_linear_61_88" x1="153.823" y1="315.085" x2="170.554" y2="278.565" gradientUnits="userSpaceOnUse">
<stop stop-color="#FD9F41"/>
<stop offset="1" stop-color="#EEC033"/>
</linearGradient>
<linearGradient id="paint12_linear_61_88" x1="145.349" y1="127.841" x2="164.339" y2="86.3888" gradientUnits="userSpaceOnUse">
<stop stop-color="#FD9F41"/>
<stop offset="1" stop-color="#EEC033"/>
</linearGradient>
<linearGradient id="paint13_linear_61_88" x1="166.721" y1="268.469" x2="219.617" y2="153.007" gradientUnits="userSpaceOnUse">
<stop stop-color="#FD9F41"/>
<stop offset="1" stop-color="#EEC033"/>
</linearGradient>
<linearGradient id="paint14_linear_61_88" x1="104.356" y1="283.1" x2="194.033" y2="87.3509" gradientUnits="userSpaceOnUse">
<stop stop-color="#FD9F41"/>
<stop offset="1" stop-color="#EEC033"/>
</linearGradient>
<linearGradient id="paint15_linear_61_88" x1="166.827" y1="151.869" x2="200.799" y2="77.7158" gradientUnits="userSpaceOnUse">
<stop stop-color="#FD9F41"/>
<stop offset="1" stop-color="#EEC033"/>
</linearGradient>
<linearGradient id="paint16_linear_61_88" x1="178.029" y1="306.746" x2="229.221" y2="195.004" gradientUnits="userSpaceOnUse">
<stop stop-color="#FD9F41"/>
<stop offset="1" stop-color="#EEC033"/>
</linearGradient>
<linearGradient id="paint17_linear_61_88" x1="159.119" y1="62.889" x2="165.474" y2="49.018" gradientUnits="userSpaceOnUse">
<stop stop-color="#FD9F41"/>
<stop offset="1" stop-color="#EEC033"/>
</linearGradient>
<linearGradient id="paint18_linear_61_88" x1="193.783" y1="303.095" x2="199.735" y2="290.103" gradientUnits="userSpaceOnUse">
<stop stop-color="#FD9F41"/>
<stop offset="1" stop-color="#EEC033"/>
</linearGradient>
<linearGradient id="paint19_linear_61_88" x1="170.068" y1="269.85" x2="251.857" y2="91.3211" gradientUnits="userSpaceOnUse">
<stop stop-color="#FD9F41"/>
<stop offset="1" stop-color="#EEC033"/>
</linearGradient>
<linearGradient id="paint20_linear_61_88" x1="205.601" y1="296.896" x2="276.996" y2="141.056" gradientUnits="userSpaceOnUse">
<stop stop-color="#FD9F41"/>
<stop offset="1" stop-color="#EEC033"/>
</linearGradient>
<linearGradient id="paint21_linear_61_88" x1="197.418" y1="95.7983" x2="214.285" y2="58.9808" gradientUnits="userSpaceOnUse">
<stop stop-color="#FD9F41"/>
<stop offset="1" stop-color="#EEC033"/>
</linearGradient>
<linearGradient id="paint22_linear_61_88" x1="209.209" y1="135.899" x2="243.876" y2="60.2271" gradientUnits="userSpaceOnUse">
<stop stop-color="#FD9F41"/>
<stop offset="1" stop-color="#EEC033"/>
</linearGradient>
<linearGradient id="paint23_linear_61_88" x1="55.4361" y1="302.85" x2="127.545" y2="145.449" gradientUnits="userSpaceOnUse">
<stop stop-color="#FD9F41"/>
<stop offset="1" stop-color="#EEC033"/>
</linearGradient>
<linearGradient id="paint24_linear_61_88" x1="76.3418" y1="261.431" x2="124.418" y2="156.489" gradientUnits="userSpaceOnUse">
<stop stop-color="#FD9F41"/>
<stop offset="1" stop-color="#EEC033"/>
</linearGradient>
<linearGradient id="paint25_linear_61_88" x1="68.9564" y1="307.705" x2="85.5633" y2="271.455" gradientUnits="userSpaceOnUse">
<stop stop-color="#FD9F41"/>
<stop offset="1" stop-color="#EEC033"/>
</linearGradient>
<linearGradient id="paint26_linear_61_88" x1="64.2865" y1="210.175" x2="83.0718" y2="169.17" gradientUnits="userSpaceOnUse">
<stop stop-color="#FD9F41"/>
<stop offset="1" stop-color="#EEC033"/>
</linearGradient>
<linearGradient id="paint27_linear_61_88" x1="43.9226" y1="286.723" x2="78.7727" y2="210.652" gradientUnits="userSpaceOnUse">
<stop stop-color="#FD9F41"/>
<stop offset="1" stop-color="#EEC033"/>
</linearGradient>
<linearGradient id="paint28_linear_61_88" x1="61.3" y1="304.379" x2="137.931" y2="137.109" gradientUnits="userSpaceOnUse">
<stop stop-color="#FD9F41"/>
<stop offset="1" stop-color="#EEC033"/>
</linearGradient>
</defs>
</svg>
