<svg width="200" height="120" viewBox="0 0 200 120" fill="none" xmlns="http://www.w3.org/2000/svg">
<path d="M83.7536 126.307C84.185 126.373 84.5614 126.643 84.7656 127.029L97.2518 150.655C95.9332 150.173 94.6162 149.66 93.2991 149.093L82.6434 128.931C73.2018 127.386 64.2172 124.157 56.061 119.542C54.5137 117.588 52.9956 115.557 51.5187 113.43C61.0463 120.006 72.0427 124.498 83.7536 126.307Z" fill="#151921" fill-opacity="0.15"/>
<path d="M87.4054 120.177C88.0809 119.82 88.9166 120.078 89.2737 120.754L106.516 153.378C105.318 153.113 104.114 152.809 102.911 152.474L86.8291 122.045C86.4721 121.37 86.7298 120.534 87.4054 120.177Z" fill="#151921" fill-opacity="0.15"/>
<path d="M27.8871 30.9768C28.8002 24.4244 30.4402 18.3231 32.7069 12.7896C39.3281 1.64234 48.99 -7.8805 61.2695 -14.3702C66.7687 -17.2765 72.4753 -19.4022 78.2612 -20.7981C82.431 -20.9641 86.7539 -20.6764 91.1642 -19.9116C81.4525 -19.3428 71.7095 -16.7604 62.5638 -11.9268C44.95 -2.61794 32.9443 13.1786 27.8871 30.9768Z" fill="#151921" fill-opacity="0.15"/>
<path d="M41.2175 95.9998C40.6312 94.8904 40.092 93.7881 39.5435 92.6847C49.5293 105.744 63.932 114.992 80.4147 118.643C81.158 118.808 81.6319 119.546 81.4636 120.294C81.3008 121.036 80.5605 121.511 79.8137 121.345C66.464 118.388 54.4277 111.884 44.8501 102.731C44.2701 101.699 43.6868 100.672 43.1232 99.6057C42.8056 99.0047 42.4925 98.4013 42.1817 97.7967C41.8573 97.1993 41.5351 96.6008 41.2175 95.9998Z" fill="#151921" fill-opacity="0.15"/>
<path d="M76.3441 -10.2257C75.6131 -9.99549 74.8393 -10.3987 74.6079 -11.1262C74.3777 -11.8572 74.7989 -12.6463 75.5085 -12.8624C86.4821 -16.3265 97.7703 -16.7399 108.428 -14.583C112.579 -12.7333 116.722 -10.4741 120.808 -7.76902C107.159 -13.7679 91.4425 -14.9911 76.3441 -10.2257Z" fill="#151921" fill-opacity="0.15"/>
<path d="M37.4877 81.9535C37.1194 81.2839 37.3634 80.4439 38.033 80.0756C38.6678 79.7892 39.5425 79.9513 39.9108 80.6208C50.3985 99.6666 70.5084 112.193 92.3981 113.311C92.8834 113.337 93.3218 113.614 93.5498 114.046L115.027 154.684C113.924 154.588 112.815 154.463 111.7 154.307L91.4706 116.029C68.9384 114.604 48.3068 101.604 37.4877 81.9535Z" fill="#151921" fill-opacity="0.15"/>
<path d="M34.061 29.6077C34.7908 29.8347 35.1981 30.6109 34.9711 31.3407C30.4399 45.9011 31.2916 61.5735 37.3741 75.4671C37.6635 76.135 37.3871 76.9083 36.7545 77.2426C36.7229 77.2593 36.6935 77.2749 36.6607 77.2893C35.96 77.5932 35.1481 77.2766 34.8385 76.5759C28.4907 62.0711 27.6007 45.7136 32.3302 30.5166C32.556 29.7845 33.3344 29.376 34.061 29.6077Z" fill="#151921" fill-opacity="0.15"/>
<path d="M66.9805 -9.50323C67.6716 -9.83088 68.4944 -9.53736 68.8254 -8.85094C69.1518 -8.16214 68.9463 -7.44077 68.1708 -7.0049C67.3734 -6.62684 66.5811 -6.22833 65.7949 -5.8128C53.8995 0.473915 44.4898 10.1843 38.579 22.2654C38.4457 22.5382 38.2355 22.7476 37.9847 22.8801C37.6074 23.0795 37.1449 23.1014 36.7288 22.8993C36.0434 22.5649 35.7584 21.7358 36.095 21.0492C42.2614 8.43981 52.0856 -1.69485 64.5029 -8.25739C65.323 -8.69083 66.1482 -9.1038 66.9805 -9.50323Z" fill="#151921" fill-opacity="0.15"/>
<path d="M152.934 35.4846C153.609 35.1276 154.445 35.3854 154.802 36.0609L170.278 65.3441C171.153 68.7 171.861 72.0082 172.391 75.2599L152.357 37.3529C152 36.6774 152.26 35.8404 152.934 35.4846Z" fill="#151921" fill-opacity="0.15"/>
<path d="M97.8031 110.252C98.4786 109.895 99.3144 110.153 99.6714 110.828L122.941 154.858C121.918 154.907 120.886 154.929 119.848 154.923L97.2268 112.12C96.8698 111.445 97.1275 110.609 97.8031 110.252Z" fill="#151921" fill-opacity="0.15"/>
<path d="M43.0876 77.7623C27.8526 48.9355 38.9114 13.0916 67.7337 -2.14096C96.5606 -17.376 132.406 -6.3207 147.64 22.506L150.925 28.7215C151.282 29.397 151.025 30.2327 150.349 30.5897C149.673 30.9468 148.838 30.689 148.481 30.0134L145.196 23.798C130.675 -3.67765 96.5037 -14.2185 69.0257 0.303629C41.55 14.8246 31.0101 48.9924 45.5322 76.4703C54.6117 93.6502 72.4226 105.103 92.0156 106.364C92.778 106.412 93.3541 107.07 93.3062 107.833C93.2739 108.33 92.9839 108.749 92.5704 108.967C92.3535 109.082 92.1045 109.141 91.8378 109.123C71.2912 107.802 52.6113 95.7827 43.0876 77.7623Z" fill="#151921" fill-opacity="0.15"/>
<path d="M98.7862 0.816907C98.0249 0.765483 97.4521 0.102814 97.5058 -0.659717C97.5572 -1.42105 98.2187 -1.99611 98.9824 -1.94017C117.146 -0.648687 133.049 9.69928 141.525 25.736L173.572 86.3741C173.677 88.4487 173.72 90.4985 173.687 92.51L139.081 27.0302C131.054 11.8408 115.99 2.04314 98.7862 0.816907Z" fill="#151921" fill-opacity="0.15"/>
<path d="M49.9664 75.9317C49.589 75.2669 49.8215 74.4214 50.484 74.0453C50.4976 74.0381 50.5111 74.0309 50.5224 74.025C51.1799 73.6775 52.0002 73.9116 52.3704 74.5629C62.0441 91.5762 80.9098 101.295 100.432 99.3162C100.992 99.2602 101.531 99.5475 101.795 100.047L112.14 119.622C112.497 120.297 112.24 121.133 111.564 121.49C110.889 121.847 110.053 121.589 109.696 120.914L99.7816 102.154C79.5052 103.844 60.027 93.6279 49.9664 75.9317Z" fill="#151921" fill-opacity="0.15"/>
<path d="M49.7354 72.3851C49.7106 72.3983 49.688 72.4102 49.6597 72.4223C48.9649 72.7375 48.1475 72.4324 47.8289 71.7365C44.5325 64.4983 42.9654 56.797 43.1726 48.8487C43.192 48.087 43.8267 47.4885 44.5918 47.5033C45.357 47.5238 45.9589 48.1595 45.9372 48.9224C45.7387 56.4441 47.2222 63.7358 50.3432 70.5927C50.6509 71.2625 50.3771 72.046 49.7354 72.3851Z" fill="#151921" fill-opacity="0.15"/>
<path d="M70.9662 3.97095C77.0506 0.755349 83.5841 -1.20035 90.3837 -1.84291C91.1434 -1.9149 91.8179 -1.35512 91.8899 -0.59542C91.9607 0.162018 91.3977 0.846865 90.6424 0.910762C84.2054 1.5177 78.0218 3.36949 72.2582 6.41554C59.0953 13.3721 49.8559 25.7673 46.9009 40.4224C46.8178 40.845 46.5431 41.1838 46.1907 41.3701C45.9173 41.5146 45.5961 41.5687 45.27 41.504C44.5237 41.3551 44.0362 40.6242 44.1885 39.8731C47.3057 24.4039 57.0668 11.3168 70.9662 3.97095Z" fill="#151921" fill-opacity="0.15"/>
<path d="M126.925 19.5609C127.489 19.0429 128.365 19.0917 128.879 19.6551C131.432 22.4622 133.631 25.5951 135.414 28.9683L145.379 47.8224C145.736 48.4979 145.478 49.3336 144.802 49.6907C144.127 50.0477 143.291 49.7899 142.934 49.1144L132.97 30.2603C131.297 27.095 129.23 24.1523 126.834 21.5165C126.318 20.9509 126.359 20.0766 126.925 19.5609Z" fill="#151921" fill-opacity="0.15"/>
<path d="M146.522 52.9517C147.198 52.5946 148.034 52.8524 148.391 53.528L173.203 100.477C173.032 102.067 172.811 103.629 172.556 105.169L145.946 54.8199C145.589 54.1444 145.849 53.3075 146.522 52.9517Z" fill="#151921" fill-opacity="0.15"/>
<path d="M76.5367 91.2726C75.8415 90.9579 75.5349 90.1372 75.8541 89.4396C76.1699 88.7409 76.9918 88.4365 77.6871 88.7569C85.9444 92.5294 95.3283 93.5936 104.108 91.7599C104.713 91.6342 105.327 91.9221 105.616 92.4689L137.174 152.181C136.291 152.485 135.396 152.765 134.489 153.019L103.652 94.6691C94.5934 96.3377 85.0064 95.1409 76.5367 91.2726Z" fill="#151921" fill-opacity="0.15"/>
<path d="M63.0551 18.3795C63.5914 17.8302 64.4635 17.8231 65.0118 18.3628C65.5565 18.8958 65.566 19.7724 65.0284 20.3195C51.991 33.6004 49.07 53.5703 57.758 70.0092C61.2506 76.6177 66.4726 82.2053 72.8606 86.1708C73.5098 86.5734 73.7097 87.4274 73.3082 88.0732C73.1748 88.2911 72.9898 88.4553 72.7797 88.5664C72.3595 88.7885 71.8359 88.7877 71.4024 88.5197C64.5982 84.2972 59.0353 78.3435 55.3134 71.3012C46.0618 53.7902 49.1729 32.5231 63.0551 18.3795Z" fill="#151921" fill-opacity="0.15"/>
<path d="M75.4889 12.5305C74.3321 13.1419 73.1938 13.81 72.1067 14.5204C71.4461 14.9822 70.6054 14.7588 70.192 14.1189C69.7752 13.4778 69.9548 12.6199 70.5936 12.2042C71.7516 11.4477 72.9656 10.7367 74.197 10.0859C90.2292 1.61291 109.72 3.51235 123.858 14.9232C124.453 15.4036 124.547 16.276 124.068 16.8675C123.945 17.0189 123.797 17.1377 123.637 17.2224C123.162 17.4732 122.567 17.4352 122.123 17.0771C108.846 6.359 90.5406 4.57573 75.4889 12.5305Z" fill="#151921" fill-opacity="0.15"/>
<path d="M106.442 14.8229C106.695 14.105 107.489 13.7259 108.208 13.9817C117.306 17.2117 124.795 23.6821 129.296 32.1975L158.756 87.9419C159.114 88.6174 158.856 89.4532 158.18 89.8102C157.505 90.1672 156.669 89.9094 156.312 89.2339L126.852 33.4918C122.677 25.5909 115.726 19.5873 107.283 16.5895C106.561 16.3348 106.186 15.542 106.442 14.8229Z" fill="#151921" fill-opacity="0.15"/>
<path d="M160.659 94.5024C161.334 94.1454 162.17 94.4032 162.527 95.0787L171.238 111.561C170.907 112.871 170.542 114.154 170.15 115.419L160.084 96.373C159.725 95.6952 159.983 94.8595 160.659 94.5024Z" fill="#151921" fill-opacity="0.15"/>
<path d="M107.249 83.7285C107.925 83.3715 108.76 83.6293 109.117 84.3048L143.537 149.432C142.729 149.865 141.902 150.276 141.057 150.656L106.673 85.5968C106.316 84.9212 106.576 84.0843 107.249 83.7285Z" fill="#151921" fill-opacity="0.15"/>
<path d="M102.303 87.8895C85.7256 90.9279 69.2988 82.9637 61.4276 68.0703C51.5384 49.3585 58.714 26.0908 77.4258 16.2016C83.987 12.7341 91.3564 11.2499 98.7365 11.9134C99.4982 11.982 100.059 12.6541 99.9901 13.4158C99.9226 14.1741 99.2494 14.7379 98.4877 14.6694C91.6413 14.0533 84.8045 15.4294 78.7178 18.6462C61.3571 27.8213 54.6959 49.4154 63.8722 66.7783C71.175 80.5963 86.4206 87.9881 101.802 85.1688C102.553 85.0318 103.275 85.5288 103.415 86.279C103.526 86.888 103.221 87.4768 102.699 87.7526C102.578 87.8136 102.444 87.8612 102.303 87.8895Z" fill="#151921" fill-opacity="0.15"/>
<path d="M81.9508 24.7578C72.6288 29.6845 66.7737 39.3227 66.6683 49.9081C66.6604 50.6754 66.0283 51.284 65.2725 51.2759C64.5087 51.2691 63.8979 50.6439 63.9047 49.8801C64.017 38.2795 70.4376 27.7152 80.6588 22.3132C95.9997 14.2056 115.075 20.0879 123.183 35.4287L140.04 67.3259C140.397 68.0014 140.14 68.8372 139.464 69.1942C138.788 69.5512 137.953 69.2934 137.596 68.6179L120.739 36.723C113.341 22.7299 95.9428 17.363 81.9508 24.7578Z" fill="#151921" fill-opacity="0.15"/>
<path d="M133.571 118.727C134.246 118.37 135.082 118.628 135.439 119.303L149.451 145.817C148.696 146.361 147.925 146.877 147.145 147.371L132.995 120.595C132.638 119.92 132.895 119.084 133.571 118.727Z" fill="#151921" fill-opacity="0.15"/>
<path d="M143.449 76.7392C144.125 76.3822 144.96 76.64 145.317 77.3156L168.268 120.742C167.826 121.852 167.358 122.94 166.866 124.006L142.873 78.6075C142.516 77.932 142.774 77.0963 143.449 76.7392Z" fill="#151921" fill-opacity="0.15"/>
<path d="M67.5442 64.8377C66.1233 62.1491 65.102 59.2869 64.5129 56.3292C64.3623 55.5793 64.8406 54.8437 65.5988 54.7032C66.3465 54.5537 67.0776 55.0402 67.2248 55.7891C67.761 58.4828 68.6933 61.0944 69.9888 63.5457C77.3836 77.5377 94.7818 82.9046 108.774 75.5098C109.264 75.2506 109.743 74.9804 110.212 74.6977C110.532 74.4825 110.932 74.4472 111.296 74.5498C111.659 74.6525 111.97 74.9016 112.148 75.2382L130.913 110.744C131.27 111.419 131.012 112.255 130.336 112.612C129.661 112.969 128.825 112.711 128.468 112.036L110.371 77.7932C110.269 77.8469 110.165 77.9018 110.064 77.9556C94.7249 86.062 75.6519 80.1785 67.5442 64.8377Z" fill="#151921" fill-opacity="0.15"/>
<path d="M73.6594 61.6043C67.3345 49.6367 71.927 34.7548 83.8924 28.4311C86.2105 27.206 88.6869 26.3625 91.2526 25.9286C92.0031 25.8008 92.7186 26.3071 92.8466 27.0632C92.9766 27.8125 92.4749 28.5257 91.7119 28.6572C89.4412 29.0422 87.2427 29.7879 85.1844 30.8757C74.5655 36.4878 70.4919 49.6935 76.104 60.3123C81.7172 70.9334 94.923 75.007 105.542 69.3949C108.036 68.0767 110.205 66.3348 111.998 64.2139C112.298 63.862 112.745 63.6804 113.203 63.733C113.661 63.7832 114.062 64.0565 114.276 64.4609L154.86 141.251C154.173 141.92 153.471 142.566 152.755 143.187L112.746 67.4836C111.019 69.2143 109.037 70.6753 106.834 71.8395C94.8661 78.1645 79.9855 73.5742 73.6594 61.6043Z" fill="#151921" fill-opacity="0.15"/>
<path d="M98.8439 28.6376C98.0878 28.514 97.5768 27.8042 97.6993 27.0516C97.8228 26.2955 98.5371 25.7821 99.2865 25.9093C106.966 27.1605 113.447 31.8109 117.068 38.6634L121.539 47.1223C121.896 47.7979 121.638 48.6336 120.963 48.9906C120.287 49.3476 119.451 49.0899 119.094 48.4143L114.624 39.9554C111.409 33.8733 105.658 29.7505 98.8439 28.6376Z" fill="#151921" fill-opacity="0.15"/>
<path d="M123.978 54.6977C124.654 54.3407 125.49 54.5985 125.847 55.2741L164.552 128.51C164.019 129.46 163.465 130.385 162.893 131.289L123.402 56.566C123.045 55.8905 123.303 55.0548 123.978 54.6977Z" fill="#151921" fill-opacity="0.15"/>
<path d="M135.222 91.5166C135.898 91.1596 136.733 91.4174 137.09 92.0929L160.009 135.458C159.395 136.26 158.762 137.037 158.116 137.794L134.646 93.3849C134.289 92.7093 134.549 91.8724 135.222 91.5166Z" fill="#151921" fill-opacity="0.15"/>
<path d="M88.5759 37.2934C81.4974 41.0344 78.781 49.8405 82.5231 56.9212C82.9805 57.7866 83.5259 58.6053 84.1383 59.354C84.6238 59.9443 84.5382 60.8162 83.9479 61.3016C83.3554 61.7939 82.4845 61.6992 82.0003 61.1112C81.2692 60.22 80.622 59.2469 80.0763 58.2144C75.6224 49.7871 78.8544 39.3038 87.2817 34.85C95.709 30.3962 106.192 33.6281 110.647 42.0576L134.399 87.0001C134.756 87.6757 134.499 88.5114 133.823 88.8684C133.148 89.2255 132.312 88.9677 131.955 88.2921L108.203 43.3496C104.461 36.2689 95.6567 33.5512 88.5759 37.2934Z" fill="#151921" fill-opacity="0.15"/>
<path d="M89.1977 66.2902C88.485 66.0137 88.1252 65.2182 88.3972 64.5022C88.6748 63.786 89.4682 63.4332 90.1853 63.7017C94.0918 65.1922 98.4538 64.9304 102.15 62.977C104.854 61.5477 107.002 59.3491 108.361 56.6218C108.696 55.9421 109.531 55.6569 110.215 56.0004C110.9 56.3382 111.177 57.1687 110.837 57.8543C109.224 61.1028 106.665 63.7211 103.445 65.4226C99.0419 67.7441 93.8467 68.0647 89.1977 66.2902Z" fill="#151921" fill-opacity="0.15"/>
<path d="M96.2417 41.7681C96.4424 41.032 97.2054 40.5999 97.9427 40.8027C100.504 41.5097 102.683 43.2633 103.922 45.6085C106.418 50.3305 104.608 56.1978 99.8858 58.6934C95.166 61.1878 89.2987 59.3779 86.8031 54.6559C84.4998 50.2976 85.828 44.919 89.8943 42.1399C90.5137 41.7258 91.387 41.8742 91.8172 42.5023C92.2464 43.1339 92.0852 43.9938 91.4525 44.4264C88.5502 46.4054 87.6023 50.2506 89.2465 53.3616C91.028 56.7326 95.2217 58.028 98.5926 56.2465C101.964 54.465 103.258 50.2691 101.476 46.8982C100.577 45.1969 99.0591 43.9817 97.2025 43.4657C96.4676 43.2674 96.0389 42.5054 96.2417 41.7681Z" fill="#151921" fill-opacity="0.15"/>
<path d="M93.5794 51.077C93.0588 50.092 93.4359 48.8695 94.421 48.3489C95.4061 47.8282 96.6263 48.2065 97.1469 49.1916C97.6675 50.1767 97.2892 51.3969 96.3064 51.9163C95.3191 52.4381 94.1 52.0621 93.5794 51.077Z" fill="#151921" fill-opacity="0.15"/>
</svg>
