<svg width="196" height="224" viewBox="0 0 196 224" fill="none" xmlns="http://www.w3.org/2000/svg">
<path d="M94.6755 221.52C94.1538 221.626 93.711 221.957 93.464 222.424L84.8881 238.651C86.7957 237.631 88.6962 236.54 90.5882 235.376L96.1771 224.801C100.576 223.898 104.893 222.698 109.123 221.268C111.248 219.314 113.349 217.277 115.413 215.114C108.761 217.926 101.826 220.109 94.6755 221.52Z" fill="url(#paint0_linear_61_453)" fill-opacity="0.05"/>
<path d="M88.9936 213.608C88.4462 213.692 87.9684 214.034 87.7092 214.525L71.8623 244.509C73.5358 243.897 75.2073 243.247 76.8788 242.527L90.4027 216.938C102.386 214.977 113.788 210.879 124.14 205.022C126.104 202.542 128.03 199.965 129.905 197.265C117.813 205.61 103.857 211.312 88.9936 213.608Z" fill="url(#paint1_linear_61_453)" fill-opacity="0.05"/>
<path d="M84.3589 205.828C83.5015 205.375 82.4409 205.702 81.9878 206.56L60.1048 247.965C61.6256 247.628 63.1532 247.243 64.6803 246.818L85.0903 208.199C85.5434 207.342 85.2163 206.281 84.3589 205.828Z" fill="url(#paint2_linear_61_453)" fill-opacity="0.05"/>
<path d="M159.897 92.6187C158.738 84.3027 156.656 76.5593 153.78 69.5364C145.376 55.3888 133.114 43.3028 117.529 35.0663C110.55 31.3777 103.307 28.6799 95.9642 26.9083C90.672 26.6976 85.1856 27.0629 79.5883 28.0335C91.914 28.7553 104.279 32.0329 115.887 38.1674C138.241 49.9818 153.478 70.0301 159.897 92.6187Z" fill="url(#paint3_linear_61_453)" fill-opacity="0.05"/>
<path d="M142.979 175.144C143.723 173.736 144.407 172.337 145.103 170.936C132.43 187.511 114.151 199.247 93.2314 203.881C92.288 204.091 91.6866 205.027 91.9002 205.977C92.1068 206.918 93.0464 207.521 93.9941 207.311C110.937 203.558 126.213 195.303 138.369 183.687C139.105 182.377 139.845 181.074 140.56 179.72C140.963 178.957 141.361 178.192 141.755 177.424C142.167 176.666 142.576 175.907 142.979 175.144Z" fill="url(#paint4_linear_61_453)" fill-opacity="0.05"/>
<path d="M98.3976 40.3268C99.3253 40.619 100.307 40.1072 100.601 39.1839C100.893 38.2561 100.359 37.2547 99.4581 36.9805C85.5309 32.5839 71.2044 32.0593 57.6778 34.7967C52.4092 37.1443 47.1522 40.0115 41.9665 43.4447C59.2881 35.8311 79.2353 34.2787 98.3976 40.3268Z" fill="url(#paint5_linear_61_453)" fill-opacity="0.05"/>
<path d="M147.712 157.316C148.18 156.467 147.87 155.4 147.02 154.933C146.215 154.57 145.105 154.775 144.637 155.625C131.327 179.797 105.804 195.696 78.0226 197.113C77.4067 197.147 76.8503 197.499 76.5609 198.047L49.3026 249.623C50.7025 249.501 52.1105 249.343 53.5251 249.144L79.1998 200.564C107.797 198.755 133.981 182.257 147.712 157.316Z" fill="url(#paint6_linear_61_453)" fill-opacity="0.05"/>
<path d="M152.061 90.8809C151.135 91.169 150.618 92.1541 150.906 93.0804C156.657 111.56 155.576 131.451 147.856 149.084C147.489 149.931 147.84 150.913 148.643 151.337C148.683 151.358 148.72 151.378 148.762 151.396C149.651 151.782 150.682 151.38 151.074 150.491C159.131 132.082 160.26 111.322 154.258 92.0345C153.971 91.1053 152.983 90.5868 152.061 90.8809Z" fill="url(#paint7_linear_61_453)" fill-opacity="0.05"/>
<path d="M110.281 41.2437C109.404 40.8279 108.36 41.2004 107.94 42.0716C107.526 42.9458 107.786 43.8613 108.771 44.4145C109.783 44.8943 110.788 45.4001 111.786 45.9275C126.883 53.9063 138.826 66.2302 146.327 81.5631C146.497 81.9093 146.763 82.1751 147.082 82.3433C147.56 82.5963 148.147 82.6241 148.675 82.3676C149.545 81.9432 149.907 80.8909 149.48 80.0195C141.654 64.0162 129.185 51.1538 113.426 42.8249C112.385 42.2748 111.338 41.7507 110.281 41.2437Z" fill="url(#paint8_linear_61_453)" fill-opacity="0.05"/>
<path d="M1.19314 98.3404C0.335769 97.8872 -0.724892 98.2144 -1.17801 99.0718L-20.8197 136.237C-21.9298 140.496 -22.8282 144.695 -23.5015 148.821L1.92457 100.712C2.37769 99.8541 2.04764 98.792 1.19314 98.3404Z" fill="url(#paint9_linear_61_453)" fill-opacity="0.05"/>
<path d="M71.1629 193.231C70.3055 192.778 69.2448 193.106 68.7917 193.963L39.2588 249.844C40.5573 249.906 41.8667 249.934 43.1843 249.926L71.8943 195.603C72.3474 194.745 72.0202 193.685 71.1629 193.231Z" fill="url(#paint10_linear_61_453)" fill-opacity="0.05"/>
<path d="M140.605 151.997C159.941 115.411 145.905 69.9199 109.325 50.5874C72.7397 31.2518 27.2468 45.2826 7.9113 81.8683L3.74232 89.7566C3.2892 90.614 3.61639 91.6746 4.47375 92.1277C5.33112 92.5809 6.39178 92.2537 6.8449 91.3963L11.0139 83.508C29.4432 48.6371 72.8118 35.2591 107.686 53.6899C142.557 72.1193 155.934 115.484 137.503 150.357C125.979 172.161 103.375 186.697 78.508 188.298C77.5403 188.359 76.8091 189.194 76.87 190.161C76.911 190.792 77.2791 191.324 77.8038 191.601C78.0791 191.747 78.3951 191.822 78.7337 191.799C104.811 190.122 128.518 174.868 140.605 151.997Z" fill="url(#paint11_linear_61_453)" fill-opacity="0.05"/>
<path d="M52.0574 210.598C51.2 210.145 50.1394 210.472 49.6862 211.33L29.9082 248.753C31.116 248.98 32.339 249.171 33.5715 249.331L52.7888 212.969C53.2419 212.112 52.9148 211.051 52.0574 210.598Z" fill="url(#paint12_linear_61_453)" fill-opacity="0.05"/>
<path d="M69.915 54.3415C70.8812 54.2763 71.6082 53.4352 71.5401 52.4675C71.4748 51.5012 70.6353 50.7714 69.666 50.8424C46.6135 52.4815 26.4298 65.6146 15.6732 85.9677L-24.9997 162.927C-25.1331 165.56 -25.1873 168.162 -25.1462 170.714L18.7743 87.6103C28.9626 68.3325 48.0801 55.8978 69.915 54.3415Z" fill="url(#paint13_linear_61_453)" fill-opacity="0.05"/>
<path d="M131.875 149.674C132.354 148.83 132.059 147.757 131.218 147.28C131.201 147.271 131.184 147.262 131.17 147.254C130.335 146.813 129.294 147.11 128.824 147.937C116.547 169.529 92.6032 181.864 67.8264 179.353C67.1157 179.281 66.4314 179.646 66.0965 180.28L52.9667 205.123C52.5136 205.981 52.8408 207.041 53.6981 207.494C54.5555 207.948 55.6162 207.62 56.0693 206.763L68.652 182.955C94.3859 185.099 119.107 172.133 131.875 149.674Z" fill="url(#paint14_linear_61_453)" fill-opacity="0.05"/>
<path d="M132.168 145.173C132.2 145.189 132.228 145.205 132.264 145.22C133.146 145.62 134.183 145.233 134.588 144.35C138.772 135.163 140.76 125.389 140.497 115.301C140.473 114.335 139.667 113.575 138.696 113.594C137.725 113.62 136.961 114.427 136.989 115.395C137.241 124.941 135.358 134.195 131.397 142.898C131.006 143.748 131.354 144.742 132.168 145.173Z" fill="url(#paint15_linear_61_453)" fill-opacity="0.05"/>
<path d="M105.223 58.3449C97.5008 54.2638 89.2089 51.7817 80.579 50.9662C79.6148 50.8749 78.7588 51.5853 78.6674 52.5495C78.5776 53.5108 79.2921 54.38 80.2507 54.4611C88.4202 55.2314 96.2683 57.5816 103.583 61.4475C120.289 70.2765 132.015 86.0079 135.766 104.608C135.871 105.144 136.22 105.574 136.667 105.81C137.014 105.994 137.421 106.062 137.835 105.98C138.783 105.791 139.401 104.864 139.208 103.91C135.252 84.2775 122.863 67.668 105.223 58.3449Z" fill="url(#paint16_linear_61_453)" fill-opacity="0.05"/>
<path d="M34.2027 78.1302C33.4863 77.4728 32.3751 77.5348 31.722 78.2498C28.4819 81.8125 25.6908 85.7886 23.4283 90.0697L10.7819 113.998C10.3288 114.856 10.656 115.916 11.5134 116.37C12.3707 116.823 13.4314 116.496 13.8845 115.638L26.5309 91.7094C28.654 87.6921 31.2771 83.9574 34.318 80.6122C34.9725 79.8943 34.9206 78.7847 34.2027 78.1302Z" fill="url(#paint17_linear_61_453)" fill-opacity="0.05"/>
<path d="M9.33034 120.508C8.47298 120.055 7.41232 120.382 6.9592 121.24L-24.5317 180.825C-24.3146 182.844 -24.0343 184.826 -23.7098 186.78L10.0618 122.879C10.5149 122.022 10.1848 120.96 9.33034 120.508Z" fill="url(#paint18_linear_61_453)" fill-opacity="0.05"/>
<path d="M98.1533 169.143C99.0357 168.744 99.4248 167.702 99.0197 166.817C98.6189 165.93 97.5758 165.544 96.6933 165.951C86.2135 170.739 74.3039 172.089 63.1605 169.762C62.3937 169.602 61.6137 169.968 61.2469 170.662L21.1953 246.445C22.3153 246.832 23.452 247.187 24.6025 247.509L63.7403 173.454C75.2366 175.572 87.4039 174.053 98.1533 169.143Z" fill="url(#paint19_linear_61_453)" fill-opacity="0.05"/>
<path d="M115.263 76.6309C114.583 75.9337 113.476 75.9247 112.78 76.6097C112.089 77.2862 112.077 78.3987 112.759 79.093C129.305 95.9486 133.013 121.294 121.986 142.157C117.554 150.544 110.926 157.636 102.819 162.669C101.995 163.18 101.741 164.263 102.251 165.083C102.42 165.36 102.655 165.568 102.921 165.709C103.455 165.991 104.119 165.99 104.669 165.65C113.305 160.291 120.365 152.735 125.089 143.797C136.831 121.573 132.882 94.5813 115.263 76.6309Z" fill="url(#paint20_linear_61_453)" fill-opacity="0.05"/>
<path d="M99.4832 69.2079C100.951 69.9838 102.396 70.8318 103.776 71.7334C104.614 72.3195 105.681 72.036 106.206 71.2238C106.735 70.4102 106.507 69.3213 105.696 68.7938C104.226 67.8336 102.686 66.9313 101.123 66.1054C80.7755 55.3518 56.0386 57.7624 38.095 72.2446C37.3399 72.8543 37.2207 73.9615 37.829 74.7122C37.9843 74.9043 38.1724 75.0551 38.376 75.1627C38.9782 75.4809 39.7337 75.4327 40.2967 74.9782C57.1483 61.3753 80.3802 59.112 99.4832 69.2079Z" fill="url(#paint21_linear_61_453)" fill-opacity="0.05"/>
<path d="M60.1993 72.1178C59.8774 71.2067 58.8698 70.7256 57.9572 71.0503C46.4107 75.1496 36.9056 83.3616 31.1939 94.169L-6.19657 164.917C-6.64969 165.775 -6.3225 166.835 -5.46514 167.288C-4.60777 167.742 -3.54711 167.414 -3.09399 166.557L34.295 95.8115C39.5945 85.7841 48.4159 78.1646 59.1317 74.3599C60.0472 74.0367 60.524 73.0304 60.1993 72.1178Z" fill="url(#paint22_linear_61_453)" fill-opacity="0.05"/>
<path d="M59.1741 159.569C58.3167 159.116 57.2561 159.443 56.8029 160.301L13.1188 242.958C14.1452 243.507 15.194 244.029 16.2669 244.511L59.9055 161.941C60.3586 161.083 60.0286 160.021 59.1741 159.569Z" fill="url(#paint23_linear_61_453)" fill-opacity="0.05"/>
<path d="M65.451 164.85C86.4907 168.706 107.339 158.599 117.329 139.696C129.879 115.948 120.773 86.4179 97.0243 73.867C88.6973 69.4662 79.3443 67.5825 69.9778 68.4246C69.0111 68.5117 68.2998 69.3647 68.3868 70.3314C68.4725 71.2938 69.3268 72.0094 70.2936 71.9224C78.9827 71.1404 87.6597 72.887 95.3846 76.9696C117.418 88.6143 125.872 116.02 114.226 138.057C104.958 155.594 85.6086 164.975 66.0874 161.397C65.1338 161.223 64.2171 161.854 64.0404 162.806C63.8997 163.579 64.2862 164.326 64.9486 164.676C65.1021 164.754 65.2719 164.814 65.451 164.85Z" fill="url(#paint24_linear_61_453)" fill-opacity="0.05"/>
<path d="M91.2818 84.7267C103.113 90.9794 110.544 103.212 110.678 116.646C110.688 117.62 111.49 118.393 112.449 118.382C113.419 118.374 114.194 117.58 114.185 116.611C114.043 101.888 105.894 88.48 92.9215 81.6241C73.4516 71.3342 49.242 78.7998 38.9522 98.2697L17.5572 138.752C17.1041 139.61 17.4313 140.67 18.2886 141.123C19.146 141.576 20.2066 141.249 20.6598 140.392L42.0532 99.9123C51.4428 82.1529 73.5237 75.3415 91.2818 84.7267Z" fill="url(#paint25_linear_61_453)" fill-opacity="0.05"/>
<path d="M25.7678 203.988C24.9104 203.535 23.8498 203.862 23.3967 204.72L5.61299 238.369C6.57237 239.06 7.54988 239.716 8.53973 240.341L26.4992 206.359C26.9524 205.502 26.6252 204.441 25.7678 203.988Z" fill="url(#paint26_linear_61_453)" fill-opacity="0.05"/>
<path d="M13.231 150.699C12.3736 150.246 11.313 150.573 10.8598 151.43L-18.2685 206.545C-17.7068 207.954 -17.1127 209.335 -16.4889 210.688L13.9624 153.07C14.4155 152.213 14.0883 151.152 13.231 150.699Z" fill="url(#paint27_linear_61_453)" fill-opacity="0.05"/>
<path d="M109.566 135.594C111.369 132.182 112.665 128.549 113.413 124.795C113.604 123.843 112.997 122.91 112.035 122.732C111.086 122.542 110.158 123.159 109.971 124.11C109.291 127.528 108.108 130.843 106.463 133.954C97.0781 151.712 74.9971 158.524 57.239 149.138C56.6168 148.81 56.0094 148.467 55.4139 148.108C55.0081 147.835 54.4999 147.79 54.0385 147.92C53.5771 148.05 53.1826 148.367 52.9568 148.794L29.1416 193.856C28.6885 194.713 29.0157 195.774 29.8731 196.227C30.7304 196.68 31.7911 196.353 32.2442 195.495L55.2122 152.036C55.3413 152.105 55.4732 152.174 55.6022 152.243C75.0693 162.531 99.276 155.064 109.566 135.594Z" fill="url(#paint28_linear_61_453)" fill-opacity="0.05"/>
<path d="M101.805 131.491C109.832 116.302 104.004 97.4148 88.8175 89.389C85.8755 87.8341 82.7326 86.7637 79.4763 86.213C78.5239 86.0508 77.6157 86.6933 77.4534 87.653C77.2883 88.6039 77.9251 89.509 78.8934 89.6759C81.7752 90.1645 84.5656 91.111 87.1778 92.4916C100.655 99.6142 105.825 116.374 98.7023 129.851C91.5782 143.331 74.8181 148.501 61.3411 141.379C58.1754 139.705 55.4223 137.495 53.1472 134.803C52.767 134.356 52.1991 134.126 51.6173 134.193C51.037 134.256 50.5272 134.603 50.2559 135.116L-1.25093 232.575C-0.379286 233.425 0.5119 234.244 1.41975 235.032L52.1976 138.953C54.3896 141.149 56.9056 143.004 59.7013 144.481C74.8902 152.508 93.7761 146.683 101.805 131.491Z" fill="url(#paint29_linear_61_453)" fill-opacity="0.05"/>
<path d="M69.8417 89.65C70.8013 89.4932 71.4498 88.5923 71.2943 87.6371C71.1375 86.6775 70.2309 86.026 69.2799 86.1873C59.5339 87.7753 51.3083 93.6774 46.7119 102.374L41.0381 113.11C40.585 113.967 40.9122 115.028 41.7695 115.481C42.6269 115.934 43.6876 115.607 44.1407 114.75L49.8145 104.014C53.8941 96.2949 61.1935 91.0625 69.8417 89.65Z" fill="url(#paint30_linear_61_453)" fill-opacity="0.05"/>
<path d="M37.9422 122.724C37.0848 122.271 36.0241 122.598 35.571 123.456L-13.552 216.404C-12.8755 217.609 -12.1723 218.784 -11.4466 219.93L38.6736 125.095C39.1267 124.238 38.7995 123.177 37.9422 122.724Z" fill="url(#paint31_linear_61_453)" fill-opacity="0.05"/>
<path d="M23.6719 169.453C22.8145 169 21.7539 169.327 21.3008 170.185L-7.78663 225.222C-7.00727 226.239 -6.20399 227.225 -5.3842 228.187L24.4033 171.824C24.8564 170.967 24.5264 169.905 23.6719 169.453Z" fill="url(#paint32_linear_61_453)" fill-opacity="0.05"/>
<path d="M82.8733 100.635C91.857 105.383 95.3046 116.56 90.5552 125.546C89.9748 126.644 89.2826 127.683 88.5053 128.634C87.8892 129.383 87.9978 130.489 88.747 131.105C89.499 131.73 90.6043 131.61 91.2188 130.864C92.1467 129.733 92.9682 128.498 93.6607 127.187C99.3133 116.492 95.2115 103.187 84.5159 97.5343C73.8203 91.8817 60.5154 95.9834 54.8613 106.682L24.7161 163.721C24.263 164.578 24.5902 165.639 25.4475 166.092C26.3049 166.545 27.3656 166.218 27.8187 165.361L57.9638 108.322C62.7132 99.335 73.8867 95.8859 82.8733 100.635Z" fill="url(#paint33_linear_61_453)" fill-opacity="0.05"/>
<path d="M82.0843 137.437C82.9889 137.086 83.4454 136.077 83.1003 135.168C82.7479 134.259 81.741 133.811 80.8309 134.152C75.8729 136.044 70.3369 135.712 65.6458 133.232C62.2134 131.418 59.4879 128.628 57.7626 125.167C57.3381 124.304 56.2784 123.942 55.4097 124.378C54.5412 124.807 54.1895 125.861 54.6211 126.731C56.6681 130.854 59.9156 134.177 64.0017 136.336C69.5905 139.283 76.1839 139.689 82.0843 137.437Z" fill="url(#paint34_linear_61_453)" fill-opacity="0.05"/>
<path d="M73.1443 106.315C72.8897 105.381 71.9213 104.832 70.9856 105.09C67.7344 105.987 64.9698 108.212 63.3968 111.189C60.2295 117.182 62.5265 124.628 68.5195 127.796C74.5096 130.961 81.9562 128.664 85.1234 122.671C88.0467 117.14 86.361 110.314 81.2002 106.787C80.4141 106.261 79.3058 106.449 78.7597 107.247C78.215 108.048 78.4196 109.139 79.2226 109.689C82.9061 112.2 84.1091 117.08 82.0224 121.029C79.7613 125.307 74.439 126.951 70.1607 124.69C65.8825 122.429 64.2398 117.104 66.5008 112.826C67.642 110.666 69.5686 109.124 71.925 108.469C72.8577 108.218 73.4018 107.251 73.1443 106.315Z" fill="url(#paint35_linear_61_453)" fill-opacity="0.05"/>
<path d="M76.5231 118.13C77.1838 116.88 76.7053 115.328 75.455 114.667C74.2048 114.007 72.6562 114.487 71.9954 115.737C71.3347 116.987 71.8148 118.536 73.0622 119.195C74.3152 119.857 75.8624 119.38 76.5231 118.13Z" fill="url(#paint36_linear_61_453)" fill-opacity="0.05"/>
<defs>
<linearGradient id="paint0_linear_61_453" x1="108.344" y1="211.378" x2="91.9564" y2="242.387" gradientUnits="userSpaceOnUse">
<stop stop-color="#FD9F41"/>
<stop offset="1" stop-color="#EEC033"/>
</linearGradient>
<linearGradient id="paint1_linear_61_453" x1="116.978" y1="190.434" x2="84.7887" y2="251.341" gradientUnits="userSpaceOnUse">
<stop stop-color="#FD9F41"/>
<stop offset="1" stop-color="#EEC033"/>
</linearGradient>
<linearGradient id="paint2_linear_61_453" x1="84.3589" y1="205.828" x2="61.6561" y2="248.785" gradientUnits="userSpaceOnUse">
<stop stop-color="#FD9F41"/>
<stop offset="1" stop-color="#EEC033"/>
</linearGradient>
<linearGradient id="paint3_linear_61_453" x1="129.694" y1="41.4956" x2="115.169" y2="68.98" gradientUnits="userSpaceOnUse">
<stop stop-color="#FD9F41"/>
<stop offset="1" stop-color="#EEC033"/>
</linearGradient>
<linearGradient id="paint4_linear_61_453" x1="131.4" y1="163.695" x2="105.02" y2="213.61" gradientUnits="userSpaceOnUse">
<stop stop-color="#FD9F41"/>
<stop offset="1" stop-color="#EEC033"/>
</linearGradient>
<linearGradient id="paint5_linear_61_453" x1="79.252" y1="26.2676" x2="64.0153" y2="55.0975" gradientUnits="userSpaceOnUse">
<stop stop-color="#FD9F41"/>
<stop offset="1" stop-color="#EEC033"/>
</linearGradient>
<linearGradient id="paint6_linear_61_453" x1="129.151" y1="145.489" x2="68.6982" y2="259.874" gradientUnits="userSpaceOnUse">
<stop stop-color="#FD9F41"/>
<stop offset="1" stop-color="#EEC033"/>
</linearGradient>
<linearGradient id="paint7_linear_61_453" x1="164.007" y1="96.6061" x2="138.043" y2="145.735" gradientUnits="userSpaceOnUse">
<stop stop-color="#FD9F41"/>
<stop offset="1" stop-color="#EEC033"/>
</linearGradient>
<linearGradient id="paint8_linear_61_453" x1="133.219" y1="53.2856" x2="124.242" y2="70.2723" gradientUnits="userSpaceOnUse">
<stop stop-color="#FD9F41"/>
<stop offset="1" stop-color="#EEC033"/>
</linearGradient>
<linearGradient id="paint9_linear_61_453" x1="1.19314" y1="98.3404" x2="-25.0528" y2="148.002" gradientUnits="userSpaceOnUse">
<stop stop-color="#FD9F41"/>
<stop offset="1" stop-color="#EEC033"/>
</linearGradient>
<linearGradient id="paint10_linear_61_453" x1="71.1629" y1="193.231" x2="40.8101" y2="250.663" gradientUnits="userSpaceOnUse">
<stop stop-color="#FD9F41"/>
<stop offset="1" stop-color="#EEC033"/>
</linearGradient>
<linearGradient id="paint11_linear_61_453" x1="109.323" y1="50.5859" x2="44.1859" y2="173.834" gradientUnits="userSpaceOnUse">
<stop stop-color="#FD9F41"/>
<stop offset="1" stop-color="#EEC033"/>
</linearGradient>
<linearGradient id="paint12_linear_61_453" x1="52.0574" y1="210.598" x2="31.4595" y2="249.572" gradientUnits="userSpaceOnUse">
<stop stop-color="#FD9F41"/>
<stop offset="1" stop-color="#EEC033"/>
</linearGradient>
<linearGradient id="paint13_linear_61_453" x1="57.1298" y1="43.9145" x2="-13.2162" y2="177.019" gradientUnits="userSpaceOnUse">
<stop stop-color="#FD9F41"/>
<stop offset="1" stop-color="#EEC033"/>
</linearGradient>
<linearGradient id="paint14_linear_61_453" x1="113.334" y1="137.828" x2="71.534" y2="216.921" gradientUnits="userSpaceOnUse">
<stop stop-color="#FD9F41"/>
<stop offset="1" stop-color="#EEC033"/>
</linearGradient>
<linearGradient id="paint15_linear_61_453" x1="143.153" y1="115.697" x2="128.578" y2="143.275" gradientUnits="userSpaceOnUse">
<stop stop-color="#FD9F41"/>
<stop offset="1" stop-color="#EEC033"/>
</linearGradient>
<linearGradient id="paint16_linear_61_453" x1="116.458" y1="64.2828" x2="103.715" y2="88.3951" gradientUnits="userSpaceOnUse">
<stop stop-color="#FD9F41"/>
<stop offset="1" stop-color="#EEC033"/>
</linearGradient>
<linearGradient id="paint17_linear_61_453" x1="33.0673" y1="77.4655" x2="12.2896" y2="116.78" gradientUnits="userSpaceOnUse">
<stop stop-color="#FD9F41"/>
<stop offset="1" stop-color="#EEC033"/>
</linearGradient>
<linearGradient id="paint18_linear_61_453" x1="9.33034" y1="120.508" x2="-25.2611" y2="185.961" gradientUnits="userSpaceOnUse">
<stop stop-color="#FD9F41"/>
<stop offset="1" stop-color="#EEC033"/>
</linearGradient>
<linearGradient id="paint19_linear_61_453" x1="85.5265" y1="159.27" x2="35.4679" y2="253.988" gradientUnits="userSpaceOnUse">
<stop stop-color="#FD9F41"/>
<stop offset="1" stop-color="#EEC033"/>
</linearGradient>
<linearGradient id="paint20_linear_61_453" x1="132.005" y1="85.3823" x2="92.4711" y2="160.186" gradientUnits="userSpaceOnUse">
<stop stop-color="#FD9F41"/>
<stop offset="1" stop-color="#EEC033"/>
</linearGradient>
<linearGradient id="paint21_linear_61_453" x1="80.7413" y1="55.3337" x2="63.3001" y2="88.335" gradientUnits="userSpaceOnUse">
<stop stop-color="#FD9F41"/>
<stop offset="1" stop-color="#EEC033"/>
</linearGradient>
<linearGradient id="paint22_linear_61_453" x1="53.8851" y1="68.2572" x2="0.0161436" y2="170.185" gradientUnits="userSpaceOnUse">
<stop stop-color="#FD9F41"/>
<stop offset="1" stop-color="#EEC033"/>
</linearGradient>
<linearGradient id="paint23_linear_61_453" x1="59.1741" y1="159.569" x2="14.6697" y2="243.778" gradientUnits="userSpaceOnUse">
<stop stop-color="#FD9F41"/>
<stop offset="1" stop-color="#EEC033"/>
</linearGradient>
<linearGradient id="paint24_linear_61_453" x1="106.509" y1="78.8797" x2="61.9914" y2="163.114" gradientUnits="userSpaceOnUse">
<stop stop-color="#FD9F41"/>
<stop offset="1" stop-color="#EEC033"/>
</linearGradient>
<linearGradient id="paint25_linear_61_453" x1="90.8976" y1="80.5544" x2="50.0231" y2="157.895" gradientUnits="userSpaceOnUse">
<stop stop-color="#FD9F41"/>
<stop offset="1" stop-color="#EEC033"/>
</linearGradient>
<linearGradient id="paint26_linear_61_453" x1="25.7678" y1="203.988" x2="6.98846" y2="239.522" gradientUnits="userSpaceOnUse">
<stop stop-color="#FD9F41"/>
<stop offset="1" stop-color="#EEC033"/>
</linearGradient>
<linearGradient id="paint27_linear_61_453" x1="13.231" y1="150.699" x2="-18.0401" y2="209.868" gradientUnits="userSpaceOnUse">
<stop stop-color="#FD9F41"/>
<stop offset="1" stop-color="#EEC033"/>
</linearGradient>
<linearGradient id="paint28_linear_61_453" x1="96.0572" y1="114.198" x2="47.72" y2="205.659" gradientUnits="userSpaceOnUse">
<stop stop-color="#FD9F41"/>
<stop offset="1" stop-color="#EEC033"/>
</linearGradient>
<linearGradient id="paint29_linear_61_453" x1="96.964" y1="93.6944" x2="17.7155" y2="243.644" gradientUnits="userSpaceOnUse">
<stop stop-color="#FD9F41"/>
<stop offset="1" stop-color="#EEC033"/>
</linearGradient>
<linearGradient id="paint30_linear_61_453" x1="65.2135" y1="83.6342" x2="46.9386" y2="118.213" gradientUnits="userSpaceOnUse">
<stop stop-color="#FD9F41"/>
<stop offset="1" stop-color="#EEC033"/>
</linearGradient>
<linearGradient id="paint31_linear_61_453" x1="37.9422" y1="122.724" x2="-12.9979" y2="219.11" gradientUnits="userSpaceOnUse">
<stop stop-color="#FD9F41"/>
<stop offset="1" stop-color="#EEC033"/>
</linearGradient>
<linearGradient id="paint32_linear_61_453" x1="23.6719" y1="169.453" x2="-6.93549" y2="227.367" gradientUnits="userSpaceOnUse">
<stop stop-color="#FD9F41"/>
<stop offset="1" stop-color="#EEC033"/>
</linearGradient>
<linearGradient id="paint33_linear_61_453" x1="84.5145" y1="97.5335" x2="43.296" y2="175.525" gradientUnits="userSpaceOnUse">
<stop stop-color="#FD9F41"/>
<stop offset="1" stop-color="#EEC033"/>
</linearGradient>
<linearGradient id="paint34_linear_61_453" x1="70.3699" y1="127.948" x2="65.5143" y2="137.136" gradientUnits="userSpaceOnUse">
<stop stop-color="#FD9F41"/>
<stop offset="1" stop-color="#EEC033"/>
</linearGradient>
<linearGradient id="paint35_linear_61_453" x1="79.97" y1="106.126" x2="68.5181" y2="127.795" gradientUnits="userSpaceOnUse">
<stop stop-color="#FD9F41"/>
<stop offset="1" stop-color="#EEC033"/>
</linearGradient>
<linearGradient id="paint36_linear_61_453" x1="75.4565" y1="114.668" x2="73.0636" y2="119.196" gradientUnits="userSpaceOnUse">
<stop stop-color="#FD9F41"/>
<stop offset="1" stop-color="#EEC033"/>
</linearGradient>
</defs>
</svg>
