<svg width="132" height="244" viewBox="0 0 132 244" fill="none" xmlns="http://www.w3.org/2000/svg">
<g opacity="0.05" clip-path="url(#clip0_647_118)">
<path d="M4.62867 193.39L35.0386 186.142C36.956 185.694 38.6301 185.043 40.7246 184.62C41.6329 184.437 42.786 183.893 43.332 182.831C43.8122 181.898 44.0374 180.68 43.332 179.665C42.8118 178.917 42.5176 178.746 41.6437 178.488C40.6094 178.183 39.551 178.277 38.5551 178.488C36.3847 178.949 32.4873 180.218 30.8056 180.611L3.15429 187.063C1.40847 187.47 0.323033 189.217 0.730005 190.965C1.13663 192.711 2.88185 193.797 4.62867 193.39Z" fill="#989898"/>
<path d="M8.44445 173.56L28.1022 168.973C30.7639 168.352 36.1072 166.798 38.6829 165.882C39.5757 165.558 40.6454 164.876 41.3169 164.204C41.8045 163.716 42.4278 161.885 41.9887 160.843C41.3705 159.377 39.8015 159.201 38.176 159.391C37.7558 159.44 37.3331 159.518 36.9232 159.611C34.4706 160.502 29.196 162.047 26.628 162.646L6.96973 167.233C5.22397 167.64 4.13855 169.387 4.54538 171.135C4.95233 172.881 6.69781 173.967 8.44445 173.56Z" fill="#989898"/>
<path d="M6.22356 155.143L23.9237 151.013C27.0989 150.273 32.4556 148.781 35.8848 147.179C37.2504 146.541 38.6299 146.055 39.3015 145.382C40.2474 144.436 40.5156 143.245 39.9733 142.022C39.5853 141.146 38.7118 140.533 38.1442 140.39C37.5552 140.242 36.8284 140.268 36.0421 140.405C35.2376 140.545 31.6753 141.585 30.966 141.828C28.2433 143.039 25.394 143.999 22.4493 144.686L4.74903 148.816C3.00322 149.223 1.91777 150.97 2.32473 152.718C2.73128 154.464 4.47748 155.55 6.22356 155.143Z" fill="#989898"/>
<path fill-rule="evenodd" clip-rule="evenodd" d="M63.7204 27.9634C63.1459 27.5624 62.6976 26.9753 62.4761 26.2528C61.9504 24.5381 62.9133 22.721 64.6284 22.1943C84.9613 15.953 106.638 15.0517 127.309 19.586C129.059 19.9685 130.168 21.7015 129.784 23.4547C129.4 25.2069 127.67 26.316 125.918 25.932C106.332 21.6363 85.7976 22.4919 66.5311 28.4062C65.5391 28.7107 64.5136 28.5169 63.7204 27.9634Z" fill="#989898"/>
<path d="M178.016 29.0222C161.225 17.3047 142.516 9.72456 122.416 6.49704C121.916 6.41722 121.463 6.22742 121.076 5.95709C120.084 5.26482 119.522 4.04563 119.726 2.77526C120.009 1.00394 121.675 -0.201699 123.445 0.082521C144.519 3.46628 164.126 11.4089 181.73 23.6931C190.9 30.0927 199.283 37.5474 206.643 45.8489C207.833 47.1912 207.71 49.2446 206.369 50.4352C205.029 51.6251 202.978 51.5019 201.787 50.1613C194.765 42.2408 186.767 35.1284 178.016 29.0222Z" fill="#989898"/>
<path d="M15.5496 115.095C19.6626 114.134 23.2572 111.697 25.6728 108.23L35.4469 94.2029C35.8832 93.5772 36.7795 92.3472 36.7795 92.3472C36.7795 92.3472 37.0548 91.7789 37.1638 91.4816C37.4343 90.7441 37.535 90.0313 37.3673 89.397C37.2047 88.7828 36.7694 88.1622 35.8009 87.632C35.1417 87.2714 34.5704 87.1579 34.0739 87.1843C33.5746 87.2107 33.1148 87.3811 32.6854 87.6427C32.1346 87.9786 31.6645 88.4423 31.2514 88.9037C30.8694 89.4264 30.4929 89.9542 30.1217 90.4869L20.3476 104.514C18.851 106.662 16.6228 108.172 14.0758 108.767L6.32253 110.575C4.57663 110.983 3.4914 112.729 3.89853 114.477C4.08772 115.29 4.56608 115.959 5.20184 116.403C5.93228 116.913 6.8637 117.121 7.79661 116.903L15.5496 115.095Z" fill="#989898"/>
<path d="M33.4377 200.195L6.60162 206.315C4.85432 206.714 3.75959 208.455 4.15803 210.205C4.34469 211.025 4.82484 211.699 5.46499 212.146C6.19109 212.653 7.11568 212.861 8.0441 212.65L34.8798 206.529C48.5508 203.412 61.3332 197.752 72.6434 189.942C73.5075 189.345 74.3359 188.422 74.7232 187.45C74.9505 186.879 75.1338 185.995 74.4615 185.094C73.9493 184.407 73.1876 184.168 72.4932 184.127C71.7598 184.084 70.9024 184.239 70.0225 184.508C68.7391 184.9 67.8845 185.39 66.6138 186.141C55.1037 192.948 43.793 197.834 33.4377 200.195Z" fill="#989898"/>
<path d="M37.5393 218.173L14.8966 223.337C13.1489 223.736 12.054 225.477 12.4525 227.226C12.6391 228.047 13.1193 228.721 13.7594 229.168C14.4855 229.675 15.4101 229.883 16.3385 229.671L38.9818 224.508C61.6758 219.332 82.2744 208.161 98.8242 192.313C99.3208 191.597 99.7281 190.9 99.9641 190.233C100.094 189.867 100.263 189.259 100.131 188.652C100.131 188.652 100.219 189.062 100.13 188.65C100.041 188.238 99.7932 187.818 99.3955 187.43C98.2394 186.298 96.0968 187.243 95.2598 187.626C94.6009 187.926 93.5577 188.759 93.5577 188.759C93.5577 188.759 89.5872 191.958 87.8535 193.394C73.3802 205.385 56.2062 213.916 37.5393 218.173Z" fill="#989898"/>
<path d="M35.3736 237.583L41.6402 236.155C57.4426 232.55 69.9894 227.782 85.7099 217.74C98.4493 209.601 115.116 192.56 115.116 192.56L119.485 187.928C119.485 187.928 121.78 185.259 123.379 184.833C124.604 184.506 125.631 185.114 126.099 185.472C126.443 185.734 126.779 186.14 126.981 186.693C127.464 188.013 126.454 189.047 125.734 190.068C123.978 192.56 106.78 211.731 90.4185 222.432C73.6143 233.423 60.1001 238.608 43.082 242.488L36.8161 243.919C35.8877 244.13 34.9631 243.921 34.237 243.414C33.5974 242.968 33.117 242.294 32.93 241.472C32.5317 239.724 33.6257 237.983 35.3736 237.583Z" fill="#989898"/>
<path d="M113.083 220.364C114.447 219.202 116.494 219.365 117.66 220.729C118.822 222.095 118.658 224.145 117.295 225.308C112.27 229.595 106.932 233.617 101.429 237.261C100.287 238.018 98.84 237.958 97.7786 237.217C97.4531 236.99 97.1641 236.698 96.9297 236.344C95.9403 234.849 96.3499 232.835 97.8451 231.844L113.083 220.364Z" fill="#989898"/>
<path d="M148.047 181.385L135.385 195.462C130.546 200.842 125.3 205.928 119.791 210.581C118.42 211.739 118.248 213.788 119.404 215.159C119.501 215.275 119.606 215.383 119.716 215.482C120.902 216.55 122.725 216.604 123.978 215.546C129.713 210.702 135.174 205.407 140.21 199.809C140.21 199.809 148.396 191.315 152.859 185.419C158.232 178.32 163.403 168.602 164.711 166.246C165.147 165.461 165.758 162.843 163.926 162.058C162.287 161.354 160.397 162.413 159.741 163.89C157.648 168.602 148.804 180.543 148.047 181.385Z" fill="#989898"/>
<path d="M167.913 68.1741L167.912 68.1729C164.493 64.9713 160.799 61.9798 156.933 59.2817C156.221 58.7854 155.505 58.299 154.783 57.823C139.62 47.8204 122.223 42.3189 104.321 41.7158C103.035 41.6725 101.747 41.6544 100.457 41.6619C95.5384 41.6899 90.5913 42.0871 85.6512 42.8619C60.5875 46.7923 38.3241 60.0012 22.9693 80.0555C21.9093 81.4396 19.9535 81.7332 18.5386 80.7461C18.4948 80.7153 18.4575 80.6882 18.4243 80.6623L18.418 80.6574C16.9955 79.5671 16.7256 77.5278 17.8162 76.1036C34.1902 54.7196 57.9215 40.6352 84.6461 36.4436C85.2595 36.3473 85.8731 36.2566 86.4867 36.1714C86.595 36.1563 86.7031 36.1413 86.8112 36.1267C112.902 32.5808 139.039 38.8748 160.646 53.9526C164.766 56.8276 168.703 60.017 172.349 63.4299C173.658 64.6562 173.726 66.711 172.5 68.0208C171.274 69.332 169.22 69.4015 167.913 68.1741Z" fill="#989898"/>
<path d="M126.972 64.4781C128.666 65.0666 130.516 64.1691 131.103 62.4747C131.691 60.7811 130.794 58.93 129.101 58.3401C120.08 55.2061 110.641 53.6106 101.045 53.5977C99.2521 53.5953 97.797 55.0487 97.7949 56.8421C97.7929 57.9475 98.3414 58.9242 99.1864 59.5138C99.7101 59.8794 100.346 60.094 101.036 60.0951C109.908 60.1067 118.634 61.5816 126.972 64.4781Z" fill="#989898"/>
<path d="M87.0181 57.955C87.3844 59.7114 86.2591 61.4319 84.5043 61.799C77.6766 63.226 72.1973 64.8775 65.0455 68.5632C59.7229 71.3065 48.451 79.5319 48.451 79.5319C48.451 79.5319 45.6286 82.1497 43.3322 80.0555C41.0357 77.9611 43.3322 74.9484 43.3322 74.9484C43.9472 74.1743 55.1711 66.3478 60.8615 63.3651C69.0533 59.0715 74.1848 57.3186 83.177 55.4393C84.9316 55.0728 86.6517 56.1988 87.0181 57.955Z" fill="#989898"/>
<path d="M28.4525 128.772C25.2239 130.766 23.2646 131.675 19.7284 133.05C13.8437 135.339 3.98379 136.724 3.98379 136.724C3.05148 136.942 2.11939 136.734 1.38906 136.225C0.75353 135.781 0.275482 135.113 0.0854674 134.298C-0.321528 132.55 0.76421 130.804 2.50947 130.397C2.50947 130.397 12.4125 129.12 18.2542 126.723C21.5414 125.374 23.3532 124.471 26.3283 122.528C30.6344 119.716 33.4667 116.693 36.2068 113.817C37.297 113.247 38.4741 113.051 39.6321 113.684C40.6006 114.214 41.0359 114.835 41.1985 115.449C41.3662 116.084 41.285 116.769 40.9952 117.534C40.6942 118.328 40.0196 118.961 39.7011 119.28C36.5019 122.488 33.3425 125.752 28.4525 128.772Z" fill="#989898"/>
<path d="M83.1377 168.919C83.1377 167.637 83.1377 166.219 83.1377 164.664C83.1377 163.016 83.1377 160.958 83.1377 158.487C83.1377 155.924 83.1377 152.63 83.1377 148.604C83.1377 145.767 83.1377 142.839 83.1377 139.819C83.1377 136.708 83.1377 133.505 83.1377 130.211C83.1377 126.825 83.1377 123.256 83.1377 119.505C83.1377 115.753 83.1377 111.772 83.1377 107.563C83.1377 102.164 83.272 97.8173 83.5409 94.5229C83.899 91.2286 84.5259 88.7122 85.4213 86.9737C86.3168 85.1434 87.5705 83.9082 89.1825 83.2676C90.884 82.627 93.0332 82.3066 95.6303 82.3066C97.0631 82.3066 98.3616 82.3066 99.5256 82.3066C100.78 82.3066 102.033 82.3066 103.287 82.3066C104.541 82.3066 106.018 82.3066 107.72 82.3066C109.511 82.3066 111.705 82.3066 114.302 82.3066C119.585 82.3066 124.376 83.0845 128.675 84.6402C132.973 86.1042 136.735 88.2089 139.958 90.9541C143.272 93.6994 146.048 96.9936 148.287 100.837C150.525 104.68 152.182 108.981 153.257 113.74C154.421 118.406 155.003 123.439 155.003 128.838C155.003 135.61 153.973 141.878 151.913 147.643C149.943 153.317 147.078 158.258 143.316 162.467C139.645 166.677 135.257 169.925 130.152 172.213C125.048 174.501 119.361 175.645 113.093 175.645C111.302 175.645 109.511 175.645 107.72 175.645C106.018 175.645 104.317 175.645 102.615 175.645C100.377 175.645 98.6749 175.05 97.5109 173.86C96.3467 172.579 95.7646 171.115 95.7646 169.468C95.7646 167.821 96.3467 166.402 97.5109 165.212C98.6749 163.931 100.377 163.291 102.615 163.291C104.496 163.291 106.242 163.291 107.854 163.291C109.466 163.291 111.212 163.291 113.093 163.291C117.75 163.291 121.914 162.467 125.585 160.82C129.257 159.081 132.346 156.702 134.854 153.683C137.451 150.571 139.421 146.911 140.764 142.702C142.197 138.492 142.913 133.871 142.913 128.838C142.913 123.805 142.331 119.23 141.167 115.112C140.003 110.903 138.257 107.288 135.928 104.268C133.6 101.249 130.645 98.9153 127.063 97.2682C123.481 95.5294 119.227 94.6601 114.302 94.6601C111.705 94.6601 109.511 94.6601 107.72 94.6601C105.929 94.6601 104.227 94.6601 102.615 94.6601C101.093 94.6601 99.257 94.6601 97.1077 94.6601C96.5705 94.6601 96.1227 94.8888 95.7646 95.3465C95.496 95.7125 95.3168 96.3072 95.2273 97.1309C95.1376 97.8629 95.093 98.778 95.093 99.876C95.093 100.974 95.093 102.164 95.093 103.445C95.1825 104.726 95.2273 106.099 95.2273 107.563C95.2273 111.315 95.2273 115.295 95.2273 119.505C95.2273 123.714 95.2273 128.243 95.2273 133.093C95.2273 137.852 95.2273 143.022 95.2273 148.604C95.2273 153.088 95.2273 156.519 95.2273 158.899C95.2273 161.278 95.2273 163.199 95.2273 164.664C95.2273 166.036 95.2273 167.455 95.2273 168.919C95.2273 171.206 94.6004 172.945 93.3467 174.134C92.1825 175.324 90.7945 175.919 89.1825 175.919C87.5705 175.919 86.1377 175.324 84.884 174.134C83.7198 172.945 83.1377 171.206 83.1377 168.919Z" fill="white"/>
<path d="M56.3643 169.108C56.3643 166.17 56.3643 163.5 56.3643 161.096C56.3643 158.692 56.3643 156.511 56.3643 154.552C56.3643 152.505 56.3643 150.635 56.3643 148.944C56.3643 144.67 56.3643 140.308 56.3643 135.857C56.3643 131.405 56.3643 126.954 56.3643 122.503C56.3643 117.962 56.3643 113.6 56.3643 109.415C56.3643 107.368 56.3643 105.365 56.3643 103.406C56.3643 101.359 56.3643 99.1774 56.3643 96.8626C56.3643 94.5479 56.3643 91.9217 56.3643 88.9838C56.3643 86.7581 57.1106 85.111 58.6032 84.0427C60.2106 82.8854 62.0478 82.3066 64.1145 82.3066C66.1811 82.3066 67.9608 82.8854 69.4534 84.0427C71.0608 85.111 71.8647 86.7581 71.8647 88.9838C71.8647 91.9217 71.8647 94.5479 71.8647 96.8626C71.8647 99.1774 71.8647 101.359 71.8647 103.406C71.8647 105.365 71.8647 107.368 71.8647 109.415C71.8647 113.6 71.8647 117.962 71.8647 122.503C71.8647 126.954 71.8647 131.405 71.8647 135.857C71.8647 140.308 71.8647 144.67 71.8647 148.944C71.8647 150.635 71.8647 152.505 71.8647 154.552C71.8647 156.511 71.8647 158.692 71.8647 161.096C71.8647 163.5 71.8647 166.17 71.8647 169.108C71.8647 171.423 71.0608 173.159 69.4534 174.316C67.9608 175.385 66.1811 175.919 64.1145 175.919C62.0478 175.919 60.2106 175.385 58.6032 174.316C57.1106 173.159 56.3643 171.423 56.3643 169.108Z" fill="white"/>
</g>
<defs>
<clipPath id="clip0_647_118">
<rect width="227" height="244" fill="white"/>
</clipPath>
</defs>
</svg>
