<svg width="115" height="124" viewBox="0 0 115 124" fill="none" xmlns="http://www.w3.org/2000/svg">
<g opacity="0.2" clip-path="url(#clip0_647_22)">
<path d="M2.34505 98.2802L17.751 94.5967C18.7223 94.3693 19.5705 94.0383 20.6316 93.8234C21.0917 93.7302 21.6759 93.4537 21.9525 92.9142C22.1958 92.4397 22.3098 91.8211 21.9525 91.3054C21.6889 90.9249 21.5399 90.8383 21.0971 90.7071C20.5732 90.552 20.037 90.5998 19.5325 90.7071C18.4329 90.9411 16.4585 91.5864 15.6065 91.7858L1.59813 95.0646C0.713678 95.2716 0.163787 96.1593 0.369962 97.0476C0.575962 97.9351 1.4601 98.4871 2.34505 98.2802Z" fill="#989898"/>
<path d="M4.27785 88.203L14.2366 85.8719C15.585 85.5564 18.292 84.7663 19.5969 84.3011C20.0492 84.1361 20.5911 83.7898 20.9313 83.4481C21.1783 83.2003 21.4941 82.2695 21.2717 81.74C20.9585 80.9948 20.1636 80.9055 19.3401 81.0021C19.1272 81.0272 18.9131 81.0667 18.7054 81.114C17.4629 81.5666 14.7908 82.3518 13.4898 82.6563L3.53075 84.9873C2.64633 85.1944 2.09645 86.0819 2.30255 86.9703C2.50871 87.8578 3.39299 88.4094 4.27785 88.203Z" fill="#989898"/>
<path d="M3.15276 78.8434L12.1198 76.7445C13.7284 76.3681 16.4421 75.6099 18.1794 74.7958C18.8712 74.4716 19.5701 74.2245 19.9103 73.8829C20.3895 73.4019 20.5254 72.7966 20.2506 72.1749C20.0541 71.7301 19.6116 71.4183 19.324 71.3458C19.0256 71.2705 18.6574 71.2836 18.259 71.3534C17.8515 71.4247 16.0468 71.9531 15.6875 72.0766C14.3082 72.6921 12.8647 73.1798 11.3729 73.5289L2.40575 75.6277C1.52131 75.8348 0.971407 76.7224 1.17758 77.6108C1.38354 78.4981 2.26818 79.0501 3.15276 78.8434Z" fill="#989898"/>
<path fill-rule="evenodd" clip-rule="evenodd" d="M32.2812 14.2109C31.9902 14.0071 31.7631 13.7088 31.6509 13.3416C31.3845 12.4702 31.8724 11.5467 32.7412 11.279C43.0421 8.10725 54.0234 7.64919 64.4959 9.95351C65.3822 10.1479 65.9442 11.0286 65.7497 11.9196C65.5553 12.8101 64.6784 13.3737 63.7911 13.1785C53.8688 10.9955 43.4657 11.4303 33.7051 14.4359C33.2026 14.5906 32.6831 14.4922 32.2812 14.2109Z" fill="#989898"/>
<path d="M90.1844 14.7487C81.6777 8.79387 72.1997 4.94165 62.0168 3.30144C61.7637 3.26087 61.534 3.16442 61.3378 3.02704C60.8352 2.67523 60.5505 2.05564 60.6539 1.41004C60.7977 0.509862 61.6413 -0.102839 62.5382 0.0416007C73.2142 1.76122 83.1474 5.79763 92.0657 12.0404C96.7116 15.2927 100.958 19.0811 104.687 23.2999C105.29 23.9821 105.228 25.0256 104.548 25.6307C103.869 26.2354 102.83 26.1728 102.227 25.4915C98.6692 21.4663 94.6174 17.8518 90.1844 14.7487Z" fill="#989898"/>
<path d="M91.5024 39.2215C92.2352 38.6826 93.2645 38.8425 93.8007 39.5777C97.0503 44.0307 99.5814 48.9586 101.324 54.2237C101.611 55.0889 101.144 56.0236 100.282 56.3107C99.7701 56.4816 99.234 56.386 98.8215 56.0973C98.5408 55.9009 98.3192 55.6162 98.2028 55.2646C96.5685 50.326 94.1946 45.7045 91.1476 41.5284C90.6108 40.7932 90.7697 39.7603 91.5024 39.2215Z" fill="#989898"/>
<path d="M7.87751 58.4909C9.9612 58.0029 11.7822 56.7642 13.006 55.0023L17.9576 47.8739C18.1787 47.5559 18.6327 46.9308 18.6327 46.9308C18.6327 46.9308 18.7722 46.642 18.8274 46.4909C18.9644 46.1161 19.0155 45.7539 18.9305 45.4315C18.8482 45.1194 18.6276 44.804 18.137 44.5346C17.803 44.3513 17.5136 44.2936 17.262 44.307C17.0091 44.3204 16.7762 44.407 16.5586 44.54C16.2796 44.7107 16.0414 44.9463 15.8322 45.1808C15.6386 45.4464 15.4479 45.7147 15.2599 45.9854L10.3082 53.1139C9.55003 54.2054 8.42121 54.973 7.13087 55.275L3.203 56.1942C2.31851 56.4013 1.76872 57.2889 1.97498 58.1769C2.07082 58.5904 2.31316 58.9304 2.63524 59.156C3.00529 59.415 3.47715 59.5207 3.94977 59.4101L7.87751 58.4909Z" fill="#989898"/>
<path fill-rule="evenodd" clip-rule="evenodd" d="M75.1205 106.723C73.0373 109.178 70.7835 111.53 68.4206 113.712C67.7523 114.33 67.709 115.374 68.3241 116.045C68.4698 116.204 68.6378 116.326 68.8188 116.414C69.4092 116.7 70.1377 116.613 70.6481 116.142C73.1083 113.869 75.4554 111.42 77.6246 108.864C78.2132 108.171 78.1302 107.129 77.4393 106.537C76.7465 105.947 75.7094 106.03 75.1205 106.723Z" fill="#989898"/>
<path d="M16.9397 101.739L3.34436 104.849C2.45916 105.051 1.90456 105.936 2.10641 106.825C2.20097 107.242 2.44422 107.585 2.76853 107.812C3.13638 108.07 3.60478 108.176 4.07512 108.068L17.6703 104.958C24.5962 103.373 31.0718 100.497 36.8017 96.528C37.2394 96.2248 37.6591 95.7558 37.8553 95.2616C37.9704 94.9716 38.0633 94.5222 37.7227 94.0642C37.4632 93.7153 37.0773 93.5935 36.7256 93.5729C36.354 93.5512 35.9196 93.6299 35.4739 93.7665C34.8237 93.9656 34.3907 94.2146 33.747 94.5965C27.9159 98.0554 22.1858 100.539 16.9397 101.739Z" fill="#989898"/>
<path d="M19.0177 110.875L7.54676 113.499C6.66137 113.702 6.1067 114.587 6.30855 115.476C6.40311 115.893 6.64637 116.235 6.97066 116.462C7.33852 116.72 7.80692 116.826 8.27727 116.718L19.7485 114.094C31.2455 111.464 41.6809 105.787 50.0652 97.7327C50.3167 97.369 50.5231 97.0146 50.6426 96.6759C50.7082 96.4897 50.7942 96.1807 50.7271 95.8723C50.7271 95.8723 50.772 96.0806 50.7269 95.8713C50.6818 95.662 50.5561 95.4486 50.3546 95.2509C49.7689 94.676 48.6834 95.1563 48.2594 95.3506C47.9256 95.5034 47.3971 95.9267 47.3971 95.9267C47.3971 95.9267 45.3856 97.5521 44.5073 98.2821C37.175 104.376 28.4745 108.711 19.0177 110.875Z" fill="#989898"/>
<path d="M17.9206 120.739L21.0952 120.013C29.1008 118.181 35.4572 115.758 43.4213 110.654C49.8752 106.519 58.3186 97.8583 58.3186 97.8583L60.5322 95.5046C60.5322 95.5046 61.6945 94.1481 62.5049 93.9313C63.1253 93.7651 63.6455 94.0742 63.8829 94.256C64.057 94.3893 64.2273 94.5957 64.3298 94.8765C64.5744 95.5473 64.0624 96.0728 63.6977 96.592C62.8081 97.8583 54.0953 107.601 45.8067 113.039C37.2936 118.625 30.4472 121.26 21.8257 123.232L18.6513 123.959C18.181 124.066 17.7126 123.96 17.3447 123.702C17.0207 123.475 16.7773 123.133 16.6826 122.715C16.4808 121.827 17.035 120.942 17.9206 120.739Z" fill="#989898"/>
<path d="M57.2887 111.988C57.9796 111.398 59.0166 111.48 59.6073 112.174C60.1961 112.868 60.1133 113.91 59.4226 114.501C56.877 116.679 54.1728 118.723 51.3846 120.575C50.8061 120.96 50.0731 120.929 49.5354 120.553C49.3706 120.437 49.2241 120.289 49.1054 120.109C48.6041 119.349 48.8116 118.326 49.5691 117.822L57.2887 111.988Z" fill="#989898"/>
<path d="M75.0016 92.1795L68.5869 99.3335C66.1357 102.067 63.478 104.652 60.6869 107.017C59.9927 107.605 59.9051 108.647 60.4908 109.343C60.5404 109.402 60.5935 109.457 60.6492 109.507C61.2498 110.05 62.1733 110.078 62.8082 109.54C65.7135 107.078 68.4804 104.387 71.0316 101.542C71.0316 101.542 75.1787 97.2258 77.4395 94.2295C80.1618 90.6217 82.7814 85.6832 83.444 84.4859C83.6649 84.0867 83.9741 82.7564 83.0464 82.3573C82.2157 81.9999 81.2584 82.5379 80.926 83.2885C79.8658 85.6832 75.3854 91.7515 75.0016 92.1795Z" fill="#989898"/>
<path d="M103.566 63.9591C104.568 71.4164 104.017 78.8352 101.927 86.0123C101.673 86.8872 100.759 87.3893 99.8877 87.1335C99.7106 87.0816 99.5498 87.0029 99.4078 86.9035C98.8441 86.5089 98.5675 85.7836 98.7705 85.0861C99.3374 83.1389 99.7835 81.1724 100.108 79.1914C100.907 74.3251 100.974 69.3715 100.306 64.4009C100.185 63.4973 100.816 62.666 101.716 62.5438C102.616 62.4218 103.444 63.0554 103.566 63.9591Z" fill="#989898"/>
<path d="M71.745 34.2957C72.2226 33.5206 73.236 33.2806 74.0085 33.7603C74.6941 34.1858 75.3779 34.637 76.0413 35.1013C95.7868 48.9234 100.65 76.2964 86.8805 96.118L81.3962 104.013C80.8766 104.761 79.8517 104.944 79.1067 104.423C78.3617 103.901 78.1788 102.873 78.6984 102.125L84.1828 94.2293C96.915 75.8997 92.4187 50.5905 74.16 37.8092C73.5462 37.3796 72.9135 36.962 72.2788 36.568L72.2769 36.5668C71.5049 36.0921 71.2662 35.0733 71.745 34.2957Z" fill="#989898"/>
<path d="M111.826 39.5849C110.707 37.397 109.456 35.2475 108.109 33.196C107.609 32.435 107.818 31.4107 108.576 30.9088C109.334 30.4073 110.354 30.6174 110.854 31.3787C112.267 33.5294 113.578 35.7829 114.752 38.076C115.166 38.887 114.848 39.8821 114.04 40.2989C113.48 40.5879 112.831 40.5233 112.346 40.184C112.134 40.0353 111.953 39.8336 111.826 39.5849Z" fill="#989898"/>
<path d="M85.066 34.6457L85.0655 34.6451C83.3332 33.0181 81.462 31.4978 79.5033 30.1266C79.1429 29.8744 78.7798 29.6272 78.4142 29.3853C70.7324 24.3021 61.9192 21.5062 52.8498 21.1997C52.1985 21.1777 51.5458 21.1685 50.8922 21.1723C48.4005 21.1865 45.8943 21.3884 43.3915 21.7822C30.6941 23.7796 19.4153 30.4923 11.6364 40.6838C11.0994 41.3872 10.1086 41.5364 9.3918 41.0348C9.36957 41.0191 9.35071 41.0054 9.33388 40.9922L9.33066 40.9897C8.61003 40.4356 8.47331 39.3992 9.02581 38.6755C17.321 27.8082 29.3435 20.6505 42.8824 18.5204C43.1931 18.4715 43.504 18.4253 43.8148 18.3821C43.8697 18.3744 43.9245 18.3668 43.9792 18.3593C57.1972 16.5573 70.4382 19.7559 81.3845 27.4184C83.4718 28.8795 85.4664 30.5003 87.3131 32.2348C87.9763 32.8579 88.0107 33.9022 87.39 34.5678C86.7688 35.2342 85.7282 35.2695 85.066 34.6457Z" fill="#989898"/>
<path d="M64.3249 32.7677C65.1829 33.0668 66.1201 32.6106 66.4178 31.7496C66.7154 30.8889 66.261 29.9482 65.4034 29.6484C60.8332 28.0557 56.0515 27.2449 51.19 27.2383C50.2817 27.2371 49.5445 27.9757 49.5435 28.8871C49.5424 29.4489 49.8203 29.9452 50.2484 30.2449C50.5137 30.4306 50.8361 30.5397 51.1855 30.5403C55.6798 30.5462 60.1005 31.2957 64.3249 32.7677Z" fill="#989898"/>
<path d="M44.0837 29.4528C44.2694 30.3454 43.6992 31.2197 42.8102 31.4063C39.3513 32.1315 36.5754 32.9708 32.9523 34.8438C30.2558 36.238 24.5454 40.4181 24.5454 40.4181C24.5454 40.4181 23.1155 41.7484 21.9521 40.6842C20.7887 39.6198 21.9521 38.0888 21.9521 38.0888C22.2637 37.6954 27.9498 33.718 30.8326 32.2022C34.9827 30.0202 37.5823 29.1294 42.1378 28.1743C43.0267 27.9881 43.8981 28.5603 44.0837 29.4528Z" fill="#989898"/>
<path d="M71.8474 13.7822C72.1812 12.9344 73.1366 12.5186 73.981 12.8538C78.4556 14.6291 82.7425 16.9418 86.722 19.7275C93.7944 24.6783 99.653 30.9038 104.137 38.2328C108.467 45.3089 111.318 53.077 112.613 61.3222C112.755 62.2224 112.142 63.0677 111.245 63.2098C110.808 63.279 110.385 63.169 110.049 62.9332C109.693 62.6846 109.437 62.2984 109.365 61.8358C106.835 45.7294 98.1241 31.7342 84.8407 22.4358C81.0707 19.7966 77.0105 17.6063 72.7725 15.9243C71.9281 15.5893 71.5137 14.6301 71.8474 13.7822Z" fill="#989898"/>
<path d="M14.4143 65.4417C12.7786 66.4551 11.786 66.9168 9.99455 67.6159C7.01332 68.7792 2.01822 69.4828 2.01822 69.4828C1.54591 69.5935 1.0737 69.4879 0.703709 69.2289C0.381744 69.0035 0.139561 68.664 0.0432985 68.2501C-0.162889 67.3618 0.387155 66.4742 1.27131 66.2674C1.27131 66.2674 6.28825 65.6182 9.24772 64.4002C10.9131 63.7148 11.8309 63.256 13.3381 62.2684C15.5196 60.8392 16.9545 59.3031 18.3427 57.8413C18.895 57.552 19.4913 57.452 20.0779 57.7741C20.5686 58.0434 20.7891 58.3589 20.8715 58.6711C20.9564 58.9934 20.9153 59.3418 20.7685 59.7305C20.616 60.1339 20.2743 60.4555 20.1129 60.6178C18.4922 62.248 16.8916 63.907 14.4143 65.4417Z" fill="#989898"/>
<path d="M42.1182 85.844C42.1182 85.193 42.1182 84.4721 42.1182 83.6817C42.1182 82.8446 42.1182 81.7982 42.1182 80.5426C42.1182 79.2405 42.1182 77.5664 42.1182 75.5202C42.1182 74.0786 42.1182 72.5905 42.1182 71.0558C42.1182 69.4747 42.1182 67.8471 42.1182 66.173C42.1182 64.4522 42.1182 62.6386 42.1182 60.732C42.1182 58.8253 42.1182 56.8024 42.1182 54.6632C42.1182 51.9194 42.1862 49.7106 42.3224 48.0364C42.5038 46.3622 42.8214 45.0834 43.275 44.1999C43.7287 43.2698 44.3639 42.642 45.1805 42.3165C46.0425 41.9909 47.1313 41.8281 48.447 41.8281C49.1729 41.8281 49.8307 41.8281 50.4204 41.8281C51.0557 41.8281 51.6908 41.8281 52.3259 41.8281C52.961 41.8281 53.7096 41.8281 54.5716 41.8281C55.4789 41.8281 56.5905 41.8281 57.9061 41.8281C60.5828 41.8281 63.0099 42.2234 65.1876 43.014C67.3653 43.758 69.2707 44.8277 70.9039 46.2227C72.5826 47.6179 73.9889 49.292 75.1232 51.2452C76.2573 53.1984 77.0966 55.384 77.641 57.8022C78.2308 60.1739 78.5256 62.7317 78.5256 65.4753C78.5256 68.9166 78.004 72.1021 76.9605 75.0319C75.9624 77.9152 74.5106 80.4264 72.6052 82.5655C70.7451 84.7047 68.5221 86.3555 65.9362 87.5181C63.3503 88.6808 60.4693 89.2621 57.2936 89.2621C56.3863 89.2621 55.4789 89.2621 54.5716 89.2621C53.7096 89.2621 52.8477 89.2621 51.9857 89.2621C50.8515 89.2621 49.9894 88.9598 49.3997 88.3553C48.81 87.7042 48.5151 86.9601 48.5151 86.1231C48.5151 85.286 48.81 84.5652 49.3997 83.9606C49.9894 83.3095 50.8515 82.984 51.9857 82.984C52.9384 82.984 53.823 82.984 54.6396 82.984C55.4563 82.984 56.341 82.984 57.2936 82.984C59.6528 82.984 61.7623 82.5655 63.6225 81.7285C65.4825 80.8448 67.0476 79.6358 68.318 78.1012C69.6337 76.52 70.6318 74.6599 71.3122 72.5207C72.0381 70.3815 72.401 68.0331 72.401 65.4753C72.401 62.9177 72.1061 60.5925 71.5163 58.4998C70.9267 56.3606 70.042 54.5237 68.8624 52.9891C67.6829 51.4545 66.1857 50.2686 64.371 49.4315C62.5562 48.5479 60.4013 48.1061 57.9061 48.1061C56.5905 48.1061 55.4789 48.1061 54.5716 48.1061C53.6643 48.1061 52.8023 48.1061 51.9857 48.1061C51.2143 48.1061 50.2843 48.1061 49.1955 48.1061C48.9233 48.1061 48.6965 48.2224 48.5151 48.4549C48.379 48.6409 48.2882 48.9432 48.2429 49.3618C48.1974 49.7338 48.1748 50.1988 48.1748 50.7568C48.1748 51.315 48.1748 51.9194 48.1748 52.5705C48.2202 53.2215 48.2429 53.9192 48.2429 54.6632C48.2429 56.5699 48.2429 58.5928 48.2429 60.732C48.2429 62.8712 48.2429 65.1731 48.2429 67.6378C48.2429 70.056 48.2429 72.6834 48.2429 75.5202C48.2429 77.7988 48.2429 79.5428 48.2429 80.7519C48.2429 81.9609 48.2429 82.9375 48.2429 83.6817C48.2429 84.3792 48.2429 85.1 48.2429 85.844C48.2429 87.0066 47.9253 87.8902 47.2901 88.4947C46.7003 89.0993 45.9972 89.4015 45.1805 89.4015C44.3639 89.4015 43.638 89.0993 43.0029 88.4947C42.4131 87.8902 42.1182 87.0066 42.1182 85.844Z" fill="white"/>
<path d="M28.5547 85.9405C28.5547 84.4474 28.5547 83.0901 28.5547 81.8686C28.5547 80.6469 28.5547 79.5385 28.5547 78.5432C28.5547 77.5026 28.5547 76.5525 28.5547 75.6928C28.5547 73.5212 28.5547 71.3042 28.5547 69.042C28.5547 66.7799 28.5547 64.5177 28.5547 62.2555C28.5547 59.9481 28.5547 57.7312 28.5547 55.6047C28.5547 54.5641 28.5547 53.5461 28.5547 52.5508C28.5547 51.5102 28.5547 50.4018 28.5547 49.2254C28.5547 48.0491 28.5547 46.7145 28.5547 45.2214C28.5547 44.0904 28.9328 43.2533 29.689 42.7104C30.5033 42.1222 31.434 41.8281 32.481 41.8281C33.528 41.8281 34.4296 42.1222 35.1858 42.7104C36.0001 43.2533 36.4073 44.0904 36.4073 45.2214C36.4073 46.7145 36.4073 48.0491 36.4073 49.2254C36.4073 50.4018 36.4073 51.5102 36.4073 52.5508C36.4073 53.5461 36.4073 54.5641 36.4073 55.6047C36.4073 57.7312 36.4073 59.9481 36.4073 62.2555C36.4073 64.5177 36.4073 66.7799 36.4073 69.042C36.4073 71.3042 36.4073 73.5212 36.4073 75.6928C36.4073 76.5525 36.4073 77.5026 36.4073 78.5432C36.4073 79.5385 36.4073 80.6469 36.4073 81.8686C36.4073 83.0901 36.4073 84.4474 36.4073 85.9405C36.4073 87.1168 36.0001 87.9991 35.1858 88.5872C34.4296 89.1301 33.528 89.4015 32.481 89.4015C31.434 89.4015 30.5033 89.1301 29.689 88.5872C28.9328 87.9991 28.5547 87.1168 28.5547 85.9405Z" fill="white"/>
</g>
<defs>
<clipPath id="clip0_647_22">
<rect width="115" height="124" fill="white"/>
</clipPath>
</defs>
</svg>
