<svg width="200" height="120" viewBox="0 0 200 120" fill="none" xmlns="http://www.w3.org/2000/svg">
<path d="M79.276 123.541C79.6871 123.624 80.0359 123.885 80.2305 124.253L86.9877 137.039C85.4847 136.235 83.9872 135.376 82.4965 134.458L78.0928 126.126C74.6268 125.414 71.2253 124.469 67.8928 123.343C66.2177 121.803 64.5629 120.197 62.9367 118.493C68.1775 120.709 73.6416 122.429 79.276 123.541Z" fill="#151921" fill-opacity="0.15"/>
<path d="M83.7534 117.307C84.1847 117.373 84.5612 117.643 84.7654 118.029L97.2516 141.655C95.933 141.173 94.616 140.66 93.2989 140.093L82.6431 119.931C73.2015 118.386 64.2169 115.157 56.0607 110.542C54.5135 108.588 52.9954 106.557 51.5185 104.43C61.0461 111.006 72.0425 115.498 83.7534 117.307Z" fill="#151921" fill-opacity="0.15"/>
<path d="M87.4047 111.178C88.0802 110.821 88.9159 111.078 89.2729 111.754L106.515 144.379C105.317 144.113 104.113 143.81 102.91 143.475L86.8284 113.046C86.4713 112.37 86.7291 111.535 87.4047 111.178Z" fill="#151921" fill-opacity="0.15"/>
<path d="M27.8863 21.9768C28.7995 15.4244 30.4395 9.32311 32.7062 3.78959C39.3274 -7.35766 48.9893 -16.8805 61.2688 -23.3702C66.768 -26.2765 72.4746 -28.4022 78.2605 -29.7981C82.4303 -29.9641 86.7532 -29.6764 91.1635 -28.9116C81.4517 -28.3428 71.7088 -25.7604 62.563 -20.9268C44.9493 -11.6179 32.9436 4.17863 27.8863 21.9768Z" fill="#151921" fill-opacity="0.15"/>
<path d="M41.2165 86.9993C40.6303 85.89 40.091 84.7876 39.5426 83.6843C49.5284 96.7434 63.931 105.991 80.4137 109.642C81.1571 109.807 81.6309 110.545 81.4626 111.293C81.2999 112.035 80.5595 112.51 79.8128 112.344C66.463 109.387 54.4268 102.884 44.8491 93.7304C44.2691 92.6987 43.6858 91.6716 43.1223 90.6052C42.8046 90.0042 42.4915 89.4008 42.1807 88.7963C41.8563 88.1989 41.5342 87.6003 41.2165 86.9993Z" fill="#151921" fill-opacity="0.15"/>
<path d="M76.3436 -19.2257C75.6126 -18.9955 74.8388 -19.3987 74.6075 -20.1262C74.3772 -20.8572 74.7984 -21.6463 75.508 -21.8624C86.4816 -25.3265 97.7698 -25.7399 108.428 -23.583C112.579 -21.7333 116.721 -19.4741 120.807 -16.769C107.159 -22.7679 91.442 -23.9911 76.3436 -19.2257Z" fill="#151921" fill-opacity="0.15"/>
<path d="M37.487 72.9539C37.1187 72.2844 37.3627 71.4444 38.0322 71.0761C38.6671 70.7897 39.5418 70.9517 39.9101 71.6213C50.3978 90.6671 70.5076 103.194 92.3974 104.311C92.8827 104.338 93.321 104.615 93.5491 105.046L115.027 145.685C113.924 145.589 112.814 145.464 111.7 145.307L91.4699 107.03C68.9376 105.605 48.3061 92.605 37.487 72.9539Z" fill="#151921" fill-opacity="0.15"/>
<path d="M34.061 20.6077C34.7908 20.8347 35.1981 21.6109 34.9711 22.3407C30.4399 36.9011 31.2916 52.5735 37.3741 66.4671C37.6635 67.135 37.3871 67.9083 36.7545 68.2426C36.7229 68.2593 36.6935 68.2749 36.6607 68.2893C35.96 68.5932 35.1481 68.2766 34.8385 67.5759C28.4907 53.0711 27.6007 36.7136 32.3302 21.5166C32.556 20.7845 33.3344 20.376 34.061 20.6077Z" fill="#151921" fill-opacity="0.15"/>
<path d="M66.9808 -18.5032C67.6718 -18.8309 68.4946 -18.5374 68.8256 -17.8509C69.1521 -17.1621 68.9466 -16.4408 68.1711 -16.0049C67.3737 -15.6268 66.5813 -15.2283 65.7951 -14.8128C53.8997 -8.52608 44.49 1.18427 38.5792 13.2654C38.4459 13.5382 38.2357 13.7476 37.9849 13.8801C37.6076 14.0795 37.1452 14.1014 36.7291 13.8993C36.0437 13.5649 35.7586 12.7358 36.0952 12.0492C42.2616 -0.56019 52.0858 -10.6948 64.5031 -17.2574C65.3233 -17.6908 66.1484 -18.1038 66.9808 -18.5032Z" fill="#151921" fill-opacity="0.15"/>
<path d="M152.934 26.4846C153.609 26.1276 154.445 26.3854 154.802 27.0609L170.278 56.3441C171.153 59.7 171.861 63.0082 172.391 66.2599L152.358 28.3529C152.001 27.6774 152.261 26.8404 152.934 26.4846Z" fill="#151921" fill-opacity="0.15"/>
<path d="M97.8021 101.252C98.4777 100.895 99.3134 101.153 99.6704 101.828L122.94 145.858C121.917 145.907 120.885 145.929 119.847 145.923L97.2258 103.12C96.8688 102.445 97.1266 101.609 97.8021 101.252Z" fill="#151921" fill-opacity="0.15"/>
<path d="M43.0878 68.7623C27.8529 39.9355 38.9117 4.09163 67.734 -11.141C96.5608 -26.376 132.406 -15.3207 147.641 13.506L150.926 19.7215C151.283 20.397 151.025 21.2327 150.349 21.5897C149.674 21.9468 148.838 21.689 148.481 21.0134L145.196 14.798C130.675 -12.6777 96.504 -23.2185 69.026 -8.69637C41.5502 5.82457 31.0103 39.9924 45.5324 67.4703C54.612 84.6502 72.4228 96.1029 92.0159 97.3644C92.7783 97.4124 93.3544 98.0704 93.3064 98.8328C93.2742 99.3297 92.9841 99.7489 92.5707 99.9674C92.3538 100.082 92.1048 100.141 91.838 100.123C71.2914 98.8021 52.6116 86.7827 43.0878 68.7623Z" fill="#151921" fill-opacity="0.15"/>
<path d="M112.856 114.936C113.531 114.579 114.367 114.837 114.724 115.512L130.308 144.999C129.356 145.178 128.392 145.329 127.421 145.455L112.28 116.804C111.922 116.129 112.18 115.293 112.856 114.936Z" fill="#151921" fill-opacity="0.15"/>
<path d="M98.7867 -8.18309C98.0254 -8.23452 97.4526 -8.89719 97.5063 -9.65972C97.5577 -10.4211 98.2192 -10.9961 98.9829 -10.9402C117.147 -9.64869 133.05 0.699281 141.525 16.736L173.572 77.3741C173.677 79.4487 173.72 81.4985 173.688 83.51L139.082 18.0302C131.054 2.84077 115.991 -6.95686 98.7867 -8.18309Z" fill="#151921" fill-opacity="0.15"/>
<path d="M49.9661 66.9312C49.5888 66.2664 49.8212 65.4209 50.4838 65.0448C50.4973 65.0376 50.5109 65.0305 50.5222 65.0245C51.1796 64.677 52 64.9111 52.3701 65.5624C62.0438 82.5757 80.9096 92.2945 100.432 90.3157C100.992 90.2597 101.531 90.547 101.795 91.0463L112.14 110.621C112.497 111.297 112.239 112.132 111.564 112.489C110.888 112.846 110.053 112.589 109.696 111.913L99.7814 93.1539C79.505 94.8433 60.0267 84.6274 49.9661 66.9312Z" fill="#151921" fill-opacity="0.15"/>
<path d="M49.7347 63.3851C49.7098 63.3983 49.6872 63.4102 49.6589 63.4223C48.9642 63.7375 48.1468 63.4324 47.8282 62.7365C44.5317 55.4983 42.9647 47.797 43.1719 39.8487C43.1913 39.087 43.8259 38.4885 44.591 38.5033C45.3562 38.5238 45.9581 39.1595 45.9365 39.9224C45.7379 47.4441 47.2214 54.7358 50.3424 61.5927C50.6502 62.2625 50.3763 63.046 49.7347 63.3851Z" fill="#151921" fill-opacity="0.15"/>
<path d="M70.966 -5.02881C77.0504 -8.24441 83.5838 -10.2001 90.3835 -10.8427C91.1432 -10.9147 91.8177 -10.3549 91.8897 -9.59518C91.9605 -8.83774 91.3975 -8.15289 90.6422 -8.08899C84.2052 -7.48205 78.0215 -5.63026 72.2579 -2.58422C59.0951 4.37237 49.8556 16.7675 46.9006 31.4227C46.8176 31.8452 46.5429 32.184 46.1904 32.3703C45.917 32.5148 45.5959 32.5689 45.2698 32.5042C44.5234 32.3553 44.036 31.6244 44.1882 30.8734C47.3055 15.4041 57.0666 2.31704 70.966 -5.02881Z" fill="#151921" fill-opacity="0.15"/>
<path d="M126.924 10.5609C127.488 10.0429 128.364 10.0917 128.878 10.6551C131.431 13.4622 133.63 16.5951 135.413 19.9683L145.378 38.8224C145.735 39.4979 145.477 40.3336 144.801 40.6907C144.126 41.0477 143.29 40.7899 142.933 40.1144L132.969 21.2603C131.296 18.095 129.229 15.1523 126.833 12.5165C126.317 11.9509 126.358 11.0766 126.924 10.5609Z" fill="#151921" fill-opacity="0.15"/>
<path d="M146.522 43.9517C147.197 43.5946 148.033 43.8524 148.39 44.528L173.203 91.4768C173.032 93.0673 172.811 94.6292 172.555 96.169L145.946 45.8199C145.589 45.1444 145.849 44.3075 146.522 43.9517Z" fill="#151921" fill-opacity="0.15"/>
<path d="M76.5357 82.2726C75.8405 81.9579 75.5339 81.1372 75.8531 80.4396C76.1689 79.7409 76.9908 79.4365 77.6862 79.7569C85.9434 83.5294 95.3273 84.5936 104.107 82.7599C104.712 82.6342 105.326 82.9221 105.615 83.4689L137.173 143.181C136.29 143.485 135.395 143.765 134.488 144.019L103.651 85.6691C94.5924 87.3377 85.0055 86.1409 76.5357 82.2726Z" fill="#151921" fill-opacity="0.15"/>
<path d="M63.0549 9.37951C63.5912 8.83015 64.4632 8.82307 65.0115 9.36284C65.5562 9.89583 65.5657 10.7724 65.0282 11.3195C51.9907 24.6004 49.0698 44.5703 57.7577 61.0092C61.2503 67.6177 66.4724 73.2053 72.8604 77.1708C73.5096 77.5734 73.7095 78.4274 73.3079 79.0732C73.1745 79.2911 72.9896 79.4553 72.7795 79.5664C72.3592 79.7885 71.8357 79.7877 71.4021 79.5197C64.5979 75.2972 59.035 69.3435 55.3132 62.3012C46.0615 44.7902 49.1727 23.5231 63.0549 9.37951Z" fill="#151921" fill-opacity="0.15"/>
<path d="M75.4892 3.53054C74.3324 4.1419 73.194 4.81001 72.1069 5.52039C71.4463 5.98225 70.6057 5.75884 70.1923 5.11886C69.7755 4.47782 69.955 3.61987 70.5938 3.20423C71.7519 2.44767 72.9659 1.73671 74.1972 1.08595C90.2294 -7.38709 109.72 -5.48765 123.858 5.9232C124.453 6.40361 124.547 7.27599 124.068 7.8675C123.946 8.01886 123.797 8.13766 123.637 8.22244C123.163 8.47319 122.567 8.43517 122.124 8.07708C108.846 -2.641 90.5408 -4.42427 75.4892 3.53054Z" fill="#151921" fill-opacity="0.15"/>
<path d="M106.441 5.82288C106.694 5.105 107.488 4.72587 108.207 4.98173C117.305 8.21171 124.794 14.6821 129.295 23.1975L158.756 78.9419C159.113 79.6174 158.855 80.4532 158.179 80.8102C157.504 81.1672 156.668 80.9094 156.311 80.2339L126.851 24.4918C122.676 16.5909 115.725 10.5873 107.282 7.58947C106.561 7.33481 106.185 6.54196 106.441 5.82288Z" fill="#151921" fill-opacity="0.15"/>
<path d="M160.659 85.5024C161.334 85.1454 162.17 85.4032 162.527 86.0787L171.237 102.561C170.907 103.871 170.541 105.154 170.149 106.419L160.083 87.373C159.725 86.6952 159.983 85.8595 160.659 85.5024Z" fill="#151921" fill-opacity="0.15"/>
<path d="M107.248 74.729C107.924 74.372 108.76 74.6298 109.117 75.3053L143.537 140.433C142.728 140.866 141.901 141.277 141.056 141.657L106.672 76.5973C106.315 75.9217 106.575 75.0848 107.248 74.729Z" fill="#151921" fill-opacity="0.15"/>
<path d="M102.303 78.8893C85.7248 81.9277 69.2981 73.9635 61.4269 59.07C51.5377 40.3583 58.7133 17.0906 77.4251 7.20136C83.9862 3.73382 91.3556 2.24965 98.7358 2.91318C99.4975 2.98174 100.058 3.65384 99.9893 4.41557C99.9218 5.17384 99.2487 5.7377 98.487 5.66914C91.6406 5.05302 84.8037 6.42915 78.7171 9.64595C61.3564 18.8211 54.6952 40.4151 63.8715 57.778C71.1743 71.5961 86.4199 78.9879 101.801 76.1685C102.552 76.0316 103.275 76.5285 103.414 77.2787C103.525 77.8878 103.22 78.4765 102.698 78.7524C102.577 78.8134 102.444 78.861 102.303 78.8893Z" fill="#151921" fill-opacity="0.15"/>
<path d="M81.951 15.7578C72.629 20.6845 66.774 30.3227 66.6685 40.9081C66.6607 41.6754 66.0285 42.284 65.2727 42.2759C64.509 42.2691 63.8982 41.6439 63.9049 40.8801C64.0172 29.2795 70.4378 18.7152 80.659 13.3132C95.9999 5.20559 115.075 11.0879 123.183 26.4287L140.041 58.3259C140.398 59.0014 140.14 59.8372 139.464 60.1942C138.789 60.5512 137.953 60.2934 137.596 59.6179L120.739 27.723C113.341 13.7299 95.9431 8.36304 81.951 15.7578Z" fill="#151921" fill-opacity="0.15"/>
<path d="M133.57 109.727C134.246 109.37 135.081 109.628 135.438 110.303L149.451 136.817C148.695 137.361 147.925 137.877 147.145 138.371L132.994 111.595C132.637 110.92 132.895 110.084 133.57 109.727Z" fill="#151921" fill-opacity="0.15"/>
<path d="M143.449 67.7392C144.124 67.3822 144.96 67.64 145.317 68.3156L168.268 111.742C167.825 112.852 167.357 113.94 166.866 115.006L142.872 69.6075C142.515 68.932 142.773 68.0963 143.449 67.7392Z" fill="#151921" fill-opacity="0.15"/>
<path d="M67.5445 55.8377C66.1236 53.1491 65.1022 50.2869 64.5132 47.3292C64.3625 46.5793 64.8409 45.8437 65.599 45.7032C66.3467 45.5537 67.0778 46.0402 67.225 46.7891C67.7613 49.4828 68.6935 52.0944 69.9891 54.5457C77.3839 68.5377 94.782 73.9046 108.774 66.5098C109.264 66.2506 109.743 65.9804 110.212 65.6977C110.532 65.4825 110.932 65.4472 111.296 65.5498C111.659 65.6525 111.97 65.9016 112.148 66.2382L130.913 101.744C131.27 102.419 131.012 103.255 130.336 103.612C129.661 103.969 128.825 103.711 128.468 103.036L110.371 68.7932C110.269 68.8469 110.165 68.9018 110.064 68.9556C94.7252 77.062 75.6521 71.1785 67.5445 55.8377Z" fill="#151921" fill-opacity="0.15"/>
<path d="M73.6591 52.6043C67.3342 40.6367 71.9268 25.7548 83.8922 19.4311C86.2103 18.206 88.6867 17.3625 91.2524 16.9286C92.0028 16.8008 92.7184 17.3071 92.8463 18.0632C92.9764 18.8125 92.4746 19.5257 91.7117 19.6572C89.441 20.0422 87.2424 20.7879 85.1842 21.8757C74.5653 27.4878 70.4917 40.6935 76.1037 51.3123C81.717 61.9334 94.9227 66.007 105.542 60.3949C108.036 59.0767 110.205 57.3348 111.998 55.2139C112.297 54.862 112.745 54.6804 113.203 54.733C113.66 54.7832 114.062 55.0565 114.276 55.4609L154.859 132.251C154.173 132.92 153.47 133.566 152.755 134.187L112.746 58.4836C111.019 60.2143 109.036 61.6753 106.834 62.8395C94.8659 69.1645 79.9852 64.5742 73.6591 52.6043Z" fill="#151921" fill-opacity="0.15"/>
<path d="M98.8434 19.6376C98.0873 19.514 97.5763 18.8042 97.6988 18.0516C97.8224 17.2955 98.5367 16.7821 99.286 16.9093C106.965 18.1605 113.446 22.8109 117.068 29.6634L121.538 38.1223C121.895 38.7979 121.638 39.6336 120.962 39.9906C120.287 40.3476 119.451 40.0899 119.094 39.4143L114.623 30.9554C111.409 24.8733 105.657 20.7505 98.8434 19.6376Z" fill="#151921" fill-opacity="0.15"/>
<path d="M123.978 45.6977C124.653 45.3407 125.489 45.5985 125.846 46.2741L164.551 119.51C164.018 120.46 163.464 121.385 162.893 122.289L123.402 47.566C123.045 46.8905 123.302 46.0548 123.978 45.6977Z" fill="#151921" fill-opacity="0.15"/>
<path d="M135.222 82.5166C135.898 82.1596 136.733 82.4174 137.09 83.0929L160.009 126.458C159.395 127.26 158.762 128.037 158.116 128.794L134.646 84.3849C134.289 83.7093 134.549 82.8724 135.222 82.5166Z" fill="#151921" fill-opacity="0.15"/>
<path d="M88.5759 28.2934C81.4974 32.0344 78.781 40.8405 82.5231 47.9212C82.9805 48.7866 83.5259 49.6053 84.1383 50.354C84.6238 50.9443 84.5382 51.8162 83.9479 52.3016C83.3554 52.7939 82.4845 52.6992 82.0003 52.1112C81.2692 51.22 80.622 50.2469 80.0763 49.2144C75.6224 40.7871 78.8544 30.3038 87.2817 25.85C95.709 21.3962 106.192 24.6281 110.647 33.0576L134.399 78.0001C134.756 78.6757 134.499 79.5114 133.823 79.8684C133.148 80.2255 132.312 79.9677 131.955 79.2921L108.203 34.3496C104.461 27.2689 95.6567 24.5512 88.5759 28.2934Z" fill="#151921" fill-opacity="0.15"/>
<path d="M89.1977 57.2902C88.485 57.0137 88.1252 56.2182 88.3972 55.5022C88.6748 54.786 89.4682 54.4332 90.1853 54.7017C94.0918 56.1922 98.4538 55.9304 102.15 53.977C104.854 52.5477 107.002 50.3491 108.361 47.6218C108.696 46.9421 109.531 46.6569 110.215 47.0004C110.9 47.3382 111.177 48.1687 110.837 48.8543C109.224 52.1028 106.665 54.7211 103.445 56.4226C99.0419 58.7441 93.8467 59.0647 89.1977 57.2902Z" fill="#151921" fill-opacity="0.15"/>
<path d="M96.241 32.7681C96.4416 32.032 97.2046 31.5999 97.9419 31.8027C100.504 32.5097 102.682 34.2633 103.921 36.6085C106.417 41.3305 104.607 47.1978 99.885 49.6934C95.1653 52.1878 89.2979 50.3779 86.8024 45.6559C84.499 41.2976 85.8273 35.919 89.8936 33.1399C90.513 32.7258 91.3862 32.8742 91.8165 33.5023C92.2457 34.1339 92.0845 34.9938 91.4518 35.4264C88.5494 37.4054 87.6016 41.2506 89.2458 44.3616C91.0273 47.7326 95.2209 49.028 98.5919 47.2465C101.963 45.465 103.257 41.2691 101.476 37.8982C100.576 36.1969 99.0584 34.9817 97.2018 34.4657C96.4668 34.2674 96.0382 33.5054 96.241 32.7681Z" fill="#151921" fill-opacity="0.15"/>
<path d="M93.579 42.077C93.0583 41.092 93.4354 39.8695 94.4205 39.3489C95.4056 38.8282 96.6258 39.2065 97.1464 40.1916C97.667 41.1767 97.2887 42.3969 96.3059 42.9163C95.3186 43.4381 94.0996 43.0621 93.579 42.077Z" fill="#151921" fill-opacity="0.15"/>
</svg>
