<svg width="246" height="265" viewBox="0 0 246 265" fill="none" xmlns="http://www.w3.org/2000/svg">
<path d="M152.176 204.52C151.654 204.626 151.211 204.957 150.964 205.424L142.388 221.651C144.296 220.631 146.196 219.54 148.088 218.376L153.677 207.801C158.076 206.898 162.393 205.698 166.623 204.268C168.749 202.314 170.849 200.277 172.913 198.114C166.261 200.926 159.327 203.109 152.176 204.52Z" fill="url(#paint0_linear_345_1691)" fill-opacity="0.05"/>
<path d="M146.494 196.608C145.946 196.693 145.468 197.035 145.209 197.525L129.362 227.51C131.036 226.898 132.707 226.248 134.379 225.528L147.903 199.939C159.886 197.978 171.288 193.88 181.64 188.022C183.604 185.542 185.53 182.966 187.405 180.266C175.313 188.611 161.357 194.313 146.494 196.608Z" fill="url(#paint1_linear_345_1691)" fill-opacity="0.05"/>
<path d="M141.859 188.828C141.002 188.375 139.941 188.702 139.488 189.559L117.605 230.965C119.126 230.628 120.653 230.243 122.18 229.817L142.59 191.199C143.043 190.341 142.716 189.281 141.859 188.828Z" fill="url(#paint2_linear_345_1691)" fill-opacity="0.05"/>
<path d="M217.397 75.6182C216.238 67.3022 214.157 59.5588 211.28 52.5359C202.877 38.3883 190.614 26.3023 175.03 18.0659C168.05 14.3773 160.808 11.6794 153.464 9.90785C148.172 9.69714 142.686 10.0624 137.088 11.033C149.414 11.7548 161.78 15.0324 173.387 21.1669C195.742 32.9813 210.979 53.0296 217.397 75.6182Z" fill="url(#paint3_linear_345_1691)" fill-opacity="0.05"/>
<path d="M200.479 158.144C201.223 156.736 201.907 155.337 202.603 153.937C189.93 170.511 171.651 182.248 150.731 186.882C149.788 187.091 149.187 188.028 149.4 188.977C149.607 189.919 150.546 190.522 151.494 190.311C168.437 186.558 183.713 178.304 195.869 166.687C196.605 165.378 197.345 164.074 198.06 162.721C198.463 161.958 198.861 161.192 199.255 160.425C199.667 159.667 200.076 158.907 200.479 158.144Z" fill="url(#paint4_linear_345_1691)" fill-opacity="0.05"/>
<path d="M155.898 23.3272C156.825 23.6195 157.807 23.1077 158.101 22.1844C158.393 21.2566 157.859 20.2551 156.958 19.9809C143.031 15.5844 128.704 15.0598 115.178 17.7972C109.909 20.1447 104.652 23.012 99.4665 26.4452C116.788 18.8316 136.735 17.2792 155.898 23.3272Z" fill="url(#paint5_linear_345_1691)" fill-opacity="0.05"/>
<path d="M205.212 140.316C205.68 139.467 205.37 138.4 204.52 137.933C203.715 137.57 202.604 137.775 202.137 138.625C188.826 162.797 163.304 178.696 135.522 180.113C134.906 180.147 134.35 180.499 134.061 181.047L106.802 232.623C108.202 232.501 109.61 232.343 111.025 232.144L136.7 183.564C165.296 181.755 191.481 165.257 205.212 140.316Z" fill="url(#paint6_linear_345_1691)" fill-opacity="0.05"/>
<path d="M209.561 73.8814C208.635 74.1695 208.118 75.1545 208.406 76.0808C214.157 94.5602 213.076 114.451 205.357 132.084C204.989 132.932 205.34 133.913 206.143 134.338C206.183 134.359 206.22 134.378 206.262 134.397C207.151 134.782 208.182 134.381 208.575 133.491C216.631 115.082 217.761 94.3223 211.758 75.0349C211.471 74.1058 210.484 73.5873 209.561 73.8814Z" fill="url(#paint7_linear_345_1691)" fill-opacity="0.05"/>
<path d="M167.781 24.2437C166.904 23.8279 165.86 24.2004 165.44 25.0716C165.025 25.9458 165.286 26.8613 166.27 27.4145C167.282 27.8943 168.288 28.4001 169.286 28.9275C184.383 36.9063 196.325 49.2302 203.827 64.5631C203.996 64.9093 204.263 65.1751 204.581 65.3433C205.06 65.5963 205.647 65.6241 206.175 65.3676C207.045 64.9432 207.407 63.8909 206.98 63.0195C199.154 47.0162 186.685 34.1538 170.926 25.8249C169.885 25.2748 168.837 24.7507 167.781 24.2437Z" fill="url(#paint8_linear_345_1691)" fill-opacity="0.05"/>
<path d="M58.6929 81.3413C57.8355 80.8882 56.7749 81.2154 56.3217 82.0728L36.6801 119.238C35.57 123.497 34.6716 127.696 33.9982 131.822L59.4243 83.7125C59.8774 82.8551 59.5474 81.7929 58.6929 81.3413Z" fill="url(#paint9_linear_345_1691)" fill-opacity="0.05"/>
<path d="M128.663 176.232C127.805 175.779 126.745 176.106 126.291 176.963L96.7585 232.844C98.0571 232.907 99.3665 232.935 100.684 232.927L129.394 178.603C129.847 177.746 129.52 176.685 128.663 176.232Z" fill="url(#paint10_linear_345_1691)" fill-opacity="0.05"/>
<path d="M198.105 134.997C217.441 98.4114 203.405 52.9199 166.825 33.5874C130.24 14.2518 84.7468 28.2826 65.4113 64.8683L61.2423 72.7566C60.7892 73.614 61.1164 74.6746 61.9738 75.1277C62.8311 75.5809 63.8918 75.2537 64.3449 74.3963L68.5139 66.508C86.9432 31.6371 130.312 18.2591 165.186 36.6899C200.057 55.1193 213.434 98.4836 195.003 133.357C183.479 155.161 160.875 169.697 136.008 171.298C135.04 171.359 134.309 172.194 134.37 173.161C134.411 173.792 134.779 174.324 135.304 174.601C135.579 174.747 135.895 174.822 136.234 174.799C162.311 173.122 186.018 157.868 198.105 134.997Z" fill="url(#paint11_linear_345_1691)" fill-opacity="0.05"/>
<path d="M109.557 193.598C108.7 193.145 107.639 193.472 107.186 194.33L87.408 231.753C88.6157 231.98 89.8388 232.171 91.0713 232.331L110.289 195.969C110.742 195.112 110.415 194.051 109.557 193.598Z" fill="url(#paint12_linear_345_1691)" fill-opacity="0.05"/>
<path d="M127.415 37.3415C128.382 37.2763 129.109 36.4352 129.041 35.4675C128.975 34.5012 128.136 33.7714 127.166 33.8424C104.114 35.4815 83.9303 48.6146 73.1737 68.9677L32.5008 145.927C32.3674 148.56 32.3131 151.162 32.3543 153.714L76.2748 70.6103C86.4631 51.3325 105.581 38.8978 127.415 37.3415Z" fill="url(#paint13_linear_345_1691)" fill-opacity="0.05"/>
<path d="M189.375 132.674C189.854 131.83 189.559 130.757 188.718 130.28C188.701 130.271 188.684 130.262 188.67 130.254C187.835 129.813 186.794 130.11 186.324 130.937C174.047 152.529 150.103 164.864 125.326 162.353C124.616 162.281 123.931 162.646 123.596 163.28L110.467 188.123C110.014 188.981 110.341 190.041 111.198 190.494C112.056 190.948 113.116 190.62 113.569 189.763L126.152 165.955C151.886 168.099 176.607 155.133 189.375 132.674Z" fill="url(#paint14_linear_345_1691)" fill-opacity="0.05"/>
<path d="M189.668 128.173C189.699 128.19 189.728 128.205 189.764 128.22C190.646 128.62 191.683 128.233 192.087 127.35C196.271 118.164 198.26 108.389 197.997 98.3019C197.972 97.3351 197.167 96.5756 196.196 96.5943C195.225 96.6203 194.461 97.4272 194.488 98.3955C194.74 107.942 192.857 117.196 188.896 125.898C188.506 126.749 188.853 127.743 189.668 128.173Z" fill="url(#paint15_linear_345_1691)" fill-opacity="0.05"/>
<path d="M162.723 41.3459C155.001 37.2648 146.709 34.7827 138.079 33.9672C137.115 33.8758 136.259 34.5863 136.167 35.5505C136.078 36.5118 136.792 37.381 137.751 37.462C145.92 38.2323 153.768 40.5826 161.083 44.4485C177.789 53.2775 189.515 69.0088 193.266 87.6085C193.371 88.1448 193.72 88.5748 194.167 88.8112C194.514 88.9946 194.921 89.0633 195.335 88.9812C196.283 88.7922 196.901 87.8646 196.708 86.9114C192.752 67.2785 180.363 50.6689 162.723 41.3459Z" fill="url(#paint16_linear_345_1691)" fill-opacity="0.05"/>
<path d="M91.7022 61.1302C90.9858 60.4728 89.8746 60.5348 89.2215 61.2498C85.9814 64.8125 83.1904 68.7886 80.9278 73.0697L68.2814 96.9985C67.8283 97.8558 68.1555 98.9165 69.0129 99.3696C69.8703 99.8227 70.9309 99.4955 71.384 98.6382L84.0304 74.7094C86.1535 70.6921 88.7766 66.9574 91.8175 63.6122C92.472 62.8943 92.4201 61.7847 91.7022 61.1302Z" fill="url(#paint17_linear_345_1691)" fill-opacity="0.05"/>
<path d="M66.8306 103.508C65.9732 103.055 64.9126 103.382 64.4594 104.24L32.9686 163.825C33.1856 165.844 33.466 167.826 33.7904 169.78L67.562 105.879C68.0151 105.022 67.6851 103.96 66.8306 103.508Z" fill="url(#paint18_linear_345_1691)" fill-opacity="0.05"/>
<path d="M155.653 152.143C156.536 151.744 156.925 150.702 156.52 149.817C156.119 148.93 155.076 148.544 154.193 148.95C143.714 153.738 131.804 155.089 120.661 152.761C119.894 152.602 119.114 152.967 118.747 153.661L78.6953 229.445C79.8153 229.831 80.952 230.186 82.1025 230.508L121.24 156.454C132.737 158.571 144.904 157.052 155.653 152.143Z" fill="url(#paint19_linear_345_1691)" fill-opacity="0.05"/>
<path d="M172.763 59.6314C172.083 58.9342 170.976 58.9252 170.28 59.6102C169.589 60.2867 169.577 61.3991 170.259 62.0935C186.805 78.9491 190.513 104.294 179.486 125.158C175.054 133.545 168.426 140.636 160.319 145.669C159.495 146.18 159.241 147.264 159.751 148.084C159.92 148.36 160.155 148.569 160.421 148.709C160.955 148.991 161.619 148.99 162.169 148.65C170.805 143.291 177.865 135.735 182.589 126.797C194.331 104.573 190.382 77.5818 172.763 59.6314Z" fill="url(#paint20_linear_345_1691)" fill-opacity="0.05"/>
<path d="M156.983 52.2084C158.451 52.9843 159.896 53.8323 161.276 54.7339C162.114 55.32 163.181 55.0365 163.706 54.2242C164.235 53.4107 164.007 52.3218 163.196 51.7943C161.726 50.8341 160.186 49.9318 158.623 49.1058C138.275 38.3522 113.539 40.7629 95.595 55.2451C94.8399 55.8548 94.7207 56.962 95.329 57.7127C95.4843 57.9048 95.6724 58.0556 95.876 58.1632C96.4782 58.4814 97.2337 58.4331 97.7967 57.9787C114.648 44.3758 137.88 42.1125 156.983 52.2084Z" fill="url(#paint21_linear_345_1691)" fill-opacity="0.05"/>
<path d="M117.699 55.1183C117.377 54.2072 116.37 53.726 115.457 54.0508C103.911 58.1501 94.4056 66.3621 88.6939 77.1694L51.3034 147.918C50.8503 148.775 51.1775 149.836 52.0349 150.289C52.8922 150.742 53.9529 150.415 54.406 149.557L91.795 78.812C97.0945 68.7846 105.916 61.1651 116.632 57.3604C117.547 57.0372 118.024 56.0309 117.699 55.1183Z" fill="url(#paint22_linear_345_1691)" fill-opacity="0.05"/>
<path d="M48.8892 156.244C48.0318 155.791 46.9712 156.118 46.518 156.975L35.4629 177.893C35.8824 179.556 36.3462 181.185 36.8439 182.79L49.6191 158.618C50.0737 157.757 49.7465 156.697 48.8892 156.244Z" fill="url(#paint23_linear_345_1691)" fill-opacity="0.05"/>
<path d="M116.673 142.569C115.816 142.116 114.755 142.443 114.302 143.3L70.6181 225.957C71.6445 226.507 72.6933 227.028 73.7661 227.511L117.405 144.94C117.858 144.083 117.528 143.02 116.673 142.569Z" fill="url(#paint24_linear_345_1691)" fill-opacity="0.05"/>
<path d="M122.951 147.85C143.991 151.706 164.839 141.599 174.829 122.696C187.38 98.9483 178.273 69.4179 154.525 56.867C146.198 52.4662 136.845 50.5825 127.478 51.4246C126.511 51.5117 125.8 52.3647 125.887 53.3314C125.973 54.2938 126.827 55.0094 127.794 54.9224C136.483 54.1404 145.16 55.887 152.885 59.9696C174.918 71.6143 183.372 99.0204 171.726 121.057C162.458 138.594 143.109 147.975 123.588 144.397C122.634 144.223 121.717 144.854 121.541 145.806C121.4 146.579 121.786 147.326 122.449 147.676C122.602 147.754 122.772 147.814 122.951 147.85Z" fill="url(#paint25_linear_345_1691)" fill-opacity="0.05"/>
<path d="M148.781 67.7267C160.612 73.9794 168.043 86.2118 168.177 99.6463C168.187 100.62 168.989 101.393 169.949 101.382C170.918 101.374 171.693 100.58 171.685 99.6108C171.542 84.8877 163.393 71.48 150.421 64.6241C130.951 54.3342 106.742 61.7998 96.4517 81.2697L75.0567 121.752C74.6036 122.61 74.9308 123.67 75.7881 124.123C76.6455 124.576 77.7062 124.249 78.1593 123.392L99.5528 82.9123C108.942 65.1529 131.023 58.3415 148.781 67.7267Z" fill="url(#paint26_linear_345_1691)" fill-opacity="0.05"/>
<path d="M83.268 186.988C82.4107 186.535 81.3501 186.862 80.8969 187.719L63.1132 221.369C64.0726 222.059 65.0501 222.715 66.04 223.341L83.9995 189.359C84.4526 188.502 84.1254 187.441 83.268 186.988Z" fill="url(#paint27_linear_345_1691)" fill-opacity="0.05"/>
<path d="M70.731 133.699C69.8736 133.246 68.813 133.573 68.3598 134.43L39.2315 189.545C39.7932 190.954 40.3873 192.335 41.0111 193.688L71.4624 136.07C71.9155 135.213 71.5883 134.152 70.731 133.699Z" fill="url(#paint28_linear_345_1691)" fill-opacity="0.05"/>
<path d="M167.066 118.594C168.869 115.182 170.166 111.55 170.913 107.796C171.104 106.844 170.497 105.91 169.535 105.732C168.586 105.542 167.658 106.16 167.472 107.11C166.791 110.529 165.608 113.843 163.963 116.955C154.578 134.713 132.497 141.524 114.739 132.139C114.117 131.81 113.51 131.467 112.914 131.108C112.508 130.835 112 130.79 111.539 130.921C111.077 131.051 110.683 131.367 110.457 131.794L86.6419 176.856C86.1887 177.713 86.5159 178.774 87.3733 179.227C88.2307 179.68 89.2913 179.353 89.7444 178.496L112.712 135.037C112.841 135.105 112.973 135.175 113.102 135.243C132.57 145.531 156.776 138.064 167.066 118.594Z" fill="url(#paint29_linear_345_1691)" fill-opacity="0.05"/>
<path d="M159.305 114.491C167.332 99.3022 161.503 80.4148 146.317 72.389C143.375 70.8341 140.232 69.7637 136.976 69.213C136.024 69.0508 135.115 69.6933 134.953 70.653C134.788 71.6039 135.425 72.509 136.393 72.6759C139.275 73.1645 142.065 74.111 144.678 75.4916C158.155 82.6142 163.325 99.3743 156.202 112.851C149.078 126.331 132.318 131.501 118.841 124.379C115.675 122.705 112.922 120.495 110.647 117.803C110.267 117.356 109.699 117.126 109.117 117.193C108.537 117.256 108.027 117.603 107.756 118.116L56.2488 215.575C57.1205 216.425 58.0117 217.244 58.9195 218.032L109.697 121.953C111.889 124.149 114.405 126.004 117.201 127.481C132.39 135.508 151.276 129.683 159.305 114.491Z" fill="url(#paint30_linear_345_1691)" fill-opacity="0.05"/>
<path d="M127.342 72.6505C128.301 72.4937 128.95 71.5928 128.794 70.6376C128.638 69.678 127.731 69.0265 126.78 69.1878C117.034 70.7758 108.808 76.6779 104.212 85.3748L98.5381 96.1105C98.085 96.9679 98.4122 98.0286 99.2695 98.4817C100.127 98.9348 101.188 98.6076 101.641 97.7503L107.315 87.0146C111.394 79.2954 118.694 74.063 127.342 72.6505Z" fill="url(#paint31_linear_345_1691)" fill-opacity="0.05"/>
<path d="M95.4419 105.725C94.5845 105.272 93.5239 105.599 93.0708 106.457L43.9477 199.405C44.6242 200.609 45.3275 201.785 46.0532 202.931L96.1734 108.096C96.6265 107.239 96.2993 106.178 95.4419 105.725Z" fill="url(#paint32_linear_345_1691)" fill-opacity="0.05"/>
<path d="M81.1714 152.453C80.314 152 79.2534 152.327 78.8003 153.184L49.7129 208.222C50.4922 209.239 51.2955 210.225 52.1153 211.186L81.9028 154.824C82.356 153.966 82.0259 152.904 81.1714 152.453Z" fill="url(#paint33_linear_345_1691)" fill-opacity="0.05"/>
<path d="M140.374 83.6348C149.358 88.3827 152.805 99.5591 148.056 108.546C147.475 109.644 146.783 110.683 146.006 111.633C145.39 112.382 145.498 113.489 146.248 114.105C146.999 114.73 148.105 114.61 148.719 113.863C149.647 112.732 150.469 111.497 151.161 110.187C156.814 99.4913 152.712 86.1864 142.016 80.5338C131.321 74.8812 118.016 78.983 112.362 89.6814L82.2166 146.72C81.7635 147.578 82.0907 148.638 82.948 149.092C83.8054 149.545 84.866 149.218 85.3192 148.36L115.464 91.3211C120.214 82.3345 131.387 78.8854 140.374 83.6348Z" fill="url(#paint34_linear_345_1691)" fill-opacity="0.05"/>
<path d="M139.584 120.437C140.488 120.086 140.945 119.077 140.6 118.168C140.247 117.259 139.24 116.811 138.33 117.152C133.372 119.044 127.836 118.712 123.145 116.232C119.713 114.418 116.987 111.628 115.262 108.167C114.838 107.304 113.778 106.942 112.909 107.378C112.041 107.807 111.689 108.861 112.121 109.731C114.168 113.854 117.415 117.177 121.501 119.336C127.09 122.283 133.683 122.689 139.584 120.437Z" fill="url(#paint35_linear_345_1691)" fill-opacity="0.05"/>
<path d="M130.644 89.3148C130.389 88.3806 129.421 87.8321 128.485 88.0895C125.234 88.9868 122.47 91.2124 120.897 94.1888C117.729 100.182 120.026 107.628 126.019 110.796C132.009 113.961 139.456 111.664 142.623 105.671C145.546 100.14 143.861 93.3138 138.7 89.7866C137.914 89.2611 136.806 89.4494 136.259 90.2466C135.715 91.0482 135.919 92.1395 136.722 92.6886C140.406 95.2003 141.609 100.08 139.522 104.029C137.261 108.307 131.939 109.951 127.66 107.69C123.382 105.429 121.74 100.104 124.001 95.8257C125.142 93.6665 127.068 92.1242 129.425 91.4693C130.357 91.2176 130.902 90.2506 130.644 89.3148Z" fill="url(#paint36_linear_345_1691)" fill-opacity="0.05"/>
<path d="M134.023 101.131C134.684 99.8806 134.205 98.3291 132.955 97.6683C131.705 97.0076 130.156 97.4877 129.495 98.7379C128.834 99.9881 129.315 101.537 130.562 102.196C131.815 102.858 133.362 102.381 134.023 101.131Z" fill="url(#paint37_linear_345_1691)" fill-opacity="0.05"/>
<defs>
<linearGradient id="paint0_linear_345_1691" x1="165.845" y1="194.378" x2="149.457" y2="225.387" gradientUnits="userSpaceOnUse">
<stop stop-color="#FD9F41"/>
<stop offset="1" stop-color="#EEC033"/>
</linearGradient>
<linearGradient id="paint1_linear_345_1691" x1="174.478" y1="173.434" x2="142.289" y2="234.341" gradientUnits="userSpaceOnUse">
<stop stop-color="#FD9F41"/>
<stop offset="1" stop-color="#EEC033"/>
</linearGradient>
<linearGradient id="paint2_linear_345_1691" x1="141.859" y1="188.828" x2="119.156" y2="231.785" gradientUnits="userSpaceOnUse">
<stop stop-color="#FD9F41"/>
<stop offset="1" stop-color="#EEC033"/>
</linearGradient>
<linearGradient id="paint3_linear_345_1691" x1="187.195" y1="24.4951" x2="172.669" y2="51.9795" gradientUnits="userSpaceOnUse">
<stop stop-color="#FD9F41"/>
<stop offset="1" stop-color="#EEC033"/>
</linearGradient>
<linearGradient id="paint4_linear_345_1691" x1="188.9" y1="146.695" x2="162.52" y2="196.611" gradientUnits="userSpaceOnUse">
<stop stop-color="#FD9F41"/>
<stop offset="1" stop-color="#EEC033"/>
</linearGradient>
<linearGradient id="paint5_linear_345_1691" x1="136.752" y1="9.26804" x2="121.515" y2="38.098" gradientUnits="userSpaceOnUse">
<stop stop-color="#FD9F41"/>
<stop offset="1" stop-color="#EEC033"/>
</linearGradient>
<linearGradient id="paint6_linear_345_1691" x1="186.65" y1="128.489" x2="126.198" y2="242.874" gradientUnits="userSpaceOnUse">
<stop stop-color="#FD9F41"/>
<stop offset="1" stop-color="#EEC033"/>
</linearGradient>
<linearGradient id="paint7_linear_345_1691" x1="221.508" y1="79.6066" x2="195.543" y2="128.735" gradientUnits="userSpaceOnUse">
<stop stop-color="#FD9F41"/>
<stop offset="1" stop-color="#EEC033"/>
</linearGradient>
<linearGradient id="paint8_linear_345_1691" x1="190.719" y1="36.2856" x2="181.741" y2="53.2723" gradientUnits="userSpaceOnUse">
<stop stop-color="#FD9F41"/>
<stop offset="1" stop-color="#EEC033"/>
</linearGradient>
<linearGradient id="paint9_linear_345_1691" x1="58.6929" y1="81.3413" x2="32.447" y2="131.003" gradientUnits="userSpaceOnUse">
<stop stop-color="#FD9F41"/>
<stop offset="1" stop-color="#EEC033"/>
</linearGradient>
<linearGradient id="paint10_linear_345_1691" x1="128.663" y1="176.232" x2="98.3098" y2="233.664" gradientUnits="userSpaceOnUse">
<stop stop-color="#FD9F41"/>
<stop offset="1" stop-color="#EEC033"/>
</linearGradient>
<linearGradient id="paint11_linear_345_1691" x1="166.823" y1="33.5859" x2="101.686" y2="156.834" gradientUnits="userSpaceOnUse">
<stop stop-color="#FD9F41"/>
<stop offset="1" stop-color="#EEC033"/>
</linearGradient>
<linearGradient id="paint12_linear_345_1691" x1="109.557" y1="193.598" x2="88.9593" y2="232.572" gradientUnits="userSpaceOnUse">
<stop stop-color="#FD9F41"/>
<stop offset="1" stop-color="#EEC033"/>
</linearGradient>
<linearGradient id="paint13_linear_345_1691" x1="114.63" y1="26.9145" x2="44.2843" y2="160.019" gradientUnits="userSpaceOnUse">
<stop stop-color="#FD9F41"/>
<stop offset="1" stop-color="#EEC033"/>
</linearGradient>
<linearGradient id="paint14_linear_345_1691" x1="170.834" y1="120.828" x2="129.034" y2="199.921" gradientUnits="userSpaceOnUse">
<stop stop-color="#FD9F41"/>
<stop offset="1" stop-color="#EEC033"/>
</linearGradient>
<linearGradient id="paint15_linear_345_1691" x1="200.653" y1="98.6971" x2="186.077" y2="126.276" gradientUnits="userSpaceOnUse">
<stop stop-color="#FD9F41"/>
<stop offset="1" stop-color="#EEC033"/>
</linearGradient>
<linearGradient id="paint16_linear_345_1691" x1="173.958" y1="47.2838" x2="161.215" y2="71.3961" gradientUnits="userSpaceOnUse">
<stop stop-color="#FD9F41"/>
<stop offset="1" stop-color="#EEC033"/>
</linearGradient>
<linearGradient id="paint17_linear_345_1691" x1="90.5668" y1="60.4655" x2="69.7891" y2="99.7799" gradientUnits="userSpaceOnUse">
<stop stop-color="#FD9F41"/>
<stop offset="1" stop-color="#EEC033"/>
</linearGradient>
<linearGradient id="paint18_linear_345_1691" x1="66.8306" y1="103.508" x2="32.2391" y2="168.961" gradientUnits="userSpaceOnUse">
<stop stop-color="#FD9F41"/>
<stop offset="1" stop-color="#EEC033"/>
</linearGradient>
<linearGradient id="paint19_linear_345_1691" x1="143.026" y1="142.27" x2="92.9679" y2="236.988" gradientUnits="userSpaceOnUse">
<stop stop-color="#FD9F41"/>
<stop offset="1" stop-color="#EEC033"/>
</linearGradient>
<linearGradient id="paint20_linear_345_1691" x1="189.505" y1="68.3828" x2="149.971" y2="143.187" gradientUnits="userSpaceOnUse">
<stop stop-color="#FD9F41"/>
<stop offset="1" stop-color="#EEC033"/>
</linearGradient>
<linearGradient id="paint21_linear_345_1691" x1="138.241" y1="38.3342" x2="120.8" y2="71.3355" gradientUnits="userSpaceOnUse">
<stop stop-color="#FD9F41"/>
<stop offset="1" stop-color="#EEC033"/>
</linearGradient>
<linearGradient id="paint22_linear_345_1691" x1="111.385" y1="51.2577" x2="57.5161" y2="153.186" gradientUnits="userSpaceOnUse">
<stop stop-color="#FD9F41"/>
<stop offset="1" stop-color="#EEC033"/>
</linearGradient>
<linearGradient id="paint23_linear_345_1691" x1="48.8892" y1="156.244" x2="35.2926" y2="181.97" gradientUnits="userSpaceOnUse">
<stop stop-color="#FD9F41"/>
<stop offset="1" stop-color="#EEC033"/>
</linearGradient>
<linearGradient id="paint24_linear_345_1691" x1="116.673" y1="142.569" x2="72.169" y2="226.778" gradientUnits="userSpaceOnUse">
<stop stop-color="#FD9F41"/>
<stop offset="1" stop-color="#EEC033"/>
</linearGradient>
<linearGradient id="paint25_linear_345_1691" x1="164.009" y1="61.8797" x2="119.492" y2="146.114" gradientUnits="userSpaceOnUse">
<stop stop-color="#FD9F41"/>
<stop offset="1" stop-color="#EEC033"/>
</linearGradient>
<linearGradient id="paint26_linear_345_1691" x1="148.397" y1="63.5544" x2="107.523" y2="140.895" gradientUnits="userSpaceOnUse">
<stop stop-color="#FD9F41"/>
<stop offset="1" stop-color="#EEC033"/>
</linearGradient>
<linearGradient id="paint27_linear_345_1691" x1="83.2681" y1="186.988" x2="64.4887" y2="222.521" gradientUnits="userSpaceOnUse">
<stop stop-color="#FD9F41"/>
<stop offset="1" stop-color="#EEC033"/>
</linearGradient>
<linearGradient id="paint28_linear_345_1691" x1="70.731" y1="133.699" x2="39.4599" y2="192.868" gradientUnits="userSpaceOnUse">
<stop stop-color="#FD9F41"/>
<stop offset="1" stop-color="#EEC033"/>
</linearGradient>
<linearGradient id="paint29_linear_345_1691" x1="153.557" y1="97.1983" x2="105.22" y2="188.659" gradientUnits="userSpaceOnUse">
<stop stop-color="#FD9F41"/>
<stop offset="1" stop-color="#EEC033"/>
</linearGradient>
<linearGradient id="paint30_linear_345_1691" x1="154.464" y1="76.6944" x2="75.2152" y2="226.644" gradientUnits="userSpaceOnUse">
<stop stop-color="#FD9F41"/>
<stop offset="1" stop-color="#EEC033"/>
</linearGradient>
<linearGradient id="paint31_linear_345_1691" x1="122.714" y1="66.6347" x2="104.439" y2="101.214" gradientUnits="userSpaceOnUse">
<stop stop-color="#FD9F41"/>
<stop offset="1" stop-color="#EEC033"/>
</linearGradient>
<linearGradient id="paint32_linear_345_1691" x1="95.4419" y1="105.725" x2="44.5019" y2="202.111" gradientUnits="userSpaceOnUse">
<stop stop-color="#FD9F41"/>
<stop offset="1" stop-color="#EEC033"/>
</linearGradient>
<linearGradient id="paint33_linear_345_1691" x1="81.1714" y1="152.453" x2="50.564" y2="210.366" gradientUnits="userSpaceOnUse">
<stop stop-color="#FD9F41"/>
<stop offset="1" stop-color="#EEC033"/>
</linearGradient>
<linearGradient id="paint34_linear_345_1691" x1="142.015" y1="80.533" x2="100.796" y2="158.525" gradientUnits="userSpaceOnUse">
<stop stop-color="#FD9F41"/>
<stop offset="1" stop-color="#EEC033"/>
</linearGradient>
<linearGradient id="paint35_linear_345_1691" x1="127.869" y1="110.948" x2="123.014" y2="120.136" gradientUnits="userSpaceOnUse">
<stop stop-color="#FD9F41"/>
<stop offset="1" stop-color="#EEC033"/>
</linearGradient>
<linearGradient id="paint36_linear_345_1691" x1="137.47" y1="89.126" x2="126.018" y2="110.795" gradientUnits="userSpaceOnUse">
<stop stop-color="#FD9F41"/>
<stop offset="1" stop-color="#EEC033"/>
</linearGradient>
<linearGradient id="paint37_linear_345_1691" x1="132.956" y1="97.6691" x2="130.563" y2="102.197" gradientUnits="userSpaceOnUse">
<stop stop-color="#FD9F41"/>
<stop offset="1" stop-color="#EEC033"/>
</linearGradient>
</defs>
</svg>
