<svg width="173" height="186" viewBox="0 0 173 186" fill="none" xmlns="http://www.w3.org/2000/svg">
<g opacity="0.1" clip-path="url(#clip0_647_46)">
<path d="M3.52758 147.42L26.7034 141.895C28.1647 141.554 29.4406 141.057 31.0368 140.735C31.729 140.595 32.6079 140.18 33.024 139.371C33.39 138.659 33.5616 137.731 33.024 136.958C32.6275 136.387 32.4033 136.257 31.7373 136.06C30.949 135.828 30.1424 135.9 29.3834 136.06C27.7293 136.411 24.7591 137.379 23.4774 137.679L2.40394 142.597C1.07342 142.907 0.246192 144.239 0.556352 145.571C0.866248 146.902 2.1963 147.73 3.52758 147.42Z" fill="#989898"/>
<path d="M6.43556 132.304L21.417 128.808C23.4455 128.334 27.5178 127.149 29.4807 126.451C30.1611 126.204 30.9764 125.684 31.4882 125.172C31.8598 124.8 32.3348 123.404 32.0002 122.61C31.529 121.492 30.3333 121.358 29.0944 121.503C28.7742 121.541 28.452 121.6 28.1396 121.671C26.2705 122.35 22.2506 123.527 20.2935 123.984L5.31166 127.481C3.98119 127.791 3.15398 129.123 3.46403 130.455C3.77417 131.786 5.10443 132.614 6.43556 132.304Z" fill="#989898"/>
<path d="M4.74304 118.265L18.2325 115.117C20.6524 114.552 24.7349 113.415 27.3483 112.194C28.3891 111.707 29.4404 111.337 29.9522 110.824C30.6731 110.103 30.8775 109.195 30.4642 108.262C30.1685 107.595 29.5028 107.127 29.0702 107.019C28.6213 106.906 28.0674 106.925 27.4682 107.03C26.855 107.137 24.1401 107.93 23.5996 108.115C21.5246 109.038 19.3531 109.77 17.1089 110.293L3.61927 113.442C2.28877 113.752 1.46153 115.084 1.77168 116.416C2.08152 117.747 3.41232 118.575 4.74304 118.265Z" fill="#989898"/>
<path fill-rule="evenodd" clip-rule="evenodd" d="M48.5621 21.3166C48.1242 21.0109 47.7826 20.5634 47.6138 20.0126C47.2132 18.7055 47.947 17.3203 49.2541 16.9188C64.7501 12.1611 81.27 11.474 97.0242 14.9305C98.3575 15.2221 99.2029 16.5431 98.9104 17.8796C98.6178 19.2153 97.2987 20.0608 95.9639 19.768C81.0374 16.4935 65.3874 17.1457 50.7042 21.6541C49.9482 21.8862 49.1666 21.7385 48.5621 21.3166Z" fill="#989898"/>
<path d="M135.669 22.1235C122.872 13.1913 108.613 7.41297 93.2948 4.95265C92.9141 4.8918 92.5686 4.74711 92.2735 4.54105C91.5173 4.01333 91.0891 3.08395 91.2446 2.11555C91.4609 0.765281 92.7301 -0.15377 94.0792 0.0628893C110.14 2.64231 125.083 8.69693 138.499 18.0611C145.488 22.9395 151.876 28.6222 157.485 34.9504C158.392 35.9736 158.299 37.5389 157.277 38.4465C156.256 39.3535 154.692 39.2596 153.785 38.2377C148.433 32.1999 142.338 26.7782 135.669 22.1235Z" fill="#989898"/>
<path d="M137.651 58.8322C138.754 58.0239 140.302 58.2638 141.109 59.3665C145.997 66.0461 149.805 73.4379 152.427 81.3355C152.858 82.6333 152.155 84.0354 150.859 84.4661C150.089 84.7224 149.282 84.5791 148.662 84.146C148.24 83.8513 147.906 83.4242 147.731 82.8969C145.272 75.4891 141.701 68.5568 137.118 62.2926C136.31 61.1898 136.549 59.6404 137.651 58.8322Z" fill="#989898"/>
<path d="M11.8504 87.7361C14.985 87.0041 17.7245 85.1461 19.5654 82.5032L27.0144 71.8105C27.3469 71.3335 28.03 70.3959 28.03 70.3959C28.03 70.3959 28.2398 69.9627 28.3229 69.7361C28.529 69.1739 28.6058 68.6305 28.478 68.147C28.3541 67.6788 28.0223 67.2057 27.2842 66.8016C26.7818 66.5267 26.3464 66.4402 25.968 66.4603C25.5875 66.4804 25.2371 66.6103 24.9099 66.8097C24.4901 67.0658 24.1318 67.4192 23.817 67.7709C23.5259 68.1694 23.2389 68.5718 22.956 68.9778L15.507 79.6705C14.3665 81.3078 12.6683 82.4593 10.7272 82.9123L4.81832 84.2911C3.48775 84.6017 2.66068 85.9331 2.97095 87.2651C3.11514 87.8854 3.4797 88.3954 3.96422 88.7337C4.52091 89.1223 5.23075 89.2808 5.94173 89.1149L11.8504 87.7361Z" fill="#989898"/>
<path fill-rule="evenodd" clip-rule="evenodd" d="M113.008 160.085C109.874 163.767 106.483 167.294 102.929 170.569C101.923 171.495 101.858 173.061 102.783 174.067C103.003 174.305 103.255 174.49 103.528 174.621C104.416 175.05 105.512 174.92 106.28 174.213C109.981 170.803 113.511 167.13 116.775 163.296C117.66 162.256 117.535 160.693 116.496 159.806C115.454 158.92 113.894 159.045 113.008 160.085Z" fill="#989898"/>
<path d="M25.4833 152.608L5.03113 157.273C3.69949 157.577 2.86518 158.905 3.16883 160.238C3.31109 160.864 3.67701 161.378 4.16489 161.718C4.71826 162.104 5.4229 162.263 6.13046 162.102L26.5823 157.436C37.0012 155.06 46.7429 150.745 55.3625 144.792C56.0211 144.337 56.6524 143.634 56.9476 142.892C57.1208 142.457 57.2605 141.783 56.7481 141.096C56.3578 140.573 55.7773 140.39 55.2481 140.359C54.6891 140.327 54.0357 140.445 53.3651 140.65C52.387 140.948 51.7357 141.322 50.7673 141.895C41.9953 147.083 33.3752 150.808 25.4833 152.608Z" fill="#989898"/>
<path d="M28.6092 166.312L11.3528 170.249C10.0209 170.552 9.18646 171.88 9.49011 173.213C9.63235 173.839 9.9983 174.353 10.4862 174.694C11.0395 175.08 11.7442 175.239 12.4517 175.077L29.7085 171.141C47.0039 167.195 62.7024 158.68 75.3153 146.599C75.6937 146.054 76.0041 145.522 76.184 145.014C76.2827 144.735 76.412 144.271 76.3111 143.809C76.3111 143.809 76.3785 144.121 76.3107 143.807C76.2429 143.493 76.0537 143.173 75.7507 142.876C74.8696 142.014 73.2367 142.735 72.5988 143.026C72.0967 143.255 71.3016 143.89 71.3016 143.89C71.3016 143.89 68.2756 146.328 66.9543 147.423C55.924 156.564 42.8355 163.067 28.6092 166.312Z" fill="#989898"/>
<path d="M26.9589 181.108L31.7347 180.019C43.7779 177.272 53.3401 173.637 65.3209 165.982C75.0298 159.778 87.7317 146.787 87.7317 146.787L91.0616 143.257C91.0616 143.257 92.8102 141.222 94.0293 140.897C94.9626 140.648 95.7451 141.111 96.1023 141.384C96.3642 141.584 96.6204 141.894 96.7745 142.315C97.1426 143.321 96.3722 144.109 95.8236 144.888C94.4853 146.787 81.3784 161.402 68.9094 169.559C56.1027 177.937 45.8033 181.89 32.8335 184.848L28.0582 185.938C27.3506 186.099 26.646 185.94 26.0927 185.553C25.6052 185.213 25.2391 184.699 25.0966 184.073C24.793 182.741 25.6268 181.413 26.9589 181.108Z" fill="#989898"/>
<path d="M86.1822 167.983C87.2216 167.097 88.7816 167.221 89.6702 168.261C90.5559 169.302 90.4315 170.865 89.3924 171.752C85.5629 175.019 81.4949 178.085 77.3005 180.863C76.4302 181.44 75.3275 181.394 74.5186 180.829C74.2706 180.656 74.0503 180.434 73.8717 180.164C73.1176 179.024 73.4298 177.489 74.5693 176.734L86.1822 167.983Z" fill="#989898"/>
<path d="M112.829 138.269L103.179 149C99.4913 153.1 95.4932 156.978 91.2944 160.525C90.2501 161.407 90.1183 162.969 90.9994 164.014C91.0739 164.103 91.1538 164.185 91.2376 164.261C92.1412 165.075 93.5304 165.116 94.4855 164.309C98.8561 160.617 103.018 156.581 106.856 152.313C106.856 152.313 113.095 145.838 116.496 141.344C120.591 135.932 124.532 128.524 125.529 126.728C125.861 126.13 126.326 124.134 124.931 123.535C123.681 122.999 122.241 123.806 121.741 124.932C120.146 128.524 113.406 137.627 112.829 138.269Z" fill="#989898"/>
<path d="M155.799 95.9385C157.307 107.124 156.477 118.252 153.334 129.018C152.951 130.33 151.577 131.084 150.266 130.7C149.999 130.622 149.758 130.504 149.544 130.355C148.696 129.763 148.28 128.675 148.585 127.629C149.438 124.708 150.109 121.758 150.598 118.787C151.799 111.487 151.901 104.057 150.895 96.6011C150.713 95.2457 151.662 93.9987 153.017 93.8155C154.37 93.6325 155.616 94.5828 155.799 95.9385Z" fill="#989898"/>
<path d="M107.93 51.4433C108.648 50.2807 110.173 49.9207 111.335 50.6401C112.366 51.2784 113.395 51.9552 114.393 52.6517C144.097 73.3849 151.412 114.444 130.699 144.177L122.448 156.019C121.667 157.141 120.125 157.416 119.004 156.634C117.883 155.852 117.608 154.309 118.39 153.187L126.64 141.344C145.794 113.849 139.03 75.8855 111.563 56.7136C110.639 56.0691 109.687 55.4428 108.733 54.8518L108.73 54.85C107.568 54.138 107.209 52.6097 107.93 51.4433Z" fill="#989898"/>
<path d="M168.225 59.3771C166.541 56.0953 164.66 52.871 162.633 49.7937C161.881 48.6523 162.196 47.1158 163.336 46.3629C164.477 45.6107 166.011 45.9258 166.763 47.0678C168.888 50.2938 170.861 53.6741 172.626 57.1137C173.25 58.3303 172.771 59.8229 171.556 60.4481C170.713 60.8815 169.737 60.7847 169.008 60.2757C168.689 60.0527 168.416 59.7502 168.225 59.3771Z" fill="#989898"/>
<path d="M127.969 51.969L127.968 51.9682C125.362 49.5276 122.548 47.2472 119.601 45.1905C119.059 44.8121 118.513 44.4413 117.963 44.0785C106.406 36.4536 93.1484 32.2597 79.5049 31.8C78.5251 31.767 77.5431 31.7533 76.5598 31.7589C72.8115 31.7803 69.0413 32.0831 65.2763 32.6737C46.1749 35.6699 29.2076 45.7389 17.5055 61.0262C16.6977 62.0813 15.2071 62.3051 14.1288 61.5526C14.0954 61.5292 14.067 61.5085 14.0417 61.4888L14.0369 61.485C12.9528 60.6539 12.7471 59.0993 13.5783 58.0137C26.0572 41.7128 44.1431 30.9763 64.5103 27.7811C64.9778 27.7077 65.4454 27.6385 65.9131 27.5736C65.9956 27.5621 66.078 27.5506 66.1604 27.5395C86.0449 24.8365 105.964 29.6344 122.431 41.1281C125.571 43.3197 128.571 45.7509 131.35 48.3526C132.347 49.2874 132.399 50.8538 131.465 51.8522C130.531 52.8517 128.965 52.9047 127.969 51.969Z" fill="#989898"/>
<path d="M96.7671 49.1515C98.0579 49.6001 99.4678 48.916 99.9157 47.6244C100.363 46.3333 99.6797 44.9222 98.3897 44.4726C91.5144 42.0835 84.3211 40.8673 77.0078 40.8574C75.6413 40.8557 74.5323 41.9635 74.5308 43.3307C74.5292 44.1733 74.9472 44.9178 75.5912 45.3673C75.9903 45.646 76.4753 45.8095 77.001 45.8104C83.762 45.8192 90.4122 46.9435 96.7671 49.1515Z" fill="#989898"/>
<path d="M66.3176 44.1789C66.5968 45.5178 65.7392 46.8293 64.4018 47.1092C59.1983 48.197 55.0225 49.4559 49.572 52.2655C45.5155 54.3567 36.9251 60.6269 36.9251 60.6269C36.9251 60.6269 34.7741 62.6224 33.0239 61.0261C31.2738 59.4295 33.0239 57.1329 33.0239 57.1329C33.4926 56.5428 42.0466 50.5767 46.3833 48.3031C52.6264 45.0301 56.5372 43.6938 63.3903 42.2612C64.7275 41.9819 66.0384 42.8402 66.3176 44.1789Z" fill="#989898"/>
<path d="M108.083 20.673C108.586 19.4014 110.023 18.7777 111.293 19.2805C118.024 21.9434 124.473 25.4125 130.46 29.591C141.099 37.0172 149.913 46.3555 156.658 57.3489C163.171 67.9631 167.461 79.6152 169.409 91.983C169.623 93.3334 168.701 94.6013 167.351 94.8145C166.694 94.9183 166.058 94.7533 165.551 94.3996C165.017 94.0267 164.632 93.4474 164.522 92.7535C160.716 68.5938 147.613 47.601 127.63 33.6535C121.958 29.6947 115.85 26.4092 109.475 23.8862C108.205 23.3838 107.581 21.9448 108.083 20.673Z" fill="#989898"/>
<path d="M21.6841 98.1625C19.2235 99.6826 17.7303 100.375 15.0353 101.424C10.5505 103.169 3.03611 104.224 3.03611 104.224C2.32558 104.39 1.61522 104.232 1.05862 103.843C0.574276 103.505 0.209949 102.996 0.065136 102.375C-0.245041 101.043 0.582416 99.7114 1.9125 99.4011C1.9125 99.4011 9.45972 98.4274 13.9118 96.6004C16.4171 95.5722 17.7978 94.884 20.0652 93.4025C23.3469 91.2588 25.5055 88.9546 27.5938 86.762C28.4246 86.328 29.3217 86.178 30.2042 86.6612C30.9423 87.0651 31.2741 87.5384 31.398 88.0066C31.5258 88.4901 31.4639 89.0127 31.2431 89.5957C31.0136 90.2008 30.4995 90.6833 30.2568 90.9267C27.8186 93.372 25.4108 95.8604 21.6841 98.1625Z" fill="#989898"/>
<path d="M63.3604 128.766C63.3604 127.789 63.3604 126.708 63.3604 125.522C63.3604 124.266 63.3604 122.697 63.3604 120.813C63.3604 118.86 63.3604 116.349 63.3604 113.28C63.3604 111.117 63.3604 108.885 63.3604 106.583C63.3604 104.212 63.3604 101.77 63.3604 99.2589C63.3604 96.6779 63.3604 93.9574 63.3604 91.0975C63.3604 88.2375 63.3604 85.2031 63.3604 81.9943C63.3604 77.8786 63.4627 74.5654 63.6676 72.0541C63.9405 69.5429 64.4183 67.6246 65.1007 66.2993C65.7832 64.9042 66.7387 63.9625 67.9672 63.4742C69.2639 62.9859 70.9019 62.7417 72.8811 62.7417C73.9731 62.7417 74.9627 62.7417 75.8498 62.7417C76.8055 62.7417 77.7609 62.7417 78.7163 62.7417C79.6718 62.7417 80.7979 62.7417 82.0947 62.7417C83.4596 62.7417 85.1317 62.7417 87.111 62.7417C91.1376 62.7417 94.7889 63.3346 98.0648 64.5205C101.341 65.6365 104.207 67.241 106.664 69.3336C109.189 71.4263 111.305 73.9375 113.011 76.8673C114.718 79.7971 115.98 83.0755 116.799 86.7029C117.686 90.2603 118.13 94.097 118.13 98.2125C118.13 103.374 117.345 108.153 115.775 112.547C114.274 116.872 112.09 120.639 109.223 123.848C106.425 127.057 103.081 129.533 99.191 131.277C95.3009 133.021 90.9669 133.893 86.1895 133.893C84.8246 133.893 83.4596 133.893 82.0947 133.893C80.7979 133.893 79.5012 133.893 78.2045 133.893C76.4984 133.893 75.2015 133.439 74.3144 132.532C73.4271 131.556 72.9835 130.44 72.9835 129.184C72.9835 127.929 73.4271 126.847 74.3144 125.94C75.2015 124.964 76.4984 124.476 78.2045 124.476C79.6378 124.476 80.9685 124.476 82.197 124.476C83.4255 124.476 84.7564 124.476 86.1895 124.476C89.7386 124.476 92.912 123.848 95.7103 122.592C98.5084 121.267 100.863 119.453 102.774 117.151C104.753 114.78 106.255 111.989 107.278 108.781C108.37 105.572 108.916 102.049 108.916 98.2125C108.916 94.376 108.473 90.8882 107.585 87.7492C106.698 84.5404 105.367 81.785 103.593 79.4831C101.819 77.1812 99.5663 75.4024 96.8363 74.1468C94.1063 72.8213 90.8645 72.1587 87.111 72.1587C85.1317 72.1587 83.4596 72.1587 82.0947 72.1587C80.7298 72.1587 79.4331 72.1587 78.2045 72.1587C77.0442 72.1587 75.6451 72.1587 74.0071 72.1587C73.5977 72.1587 73.2564 72.3331 72.9835 72.6819C72.7788 72.9609 72.6422 73.4143 72.574 74.0422C72.5057 74.6002 72.4717 75.2978 72.4717 76.1348C72.4717 76.9719 72.4717 77.8786 72.4717 78.8552C72.5399 79.8318 72.574 80.8783 72.574 81.9943C72.574 84.8544 72.574 87.8888 72.574 91.0975C72.574 94.3063 72.574 97.7591 72.574 101.456C72.574 105.084 72.574 109.025 72.574 113.28C72.574 116.698 72.574 119.314 72.574 121.127C72.574 122.941 72.574 124.406 72.574 125.522C72.574 126.568 72.574 127.65 72.574 128.766C72.574 130.509 72.0962 131.835 71.1408 132.742C70.2535 133.648 69.1957 134.102 67.9672 134.102C66.7387 134.102 65.6467 133.648 64.6912 132.742C63.804 131.835 63.3604 130.509 63.3604 128.766Z" fill="white"/>
<path d="M42.9561 128.91C42.9561 126.671 42.9561 124.635 42.9561 122.802C42.9561 120.97 42.9561 119.307 42.9561 117.814C42.9561 116.253 42.9561 114.828 42.9561 113.539C42.9561 110.281 42.9561 106.956 42.9561 103.563C42.9561 100.169 42.9561 96.776 42.9561 93.3828C42.9561 89.9217 42.9561 86.5963 42.9561 83.4066C42.9561 81.8457 42.9561 80.3187 42.9561 78.8258C42.9561 77.2649 42.9561 75.6022 42.9561 73.8376C42.9561 72.0731 42.9561 70.0712 42.9561 67.8316C42.9561 66.1351 43.5248 64.8795 44.6624 64.0651C45.8874 63.1829 47.2875 62.7417 48.8626 62.7417C50.4376 62.7417 51.794 63.1829 52.9315 64.0651C54.1565 64.8795 54.7691 66.1351 54.7691 67.8316C54.7691 70.0712 54.7691 72.0731 54.7691 73.8376C54.7691 75.6022 54.7691 77.2649 54.7691 78.8258C54.7691 80.3187 54.7691 81.8457 54.7691 83.4066C54.7691 86.5963 54.7691 89.9217 54.7691 93.3828C54.7691 96.776 54.7691 100.169 54.7691 103.563C54.7691 106.956 54.7691 110.281 54.7691 113.539C54.7691 114.828 54.7691 116.253 54.7691 117.814C54.7691 119.307 54.7691 120.97 54.7691 122.802C54.7691 124.635 54.7691 126.671 54.7691 128.91C54.7691 130.675 54.1565 131.998 52.9315 132.88C51.794 133.695 50.4376 134.102 48.8626 134.102C47.2875 134.102 45.8874 133.695 44.6624 132.88C43.5248 131.998 42.9561 130.675 42.9561 128.91Z" fill="white"/>
</g>
<defs>
<clipPath id="clip0_647_46">
<rect width="173" height="186" fill="white"/>
</clipPath>
</defs>
</svg>
