<svg width="349" height="371" viewBox="0 0 349 371" fill="none" xmlns="http://www.w3.org/2000/svg">
<g opacity="0.1" clip-path="url(#clip0_647_142)">
<path d="M7.28312 293.886L54.0368 282.876C56.9844 282.196 59.5582 281.207 62.7788 280.564C64.1751 280.286 65.9481 279.46 66.7875 277.847C67.5258 276.429 67.872 274.58 66.7875 273.038C65.9877 271.901 65.5354 271.642 64.1918 271.25C62.6013 270.786 60.9744 270.929 59.4433 271.25C56.1061 271.949 50.1144 273.878 47.5289 274.474L5.01635 284.274C2.33223 284.893 0.663431 287.547 1.28912 290.202C1.91429 292.855 4.59745 294.505 7.28312 293.886Z" fill="#EEC033"/>
<path d="M13.1498 263.765L43.3723 256.797C47.4648 255.854 55.68 253.492 59.6399 252.102C61.0126 251.609 62.6568 250.573 63.6896 249.552C64.4393 248.811 65.3975 246.029 64.7225 244.447C63.772 242.219 61.3594 241.952 58.8602 242.241C58.2142 242.316 57.5643 242.434 56.9345 242.575C53.1634 243.928 45.0544 246.275 41.1061 247.185L10.8826 254.153C8.19852 254.772 6.52976 257.425 7.15527 260.08C7.78089 262.733 10.4645 264.382 13.1498 263.765Z" fill="#EEC033"/>
<path d="M9.73552 235.788L36.9482 229.515C41.8303 228.389 50.066 226.123 55.3381 223.69C57.4377 222.72 59.5583 221.982 60.5911 220.961C62.0455 219.523 62.4577 217.714 61.624 215.855C61.0274 214.526 59.6845 213.594 58.8118 213.377C57.9062 213.152 56.7885 213.191 55.5796 213.4C54.3431 213.613 48.8658 215.193 47.7753 215.562C43.5898 217.401 39.2091 218.859 34.6818 219.903L7.4685 226.176C4.78438 226.795 3.11558 229.448 3.74127 232.104C4.36629 234.756 7.05097 236.406 9.73552 235.788Z" fill="#EEC033"/>
<path fill-rule="evenodd" clip-rule="evenodd" d="M98.1339 42.5959C97.2507 41.9868 96.5615 41.095 96.2206 39.9975C95.4127 37.3927 96.8932 34.6323 99.5299 33.8323C130.791 24.3515 164.117 22.9823 195.898 29.8701C198.588 30.4512 200.294 33.0837 199.703 35.747C199.113 38.4087 196.452 40.0935 193.76 39.5101C163.648 32.9847 132.076 34.2844 102.455 43.2686C100.93 43.731 99.3535 43.4367 98.1339 42.5959Z" fill="#EEC033"/>
<path d="M273.857 44.2031C248.041 26.4036 219.278 14.889 188.375 9.9862C187.607 9.86498 186.91 9.57666 186.314 9.16603C184.789 8.11443 183.925 6.26238 184.239 4.33262C184.675 1.64193 187.236 -0.189497 189.957 0.242248C222.357 5.38232 252.502 17.4476 279.567 36.1079C293.666 45.8292 306.553 57.1533 317.869 69.7638C319.699 71.8027 319.51 74.9219 317.448 76.7305C315.388 78.538 312.234 78.3509 310.404 76.3145C299.607 64.2828 287.311 53.4788 273.857 44.2031Z" fill="#EEC033"/>
<path d="M277.857 117.354C280.081 115.744 283.204 116.222 284.832 118.419C294.693 131.73 302.375 146.46 307.664 162.197C308.533 164.784 307.117 167.577 304.501 168.436C302.947 168.946 301.32 168.661 300.068 167.798C299.217 167.211 298.544 166.36 298.191 165.309C293.231 150.547 286.027 136.733 276.78 124.25C275.151 122.052 275.633 118.965 277.857 117.354Z" fill="#EEC033"/>
<path d="M24.0737 174.952C30.3973 173.493 35.9235 169.791 39.6377 164.524L54.6648 143.216C55.3356 142.266 56.7136 140.398 56.7136 140.398C56.7136 140.398 57.1368 139.534 57.3044 139.083C57.7202 137.962 57.8751 136.88 57.617 135.916C57.3674 134.983 56.6976 134.04 55.209 133.235C54.1956 132.687 53.3169 132.515 52.5538 132.555C51.7858 132.595 51.079 132.854 50.4192 133.251C49.5723 133.761 48.8492 134.466 48.2145 135.167C47.6272 135.961 47.0483 136.762 46.4776 137.572L31.4503 158.879C29.1494 162.142 25.7237 164.437 21.8078 165.339L9.88755 168.087C7.20336 168.706 5.53488 171.359 6.16081 174.013C6.45168 175.249 7.18709 176.266 8.16458 176.94C9.2876 177.714 10.7196 178.03 12.1539 177.699L24.0737 174.952Z" fill="#EEC033"/>
<path fill-rule="evenodd" clip-rule="evenodd" d="M228.143 319.125C221.82 326.462 214.98 333.491 207.809 340.016C205.781 341.861 205.65 344.983 207.517 346.987C207.959 347.462 208.469 347.829 209.018 348.091C210.81 348.946 213.021 348.686 214.569 347.277C222.036 340.483 229.159 333.164 235.742 325.524C237.528 323.451 237.276 320.336 235.18 318.569C233.077 316.803 229.93 317.053 228.143 319.125Z" fill="#EEC033"/>
<path d="M51.5756 304.225L10.3168 313.521C7.63041 314.126 5.94736 316.772 6.55993 319.429C6.84688 320.676 7.58512 321.7 8.56928 322.379C9.68566 323.149 11.1072 323.465 12.5345 323.144L53.7927 313.846C74.8115 309.111 94.4634 300.513 111.853 288.649C113.181 287.743 114.454 286.341 115.05 284.864C115.399 283.997 115.681 282.654 114.648 281.285C113.86 280.242 112.689 279.878 111.622 279.816C110.494 279.751 109.176 279.987 107.823 280.395C105.85 280.99 104.536 281.734 102.582 282.876C84.8859 293.215 67.4967 300.637 51.5756 304.225Z" fill="#EEC033"/>
<path d="M57.8821 331.533L23.07 339.378C20.3831 339.983 18.6998 342.629 19.3123 345.286C19.5993 346.532 20.3375 347.557 21.3217 348.235C22.4381 349.005 23.8596 349.322 25.287 349L60.0999 341.156C94.9907 333.293 126.659 316.325 152.104 292.251C152.868 291.164 153.494 290.104 153.856 289.092C154.056 288.535 154.316 287.611 154.113 286.69C154.113 286.69 154.249 287.312 154.112 286.687C153.975 286.061 153.594 285.423 152.983 284.832C151.205 283.114 147.911 284.55 146.624 285.13C145.611 285.587 144.007 286.852 144.007 286.852C144.007 286.852 137.903 291.711 135.237 293.893C112.986 312.107 86.5814 325.067 57.8821 331.533Z" fill="#EEC033"/>
<path d="M54.5524 361.02L64.1865 358.847C88.4821 353.375 107.772 346.13 131.942 330.875C151.528 318.513 177.151 292.626 177.151 292.626L183.869 285.59C183.869 285.59 187.397 281.536 189.856 280.887C191.739 280.391 193.318 281.315 194.038 281.858C194.566 282.257 195.083 282.874 195.394 283.713C196.136 285.718 194.583 287.289 193.476 288.841C190.776 292.626 164.335 321.748 139.181 338.003C113.345 354.697 92.5679 362.574 66.4035 368.468L56.7698 370.641C55.3426 370.961 53.9208 370.645 52.8045 369.875C51.8215 369.2 51.0829 368.173 50.7954 366.928C50.1826 364.269 51.865 361.625 54.5524 361.02Z" fill="#EEC033"/>
<path d="M174.026 334.862C176.122 333.096 179.269 333.344 181.062 335.417C182.849 337.49 182.598 340.605 180.502 342.372C172.776 348.883 164.57 354.992 156.108 360.531C154.353 361.677 152.128 361.586 150.496 360.464C149.996 360.116 149.551 359.676 149.191 359.138C147.67 356.867 148.3 353.804 150.598 352.299L174.026 334.862Z" fill="#EEC033"/>
<path d="M227.781 275.651L208.313 297.035C200.874 305.206 192.809 312.932 184.338 320.001C182.232 321.759 181.966 324.872 183.743 326.954C183.894 327.131 184.055 327.295 184.224 327.445C186.047 329.067 188.85 329.15 190.776 327.542C199.593 320.184 207.99 312.141 215.733 303.637C215.733 303.637 228.318 290.734 235.179 281.778C243.441 270.994 251.391 256.232 253.402 252.653C254.072 251.46 255.01 247.484 252.195 246.291C249.674 245.223 246.768 246.831 245.76 249.074C242.543 256.232 228.945 274.371 227.781 275.651Z" fill="#EEC033"/>
<path d="M314.466 191.297C317.508 213.587 315.835 235.763 309.494 257.216C308.721 259.831 305.95 261.332 303.304 260.567C302.767 260.412 302.279 260.177 301.848 259.88C300.138 258.7 299.298 256.532 299.915 254.447C301.635 248.627 302.988 242.749 303.975 236.828C306.397 222.282 306.602 207.475 304.575 192.617C304.206 189.916 306.122 187.431 308.853 187.066C311.584 186.702 314.097 188.595 314.466 191.297Z" fill="#EEC033"/>
<path d="M217.898 102.63C219.347 100.314 222.423 99.5963 224.767 101.03C226.848 102.302 228.923 103.651 230.936 105.039C290.86 146.354 305.617 228.175 263.83 287.424L247.187 311.023C245.61 313.259 242.5 313.807 240.239 312.248C237.978 310.689 237.423 307.614 239 305.378L255.644 281.778C294.284 226.989 280.638 151.337 225.227 113.133C223.364 111.848 221.444 110.6 219.518 109.423L219.512 109.419C217.169 108 216.445 104.955 217.898 102.63Z" fill="#EEC033"/>
<path d="M339.535 118.44C336.137 111.901 332.342 105.475 328.253 99.3432C326.736 97.0687 327.371 94.0068 329.672 92.5066C331.973 91.0075 335.068 91.6356 336.585 93.9111C340.872 100.34 344.851 107.076 348.413 113.93C349.672 116.354 348.705 119.329 346.254 120.575C344.554 121.438 342.585 121.245 341.114 120.231C340.469 119.787 339.921 119.184 339.535 118.44Z" fill="#EEC033"/>
<path d="M258.324 103.678L258.322 103.676C253.065 98.8124 247.387 94.2682 241.442 90.1697C240.349 89.4157 239.247 88.6769 238.137 87.9538C214.825 72.7594 188.079 64.4022 160.555 63.4861C158.578 63.4204 156.598 63.393 154.614 63.4042C147.052 63.4468 139.446 64.0502 131.851 65.2272C93.3168 71.1977 59.0883 91.2626 35.4811 121.726C33.8514 123.829 30.8444 124.275 28.6692 122.775C28.6017 122.728 28.5445 122.687 28.4934 122.648L28.4836 122.64C26.2967 120.984 25.8818 117.886 27.5585 115.723C52.7324 83.2395 89.2183 61.8446 130.306 55.4775C131.249 55.3312 132.192 55.1933 133.136 55.0639C133.302 55.0411 133.468 55.0182 133.635 54.996C173.748 49.6097 213.932 59.1706 247.152 82.0745C253.486 86.4417 259.539 91.2865 265.144 96.471C267.156 98.3338 267.261 101.455 265.377 103.445C263.491 105.437 260.333 105.542 258.324 103.678Z" fill="#EEC033"/>
<path d="M195.379 98.0626C197.984 98.9566 200.828 97.5932 201.731 95.0194C202.635 92.4466 201.256 89.6348 198.653 88.7388C184.783 83.978 170.272 81.5544 155.519 81.5347C152.762 81.5312 150.525 83.7389 150.521 86.4632C150.518 88.1423 151.362 89.6256 152.661 90.5217C153.466 91.0769 154.444 91.4029 155.504 91.4047C169.144 91.4223 182.559 93.6627 195.379 98.0626Z" fill="#EEC033"/>
<path d="M133.953 88.1541C134.516 90.8221 132.786 93.4357 130.087 93.9934C119.59 96.161 111.166 98.6697 100.171 104.269C91.9877 108.436 74.6579 120.93 74.6579 120.93C74.6579 120.93 70.3186 124.907 66.7879 121.726C63.2573 118.544 66.7879 113.968 66.7879 113.968C67.7331 112.792 84.9897 100.903 93.7384 96.3724C106.332 89.8498 114.222 87.1874 128.047 84.3326C130.744 83.7759 133.389 85.4864 133.953 88.1541Z" fill="#EEC033"/>
<path d="M218.208 41.3132C219.221 38.7791 222.12 37.5363 224.683 38.5382C238.262 43.8448 251.272 50.7577 263.349 59.0842C284.812 73.8827 302.592 92.4915 316.2 114.398C329.339 135.55 337.993 158.769 341.924 183.415C342.353 186.106 340.494 188.632 337.771 189.057C336.446 189.264 335.162 188.935 334.14 188.231C333.062 187.488 332.285 186.333 332.064 184.95C324.386 136.806 297.952 94.9735 257.64 67.1794C246.199 59.291 233.877 52.7438 221.015 47.7158C218.453 46.715 217.195 43.8476 218.208 41.3132Z" fill="#EEC033"/>
<path d="M43.9113 195.729C38.9471 198.758 35.9352 200.138 30.4983 202.228C21.4509 205.705 6.29187 207.808 6.29187 207.808C4.85846 208.139 3.42544 207.824 2.30259 207.05C1.3255 206.376 0.590528 205.361 0.298394 204.124C-0.327339 201.468 1.34192 198.815 4.02514 198.197C4.02514 198.197 19.2504 196.257 28.2318 192.616C33.2858 190.567 36.0713 189.195 40.6455 186.244C47.2655 181.972 51.6204 177.38 55.8328 173.011C57.5092 172.146 59.3186 171.847 61.0993 172.81C62.5883 173.615 63.2576 174.558 63.5073 175.491C63.7654 176.455 63.6406 177.496 63.1947 178.658C62.7322 179.864 61.6947 180.825 61.2053 181.31C56.2865 186.183 51.4291 191.142 43.9113 195.729Z" fill="#EEC033"/>
<path d="M127.987 256.713C127.987 254.767 127.987 252.612 127.987 250.249C127.987 247.747 127.987 244.62 127.987 240.866C127.987 236.974 127.987 231.97 127.987 225.854C127.987 221.545 127.987 217.097 127.987 212.509C127.987 207.783 127.987 202.918 127.987 197.914C127.987 192.771 127.987 187.35 127.987 181.651C127.987 175.951 127.987 169.904 127.987 163.51C127.987 155.309 128.193 148.707 128.606 143.702C129.157 138.698 130.121 134.875 131.498 132.234C132.875 129.454 134.802 127.578 137.28 126.605C139.896 125.632 143.201 125.145 147.193 125.145C149.396 125.145 151.392 125.145 153.182 125.145C155.11 125.145 157.038 125.145 158.965 125.145C160.893 125.145 163.164 125.145 165.78 125.145C168.534 125.145 171.907 125.145 175.9 125.145C184.023 125.145 191.389 126.327 197.998 128.69C204.606 130.914 210.389 134.111 215.345 138.281C220.439 142.451 224.708 147.455 228.149 153.294C231.592 159.132 234.139 165.665 235.791 172.893C237.581 179.982 238.476 187.628 238.476 195.829C238.476 206.115 236.892 215.637 233.726 224.394C230.697 233.013 226.291 240.519 220.508 246.913C214.863 253.307 208.117 258.242 200.269 261.717C192.421 265.192 183.679 266.93 174.041 266.93C171.288 266.93 168.534 266.93 165.78 266.93C163.164 266.93 160.548 266.93 157.932 266.93C154.49 266.93 151.874 266.026 150.084 264.219C148.295 262.273 147.4 260.049 147.4 257.547C147.4 255.045 148.295 252.89 150.084 251.083C151.874 249.137 154.49 248.164 157.932 248.164C160.824 248.164 163.508 248.164 165.987 248.164C168.465 248.164 171.15 248.164 174.041 248.164C181.2 248.164 187.603 246.913 193.247 244.411C198.893 241.77 203.642 238.156 207.497 233.569C211.49 228.843 214.519 223.282 216.584 216.888C218.787 210.494 219.889 203.474 219.889 195.829C219.889 188.184 218.994 181.234 217.204 174.978C215.414 168.584 212.729 163.093 209.15 158.506C205.57 153.919 201.026 150.374 195.519 147.872C190.012 145.231 183.472 143.911 175.9 143.911C171.907 143.911 168.534 143.911 165.78 143.911C163.026 143.911 160.411 143.911 157.932 143.911C155.592 143.911 152.769 143.911 149.465 143.911C148.639 143.911 147.951 144.258 147.4 144.953C146.987 145.509 146.712 146.413 146.574 147.664C146.436 148.776 146.367 150.166 146.367 151.834C146.367 153.502 146.367 155.309 146.367 157.255C146.505 159.201 146.574 161.286 146.574 163.51C146.574 169.21 146.574 175.256 146.574 181.651C146.574 188.045 146.574 194.925 146.574 202.293C146.574 209.521 146.574 217.375 146.574 225.854C146.574 232.665 146.574 237.878 146.574 241.492C146.574 245.106 146.574 248.025 146.574 250.249C146.574 252.334 146.574 254.489 146.574 256.713C146.574 260.188 145.61 262.829 143.682 264.636C141.893 266.443 139.758 267.347 137.28 267.347C134.802 267.347 132.599 266.443 130.672 264.636C128.882 262.829 127.987 260.188 127.987 256.713Z" fill="white"/>
<path d="M86.8237 257.001C86.8237 252.538 86.8237 248.481 86.8237 244.83C86.8237 241.178 86.8237 237.865 86.8237 234.89C86.8237 231.78 86.8237 228.94 86.8237 226.37C86.8237 219.879 86.8237 213.252 86.8237 206.49C86.8237 199.728 86.8237 192.966 86.8237 186.205C86.8237 179.308 86.8237 172.681 86.8237 166.325C86.8237 163.214 86.8237 160.171 86.8237 157.196C86.8237 154.086 86.8237 150.772 86.8237 147.256C86.8237 143.74 86.8237 139.751 86.8237 135.288C86.8237 131.907 87.9712 129.405 90.266 127.782C92.7373 126.024 95.5618 125.145 98.7392 125.145C101.917 125.145 104.653 126.024 106.948 127.782C109.419 129.405 110.655 131.907 110.655 135.288C110.655 139.751 110.655 143.74 110.655 147.256C110.655 150.772 110.655 154.086 110.655 157.196C110.655 160.171 110.655 163.214 110.655 166.325C110.655 172.681 110.655 179.308 110.655 186.205C110.655 192.966 110.655 199.728 110.655 206.49C110.655 213.252 110.655 219.879 110.655 226.37C110.655 228.94 110.655 231.78 110.655 234.89C110.655 237.865 110.655 241.178 110.655 244.83C110.655 248.481 110.655 252.538 110.655 257.001C110.655 260.517 109.419 263.155 106.948 264.912C104.653 266.535 101.917 267.347 98.7392 267.347C95.5618 267.347 92.7373 266.535 90.266 264.912C87.9712 263.155 86.8237 260.517 86.8237 257.001Z" fill="white"/>
</g>
<defs>
<clipPath id="clip0_647_142">
<rect width="349" height="371" fill="white"/>
</clipPath>
</defs>
</svg>
