<svg width="510" height="506" viewBox="0 0 510 506" fill="none" xmlns="http://www.w3.org/2000/svg">
<path d="M257.083 248.135L272.98 232.485C274.21 231.279 274.262 229.268 273.1 227.993C272.165 226.694 270.003 226.663 268.773 227.868L252.877 243.519C246.522 249.773 242.781 258.585 242.623 267.691L239.76 429.644C241.806 429.115 243.853 428.57 245.913 427.962L248.74 267.809C248.861 260.398 251.91 253.233 257.083 248.135Z" fill="#FD9F41" fill-opacity="0.1"/>
<path d="M76.333 333.326C76.4905 324.432 76.7146 310.555 76.9306 296.677C77.0954 286.191 77.26 275.714 77.4011 267.373C72.5717 288.661 71.4888 309.178 73.6851 328.007C74.2627 332.96 75.0546 337.798 76.0775 342.496C76.1131 339.632 76.1772 336.748 76.2044 333.901C76.2486 333.71 76.3284 333.534 76.333 333.326Z" fill="#FD9F41" fill-opacity="0.1"/>
<path d="M398.517 117.023C415.068 137.265 426.914 161.814 433.115 188.256C432.845 176.982 431.454 166.205 429.044 156.065C422.385 140.401 413.723 125.791 403.177 112.898C402.098 111.458 400.152 111.399 398.868 112.537C397.576 113.682 397.419 115.691 398.517 117.023Z" fill="#FD9F41" fill-opacity="0.1"/>
<path d="M389.873 102.739C391.029 101.453 391.038 99.4287 389.737 98.2416C380.065 88.8042 369.498 80.8006 358.33 74.142C349.191 70.7668 339.372 68.3608 329.008 67.031C349.603 74.7391 368.933 86.6535 385.553 102.877C386.785 104.091 388.721 104.022 389.873 102.739Z" fill="#FD9F41" fill-opacity="0.1"/>
<path d="M283.7 72.4522L304.479 75.7741C333.342 82.5208 360.515 98.5194 380.982 120.814C415.581 158.503 429.217 212.656 419.651 262.543C423.451 252.544 426.453 242.613 428.613 232.844C429.042 190.437 414.305 147.903 385.4 116.417C363.798 92.8855 336.281 76.6832 305.609 69.5231L289.988 67.0275C281.379 68.0598 272.583 69.7654 263.651 72.1994C270.346 71.8571 277.049 71.8725 283.7 72.4522Z" fill="#FD9F41" fill-opacity="0.1"/>
<path d="M98.155 220.734C98.5685 219.031 97.5757 217.294 95.9382 216.873C95.8587 216.854 95.7863 216.877 95.7107 216.863C93.7199 220.831 91.893 224.8 90.1744 228.75C88.2046 239.159 87.0951 249.706 86.8938 260.22L86.8896 260.224L86.8936 260.228L84.9355 369.346C86.7234 373.26 88.7066 377.012 90.8534 380.602L93.0107 260.346C93.2574 247.072 94.9962 233.747 98.155 220.734Z" fill="#FD9F41" fill-opacity="0.1"/>
<path d="M108.062 316.612C107.812 298.166 107.556 279.101 108.455 260.75C108.455 260.733 108.447 260.725 108.448 260.708C108.448 260.691 108.456 260.675 108.461 260.654C109.305 217.958 126.763 176.609 156.351 147.222L176.42 127.289C189 114.794 204.318 104.709 220.704 98.1383C222.285 97.5028 223.07 95.6591 222.466 94.0231C221.863 92.3954 220.083 91.5709 218.51 92.1984C213.057 94.3875 207.739 96.979 202.57 99.8776C192.997 106.013 183.444 113.014 173.989 120.99C173.393 121.558 172.777 122.104 172.193 122.685L152.124 142.617C121.387 173.145 103.242 216.079 102.342 260.424L102.338 260.437C102.337 260.47 102.337 260.495 102.34 260.524L102.336 260.528C101.433 279.054 101.696 298.194 101.941 316.693C102.284 341.956 102.596 368.036 100.07 393.766C101.32 395.28 102.594 396.762 103.921 398.182C103.984 398.25 104.043 398.314 104.109 398.378C104.167 398.45 104.226 398.514 104.288 398.582C104.312 398.607 104.339 398.629 104.359 398.65C105.237 398.176 105.903 397.319 106.02 396.212C108.782 369.54 108.42 342.631 108.062 316.612Z" fill="#FD9F41" fill-opacity="0.1"/>
<path d="M382.559 312.336C382.488 312.438 382.466 312.558 382.407 312.665C382.336 312.809 382.261 312.957 382.214 313.101C382.128 313.348 382.079 313.593 382.053 313.846C382.043 313.945 381.998 314.023 381.995 314.123L381.758 328.76C383.914 326.01 386.002 323.262 388.01 320.495L388.1 315.138C392.283 308.927 396.055 302.337 399.257 295.491C399.995 293.92 399.35 292.025 397.845 291.237C396.327 290.469 394.493 291.127 393.759 292.71C390.553 299.552 386.785 306.155 382.559 312.336Z" fill="#FD9F41" fill-opacity="0.1"/>
<path d="M410.578 234.762C408.889 234.667 407.449 236.017 407.366 237.774C406.756 249.954 404.641 262.019 401.081 273.658C400.732 274.81 401.041 276.006 401.786 276.818C402.13 277.192 402.563 277.485 403.067 277.651C404.682 278.185 406.393 277.257 406.91 275.59C410.625 263.439 412.836 250.832 413.466 238.112C413.565 236.347 412.263 234.861 410.578 234.762Z" fill="#FD9F41" fill-opacity="0.1"/>
<path d="M407.125 219.017C407.185 219.771 407.493 220.448 407.962 220.958C408.574 221.626 409.457 222.017 410.414 221.936C412.096 221.802 413.353 220.268 413.228 218.515C410.921 187.955 399.382 158.345 380.747 135.134C379.693 133.799 377.735 133.598 376.439 134.731C375.139 135.86 374.966 137.868 376.052 139.212C393.878 161.422 404.913 189.76 407.125 219.017Z" fill="#FD9F41" fill-opacity="0.1"/>
<path d="M234.042 90.26C234.174 90.8203 234.447 91.3133 234.806 91.7045C235.532 92.4952 236.642 92.8793 237.744 92.5981C282.898 81.1801 331.476 94.1586 364.519 126.484C365.748 127.686 367.684 127.624 368.839 126.347C369.995 125.069 370.047 123.091 368.707 121.853C334.181 88.0742 283.438 74.4992 236.298 86.4184C234.654 86.8322 233.649 88.5542 234.042 90.26Z" fill="#FD9F41" fill-opacity="0.1"/>
<path d="M119.538 339.495C117.849 339.417 116.423 340.784 116.348 342.541C115.474 364.306 114.757 386.15 114.1 408.017C116.023 409.634 118.023 411.167 120.085 412.655C120.77 389.322 121.531 366.019 122.463 342.8C122.537 341.06 121.227 339.565 119.538 339.495Z" fill="#FD9F41" fill-opacity="0.1"/>
<path d="M363.026 138.645C314.505 85.7915 233.697 83.8554 182.883 134.324L162.814 154.257C135.008 181.874 118.605 220.712 117.815 260.819L117.814 260.827L116.729 321.425C116.714 322.294 117.04 323.092 117.579 323.678C118.125 324.273 118.888 324.645 119.735 324.666C121.421 324.698 122.819 323.301 122.851 321.539L123.935 260.95C124.692 222.526 140.404 185.309 167.041 158.852L187.11 138.92C235.483 90.875 312.421 92.7222 358.607 143.034C400.208 188.35 403.836 257.23 367.244 306.822C367.157 306.941 367.13 307.073 367.064 307.188C366.98 307.336 366.893 307.487 366.833 307.644C366.744 307.895 366.703 308.14 366.673 308.397C366.662 308.505 366.617 308.591 366.61 308.695L365.99 347.259C368.12 344.957 370.194 342.645 372.212 340.324L372.71 309.772C410.447 257.759 406.476 185.976 363.026 138.645Z" fill="#FD9F41" fill-opacity="0.1"/>
<path d="M357.162 314.06C357.173 312.31 355.802 310.876 354.111 310.864C352.424 310.857 351.05 312.279 351.043 314.034C350.992 327.666 350.905 341.301 350.787 354.927C350.78 355.788 351.102 356.573 351.637 357.155C352.187 357.755 352.962 358.131 353.821 358.139C355.512 358.159 356.894 356.745 356.905 354.987C357.024 341.344 357.115 327.696 357.162 314.06Z" fill="#FD9F41" fill-opacity="0.1"/>
<path d="M356.716 294.558C355.844 295.822 355.99 297.522 356.989 298.61C357.114 298.746 357.263 298.883 357.416 298.999C358.789 300.026 360.699 299.697 361.69 298.274C382.169 268.668 388.182 230.233 377.766 195.461C377.26 193.778 375.541 192.851 373.931 193.378C372.32 193.896 371.421 195.683 371.92 197.358C381.771 230.237 376.084 266.568 356.716 294.558Z" fill="#FD9F41" fill-opacity="0.1"/>
<path d="M284.407 121.059C308.371 124.241 330.751 135.996 347.416 154.15C354.589 161.964 360.594 170.777 365.266 180.335C365.404 180.621 365.582 180.867 365.785 181.088C366.69 182.074 368.147 182.375 369.384 181.731C370.893 180.932 371.487 179.017 370.726 177.448C365.782 167.33 359.43 158.018 351.843 149.753C334.209 130.545 310.542 118.111 285.195 114.733C283.521 114.51 281.987 115.741 281.772 117.491C281.646 118.477 281.981 119.421 282.597 120.092C283.054 120.607 283.685 120.963 284.407 121.059Z" fill="#FD9F41" fill-opacity="0.1"/>
<path d="M224.38 131.338C236.682 125.093 250.353 121.301 263.9 120.379C265.586 120.266 266.862 118.754 266.757 116.997C266.648 115.244 265.195 113.916 263.506 114.025C249.17 114.999 234.715 119.009 221.697 125.615C220.181 126.381 219.547 128.286 220.292 129.872C220.433 130.179 220.615 130.437 220.83 130.67C221.723 131.652 223.151 131.965 224.38 131.338Z" fill="#FD9F41" fill-opacity="0.1"/>
<path d="M207.759 141.835C209.118 140.786 209.402 138.797 208.394 137.385C207.386 135.972 205.474 135.685 204.115 136.725C200.431 139.555 196.888 142.667 193.57 145.963L173.501 165.896C168.678 170.686 164.169 175.929 160.104 181.469C159.181 182.736 159.302 184.477 160.325 185.591C160.434 185.71 160.555 185.825 160.685 185.924C162.028 186.995 163.945 186.725 164.971 185.324C168.838 180.045 173.126 175.055 177.72 170.492L197.789 150.559C200.928 147.45 204.282 144.508 207.759 141.835Z" fill="#FD9F41" fill-opacity="0.1"/>
<path d="M154.604 201.982C155.409 200.442 154.853 198.508 153.381 197.662C151.892 196.824 150.037 197.399 149.227 198.934C139.225 218.069 133.707 239.577 133.277 261.121L133.273 261.125L133.277 261.129L130.446 419.304C132.42 420.416 134.439 421.474 136.503 422.48L139.402 261.255C139.806 240.722 145.065 220.226 154.604 201.982Z" fill="#FD9F41" fill-opacity="0.1"/>
<path d="M151.756 266.702C150.063 266.644 148.649 268.024 148.598 269.782L145.792 426.468C147.786 427.236 149.812 427.962 151.872 428.639L154.714 269.983C154.769 268.213 153.442 266.751 151.756 266.702Z" fill="#FD9F41" fill-opacity="0.1"/>
<path d="M365.606 249.005C365.92 247.27 364.834 245.61 363.17 245.279C361.511 244.952 359.906 246.09 359.596 247.812C356.38 265.401 348.466 281.576 336.69 294.573C336.567 294.711 336.507 294.885 336.408 295.032C336.304 295.2 336.177 295.359 336.101 295.54C335.991 295.812 335.952 296.102 335.918 296.388C335.903 296.5 335.854 296.59 335.851 296.698L334.542 377.855C336.612 376.058 338.687 374.25 340.747 372.357L341.951 297.972C354.067 284.247 362.252 267.363 365.606 249.005Z" fill="#FD9F41" fill-opacity="0.1"/>
<path d="M340.659 160.893L340.647 160.88C303.91 120.861 242.725 119.388 204.251 157.601L184.182 177.533C164.996 196.597 152.682 222.304 149.526 249.927C149.409 250.905 149.748 251.836 150.357 252.499C150.829 253.014 151.469 253.37 152.206 253.459C153.876 253.669 155.407 252.425 155.606 250.676C158.597 224.516 170.249 200.174 188.409 182.129L208.478 162.197C244.508 126.411 301.821 127.788 336.225 165.264C336.233 165.272 336.241 165.281 336.241 165.281C351.626 182.04 360.714 204.972 361.17 228.195C361.184 229.019 361.503 229.767 362.014 230.324C362.584 230.944 363.399 231.33 364.291 231.305C365.978 231.271 367.318 229.811 367.289 228.059C366.788 203.272 357.09 178.791 340.659 160.893Z" fill="#FD9F41" fill-opacity="0.1"/>
<path d="M323.45 299.074C321.761 299.021 320.347 300.401 320.296 302.158C319.436 331.695 318.807 361.328 318.258 390.939C320.326 389.404 322.395 387.862 324.458 386.236C324.991 358.25 325.604 330.25 326.411 302.351C326.458 300.589 325.132 299.118 323.45 299.074Z" fill="#FD9F41" fill-opacity="0.1"/>
<path d="M329.465 171.991L329.457 171.982C325.894 168.101 321.967 164.564 317.783 161.47C316.406 160.455 314.5 160.788 313.517 162.22C312.653 163.484 312.804 165.171 313.799 166.255C313.928 166.395 314.077 166.532 314.242 166.653C318.104 169.514 321.736 172.782 325.034 176.375L325.042 176.383C352.226 205.994 352.271 254.196 325.156 283.834C324.025 285.07 324.034 287.004 325.154 288.224C325.189 288.262 325.224 288.301 325.256 288.335C326.48 289.541 328.412 289.492 329.579 288.227C358.923 256.164 358.869 204.021 329.465 171.991Z" fill="#FD9F41" fill-opacity="0.1"/>
<path d="M199.083 193.772L219.152 173.839C239.867 153.265 270.617 146.798 297.487 157.376C299.068 158 300.83 157.17 301.43 155.525C302.03 153.881 301.243 152.053 299.654 151.42C270.592 139.987 237.336 146.976 214.933 169.235L194.865 189.168C175.928 207.976 164.76 234.421 164.218 261.724L164.218 261.732L161.178 431.29C163.186 431.783 165.215 432.231 167.276 432.638L170.331 261.854C170.844 236.238 181.32 211.415 199.083 193.772Z" fill="#FD9F41" fill-opacity="0.1"/>
<path d="M181.432 338.737C179.742 338.676 178.317 340.043 178.258 341.8C177.147 372.407 176.367 403.222 175.703 434.044C177.72 434.317 179.753 434.549 181.807 434.744C182.475 403.764 183.254 372.795 184.368 342.038C184.439 340.285 183.113 338.807 181.432 338.737Z" fill="#FD9F41" fill-opacity="0.1"/>
<path d="M306.799 363.319C305.116 363.35 303.761 364.793 303.789 366.553C303.964 377.945 304.034 389.376 304.06 400.819C306.104 399.496 308.141 398.114 310.183 396.712C310.148 386.604 310.064 376.511 309.912 366.446C309.87 364.699 308.495 363.294 306.799 363.319Z" fill="#FD9F41" fill-opacity="0.1"/>
<path d="M306.08 280.668C305.777 280.968 305.554 281.32 305.394 281.691C305.229 282.074 305.144 282.483 305.135 282.899L305.135 282.907L304.112 346.433C304.097 347.302 304.423 348.099 304.958 348.682C305.504 349.277 306.268 349.649 307.122 349.669C308.809 349.701 310.199 348.296 310.23 346.543L311.231 284.346L316.135 279.475C342.27 253.518 343.229 210.284 318.27 183.096L318.259 183.084C302.811 166.256 279.547 158.729 257.545 163.448C255.894 163.804 254.826 165.483 255.167 167.208C255.286 167.814 255.57 168.344 255.948 168.757C256.655 169.526 257.709 169.909 258.782 169.681C278.739 165.4 299.833 172.222 313.836 187.476L313.844 187.484C315.015 188.76 316.948 188.806 318.171 187.593C316.948 188.806 315.015 188.76 313.848 187.489C336.477 212.139 335.607 251.342 311.912 274.875L306.08 280.668Z" fill="#FD9F41" fill-opacity="0.1"/>
<path d="M241.198 176.624C242.661 175.741 243.168 173.798 242.322 172.281C241.489 170.736 239.605 170.233 238.151 171.109C233.63 173.819 229.416 177.102 225.619 180.873L205.55 200.806C200.629 205.702 196.285 211.236 192.629 217.28C191.87 218.539 192.058 220.14 193.003 221.169C193.174 221.356 193.371 221.518 193.595 221.661C195.021 222.602 196.914 222.152 197.814 220.665C201.196 215.071 205.224 209.933 209.773 205.406L229.842 185.473C233.275 182.055 237.107 179.079 241.198 176.624Z" fill="#FD9F41" fill-opacity="0.1"/>
<path d="M187.809 234.411C186.202 233.861 184.471 234.767 183.943 236.43C181.292 244.736 179.858 253.346 179.681 262.023L179.681 262.031L178.596 322.629C178.58 323.497 178.907 324.295 179.445 324.882C179.992 325.477 180.755 325.849 181.602 325.869C183.288 325.901 184.686 324.504 184.717 322.742L185.802 262.153C185.964 254.116 187.293 246.14 189.75 238.432C190.279 236.77 189.403 234.981 187.809 234.411Z" fill="#FD9F41" fill-opacity="0.1"/>
<path d="M305.452 267.84C325.418 248.009 326.143 214.981 307.082 194.217C288.016 173.449 256.267 172.69 236.305 192.517L216.236 212.45C203.214 225.384 195.527 243.568 195.159 262.335C195.154 262.381 195.181 262.419 195.176 262.465C195.179 262.51 195.158 262.547 195.161 262.593C197.004 294.81 195.513 327.965 194.07 360.024C193.006 383.635 191.909 408.052 192.116 432.188C192.118 433.032 192.445 433.788 192.964 434.354C193.53 434.97 194.325 435.343 195.204 435.339C196.895 435.326 198.25 433.89 198.237 432.131C198.034 408.17 199.129 383.852 200.187 360.32C201.636 328.166 203.13 294.911 201.284 262.428C201.631 245.357 208.622 228.823 220.467 217.058L240.535 197.126C258.062 179.718 285.936 180.392 302.667 198.618C319.403 216.848 318.763 245.841 301.237 263.248L290.736 273.677L290.732 273.681C290.43 273.982 290.202 274.338 290.046 274.704C289.886 275.083 289.797 275.497 289.787 275.912L289.787 275.921L287.613 410.628C289.672 409.509 291.729 408.32 293.782 407.126L295.879 277.364L305.46 267.848L305.452 267.84Z" fill="#FD9F41" fill-opacity="0.1"/>
<path d="M213.564 269.821C211.878 269.781 210.472 271.169 210.433 272.931C209.188 327.039 208.228 381.311 207.36 435.004C209.393 434.87 211.432 434.682 213.491 434.465C214.355 380.98 215.31 326.949 216.554 273.078C216.593 271.324 215.254 269.866 213.564 269.821Z" fill="#FD9F41" fill-opacity="0.1"/>
<path d="M275.857 372.827C274.168 372.766 272.75 374.141 272.687 375.894C272.197 390.085 271.841 404.304 271.529 418.52C273.592 417.609 275.657 416.632 277.729 415.638C278.026 402.453 278.35 389.272 278.806 376.124C278.865 374.367 277.547 372.888 275.857 372.827Z" fill="#FD9F41" fill-opacity="0.1"/>
<path d="M305.447 231.001C305.482 229.251 304.151 227.785 302.457 227.744C300.767 227.699 299.365 229.092 299.326 230.854C299.149 238.654 295.947 246.223 290.54 251.594L276.937 265.104C275.351 266.679 274.419 268.889 274.38 271.171L273.011 355.914C272.991 356.787 273.322 357.58 273.86 358.167C274.407 358.762 275.17 359.134 276.021 359.15C277.703 359.187 279.101 357.781 279.128 356.023L280.497 271.28C280.51 270.699 280.755 270.106 281.164 269.7L294.767 256.19C301.335 249.666 305.232 240.488 305.447 231.001Z" fill="#FD9F41" fill-opacity="0.1"/>
<path d="M291.469 209.715C292.636 210.986 294.569 211.033 295.792 209.819C297.014 208.605 297.058 206.594 295.891 205.322C282.719 190.974 260.782 190.451 246.987 204.152L226.919 224.085C219.189 231.77 213.756 242.059 211.63 253.055C211.426 254.11 211.755 255.149 212.423 255.876C212.84 256.331 213.392 256.668 214.033 256.796C215.688 257.144 217.304 256.026 217.638 254.305C219.517 244.571 224.316 235.473 231.146 228.681L251.214 208.748C262.565 197.475 280.627 197.904 291.469 209.715Z" fill="#FD9F41" fill-opacity="0.1"/>
<path d="M227.735 345.09C226.046 345.021 224.624 346.392 224.557 348.149C223.481 376.487 222.782 404.913 222.192 433.305C224.233 432.984 226.276 432.646 228.331 432.255C228.911 404.295 229.613 376.298 230.672 348.4C230.739 346.643 229.416 345.16 227.735 345.09Z" fill="#FD9F41" fill-opacity="0.1"/>
<path d="M265.026 271.02C265.106 266.153 267.094 261.432 270.478 258.071L284.081 244.56C291.708 236.985 291.988 224.369 284.705 216.436C277.426 208.507 265.297 208.216 257.67 215.791L237.601 235.723C230.489 242.787 226.292 252.702 226.085 262.929L226.085 262.938L224.891 329.674C224.872 330.546 225.202 331.34 225.741 331.927C226.283 332.518 227.046 332.889 227.893 332.91C229.583 332.946 230.978 331.545 231.013 329.787L232.202 263.055C232.368 254.511 235.873 246.226 241.82 240.319L261.889 220.387C267.08 215.231 275.322 215.433 280.274 220.828C285.231 226.227 285.045 234.8 279.854 239.956L266.251 253.466C261.694 257.993 259.014 264.352 258.909 270.902L256.608 413.847C256.593 414.716 256.919 415.514 257.453 416.096C258 416.691 258.763 417.063 259.618 417.084C261.304 417.116 262.694 415.71 262.725 413.957L265.026 271.02Z" fill="#FD9F41" fill-opacity="0.1"/>
</svg>
