<svg width="115" height="120" viewBox="0 0 115 120" fill="none" xmlns="http://www.w3.org/2000/svg">
<g clip-path="url(#clip0_645_78)">
<path d="M2.34505 95.4338L17.751 91.7834C18.7223 91.558 19.5705 91.2301 20.6316 91.0171C21.0917 90.9247 21.6759 90.6508 21.9525 90.1161C22.1958 89.6459 22.3098 89.0329 21.9525 88.5217C21.6889 88.1447 21.5399 88.0589 21.0971 87.9289C20.5732 87.7751 20.037 87.8226 19.5325 87.9289C18.4329 88.1608 16.4585 88.8003 15.6065 88.9979L1.59813 92.2471C0.713678 92.4523 0.163787 93.3319 0.369962 94.2123C0.575962 95.0918 1.4601 95.6388 2.34505 95.4338Z" fill="#989898" fill-opacity="0.6"/>
<path d="M4.27785 85.4474L14.2366 83.1373C15.585 82.8246 18.292 82.0416 19.5969 81.5807C20.0492 81.4172 20.5911 81.074 20.9313 80.7354C21.1783 80.4896 21.4941 79.5674 21.2717 79.0427C20.9585 78.3042 20.1636 78.2157 19.3401 78.3114C19.1272 78.3362 18.9131 78.3754 18.7054 78.4223C17.4629 78.8708 14.7908 79.6489 13.4898 79.9506L3.53075 82.2607C2.64633 82.4659 2.09645 83.3454 2.30255 84.2258C2.50871 85.1053 3.39299 85.652 4.27785 85.4474Z" fill="#989898" fill-opacity="0.6"/>
<path d="M3.15276 76.1724L12.1198 74.0924C13.7284 73.7194 16.4421 72.9681 18.1794 72.1613C18.8712 71.84 19.5701 71.5951 19.9103 71.2566C20.3895 70.7799 20.5254 70.1801 20.2506 69.5639C20.0541 69.1231 19.6116 68.8142 19.324 68.7423C19.0256 68.6677 18.6574 68.6807 18.2591 68.7498C17.8515 68.8205 16.0468 69.3442 15.6875 69.4666C14.3082 70.0765 12.8647 70.5598 11.3729 70.9057L2.40575 72.9857C1.52131 73.1909 0.971407 74.0705 1.17758 74.9509C1.38354 75.8302 2.26818 76.3772 3.15276 76.1724Z" fill="#989898" fill-opacity="0.6"/>
<path fill-rule="evenodd" clip-rule="evenodd" d="M32.2812 12.1219C31.9902 11.92 31.7631 11.6243 31.6509 11.2605C31.3845 10.3969 31.8724 9.48173 32.7412 9.21648C43.0421 6.07327 54.0234 5.61933 64.4959 7.90289C65.3822 8.09554 65.9442 8.9683 65.7497 9.85127C65.5553 10.7337 64.6784 11.2923 63.7911 11.0989C53.8688 8.93548 43.4657 9.36637 33.7051 12.345C33.2026 12.4983 32.6831 12.4007 32.2812 12.1219Z" fill="#989898" fill-opacity="0.6"/>
<path d="M90.1844 12.6548C81.6777 6.75368 72.1997 2.93616 62.0168 1.3107C61.7637 1.27052 61.534 1.17493 61.3378 1.03879C60.8352 0.690143 60.5505 0.0761218 60.6539 -0.563665C60.7977 -1.45573 61.6413 -2.06291 62.5382 -1.91977C73.2142 -0.21565 83.1474 3.78443 92.0657 9.971C96.7116 13.1939 100.958 16.9483 104.687 21.1291C105.29 21.8051 105.228 22.8392 104.548 23.4389C103.869 24.0381 102.83 23.9761 102.227 23.3009C98.6692 19.312 94.6174 15.7301 90.1844 12.6548Z" fill="#989898" fill-opacity="0.6"/>
<path d="M91.5024 36.9071C92.2352 36.3731 93.2645 36.5315 93.8007 37.2601C97.0503 41.673 99.5814 46.5565 101.324 51.7742C101.611 52.6316 101.144 53.5579 100.282 53.8425C99.7701 54.0118 99.234 53.9171 98.8215 53.631C98.5408 53.4363 98.3192 53.1541 98.2028 52.8058C96.5685 47.9116 94.1946 43.3317 91.1476 39.1932C90.6108 38.4647 90.7697 37.441 91.5024 36.9071Z" fill="#989898" fill-opacity="0.6"/>
<path d="M7.87751 56.0028C9.9612 55.5192 11.7822 54.2917 13.006 52.5456L17.9576 45.4814C18.1787 45.1662 18.6327 44.5468 18.6327 44.5468C18.6327 44.5468 18.7722 44.2606 18.8274 44.1109C18.9644 43.7394 19.0155 43.3805 18.9305 43.061C18.8482 42.7517 18.6276 42.4391 18.137 42.1721C17.803 41.9905 17.5136 41.9334 17.262 41.9467C17.0091 41.96 16.7762 42.0458 16.5586 42.1775C16.2796 42.3467 16.0414 42.5802 15.8322 42.8126C15.6386 43.0758 15.4479 43.3416 15.2599 43.6099L10.3082 50.6742C9.55003 51.7559 8.42121 52.5166 7.13087 52.8159L3.203 53.7268C2.31851 53.932 1.76872 54.8116 1.97498 55.6917C2.07082 56.1015 2.31316 56.4384 2.63524 56.6619C3.00529 56.9186 3.47715 57.0233 3.94977 56.9137L7.87751 56.0028Z" fill="#989898" fill-opacity="0.6"/>
<path fill-rule="evenodd" clip-rule="evenodd" d="M75.1205 103.802C73.0373 106.234 70.7835 108.565 68.4206 110.728C67.7523 111.34 67.709 112.374 68.3241 113.039C68.4698 113.196 68.6378 113.318 68.8188 113.405C69.4092 113.688 70.1377 113.602 70.6481 113.135C73.1083 110.883 75.4554 108.456 77.6246 105.923C78.2132 105.236 78.1302 104.203 77.4393 103.617C76.7465 103.032 75.7094 103.115 75.1205 103.802Z" fill="#989898" fill-opacity="0.6"/>
<path d="M16.9397 98.8614L3.34436 101.944C2.45916 102.144 1.90456 103.021 2.10641 103.902C2.20097 104.316 2.44422 104.655 2.76853 104.88C3.13638 105.135 3.60478 105.24 4.07512 105.134L17.6703 102.051C24.5962 100.481 31.0718 97.6307 36.8017 93.6976C37.2394 93.3972 37.6591 92.9324 37.8553 92.4427C37.9704 92.1553 38.0633 91.7099 37.7227 91.2561C37.4632 90.9103 37.0773 90.7896 36.7256 90.7692C36.354 90.7476 35.9196 90.8256 35.4739 90.961C34.8237 91.1584 34.3907 91.4051 33.747 91.7835C27.9159 95.2113 22.1858 97.6721 16.9397 98.8614Z" fill="#989898" fill-opacity="0.6"/>
<path d="M19.0177 107.915L7.54676 110.516C6.66137 110.716 6.1067 111.594 6.30855 112.475C6.40311 112.888 6.64637 113.227 6.97066 113.452C7.33852 113.708 7.80692 113.813 8.27727 113.706L19.7485 111.105C31.2455 108.499 41.6809 102.873 50.0652 94.8915C50.3167 94.5311 50.5231 94.1798 50.6426 93.8442C50.7082 93.6597 50.7942 93.3534 50.7271 93.0479C50.7271 93.0479 50.772 93.2542 50.7269 93.0468C50.6818 92.8394 50.5561 92.6279 50.3546 92.4321C49.7689 91.8623 48.6834 92.3383 48.2594 92.5308C47.9256 92.6822 47.3971 93.1017 47.3971 93.1017C47.3971 93.1017 45.3856 94.7125 44.5073 95.4359C37.175 101.475 28.4745 105.771 19.0177 107.915Z" fill="#989898" fill-opacity="0.6"/>
<path d="M17.9206 117.691L21.0952 116.971C29.1008 115.156 35.4572 112.754 43.4213 107.697C49.8752 103.598 58.3186 95.0159 58.3186 95.0159L60.5322 92.6833C60.5322 92.6833 61.6945 91.3391 62.5049 91.1242C63.1253 90.9596 63.6455 91.2658 63.8829 91.446C64.057 91.5781 64.2273 91.7827 64.3298 92.061C64.5744 92.7256 64.0624 93.2464 63.6977 93.7609C62.8081 95.0159 54.0953 104.671 45.8067 110.06C37.2936 115.595 30.4472 118.206 21.8257 120.16L18.6513 120.881C18.181 120.987 17.7126 120.882 17.3447 120.627C17.0207 120.403 16.7773 120.062 16.6826 119.65C16.4808 118.768 17.035 117.892 17.9206 117.691Z" fill="#989898" fill-opacity="0.6"/>
<path d="M57.2887 109.019C57.9796 108.434 59.0166 108.516 59.6073 109.203C60.1961 109.89 60.1133 110.923 59.4226 111.509C56.877 113.668 54.1728 115.693 51.3846 117.529C50.8061 117.909 50.0731 117.879 49.5354 117.507C49.3706 117.392 49.2241 117.246 49.1054 117.067C48.6041 116.314 48.8116 115.299 49.5691 114.8L57.2887 109.019Z" fill="#989898" fill-opacity="0.6"/>
<path d="M75.0016 89.3884L68.5869 96.478C66.1357 99.187 63.478 101.749 60.6869 104.092C59.9927 104.675 59.9051 105.707 60.4908 106.398C60.5404 106.456 60.5935 106.51 60.6492 106.56C61.2498 107.098 62.1733 107.125 62.8082 106.592C65.7135 104.153 68.4804 101.486 71.0316 98.6668C71.0316 98.6668 75.1787 94.3892 77.4395 91.42C80.1618 87.8446 82.7814 82.9506 83.444 81.764C83.6649 81.3685 83.9741 80.0501 83.0464 79.6546C82.2157 79.3004 81.2584 79.8336 80.926 80.5774C79.8658 82.9506 75.3854 88.9643 75.0016 89.3884Z" fill="#989898" fill-opacity="0.6"/>
<path d="M103.566 61.4218C104.568 68.812 104.017 76.1639 101.927 83.2764C101.673 84.1434 100.759 84.641 99.8877 84.3875C99.7106 84.3361 99.5498 84.2581 99.4078 84.1596C98.8441 83.7686 98.5675 83.0498 98.7705 82.3586C99.3374 80.4289 99.7835 78.4801 100.108 76.5169C100.907 71.6945 100.974 66.7855 100.306 61.8596C100.185 60.9641 100.816 60.1403 101.716 60.0193C102.616 59.8984 103.444 60.5262 103.566 61.4218Z" fill="#989898" fill-opacity="0.6"/>
<path d="M71.745 32.0259C72.2226 31.2578 73.236 31.02 74.0085 31.4953C74.6941 31.917 75.3779 32.3642 76.0413 32.8243C95.7868 46.522 100.65 73.6484 86.8805 93.2916L81.3962 101.116C80.8766 101.857 79.8517 102.039 79.1067 101.522C78.3617 101.005 78.1788 99.9854 78.6984 99.2441L84.1828 91.4199C96.9151 73.2553 92.4188 48.174 74.16 35.5078C73.5462 35.082 72.9135 34.6682 72.2788 34.2778L72.2769 34.2767C71.5049 33.8062 71.2662 32.7966 71.745 32.0259Z" fill="#989898" fill-opacity="0.6"/>
<path d="M111.826 37.2675C110.707 35.0993 109.456 32.9692 108.109 30.9361C107.609 30.182 107.818 29.1669 108.576 28.6695C109.334 28.1725 110.354 28.3807 110.854 29.1352C112.267 31.2665 113.578 33.4998 114.752 35.7722C115.166 36.5759 114.848 37.562 114.04 37.9751C113.48 38.2614 112.831 38.1974 112.346 37.8612C112.134 37.7138 111.953 37.514 111.826 37.2675Z" fill="#989898" fill-opacity="0.6"/>
<path d="M85.066 32.3728L85.0655 32.3722C83.3332 30.7598 81.462 29.2533 79.5033 27.8944C79.1429 27.6445 78.7798 27.3995 78.4142 27.1598C70.7324 22.1223 61.9192 19.3516 52.8498 19.0479C52.1985 19.0261 51.5458 19.017 50.8922 19.0207C48.4005 19.0348 45.8943 19.2349 43.3915 19.6251C30.6941 21.6045 19.4153 28.2568 11.6364 38.3566C11.0994 39.0536 10.1086 39.2015 9.3918 38.7043C9.36957 38.6888 9.35071 38.6752 9.33388 38.6621L9.33066 38.6597C8.61003 38.1105 8.47331 37.0835 9.02581 36.3663C17.321 25.5968 29.3435 18.5037 42.8824 16.3927C43.1931 16.3442 43.504 16.2985 43.8148 16.2556C43.8697 16.248 43.9245 16.2405 43.9792 16.2331C57.1972 14.4473 70.4382 17.6171 81.3845 25.2106C83.4718 26.6585 85.4664 28.2647 87.3131 29.9836C87.9763 30.6011 88.0107 31.636 87.39 32.2956C86.7688 32.956 85.7282 32.9908 85.066 32.3728Z" fill="#989898" fill-opacity="0.6"/>
<path d="M64.3249 30.5114C65.1829 30.8077 66.1201 30.3557 66.4178 29.5024C66.7154 28.6495 66.261 27.7172 65.4034 27.4202C60.8331 25.8418 56.0515 25.0383 51.19 25.0317C50.2817 25.0306 49.5445 25.7625 49.5435 26.6657C49.5424 27.2224 49.8203 27.7142 50.2484 28.0113C50.5137 28.1953 50.8361 28.3034 51.1855 28.304C55.6798 28.3098 60.1005 29.0526 64.3249 30.5114Z" fill="#989898" fill-opacity="0.6"/>
<path d="M44.0837 27.2261C44.2694 28.1107 43.6992 28.9771 42.8102 29.1621C39.3513 29.8807 36.5754 30.7124 32.9523 32.5686C30.2558 33.9502 24.5454 38.0927 24.5454 38.0927C24.5454 38.0927 23.1155 39.411 21.9521 38.3564C20.7887 37.3016 21.9521 35.7843 21.9521 35.7843C22.2637 35.3945 27.9498 31.4529 30.8326 29.9508C34.9827 27.7883 37.5823 26.9056 42.1378 25.9592C43.0267 25.7746 43.8981 26.3417 44.0837 27.2261Z" fill="#989898" fill-opacity="0.6"/>
<path d="M71.8474 11.6968C72.1812 10.8567 73.1366 10.4447 73.981 10.7768C78.4556 12.5362 82.7425 14.828 86.722 17.5886C93.7944 22.4948 99.653 28.6643 104.137 35.9273C108.467 42.9397 111.318 50.6378 112.613 58.8088C112.755 59.7009 112.142 60.5385 111.245 60.6794C110.808 60.748 110.385 60.639 110.049 60.4053C109.693 60.159 109.437 59.7762 109.365 59.3178C106.835 43.3563 98.1241 29.4872 84.8407 20.2724C81.0707 17.6572 77.0105 15.4865 72.7725 13.8196C71.9281 13.4877 71.5137 12.5371 71.8474 11.6968Z" fill="#989898" fill-opacity="0.6"/>
<path d="M14.4143 62.8913C12.7786 63.8956 11.786 64.3532 9.99455 65.046C7.01332 66.1988 2.01822 66.8961 2.01822 66.8961C1.54591 67.0058 1.0737 66.9011 0.703709 66.6445C0.381744 66.4211 0.139561 66.0847 0.0432985 65.6745C-0.162889 64.7941 0.387155 63.9146 1.27132 63.7096C1.27132 63.7096 6.28825 63.0663 9.24772 61.8593C10.9131 61.18 11.8309 60.7252 13.3381 59.7466C15.5196 58.3303 16.9545 56.808 18.3427 55.3594C18.895 55.0727 19.4913 54.9736 20.0779 55.2928C20.5686 55.5597 20.7891 55.8724 20.8715 56.1817C20.9565 56.5011 20.9153 56.8464 20.7685 57.2316C20.616 57.6313 20.2743 57.9501 20.1129 58.1109C18.4922 59.7264 16.8916 61.3704 14.4143 62.8913Z" fill="#989898" fill-opacity="0.6"/>
<path d="M42.1182 83.1098C42.1182 82.4646 42.1182 81.7502 42.1182 80.9669C42.1182 80.1374 42.1182 79.1004 42.1182 77.8561C42.1182 76.5657 42.1182 74.9067 42.1182 72.879C42.1182 71.4503 42.1182 69.9756 42.1182 68.4547C42.1182 66.8879 42.1182 65.2749 42.1182 63.6158C42.1182 61.9106 42.1182 60.1133 42.1182 58.2239C42.1182 56.3344 42.1182 54.3296 42.1182 52.2097C42.1182 49.4907 42.1862 47.3017 42.3224 45.6426C42.5038 43.9835 42.8214 42.7162 43.275 41.8406C43.7287 40.9189 44.3639 40.2968 45.1805 39.9742C46.0425 39.6516 47.1313 39.4902 48.447 39.4902C49.1729 39.4902 49.8307 39.4902 50.4204 39.4902C51.0557 39.4902 51.6908 39.4902 52.3259 39.4902C52.961 39.4902 53.7096 39.4902 54.5716 39.4902C55.4789 39.4902 56.5905 39.4902 57.9061 39.4902C60.5828 39.4902 63.0099 39.882 65.1876 40.6654C67.3653 41.4027 69.2707 42.4628 70.9039 43.8453C72.5826 45.2279 73.9889 46.8869 75.1232 48.8225C76.2573 50.7581 77.0966 52.9241 77.641 55.3205C78.2308 57.6708 78.5256 60.2055 78.5256 62.9245C78.5256 66.3348 78.004 69.4916 76.9605 72.395C75.9624 75.2523 74.5106 77.7409 72.6052 79.8608C70.7451 81.9807 68.5221 83.6167 65.9362 84.7688C63.3503 85.921 60.4693 86.4971 57.2936 86.4971C56.3863 86.4971 55.4789 86.4971 54.5716 86.4971C53.7096 86.4971 52.8477 86.4971 51.9857 86.4971C50.8515 86.4971 49.9894 86.1975 49.3997 85.5984C48.81 84.9533 48.5151 84.2158 48.5151 83.3863C48.5151 82.5568 48.81 81.8425 49.3997 81.2433C49.9894 80.5981 50.8515 80.2755 51.9857 80.2755C52.9384 80.2755 53.823 80.2755 54.6396 80.2755C55.4563 80.2755 56.341 80.2755 57.2936 80.2755C59.6528 80.2755 61.7623 79.8608 63.6225 79.0313C65.4825 78.1556 67.0476 76.9574 68.318 75.4367C69.6337 73.8697 70.6318 72.0264 71.3122 69.9064C72.0381 67.7865 72.401 65.4592 72.401 62.9245C72.401 60.3899 72.1061 58.0856 71.5163 56.0118C70.9267 53.8918 70.042 52.0714 68.8624 50.5507C67.6829 49.0299 66.1857 47.8547 64.371 47.0252C62.5562 46.1495 60.4013 45.7117 57.9061 45.7117C56.5905 45.7117 55.4789 45.7117 54.5716 45.7117C53.6643 45.7117 52.8023 45.7117 51.9857 45.7117C51.2143 45.7117 50.2843 45.7117 49.1955 45.7117C48.9233 45.7117 48.6965 45.8269 48.5151 46.0574C48.379 46.2417 48.2882 46.5412 48.2429 46.956C48.1974 47.3247 48.1748 47.7856 48.1748 48.3385C48.1748 48.8916 48.1748 49.4907 48.1748 50.1359C48.2202 50.7811 48.2429 51.4724 48.2429 52.2097C48.2429 54.0993 48.2429 56.104 48.2429 58.2239C48.2429 60.3438 48.2429 62.625 48.2429 65.0675C48.2429 67.4639 48.2429 70.0677 48.2429 72.879C48.2429 75.137 48.2429 76.8652 48.2429 78.0635C48.2429 79.2617 48.2429 80.2295 48.2429 80.9669C48.2429 81.6581 48.2429 82.3725 48.2429 83.1098C48.2429 84.2619 47.9253 85.1376 47.2901 85.7366C46.7003 86.3357 45.9972 86.6353 45.1805 86.6353C44.3639 86.6353 43.638 86.3357 43.0029 85.7366C42.4131 85.1376 42.1182 84.2619 42.1182 83.1098Z" fill="black" fill-opacity="0.4"/>
<path d="M28.5547 83.2054C28.5547 81.7258 28.5547 80.3807 28.5547 79.1702C28.5547 77.9595 28.5547 76.861 28.5547 75.8747C28.5547 74.8435 28.5547 73.9019 28.5547 73.05C28.5547 70.8979 28.5547 68.7009 28.5547 66.4591C28.5547 64.2173 28.5547 61.9755 28.5547 59.7337C28.5547 57.4471 28.5547 55.2501 28.5547 53.1428C28.5547 52.1115 28.5547 51.1027 28.5547 50.1164C28.5547 49.0852 28.5547 47.9867 28.5547 46.8209C28.5547 45.6552 28.5547 44.3326 28.5547 42.853C28.5547 41.7321 28.9328 40.9026 29.689 40.3645C30.5033 39.7817 31.434 39.4902 32.481 39.4902C33.528 39.4902 34.4296 39.7817 35.1858 40.3645C36.0001 40.9026 36.4073 41.7321 36.4073 42.853C36.4073 44.3326 36.4073 45.6552 36.4073 46.8209C36.4073 47.9867 36.4073 49.0852 36.4073 50.1164C36.4073 51.1027 36.4073 52.1115 36.4073 53.1428C36.4073 55.2501 36.4073 57.4471 36.4073 59.7337C36.4073 61.9755 36.4073 64.2173 36.4073 66.4591C36.4073 68.7009 36.4073 70.8979 36.4073 73.05C36.4073 73.9019 36.4073 74.8435 36.4073 75.8747C36.4073 76.861 36.4073 77.9595 36.4073 79.1702C36.4073 80.3807 36.4073 81.7258 36.4073 83.2054C36.4073 84.3711 36.0001 85.2454 35.1858 85.8282C34.4296 86.3663 33.528 86.6353 32.481 86.6353C31.434 86.6353 30.5033 86.3663 29.689 85.8282C28.9328 85.2454 28.5547 84.3711 28.5547 83.2054Z" fill="black" fill-opacity="0.4"/>
</g>
<defs>
<clipPath id="clip0_645_78">
<rect width="115" height="123" fill="white" transform="translate(0 -2)"/>
</clipPath>
</defs>
</svg>
