<svg width="200" height="62" viewBox="0 0 200 62" fill="none" xmlns="http://www.w3.org/2000/svg">
<g clip-path="url(#clip0_100_3445)">
<path d="M1.13942 49.0516L8.62505 47.2405C9.09701 47.1287 9.50911 46.966 10.0247 46.8603C10.2483 46.8144 10.5322 46.6785 10.6666 46.4132C10.7847 46.1799 10.8402 45.8759 10.6666 45.6223C10.5385 45.4351 10.4661 45.3926 10.2509 45.3281C9.99631 45.2518 9.7358 45.2753 9.49068 45.3281C8.95637 45.4432 7.99705 45.7604 7.58308 45.8584L0.776488 47.4705C0.346741 47.5723 0.0795524 48.0088 0.179731 48.4455C0.279826 48.8819 0.709421 49.1533 1.13942 49.0516Z" fill="#EEC033"/>
<path d="M2.07846 44.0968L6.91735 42.9507C7.57258 42.7955 8.88787 42.407 9.5219 42.1783C9.74167 42.0971 10.005 41.9269 10.1703 41.759C10.2903 41.637 10.4437 41.1795 10.3356 40.9191C10.1835 40.5527 9.79723 40.5087 9.39709 40.5562C9.29365 40.5686 9.18959 40.5881 9.08874 40.6113C8.48499 40.8338 7.18662 41.2198 6.55446 41.3695L1.71545 42.5158C1.28572 42.6175 1.01854 43.0539 1.11869 43.4907C1.21886 43.927 1.64852 44.1984 2.07846 44.0968Z" fill="#EEC033"/>
<path d="M1.53203 39.4947L5.88903 38.4627C6.67065 38.2776 7.98927 37.9048 8.83335 37.5045C9.16955 37.3451 9.50909 37.2237 9.67443 37.0557C9.90725 36.8192 9.97328 36.5216 9.83978 36.2159C9.74428 35.9972 9.52924 35.8439 9.38954 35.8082C9.24456 35.7713 9.06561 35.7776 8.87206 35.812C8.67404 35.847 7.79715 36.1069 7.62253 36.1676C6.95238 36.4702 6.25099 36.71 5.52613 36.8817L1.16907 37.9136C0.739321 38.0154 0.472131 38.4519 0.572309 38.8886C0.672381 39.3248 1.10222 39.5963 1.53203 39.4947Z" fill="#EEC033"/>
<path fill-rule="evenodd" clip-rule="evenodd" d="M15.6854 7.71646C15.544 7.61627 15.4336 7.46957 15.3791 7.28901C15.2497 6.86059 15.4867 6.40651 15.9089 6.27491C20.914 4.71542 26.2497 4.49019 31.3382 5.62317C31.7689 5.71876 32.0419 6.15178 31.9475 6.58984C31.853 7.02767 31.427 7.30484 30.9958 7.20887C26.1746 6.13549 21.1198 6.34928 16.3773 7.8271C16.1331 7.90319 15.8806 7.85475 15.6854 7.71646Z" fill="#EEC033"/>
<path d="M43.8199 7.98082C39.6865 5.05295 35.0812 3.15889 30.1334 2.35243C30.0104 2.33249 29.8988 2.28506 29.8035 2.21751C29.5593 2.04454 29.421 1.73989 29.4712 1.42246C29.5411 0.979864 29.951 0.678611 30.3867 0.749629C35.5742 1.59513 40.4006 3.57976 44.7339 6.64922C46.9914 8.24827 49.0548 10.111 50.8665 12.1853C51.1594 12.5207 51.1292 13.0338 50.7991 13.3313C50.4692 13.6286 49.9642 13.5977 49.6712 13.2628C47.9425 11.2837 45.9738 9.50659 43.8199 7.98082Z" fill="#EEC033"/>
<path d="M44.4602 20.0134C44.8163 19.7484 45.3164 19.827 45.5769 20.1885C47.1558 22.378 48.3857 24.8009 49.2326 27.3897C49.3717 27.8151 49.1449 28.2747 48.7262 28.4159C48.4774 28.4998 48.2169 28.4528 48.0165 28.3109C47.8801 28.2143 47.7724 28.0743 47.7158 27.9015C46.9218 25.4733 45.7684 23.201 44.2878 21.1476C44.0271 20.7861 44.1042 20.2783 44.4602 20.0134Z" fill="#EEC033"/>
<path d="M3.82753 29.4876C4.83998 29.2477 5.72479 28.6386 6.31944 27.7724L8.72542 24.2674C8.83279 24.111 9.05344 23.8037 9.05344 23.8037C9.05344 23.8037 9.12121 23.6617 9.14804 23.5874C9.21461 23.4032 9.23941 23.2251 9.19809 23.0666C9.1581 22.9131 9.05092 22.758 8.81253 22.6255C8.65029 22.5355 8.50962 22.507 8.38742 22.5136C8.2645 22.5203 8.15131 22.5628 8.04566 22.6282C7.91005 22.7122 7.79431 22.8281 7.69264 22.9433C7.59863 23.0739 7.50593 23.2057 7.41457 23.3389L5.00859 26.8439C4.6402 27.3805 4.09171 27.7579 3.46475 27.9064L1.55621 28.3584C1.12645 28.4601 0.859314 28.8966 0.959534 29.3332C1.0061 29.5365 1.12385 29.7037 1.28035 29.8146C1.46015 29.942 1.68943 29.9939 1.91907 29.9396L3.82753 29.4876Z" fill="#EEC033"/>
<path fill-rule="evenodd" clip-rule="evenodd" d="M36.5008 53.2031C35.4884 54.41 34.3934 55.5662 33.2452 56.6394C32.9205 56.9429 32.8996 57.4564 33.1984 57.7862C33.2692 57.8643 33.3508 57.9246 33.4387 57.9678C33.7256 58.1084 34.0796 58.0656 34.3276 57.8339C35.5231 56.7162 36.6634 55.5123 37.7174 54.2557C38.0034 53.9146 37.9631 53.4023 37.6274 53.1116C37.2907 52.8211 36.7869 52.8623 36.5008 53.2031Z" fill="#EEC033"/>
<path d="M8.23097 50.7521L1.62507 52.2812C1.19496 52.3807 0.92549 52.816 1.02357 53.2531C1.06951 53.4581 1.18771 53.6266 1.34529 53.7382C1.52402 53.8648 1.75161 53.9169 1.98015 53.8641L8.58592 52.3347C11.9512 51.5558 15.0976 50.1414 17.8817 48.1901C18.0945 48.041 18.2984 47.8104 18.3937 47.5673C18.4496 47.4248 18.4948 47.2039 18.3293 46.9787C18.2033 46.8071 18.0157 46.7472 17.8448 46.7371C17.6642 46.7263 17.4532 46.7651 17.2366 46.8323C16.9206 46.9301 16.7103 47.0526 16.3975 47.2403C13.5642 48.941 10.78 50.1619 8.23097 50.7521Z" fill="#EEC033"/>
<path d="M9.24038 55.244L3.6667 56.5344C3.23651 56.6339 2.96699 57.0691 3.06507 57.5061C3.11101 57.7112 3.2292 57.8796 3.38678 57.9913C3.56553 58.1179 3.79312 58.1701 4.02166 58.1171L9.59545 56.8267C15.1818 55.5336 20.2522 52.7424 24.3261 48.7824C24.4484 48.6035 24.5486 48.4293 24.6067 48.2627C24.6386 48.1712 24.6804 48.0193 24.6477 47.8676C24.6477 47.8676 24.6695 47.9701 24.6476 47.8671C24.6258 47.7642 24.5647 47.6593 24.4667 47.5621C24.1822 47.2795 23.6547 47.5156 23.4488 47.6111C23.2865 47.6862 23.0297 47.8944 23.0297 47.8944C23.0297 47.8944 22.0524 48.6936 21.6255 49.0525C18.0629 52.0486 13.8353 54.1804 9.24038 55.244Z" fill="#EEC033"/>
<path d="M8.70761 60.0944L10.2501 59.7373C14.1401 58.8368 17.2286 57.6453 21.0983 55.1359C24.2342 53.1025 28.3367 48.8444 28.3367 48.8444L29.4123 47.6871C29.4123 47.6871 29.9771 47.0201 30.3709 46.9134C30.6723 46.8319 30.925 46.9838 31.0405 47.0731C31.125 47.1387 31.2078 47.2402 31.2576 47.3782C31.3764 47.708 31.1276 47.9665 30.9504 48.2218C30.5182 48.8444 26.2846 53.6347 22.2573 56.3084C18.1208 59.0546 14.7942 60.3502 10.6051 61.32L9.06268 61.6771C8.83414 61.7301 8.60655 61.678 8.4278 61.5513C8.2704 61.4399 8.15213 61.2713 8.10609 61.0663C8.00802 60.6292 8.27736 60.194 8.70761 60.0944Z" fill="#EEC033"/>
<path d="M27.8361 55.7914C28.1718 55.501 28.6757 55.5416 28.9626 55.8827C29.2488 56.2238 29.2085 56.7361 28.8729 57.0269C27.6361 58.0978 26.3221 59.1027 24.9673 60.0135C24.6862 60.2024 24.3301 60.1876 24.0689 60.0025C23.9888 59.9457 23.9175 59.8731 23.8599 59.7846C23.6163 59.4108 23.7171 58.9072 24.0852 58.6598L27.8361 55.7914Z" fill="#EEC033"/>
<path d="M36.4427 46.0521L33.3259 49.5696C32.1348 50.9137 30.8436 52.1846 29.4873 53.3473C29.15 53.6365 29.1074 54.1486 29.3921 54.491C29.4162 54.5201 29.4419 54.547 29.4691 54.5718C29.7608 54.8387 30.2096 54.8523 30.5181 54.5878C31.9297 53.3775 33.2741 52.0544 34.5138 50.6556C34.5138 50.6556 36.5289 48.5332 37.6273 47.06C38.95 45.2861 40.2229 42.8579 40.5449 42.2693C40.6522 42.073 40.8024 41.4189 40.3517 41.2227C39.948 41.0468 39.4829 41.3114 39.3214 41.6805C38.8062 42.8579 36.6292 45.8417 36.4427 46.0521Z" fill="#EEC033"/>
<path d="M50.3217 32.1765C50.8088 35.843 50.5408 39.4906 49.5255 43.0195C49.4018 43.4497 48.9581 43.6966 48.5345 43.5708C48.4485 43.5453 48.3704 43.5067 48.3014 43.4577C48.0276 43.2638 47.8931 42.9071 47.9917 42.5642C48.2672 41.6067 48.484 40.6399 48.6418 39.6658C49.0297 37.2732 49.0625 34.8376 48.7379 32.3936C48.6789 31.9493 48.9856 31.5406 49.423 31.4805C49.8602 31.4205 50.2625 31.7321 50.3217 32.1765Z" fill="#EEC033"/>
<path d="M34.8607 17.5919C35.0927 17.2107 35.5851 17.0927 35.9604 17.3285C36.2936 17.5378 36.6258 17.7597 36.9482 17.988C46.5425 24.784 48.9052 38.2427 42.2148 47.9887L39.5501 51.8705C39.2977 52.2383 38.7996 52.3284 38.4377 52.072C38.0757 51.8156 37.9868 51.3098 38.2392 50.942L40.904 47.06C47.0906 38.0476 44.906 25.6036 36.0341 19.3193C35.7359 19.1081 35.4285 18.9027 35.1201 18.7091L35.1191 18.7084C34.744 18.4751 34.6281 17.9741 34.8607 17.5919Z" fill="#EEC033"/>
<path d="M54.3354 20.1923C53.7914 19.1166 53.1837 18.0598 52.529 17.0511C52.2861 16.6768 52.3879 16.1733 52.7563 15.9265C53.1247 15.6799 53.6202 15.7832 53.8631 16.1575C54.5494 17.2149 55.1866 18.323 55.7568 19.4505C55.9584 19.8492 55.8036 20.3385 55.4111 20.5434C55.139 20.6854 54.8237 20.6537 54.5881 20.4869C54.4849 20.4137 54.3971 20.3146 54.3354 20.1923Z" fill="#EEC033"/>
<path d="M41.333 17.7638L41.3328 17.7635C40.4911 16.9636 39.5819 16.216 38.6301 15.5419C38.455 15.4179 38.2786 15.2964 38.1009 15.1775C34.3683 12.6781 30.0861 11.3034 25.6794 11.1527C25.3628 11.1419 25.0457 11.1374 24.7281 11.1392C23.5174 11.1462 22.2997 11.2455 21.0837 11.4391C14.914 12.4212 9.43372 15.7217 5.65404 20.7327C5.39312 21.0785 4.91167 21.1519 4.56339 20.9051C4.55259 20.8975 4.54343 20.8908 4.53525 20.8842L4.53369 20.883C4.18354 20.6106 4.11711 20.1011 4.38556 19.7452C8.41612 14.402 14.2578 10.8827 20.8362 9.83533C20.9873 9.81129 21.1383 9.78861 21.2893 9.7673C21.316 9.76353 21.3426 9.75983 21.3692 9.75616C27.7917 8.87017 34.2255 10.4428 39.5441 14.2103C40.5583 14.9287 41.5275 15.7256 42.4249 16.5784C42.747 16.8849 42.7638 17.3983 42.4622 17.7255C42.1603 18.0532 41.6547 18.0705 41.333 17.7638Z" fill="#EEC033"/>
<path d="M31.2549 16.8402C31.6719 16.9872 32.1272 16.7631 32.2719 16.3397C32.4165 15.9165 32.1957 15.4539 31.779 15.3066C29.5584 14.5234 27.2349 14.1247 24.8729 14.1216C24.4314 14.121 24.0732 14.4841 24.0728 14.9322C24.0723 15.2084 24.2072 15.4524 24.4153 15.5998C24.5443 15.6912 24.7009 15.7448 24.8706 15.745C27.0543 15.7479 29.2023 16.1165 31.2549 16.8402Z" fill="#EEC033"/>
<path d="M21.4199 15.2103C21.5101 15.6493 21.2331 16.0792 20.8011 16.1708C19.1204 16.5274 17.7716 16.9401 16.0112 17.8611C14.701 18.5465 11.9263 20.6018 11.9263 20.6018C11.9263 20.6018 11.2316 21.2559 10.6663 20.7327C10.101 20.2093 10.6663 19.4565 10.6663 19.4565C10.8176 19.2631 13.5805 17.3074 14.9812 16.5622C16.9978 15.4893 18.2609 15.0514 20.4743 14.5818C20.9063 14.4901 21.3297 14.7716 21.4199 15.2103Z" fill="#EEC033"/>
<path d="M34.9101 7.50567C35.0723 7.08885 35.5365 6.88444 35.9469 7.04924C38.121 7.92211 40.204 9.0592 42.1375 10.4289C45.5741 12.8631 48.4207 15.924 50.5995 19.5275C52.703 23.0068 54.0887 26.8262 54.718 30.8802C54.7868 31.3227 54.4892 31.7384 54.0531 31.8083C53.8409 31.8423 53.6355 31.7882 53.4718 31.6723C53.2992 31.5501 53.1748 31.3602 53.1395 31.1327C51.9101 23.2135 47.6778 16.3323 41.2235 11.7605C39.3917 10.4629 37.4189 9.3859 35.3596 8.55888C34.9493 8.39421 34.748 7.92254 34.9101 7.50567Z" fill="#EEC033"/>
<path d="M7.00381 32.9054C6.20903 33.4037 5.72679 33.6307 4.85629 33.9744C3.40772 34.5464 0.980642 34.8924 0.980642 34.8924C0.751143 34.9468 0.521704 34.8949 0.341927 34.7676C0.185487 34.6567 0.0678117 34.4898 0.0210384 34.2862C-0.0791465 33.8495 0.188116 33.413 0.617722 33.3115C0.617722 33.3115 3.05541 32.9922 4.4934 32.3933C5.30259 32.0563 5.74857 31.8307 6.48093 31.3451C7.54087 30.6424 8.2381 29.8872 8.91255 29.1684C9.18095 29.0261 9.47066 28.9771 9.75575 29.1354C9.99413 29.2678 10.1013 29.4229 10.1413 29.5764C10.1826 29.7349 10.1626 29.9061 10.0913 30.0973C10.0172 30.2956 9.8511 30.4538 9.77271 30.5335C8.98518 31.3352 8.2075 32.1508 7.00381 32.9054Z" fill="#EEC033"/>
<path d="M20.3979 43.3438C20.3979 43.0168 20.3979 42.6547 20.3979 42.2576C20.3979 41.8372 20.3979 41.3116 20.3979 40.681C20.3979 40.0269 20.3979 39.186 20.3979 38.1582C20.3979 37.4341 20.3979 36.6866 20.3979 35.9158C20.3979 35.1216 20.3979 34.3041 20.3979 33.4631C20.3979 32.5988 20.3979 31.6879 20.3979 30.7302C20.3979 29.7724 20.3979 28.7563 20.3979 27.6818C20.3979 26.3037 20.4317 25.1942 20.4994 24.3533C20.5894 23.5123 20.7472 22.87 20.9724 22.4262C21.1977 21.959 21.513 21.6436 21.9185 21.4801C22.3466 21.3166 22.8873 21.2349 23.5406 21.2349C23.9011 21.2349 24.2276 21.2349 24.5206 21.2349C24.8359 21.2349 25.1514 21.2349 25.4667 21.2349C25.782 21.2349 26.1538 21.2349 26.5818 21.2349C27.0323 21.2349 27.5843 21.2349 28.2376 21.2349C29.5667 21.2349 30.772 21.4334 31.8533 21.8305C32.9346 22.2043 33.8807 22.7415 34.6917 23.4423C35.5253 24.1431 36.2236 24.9839 36.7868 25.965C37.35 26.946 37.7668 28.0439 38.0371 29.2586C38.3299 30.4499 38.4764 31.7345 38.4764 33.1127C38.4764 34.8413 38.2173 36.4414 37.6991 37.9129C37.2036 39.3612 36.4827 40.6225 35.5365 41.6971C34.6129 42.7715 33.5091 43.6007 32.225 44.1847C30.9409 44.7687 29.5104 45.0607 27.9335 45.0607C27.4829 45.0607 27.0323 45.0607 26.5818 45.0607C26.1538 45.0607 25.7257 45.0607 25.2977 45.0607C24.7346 45.0607 24.3066 44.9088 24.0136 44.6052C23.7208 44.2782 23.5744 43.9044 23.5744 43.4839C23.5744 43.0635 23.7208 42.7015 24.0136 42.3979C24.3066 42.0707 24.7346 41.9073 25.2977 41.9073C25.7708 41.9073 26.2102 41.9073 26.6156 41.9073C27.0211 41.9073 27.4603 41.9073 27.9335 41.9073C29.1049 41.9073 30.1524 41.6971 31.076 41.2765C31.9997 40.8328 32.7769 40.2254 33.4076 39.4547C34.0609 38.6604 34.5566 37.726 34.8945 36.6516C35.255 35.577 35.4352 34.3975 35.4352 33.1127C35.4352 31.828 35.2887 30.6601 34.9959 29.6089C34.703 28.5344 34.2637 27.6118 33.6781 26.8409C33.0923 26.0701 32.3488 25.4745 31.4478 25.054C30.5467 24.6102 29.4766 24.3883 28.2376 24.3883C27.5843 24.3883 27.0323 24.3883 26.5818 24.3883C26.1312 24.3883 25.7032 24.3883 25.2977 24.3883C24.9147 24.3883 24.4529 24.3883 23.9123 24.3883C23.7771 24.3883 23.6645 24.4467 23.5744 24.5635C23.5068 24.6569 23.4618 24.8087 23.4391 25.0189C23.4166 25.2058 23.4054 25.4394 23.4054 25.7197C23.4054 26 23.4054 26.3037 23.4054 26.6307C23.4279 26.9577 23.4391 27.3081 23.4391 27.6818C23.4391 28.6396 23.4391 29.6557 23.4391 30.7302C23.4391 31.8046 23.4391 32.961 23.4391 34.1989C23.4391 35.4136 23.4391 36.7334 23.4391 38.1582C23.4391 39.3028 23.4391 40.1788 23.4391 40.7861C23.4391 41.3934 23.4391 41.8838 23.4391 42.2576C23.4391 42.6081 23.4391 42.9701 23.4391 43.3438C23.4391 43.9278 23.2815 44.3716 22.9661 44.6753C22.6733 44.9789 22.3241 45.1307 21.9185 45.1307C21.513 45.1307 21.1527 44.9789 20.8372 44.6753C20.5444 44.3716 20.3979 43.9278 20.3979 43.3438Z" fill="white"/>
<path d="M14.0815 43.5069C14.0815 42.753 14.0815 42.0678 14.0815 41.451C14.0815 40.8342 14.0815 40.2746 14.0815 39.7721C14.0815 39.2466 14.0815 38.7669 14.0815 38.333C14.0815 37.2364 14.0815 36.1172 14.0815 34.9749C14.0815 33.8328 14.0815 32.6907 14.0815 31.5485C14.0815 30.3835 14.0815 29.2643 14.0815 28.1906C14.0815 27.6651 14.0815 27.1513 14.0815 26.6487C14.0815 26.1232 14.0815 25.5637 14.0815 24.9697C14.0815 24.3758 14.0815 23.702 14.0815 22.9481C14.0815 22.377 14.2278 21.9545 14.5201 21.6803C14.8348 21.3834 15.1947 21.2349 15.5994 21.2349C16.0042 21.2349 16.3528 21.3834 16.6451 21.6803C16.9599 21.9545 17.1174 22.377 17.1174 22.9481C17.1174 23.702 17.1174 24.3758 17.1174 24.9697C17.1174 25.5637 17.1174 26.1232 17.1174 26.6487C17.1174 27.1513 17.1174 27.6651 17.1174 28.1906C17.1174 29.2643 17.1174 30.3835 17.1174 31.5485C17.1174 32.6907 17.1174 33.8328 17.1174 34.9749C17.1174 36.1172 17.1174 37.2364 17.1174 38.333C17.1174 38.7669 17.1174 39.2466 17.1174 39.7721C17.1174 40.2746 17.1174 40.8342 17.1174 41.451C17.1174 42.0678 17.1174 42.753 17.1174 43.5069C17.1174 44.1007 16.9599 44.5462 16.6451 44.8432C16.3528 45.1173 16.0042 45.2544 15.5994 45.2544C15.1947 45.2544 14.8348 45.1173 14.5201 44.8432C14.2278 44.5462 14.0815 44.1007 14.0815 43.5069Z" fill="white"/>
<path d="M195.174 41.7939C195.174 41.4328 195.174 41.1093 195.174 40.8234C195.174 40.5376 195.174 40.2517 195.174 39.9659C195.174 39.68 195.174 39.349 195.174 38.9729C195.174 38.4764 195.174 38.0025 195.174 37.551C195.174 37.0847 195.174 36.6031 195.174 36.1067C195.174 35.5951 195.174 35.031 195.174 34.414C195.174 33.7971 195.174 33.075 195.174 32.2474C195.174 31.9315 195.174 31.6005 195.174 31.2544C195.174 30.9085 195.174 30.5775 195.174 30.2614C195.174 29.9304 195.174 29.6521 195.174 29.4264C195.174 29.0503 195.269 28.7645 195.462 28.5688C195.669 28.3732 195.907 28.2754 196.174 28.2754C196.441 28.2754 196.669 28.3732 196.862 28.5688C197.069 28.7645 197.174 29.0503 197.174 29.4264C197.174 29.6822 197.174 29.9079 197.174 30.1034C197.174 30.2991 197.174 30.4947 197.174 30.6902C197.174 30.8859 197.174 31.1115 197.174 31.3673C197.174 31.608 197.174 31.9014 197.174 32.2474C197.174 32.8042 197.174 33.3307 197.174 33.8272C197.174 34.3087 197.174 34.8052 197.174 35.3168C197.174 35.8283 197.174 36.3775 197.174 36.9642C197.174 37.551 197.174 38.2206 197.174 38.9729C197.174 39.3791 197.174 39.7176 197.174 39.9884C197.174 40.2592 197.174 40.5301 197.174 40.8009C197.174 41.0567 197.174 41.3876 197.174 41.7939C197.174 42.17 197.069 42.4559 196.862 42.6515C196.669 42.8471 196.441 42.9449 196.174 42.9449C195.907 42.9449 195.669 42.8546 195.462 42.6741C195.269 42.4784 195.174 42.1851 195.174 41.7939ZM198.751 33.4887C198.528 33.4887 198.314 33.4887 198.107 33.4887C197.899 33.4887 197.692 33.4887 197.484 33.4887C197.04 33.4887 196.625 33.4887 196.241 33.4887C195.869 33.4887 195.462 33.4887 195.018 33.4887C194.885 33.4887 194.759 33.4887 194.641 33.4887C194.522 33.4887 194.389 33.4887 194.241 33.4887C194.108 33.4887 193.966 33.4887 193.818 33.4887C193.448 33.4887 193.166 33.3909 192.975 33.1954C192.782 32.9847 192.685 32.7439 192.685 32.4732C192.685 32.2024 192.782 31.9692 192.975 31.7735C193.166 31.563 193.448 31.4576 193.818 31.4576C194.011 31.4576 194.166 31.4576 194.285 31.4576C194.404 31.4576 194.515 31.4576 194.618 31.4576C194.737 31.4576 194.871 31.4576 195.018 31.4576C195.434 31.4576 195.841 31.4576 196.241 31.4576C196.655 31.4576 197.069 31.4576 197.484 31.4576C197.721 31.4576 197.928 31.4576 198.107 31.4576C198.299 31.4576 198.514 31.4576 198.751 31.4576C199.121 31.4576 199.402 31.563 199.595 31.7735C199.788 31.9692 199.884 32.2024 199.884 32.4732C199.884 32.7439 199.788 32.9847 199.595 33.1954C199.402 33.3909 199.121 33.4887 198.751 33.4887Z" fill="white"/>
<path d="M189.387 41.7941C189.387 41.478 189.387 41.147 189.387 40.8011C189.387 40.4399 189.387 40.0863 189.387 39.7402C189.387 39.3792 189.387 39.0482 189.387 38.7472C189.387 38.3862 189.387 37.9875 189.387 37.5512C189.387 37.0997 189.387 36.6108 189.387 36.0842C189.387 35.4523 189.284 34.9333 189.075 34.527C188.884 34.1058 188.595 33.7898 188.209 33.5791C187.824 33.3685 187.351 33.2632 186.788 33.2632C186.299 33.2632 185.855 33.3459 185.455 33.5114C185.055 33.6619 184.706 33.8875 184.411 34.1885C184.129 34.4894 183.906 34.8656 183.744 35.3169C183.581 35.7683 183.499 36.2873 183.499 36.8741C183.499 37.1299 183.499 37.4684 183.499 37.8897C183.499 38.2959 183.499 38.7323 183.499 39.1986C183.499 39.665 183.499 40.1315 183.499 40.5979C183.499 41.0493 183.499 41.448 183.499 41.7941C183.499 42.0949 183.432 42.3432 183.299 42.5388C183.166 42.7193 182.996 42.8397 182.789 42.8998C182.596 42.96 182.396 42.96 182.189 42.8998C181.996 42.8397 181.833 42.7193 181.7 42.5388C181.566 42.3432 181.5 42.0949 181.5 41.7941C181.5 41.5081 181.5 41.1245 181.5 40.6431C181.5 40.1466 181.5 39.6124 181.5 39.0407C181.5 38.4539 181.5 37.8897 181.5 37.348C181.5 36.7913 181.5 36.3099 181.5 35.9037C181.5 35.4975 181.5 35.2191 181.5 35.0686C181.5 34.7678 181.5 34.4668 181.5 34.1659C181.5 33.865 181.5 33.5641 181.5 33.2632C181.5 32.9623 181.5 32.6613 181.5 32.3605C181.5 31.9842 181.596 31.6984 181.789 31.5028C181.996 31.3073 182.233 31.2095 182.499 31.2095C182.766 31.2095 182.996 31.3073 183.188 31.5028C183.396 31.6984 183.499 31.9842 183.499 32.3605C183.499 32.6915 183.499 32.9999 183.499 33.2858C183.499 33.5716 183.499 33.8575 183.499 34.1433C183.499 34.4292 183.499 34.7376 183.499 35.0686C183.499 35.1589 183.499 35.4072 183.499 35.8134C183.499 36.2045 183.499 36.686 183.499 37.2578C183.499 37.8145 183.499 38.3937 183.499 38.9955C183.499 39.5823 183.499 40.1315 183.499 40.6431C183.499 41.1395 183.499 41.5232 183.499 41.7941C183.499 42.0949 183.432 42.3432 183.299 42.5388C183.166 42.7193 182.996 42.8397 182.789 42.8998C182.596 42.96 182.396 42.96 182.189 42.8998C181.996 42.8397 181.833 42.7193 181.7 42.5388C181.566 42.3432 181.5 42.0949 181.5 41.7941C181.5 41.448 181.5 41.0869 181.5 40.7108C181.5 40.3195 181.5 39.9208 181.5 39.5146C181.5 39.1084 181.5 38.7021 181.5 38.2959C181.5 37.8746 181.5 37.4759 181.5 37.0997C181.5 36.3325 181.633 35.5953 181.899 34.8881C182.181 34.181 182.566 33.5565 183.055 33.0149C183.544 32.4583 184.122 32.0219 184.788 31.706C185.455 31.39 186.172 31.2321 186.944 31.2321C187.58 31.2321 188.165 31.3373 188.698 31.548C189.247 31.7586 189.72 32.0745 190.12 32.4958C190.52 32.902 190.831 33.4061 191.053 34.0079C191.275 34.6098 191.387 35.3018 191.387 36.0842C191.387 36.4303 191.387 36.829 191.387 37.2803C191.387 37.7167 191.387 38.2056 191.387 38.7472C191.387 39.1234 191.387 39.477 191.387 39.808C191.387 40.124 191.387 40.4399 191.387 40.7559C191.387 41.0718 191.387 41.4179 191.387 41.7941C191.387 42.1702 191.283 42.4561 191.075 42.6516C190.883 42.8472 190.654 42.945 190.387 42.945C190.12 42.945 189.883 42.8472 189.675 42.6516C189.484 42.4561 189.387 42.1702 189.387 41.7941Z" fill="white"/>
<path d="M171.639 36.0621C172.068 36.0621 172.528 36.0621 173.017 36.0621C173.505 36.0621 174.001 36.0621 174.505 36.0621C175.024 36.0621 175.527 36.0621 176.015 36.0621C176.194 36.0621 176.348 36.0696 176.483 36.0847C176.63 36.0847 176.741 36.0772 176.815 36.0621C176.904 36.032 176.964 35.9869 176.993 35.9266C177.038 35.8665 177.045 35.7611 177.015 35.6107C176.911 35.1293 176.727 34.7155 176.46 34.3694C176.208 34.0084 175.883 33.7376 175.483 33.557C175.083 33.3615 174.631 33.2636 174.127 33.2636C173.461 33.2636 172.868 33.4216 172.35 33.7376C171.847 34.0535 171.447 34.5049 171.151 35.0917C170.869 35.6634 170.728 36.333 170.728 37.1002C170.728 37.9127 170.884 38.6048 171.195 39.1765C171.505 39.7482 171.928 40.1846 172.461 40.4855C173.009 40.7714 173.631 40.9143 174.327 40.9143C174.638 40.9143 174.964 40.8842 175.305 40.824C175.645 40.7488 175.986 40.6434 176.327 40.5081C176.683 40.3727 177.038 40.2072 177.393 40.0116C177.718 39.8159 178.008 39.7633 178.26 39.8536C178.527 39.9439 178.726 40.1094 178.86 40.3501C178.993 40.5757 179.023 40.824 178.948 41.0949C178.89 41.3657 178.697 41.5914 178.371 41.7719C177.911 42.0427 177.453 42.2684 176.993 42.4489C176.534 42.6144 176.075 42.7348 175.615 42.81C175.171 42.9003 174.742 42.9454 174.327 42.9454C173.291 42.9454 172.35 42.7122 171.505 42.2458C170.661 41.7795 169.988 41.1099 169.484 40.2372C168.981 39.3646 168.728 38.3189 168.728 37.1002C168.728 35.9266 168.965 34.9036 169.439 34.0309C169.914 33.1432 170.558 32.4586 171.372 31.9772C172.187 31.4807 173.105 31.2324 174.127 31.2324C174.942 31.2324 175.69 31.3979 176.371 31.7289C177.053 32.0599 177.615 32.5264 178.06 33.1282C178.518 33.715 178.823 34.4222 178.971 35.2497C179.06 35.716 179.074 36.1298 179.015 36.4909C178.956 36.852 178.807 37.1529 178.571 37.3937C178.334 37.6193 178 37.7924 177.571 37.9127C177.157 38.0331 176.638 38.0932 176.015 38.0932C175.541 38.0932 175.105 38.0932 174.705 38.0932C174.305 38.0932 173.927 38.0932 173.572 38.0932C173.231 38.0932 172.898 38.0932 172.572 38.0932C172.261 38.0932 171.95 38.0932 171.639 38.0932C171.268 38.0932 170.988 37.9954 170.795 37.7999C170.602 37.5892 170.506 37.3485 170.506 37.0777C170.506 36.8069 170.602 36.5737 170.795 36.3781C170.988 36.1675 171.268 36.0621 171.639 36.0621Z" fill="white"/>
<path d="M152.929 32.3609C152.929 32.6919 152.929 33.0003 152.929 33.2861C152.929 33.5721 152.929 33.858 152.929 34.1438C152.929 34.4297 152.929 34.7381 152.929 35.0691C152.929 35.2195 152.929 35.5055 152.929 35.9266C152.929 36.333 152.929 36.8144 152.929 37.3711C152.929 37.9277 152.929 38.4994 152.929 39.0862C152.929 39.658 152.929 40.1921 152.929 40.6886C152.929 41.1701 152.929 41.5386 152.929 41.7944C152.929 42.0954 152.864 42.3437 152.729 42.5392C152.597 42.7197 152.426 42.8402 152.219 42.9003C152.026 42.9605 151.826 42.9605 151.619 42.9003C151.426 42.8402 151.264 42.7197 151.131 42.5392C150.997 42.3437 150.931 42.0954 150.931 41.7944C150.931 41.4785 150.931 41.1175 150.931 40.7111C150.931 40.3049 150.931 39.8836 150.931 39.4474C150.931 38.9959 150.931 38.5522 150.931 38.1158C150.931 37.6644 150.931 37.2506 150.931 36.8746C150.931 36.047 151.049 35.2948 151.286 34.6177C151.538 33.9257 151.885 33.3313 152.329 32.8348C152.774 32.3233 153.292 31.9321 153.885 31.6612C154.478 31.3754 155.115 31.2324 155.795 31.2324C156.329 31.2324 156.832 31.3227 157.307 31.5033C157.781 31.6838 158.203 31.9696 158.573 32.3609C158.944 32.737 159.232 33.2184 159.44 33.8052C159.647 34.377 159.751 35.0616 159.751 35.8589C159.751 35.9944 159.751 36.2502 159.751 36.6263C159.751 36.9874 159.751 37.4161 159.751 37.9127C159.751 38.3942 159.751 38.8907 159.751 39.4022C159.751 39.9137 159.751 40.3801 159.751 40.8014C159.751 41.2227 159.751 41.5537 159.751 41.7944C159.751 42.0954 159.684 42.3437 159.551 42.5392C159.417 42.7197 159.247 42.8402 159.04 42.9003C158.847 42.9605 158.647 42.9605 158.44 42.9003C158.247 42.8402 158.084 42.7197 157.951 42.5392C157.818 42.3437 157.751 42.0954 157.751 41.7944C157.751 41.5086 157.751 41.1399 157.751 40.6886C157.751 40.2221 157.751 39.7407 157.751 39.2442C157.751 38.7326 157.751 38.2663 157.751 37.845C157.751 37.4237 157.751 37.1002 157.751 36.8746C157.751 36.047 157.87 35.2948 158.107 34.6177C158.358 33.9257 158.707 33.3313 159.151 32.8348C159.595 32.3233 160.114 31.9321 160.706 31.6612C161.298 31.3754 161.935 31.2324 162.617 31.2324C163.15 31.2324 163.653 31.3227 164.127 31.5033C164.601 31.6838 165.023 31.9696 165.394 32.3609C165.764 32.737 166.053 33.2184 166.26 33.8052C166.467 34.377 166.571 35.0616 166.571 35.8589C166.571 36.0847 166.571 36.3856 166.571 36.7617C166.571 37.1228 166.571 37.4839 166.571 37.845C166.571 38.2061 166.571 38.507 166.571 38.7477C166.571 39.1088 166.571 39.4549 166.571 39.7859C166.571 40.1018 166.571 40.4253 166.571 40.7563C166.571 41.0723 166.571 41.4183 166.571 41.7944C166.571 42.1706 166.467 42.4564 166.26 42.6521C166.067 42.8477 165.838 42.9454 165.571 42.9454C165.304 42.9454 165.067 42.8477 164.86 42.6521C164.668 42.4564 164.571 42.1706 164.571 41.7944C164.571 41.4785 164.571 41.1475 164.571 40.8014C164.571 40.4404 164.571 40.0868 164.571 39.7407C164.571 39.3797 164.571 39.0487 164.571 38.7477C164.571 38.2212 164.571 37.7396 164.571 37.3034C164.571 36.852 164.571 36.3705 164.571 35.8589C164.571 35.2421 164.49 34.7456 164.327 34.3694C164.179 33.9933 163.957 33.715 163.661 33.5344C163.38 33.3539 163.031 33.2636 162.617 33.2636C162.187 33.2636 161.794 33.3313 161.438 33.4667C161.084 33.6022 160.78 33.8052 160.528 34.0761C160.277 34.3319 160.084 34.6553 159.95 35.0465C159.817 35.4377 159.751 35.8966 159.751 36.4231C159.751 36.7541 159.751 37.1679 159.751 37.6644C159.751 38.146 159.751 38.6574 159.751 39.1991C159.751 39.7256 159.751 40.2221 159.751 40.6886C159.751 41.155 159.751 41.5237 159.751 41.7944C159.751 42.0954 159.684 42.3437 159.551 42.5392C159.417 42.7197 159.247 42.8402 159.04 42.9003C158.847 42.9605 158.647 42.9605 158.44 42.9003C158.247 42.8402 158.084 42.7197 157.951 42.5392C157.818 42.3437 157.751 42.0954 157.751 41.7944C157.751 41.5237 157.751 41.1175 157.751 40.5758C157.751 40.0342 157.751 39.4474 157.751 38.8154C157.751 38.1835 157.751 37.5967 157.751 37.0551C157.751 36.5134 157.751 36.1147 157.751 35.8589C157.751 35.2421 157.67 34.7456 157.507 34.3694C157.358 33.9933 157.137 33.715 156.84 33.5344C156.558 33.3539 156.211 33.2636 155.795 33.2636C155.367 33.2636 154.974 33.3313 154.618 33.4667C154.262 33.6022 153.959 33.8052 153.708 34.0761C153.455 34.3319 153.264 34.6553 153.129 35.0465C152.997 35.4377 152.929 35.8966 152.929 36.4231C152.929 36.6789 152.929 37.0401 152.929 37.5064C152.929 37.9729 152.929 38.477 152.929 39.0186C152.929 39.5452 152.929 40.0566 152.929 40.5532C152.929 41.0497 152.929 41.4634 152.929 41.7944C152.929 42.0954 152.864 42.3437 152.729 42.5392C152.597 42.7197 152.426 42.8402 152.219 42.9003C152.026 42.9605 151.826 42.9605 151.619 42.9003C151.426 42.8402 151.264 42.7197 151.131 42.5392C150.997 42.3437 150.931 42.0954 150.931 41.7944C150.931 41.5386 150.931 41.1625 150.931 40.666C150.931 40.1695 150.931 39.6204 150.931 39.0186C150.931 38.4167 150.931 37.8374 150.931 37.2808C150.931 36.7091 150.931 36.2201 150.931 35.8139C150.931 35.4076 150.931 35.1594 150.931 35.0691C150.931 34.7682 150.931 34.4672 150.931 34.1664C150.931 33.8654 150.931 33.5645 150.931 33.2636C150.931 32.9627 150.931 32.6618 150.931 32.3609C150.931 31.9847 151.026 31.7064 151.219 31.5259C151.426 31.3302 151.664 31.2324 151.931 31.2324C152.197 31.2324 152.426 31.3302 152.619 31.5259C152.826 31.7064 152.929 31.9847 152.929 32.3609Z" fill="white"/>
<path d="M137.956 45.5182C137.956 45.2173 137.956 44.8863 137.956 44.5252C137.956 44.1642 137.956 43.7804 137.956 43.3742C137.956 42.9831 137.956 42.5844 137.956 42.1782C137.956 41.7869 137.956 41.3356 137.956 40.824C137.956 40.3124 137.956 39.7407 137.956 39.1088C137.956 38.4619 137.956 37.7773 137.956 37.0551C137.956 35.9117 138.186 34.9036 138.644 34.0309C139.103 33.1583 139.733 32.4737 140.533 31.9772C141.333 31.4807 142.243 31.2324 143.266 31.2324C144.273 31.2324 145.176 31.4882 145.976 31.9998C146.79 32.4963 147.435 33.1884 147.909 34.0761C148.383 34.9487 148.619 35.9568 148.619 37.1002C148.619 37.9579 148.479 38.7477 148.197 39.47C147.93 40.1771 147.553 40.7939 147.065 41.3205C146.576 41.8321 146.006 42.2308 145.353 42.5167C144.717 42.8025 144.029 42.9454 143.287 42.9454C142.532 42.9454 141.829 42.8025 141.177 42.5167C140.526 42.2157 139.956 41.8095 139.466 41.2979C138.993 40.7714 138.623 40.1545 138.356 39.4474C138.088 38.7402 137.956 37.9729 137.956 37.1454C137.956 36.6489 137.956 36.1147 137.956 35.543C137.956 34.9562 137.956 34.3996 137.956 33.8729C137.956 33.3313 137.956 32.8799 137.956 32.5189C137.956 32.1276 138.051 31.8418 138.244 31.6612C138.451 31.4657 138.688 31.3679 138.956 31.3679C139.221 31.3679 139.451 31.4657 139.644 31.6612C139.851 31.8569 139.956 32.1427 139.956 32.5189C139.956 33.0605 139.956 33.5419 139.956 33.9632C139.956 34.3845 139.956 34.8359 139.956 35.3174C139.956 35.7988 139.956 36.4082 139.956 37.1454C139.956 37.687 140.037 38.1835 140.2 38.6349C140.363 39.0862 140.591 39.4849 140.888 39.831C141.184 40.1771 141.533 40.4479 141.933 40.6434C142.347 40.824 142.799 40.9143 143.287 40.9143C143.762 40.9143 144.199 40.824 144.599 40.6434C145.013 40.4479 145.369 40.1846 145.665 39.8536C145.962 39.5075 146.19 39.1013 146.353 38.6349C146.532 38.1684 146.62 37.6569 146.62 37.1002C146.62 36.5436 146.539 36.032 146.376 35.5656C146.213 35.0991 145.983 34.6929 145.687 34.3469C145.39 34.0009 145.036 33.7376 144.62 33.557C144.206 33.3615 143.754 33.2636 143.266 33.2636C142.599 33.2636 142.014 33.4292 141.51 33.7602C141.021 34.0761 140.636 34.5199 140.354 35.0917C140.088 35.6634 139.956 36.3179 139.956 37.0551C139.956 37.5516 139.956 38.0782 139.956 38.6349C139.956 39.1765 139.956 39.7407 139.956 40.3275C139.956 40.8992 139.956 41.4785 139.956 42.0653C139.956 42.5768 139.956 43.0206 139.956 43.3968C139.956 43.7729 139.956 44.1265 139.956 44.4575C139.956 44.7885 139.956 45.1421 139.956 45.5182C139.956 45.8944 139.851 46.1802 139.644 46.3759C139.451 46.5714 139.221 46.6692 138.956 46.6692C138.688 46.6692 138.451 46.5714 138.244 46.3759C138.051 46.1802 137.956 45.8944 137.956 45.5182Z" fill="white"/>
<path d="M128.399 42.7197C127.777 42.4941 127.229 42.2157 126.756 41.8847C126.296 41.5386 125.889 41.0949 125.533 40.5532C125.223 40.0868 124.978 39.5601 124.8 38.9735C124.623 38.3867 124.534 37.7547 124.534 37.0777C124.534 35.9492 124.77 34.9487 125.244 34.0761C125.733 33.1884 126.393 32.4963 127.222 31.9998C128.066 31.4882 129.014 31.2324 130.066 31.2324C131.132 31.2324 132.08 31.4882 132.909 31.9998C133.753 32.4963 134.413 33.1884 134.886 34.0761C135.375 34.9487 135.62 35.9492 135.62 37.0777C135.62 37.7396 135.531 38.3641 135.353 38.9509C135.19 39.5226 134.946 40.0491 134.62 40.5307C134.265 41.0873 133.858 41.5312 133.398 41.8621C132.939 42.1931 132.376 42.479 131.71 42.7197C131.369 42.8402 131.073 42.8326 130.822 42.6971C130.584 42.5618 130.422 42.3661 130.332 42.1105C130.243 41.8547 130.259 41.6064 130.376 41.3657C130.495 41.1099 130.732 40.9143 131.087 40.7789C131.532 40.6284 131.895 40.4555 132.176 40.2598C132.458 40.0491 132.725 39.7633 132.976 39.4022C133.183 39.0862 133.339 38.7326 133.443 38.3415C133.561 37.9503 133.62 37.529 133.62 37.0777C133.62 36.3404 133.465 35.6859 133.153 35.1142C132.858 34.5274 132.443 34.0761 131.91 33.7602C131.376 33.4292 130.762 33.2636 130.066 33.2636C129.369 33.2636 128.755 33.4292 128.222 33.7602C127.689 34.0761 127.274 34.5274 126.977 35.1142C126.681 35.6859 126.533 36.3404 126.533 37.0777C126.533 37.529 126.584 37.9579 126.689 38.3641C126.807 38.7552 126.97 39.1088 127.177 39.4248C127.34 39.6655 127.51 39.8687 127.689 40.0342C127.881 40.1997 128.089 40.3426 128.31 40.4629C128.533 40.5833 128.777 40.6886 129.043 40.7789C129.399 40.9143 129.636 41.1099 129.755 41.3657C129.873 41.6064 129.887 41.8547 129.799 42.1105C129.71 42.3661 129.54 42.5618 129.287 42.6971C129.052 42.8326 128.755 42.8402 128.399 42.7197Z" fill="white"/>
<path d="M120.08 41.7941C120.08 41.4782 120.08 41.1396 120.08 40.7785C120.08 40.4175 120.08 40.0563 120.08 39.6953C120.08 39.3342 120.08 38.9956 120.08 38.6797C120.08 37.476 120.08 36.1595 120.08 34.7303C120.08 33.3009 120.08 31.6911 120.08 29.9006C120.08 29.4943 120.08 29.0204 120.08 28.4789C120.08 27.9371 120.08 27.4482 120.08 27.0118C120.08 26.6357 120.176 26.3498 120.369 26.1543C120.576 25.9587 120.813 25.8608 121.08 25.8608C121.346 25.8608 121.576 25.9587 121.769 26.1543C121.976 26.3498 122.079 26.6357 122.079 27.0118C122.079 27.373 122.079 27.7115 122.079 28.0274C122.079 28.3283 122.079 28.6368 122.079 28.9528C122.079 29.2536 122.079 29.5696 122.079 29.9006C122.079 30.6981 122.079 31.5481 122.079 32.4508C122.079 33.3535 122.079 34.324 122.079 35.3621C122.079 36.3853 122.079 37.4911 122.079 38.6797C122.079 39.0558 122.079 39.4094 122.079 39.7404C122.079 40.0714 122.079 40.4024 122.079 40.7334C122.079 41.0644 122.079 41.418 122.079 41.7941C122.079 42.1703 121.976 42.4561 121.769 42.6518C121.576 42.8473 121.346 42.9451 121.08 42.9451C120.813 42.9451 120.576 42.8473 120.369 42.6518C120.176 42.4561 120.08 42.1703 120.08 41.7941Z" fill="white"/>
<path d="M110.131 36.0621C110.56 36.0621 111.019 36.0621 111.508 36.0621C111.997 36.0621 112.493 36.0621 112.997 36.0621C113.515 36.0621 114.019 36.0621 114.507 36.0621C114.685 36.0621 114.841 36.0696 114.974 36.0847C115.122 36.0847 115.233 36.0772 115.307 36.0621C115.396 36.032 115.455 35.9869 115.485 35.9266C115.529 35.8665 115.537 35.7611 115.507 35.6107C115.403 35.1293 115.218 34.7155 114.952 34.3694C114.7 34.0084 114.374 33.7376 113.974 33.557C113.574 33.3615 113.122 33.2636 112.619 33.2636C111.952 33.2636 111.36 33.4216 110.842 33.7376C110.338 34.0535 109.938 34.5049 109.642 35.0917C109.36 35.6634 109.22 36.333 109.22 37.1002C109.22 37.9127 109.375 38.6048 109.686 39.1765C109.997 39.7482 110.419 40.1846 110.953 40.4855C111.501 40.7714 112.123 40.9143 112.819 40.9143C113.13 40.9143 113.456 40.8842 113.796 40.824C114.137 40.7488 114.478 40.6434 114.818 40.5081C115.174 40.3727 115.529 40.2072 115.885 40.0116C116.211 39.8159 116.499 39.7633 116.751 39.8536C117.018 39.9439 117.218 40.1094 117.351 40.3501C117.484 40.5757 117.514 40.824 117.44 41.0949C117.381 41.3657 117.188 41.5914 116.862 41.7719C116.403 42.0427 115.944 42.2684 115.485 42.4489C115.026 42.6144 114.567 42.7348 114.107 42.81C113.663 42.9003 113.234 42.9454 112.819 42.9454C111.782 42.9454 110.842 42.7122 109.997 42.2458C109.153 41.7795 108.479 41.1099 107.976 40.2372C107.472 39.3646 107.22 38.3189 107.22 37.1002C107.22 35.9266 107.457 34.9036 107.931 34.0309C108.405 33.1432 109.049 32.4586 109.864 31.9772C110.679 31.4807 111.597 31.2324 112.619 31.2324C113.434 31.2324 114.182 31.3979 114.863 31.7289C115.544 32.0599 116.107 32.5264 116.551 33.1282C117.011 33.715 117.314 34.4222 117.462 35.2497C117.551 35.716 117.566 36.1298 117.507 36.4909C117.447 36.852 117.299 37.1529 117.062 37.3937C116.825 37.6193 116.492 37.7924 116.062 37.9127C115.648 38.0331 115.129 38.0932 114.507 38.0932C114.033 38.0932 113.597 38.0932 113.197 38.0932C112.797 38.0932 112.419 38.0932 112.063 38.0932C111.723 38.0932 111.39 38.0932 111.064 38.0932C110.753 38.0932 110.442 38.0932 110.131 38.0932C109.76 38.0932 109.479 37.9954 109.286 37.7999C109.094 37.5892 108.998 37.3485 108.998 37.0777C108.998 36.8069 109.094 36.5737 109.286 36.3781C109.479 36.1675 109.76 36.0621 110.131 36.0621Z" fill="white"/>
<path d="M98.0551 31.9993C98.2328 32.4658 98.3883 32.8869 98.5216 33.2631C98.655 33.6243 98.7883 33.9778 98.9216 34.3238C99.0549 34.6699 99.2029 35.0535 99.3659 35.4748C99.5436 35.9112 99.7065 36.3325 99.8546 36.7387C100.003 37.1449 100.158 37.5587 100.321 37.9799C100.484 38.3862 100.654 38.8225 100.832 39.2889C100.921 39.4995 100.988 39.6574 101.032 39.7628C101.077 39.8682 101.114 39.9208 101.143 39.9208C101.173 39.9208 101.21 39.8682 101.254 39.7628C101.299 39.6574 101.358 39.507 101.432 39.3115C101.625 38.845 101.802 38.3937 101.965 37.9573C102.143 37.521 102.313 37.0848 102.476 36.6484C102.654 36.197 102.824 35.7457 102.987 35.2942C103.135 34.9031 103.276 34.542 103.409 34.2109C103.543 33.8799 103.676 33.5415 103.809 33.1955C103.943 32.8343 104.076 32.4432 104.209 32.0219C104.328 31.6607 104.513 31.4275 104.765 31.3222C105.016 31.217 105.268 31.2094 105.52 31.2997C105.786 31.3749 105.979 31.5404 106.098 31.7962C106.231 32.0369 106.238 32.3378 106.12 32.699C105.972 33.1352 105.824 33.534 105.675 33.895C105.542 34.2411 105.409 34.5872 105.276 34.9332C105.142 35.2642 104.994 35.6403 104.831 36.0616C104.698 36.3926 104.565 36.7311 104.431 37.0772C104.313 37.4082 104.172 37.7692 104.009 38.1605C103.861 38.5517 103.691 38.9954 103.498 39.4919C103.32 39.9735 103.113 40.5302 102.876 41.162C102.654 41.7488 102.395 42.1927 102.099 42.4936C101.817 42.7795 101.514 42.9224 101.188 42.9224C100.877 42.9375 100.573 42.802 100.277 42.5162C99.9805 42.2303 99.7139 41.794 99.4769 41.2072C99.1214 40.3647 98.8253 39.6574 98.5883 39.0857C98.3661 38.4989 98.1735 37.9875 98.0107 37.5511C97.8477 37.1148 97.6774 36.6785 97.4997 36.2422C97.3368 35.8058 97.1886 35.4147 97.0553 35.0686C96.922 34.7075 96.7888 34.3464 96.6555 33.9853C96.5221 33.6092 96.3666 33.1879 96.1889 32.7214C96.0556 32.3604 96.0482 32.0594 96.1666 31.8187C96.2852 31.563 96.4703 31.39 96.722 31.2997C96.9739 31.1944 97.2256 31.1944 97.4774 31.2997C97.7292 31.4049 97.9218 31.6383 98.0551 31.9993Z" fill="white"/>
<path d="M87.5232 36.0621C87.9527 36.0621 88.4118 36.0621 88.9006 36.0621C89.3893 36.0621 89.8855 36.0621 90.3891 36.0621C90.9075 36.0621 91.4111 36.0621 91.8999 36.0621C92.0776 36.0621 92.2332 36.0696 92.3664 36.0847C92.5146 36.0847 92.6256 36.0772 92.6997 36.0621C92.7886 36.032 92.8478 35.9869 92.8775 35.9266C92.9219 35.8665 92.9292 35.7611 92.8996 35.6107C92.7959 35.1293 92.6108 34.7155 92.3442 34.3694C92.0924 34.0084 91.7666 33.7376 91.3667 33.557C90.9668 33.3615 90.5151 33.2636 90.0115 33.2636C89.3449 33.2636 88.7524 33.4216 88.2341 33.7376C87.7305 34.0535 87.3306 34.5049 87.0343 35.0917C86.7529 35.6634 86.6123 36.333 86.6123 37.1002C86.6123 37.9127 86.7678 38.6048 87.0788 39.1765C87.3898 39.7482 87.812 40.1846 88.3451 40.4855C88.8931 40.7714 89.5153 40.9143 90.2114 40.9143C90.5224 40.9143 90.8482 40.8842 91.189 40.824C91.5296 40.7488 91.8703 40.6434 92.2109 40.5081C92.5663 40.3727 92.9219 40.2072 93.2773 40.0116C93.6032 39.8159 93.892 39.7633 94.1438 39.8536C94.4104 39.9439 94.6103 40.1094 94.7437 40.3501C94.877 40.5757 94.9066 40.824 94.8326 41.0949C94.7733 41.3657 94.5807 41.5914 94.2548 41.7719C93.7957 42.0427 93.3365 42.2684 92.8775 42.4489C92.4183 42.6144 91.9591 42.7348 91.5 42.81C91.0557 42.9003 90.6261 42.9454 90.2114 42.9454C89.1746 42.9454 88.2341 42.7122 87.3898 42.2458C86.5456 41.7795 85.8717 41.1099 85.3681 40.2372C84.8645 39.3646 84.6128 38.3189 84.6128 37.1002C84.6128 35.9266 84.8497 34.9036 85.3237 34.0309C85.7976 33.1432 86.4419 32.4586 87.2565 31.9772C88.0711 31.4807 88.9894 31.2324 90.0115 31.2324C90.8261 31.2324 91.574 31.3979 92.2553 31.7289C92.9366 32.0599 93.4995 32.5264 93.9438 33.1282C94.403 33.715 94.7066 34.4222 94.8547 35.2497C94.9436 35.716 94.9584 36.1298 94.8991 36.4909C94.8399 36.852 94.6918 37.1529 94.4548 37.3937C94.2178 37.6193 93.8845 37.7924 93.4551 37.9127C93.0403 38.0331 92.5219 38.0932 91.8999 38.0932C91.426 38.0932 90.989 38.0932 90.5891 38.0932C90.1892 38.0932 89.8115 38.0932 89.456 38.0932C89.1153 38.0932 88.7821 38.0932 88.4563 38.0932C88.1453 38.0932 87.8342 38.0932 87.5232 38.0932C87.1529 38.0932 86.8715 37.9954 86.6789 37.7999C86.4863 37.5892 86.39 37.3485 86.39 37.0777C86.39 36.8069 86.4863 36.5737 86.6789 36.3781C86.8715 36.1675 87.1529 36.0621 87.5232 36.0621Z" fill="white"/>
<path d="M70.9653 41.5907C70.9653 41.3801 70.9653 41.1469 70.9653 40.8911C70.9653 40.6203 70.9653 40.2817 70.9653 39.8755C70.9653 39.4542 70.9653 38.9126 70.9653 38.2506C70.9653 37.7843 70.9653 37.3027 70.9653 36.8062C70.9653 36.2947 70.9653 35.7681 70.9653 35.2265C70.9653 34.6697 70.9653 34.0829 70.9653 33.4661C70.9653 32.8492 70.9653 32.1947 70.9653 31.5027C70.9653 30.6151 70.9875 29.9003 71.0319 29.3587C71.0912 28.817 71.1948 28.4033 71.3429 28.1175C71.4911 27.8165 71.6984 27.6134 71.9651 27.5081C72.2464 27.4027 72.602 27.3501 73.0314 27.3501C73.2684 27.3501 73.4832 27.3501 73.6758 27.3501C73.8831 27.3501 74.0905 27.3501 74.2978 27.3501C74.5052 27.3501 74.7495 27.3501 75.031 27.3501C75.3272 27.3501 75.6901 27.3501 76.1196 27.3501C76.9935 27.3501 77.7858 27.4781 78.4968 27.7337C79.2077 27.9746 79.8298 28.3205 80.3631 28.7719C80.9111 29.2232 81.3701 29.7649 81.7404 30.3968C82.1107 31.0287 82.3847 31.7359 82.5625 32.5182C82.755 33.2856 82.8513 34.1131 82.8513 35.0007C82.8513 36.1142 82.681 37.1447 82.3403 38.0927C82.0144 39.0255 81.5405 39.838 80.9184 40.53C80.3112 41.2221 79.5855 41.7562 78.7411 42.1324C77.897 42.5085 76.9565 42.6966 75.9196 42.6966C75.6234 42.6966 75.3272 42.6966 75.031 42.6966C74.7495 42.6966 74.4681 42.6966 74.1868 42.6966C73.8165 42.6966 73.535 42.5988 73.3425 42.4032C73.1499 42.1925 73.0537 41.9518 73.0537 41.681C73.0537 41.4102 73.1499 41.1769 73.3425 40.9814C73.535 40.7707 73.8165 40.6655 74.1868 40.6655C74.4978 40.6655 74.7865 40.6655 75.0532 40.6655C75.3198 40.6655 75.6086 40.6655 75.9196 40.6655C76.6898 40.6655 77.3785 40.53 77.9858 40.2593C78.5931 39.9733 79.104 39.5822 79.5187 39.0857C79.9483 38.5741 80.2742 37.9722 80.4964 37.2802C80.7332 36.5881 80.8518 35.8282 80.8518 35.0007C80.8518 34.1732 80.7555 33.4209 80.5629 32.744C80.3704 32.0518 80.0816 31.4575 79.6965 30.961C79.3114 30.4645 78.8227 30.0809 78.2302 29.81C77.6378 29.5242 76.9342 29.3812 76.1196 29.3812C75.6901 29.3812 75.3272 29.3812 75.031 29.3812C74.7348 29.3812 74.4534 29.3812 74.1868 29.3812C73.9349 29.3812 73.6313 29.3812 73.2759 29.3812C73.187 29.3812 73.1129 29.4189 73.0537 29.4941C73.0093 29.5542 72.9796 29.6521 72.9649 29.7875C72.95 29.9078 72.9426 30.0583 72.9426 30.2388C72.9426 30.4194 72.9426 30.6151 72.9426 30.8256C72.9574 31.0362 72.9649 31.262 72.9649 31.5027C72.9649 32.1195 72.9649 32.774 72.9649 33.4661C72.9649 34.1583 72.9649 34.903 72.9649 35.7004C72.9649 36.4827 72.9649 37.3328 72.9649 38.2506C72.9649 38.9879 72.9649 39.552 72.9649 39.9432C72.9649 40.3345 72.9649 40.6504 72.9649 40.8911C72.9649 41.1168 72.9649 41.35 72.9649 41.5907C72.9649 41.9669 72.8611 42.2527 72.6537 42.4483C72.4613 42.644 72.2317 42.7417 71.9651 42.7417C71.6984 42.7417 71.4615 42.644 71.2541 42.4483C71.0615 42.2527 70.9653 41.9669 70.9653 41.5907Z" fill="white"/>
<path d="M143.517 25.176C143.591 25.0105 143.666 24.8375 143.739 24.6569C143.829 24.4764 143.91 24.2958 143.983 24.1152C144.073 23.9348 144.154 23.7542 144.229 23.5736C144.317 23.4081 144.399 23.2351 144.473 23.0545C144.532 22.9041 144.591 22.7612 144.65 22.6257C144.709 22.4903 144.769 22.3625 144.827 22.2421C144.887 22.1067 144.939 21.9788 144.983 21.8585C145.087 21.6327 145.124 21.407 145.094 21.1814C145.064 20.9407 144.99 20.6849 144.873 20.414C144.754 20.1433 144.606 19.8423 144.427 19.5113C144.25 19.1803 144.064 18.8117 143.873 18.4055C143.724 18.0895 143.547 17.7134 143.339 17.277C143.132 16.8257 142.91 16.3518 142.673 15.8553C142.45 15.3437 142.221 14.8322 141.984 14.3206C141.747 13.809 141.524 13.3276 141.317 12.8762C141.17 12.5302 141.147 12.2293 141.251 11.9735C141.354 11.7177 141.524 11.5372 141.761 11.4318C141.999 11.3115 142.243 11.2964 142.496 11.3867C142.761 11.4619 142.976 11.6726 143.14 12.0186C143.347 12.485 143.561 12.974 143.784 13.4855C144.02 13.982 144.25 14.4786 144.473 14.9751C144.709 15.4716 144.924 15.9381 145.117 16.3743C145.324 16.8106 145.502 17.1867 145.65 17.5028C146.006 18.24 146.294 18.8568 146.516 19.3533C146.753 19.8348 146.916 20.2561 147.005 20.6172C147.109 20.9633 147.139 21.2943 147.094 21.6102C147.064 21.9261 146.96 22.2873 146.783 22.6935C146.739 22.7987 146.679 22.9192 146.605 23.0545C146.546 23.19 146.487 23.3329 146.427 23.4833C146.369 23.6338 146.309 23.7767 146.25 23.9122C146.176 24.0927 146.102 24.2732 146.027 24.4538C145.953 24.6343 145.872 24.8149 145.783 24.9955C145.709 25.176 145.635 25.3489 145.561 25.5145C145.487 25.695 145.413 25.8681 145.339 26.0336C145.206 26.3044 145.036 26.4925 144.827 26.5977C144.636 26.7182 144.436 26.7632 144.229 26.7332C144.036 26.7031 143.857 26.6128 143.694 26.4624C143.547 26.327 143.45 26.1464 143.406 25.9208C143.361 25.695 143.399 25.4468 143.517 25.176ZM151.159 12.8537C151.042 13.1245 150.915 13.4028 150.782 13.6887C150.663 13.9745 150.538 14.2604 150.405 14.5462C150.286 14.8322 150.167 15.103 150.049 15.3588C149.945 15.6145 149.849 15.8402 149.76 16.0358C149.449 16.758 149.1 17.5403 148.716 18.3829C148.346 19.2255 147.99 20.0304 147.649 20.7978C147.309 21.565 147.027 22.197 146.805 22.6935C146.746 22.8289 146.687 22.9642 146.627 23.0997C146.569 23.2502 146.502 23.3931 146.427 23.5285C146.369 23.6639 146.309 23.8068 146.25 23.9572C146.176 24.1378 146.102 24.3109 146.027 24.4764C145.953 24.6569 145.879 24.83 145.806 24.9955C145.732 25.176 145.65 25.3489 145.561 25.5145C145.487 25.695 145.413 25.8681 145.339 26.0336C145.206 26.3044 145.036 26.4925 144.827 26.5977C144.636 26.7182 144.436 26.7632 144.229 26.7332C144.036 26.7031 143.857 26.6128 143.694 26.4624C143.547 26.327 143.45 26.1464 143.406 25.9208C143.361 25.695 143.399 25.4468 143.517 25.176C143.591 25.0105 143.666 24.8375 143.739 24.6569C143.829 24.4764 143.917 24.2958 144.006 24.1152C144.094 23.9348 144.176 23.7542 144.25 23.5736C144.339 23.3931 144.42 23.22 144.494 23.0545C144.554 22.9041 144.606 22.7687 144.65 22.6483C144.709 22.528 144.761 22.4076 144.806 22.2873C144.864 22.1669 144.924 22.0315 144.983 21.8809C145.132 21.535 145.324 21.1062 145.561 20.5946C145.797 20.068 146.05 19.4962 146.316 18.8794C146.597 18.2625 146.879 17.6382 147.16 17.0063C147.442 16.3743 147.702 15.78 147.939 15.2233C148.056 14.9675 148.19 14.6591 148.338 14.298C148.502 13.937 148.672 13.5608 148.849 13.1696C149.027 12.7634 149.19 12.3872 149.338 12.0412C149.486 11.6952 149.686 11.477 149.938 11.3867C150.205 11.2964 150.456 11.304 150.693 11.4093C150.945 11.5146 151.123 11.6952 151.226 11.9509C151.345 12.2067 151.323 12.5076 151.159 12.8537Z" fill="white"/>
<path d="M135.965 21.8808C135.965 21.5197 135.965 21.1962 135.965 20.9103C135.965 20.6245 135.965 20.3385 135.965 20.0527C135.965 19.7668 135.965 19.4358 135.965 19.0597C135.965 18.5632 135.965 18.0892 135.965 17.6379C135.965 17.1715 135.965 16.69 135.965 16.1935C135.965 15.682 135.965 15.1177 135.965 14.5009C135.965 13.884 135.965 13.1618 135.965 12.3343C135.965 12.0184 135.965 11.6874 135.965 11.3413C135.965 10.9953 135.965 10.6643 135.965 10.3483C135.965 10.0173 135.965 9.73897 135.965 9.51328C135.965 9.13715 136.061 8.85128 136.254 8.65569C136.461 8.4601 136.698 8.3623 136.965 8.3623C137.231 8.3623 137.461 8.4601 137.654 8.65569C137.861 8.85128 137.965 9.13715 137.965 9.51328C137.965 9.76906 137.965 9.99475 137.965 10.1903C137.965 10.3859 137.965 10.5815 137.965 10.7771C137.965 10.9727 137.965 11.1984 137.965 11.4542C137.965 11.6949 137.965 11.9883 137.965 12.3343C137.965 12.891 137.965 13.4176 137.965 13.9141C137.965 14.3955 137.965 14.8921 137.965 15.4036C137.965 15.9152 137.965 16.4643 137.965 17.0511C137.965 17.6379 137.965 18.3074 137.965 19.0597C137.965 19.466 137.965 19.8045 137.965 20.0752C137.965 20.3461 137.965 20.6169 137.965 20.8878C137.965 21.1435 137.965 21.4745 137.965 21.8808C137.965 22.2569 137.861 22.5427 137.654 22.7383C137.461 22.934 137.231 23.0318 136.965 23.0318C136.698 23.0318 136.461 22.9415 136.254 22.7609C136.061 22.5653 135.965 22.272 135.965 21.8808ZM139.542 13.5756C139.32 13.5756 139.105 13.5756 138.898 13.5756C138.691 13.5756 138.483 13.5756 138.275 13.5756C137.831 13.5756 137.417 13.5756 137.031 13.5756C136.661 13.5756 136.254 13.5756 135.809 13.5756C135.677 13.5756 135.551 13.5756 135.432 13.5756C135.314 13.5756 135.181 13.5756 135.032 13.5756C134.899 13.5756 134.758 13.5756 134.609 13.5756C134.239 13.5756 133.958 13.4777 133.765 13.2822C133.574 13.0715 133.477 12.8308 133.477 12.56C133.477 12.2892 133.574 12.056 133.765 11.8604C133.958 11.6498 134.239 11.5444 134.609 11.5444C134.802 11.5444 134.958 11.5444 135.077 11.5444C135.195 11.5444 135.307 11.5444 135.409 11.5444C135.528 11.5444 135.662 11.5444 135.809 11.5444C136.224 11.5444 136.632 11.5444 137.031 11.5444C137.447 11.5444 137.861 11.5444 138.275 11.5444C138.512 11.5444 138.72 11.5444 138.898 11.5444C139.091 11.5444 139.305 11.5444 139.542 11.5444C139.912 11.5444 140.194 11.6498 140.387 11.8604C140.578 12.056 140.675 12.2892 140.675 12.56C140.675 12.8308 140.578 13.0715 140.387 13.2822C140.194 13.4777 139.912 13.5756 139.542 13.5756Z" fill="white"/>
<path d="M129.757 21.8808C129.757 21.5649 129.757 21.2414 129.757 20.9104C129.757 20.5794 129.757 20.2635 129.757 19.9626C129.757 19.6467 129.757 19.3457 129.757 19.0599C129.757 18.5483 129.757 18.1044 129.757 17.7283C129.757 17.3521 129.757 16.976 129.757 16.5998C129.757 16.2237 129.757 15.7798 129.757 15.2684C129.757 14.9825 129.757 14.6967 129.757 14.4107C129.757 14.1248 129.757 13.8239 129.757 13.508C129.757 13.177 129.757 12.8234 129.757 12.4473C129.757 12.0712 129.853 11.7928 130.045 11.6123C130.253 11.4167 130.49 11.3189 130.756 11.3189C131.023 11.3189 131.253 11.4167 131.445 11.6123C131.653 11.7928 131.756 12.0712 131.756 12.4473C131.756 12.8385 131.756 13.1845 131.756 13.4854C131.756 13.7713 131.756 14.0571 131.756 14.3431C131.756 14.6139 131.756 14.9223 131.756 15.2684C131.756 15.6143 131.756 16.0206 131.756 16.487C131.756 16.9383 131.756 17.3973 131.756 17.8637C131.756 18.3151 131.756 18.7138 131.756 19.0599C131.756 19.4058 131.756 19.7294 131.756 20.0303C131.756 20.3311 131.756 20.6321 131.756 20.933C131.756 21.2188 131.756 21.5349 131.756 21.8808C131.756 22.257 131.653 22.5428 131.445 22.7385C131.253 22.9341 131.023 23.0318 130.756 23.0318C130.49 23.0318 130.253 22.9416 130.045 22.7611C129.853 22.5654 129.757 22.2721 129.757 21.8808ZM129.757 8.43012C129.757 8.26462 129.757 8.12921 129.757 8.02389C129.757 7.91858 129.757 7.81326 129.757 7.70793C129.757 7.60261 129.757 7.47473 129.757 7.32428C129.757 6.97823 129.853 6.72245 130.045 6.55695C130.253 6.37641 130.49 6.28613 130.756 6.28613C131.023 6.28613 131.253 6.37641 131.445 6.55695C131.653 6.72245 131.756 6.97823 131.756 7.32428C131.756 7.47473 131.756 7.60261 131.756 7.70793C131.756 7.81326 131.756 7.91858 131.756 8.02389C131.756 8.12921 131.756 8.26462 131.756 8.43012C131.756 8.77617 131.653 9.03947 131.445 9.22001C131.253 9.38552 131.023 9.46827 130.756 9.46827C130.49 9.46827 130.253 9.38552 130.045 9.22001C129.853 9.03947 129.757 8.77617 129.757 8.43012Z" fill="white"/>
<path d="M126.742 13.5081C126.061 13.4029 125.484 13.4254 125.009 13.5758C124.535 13.7113 124.151 13.9445 123.854 14.2755C123.572 14.5914 123.365 14.9751 123.232 15.4265C123.099 15.8779 123.032 16.3668 123.032 16.8934C123.032 17.2394 123.032 17.6381 123.032 18.0895C123.032 18.5409 123.032 18.9998 123.032 19.4662C123.032 19.9326 123.032 20.3764 123.032 20.7977C123.032 21.219 123.032 21.58 123.032 21.881C123.032 22.1819 122.965 22.4226 122.832 22.6032C122.699 22.7838 122.528 22.9041 122.321 22.9643C122.128 23.0395 121.929 23.0471 121.721 22.9868C121.529 22.9267 121.366 22.8064 121.232 22.6258C121.099 22.4301 121.032 22.1819 121.032 21.881C121.032 21.5651 121.032 21.1738 121.032 20.7074C121.032 20.226 121.032 19.7295 121.032 19.2179C121.032 18.6913 121.032 18.1948 121.032 17.7284C121.032 17.262 121.032 16.8858 121.032 16.6C121.032 16.1787 121.032 15.7349 121.032 15.2685C121.032 14.8021 121.032 14.3356 121.032 13.8692C121.032 13.3878 121.032 12.9439 121.032 12.5377C121.032 12.1465 121.129 11.8607 121.321 11.6801C121.529 11.4845 121.765 11.3867 122.032 11.3867C122.299 11.3867 122.528 11.4845 122.721 11.6801C122.928 11.8757 123.032 12.1616 123.032 12.5377C123.032 13.0342 123.032 13.5006 123.032 13.9369C123.032 14.3582 123.032 14.787 123.032 15.2233C123.032 15.6446 123.032 16.1035 123.032 16.6C123.032 16.7955 123.032 17.1191 123.032 17.5704C123.032 18.0219 123.032 18.5258 123.032 19.0826C123.032 19.6392 123.032 20.1733 123.032 20.6848C123.032 21.1813 123.032 21.58 123.032 21.881C123.032 22.1819 122.965 22.4226 122.832 22.6032C122.699 22.7838 122.528 22.9041 122.321 22.9643C122.128 23.0395 121.929 23.0471 121.721 22.9868C121.529 22.9267 121.366 22.8064 121.232 22.6258C121.099 22.4301 121.032 22.1819 121.032 21.881C121.032 21.4597 121.032 20.9482 121.032 20.3463C121.032 19.7446 121.032 19.1653 121.032 18.6085C121.032 18.0519 121.032 17.6306 121.032 17.3448C121.032 16.6978 121.106 16.0659 121.255 15.4491C121.418 14.8321 121.655 14.2604 121.965 13.7339C122.277 13.2072 122.669 12.7559 123.144 12.3797C123.617 12.0036 124.172 11.7328 124.809 11.5673C125.461 11.4018 126.194 11.3717 127.009 11.477C127.38 11.5372 127.645 11.6801 127.808 11.9058C127.971 12.1315 128.031 12.3797 127.987 12.6505C127.957 12.9213 127.831 13.1471 127.608 13.3275C127.401 13.493 127.112 13.5533 126.742 13.5081Z" fill="white"/>
<path d="M110.287 24.0245C110.895 24.3254 111.531 24.5059 112.198 24.5661C112.865 24.6262 113.494 24.5585 114.086 24.363C114.694 24.1825 115.183 23.8665 115.553 23.4151C115.923 22.9787 116.108 22.3995 116.108 21.6773C116.108 20.6091 116.108 19.6537 116.108 18.8112C116.108 17.9535 116.108 17.1712 116.108 16.464C116.108 15.8472 115.975 15.3055 115.708 14.8391C115.457 14.3728 115.101 14.0116 114.642 13.7558C114.198 13.485 113.679 13.3496 113.087 13.3496C112.642 13.3496 112.235 13.4324 111.865 13.5979C111.509 13.7483 111.198 13.9665 110.932 14.2523C110.665 14.5232 110.458 14.8542 110.31 15.2453C110.161 15.6216 110.087 16.0427 110.087 16.5092C110.087 16.9756 110.161 17.4119 110.31 17.8182C110.458 18.2093 110.665 18.5479 110.932 18.8338C111.198 19.1045 111.517 19.3227 111.887 19.4882C112.257 19.6387 112.665 19.7139 113.109 19.7139C113.553 19.7139 113.961 19.6387 114.331 19.4882C114.701 19.3377 115.012 19.1196 115.264 18.8338C115.531 18.5479 115.738 18.2168 115.886 17.8408C116.034 17.4495 116.108 17.0208 116.108 16.5543C116.108 16.133 116.108 15.6892 116.108 15.2227C116.108 14.7413 116.108 14.2599 116.108 13.7784C116.108 13.297 116.108 12.8531 116.108 12.4469C116.108 12.0557 116.204 11.7698 116.397 11.5893C116.604 11.3937 116.841 11.2959 117.108 11.2959C117.375 11.2959 117.604 11.3937 117.797 11.5893C118.004 11.7849 118.108 12.0707 118.108 12.4469C118.108 12.9434 118.108 13.4098 118.108 13.8461C118.108 14.2825 118.108 14.7187 118.108 15.1551C118.108 15.5763 118.108 16.0427 118.108 16.5543C118.108 17.3066 117.982 17.9987 117.73 18.6306C117.478 19.2625 117.123 19.8117 116.664 20.2781C116.219 20.7445 115.694 21.1056 115.086 21.3614C114.479 21.6172 113.82 21.745 113.109 21.745C112.398 21.745 111.739 21.6172 111.132 21.3614C110.524 21.1056 109.991 20.7445 109.532 20.2781C109.073 19.7966 108.717 19.24 108.466 18.608C108.214 17.9611 108.088 17.2615 108.088 16.5092C108.088 15.5162 108.31 14.6285 108.754 13.8461C109.199 13.0638 109.799 12.4469 110.554 11.9955C111.309 11.5441 112.154 11.3185 113.087 11.3185C114.049 11.3185 114.908 11.5441 115.664 11.9955C116.419 12.4318 117.012 13.0412 117.441 13.8235C117.885 14.5909 118.108 15.471 118.108 16.464C118.108 17.5173 118.108 18.4726 118.108 19.3303C118.108 20.1878 118.108 20.9702 118.108 21.6773C118.108 22.565 117.93 23.3399 117.574 24.0019C117.219 24.6639 116.738 25.1979 116.13 25.6043C115.523 26.0255 114.842 26.3114 114.086 26.4618C113.331 26.6273 112.546 26.6574 111.731 26.5521C110.932 26.4618 110.154 26.2362 109.399 25.875C109.073 25.7095 108.865 25.4914 108.777 25.2205C108.703 24.9497 108.717 24.694 108.821 24.4532C108.94 24.2125 109.125 24.0394 109.377 23.9342C109.643 23.8288 109.947 23.859 110.287 24.0245Z" fill="white"/>
<path d="M98.8264 16.1485C99.256 16.1485 99.7152 16.1485 100.204 16.1485C100.693 16.1485 101.189 16.1485 101.692 16.1485C102.211 16.1485 102.714 16.1485 103.203 16.1485C103.381 16.1485 103.536 16.156 103.67 16.1711C103.818 16.1711 103.929 16.1635 104.003 16.1485C104.092 16.1183 104.151 16.0733 104.181 16.0131C104.225 15.9528 104.233 15.8476 104.203 15.6971C104.099 15.2156 103.914 14.8019 103.648 14.4558C103.396 14.0948 103.07 13.8239 102.67 13.6433C102.27 13.4478 101.818 13.35 101.315 13.35C100.648 13.35 100.056 13.508 99.5375 13.8239C99.0339 14.1399 98.634 14.5913 98.3377 15.1781C98.0563 15.7498 97.9155 16.4193 97.9155 17.1866C97.9155 17.999 98.0711 18.6912 98.3821 19.2629C98.6931 19.8346 99.1153 20.271 99.6485 20.5718C100.196 20.8578 100.819 21.0007 101.515 21.0007C101.826 21.0007 102.152 20.9705 102.492 20.9104C102.833 20.8352 103.174 20.7298 103.514 20.5944C103.87 20.4591 104.225 20.2936 104.581 20.0979C104.906 19.9023 105.195 19.8497 105.447 19.94C105.714 20.0302 105.914 20.1957 106.047 20.4365C106.18 20.6621 106.21 20.9104 106.136 21.1812C106.077 21.4521 105.884 21.6777 105.558 21.8583C105.099 22.129 104.64 22.3548 104.181 22.5353C103.722 22.7008 103.262 22.8212 102.803 22.8964C102.359 22.9867 101.929 23.0318 101.515 23.0318C100.478 23.0318 99.5374 22.7986 98.6931 22.3322C97.8489 21.8658 97.1751 21.1963 96.6715 20.3236C96.1679 19.451 95.916 18.4054 95.916 17.1866C95.916 16.0131 96.153 14.99 96.627 14.1174C97.1009 13.2296 97.7452 12.5451 98.5598 12.0636C99.3745 11.5671 100.293 11.3188 101.315 11.3188C102.129 11.3188 102.877 11.4843 103.559 11.8153C104.24 12.1463 104.803 12.6128 105.247 13.2145C105.706 13.8013 106.01 14.5085 106.158 15.336C106.247 15.8024 106.262 16.2162 106.202 16.5773C106.143 16.9383 105.995 17.2393 105.758 17.48C105.521 17.7057 105.188 17.8787 104.758 17.999C104.344 18.1194 103.825 18.1796 103.203 18.1796C102.729 18.1796 102.292 18.1796 101.892 18.1796C101.493 18.1796 101.115 18.1796 100.759 18.1796C100.419 18.1796 100.085 18.1796 99.7596 18.1796C99.4486 18.1796 99.1376 18.1796 98.8264 18.1796C98.4563 18.1796 98.1748 18.0818 97.9822 17.8863C97.7897 17.6755 97.6934 17.4348 97.6934 17.1641C97.6934 16.8932 97.7897 16.6601 97.9822 16.4644C98.1748 16.2538 98.4563 16.1485 98.8264 16.1485Z" fill="white"/>
<path d="M90.3164 21.8808C90.3164 21.5197 90.3164 21.1962 90.3164 20.9103C90.3164 20.6245 90.3164 20.3385 90.3164 20.0527C90.3164 19.7668 90.3164 19.4358 90.3164 19.0597C90.3164 18.5632 90.3164 18.0892 90.3164 17.6379C90.3164 17.1715 90.3164 16.69 90.3164 16.1935C90.3164 15.682 90.3164 15.1177 90.3164 14.5009C90.3164 13.884 90.3164 13.1618 90.3164 12.3343C90.3164 12.0184 90.3164 11.6874 90.3164 11.3413C90.3164 10.9953 90.3164 10.6643 90.3164 10.3483C90.3164 10.0173 90.3164 9.73897 90.3164 9.51328C90.3164 9.13715 90.4127 8.85128 90.6053 8.65569C90.8127 8.4601 91.0496 8.3623 91.3161 8.3623C91.5829 8.3623 91.8124 8.4601 92.0049 8.65569C92.2123 8.85128 92.3159 9.13715 92.3159 9.51328C92.3159 9.76906 92.3159 9.99475 92.3159 10.1903C92.3159 10.3859 92.3159 10.5815 92.3159 10.7771C92.3159 10.9727 92.3159 11.1984 92.3159 11.4542C92.3159 11.6949 92.3159 11.9883 92.3159 12.3343C92.3159 12.891 92.3159 13.4176 92.3159 13.9141C92.3159 14.3955 92.3159 14.8921 92.3159 15.4036C92.3159 15.9152 92.3159 16.4643 92.3159 17.0511C92.3159 17.6379 92.3159 18.3074 92.3159 19.0597C92.3159 19.466 92.3159 19.8045 92.3159 20.0752C92.3159 20.3461 92.3159 20.6169 92.3159 20.8878C92.3159 21.1435 92.3159 21.4745 92.3159 21.8808C92.3159 22.2569 92.2123 22.5427 92.0049 22.7383C91.8124 22.934 91.5829 23.0318 91.3161 23.0318C91.0496 23.0318 90.8127 22.9415 90.6053 22.7609C90.4127 22.5653 90.3164 22.272 90.3164 21.8808ZM93.8934 13.5756C93.6712 13.5756 93.4564 13.5756 93.2491 13.5756C93.0417 13.5756 92.8344 13.5756 92.6271 13.5756C92.1826 13.5756 91.768 13.5756 91.3829 13.5756C91.0126 13.5756 90.6053 13.5756 90.1609 13.5756C90.0276 13.5756 89.9018 13.5756 89.7832 13.5756C89.6648 13.5756 89.5315 13.5756 89.3833 13.5756C89.25 13.5756 89.1093 13.5756 88.9612 13.5756C88.5909 13.5756 88.3096 13.4777 88.117 13.2822C87.9244 13.0715 87.8281 12.8308 87.8281 12.56C87.8281 12.2892 87.9244 12.056 88.117 11.8604C88.3096 11.6498 88.5909 11.5444 88.9612 11.5444C89.1538 11.5444 89.3093 11.5444 89.4278 11.5444C89.5462 11.5444 89.6573 11.5444 89.7611 11.5444C89.8795 11.5444 90.0128 11.5444 90.1609 11.5444C90.5757 11.5444 90.983 11.5444 91.3829 11.5444C91.7976 11.5444 92.2123 11.5444 92.6271 11.5444C92.8639 11.5444 93.0714 11.5444 93.2491 11.5444C93.4417 11.5444 93.6564 11.5444 93.8934 11.5444C94.2637 11.5444 94.545 11.6498 94.7376 11.8604C94.9302 12.056 95.0265 12.2892 95.0265 12.56C95.0265 12.8308 94.9302 13.0715 94.7376 13.2822C94.545 13.4777 94.2637 13.5756 93.8934 13.5756Z" fill="white"/>
<path d="M84.5295 21.8805C84.5295 21.5644 84.5295 21.2334 84.5295 20.8875C84.5295 20.5263 84.5295 20.1727 84.5295 19.8268C84.5295 19.4656 84.5295 19.1346 84.5295 18.8338C84.5295 18.4726 84.5295 18.0739 84.5295 17.6376C84.5295 17.1863 84.5295 16.6972 84.5295 16.1707C84.5295 15.5388 84.4258 15.0197 84.2185 14.6135C84.0259 14.1922 83.7372 13.8762 83.352 13.6655C82.967 13.455 82.493 13.3496 81.9301 13.3496C81.4414 13.3496 80.9971 13.4324 80.5972 13.5979C80.1973 13.7483 79.8492 13.9739 79.553 14.2749C79.2716 14.5758 79.0494 14.952 78.8864 15.4033C78.7235 15.8547 78.6421 16.3737 78.6421 16.9605C78.6421 17.2163 78.6421 17.5548 78.6421 17.9761C78.6421 18.3823 78.6421 18.8187 78.6421 19.2851C78.6421 19.7514 78.6421 20.2179 78.6421 20.6843C78.6421 21.1357 78.6421 21.5344 78.6421 21.8805C78.6421 22.1814 78.5754 22.4296 78.4421 22.6253C78.3088 22.8057 78.1385 22.9261 77.9311 22.9863C77.7386 23.0464 77.5386 23.0464 77.3313 22.9863C77.1387 22.9261 76.9759 22.8057 76.8425 22.6253C76.7092 22.4296 76.6426 22.1814 76.6426 21.8805C76.6426 21.5946 76.6426 21.2109 76.6426 20.7295C76.6426 20.233 76.6426 19.6988 76.6426 19.1271C76.6426 18.5403 76.6426 17.9761 76.6426 17.4345C76.6426 16.8778 76.6426 16.3963 76.6426 15.9901C76.6426 15.5839 76.6426 15.3055 76.6426 15.1551C76.6426 14.8542 76.6426 14.5532 76.6426 14.2523C76.6426 13.9515 76.6426 13.6505 76.6426 13.3496C76.6426 13.0487 76.6426 12.7478 76.6426 12.4469C76.6426 12.0707 76.7389 11.7849 76.9313 11.5893C77.1387 11.3937 77.3757 11.2959 77.6423 11.2959C77.9089 11.2959 78.1385 11.3937 78.3311 11.5893C78.5384 11.7849 78.6421 12.0707 78.6421 12.4469C78.6421 12.7779 78.6421 13.0863 78.6421 13.3722C78.6421 13.658 78.6421 13.9439 78.6421 14.2297C78.6421 14.5157 78.6421 14.8241 78.6421 15.1551C78.6421 15.2453 78.6421 15.4936 78.6421 15.8998C78.6421 16.291 78.6421 16.7725 78.6421 17.3443C78.6421 17.9009 78.6421 18.4802 78.6421 19.082C78.6421 19.6687 78.6421 20.2179 78.6421 20.7295C78.6421 21.226 78.6421 21.6096 78.6421 21.8805C78.6421 22.1814 78.5754 22.4296 78.4421 22.6253C78.3088 22.8057 78.1385 22.9261 77.9311 22.9863C77.7386 23.0464 77.5386 23.0464 77.3313 22.9863C77.1387 22.9261 76.9759 22.8057 76.8425 22.6253C76.7092 22.4296 76.6426 22.1814 76.6426 21.8805C76.6426 21.5344 76.6426 21.1733 76.6426 20.7972C76.6426 20.406 76.6426 20.0072 76.6426 19.601C76.6426 19.1948 76.6426 18.7886 76.6426 18.3823C76.6426 17.9611 76.6426 17.5624 76.6426 17.1863C76.6426 16.4189 76.7759 15.6817 77.0425 14.9745C77.3239 14.2674 77.7089 13.6429 78.1978 13.1014C78.6865 12.5447 79.2641 12.1084 79.9306 11.7924C80.5972 11.4764 81.3155 11.3185 82.0857 11.3185C82.7226 11.3185 83.3076 11.4238 83.8408 11.6344C84.3888 11.8451 84.8628 12.161 85.2627 12.5823C85.6626 12.9885 85.9736 13.4925 86.1958 14.0944C86.418 14.6962 86.529 15.3882 86.529 16.1707C86.529 16.5167 86.529 16.9154 86.529 17.3667C86.529 17.8031 86.529 18.2921 86.529 18.8338C86.529 19.2099 86.529 19.5635 86.529 19.8945C86.529 20.2104 86.529 20.5263 86.529 20.8423C86.529 21.1582 86.529 21.5043 86.529 21.8805C86.529 22.2566 86.4253 22.5425 86.218 22.738C86.0254 22.9337 85.7959 23.0315 85.5293 23.0315C85.2627 23.0315 85.0257 22.9337 84.8184 22.738C84.6258 22.5425 84.5295 22.2566 84.5295 21.8805Z" fill="white"/>
<path d="M71.1875 21.8809C71.1875 21.3844 71.1875 20.9329 71.1875 20.5267C71.1875 20.1205 71.1875 19.7519 71.1875 19.4209C71.1875 19.0749 71.1875 18.7589 71.1875 18.473C71.1875 17.7509 71.1875 17.0136 71.1875 16.2613C71.1875 15.509 71.1875 14.7567 71.1875 14.0045C71.1875 13.2372 71.1875 12.4999 71.1875 11.7928C71.1875 11.4467 71.1875 11.1082 71.1875 10.7772C71.1875 10.4312 71.1875 10.0626 71.1875 9.67138C71.1875 9.28019 71.1875 8.83635 71.1875 8.33984C71.1875 7.96371 71.2838 7.68535 71.4764 7.50481C71.6837 7.30922 71.9207 7.21143 72.1873 7.21143C72.4538 7.21143 72.6834 7.30922 72.876 7.50481C73.0833 7.68535 73.187 7.96371 73.187 8.33984C73.187 8.83635 73.187 9.28019 73.187 9.67138C73.187 10.0626 73.187 10.4312 73.187 10.7772C73.187 11.1082 73.187 11.4467 73.187 11.7928C73.187 12.4999 73.187 13.2372 73.187 14.0045C73.187 14.7567 73.187 15.509 73.187 16.2613C73.187 17.0136 73.187 17.7509 73.187 18.473C73.187 18.7589 73.187 19.0749 73.187 19.4209C73.187 19.7519 73.187 20.1205 73.187 20.5267C73.187 20.9329 73.187 21.3844 73.187 21.8809C73.187 22.272 73.0833 22.5655 72.876 22.761C72.6834 22.9416 72.4538 23.0318 72.1873 23.0318C71.9207 23.0318 71.6837 22.9416 71.4764 22.761C71.2838 22.5655 71.1875 22.272 71.1875 21.8809Z" fill="white"/>
<path d="M110.657 52.7326C110.91 52.7326 111.18 52.7326 111.468 52.7326C111.755 52.7326 112.047 52.7326 112.343 52.7326C112.648 52.7326 112.944 52.7326 113.232 52.7326C113.336 52.7326 113.428 52.737 113.506 52.7458C113.593 52.7458 113.659 52.7415 113.702 52.7326C113.755 52.7149 113.79 52.6884 113.807 52.6529C113.833 52.6175 113.837 52.5556 113.82 52.4671C113.759 52.1838 113.65 51.9404 113.493 51.7369C113.345 51.5245 113.153 51.3652 112.918 51.259C112.683 51.1439 112.417 51.0864 112.121 51.0864C111.729 51.0864 111.381 51.1793 111.076 51.3652C110.779 51.551 110.544 51.8165 110.37 52.1617C110.204 52.4981 110.121 52.8919 110.121 53.3432C110.121 53.8211 110.213 54.2283 110.396 54.5645C110.579 54.9009 110.827 55.1575 111.141 55.3346C111.463 55.5028 111.829 55.5868 112.239 55.5868C112.422 55.5868 112.613 55.5691 112.814 55.5337C113.014 55.4894 113.214 55.4275 113.415 55.3478C113.624 55.2682 113.833 55.1708 114.042 55.0558C114.234 54.9407 114.404 54.9098 114.552 54.9629C114.709 55.016 114.826 55.1133 114.905 55.2549C114.983 55.3877 115.001 55.5337 114.957 55.693C114.922 55.8523 114.809 55.985 114.617 56.0912C114.347 56.2505 114.077 56.3834 113.807 56.4896C113.537 56.5869 113.267 56.6577 112.997 56.702C112.735 56.7551 112.483 56.7816 112.239 56.7816C111.629 56.7816 111.076 56.6444 110.579 56.37C110.082 56.0957 109.686 55.7018 109.39 55.1885C109.093 54.6752 108.945 54.0601 108.945 53.3432C108.945 52.6529 109.085 52.051 109.364 51.5378C109.642 51.0156 110.021 50.6129 110.501 50.3297C110.98 50.0377 111.52 49.8916 112.121 49.8916C112.6 49.8916 113.04 49.9889 113.441 50.1837C113.842 50.3784 114.173 50.6528 114.434 51.0067C114.704 51.352 114.883 51.7679 114.97 52.2547C115.022 52.5289 115.031 52.7723 114.996 52.9847C114.961 53.1971 114.874 53.3742 114.735 53.5158C114.595 53.6486 114.399 53.7504 114.147 53.8211C113.903 53.892 113.598 53.9273 113.232 53.9273C112.953 53.9273 112.696 53.9273 112.461 53.9273C112.226 53.9273 112.003 53.9273 111.794 53.9273C111.594 53.9273 111.398 53.9273 111.206 53.9273C111.023 53.9273 110.84 53.9273 110.657 53.9273C110.44 53.9273 110.274 53.8698 110.161 53.7548C110.047 53.6308 109.991 53.4893 109.991 53.33C109.991 53.1707 110.047 53.0335 110.161 52.9184C110.274 52.7946 110.44 52.7326 110.657 52.7326Z" fill="white"/>
<path d="M106.51 56.105C106.51 55.9192 106.51 55.7245 106.51 55.5209C106.51 55.3085 106.51 55.1006 106.51 54.8969C106.51 54.6845 106.51 54.4899 106.51 54.3128C106.51 54.1004 106.51 53.8659 106.51 53.6093C106.51 53.3438 106.51 53.0561 106.51 52.7464C106.51 52.3747 106.45 52.0693 106.328 51.8303C106.214 51.5825 106.044 51.3967 105.818 51.2728C105.591 51.1488 105.313 51.0869 104.982 51.0869C104.694 51.0869 104.433 51.1356 104.197 51.2329C103.962 51.3214 103.757 51.4542 103.583 51.6313C103.418 51.8082 103.287 52.0295 103.191 52.295C103.095 52.5605 103.047 52.8658 103.047 53.2109C103.047 53.3615 103.047 53.5605 103.047 53.8084C103.047 54.0473 103.047 54.304 103.047 54.5783C103.047 54.8527 103.047 55.1271 103.047 55.4015C103.047 55.667 103.047 55.9015 103.047 56.105C103.047 56.2821 103.008 56.4281 102.93 56.5431C102.851 56.6493 102.751 56.7201 102.629 56.7555C102.516 56.791 102.398 56.791 102.276 56.7555C102.163 56.7201 102.067 56.6493 101.989 56.5431C101.91 56.4281 101.871 56.2821 101.871 56.105C101.871 55.9369 101.871 55.7112 101.871 55.428C101.871 55.136 101.871 54.8217 101.871 54.4855C101.871 54.1403 101.871 53.8084 101.871 53.4898C101.871 53.1623 101.871 52.8791 101.871 52.6402C101.871 52.4012 101.871 52.2375 101.871 52.1489C101.871 51.972 101.871 51.7949 101.871 51.6179C101.871 51.441 101.871 51.2639 101.871 51.0869C101.871 50.91 101.871 50.7329 101.871 50.5559C101.871 50.3346 101.928 50.1665 102.041 50.0515C102.163 49.9364 102.302 49.8789 102.459 49.8789C102.616 49.8789 102.751 49.9364 102.864 50.0515C102.986 50.1665 103.047 50.3346 103.047 50.5559C103.047 50.7506 103.047 50.9321 103.047 51.1002C103.047 51.2683 103.047 51.4365 103.047 51.6046C103.047 51.7728 103.047 51.9542 103.047 52.1489C103.047 52.202 103.047 52.3481 103.047 52.5871C103.047 52.8171 103.047 53.1004 103.047 53.4367C103.047 53.7642 103.047 54.1049 103.047 54.4589C103.047 54.8041 103.047 55.1271 103.047 55.428C103.047 55.7201 103.047 55.9457 103.047 56.105C103.047 56.2821 103.008 56.4281 102.93 56.5431C102.851 56.6493 102.751 56.7201 102.629 56.7555C102.516 56.791 102.398 56.791 102.276 56.7555C102.163 56.7201 102.067 56.6493 101.989 56.5431C101.91 56.4281 101.871 56.2821 101.871 56.105C101.871 55.9015 101.871 55.6891 101.871 55.4678C101.871 55.2377 101.871 55.0031 101.871 54.7643C101.871 54.5252 101.871 54.2863 101.871 54.0473C101.871 53.7996 101.871 53.565 101.871 53.3438C101.871 52.8923 101.95 52.4588 102.106 52.0427C102.272 51.6268 102.498 51.2596 102.786 50.9409C103.073 50.6135 103.413 50.3568 103.805 50.1709C104.197 49.9851 104.62 49.8922 105.073 49.8922C105.448 49.8922 105.792 49.9541 106.105 50.0779C106.428 50.2019 106.707 50.3877 106.942 50.6356C107.177 50.8745 107.36 51.171 107.491 51.5251C107.621 51.879 107.687 52.2861 107.687 52.7464C107.687 52.9499 107.687 53.1844 107.687 53.45C107.687 53.7066 107.687 53.9942 107.687 54.3128C107.687 54.5341 107.687 54.7421 107.687 54.9368C107.687 55.1227 107.687 55.3085 107.687 55.4944C107.687 55.6802 107.687 55.8838 107.687 56.105C107.687 56.3263 107.626 56.4945 107.504 56.6096C107.391 56.7246 107.255 56.7821 107.099 56.7821C106.942 56.7821 106.802 56.7246 106.68 56.6096C106.567 56.4945 106.51 56.3263 106.51 56.105Z" fill="white"/>
<path d="M98.8984 56.105C98.8984 55.9191 98.8984 55.7289 98.8984 55.5341C98.8984 55.3394 98.8984 55.1535 98.8984 54.9766C98.8984 54.7907 98.8984 54.6136 98.8984 54.4456C98.8984 54.1446 98.8984 53.8836 98.8984 53.6623C98.8984 53.441 98.8984 53.2197 98.8984 52.9985C98.8984 52.7772 98.8984 52.5162 98.8984 52.2152C98.8984 52.0471 98.8984 51.879 98.8984 51.7108C98.8984 51.5426 98.8984 51.3656 98.8984 51.1798C98.8984 50.9851 98.8984 50.7771 98.8984 50.5558C98.8984 50.3345 98.9551 50.1708 99.0683 50.0646C99.1903 49.9496 99.3297 49.8921 99.4865 49.8921C99.6433 49.8921 99.7783 49.9496 99.8916 50.0646C100.014 50.1708 100.075 50.3345 100.075 50.5558C100.075 50.7859 100.075 50.9895 100.075 51.1665C100.075 51.3346 100.075 51.5028 100.075 51.6709C100.075 51.8302 100.075 52.0117 100.075 52.2152C100.075 52.4188 100.075 52.6577 100.075 52.9321C100.075 53.1976 100.075 53.4675 100.075 53.7419C100.075 54.0074 100.075 54.2419 100.075 54.4456C100.075 54.6491 100.075 54.8394 100.075 55.0163C100.075 55.1934 100.075 55.3704 100.075 55.5473C100.075 55.7155 100.075 55.9014 100.075 56.105C100.075 56.3262 100.014 56.4944 99.8916 56.6094C99.7783 56.7245 99.6433 56.782 99.4865 56.782C99.3297 56.782 99.1903 56.7289 99.0683 56.6227C98.9551 56.5077 98.8984 56.3351 98.8984 56.105ZM98.8984 48.1927C98.8984 48.0954 98.8984 48.0158 98.8984 47.9538C98.8984 47.8918 98.8984 47.8299 98.8984 47.7679C98.8984 47.7061 98.8984 47.6308 98.8984 47.5422C98.8984 47.3387 98.9551 47.1883 99.0683 47.0909C99.1903 46.9847 99.3297 46.9316 99.4865 46.9316C99.6433 46.9316 99.7783 46.9847 99.8916 47.0909C100.014 47.1883 100.075 47.3387 100.075 47.5422C100.075 47.6308 100.075 47.7061 100.075 47.7679C100.075 47.8299 100.075 47.8918 100.075 47.9538C100.075 48.0158 100.075 48.0954 100.075 48.1927C100.075 48.3964 100.014 48.5512 99.8916 48.6574C99.7783 48.7547 99.6433 48.8034 99.4865 48.8034C99.3297 48.8034 99.1903 48.7547 99.0683 48.6574C98.9551 48.5512 98.8984 48.3964 98.8984 48.1927Z" fill="white"/>
<path d="M97.1339 50.635C97.1339 50.8652 97.1339 51.0776 97.1339 51.2722C97.1339 51.4669 97.1339 51.6749 97.1339 51.8962C97.1339 52.1086 97.1339 52.3564 97.1339 52.6396C97.1339 52.914 97.1339 53.2415 97.1339 53.622C97.1339 54.1265 97.0554 54.5734 96.8987 54.9629C96.7418 55.3523 96.5196 55.6842 96.2321 55.9586C95.9533 56.2241 95.6223 56.4276 95.2389 56.5692C94.8643 56.7108 94.4548 56.7816 94.0104 56.7816C93.5661 56.7816 93.1523 56.6975 92.769 56.5293C92.3856 56.3612 92.0502 56.1222 91.7626 55.8125C91.4751 55.5028 91.2529 55.1399 91.0962 54.7238C90.9393 54.299 90.8608 53.8344 90.8608 53.33C90.8608 52.6574 90.9959 52.0644 91.266 51.551C91.5448 51.0289 91.9195 50.6218 92.3899 50.3297C92.8691 50.0377 93.4049 49.8916 93.9974 49.8916C94.4417 49.8916 94.8513 49.9757 95.2259 50.1439C95.6092 50.3032 95.9402 50.5377 96.219 50.8474C96.5066 51.1483 96.7287 51.5068 96.8856 51.9227C97.0511 52.3388 97.1339 52.7989 97.1339 53.3033C97.1339 53.507 97.1339 53.706 97.1339 53.9008C97.1339 54.0866 97.1339 54.268 97.1339 54.4451C97.1339 54.6133 97.1339 54.7726 97.1339 54.923C97.1339 55.162 97.1339 55.3832 97.1339 55.5868C97.1339 55.7904 97.1339 56.0117 97.1339 56.2505C97.1339 56.4718 97.0729 56.64 96.9509 56.7551C96.8376 56.8701 96.7026 56.9276 96.5457 56.9276C96.389 56.9276 96.2496 56.8701 96.1275 56.7551C96.0144 56.64 95.9577 56.4718 95.9577 56.2505C95.9577 56.109 95.9577 55.9629 95.9577 55.8125C95.9577 55.6621 95.9577 55.516 95.9577 55.3744C95.9577 55.2239 95.9577 55.0734 95.9577 54.923C95.9577 54.8257 95.9577 54.6752 95.9577 54.4717C95.9577 54.2593 95.9577 54.0469 95.9577 53.8345C95.9577 53.6132 95.9577 53.4362 95.9577 53.3033C95.9577 52.8698 95.875 52.4847 95.7093 52.1485C95.5438 51.8121 95.3129 51.551 95.0168 51.3652C94.7205 51.1793 94.3807 51.0864 93.9974 51.0864C93.7098 51.0864 93.4442 51.1439 93.2002 51.259C92.9563 51.3652 92.7472 51.52 92.5729 51.7237C92.4073 51.9183 92.2766 52.1529 92.1808 52.4272C92.085 52.7016 92.0371 53.0025 92.0371 53.33C92.0371 53.6574 92.085 53.9583 92.1808 54.2327C92.2766 54.5071 92.4117 54.746 92.586 54.9496C92.7602 55.1532 92.9693 55.3125 93.2133 55.4275C93.4572 55.5337 93.723 55.5868 94.0104 55.5868C94.298 55.5868 94.5594 55.547 94.7946 55.4673C95.0386 55.3877 95.2477 55.2682 95.4219 55.1089C95.5962 54.9408 95.7268 54.7327 95.8139 54.485C95.9098 54.2371 95.9577 53.9494 95.9577 53.622C95.9577 53.3653 95.9577 53.0954 95.9577 52.8122C95.9577 52.5291 95.9577 52.2502 95.9577 51.9758C95.9577 51.7016 95.9577 51.4493 95.9577 51.2191C95.9577 50.9802 95.9577 50.7855 95.9577 50.635C95.9577 50.4137 96.0144 50.2456 96.1275 50.1306C96.2496 50.0155 96.389 49.9579 96.5457 49.9579C96.7026 49.9579 96.8376 50.0155 96.9509 50.1306C97.0729 50.2456 97.1339 50.4137 97.1339 50.635Z" fill="white"/>
<path d="M89.5579 51.1796C89.1571 51.1176 88.8173 51.1309 88.5385 51.2193C88.2597 51.299 88.0331 51.4362 87.8589 51.6309C87.6933 51.8168 87.5714 52.0425 87.493 52.308C87.4145 52.5735 87.3754 52.8611 87.3754 53.1708C87.3754 53.3745 87.3754 53.609 87.3754 53.8745C87.3754 54.14 87.3754 54.4099 87.3754 54.6843C87.3754 54.9587 87.3754 55.2197 87.3754 55.4676C87.3754 55.7153 87.3754 55.9277 87.3754 56.1048C87.3754 56.2817 87.3362 56.4234 87.2578 56.5296C87.1793 56.6358 87.0791 56.7065 86.9572 56.742C86.8439 56.7862 86.7263 56.7906 86.6044 56.7553C86.4911 56.7199 86.3953 56.6491 86.3168 56.5428C86.2384 56.4278 86.1992 56.2817 86.1992 56.1048C86.1992 55.9189 86.1992 55.6888 86.1992 55.4145C86.1992 55.1312 86.1992 54.8392 86.1992 54.5382C86.1992 54.2285 86.1992 53.9364 86.1992 53.6621C86.1992 53.3877 86.1992 53.1665 86.1992 52.9983C86.1992 52.7505 86.1992 52.4894 86.1992 52.215C86.1992 51.9406 86.1992 51.6664 86.1992 51.392C86.1992 51.1087 86.1992 50.8476 86.1992 50.6087C86.1992 50.3786 86.2559 50.2104 86.369 50.1042C86.4911 49.9892 86.6305 49.9316 86.7872 49.9316C86.9441 49.9316 87.0791 49.9892 87.1924 50.1042C87.3144 50.2193 87.3754 50.3874 87.3754 50.6087C87.3754 50.9007 87.3754 51.1751 87.3754 51.4317C87.3754 51.6796 87.3754 51.9319 87.3754 52.1885C87.3754 52.4363 87.3754 52.7063 87.3754 52.9983C87.3754 53.1134 87.3754 53.3037 87.3754 53.5692C87.3754 53.8347 87.3754 54.1312 87.3754 54.4586C87.3754 54.7861 87.3754 55.1002 87.3754 55.4011C87.3754 55.6932 87.3754 55.9277 87.3754 56.1048C87.3754 56.2817 87.3362 56.4234 87.2578 56.5296C87.1793 56.6358 87.0791 56.7065 86.9572 56.742C86.8439 56.7862 86.7263 56.7906 86.6044 56.7553C86.4911 56.7199 86.3953 56.6491 86.3168 56.5428C86.2384 56.4278 86.1992 56.2817 86.1992 56.1048C86.1992 55.8569 86.1992 55.556 86.1992 55.2021C86.1992 54.848 86.1992 54.5072 86.1992 54.1798C86.1992 53.8524 86.1992 53.6045 86.1992 53.4363C86.1992 53.0558 86.2427 52.6841 86.3299 52.3212C86.4257 51.9584 86.5651 51.622 86.7481 51.3123C86.9311 51.0025 87.162 50.737 87.4408 50.5158C87.7195 50.2945 88.0463 50.1352 88.4209 50.0378C88.8042 49.9405 89.2355 49.9228 89.7147 49.9847C89.9325 50.0201 90.0893 50.1042 90.1852 50.237C90.281 50.3697 90.3159 50.5158 90.2898 50.6751C90.2723 50.8344 90.1983 50.9672 90.0675 51.0734C89.9456 51.1707 89.7756 51.2061 89.5579 51.1796Z" fill="white"/>
<path d="M80.8799 47.4094C80.8799 47.6218 80.8799 47.8254 80.8799 48.02C80.8799 48.206 80.8799 48.3918 80.8799 48.5777C80.8799 48.7636 80.8799 48.9626 80.8799 49.175C80.8799 49.5291 80.8799 49.9318 80.8799 50.3831C80.8799 50.8257 80.8799 51.2859 80.8799 51.7638C80.8799 52.2417 80.8799 52.7063 80.8799 53.1578C80.8799 53.6002 80.8799 53.9985 80.8799 54.3525C80.8799 54.5649 80.8799 54.7641 80.8799 54.9499C80.8799 55.1358 80.8799 55.3216 80.8799 55.5075C80.8799 55.6933 80.8799 55.8924 80.8799 56.1049C80.8799 56.3261 80.8188 56.4943 80.6969 56.6094C80.5836 56.7244 80.4485 56.7819 80.2918 56.7819C80.1349 56.7819 79.9955 56.7288 79.8735 56.6226C79.7603 56.5075 79.7036 56.335 79.7036 56.1049C79.7036 55.7862 79.7036 55.4809 79.7036 55.1889C79.7036 54.8968 79.7036 54.618 79.7036 54.3525C79.7036 53.8304 79.7036 53.3657 79.7036 52.9586C79.7036 52.5427 79.7036 52.1443 79.7036 51.7638C79.7036 51.3832 79.7036 50.9894 79.7036 50.5823C79.7036 50.1663 79.7036 49.6972 79.7036 49.175C79.7036 48.9981 79.7036 48.8211 79.7036 48.644C79.7036 48.4671 79.7036 48.2812 79.7036 48.0865C79.7036 47.883 79.7036 47.6572 79.7036 47.4094C79.7036 47.1882 79.7603 47.0245 79.8735 46.9183C79.9955 46.8032 80.1349 46.7456 80.2918 46.7456C80.4485 46.7456 80.5836 46.8032 80.6969 46.9183C80.8188 47.0245 80.8799 47.1882 80.8799 47.4094ZM84.5521 51.0336C84.3169 51.2106 84.073 51.3921 83.8203 51.578C83.5763 51.7638 83.3237 51.9497 83.0623 52.1355C82.8097 52.3214 82.5526 52.5117 82.2913 52.7063C82.0822 52.8657 81.9428 52.9719 81.8731 53.025C81.8034 53.0692 81.8034 53.1223 81.8731 53.1843C81.9428 53.2374 82.0779 53.3436 82.2782 53.5029C82.5483 53.7241 82.8228 53.9587 83.1016 54.2064C83.389 54.4455 83.6678 54.6888 83.938 54.9366C84.208 55.1845 84.4694 55.4278 84.7221 55.6668C84.8876 55.8172 84.9703 55.9765 84.9703 56.1447C84.9703 56.304 84.9181 56.4412 84.8135 56.5563C84.709 56.6714 84.5739 56.7332 84.4084 56.7421C84.2516 56.7598 84.0948 56.6935 83.938 56.543C83.694 56.3218 83.4369 56.0916 83.1668 55.8526C82.8968 55.6048 82.6267 55.3614 82.3567 55.1225C82.0865 54.8746 81.8164 54.6446 81.5464 54.4322C81.1891 54.149 80.9191 53.9012 80.7361 53.6888C80.5618 53.4675 80.4747 53.264 80.4747 53.0781C80.4834 52.8834 80.5793 52.6842 80.7622 52.4807C80.9452 52.2683 81.2197 52.0249 81.5855 51.7505C81.8556 51.547 82.117 51.3522 82.3697 51.1664C82.631 50.9805 82.8837 50.7991 83.1277 50.6221C83.3804 50.4362 83.6199 50.2548 83.8465 50.0778C84.0207 49.9451 84.1862 49.892 84.343 49.9185C84.5086 49.9451 84.635 50.0247 84.7221 50.1575C84.8179 50.2814 84.8571 50.4274 84.8397 50.5955C84.8223 50.7548 84.7264 50.9009 84.5521 51.0336Z" fill="white"/>
<path d="M72.1503 48.1395C72.1503 48.3164 72.1503 48.5112 72.1503 48.7236C72.1503 48.936 72.1503 49.1484 72.1503 49.3608C72.1503 49.5732 72.1503 49.7679 72.1503 49.9449C72.1503 50.4228 72.1503 50.8388 72.1503 51.1928C72.1503 51.538 72.1503 51.861 72.1503 52.162C72.1503 52.454 72.1503 52.7593 72.1503 53.0779C72.1503 53.5647 72.2461 53.9984 72.4378 54.379C72.6294 54.7507 72.8952 55.0427 73.235 55.2551C73.5835 55.4675 73.9843 55.5737 74.4374 55.5737C74.9078 55.5737 75.3086 55.4675 75.6396 55.2551C75.9794 55.0427 76.2408 54.7507 76.4237 54.379C76.6067 53.9984 76.6982 53.5647 76.6982 53.0779C76.6982 52.7593 76.6982 52.454 76.6982 52.162C76.6982 51.861 76.6982 51.538 76.6982 51.1928C76.6982 50.8388 76.6982 50.4228 76.6982 49.9449C76.6982 49.7945 76.6982 49.6086 76.6982 49.3873C76.6982 49.1573 76.6982 48.9315 76.6982 48.7102C76.6982 48.4891 76.6982 48.2988 76.6982 48.1395C76.6982 47.9182 76.7548 47.75 76.8681 47.635C76.99 47.5199 77.1294 47.4624 77.2863 47.4624C77.4431 47.4624 77.5782 47.5199 77.6914 47.635C77.8134 47.75 77.8744 47.9182 77.8744 48.1395C77.8744 48.3164 77.8744 48.5112 77.8744 48.7236C77.8744 48.936 77.8744 49.1484 77.8744 49.3608C77.8744 49.5732 77.8744 49.7679 77.8744 49.9449C77.8744 50.2635 77.8744 50.5733 77.8744 50.8741C77.8744 51.1663 77.8744 51.4893 77.8744 51.8433C77.8744 52.1884 77.8744 52.6 77.8744 53.0779C77.8744 53.6089 77.7916 54.1001 77.6261 54.5515C77.4606 55.0028 77.2253 55.3967 76.9203 55.733C76.6154 56.0605 76.2539 56.3171 75.8357 56.503C75.4175 56.68 74.9514 56.7685 74.4374 56.7685C73.9407 56.7685 73.4789 56.68 73.052 56.503C72.6339 56.3171 72.2679 56.0605 71.9542 55.733C71.6493 55.3967 71.4097 55.0028 71.2354 54.5515C71.0612 54.1001 70.9741 53.6089 70.9741 53.0779C70.9741 52.6 70.9741 52.1884 70.9741 51.8433C70.9741 51.4893 70.9741 51.1663 70.9741 50.8741C70.9741 50.5733 70.9741 50.2635 70.9741 49.9449C70.9741 49.7945 70.9741 49.6086 70.9741 49.3873C70.9741 49.1573 70.9741 48.9315 70.9741 48.7102C70.9741 48.4891 70.9741 48.2988 70.9741 48.1395C70.9741 47.9182 71.0308 47.75 71.1439 47.635C71.266 47.5199 71.4054 47.4624 71.5621 47.4624C71.719 47.4624 71.854 47.5199 71.9673 47.635C72.0893 47.75 72.1503 47.9182 72.1503 48.1395Z" fill="white"/>
<path fill-rule="evenodd" clip-rule="evenodd" d="M164.841 23.1676C163.855 23.1676 162.992 22.9865 162.25 22.6244C161.508 22.2623 160.929 21.7626 160.515 21.1254C160.102 20.4736 159.895 19.7277 159.895 18.8876C159.895 18.2214 160.03 17.6421 160.302 17.1496C160.587 16.6427 160.958 16.1937 161.414 15.8027C161.872 15.4116 162.371 15.0567 162.914 14.7381C162.243 14.0139 161.764 13.3767 161.479 12.8263C161.207 12.276 161.072 11.7039 161.072 11.11C161.072 10.4583 161.236 9.86446 161.564 9.32857C161.893 8.79268 162.357 8.35819 162.957 8.02507C163.556 7.69195 164.262 7.52539 165.077 7.52539C165.861 7.52539 166.546 7.68471 167.132 8.00334C167.732 8.32198 168.195 8.74924 168.523 9.28512C168.851 9.82101 169.015 10.4221 169.015 11.0883C169.015 11.7256 168.866 12.2832 168.566 12.7611C168.266 13.2391 167.867 13.6664 167.368 14.043C166.881 14.4195 166.346 14.7743 165.762 15.1074L169.401 18.7356C169.63 18.3301 169.844 17.8593 170.043 17.3235L170.62 15.6099C170.726 15.2848 170.892 15.0693 171.117 14.9632C171.357 14.8558 171.592 14.8374 171.821 14.9083C172.066 14.9776 172.248 15.1218 172.368 15.3408C172.502 15.5584 172.509 15.8304 172.39 16.157C172.305 16.4116 172.214 16.6738 172.117 16.9435C171.974 17.349 171.586 18.4387 171.371 18.8442C171.171 19.2352 170.935 19.6263 170.665 20.0173L171.912 21.195C172.172 21.4405 172.303 21.7006 172.303 21.9759C172.312 22.2405 172.23 22.4676 172.056 22.6574C171.883 22.8472 171.742 22.8566 171.481 22.8864C171.221 22.8958 170.742 22.5664 170.472 22.3112C170.472 22.3112 170.097 21.9534 169.842 21.7362L169.423 21.3209C168.866 21.8712 168.21 22.3202 167.453 22.6678C166.696 23.001 165.825 23.1676 164.841 23.1676ZM166.553 21.0819C165.982 21.3136 165.412 21.4295 164.841 21.4295C164.327 21.4295 163.842 21.3281 163.384 21.1254C162.928 20.9226 162.557 20.6329 162.271 20.2563C162 19.8653 161.865 19.3945 161.865 18.8442C161.865 18.1924 162.086 17.6494 162.528 17.2148C162.984 16.7658 163.52 16.3675 164.134 16.02L168.138 19.9957C167.653 20.4736 167.124 20.8357 166.553 21.0819ZM165.847 13.0652C165.461 13.326 165.041 13.5867 164.583 13.8474C164.156 13.3984 163.827 13.0219 163.599 12.7177C163.37 12.4135 163.206 12.1384 163.107 11.8921C163.02 11.6314 162.977 11.378 162.977 11.1318C162.977 10.5235 163.184 10.0527 163.599 9.71963C164.027 9.37203 164.52 9.19823 165.077 9.19823C165.661 9.19823 166.153 9.37203 166.553 9.71963C166.953 10.0672 167.153 10.5307 167.153 11.11C167.153 11.5156 167.031 11.8777 166.789 12.1963C166.56 12.5149 166.247 12.8046 165.847 13.0652Z" fill="white"/>
</g>
<defs>
<clipPath id="clip0_100_3445">
<rect width="200" height="61" fill="white" transform="translate(0 0.739258)"/>
</clipPath>
</defs>
</svg>
