<svg width="90" height="90" viewBox="0 0 90 90" fill="none" xmlns="http://www.w3.org/2000/svg">
<path d="M45 2.33436C42.4032 2.33436 39.6579 0.242327 37.1851 0.675409C34.6422 1.12072 32.7753 4.03222 30.4042 4.89616C27.9897 5.77511 24.6907 4.75217 22.4958 6.02195C20.2809 7.30396 19.5237 10.678 17.5757 12.3147C15.6215 13.9559 12.1675 14.1193 10.5274 16.0729C8.89126 18.0215 9.32545 21.45 8.04343 23.6649C6.7742 25.8598 3.58141 27.1902 2.70301 29.6047C1.83907 31.9763 3.4224 35.0446 2.97653 37.5875C2.54345 40.0603 0 42.4031 0 44.9999C0 47.5962 2.54345 49.9395 2.97653 52.4118C3.42185 54.9553 1.83907 58.023 2.70301 60.3958C3.58197 62.8097 6.77477 64.1401 8.04399 66.335C9.32545 68.5504 8.89182 71.9784 10.5274 73.927C12.1691 75.8811 15.6221 76.044 17.5757 77.6857C19.5243 79.3219 20.2815 82.6965 22.4958 83.9779C24.6907 85.2477 27.9897 84.2253 30.4042 85.1043C32.7758 85.9677 34.6427 88.8792 37.1851 89.325C39.6579 89.7575 42.4032 87.6661 45 87.6661C47.5968 87.6661 50.3426 89.7575 52.8144 89.325C55.3578 88.8792 57.2247 85.9677 59.5964 85.1043C62.0109 84.2248 65.3093 85.2483 67.5042 83.9779C69.7196 82.6959 70.4763 79.3219 72.4249 77.6852C74.379 76.0435 77.832 75.8806 79.4732 73.9264C81.1087 71.9784 80.6746 68.5498 81.956 66.335C83.2258 64.1401 86.4186 62.8091 87.297 60.3952C88.1604 58.023 86.5781 54.9547 87.0235 52.4118C87.4565 49.939 90 47.5962 90 44.9999C90 42.4031 87.4565 40.0603 87.0235 37.5875C86.5781 35.0446 88.1609 31.9763 87.297 29.6047C86.418 27.1902 83.2252 25.8592 81.956 23.6644C80.674 21.4495 81.1087 18.0209 79.4726 16.0729C77.8309 14.1188 74.3779 13.9553 72.4243 12.3142C70.4763 10.678 69.7185 7.30285 67.5036 6.02139C65.3093 4.75161 62.0103 5.77455 59.5958 4.8956C57.2247 4.03166 55.3573 1.12017 52.8144 0.674853C50.3426 0.242327 47.5968 2.33436 45 2.33436Z" fill="white"/>
<path d="M74.1064 64.3247C74.2221 64.8462 74.3655 65.3488 74.2654 66.0632C74.2204 66.424 74.127 66.8498 73.9402 67.3646C73.8429 67.617 73.7217 67.8917 73.5738 68.1996C73.4237 68.4993 73.2653 68.844 73.0435 69.192L74.2187 70.1783C74.375 69.9342 74.5089 69.6724 74.6324 69.4138C74.7563 69.1509 74.8647 68.8846 74.9537 68.6133C75.0054 68.4521 75.0482 68.2981 75.0816 68.1418C75.1133 67.9878 75.1316 67.8361 75.1477 67.6848C75.1761 67.3863 75.1761 67.1089 75.1522 66.8437C75.1083 66.3194 74.9859 65.8702 74.8219 65.4905C74.5028 64.7417 74.1064 64.3247 74.1064 64.3247Z" fill="#FD9F41"/>
<path d="M74.0707 64.3018C74.0707 64.3018 73.5209 64.1222 72.7359 64.1033C72.3473 64.0944 71.8797 64.1094 71.3972 64.2056C71.1553 64.2489 70.9091 64.3156 70.6633 64.4068C70.5394 64.4524 70.4165 64.5019 70.2903 64.5597C70.1619 64.6125 70.034 64.6753 69.9078 64.7421C69.6893 64.8594 69.4886 64.9917 69.2963 65.1307C69.1039 65.2691 68.9216 65.4236 68.7275 65.5671L69.9034 66.5533C70.1991 66.3287 70.4421 66.1041 70.6867 65.9196C70.9269 65.7311 71.1515 65.5699 71.3616 65.4281C71.7663 65.1368 72.1127 64.9277 72.4307 64.7793C73.0678 64.4891 73.542 64.4096 74.0707 64.3018Z" fill="#FD9F41"/>
<path d="M79.4272 61.1138C79.4505 60.7758 79.4472 60.4617 79.4094 60.1682C79.3666 59.8718 79.2993 59.5955 79.2148 59.3459C79.048 58.8433 78.8173 58.4297 78.5827 58.1067C78.3475 57.782 78.0996 57.5358 77.9189 57.3762C77.7354 57.215 77.6159 57.1377 77.6159 57.1377C77.87 57.6369 78.1024 58.0873 78.1785 58.8461C78.213 59.2247 78.2269 59.6895 78.134 60.2566C78.0484 60.8275 77.9111 61.5297 77.6203 62.3642C76.9677 64.3367 77.0444 65.7182 77.3385 66.6555C77.4869 67.1236 77.6865 67.4744 77.8488 67.7085C78.014 67.9397 78.1418 68.0531 78.1418 68.0531C78.0251 67.326 78.0345 66.6783 78.1274 66.0779C78.2191 65.4769 78.3603 64.9043 78.5488 64.3611C78.5983 64.2255 78.6461 64.0898 78.6922 63.9569C78.7384 63.8213 78.7817 63.684 78.8262 63.5483C78.9168 63.2765 79.0036 63.0118 79.0914 62.7439C79.2698 62.214 79.3844 61.6631 79.4272 61.1138Z" fill="#FD9F41"/>
<path d="M73.8954 60.4556C74.3824 59.8362 74.7582 59.3242 75.1157 58.9289C75.4765 58.5342 75.7622 58.2295 76.0447 57.9988C76.6073 57.5391 77.0882 57.3573 77.5757 57.1238C77.5757 57.1238 77.4323 57.111 77.1944 57.1177C76.952 57.1265 76.6228 57.1599 76.2309 57.2383C75.8395 57.3145 75.3975 57.4407 74.9517 57.6436C74.7287 57.7431 74.5058 57.866 74.2884 58.0133C74.0655 58.1551 73.8376 58.3191 73.6246 58.5097C73.2716 58.825 72.9992 59.1852 72.7001 59.5394C72.5578 59.7189 72.4166 59.9029 72.2748 60.0825C72.2036 60.1743 72.1325 60.2632 72.0596 60.3555C71.9824 60.4394 71.9029 60.5251 71.8228 60.6112C71.4959 60.9448 71.159 61.2678 70.7165 61.5052C70.2739 61.742 69.7625 61.9121 69.1426 61.9672C69.1426 61.9672 69.2905 62.0478 69.5479 62.1312C69.8086 62.214 70.1783 62.298 70.6275 62.2946C71.0734 62.2891 71.6154 62.2057 72.178 61.931C72.7257 61.6503 73.3528 61.2039 73.8954 60.4556Z" fill="#FD9F41"/>
<path d="M80.5803 54.417C80.5519 54.9379 80.5208 55.4016 80.543 55.8324C80.558 56.2583 80.6231 56.648 80.6865 56.9944C80.816 57.6876 81.0484 58.2336 81.3047 58.6578C81.5621 59.0836 81.8295 59.3749 82.0385 59.5578C82.2464 59.748 82.3971 59.8264 82.3971 59.8264C82.3309 59.659 82.2731 59.4928 82.2248 59.3299C82.1692 59.1664 82.123 59.0024 82.0836 58.8434C82.0046 58.5221 81.9574 58.2113 81.9301 57.9089C81.8867 57.3046 81.8962 56.7169 81.9423 56.141C81.9674 55.8536 81.9996 55.57 82.0335 55.2887C82.0552 55.003 82.0758 54.7222 82.0963 54.4381C82.1297 53.8777 82.1514 53.3257 82.0474 52.7781C81.9273 52.1087 81.7216 51.5578 81.4342 51.1069C81.1507 50.6577 80.8243 50.3097 80.5202 50.0478C79.907 49.5235 79.3672 49.3301 79.3672 49.3301C79.7108 49.7548 80.0471 50.1395 80.3095 50.8634C80.448 51.227 80.5252 51.6656 80.5881 52.2444C80.6131 52.5312 80.6442 52.8576 80.6375 53.215C80.6309 53.5758 80.6142 53.9733 80.5803 54.417Z" fill="#FD9F41"/>
<path d="M76.5141 53.4228C76.6681 53.0642 76.8166 52.7379 76.96 52.4482C77.1023 52.153 77.2157 51.8873 77.3408 51.6538C77.581 51.1824 77.8323 50.8282 78.0358 50.5347C78.4638 49.9559 78.8864 49.6691 79.3256 49.3271C79.3256 49.3271 78.7518 49.4128 78.0296 49.7486C77.6688 49.9153 77.2713 50.1399 76.8922 50.4424C76.513 50.747 76.1116 51.1162 75.7969 51.5937C75.5457 51.9851 75.325 52.3899 75.1343 52.8096C75.0414 53.0181 74.948 53.2277 74.8569 53.4367C74.7507 53.6446 74.6445 53.8503 74.5283 54.0527C74.3003 54.4569 74.0418 54.8483 73.6605 55.1774C73.4742 55.3447 73.2668 55.4993 73.0345 55.6344C72.9183 55.705 72.7948 55.7706 72.6647 55.8284C72.5274 55.8873 72.3851 55.939 72.2339 55.9857C72.2339 55.9857 72.3957 56.0347 72.6714 56.0558C72.9444 56.0747 73.3336 56.0747 73.7644 55.9668C74.1992 55.859 74.689 55.6499 75.1849 55.2552C75.4345 55.0601 75.658 54.8071 75.887 54.5064C76.11 54.2045 76.344 53.8503 76.5141 53.4228Z" fill="#FD9F41"/>
<path d="M84.6306 50.8394C84.3142 50.3958 84.098 49.9666 83.9112 49.533C83.7249 49.1038 83.5965 48.6763 83.5059 48.2532C83.4564 48.0414 83.4281 47.8296 83.3891 47.6216C83.3491 47.4065 83.3163 47.1969 83.2857 46.9884C83.2285 46.5653 83.1734 46.155 83.1184 45.7397H81.584C81.5951 45.8254 81.6079 45.911 81.6196 45.9988C81.6857 46.5153 81.7875 46.9728 81.9109 47.3842C82.0404 47.7945 82.1544 48.1581 82.3073 48.4811C82.5975 49.1255 82.9739 49.6058 83.2996 49.9555C83.6365 50.3063 83.969 50.5281 84.2175 50.661C84.4655 50.7939 84.6306 50.8394 84.6306 50.8394Z" fill="#FD9F41"/>
<path d="M73.854 49.4596C73.854 49.4596 74.0241 49.4657 74.2949 49.4251C74.5645 49.3818 74.9375 49.2895 75.3445 49.0865C75.7598 48.882 76.1684 48.5628 76.5542 48.0631C76.7405 47.814 76.939 47.5199 77.0774 47.1724C77.2214 46.8244 77.3431 46.4269 77.4365 45.9671C77.4504 45.8926 77.4682 45.8159 77.4816 45.7397H75.9477C75.8727 46.075 75.7987 46.4074 75.7248 46.7443C75.6847 46.91 75.6414 47.0768 75.5925 47.2425C75.5413 47.4065 75.4707 47.5699 75.3979 47.7311C75.25 48.0508 75.0649 48.3638 74.823 48.6546C74.5801 48.9481 74.2498 49.2194 73.854 49.4596Z" fill="#FD9F41"/>
<path d="M79.181 45.7397H79.8871C79.8871 45.7397 79.8776 46.1189 79.8604 46.7838C79.8587 47.4498 79.7848 48.3955 79.6791 49.5296C79.6425 49.8104 79.6063 50.1056 79.5663 50.4086C79.5268 50.7121 79.4957 51.0274 79.4306 51.3509C79.3106 51.9891 79.2155 52.6713 79.0393 53.3634C78.9598 53.7109 78.878 54.0628 78.7958 54.4197C78.6957 54.7694 78.5962 55.1264 78.4944 55.4866C78.4416 55.6678 78.391 55.8474 78.3404 56.0281C78.2848 56.2071 78.2203 56.3839 78.162 56.5651C78.0402 56.9226 77.9179 57.2823 77.7967 57.6431C76.756 60.4968 75.2988 63.182 74.0246 65.07C73.7077 65.5398 73.3975 65.9612 73.1318 66.3376C72.8655 66.7162 72.6008 67.0219 72.4001 67.2888C72.1967 67.5479 72.0332 67.7519 71.9226 67.8909C71.8081 68.0282 71.7447 68.0999 71.7447 68.0999L71.2026 67.6435C71.2026 67.6435 71.2643 67.5723 71.3783 67.4422C71.4862 67.3038 71.6435 67.1042 71.8448 66.8479C72.041 66.5889 72.3012 66.2898 72.5619 65.9173C72.821 65.5465 73.1256 65.1345 73.437 64.6725C74.684 62.8245 76.1105 60.1944 77.1335 57.3974C77.2519 57.0466 77.3703 56.6925 77.4882 56.345C77.5471 56.1682 77.6099 55.9936 77.6633 55.8179C77.7144 55.64 77.7645 55.4633 77.8156 55.287C77.9135 54.9362 78.0135 54.5849 78.1114 54.2396C78.192 53.8916 78.2709 53.5441 78.3499 53.2072C78.5217 52.5301 78.614 51.8602 78.7324 51.2347C78.7952 50.9212 78.8258 50.6126 78.8652 50.3113C78.9025 50.0144 78.9392 49.7276 78.9759 49.4485C79.0798 48.3394 79.1521 47.4137 79.1538 46.7632C79.1699 46.1128 79.181 45.7397 79.181 45.7397Z" fill="#FD9F41"/>
<path d="M55.3779 78.6348C55.1317 79.1095 54.9099 79.5554 54.3806 80.0641C54.1171 80.326 53.7657 80.5761 53.2915 80.8447C53.053 80.977 52.785 81.1154 52.4776 81.2627C52.1696 81.4017 51.8199 81.5318 51.4302 81.6702L51.6954 83.1807C52.2457 82.9839 52.7828 82.7832 53.2654 82.4575C53.8324 82.0844 54.2572 81.683 54.559 81.2366C54.8615 80.7985 55.0522 80.3615 55.1722 79.979C55.2929 79.5943 55.3429 79.2585 55.3652 79.0217C55.3863 78.7804 55.3779 78.6348 55.3779 78.6348Z" fill="#FD9F41"/>
<path d="M55.366 78.5978C55.366 78.5978 55.2898 78.4777 55.1386 78.2843C54.9879 78.0958 54.7622 77.8395 54.4681 77.5743C54.1707 77.3091 53.8065 77.0301 53.3796 76.7988C52.9532 76.5758 52.4523 76.3507 51.8908 76.2467C51.4137 76.1667 50.934 76.1266 50.4575 76.1172L50.7233 77.6271C51.0935 77.6299 51.4276 77.646 51.7345 77.6583C52.0381 77.6649 52.311 77.6783 52.5607 77.7005C53.0605 77.7472 53.4635 77.8273 53.7976 77.9023C54.4681 78.0674 54.8917 78.3393 55.366 78.5978Z" fill="#FD9F41"/>
<path d="M61.52 79.5873C61.9837 79.0909 62.2939 78.5822 62.4923 78.0985C62.688 77.6087 62.767 77.1278 62.7959 76.7309C62.8487 75.9203 62.6819 75.3716 62.6819 75.3716C62.3923 76.4134 62.3172 77.4675 59.3324 79.3911C58.4378 79.9164 57.8024 80.4941 57.3204 81.0028C56.8439 81.5248 56.5482 82.0557 56.3564 82.5022C56.1668 82.9469 56.0923 83.3383 56.0689 83.6207C56.0439 83.902 56.07 84.0688 56.07 84.0688C56.2596 83.7603 56.462 83.484 56.6738 83.2371C56.8856 82.9875 57.1041 82.7546 57.3298 82.5522C57.7818 82.1386 58.2733 81.8317 58.7564 81.5098C59.0004 81.3541 59.2467 81.209 59.4936 81.0634C59.7376 80.9216 59.9828 80.7832 60.2141 80.6175C60.6816 80.3051 61.1353 79.9848 61.52 79.5873Z" fill="#FD9F41"/>
<path d="M57.699 75.5388C58.0788 75.4404 58.4257 75.362 58.7437 75.2981C59.0583 75.2419 59.3463 75.1874 59.6115 75.1407C60.133 75.0518 60.5583 75.024 60.9252 75.0329C61.6451 75.0301 62.1266 75.188 62.6603 75.3375C62.6603 75.3375 62.2478 74.9289 61.5506 74.5531C61.2015 74.3641 60.7884 74.1895 60.3148 74.0566C59.8372 73.9176 59.3074 73.8348 58.7387 73.8709C58.2683 73.8859 57.813 73.9599 57.3677 74.0594C57.1481 74.1172 56.9207 74.1606 56.6922 74.2017C56.4654 74.2434 56.2375 74.2846 56.0067 74.3151C55.5514 74.3885 55.0711 74.3757 54.5846 74.2873C54.3394 74.2406 54.0943 74.1734 53.8447 74.0655C53.5923 73.9521 53.3393 73.8064 53.083 73.6235C53.083 73.6235 53.1436 73.7814 53.2904 74.0121C53.4366 74.2468 53.6662 74.5492 54.0125 74.8472C54.3622 75.1407 54.8203 75.3937 55.4313 75.5504C56.0451 75.7228 56.7878 75.7228 57.699 75.5388Z" fill="#FD9F41"/>
<path d="M66.7028 75.1897C66.3298 75.5539 66.0229 75.9114 65.7672 76.2594C65.5048 76.5946 65.2896 76.916 65.1229 77.2267C64.9516 77.5386 64.8254 77.8399 64.7331 78.124C64.6342 78.402 64.5697 78.6622 64.5296 78.9012C64.4507 79.3849 64.4702 79.7841 64.5124 80.0654C64.553 80.3428 64.6164 80.5007 64.6164 80.5007C64.8382 79.8008 65.1523 79.2493 65.4914 78.7378C65.8328 78.2258 66.2325 77.806 66.6389 77.3941C67.0375 76.9743 67.4556 76.5885 67.8498 76.1938C68.2323 75.7757 68.5897 75.3526 68.8766 74.8818C69.5549 73.7054 69.6049 72.6157 69.4615 71.809C69.3236 71.0074 69.035 70.5137 69.035 70.5137C69.0334 70.7889 69.0334 71.0541 69.0034 71.3409C68.9733 71.63 68.9177 71.948 68.7749 72.296C68.6353 72.6502 68.4257 73.0538 68.1061 73.538C67.9415 73.7782 67.7408 74.0284 67.5095 74.3025C67.276 74.5738 67.0214 74.8901 66.7028 75.1897Z" fill="#FD9F41"/>
<path d="M64.2246 71.8185C64.5854 71.6573 64.8917 71.4799 65.1891 71.3471C65.4821 71.2086 65.754 71.1008 66.0008 71.0007C66.4839 70.7917 66.8887 70.6594 67.2461 70.5821C67.6069 70.5131 67.9016 70.4715 68.1846 70.4653C68.4659 70.4559 68.7299 70.4748 69.0062 70.4809C69.0062 70.4809 68.5115 70.1813 67.7487 69.9789C66.9948 69.7832 65.9474 69.6381 64.8533 69.9566C64.3952 70.0767 63.9766 70.2641 63.5669 70.4653C63.1455 70.656 62.7313 70.8573 62.2999 71.0318C61.864 71.1931 61.3987 71.3004 60.9072 71.3321C60.4158 71.3632 59.8682 71.2631 59.2905 71.0318C59.2905 71.0318 59.3856 71.1708 59.5813 71.3626C59.7759 71.5528 60.0716 71.7968 60.4758 71.9992C60.6782 72.0987 60.9083 72.191 61.1702 72.2616C61.4237 72.3211 61.7078 72.36 62.0213 72.3628C62.3338 72.3661 62.6807 72.3361 63.0482 72.2521C63.4123 72.1604 63.8043 72.0187 64.2246 71.8185Z" fill="#FD9F41"/>
<path d="M72.1034 75.061C72.1829 73.9746 72.5114 73.1402 72.9 72.3568C73.0957 71.9666 73.3331 71.6141 73.551 71.2505C73.7768 70.8864 73.9969 70.5361 74.2182 70.1786L73.0429 69.1924C72.9984 69.2658 72.9523 69.3369 72.9062 69.4142C72.6282 69.8523 72.4214 70.2804 72.2429 70.6651C72.0628 71.0509 71.9321 71.4173 71.8398 71.762C71.6642 72.4564 71.6075 73.0323 71.6475 73.5254C71.6825 74.0119 71.7942 74.3983 71.8999 74.6601C72.0061 74.9214 72.1034 75.061 72.1034 75.061Z" fill="#FD9F41"/>
<path d="M64.7407 67.0718C64.7407 67.0718 64.8658 67.1852 65.0999 67.3275C65.3339 67.4659 65.6747 67.6333 66.115 67.7378C66.5509 67.8362 67.1041 67.8857 67.7062 67.7378C68.0097 67.6689 68.3349 67.5549 68.6785 67.3898C69.0215 67.2291 69.359 66.9884 69.7209 66.6987C69.7826 66.6504 69.8426 66.5998 69.9027 66.5536L68.7269 65.5674C68.4595 65.7748 68.1926 65.9838 67.9213 66.1995C67.6506 66.4041 67.3437 66.582 67.0312 66.7365C66.4113 67.0562 65.6514 67.2074 64.7407 67.0718Z" fill="#FD9F41"/>
<path d="M71.2019 67.6455L71.744 68.1019C71.744 68.1019 71.496 68.3855 71.0613 68.8886C70.8495 69.146 70.5626 69.4295 70.2457 69.7681C70.0845 69.9349 69.9177 70.1117 69.737 70.2985C69.5535 70.4808 69.3528 70.6682 69.1494 70.8633C67.5088 72.4405 65.1371 74.3691 62.4897 75.8668C61.1843 76.6446 59.8067 77.2851 58.4991 77.8516C57.1815 78.3853 55.9284 78.8345 54.8332 79.1375C53.7413 79.4699 52.8118 79.6573 52.1641 79.8118C51.5114 79.9319 51.1384 79.9975 51.1384 79.9975L51.0166 79.2998C51.0166 79.2998 51.3813 79.2331 52.0218 79.1186C52.6544 78.9646 53.5679 78.7878 54.6342 78.462C55.7099 78.1607 56.9369 77.7226 58.2278 77.1983C59.5065 76.6441 60.8574 76.0153 62.1355 75.2542C64.7268 73.7871 67.054 71.8979 68.659 70.3546C68.8597 70.1601 69.0554 69.9794 69.2367 69.7993C69.4112 69.6147 69.5775 69.4418 69.7331 69.2783C70.0439 68.9459 70.3252 68.6718 70.5326 68.4188C70.9584 67.9252 71.2019 67.6455 71.2019 67.6455Z" fill="#FD9F41"/>
<path d="M31.8289 77.5498C31.3313 77.7605 30.881 77.9507 30.1477 78.0002C29.9642 78.0129 29.7619 78.0157 29.5406 78.0002C29.3221 77.9818 29.0792 77.9473 28.8101 77.899C28.5432 77.8495 28.2475 77.7822 27.9195 77.6977C27.5942 77.6054 27.2445 77.4792 26.8543 77.3369L26.0859 78.6651C26.3595 78.7685 26.633 78.8635 26.9076 78.9453C27.1823 79.0292 27.4702 79.0787 27.7543 79.1159C29.0914 79.3027 30.1344 78.8752 30.8082 78.4466C31.4847 78.0157 31.8289 77.5498 31.8289 77.5498Z" fill="#FD9F41"/>
<path d="M31.8442 77.5074C31.8442 77.5074 31.922 76.9459 31.8125 76.1481C31.7024 75.3553 31.4045 74.3819 30.6906 73.4784C30.5388 73.285 30.3671 73.121 30.2003 72.9464C30.0313 72.7763 29.8556 72.6156 29.6755 72.4561L28.9077 73.7837C29.1907 74.021 29.4347 74.2551 29.6627 74.4575C29.8917 74.6559 30.093 74.8433 30.2698 75.0195C30.4471 75.2008 30.6 75.367 30.7323 75.5282C30.8708 75.6822 30.9881 75.829 31.0881 75.968C31.4973 76.5273 31.6452 77.0143 31.8442 77.5074Z" fill="#FD9F41"/>
<path d="M35.9217 82.2223C36.5966 82.1445 37.1609 81.951 37.6245 81.7109C38.0899 81.4551 38.4568 81.146 38.7381 80.8542C39.2974 80.271 39.5225 79.7417 39.5225 79.7417C38.6325 80.3549 37.8975 81.1127 34.3722 80.6651C32.323 80.3549 30.9743 80.6712 30.0948 81.1394C29.6617 81.3595 29.3532 81.6119 29.1547 81.812C28.9562 82.0083 28.8667 82.1534 28.8667 82.1534C29.2136 82.04 29.5433 81.9599 29.8641 81.9071C30.1904 81.846 30.5029 81.812 30.8081 81.8026C31.1133 81.7909 31.4096 81.8026 31.702 81.8282C31.9922 81.8593 32.2852 81.8799 32.5715 81.9199C33.7068 82.09 34.8226 82.3269 35.9217 82.2223Z" fill="#FD9F41"/>
<path d="M35.5989 76.6655C37.006 77.371 37.8461 77.8642 38.3931 78.3545C38.9496 78.8104 39.212 79.2446 39.5283 79.7005C39.5283 79.7005 39.4728 79.1256 39.1814 78.3856C39.0369 78.0154 38.8323 77.6145 38.5543 77.2137C38.2758 76.8017 37.9256 76.3976 37.4686 76.0557C36.7308 75.4658 35.8702 75.1556 35.0891 74.6402C34.8945 74.514 34.7005 74.3906 34.5215 74.2299C34.343 74.0709 34.174 73.8975 34.0178 73.704C33.8616 73.5122 33.7193 73.2998 33.5931 73.0624C33.473 72.8162 33.3707 72.5382 33.294 72.2324C33.294 72.2324 33.24 72.3931 33.2006 72.6644C33.1644 72.9362 33.1433 73.3176 33.22 73.7707C33.3818 74.6374 33.9489 75.806 35.5989 76.6655Z" fill="#FD9F41"/>
<path d="M42.7169 82.1852C42.1993 82.2258 41.7357 82.3053 41.3176 82.407C40.8995 82.4882 40.5298 82.6022 40.2001 82.7311C39.8682 82.8612 39.5786 83.0141 39.3228 83.1681C39.071 83.316 38.8553 83.4739 38.669 83.6334C38.2988 83.9514 38.0569 84.2717 37.9096 84.5118C37.7617 84.7548 37.7095 84.916 37.7095 84.916C38.0191 84.7192 38.3244 84.5619 38.6229 84.4351C38.9248 84.3089 39.2189 84.2172 39.5146 84.1266C40.1039 83.9553 40.6821 83.8831 41.2559 83.8347C41.8296 83.7685 42.3978 83.7413 42.9559 83.6896C43.5136 83.6301 44.0606 83.5195 44.5815 83.3455C45.217 83.1409 45.7229 82.7923 46.1182 82.4482C46.5134 82.0968 46.7987 81.7277 47.0066 81.3807C47.4158 80.6725 47.5136 80.106 47.5136 80.106C47.3351 80.315 47.1639 80.5246 46.956 80.7286C46.7453 80.9282 46.4984 81.1106 46.1654 81.2979C45.8324 81.4775 45.4116 81.6743 44.854 81.8188C44.5754 81.8956 44.2613 81.9606 43.9072 82.0279C43.553 82.0929 43.1578 82.1574 42.7169 82.1852Z" fill="#FD9F41"/>
<path d="M42.9877 78.0068C43.3686 78.1141 43.7155 78.1913 44.0285 78.272C44.3437 78.3515 44.6233 78.4376 44.8757 78.5216C45.3811 78.69 45.7752 78.8324 46.0977 79.0019C46.4201 79.1704 46.6714 79.3527 46.8927 79.5312C47.114 79.7007 47.3046 79.8803 47.5109 80.0616C47.5109 80.0616 47.3258 79.5167 46.8727 78.8752C46.647 78.551 46.3562 78.1875 45.9926 77.8578C45.6274 77.5198 45.1915 77.2418 44.6667 76.9855C44.2375 76.7798 43.7977 76.6686 43.3541 76.5485C42.9088 76.4223 42.4607 76.3161 42.0204 76.1727C41.5823 76.0087 41.1542 75.8002 40.7578 75.5067C40.5599 75.3649 40.372 75.1776 40.1985 74.9669C40.0229 74.755 39.86 74.5143 39.7121 74.2402C39.7121 74.2402 39.6954 74.407 39.7226 74.6783C39.7493 74.9513 39.8194 75.3243 39.999 75.7407C40.0896 75.9498 40.208 76.1666 40.3625 76.3884C40.5182 76.6008 40.7128 76.8098 40.9507 77.0111C41.1876 77.2168 41.4717 77.4091 41.8069 77.5893C42.1449 77.7505 42.5369 77.8928 42.9877 78.0068Z" fill="#FD9F41"/>
<path d="M46.9331 85.5631C47.3128 85.1868 47.7003 84.8654 48.0911 84.6192C48.4825 84.3601 48.8828 84.1855 49.2842 84.0093C50.0853 83.6585 50.9109 83.4739 51.6954 83.1809L51.4302 81.6704C51.3501 81.6982 51.2667 81.7266 51.1822 81.756C50.6902 81.9328 50.2527 82.0929 49.8668 82.2803C49.4821 82.4632 49.1474 82.6689 48.8561 82.8751C48.2691 83.2632 47.8576 83.6929 47.573 84.0932C47.2867 84.4896 47.1238 84.8654 47.0354 85.1278C46.9476 85.3964 46.9331 85.5631 46.9331 85.5631Z" fill="#FD9F41"/>
<path d="M46.4395 74.7109C46.4395 74.7109 46.4617 74.8777 46.5501 75.1396C46.639 75.4048 46.7919 75.7439 47.0644 76.1041C47.334 76.4616 47.7226 76.8313 48.2824 77.1304C48.5587 77.2722 48.8795 77.3895 49.2464 77.4779C49.6134 77.5674 50.0298 77.6391 50.4901 77.6263C50.569 77.6263 50.6463 77.6263 50.7225 77.6263L50.4567 76.1164C49.7813 76.1186 49.0891 76.0847 48.4081 75.9285C48.0684 75.854 47.7281 75.7027 47.3968 75.5121C47.0677 75.313 46.7463 75.0701 46.4395 74.7109Z" fill="#FD9F41"/>
<path d="M51.016 79.3L51.1377 79.9977C51.1377 79.9977 51.0449 80.0133 50.8681 80.0461C50.6941 80.0739 50.4384 80.13 50.1081 80.1662C49.7773 80.2095 49.3793 80.259 48.9201 80.3168C48.4614 80.3797 47.9388 80.3997 47.3729 80.4497C46.2365 80.5292 44.9078 80.5414 43.4862 80.4897C43.1299 80.4814 42.7691 80.4403 42.4044 80.4186C42.0402 80.383 41.6672 80.373 41.298 80.3202C40.557 80.2218 39.8014 80.1501 39.0576 79.9972C37.5565 79.757 36.0899 79.3551 34.724 78.9581C34.3876 78.8441 34.0552 78.7296 33.7316 78.619C33.4064 78.5117 33.0862 78.4072 32.7871 78.281C32.1827 78.038 31.6012 77.8334 31.0859 77.5866C30.0401 77.134 29.2045 76.6837 28.6113 76.3819C28.3189 76.2279 28.0965 76.0889 27.942 76.0033C27.7869 75.9137 27.7046 75.867 27.7046 75.867L28.0587 75.2544C28.0587 75.2544 28.1416 75.3011 28.2911 75.3873C28.444 75.4729 28.6614 75.6052 28.9493 75.7603C29.5286 76.0533 30.3475 76.4964 31.3716 76.9395C31.8736 77.1796 32.4451 77.3809 33.0372 77.6216C33.3319 77.745 33.6438 77.8462 33.9634 77.9535C34.2809 78.0614 34.6044 78.172 34.9347 78.2815C36.2717 78.6712 37.7094 79.066 39.1793 79.3006C39.9098 79.4485 40.6509 79.5207 41.3742 79.6186C41.7378 79.6703 42.1014 79.6797 42.4583 79.7148C42.8169 79.7364 43.1693 79.7737 43.5185 79.7842C44.9111 79.8337 46.2148 79.8215 47.3273 79.742C47.8832 79.6953 48.3936 79.6764 48.8417 79.6152C49.2914 79.5558 49.6845 79.5074 50.007 79.4674C50.3305 79.4329 50.5801 79.3751 50.7525 79.3473C50.9254 79.3189 51.016 79.3 51.016 79.3Z" fill="#FD9F41"/>
<path d="M14.4965 61.5709C14.2391 61.4931 13.9894 61.4197 13.7282 61.3119C13.468 61.204 13.1911 61.0656 12.9065 60.8437C12.6179 60.6236 12.3027 60.3256 11.9447 59.9125C11.5972 59.4878 11.227 58.9385 10.805 58.2241L9.3623 58.745C9.65584 59.2554 9.9744 59.7396 10.3536 60.1649C10.8083 60.6647 11.3187 60.9966 11.7884 61.2246C12.0275 61.3341 12.2566 61.4225 12.4834 61.4836C12.7113 61.5431 12.9293 61.5837 13.1322 61.6104C13.9372 61.7071 14.4965 61.5709 14.4965 61.5709Z" fill="#FD9F41"/>
<path d="M14.5347 61.5522C14.5347 61.5522 14.9611 61.1642 15.3753 60.4943C15.4787 60.3258 15.5804 60.1401 15.6755 59.9406C15.7744 59.7393 15.87 59.5175 15.9501 59.2862C16.1163 58.8181 16.212 58.3005 16.2259 57.7245C16.2464 57.2314 16.1786 56.7639 16.1013 56.2969L14.6575 56.8211C14.796 57.5416 14.8666 58.1426 14.9116 58.6424C14.9644 59.1383 14.9672 59.5419 14.9361 59.8905C14.8999 60.2446 14.8499 60.5254 14.7765 60.7906C14.7048 61.0563 14.6186 61.2971 14.5347 61.5522Z" fill="#FD9F41"/>
<path d="M14.6262 67.7863C15.1733 68.1716 15.7498 68.3728 16.2635 68.4801C16.7833 68.588 17.2464 68.6002 17.6545 68.5535C18.4634 68.4585 18.9765 68.1994 18.9765 68.1994C18.425 68.1621 17.9013 68.1527 17.2136 67.8325C16.517 67.5189 15.6286 66.9168 14.4428 65.5948C14.1037 65.2034 13.7451 64.8865 13.4315 64.5996C13.1146 64.3183 12.7994 64.0876 12.4964 63.903C12.3424 63.808 12.1929 63.7274 12.0472 63.654C11.9049 63.5795 11.7664 63.515 11.6308 63.4594C11.36 63.3454 11.1027 63.2659 10.8625 63.2131C10.3833 63.1052 9.98243 63.1025 9.69889 63.1297C9.41814 63.1553 9.25635 63.2092 9.25635 63.2092C9.94239 63.4716 10.4956 63.8052 10.9665 64.1843C11.4546 64.5585 11.8682 64.9721 12.2462 65.4046C12.6343 65.8444 13.0045 66.2608 13.3793 66.6822C13.5644 66.8929 13.7634 67.0897 13.9741 67.2726C14.182 67.4572 14.3983 67.6307 14.6262 67.7863Z" fill="#FD9F41"/>
<path d="M17.9529 63.3157C18.5705 64.7673 18.8896 65.6935 19.0097 66.4067C19.1204 67.1306 19.0542 67.6237 19.0097 68.1713C19.0097 68.1713 19.3355 67.6971 19.5785 66.951C19.7002 66.578 19.8203 66.126 19.8664 65.6356C19.9165 65.1464 19.8831 64.6249 19.7741 64.0523C19.7263 63.8227 19.6618 63.6009 19.5846 63.383C19.5028 63.1645 19.4239 62.9521 19.3422 62.7381C19.1804 62.3072 18.9836 61.8908 18.849 61.4449C18.7212 60.9935 18.6233 60.5315 18.6256 60.0395C18.6439 59.5364 18.7529 59.0065 19.0169 58.4434C19.0169 58.4434 18.8735 58.5323 18.6706 58.7141C18.4699 58.8987 18.2125 59.1761 17.9896 59.568C17.8778 59.7643 17.775 59.9894 17.6916 60.2452C17.6499 60.3714 17.6137 60.5043 17.5837 60.6494C17.5598 60.7878 17.5431 60.9357 17.532 61.0913C17.5142 61.4016 17.5287 61.7468 17.5882 62.1226C17.6415 62.5012 17.7805 62.887 17.9529 63.3157Z" fill="#FD9F41"/>
<path d="M19.8479 72.1254C19.6355 71.9759 19.4271 71.843 19.2214 71.7235C19.0196 71.6034 18.8311 71.4883 18.6398 71.3894C18.264 71.1898 17.9038 71.0419 17.5646 70.9307C16.8942 70.7028 16.3104 70.6199 15.8178 70.6344C15.3264 70.6405 14.9333 70.7311 14.6648 70.8229C14.3985 70.9124 14.2534 71.0008 14.2534 71.0008C14.9773 71.1008 15.6016 71.2904 16.1486 71.55C16.4205 71.6857 16.684 71.8214 16.9398 71.9692C17.1949 72.1193 17.4362 72.28 17.6714 72.444C18.1334 72.7859 18.6054 73.1084 19.0674 73.4269C19.5249 73.7499 20.0136 74.0184 20.5301 74.2147C20.847 74.3353 21.1494 74.416 21.4401 74.4671C21.7376 74.5105 22.0194 74.5232 22.283 74.5166C22.8117 74.501 23.2737 74.397 23.6523 74.2675C24.032 74.1352 24.3372 73.9679 24.5401 73.8417C24.7486 73.7155 24.8598 73.6204 24.8598 73.6204C24.3072 73.7216 23.8074 73.8089 23.058 73.6671C22.6849 73.5948 22.2396 73.4714 21.7203 73.2218C21.459 73.0989 21.1733 72.9494 20.8575 72.7759C20.5395 72.6063 20.2159 72.3756 19.8479 72.1254Z" fill="#FD9F41"/>
<path d="M22.7442 69.1033C22.9794 69.4169 23.1734 69.7199 23.3674 69.9795C23.5559 70.2408 23.7188 70.4815 23.8594 70.71C24.1346 71.1687 24.342 71.535 24.4804 71.8703C24.7623 72.5369 24.7962 73.0517 24.884 73.5854C24.884 73.5854 24.9363 73.4531 24.9963 73.2235C25.0581 72.9894 25.1209 72.6664 25.1587 72.2661C25.1981 71.8708 25.2043 71.4094 25.1381 70.9252C25.1031 70.6822 25.0514 70.4326 24.9735 70.183C24.904 69.9239 24.8096 69.6621 24.6878 69.403C24.4832 68.9749 24.2213 68.6052 23.9651 68.2194C23.706 67.8408 23.4136 67.4861 23.1884 67.073C23.0722 66.8701 22.9632 66.661 22.8682 66.447C22.7737 66.2291 22.6931 66.0045 22.6475 65.7543C22.5474 65.2612 22.524 64.728 22.6569 64.1143C22.6569 64.1143 22.5335 64.2343 22.3778 64.4595C22.225 64.6852 22.0404 65.0143 21.9142 65.4485C21.7902 65.8744 21.7196 66.4142 21.8191 67.0352C21.8725 67.341 21.9692 67.6707 22.1149 68.0198C22.1888 68.1949 22.2717 68.3778 22.3751 68.5585C22.4835 68.7342 22.6047 68.9176 22.7442 69.1033Z" fill="#FD9F41"/>
<path d="M20.9077 77.4256C21.437 77.3867 21.939 77.39 22.401 77.4512C22.8652 77.504 23.2888 77.6213 23.7075 77.7508C24.5464 77.9943 25.2975 78.3863 26.0852 78.6653L26.8536 77.3372C26.7741 77.3061 26.6929 77.2732 26.6106 77.2421C26.1186 77.0625 25.6811 76.9041 25.2636 76.799C24.851 76.6923 24.4613 76.6384 24.11 76.6045C23.41 76.5277 22.8168 76.5922 22.3404 76.7151C21.8595 76.8418 21.5042 77.0114 21.2652 77.1593C21.0284 77.3061 20.9077 77.4256 20.9077 77.4256Z" fill="#FD9F41"/>
<path d="M27.505 68.7939C27.505 68.7939 27.4155 68.9396 27.316 69.1953C27.2165 69.4511 27.1036 69.8241 27.0847 70.2705C27.063 70.7153 27.123 71.2473 27.3582 71.8344C27.4766 72.1291 27.6512 72.4159 27.873 72.7239C28.0993 73.0269 28.3728 73.3494 28.7314 73.6368C28.7914 73.6863 28.8498 73.738 28.9087 73.7847L29.6765 72.4571C29.16 72.0251 28.6502 71.5537 28.226 71.0016C28.0198 70.7159 27.8519 70.3884 27.7224 70.0309C27.5939 69.6662 27.5061 69.2715 27.505 68.7939Z" fill="#FD9F41"/>
<path d="M28.0581 75.254L27.7039 75.8667C27.7039 75.8667 27.6217 75.82 27.4677 75.7316C27.3159 75.6393 27.0824 75.5192 26.8083 75.3335C26.527 75.1556 26.189 74.9371 25.7993 74.688C25.4134 74.4356 24.9948 74.1232 24.5284 73.7941C24.2927 73.6362 24.0642 73.4461 23.8223 73.2565C23.5805 73.0664 23.3303 72.8718 23.0746 72.6722C22.8194 72.4665 22.5714 72.243 22.3124 72.0189C22.0566 71.7905 21.7803 71.5725 21.5279 71.3223C21.0153 70.8292 20.4705 70.3367 19.9663 69.7835C19.7117 69.5127 19.4409 69.2492 19.1968 68.9585C18.9472 68.6749 18.7009 68.3858 18.4508 68.1023C16.4866 65.7818 14.8983 63.1716 13.8948 61.1307C13.7608 60.8817 13.6496 60.6309 13.5423 60.3941C13.4372 60.1567 13.3355 59.9321 13.2393 59.7203C13.0414 59.3033 12.9007 58.9242 12.779 58.6173C12.6578 58.3082 12.5611 58.0652 12.4966 57.9007C12.4293 57.7322 12.4004 57.6449 12.4004 57.6449L13.0642 57.4009C13.0642 57.4009 13.0937 57.4887 13.1598 57.6511C13.2232 57.8151 13.3171 58.0519 13.4356 58.3516C13.5573 58.6557 13.693 59.0287 13.8875 59.4362C13.9832 59.6425 14.0821 59.8637 14.1861 60.0933C14.2895 60.3268 14.3979 60.5703 14.5291 60.8172C15.5137 62.8141 17.0687 65.3743 18.9945 67.6459C19.2374 67.9261 19.4804 68.2068 19.7217 68.4876C19.9624 68.77 20.2281 69.0257 20.4777 69.2943C20.9725 69.8341 21.5063 70.3211 22.0083 70.8048C22.2568 71.0477 22.527 71.2634 22.7766 71.4836C23.0312 71.7015 23.2742 71.9233 23.5238 72.1229C23.7751 72.3214 24.0197 72.5115 24.2554 72.6972C24.4922 72.8851 24.7163 73.0669 24.9476 73.2265C25.404 73.5445 25.8137 73.8519 26.194 74.1015C26.5731 74.3456 26.9073 74.5557 27.1802 74.7336C27.4521 74.9138 27.6778 75.0333 27.8279 75.1222C27.9791 75.2101 28.0581 75.254 28.0581 75.254Z" fill="#FD9F41"/>
<path d="M11.4792 38.1993C11.1951 37.7478 10.8921 37.3298 10.727 36.6198C10.648 36.2657 10.5997 35.8354 10.5947 35.2861C10.5869 34.7352 10.672 34.0814 10.8048 33.2591L9.36214 32.7349C9.26596 33.3142 9.1898 33.8868 9.20704 34.4577C9.29321 35.8165 9.84415 36.756 10.4101 37.3503C10.9644 37.9435 11.4792 38.1993 11.4792 38.1993Z" fill="#FD9F41"/>
<path d="M11.5195 38.2083C11.5195 38.2083 12.0972 38.1866 12.8466 37.937C13.5832 37.6846 14.5405 37.2332 15.2738 36.3637C15.6057 36.0001 15.862 35.5976 16.1005 35.1873L14.6567 34.6636C14.3054 35.3074 13.9601 35.8072 13.6827 36.2208C13.4031 36.6361 13.1434 36.9446 12.8938 37.1915C12.4029 37.6868 11.9832 37.9275 11.5195 38.2083Z" fill="#FD9F41"/>
<path d="M7.58719 43.0421C7.68281 43.3663 7.78899 43.657 7.92909 43.9233C8.07086 44.1863 8.22931 44.4203 8.39276 44.6272C8.72355 45.0419 9.08046 45.3477 9.41236 45.5762C9.73925 45.8013 10.0617 45.9431 10.2846 46.0315C10.5087 46.1221 10.6493 46.1554 10.6493 46.1554C10.2379 45.773 9.87323 45.4283 9.53855 44.7417C9.3751 44.3964 9.2 43.9678 9.09492 43.4013C8.98707 42.8364 8.86196 42.1309 8.85307 41.2464C8.84473 40.7283 8.77136 40.2569 8.71798 39.8371C8.65461 39.4129 8.56287 39.0371 8.44946 38.6985C8.2104 38.0192 7.94521 37.511 7.64055 37.1196C7.34312 36.7294 7.0368 36.4703 6.80497 36.3063C6.57258 36.1456 6.41357 36.0845 6.41357 36.0845C6.76994 36.726 6.97787 37.3392 7.09351 37.9335C7.23194 38.5312 7.27974 39.1161 7.29086 39.6903C7.34534 40.8423 7.27086 41.977 7.58719 43.0421Z" fill="#FD9F41"/>
<path d="M13.0076 41.7576C12.7586 42.507 12.5907 43.1169 12.3866 43.6134C12.1793 44.1065 12.0219 44.4918 11.8324 44.8053C11.4654 45.4308 11.0679 45.7666 10.6943 46.1552C10.6943 46.1552 10.8322 46.1157 11.0551 46.0251C11.2792 45.9361 11.5733 45.7944 11.9191 45.5859C12.2621 45.3796 12.6351 45.1083 12.9821 44.7631C13.1566 44.5935 13.3234 44.3995 13.4785 44.1893C13.6364 43.9803 13.7982 43.7457 13.9311 43.4933C14.3597 42.6583 14.5504 41.7615 14.8979 40.8981C15.0874 40.4723 15.3131 40.057 15.6267 39.6778C15.9647 39.3048 16.3917 38.9712 16.956 38.7072C16.956 38.7072 16.7897 38.6821 16.5168 38.6916C16.2443 38.7044 15.8669 38.7527 15.4449 38.9073C15.0274 39.0652 14.5343 39.3287 14.1179 39.7829C13.9021 40.0081 13.692 40.2794 13.4985 40.6052C13.2917 40.9293 13.15 41.3168 13.0076 41.7576Z" fill="#FD9F41"/>
<path d="M8.7887 49.7235C8.64582 49.2198 8.51629 48.775 8.34617 48.3798C8.18216 47.985 7.98925 47.6403 7.81691 47.3362C7.45832 46.7292 7.05082 46.2972 6.66499 45.9831C6.27639 45.6773 5.93336 45.4933 5.66928 45.3882C5.4091 45.2881 5.24121 45.2637 5.24121 45.2637C5.71043 45.8035 6.08347 46.35 6.33587 46.9004C6.46596 47.175 6.57048 47.453 6.65999 47.731C6.76284 48.0067 6.8479 48.288 6.92351 48.5627C7.07862 49.1197 7.18591 49.6751 7.35658 50.2166C7.52448 50.7531 7.68514 51.2773 7.96645 51.761C8.30725 52.3492 8.70419 52.7906 9.10948 53.1231C9.532 53.4494 9.95786 53.6629 10.3359 53.8091C11.0931 54.0899 11.6646 54.0899 11.6646 54.0899C10.7523 53.515 9.76494 53.1364 8.7887 49.7235Z" fill="#FD9F41"/>
<path d="M12.9492 49.2718C12.8514 50.8468 12.7324 51.8124 12.4972 52.5079C12.296 53.1973 12.0008 53.6109 11.7056 54.0824C11.7056 54.0824 12.2137 53.805 12.7763 53.2446C13.0582 52.9666 13.3528 52.6191 13.6064 52.2049C13.876 51.7869 14.11 51.3037 14.2457 50.7511C14.3535 50.2953 14.4292 49.8372 14.4575 49.3829C14.4803 48.9271 14.5303 48.4623 14.6048 48.0053C14.6443 47.7746 14.6905 47.5467 14.7549 47.3187C14.8294 47.0913 14.9228 46.8662 15.0401 46.646C15.2803 46.2035 15.5883 45.7799 16.1037 45.3901C16.1037 45.3901 15.9335 45.4074 15.6684 45.4796C15.4076 45.553 15.0368 45.6887 14.6699 45.9383C14.2985 46.1879 13.9105 46.5548 13.5808 47.0947C13.4084 47.3665 13.2817 47.6762 13.1722 48.0398C13.0704 48.3989 12.9709 48.8098 12.9492 49.2718Z" fill="#FD9F41"/>
<path d="M6.19678 54.464C6.64376 54.7731 7.00902 55.1028 7.3159 55.4475C7.63668 55.7888 7.90631 56.1446 8.13703 56.5143C8.25433 56.6989 8.36218 56.884 8.46281 57.0719C8.57066 57.2654 8.6713 57.4478 8.77582 57.6301C8.97374 58.0115 9.16776 58.3773 9.36234 58.7459L10.805 58.225C10.7639 58.1466 10.7227 58.071 10.6816 57.9937C10.4409 57.5339 10.1879 57.1342 9.92886 56.7906C9.67979 56.4432 9.43795 56.1418 9.18499 55.8922C8.93537 55.6393 8.68352 55.4319 8.43891 55.2601C8.19874 55.0867 7.9708 54.9482 7.75176 54.8404C7.3159 54.6252 6.92507 54.5302 6.64709 54.4896C6.3669 54.4479 6.19678 54.464 6.19678 54.464Z" fill="#FD9F41"/>
<path d="M16.8002 52.0977C16.8002 52.0977 16.6395 52.1471 16.4005 52.2767C16.1603 52.409 15.8428 52.6214 15.5298 52.9538C15.3764 53.1178 15.2191 53.3146 15.0806 53.5376C14.9494 53.7649 14.831 54.0273 14.7382 54.3253C14.6448 54.625 14.5719 54.963 14.5469 55.3427C14.5308 55.7158 14.5536 56.1288 14.6242 56.5908C14.6353 56.6703 14.6459 56.742 14.6565 56.8221L16.1002 56.2978C16.0541 55.9593 16.0096 55.624 15.9657 55.2788C15.9468 55.1087 15.9251 54.9419 15.9218 54.7673C15.9196 54.5944 15.9251 54.421 15.9385 54.2431C15.9674 53.8917 16.0313 53.5381 16.1603 53.1823C16.3037 52.8215 16.5094 52.4585 16.8002 52.0977Z" fill="#FD9F41"/>
<path d="M13.0633 57.4L12.3995 57.644C12.3995 57.644 12.2755 57.2832 12.0632 56.6544C12.0109 56.4954 11.952 56.322 11.8886 56.1319C11.8286 55.9428 11.7718 55.7338 11.7085 55.5092C11.6451 55.2896 11.5773 55.0522 11.5067 54.8026C11.4711 54.6764 11.4361 54.5502 11.3988 54.4173C11.3666 54.2828 11.3354 54.1471 11.3037 54.0115C11.2409 53.7335 11.1731 53.4439 11.1047 53.1453C11.0308 52.849 10.9724 52.5354 10.9185 52.2141C10.8618 51.8911 10.8012 51.562 10.7411 51.2251C10.6794 50.8898 10.6477 50.5385 10.5994 50.1871C10.3987 48.7784 10.3358 47.259 10.3086 45.7407C10.3358 44.2235 10.3987 42.7074 10.5994 41.2964C10.6483 40.944 10.6794 40.5965 10.7411 40.2574C10.8006 39.9221 10.8612 39.5908 10.9185 39.2683C10.9724 38.9481 11.0308 38.6362 11.1047 38.3399C11.1731 38.0391 11.2409 37.7517 11.3037 37.4726C11.3354 37.3336 11.3666 37.198 11.3988 37.0657C11.4361 36.9322 11.4711 36.8066 11.5067 36.6832C11.5773 36.4308 11.6451 36.1962 11.7085 35.9716C11.7713 35.752 11.8286 35.5429 11.8886 35.3495C11.9514 35.1604 12.0104 34.9853 12.0632 34.8285C12.2755 34.1998 12.3995 33.8423 12.3995 33.8423L13.0633 34.0825C13.0633 34.0825 12.9443 34.4366 12.7359 35.0526C12.6842 35.2038 12.6258 35.3761 12.5641 35.5618C12.5057 35.7492 12.4501 35.9532 12.3867 36.1717C12.325 36.3902 12.26 36.6209 12.191 36.8677C12.1549 36.9884 12.1215 37.1146 12.0854 37.2436C12.0543 37.3737 12.0248 37.506 11.9926 37.6416C11.9297 37.9135 11.8636 38.1942 11.7969 38.4889C11.7229 38.7791 11.6673 39.0871 11.6134 39.4023C11.5567 39.7159 11.4994 40.0405 11.4394 40.3697C11.3805 40.6993 11.3499 41.0424 11.3026 41.3876C11.1047 42.7686 11.0419 44.2563 11.0152 45.7423C11.0419 47.2306 11.1047 48.7194 11.3026 50.1021C11.3504 50.4451 11.3805 50.787 11.4394 51.1161C11.4994 51.4469 11.5567 51.7699 11.6134 52.0868C11.6673 52.3987 11.7229 52.7056 11.7969 52.9963C11.8636 53.2899 11.9297 53.5751 11.9926 53.8436C12.0248 53.9792 12.0543 54.1154 12.0854 54.2444C12.1215 54.3712 12.1549 54.4968 12.191 54.6208C12.2605 54.8638 12.325 55.095 12.3867 55.3141C12.4495 55.5303 12.5057 55.736 12.5641 55.9239C12.6258 56.1091 12.6842 56.2814 12.7359 56.4354C12.9443 57.0497 13.0633 57.4 13.0633 57.4Z" fill="#FD9F41"/>
<path d="M24.1934 18.3577C24.2534 17.8118 24.3135 17.3248 24.6393 16.6699C24.8038 16.3419 25.0307 15.9688 25.3909 15.5602C25.7484 15.1532 26.2065 14.6601 26.8547 14.1486L26.0864 12.821C25.8624 13.0051 25.6377 13.1908 25.4309 13.3903C25.228 13.5949 25.0357 13.8101 24.8622 14.0408C24.6576 14.3093 24.4919 14.5778 24.3591 14.8414C24.2295 15.1071 24.14 15.3784 24.0705 15.6341C23.9338 16.1462 23.9026 16.617 23.9215 17.0184C23.936 17.4159 24.0099 17.7551 24.0739 17.9886C24.1367 18.2221 24.1934 18.3577 24.1934 18.3577Z" fill="#FD9F41"/>
<path d="M24.2197 18.3894C24.2197 18.3894 24.3326 18.4783 24.5372 18.6017C24.7429 18.7251 25.037 18.8791 25.41 19.0337C25.7797 19.1871 26.2189 19.3228 26.7009 19.3945C26.9444 19.434 27.194 19.449 27.4598 19.4523C27.7266 19.4584 28.0046 19.4429 28.2893 19.3978C28.5294 19.3606 28.7635 19.3044 28.9909 19.2333C29.221 19.1716 29.4506 19.1043 29.6763 19.0248L28.9086 17.6978C28.2042 17.9307 27.646 18.137 27.1585 18.2593C26.6665 18.3793 26.2756 18.4683 25.9298 18.4994C25.2399 18.5734 24.7434 18.4561 24.2197 18.3894Z" fill="#FD9F41"/>
<path d="M18.0991 19.5626C17.5437 20.7918 17.6505 21.9081 17.8717 22.6786C17.9824 23.0645 18.1236 23.373 18.2353 23.5821C18.3526 23.7972 18.4399 23.914 18.4399 23.914C18.3799 23.3636 18.3215 22.8615 18.5 22.1155C18.585 21.7363 18.7557 21.3199 19.0259 20.8079C19.1626 20.5549 19.3166 20.2669 19.5151 19.9701C19.7169 19.6771 19.9515 19.3535 20.2228 18.9994C20.5347 18.5796 20.8177 18.2127 21.0328 17.8397C21.2536 17.4728 21.412 17.1097 21.5527 16.7895C21.8223 16.1396 21.9274 15.5508 21.9457 15.0583C21.9635 14.5613 21.9051 14.1799 21.8306 13.9047C21.7578 13.6362 21.6755 13.4883 21.6755 13.4883C21.5226 14.1882 21.3047 14.8087 21.015 15.3435C20.8733 15.612 20.7098 15.8583 20.5458 16.1018C20.3846 16.3481 20.2123 16.5849 20.0338 16.8084C19.857 17.0363 19.6736 17.2576 19.4923 17.4728C19.3139 17.6979 19.1415 17.9214 18.9714 18.1454C18.6334 18.5952 18.3165 19.0478 18.0991 19.5626Z" fill="#FD9F41"/>
<path d="M23.0739 22.0652C22.7465 22.2837 22.4452 22.4722 22.1639 22.6378C21.8853 22.8046 21.6424 22.962 21.4089 23.0882C20.9458 23.3444 20.546 23.5129 20.2141 23.6391C19.5376 23.8887 19.0194 23.8915 18.4707 23.9388C18.4707 23.9388 18.6008 23.9999 18.8293 24.0711C19.0606 24.1478 19.3891 24.2401 19.7822 24.2996C20.5727 24.4196 21.5951 24.4163 22.6648 23.9905C23.094 23.8003 23.4992 23.5818 23.8884 23.335C24.083 23.2149 24.2742 23.0882 24.4683 22.9653C24.6701 22.8485 24.8735 22.734 25.0787 22.6295C25.2866 22.5233 25.499 22.4249 25.7197 22.3399C25.9426 22.2615 26.1817 22.2036 26.4263 22.1664C26.9228 22.0897 27.4504 22.0897 28.0652 22.2737C28.0652 22.2737 27.9552 22.1442 27.7372 21.9763C27.5243 21.8089 27.1929 21.5904 26.7732 21.4459C26.3535 21.2974 25.8264 21.2057 25.196 21.2646C24.8752 21.2886 24.555 21.3786 24.1975 21.502C23.8434 21.6344 23.452 21.8 23.0739 22.0652Z" fill="#FD9F41"/>
<path d="M14.7205 25.4528C15.61 23.5793 15.6889 22.1944 15.496 21.221C15.4098 20.7434 15.2542 20.3743 15.1213 20.1274C14.9873 19.8811 14.8734 19.7544 14.8734 19.7544C14.8845 20.118 14.8684 20.4566 14.8244 20.7796C14.7916 21.1065 14.7333 21.4172 14.6549 21.7108C14.502 22.3023 14.2679 22.8327 14.0367 23.3636C13.5496 24.4071 12.9981 25.4028 12.783 26.4869C12.6657 27.1529 12.6851 27.7478 12.783 28.2626C12.8964 28.7869 13.0827 29.2233 13.2822 29.5752C13.6792 30.2785 14.1173 30.6454 14.1173 30.6454C13.7937 29.6224 13.2795 28.6996 14.7205 25.4528Z" fill="#FD9F41"/>
<path d="M18.1988 27.7794C17.118 28.9235 16.3997 29.5879 15.7782 29.9704C15.1794 30.3684 14.6857 30.4946 14.1548 30.6647C14.1548 30.6647 14.7241 30.7782 15.5157 30.7137C15.911 30.682 16.3613 30.6058 16.8194 30.4513C17.2937 30.3056 17.7857 30.0843 18.2449 29.7452C19.0182 29.2087 19.5669 28.4754 20.2836 27.8717C20.6266 27.5614 21.0302 27.3018 21.4899 27.1134C21.719 27.0183 21.9658 26.9421 22.2288 26.8915C22.5018 26.8482 22.7948 26.8282 23.1089 26.8421C23.1089 26.8421 22.9715 26.7436 22.7242 26.6297C22.4745 26.5163 22.1121 26.3867 21.659 26.3322C20.7761 26.2377 19.4963 26.4451 18.1988 27.7794Z" fill="#FD9F41"/>
<path d="M9.69038 27.4189C9.83382 27.9426 9.89943 28.4269 9.91666 28.8916C9.94446 29.3598 9.92 29.8045 9.8594 30.2354C9.83049 30.4505 9.7899 30.6612 9.74876 30.8736C9.71596 31.086 9.67482 31.2945 9.6309 31.5024C9.54528 31.921 9.44243 32.328 9.36182 32.7349L10.8045 33.2592C10.8151 33.1747 10.8395 33.0918 10.8551 33.0034C10.9685 32.4942 11.0319 32.0289 11.0569 31.6008C11.0791 31.1716 11.0947 30.7874 11.0613 30.435C11.003 29.7267 10.8262 29.1479 10.6394 28.7087C10.4409 28.2629 10.2074 27.9365 10.0201 27.7292C9.83103 27.5168 9.69038 27.4189 9.69038 27.4189Z" fill="#FD9F41"/>
<path d="M19.3368 32.42C19.3368 32.42 19.1811 32.3561 18.9115 32.3027C18.6429 32.2482 18.2638 32.2077 17.8124 32.2605C17.3537 32.3088 16.8511 32.4634 16.3224 32.8014C16.0622 32.9749 15.7782 33.1806 15.5269 33.4585C15.2717 33.7365 15.0209 34.0684 14.7769 34.4631C14.738 34.5337 14.6918 34.5966 14.6562 34.6638L16.1 35.1875C16.2802 34.9007 16.462 34.6088 16.6504 34.3214C16.7444 34.1796 16.8422 34.0412 16.9456 33.9022C17.0513 33.7665 17.1714 33.6353 17.2942 33.5119C17.5433 33.2628 17.8213 33.0327 18.1498 32.8392C18.4878 32.6535 18.882 32.5106 19.3368 32.42Z" fill="#FD9F41"/>
<path d="M13.0632 34.0815L12.3994 33.8413C12.3994 33.8413 12.4283 33.7485 12.4956 33.585C12.5601 33.4216 12.6568 33.1781 12.778 32.8678C12.8998 32.5587 13.041 32.1824 13.2383 31.7615C13.3345 31.5547 13.4362 31.3295 13.5413 31.0921C13.6486 30.8553 13.7598 30.6057 13.8938 30.3561C14.8973 28.3135 16.4851 25.7028 18.4498 23.3845C18.7 23.0954 18.9462 22.8085 19.1959 22.5244C19.4399 22.2359 19.7107 21.9735 19.9653 21.6994C20.4695 21.1496 21.0144 20.652 21.5269 20.1611C21.7793 19.9098 22.0562 19.693 22.3114 19.4645C22.571 19.2427 22.8184 19.0153 23.0736 18.8141C23.3293 18.6111 23.5795 18.4149 23.8213 18.2259C24.0632 18.0346 24.2911 17.8495 24.5274 17.6888C24.9938 17.3625 25.4125 17.0495 25.7983 16.7965C26.188 16.5469 26.526 16.3301 26.8073 16.1489C27.082 15.9665 27.3149 15.8431 27.4667 15.7536C27.6207 15.6646 27.7029 15.6179 27.7029 15.6179L28.0571 16.2278C28.0571 16.2278 27.9782 16.2745 27.8264 16.364C27.6763 16.453 27.4506 16.5703 27.1787 16.7493C26.9057 16.9255 26.5716 17.1379 26.1925 17.3847C25.8122 17.6304 25.4025 17.9418 24.946 18.257C24.7147 18.4149 24.4907 18.6017 24.2539 18.784C24.0181 18.9719 23.7735 19.1632 23.5222 19.36C23.2726 19.5596 23.0291 19.7792 22.775 19.9982C22.5254 20.2234 22.2547 20.4346 22.0067 20.6815C21.5041 21.1646 20.971 21.6488 20.4762 22.1887C20.2266 22.4566 19.9608 22.7129 19.7201 22.9937C19.4783 23.2761 19.2359 23.5568 18.9929 23.8382C17.0671 26.1114 15.5121 28.6671 14.5276 30.6691C14.3964 30.9148 14.288 31.1577 14.1846 31.389C14.0806 31.6197 13.9816 31.8416 13.886 32.0506C13.6914 32.4581 13.5558 32.8278 13.434 33.1302C13.3156 33.4338 13.2217 33.6717 13.1583 33.8324C13.0932 33.9925 13.0632 34.0815 13.0632 34.0815Z" fill="#FD9F41"/>
<path d="M46.686 11.3244C47.0813 10.9519 47.4405 10.6195 48.1115 10.3198C48.2794 10.2464 48.4656 10.1775 48.6813 10.1108C48.8926 10.048 49.1311 10.0035 49.3991 9.95622C49.9389 9.87005 50.6021 9.78888 51.4305 9.81446L51.6957 8.30395C51.4021 8.29784 51.1142 8.29783 50.8256 8.31618C50.5382 8.34453 50.2536 8.38512 49.9722 8.44905C49.3134 8.59693 48.7753 8.84378 48.3428 9.16011C47.9102 9.46644 47.5817 9.80834 47.3376 10.1297C46.8495 10.7629 46.686 11.3244 46.686 11.3244Z" fill="#FD9F41"/>
<path d="M46.6841 11.3657C46.6841 11.3657 46.8064 11.9228 47.1822 12.6311C47.369 12.9807 47.6192 13.371 47.9416 13.7341C48.2669 14.0899 48.6616 14.4596 49.1547 14.7576C49.3654 14.8843 49.58 14.9888 49.7979 15.0789C50.0137 15.1834 50.2355 15.2785 50.4573 15.3646L50.723 13.8547C50.0342 13.5784 49.4727 13.3799 49.0196 13.162C48.7911 13.0541 48.5893 12.9429 48.4092 12.8418C48.2274 12.7484 48.0684 12.6533 47.9238 12.5549C47.3484 12.1691 47.0438 11.7588 46.6841 11.3657Z" fill="#FD9F41"/>
<path d="M41.2473 8.31958C40.0348 8.93891 39.3893 9.81508 39.0669 10.5701C38.7394 11.3128 38.7061 11.8854 38.7061 11.8854C39.0157 11.4357 39.2881 10.9831 39.9074 10.5389C40.221 10.3238 40.6168 10.1014 41.1528 9.87345C41.6898 9.65107 42.3675 9.4665 43.2326 9.26024C45.2657 8.85607 46.4187 8.09831 47.0853 7.35223C47.4161 6.9981 47.6195 6.65619 47.7363 6.40045C47.8547 6.14805 47.8875 5.98071 47.8875 5.98071C47.6029 6.20865 47.321 6.391 47.038 6.55223C46.7539 6.72346 46.4721 6.86244 46.1891 6.97697C45.6254 7.20824 45.0611 7.33444 44.4968 7.47009C44.2149 7.53236 43.9347 7.58406 43.6545 7.63688C43.3771 7.6858 43.098 7.7325 42.8256 7.80533C42.278 7.93765 41.7449 8.08886 41.2473 8.31958Z" fill="#FD9F41"/>
<path d="M43.4438 13.4393C42.6627 13.367 42.0278 13.2508 41.5102 13.1552C40.9893 13.0602 40.5807 12.9429 40.2393 12.8072C39.5594 12.5515 39.168 12.2524 38.7144 11.926C38.7144 11.926 38.9629 12.4497 39.4866 13.0413C40.0097 13.6172 40.8014 14.321 41.8905 14.6474C42.3408 14.8047 42.7928 14.8842 43.2475 14.9404C43.4716 14.9626 43.7012 15.0049 43.9302 15.0421C44.1598 15.0794 44.3884 15.1222 44.6152 15.1689C45.0699 15.2578 45.5208 15.4307 45.9483 15.6837C46.1624 15.8099 46.3686 15.9628 46.5704 16.1423C46.7695 16.3297 46.9574 16.5587 47.1381 16.8195C47.1381 16.8195 47.1331 16.6477 47.0764 16.3792C47.0174 16.114 46.9035 15.7437 46.6777 15.3495C46.2252 14.5907 45.2895 13.6889 43.4438 13.4393Z" fill="#FD9F41"/>
<path d="M34.8685 10.6741C35.3433 10.4623 35.7497 10.2127 36.1122 9.99421C36.4758 9.77072 36.7877 9.53722 37.0529 9.29983C37.5821 8.81671 37.9468 8.36361 38.1859 7.93498C38.4266 7.50746 38.545 7.12497 38.6017 6.84755C38.6584 6.56958 38.6518 6.40112 38.6518 6.40112C38.2026 6.97986 37.7228 7.40905 37.2213 7.75374C36.7265 8.11789 36.2095 8.38919 35.6841 8.62324C35.1538 8.87008 34.6451 9.10692 34.1319 9.3443C33.8778 9.46105 33.6327 9.5967 33.3981 9.74236C33.1607 9.89191 32.9327 10.0492 32.7181 10.2227C32.19 10.6347 31.8309 11.1306 31.5779 11.5909C31.3266 12.0557 31.1832 12.4993 31.112 12.9001C30.968 13.7057 31.0692 14.2717 31.0692 14.2717C31.1654 14.0126 31.256 13.7602 31.3822 13.4944C31.509 13.2309 31.678 12.9746 31.9293 12.6878C32.4279 12.1057 33.2635 11.4291 34.8685 10.6741Z" fill="#FD9F41"/>
<path d="M36.0385 14.6942C34.474 14.8687 33.4961 14.906 32.7795 14.817C32.4204 14.7703 32.1202 14.6847 31.8528 14.6002C31.587 14.5113 31.3457 14.4068 31.0889 14.3083C31.0889 14.3083 31.4502 14.7581 32.094 15.2056C32.417 15.4302 32.8168 15.6738 33.2698 15.8578C33.7257 16.0468 34.2327 16.1635 34.8104 16.2275C35.0461 16.2464 35.2768 16.2497 35.5064 16.2369C35.7394 16.2214 35.9662 16.2058 36.1941 16.1886C36.6517 16.1608 37.1092 16.0952 37.5718 16.0918C38.0415 16.0979 38.5108 16.1413 38.9839 16.2803C39.4581 16.441 39.9346 16.7078 40.3982 17.1214C40.3982 17.1214 40.3565 16.9569 40.2403 16.7139C40.1213 16.4676 39.9284 16.1385 39.6188 15.8088C39.3091 15.4881 38.8766 15.1395 38.2917 14.9332C37.9993 14.8259 37.6674 14.7414 37.2905 14.6869C36.9119 14.6341 36.5016 14.6503 36.0385 14.6942Z" fill="#FD9F41"/>
<path d="M29.7428 8.94238C29.5154 9.42884 29.263 9.86192 28.9784 10.2283C28.6976 10.6002 28.3807 10.9049 28.0683 11.214C27.7492 11.5153 27.4162 11.7838 27.0759 12.0362C26.7385 12.2892 26.4133 12.5572 26.0869 12.8196L26.8552 14.1472C26.9231 14.0938 26.9892 14.0393 27.0593 13.9826C27.2622 13.8175 27.449 13.6568 27.623 13.4928C27.8003 13.3399 27.9632 13.1859 28.1128 13.0341C28.4113 12.7262 28.6582 12.4265 28.8583 12.1307C29.273 11.5581 29.5143 11.0177 29.6472 10.5435C29.7812 10.0726 29.8045 9.66511 29.7956 9.38603C29.7873 9.10639 29.7428 8.94238 29.7428 8.94238Z" fill="#FD9F41"/>
<path d="M33.931 18.9677C33.931 18.9677 33.8521 18.8192 33.6798 18.6008C33.5069 18.3851 33.2445 18.1171 32.8692 17.8736C32.4912 17.6301 31.998 17.4121 31.3726 17.3243C31.0646 17.2887 30.7227 17.2887 30.3474 17.3304C30.1578 17.3493 29.9616 17.3805 29.7564 17.421C29.5541 17.4755 29.3467 17.5383 29.1282 17.6178C29.0543 17.6456 28.9815 17.6707 28.9092 17.6973L29.6769 19.0244C30.0033 18.9243 30.3163 18.7931 30.6487 18.7053C30.9817 18.6135 31.3175 18.5374 31.6661 18.4968C32.0097 18.4501 32.3811 18.4751 32.7558 18.5407C33.136 18.6163 33.5224 18.7364 33.931 18.9677Z" fill="#FD9F41"/>
<path d="M28.0582 16.2275L27.7041 15.6176C27.7041 15.6176 27.7864 15.5665 27.9415 15.4825C28.096 15.393 28.319 15.2574 28.6108 15.1C29.204 14.7987 30.0396 14.3506 31.0854 13.8986C31.6007 13.6523 32.1823 13.4428 32.7866 13.1998C33.0862 13.0731 33.4059 12.9719 33.7311 12.8629C34.0552 12.7523 34.3871 12.6411 34.7235 12.5277C36.0889 12.1263 37.5555 11.7271 39.0571 11.483C39.8009 11.3352 40.5565 11.2607 41.2976 11.1623C41.6667 11.1106 42.0397 11.0983 42.4039 11.0666C42.7686 11.0416 43.1294 11.0033 43.4858 10.9933C44.9073 10.9404 46.236 10.956 47.3724 11.0355C47.9383 11.0822 48.4615 11.1044 48.9196 11.1656C49.3788 11.2245 49.7769 11.2762 50.1076 11.3168C50.4379 11.3507 50.6936 11.4086 50.8676 11.4363C51.0444 11.468 51.1373 11.483 51.1373 11.483L51.0155 12.1824C51.0155 12.1824 50.9249 12.1669 50.752 12.1357C50.5796 12.109 50.33 12.0534 50.0065 12.019C49.6835 11.9767 49.291 11.9272 48.8412 11.8711C48.3931 11.8099 47.8827 11.7883 47.3268 11.7405C46.2138 11.6654 44.9107 11.6498 43.518 11.6993C43.1689 11.7088 42.8164 11.751 42.4578 11.7727C42.1003 11.8038 41.7373 11.8166 41.3737 11.8661C40.6499 11.9645 39.9088 12.0345 39.1788 12.183C37.7095 12.4209 36.2712 12.8118 34.9342 13.2009C34.604 13.3143 34.2798 13.4222 33.9629 13.5328C33.6433 13.6373 33.3314 13.7419 33.0367 13.8658C32.4452 14.1054 31.8732 14.3039 31.3711 14.5469C30.3465 14.9905 29.5282 15.4319 28.9489 15.7271C28.6609 15.8784 28.4435 16.0107 28.2906 16.0968C28.1411 16.1825 28.0582 16.2275 28.0582 16.2275Z" fill="#FD9F41"/>
<path d="M68.437 20.3984C69.49 20.3767 70.4896 20.1699 73.0425 22.2897L74.2177 21.304C73.7652 20.931 73.3182 20.5702 72.8067 20.3083C72.198 20.0037 71.6215 19.8564 71.1011 19.803C70.5718 19.7607 70.0965 19.8147 69.7012 19.9031C68.9146 20.0832 68.437 20.3984 68.437 20.3984Z" fill="#FD9F41"/>
<path d="M68.4079 20.4312C68.4079 20.4312 68.1371 20.9426 67.9748 21.7204C67.892 22.1051 67.8386 22.5582 67.8536 23.0447C67.8564 23.5417 67.9292 24.0709 68.1221 24.6085C68.2833 25.0705 68.4902 25.5042 68.727 25.9178L69.9028 24.9288C69.174 23.6429 68.7698 22.8117 68.5997 22.1307C68.4034 21.4674 68.4207 20.971 68.4079 20.4312Z" fill="#FD9F41"/>
<path d="M66.2 14.6004C64.8758 14.2902 63.8167 14.5515 63.0856 14.9217C62.3573 15.2792 61.9648 15.699 61.9648 15.699C62.4897 15.5511 62.9894 15.381 63.7489 15.4366C64.1269 15.4727 64.5745 15.5566 65.1304 15.7284C65.41 15.8096 65.7025 15.9363 66.0338 16.0798C66.3618 16.2249 66.7293 16.3828 67.1173 16.5979C67.5704 16.8537 67.9985 17.046 68.4033 17.1961C68.8058 17.3407 69.1694 17.4608 69.5196 17.533C69.8665 17.6064 70.189 17.6437 70.4869 17.6498C70.786 17.662 71.0479 17.6531 71.2914 17.6214C71.7751 17.5592 72.1531 17.4246 72.4077 17.3045C72.6635 17.1878 72.7969 17.0816 72.7969 17.0816C71.3475 17.0393 70.2557 16.5851 69.2422 16.0347C68.7274 15.769 68.2437 15.4732 67.7461 15.2136C67.2385 14.9668 66.7293 14.7455 66.2 14.6004Z" fill="#FD9F41"/>
<path d="M64.5911 19.9351C64.3276 19.6405 64.0763 19.3936 63.8639 19.1468C63.6482 18.9066 63.4681 18.6692 63.2974 18.468C62.9594 18.0671 62.7204 17.7124 62.5447 17.39C62.1894 16.7579 62.0816 16.2736 61.9426 15.7344C61.9426 15.7344 61.7969 16.2925 61.8186 17.0842C61.8492 17.8642 62.0054 18.9061 62.6275 19.8612C62.871 20.2692 63.1684 20.62 63.4798 20.9519C63.7844 21.3 64.093 21.6446 64.381 22.0071C64.9358 22.7543 65.3733 23.6294 65.2443 24.8903C65.2443 24.8903 65.3516 24.7607 65.4784 24.5172C65.6063 24.2771 65.7553 23.9224 65.8325 23.4765C65.8726 23.2563 65.8976 23.0034 65.8853 22.7399C65.8714 22.4775 65.8264 22.1934 65.7391 21.8909C65.6513 21.5929 65.5301 21.2633 65.34 20.9391C65.1476 20.6167 64.9013 20.2826 64.5911 19.9351Z" fill="#FD9F41"/>
<path d="M59.8024 12.3054C60.3028 12.4438 60.7703 12.5233 61.194 12.5795C61.6165 12.6434 62.0029 12.6656 62.3604 12.6562C63.0742 12.6273 63.6468 12.5111 64.1049 12.336C64.5625 12.1625 64.8999 11.9479 65.1228 11.7711C65.3436 11.5932 65.4481 11.4576 65.4481 11.4576C64.7287 11.6182 64.0888 11.6321 63.4817 11.5776C62.8685 11.5371 62.297 11.4136 61.7438 11.2563C61.184 11.1151 60.6375 10.9522 60.0949 10.8099C59.5511 10.6714 58.9963 10.5886 58.447 10.573C58.2797 10.5703 58.1163 10.573 57.9606 10.5825C57.8027 10.6008 57.6498 10.6231 57.5014 10.652C57.2095 10.7115 56.9388 10.7943 56.6941 10.8894C56.2027 11.0845 55.8074 11.3286 55.4933 11.596C54.8678 12.1186 54.5815 12.6184 54.5815 12.6184C55.0613 12.3482 55.5072 12.0608 56.2561 11.9535C56.6324 11.9006 57.0927 11.864 57.6687 11.9095C57.9567 11.9379 58.2764 11.9813 58.6299 12.0424C58.8067 12.0735 58.9924 12.1075 59.1909 12.1469C59.3871 12.1881 59.5884 12.2459 59.8024 12.3054Z" fill="#FD9F41"/>
<path d="M58.1152 16.1324C57.9529 16.0251 57.8011 15.9106 57.6527 15.8122C57.5015 15.7155 57.3619 15.621 57.2307 15.5287C56.9639 15.3463 56.7281 15.1712 56.5208 15.005C56.1022 14.6786 55.7836 14.4034 55.5384 14.1321C55.0503 13.5845 54.8329 13.1431 54.5694 12.6594C54.5694 12.6594 54.56 13.2354 54.7657 13.9931C54.8696 14.3662 55.0181 14.8109 55.246 15.2446C55.3594 15.4631 55.4939 15.6804 55.6502 15.8928C55.7297 15.9973 55.8147 16.1013 55.9042 16.203C55.9932 16.3092 56.0877 16.4165 56.1894 16.5183C56.5208 16.8596 56.896 17.1126 57.2719 17.3772C57.6449 17.649 58.0296 17.9014 58.3921 18.1905C58.7457 18.4963 59.0798 18.8349 59.3478 19.2452C59.6135 19.6699 59.807 20.1814 59.8948 20.7974C59.8948 20.7974 59.9676 20.6445 60.0371 20.3793C60.1033 20.1169 60.1667 19.7411 60.1405 19.2896C60.1116 18.8404 59.9999 18.304 59.6869 17.7658C59.5334 17.4945 59.3327 17.2165 59.0781 16.9308C58.8207 16.6567 58.4977 16.3976 58.1152 16.1324Z" fill="#FD9F41"/>
<path d="M56.9901 7.6814C56.5003 7.91545 56.0295 8.07612 55.5758 8.17452C55.1227 8.27459 54.683 8.31295 54.2438 8.34464C53.8079 8.36966 53.3793 8.36021 52.9573 8.33519C52.5342 8.31629 52.11 8.31073 51.6959 8.30406L51.4307 9.81456C51.5157 9.81456 51.603 9.81679 51.6931 9.81679C51.9522 9.82346 52.2029 9.82012 52.4369 9.80511C52.6727 9.799 52.8961 9.78955 53.1091 9.77009C53.5344 9.72784 53.9169 9.65334 54.2616 9.55827C54.9487 9.38037 55.4785 9.12797 55.886 8.85C56.2913 8.57202 56.5704 8.27737 56.7455 8.05722C56.9207 7.83317 56.9901 7.6814 56.9901 7.6814Z" fill="#FD9F41"/>
<path d="M53.7526 18.0499C53.7526 18.0499 53.7899 17.8831 53.7949 17.6118C53.7976 17.34 53.7732 16.9641 53.642 16.5333C53.5091 16.1074 53.2739 15.6143 52.8486 15.1523C52.6357 14.9272 52.3739 14.7059 52.0603 14.4924C51.9041 14.3879 51.7345 14.2834 51.5466 14.1877C51.3604 14.101 51.1586 14.0148 50.9412 13.9353C50.8667 13.9075 50.7961 13.8825 50.7233 13.8547L50.4575 15.3647C50.7733 15.4942 51.0963 15.5987 51.4087 15.7411C51.7201 15.8856 52.0281 16.0468 52.3188 16.2403C52.6124 16.4227 52.8848 16.6723 53.1266 16.9736C53.3696 17.2699 53.5847 17.6207 53.7526 18.0499Z" fill="#FD9F41"/>
<path d="M51.0161 12.1813L51.1379 11.4819C51.1379 11.4819 51.5109 11.5525 52.1636 11.6732C52.8113 11.8277 53.7408 12.0112 54.8327 12.3425C55.9285 12.6494 57.181 13.0942 58.4986 13.6329C59.8062 14.1938 61.1838 14.8404 62.4892 15.6176C65.1366 17.1126 67.5083 19.0395 69.1489 20.6173C69.3524 20.8135 69.553 20.9992 69.7365 21.1838C69.9172 21.3689 70.084 21.5507 70.2452 21.7175C70.5621 22.0527 70.849 22.3368 71.0608 22.5931C71.4961 23.0957 71.7435 23.3848 71.7435 23.3848L71.2014 23.8384C71.2014 23.8384 70.9579 23.5571 70.5326 23.0645C70.3252 22.8144 70.0439 22.5369 69.7332 22.2045C69.577 22.0438 69.4107 21.8665 69.2367 21.6836C69.0555 21.5023 68.8592 21.3227 68.6591 21.1293C67.0541 19.5849 64.7269 17.6952 62.1356 16.2281C60.8575 15.4703 59.5065 14.8382 58.2278 14.2839C56.9369 13.763 55.71 13.3227 54.6342 13.023C53.5679 12.6967 52.6539 12.5177 52.0218 12.3664C51.3814 12.2486 51.0161 12.1813 51.0161 12.1813Z" fill="#FD9F41"/>
<path d="M79.2642 41.3325C79.4776 41.4926 79.6872 41.6472 79.8968 41.8379C80.0013 41.9329 80.1059 42.0363 80.2087 42.1564C80.3088 42.2732 80.4066 42.4055 80.5045 42.5617C80.7002 42.8675 80.8953 43.2522 81.0893 43.7648C81.2711 44.2813 81.4251 44.9223 81.5836 45.7401H83.118C83.0107 45.1658 82.8823 44.6026 82.6705 44.0717C82.4158 43.4496 82.0484 42.962 81.6837 42.589C81.3173 42.2131 80.927 41.9513 80.5606 41.7634C79.834 41.3948 79.2642 41.3325 79.2642 41.3325Z" fill="#FD9F41"/>
<path d="M79.2212 41.3345C79.2212 41.3345 78.687 41.5535 78.0693 42.0416C77.7674 42.2846 77.4261 42.5954 77.1097 42.9778C76.794 43.3598 76.5316 43.8129 76.3175 44.3488C76.1307 44.808 76.0295 45.2728 75.9473 45.7398H77.4811C77.5951 45.0126 77.7357 44.4261 77.8692 43.9419C77.9881 43.4554 78.1255 43.0757 78.2722 42.7594C78.3462 42.5981 78.4257 42.4564 78.5041 42.3268C78.578 42.1979 78.6553 42.0806 78.7337 41.9666C78.8893 41.7459 79.0556 41.5457 79.2212 41.3345Z" fill="#FD9F41"/>
<path d="M81.2761 35.4494C81.0787 35.1786 80.8697 34.9407 80.6567 34.7383C80.4371 34.5365 80.2025 34.3714 79.9807 34.2329C79.5265 33.955 79.0845 33.7882 78.6954 33.6898C78.3101 33.5908 77.9637 33.563 77.7208 33.5569C77.4784 33.5508 77.335 33.5691 77.335 33.5691C77.8531 33.7876 78.3101 33.9861 78.8633 34.5176C79.0006 34.6505 79.1429 34.805 79.293 34.984C79.4437 35.1686 79.5821 35.3804 79.7356 35.6267C79.8873 35.8735 80.0474 36.151 80.2148 36.469C80.3832 36.7925 80.5278 37.1589 80.6979 37.5692C81.464 39.5011 82.4124 40.5085 83.2408 41.0388C83.6544 41.3057 84.0319 41.4447 84.306 41.5164C84.5806 41.5898 84.7502 41.5926 84.7502 41.5926C84.1937 41.1122 83.7856 40.6097 83.4737 40.0882C83.158 39.5689 82.8972 39.0419 82.6926 38.5048C82.4958 37.9633 82.2768 37.4324 82.0683 36.9121C81.9577 36.6558 81.8548 36.3967 81.7186 36.1532C81.5841 35.9114 81.4384 35.674 81.2761 35.4494Z" fill="#FD9F41"/>
<path d="M76.6164 38.5033C76.5908 38.1119 76.5959 37.7511 76.5792 37.4281C76.5647 37.1073 76.5614 36.8149 76.568 36.5497C76.573 36.2845 76.5959 36.0438 76.6131 35.8286C76.6281 35.6135 76.6531 35.4183 76.6853 35.2404C76.8127 34.5305 77.0767 34.0779 77.2947 33.582C77.2947 33.582 77.1779 33.6643 77.0011 33.825C76.8227 33.9862 76.5897 34.223 76.3351 34.536C76.0861 34.8451 75.827 35.2276 75.6179 35.6702C75.5145 35.8887 75.425 36.126 75.3461 36.379C75.2621 36.6347 75.1976 36.9033 75.1582 37.1868C75.1254 37.4214 75.1126 37.6521 75.1126 37.8801C75.1126 38.1074 75.1031 38.342 75.1104 38.5683C75.1154 39.0303 75.1687 39.4856 75.1259 39.9537C75.0915 40.4168 75.0409 40.8849 74.8563 41.3497C74.6667 41.815 74.3821 42.272 73.9429 42.7123C73.9429 42.7123 74.1091 42.6812 74.3615 42.5767C74.6122 42.475 74.9508 42.3021 75.2938 42.0096C75.6313 41.72 75.9971 41.3097 76.2495 40.7371C76.3712 40.453 76.4747 40.1239 76.5436 39.7542C76.5792 39.5662 76.6131 39.3683 76.6225 39.1593C76.6292 38.9541 76.6292 38.7334 76.6164 38.5033Z" fill="#FD9F41"/>
<path d="M77.856 29.5778C78.01 29.7829 78.1562 29.9792 78.3019 30.1704C78.4459 30.3578 78.591 30.5279 78.7367 30.6869C79.0235 31.0021 79.3254 31.2579 79.5911 31.4858C80.1382 31.9317 80.6702 32.203 81.1389 32.3609C81.6081 32.5188 81.9917 32.576 82.2764 32.5827C82.556 32.5916 82.7233 32.5543 82.7233 32.5543C82.0946 32.2069 81.5631 31.8177 81.1339 31.3874C80.9154 31.1734 80.7247 30.9488 80.5413 30.718C80.35 30.4929 80.1766 30.2588 80.0081 30.0253C79.8413 29.7885 79.6829 29.5511 79.5261 29.3154C79.3704 29.078 79.1975 28.8501 79.0313 28.6221C78.6938 28.1724 78.3608 27.7343 77.9261 27.3796C77.404 26.9459 76.892 26.6563 76.3833 26.4951C75.8758 26.3327 75.4054 26.276 75.0018 26.2699C74.1962 26.2638 73.6592 26.4589 73.6592 26.4589C74.1946 26.5629 74.6983 26.6463 75.3626 27.0316C75.7045 27.2189 76.0464 27.5086 76.4656 27.91C76.6696 28.1162 76.9048 28.3436 77.1283 28.6216C77.3535 28.9007 77.5936 29.217 77.856 29.5778Z" fill="#FD9F41"/>
<path d="M74.1044 31.4331C73.9871 31.0568 73.892 30.7126 73.8131 30.3952C73.7375 30.08 73.6524 29.8042 73.5985 29.5418C73.4801 29.0298 73.4417 28.5945 73.4122 28.2403C73.3672 27.5226 73.5067 27.0267 73.624 26.4863C73.624 26.4863 73.2416 26.9189 72.903 27.6399C72.7334 28.0002 72.5716 28.4294 72.4743 28.9036C72.3798 29.3806 72.3126 29.921 72.377 30.4903C72.4371 30.9522 72.5244 31.4065 72.65 31.8462C72.7101 32.0686 72.7829 32.286 72.8385 32.5095C72.8924 32.7341 72.9447 32.962 72.9858 33.1894C73.0281 33.4179 73.0625 33.6514 73.0787 33.886C73.0892 34.1211 73.0764 34.3646 73.0431 34.6115C72.973 35.1041 72.8212 35.6094 72.4704 36.1481C72.4704 36.1481 72.6256 36.0786 72.8463 35.9207C73.0681 35.7629 73.3728 35.5099 73.6335 35.1496C73.8959 34.7894 74.1344 34.3118 74.2606 33.6925C74.3301 33.379 74.339 33.0454 74.3201 32.6657C74.3084 32.4789 74.2884 32.2804 74.2545 32.0741C74.2378 31.9696 74.2189 31.8623 74.1961 31.7545C74.1694 31.65 74.1377 31.5443 74.1044 31.4331Z" fill="#FD9F41"/>
<path d="M78.6585 24.2321C78.1326 24.0997 77.6951 23.9079 77.2703 23.6984C76.8512 23.4899 76.4803 23.243 76.1395 22.9751C75.8054 22.7038 75.4641 22.4352 75.1527 22.1511C74.8358 21.8659 74.5462 21.5669 74.2187 21.3044L73.0435 22.2901C73.1091 22.3463 73.1763 22.4035 73.2453 22.4608C74.003 23.1658 74.7385 23.6072 75.3656 23.9207C76.0011 24.2265 76.5949 24.356 77.0758 24.4139C77.5583 24.4633 77.9541 24.4227 78.2305 24.3672C78.5056 24.3088 78.6585 24.2321 78.6585 24.2321Z" fill="#FD9F41"/>
<path d="M69.5177 30.1024C69.5177 30.1024 69.6517 30.0006 69.8312 29.7916C70.0119 29.587 70.2371 29.2768 70.4189 28.8604C70.6023 28.439 70.7118 27.9303 70.6902 27.2987C70.6735 26.6605 70.4606 25.9489 70.0208 25.1283C69.9797 25.061 69.9413 24.9954 69.9024 24.9287L68.7266 25.9177C68.9006 26.2041 69.0501 26.5182 69.2058 26.8206C69.3526 27.1342 69.5054 27.4371 69.5916 27.7852C69.6822 28.1265 69.7412 28.4845 69.7412 28.8665C69.7489 29.2429 69.6639 29.6654 69.5177 30.1024Z" fill="#FD9F41"/>
<path d="M71.2021 23.8374L71.7442 23.3838C71.7442 23.3838 71.807 23.4522 71.9221 23.5878C72.0327 23.7268 72.1962 23.9325 72.3997 24.1949C72.6004 24.4573 72.865 24.7642 73.1313 25.1439C73.397 25.5225 73.7067 25.9423 74.0241 26.4137C75.2984 28.2972 76.7555 30.9875 77.7962 33.8417C77.9174 34.1992 78.0397 34.5594 78.1615 34.9197C78.2199 35.0965 78.2843 35.2738 78.3399 35.4534C78.39 35.6374 78.4411 35.8164 78.4939 35.9943C78.5957 36.3529 78.6952 36.7104 78.7953 37.0651C78.8775 37.4187 78.9598 37.7728 79.0388 38.1208C79.215 38.8091 79.3101 39.4923 79.4302 40.1339C79.4952 40.4536 79.5263 40.7688 79.5658 41.0735C79.6058 41.3792 79.642 41.6722 79.6787 41.9541C79.7849 43.086 79.8588 44.0344 79.8599 44.6977C79.8771 45.3604 79.8866 45.7401 79.8866 45.7401H79.1805C79.1805 45.7401 79.1694 45.3704 79.1533 44.7194C79.1511 44.0689 79.0794 43.1388 78.9754 42.0297C78.9387 41.7517 78.902 41.4648 78.8648 41.1669C78.8253 40.87 78.7953 40.5598 78.7319 40.2473C78.6135 39.6185 78.5212 38.9509 78.3494 38.272C78.2704 37.934 78.1915 37.5888 78.1109 37.2396C78.0131 36.895 77.913 36.5436 77.8151 36.1928C77.764 36.0199 77.714 35.8387 77.6628 35.6624C77.6094 35.4845 77.5461 35.3144 77.4877 35.1387C77.3698 34.7874 77.2514 34.436 77.133 34.0824C76.11 31.2882 74.6835 28.6553 73.4365 26.8068C73.1252 26.3464 72.8205 25.9345 72.5614 25.5642C72.3007 25.1912 72.0411 24.8915 71.8443 24.633C71.643 24.3773 71.4857 24.1771 71.3778 24.0415C71.2639 23.908 71.2021 23.8374 71.2021 23.8374Z" fill="#FD9F41"/>
</svg>
