<svg width="90" height="104" viewBox="0 0 90 104" fill="none" xmlns="http://www.w3.org/2000/svg">
<path d="M0 77.9809V26.019L45 0.0380859L90 26.019V77.9809L45 103.962L0 77.9809Z" fill="white"/>
<path d="M45.0002 98.5721L5.19971 75.5937V29.6355L45.0002 6.65649L84.8008 29.6355V75.5937L45.0002 98.5721ZM7.04224 74.5297L45.0002 96.4442L82.9583 74.5297V30.699L45.0002 8.78448L7.04224 30.699V74.5297Z" fill="#FD9F41"/>
<path d="M47.7088 83.3451L45 81.9214L42.2918 83.3451L42.8088 80.3292L40.6177 78.1931L43.6459 77.7538L45 75.0093L46.3541 77.7538L49.3823 78.1931L47.1911 80.3292L47.7088 83.3451Z" fill="#FD9F41"/>
<path d="M32.6232 80.221L30.5671 79.1406L28.5117 80.221L28.9048 77.9327L27.2412 76.3113L29.5394 75.9779L30.5671 73.8955L31.5949 75.9779L33.893 76.3113L32.2301 77.9327L32.6232 80.221Z" fill="#FD9F41"/>
<path d="M61.4888 80.221L59.4333 79.1406L57.3779 80.221L57.7704 77.9327L56.1074 76.3113L58.4056 75.9779L59.4333 73.8955L60.4611 75.9779L62.7593 76.3113L61.0969 77.9327L61.4888 80.221Z" fill="#FD9F41"/>
<path d="M70.9238 76.0666L69.513 75.3244L68.1015 76.0666L68.3718 74.4949L67.23 73.3824L68.8075 73.1537L69.513 71.7241L70.2184 73.1537L71.7954 73.3824L70.6542 74.4949L70.9238 76.0666Z" fill="#FD9F41"/>
<path d="M21.8985 76.0666L20.4871 75.3244L19.0762 76.0666L19.3459 74.4949L18.2041 73.3824L19.7817 73.1537L20.4871 71.7241L21.1931 73.1537L22.7701 73.3824L21.6289 74.4949L21.8985 76.0666Z" fill="#FD9F41"/>
<path d="M47.7088 29.5894L45 28.1657L42.2918 29.5894L42.8088 26.5735L40.6177 24.4379L43.6459 23.9975L45 21.2542L46.3541 23.9975L49.3823 24.4379L47.1911 26.5735L47.7088 29.5894Z" fill="#FD9F41"/>
<path d="M32.6232 32.1554L30.5671 31.0744L28.5117 32.1554L28.9048 29.8665L27.2412 28.2451L29.5394 27.9117L30.5671 25.8293L31.5949 27.9117L33.893 28.2451L32.2301 29.8665L32.6232 32.1554Z" fill="#FD9F41"/>
<path d="M61.4888 32.1554L59.4333 31.0744L57.3779 32.1554L57.7704 29.8665L56.1074 28.2451L58.4056 27.9117L59.4333 25.8293L60.4611 27.9117L62.7593 28.2451L61.0969 29.8665L61.4888 32.1554Z" fill="#FD9F41"/>
<path d="M70.9238 34.1237L69.513 33.382L68.1015 34.1237L68.3718 32.5526L67.23 31.44L68.8075 31.2107L69.513 29.7817L70.2184 31.2107L71.7954 31.44L70.6542 32.5526L70.9238 34.1237Z" fill="#FD9F41"/>
<path d="M21.8985 34.1239L20.4871 33.3822L19.0762 34.1239L19.3459 32.5528L18.2041 31.4403L19.7817 31.211L20.4871 29.782L21.1931 31.211L22.7701 31.4403L21.6289 32.5528L21.8985 34.1239Z" fill="#FD9F41"/>
</svg>
