<svg width="86" height="88" viewBox="0 0 86 88" fill="none" xmlns="http://www.w3.org/2000/svg">
<path d="M85.7292 51.5082L80.4641 44.0009V44.0004L85.7292 36.492L78.2234 31.229L80.5902 22.3724L71.7325 20.0061L70.933 10.8727L61.7996 11.6646L57.9293 3.35417L49.6224 7.23265L43.1356 0.75661L43.1351 0.756104L36.6478 7.23265L28.3404 3.35417L24.4701 11.6651L15.3367 10.8743L14.5372 20.0066L5.68 22.3739L8.04733 31.23L0.541504 36.492L5.8061 44.0004V44.0009L0.541504 51.5082L8.04733 56.7712L5.68051 65.6279L14.5382 67.9942L15.3377 77.127L24.4711 76.3352L28.3409 84.6455L36.6483 80.7676L43.1356 87.2441L49.6224 80.7676L57.9298 84.6455L61.8007 76.3352L70.9341 77.126L71.733 67.9931L80.5907 65.6268L78.2234 56.7712L85.7292 51.5082Z" fill="white"/>
<path d="M50.7029 28.4963H35.5692C35.1128 28.4963 34.7432 28.1267 34.7432 27.6703V27.6534C34.7432 27.197 35.1128 26.8274 35.5692 26.8274H50.7029C51.1593 26.8274 51.5289 27.197 51.5289 27.6534V27.6703C51.5289 28.1267 51.1588 28.4963 50.7029 28.4963Z" fill="#FD9F41"/>
<path d="M51.8545 15.5035L48.6958 17.2633C47.5017 17.9275 45.9967 17.5742 45.2191 16.4577L43.6079 14.1399L43.1346 13.4614L42.6471 14.1323L40.9291 16.4996C40.1307 17.6018 38.6328 17.9204 37.4524 17.249L34.4209 15.5102L33.6929 15.0936C33.7991 15.355 33.9047 15.6164 34.0038 15.8778C35.3608 19.3264 36.3788 22.7255 36.4416 25.9903H49.8333C49.7909 22.605 50.7165 19.2273 52.2287 15.8635C52.3421 15.6087 52.462 15.3473 52.5815 15.0931L51.8545 15.5035ZM38.9013 21.7932C38.9013 21.7932 38.6185 21.7228 38.3362 21.5324C38.0395 21.3486 37.7281 21.0443 37.5019 20.691C37.2829 20.3377 37.1344 19.9278 37.0925 19.5816C37.043 19.2421 37.0996 18.9598 37.0996 18.9598C37.0996 18.9598 37.3753 19.0308 37.6648 19.2212C37.9548 19.4121 38.2657 19.7088 38.4919 20.0625C38.718 20.4158 38.8594 20.8258 38.9018 21.1719C38.958 21.5104 38.9013 21.7932 38.9013 21.7932ZM43.8126 23.1926C43.5303 23.6944 43.1346 24.0268 43.1346 24.0268C43.1346 24.0268 42.739 23.695 42.4633 23.1926C42.1452 22.6913 41.9614 22.0199 41.9614 21.3552C41.9614 20.6839 42.1524 20.0197 42.4633 19.5178C42.739 19.016 43.1346 18.6765 43.1346 18.6765C43.1346 18.6765 43.5303 19.016 43.8126 19.5178C44.1235 20.0192 44.3078 20.6834 44.3145 21.3552C44.3145 22.0194 44.1235 22.6907 43.8126 23.1926ZM49.1763 19.5811C49.1339 19.9273 48.9925 20.3372 48.7735 20.6905C48.5401 21.0433 48.2364 21.3476 47.9392 21.5319C47.6498 21.7223 47.3741 21.7927 47.3741 21.7927C47.3741 21.7927 47.3174 21.5099 47.3669 21.1709C47.4098 20.8248 47.5579 20.4153 47.7774 20.0615C48.0036 19.7077 48.3145 19.4116 48.6111 19.2202C48.8939 19.0298 49.1763 18.9588 49.1763 18.9588C49.1763 18.9588 49.2258 19.2421 49.1763 19.5811Z" fill="#FD9F41"/>
<path d="M42.3062 13.4587C42.3062 13.0013 42.6773 12.6296 43.1353 12.6296C43.5927 12.6296 43.9644 13.0008 43.9644 13.4587C43.9644 13.9167 43.5927 14.2878 43.1353 14.2878C42.6773 14.2878 42.3062 13.9162 42.3062 13.4587Z" fill="#FD9F41"/>
<path d="M32.8608 15.1164C32.8608 14.6585 33.2325 14.2878 33.6899 14.2878C34.1474 14.2878 34.519 14.6585 34.519 15.1164C34.519 15.5749 34.1479 15.9455 33.6899 15.9455C33.232 15.9455 32.8608 15.5749 32.8608 15.1164Z" fill="#FD9F41"/>
<path d="M51.7534 15.1164C51.7534 14.6585 52.1246 14.2878 52.582 14.2878C53.04 14.2878 53.4111 14.6585 53.4111 15.1164C53.4111 15.5749 53.0405 15.9455 52.582 15.9455C52.1246 15.9455 51.7534 15.5749 51.7534 15.1164Z" fill="#FD9F41"/>
<path d="M13.9727 37.918C14.2183 38.5557 14.3229 39.2791 14.3724 39.8509C14.3995 40.1368 14.4056 40.3839 14.4148 40.5615C14.4225 40.7382 14.4194 40.8449 14.4194 40.8449C14.4194 40.8449 14.1366 40.805 13.771 40.6121C13.4024 40.4186 12.9542 40.0658 12.6519 39.4195C12.3456 38.7737 12.2787 37.9578 12.3043 37.3084C12.3129 37.1466 12.3252 36.994 12.3385 36.8582C12.3518 36.7213 12.3727 36.6008 12.389 36.5003C12.4232 36.2991 12.4498 36.1802 12.4498 36.1802C12.4498 36.1802 12.7142 36.2899 13.0328 36.5666C13.1936 36.705 13.3636 36.8837 13.5275 37.1068C13.696 37.3314 13.8451 37.5984 13.9727 37.918Z" fill="#FD9F41"/>
<path d="M13.5822 43.7093C13.9391 44.3725 14.1377 45.1541 14.2648 45.7734C14.2985 45.9291 14.3255 46.0746 14.346 46.2053C14.3695 46.3355 14.3899 46.4514 14.4031 46.5468C14.4322 46.7413 14.4425 46.8567 14.4425 46.8567C14.4425 46.8567 14.128 46.8501 13.7007 46.6847C13.4893 46.6025 13.2463 46.4779 13.0053 46.2905C12.771 46.1037 12.5254 45.8525 12.3238 45.5176C11.9067 44.8452 11.7285 43.9661 11.6744 43.2626C11.6432 42.9103 11.6488 42.602 11.656 42.383C11.6611 42.1629 11.679 42.0322 11.679 42.0322C11.679 42.0322 11.755 42.0527 11.8796 42.1052C12.0031 42.1568 12.1772 42.2431 12.3723 42.3692C12.5652 42.4968 12.7807 42.6663 12.989 42.8863C13.1978 43.1069 13.4076 43.3785 13.5822 43.7093Z" fill="#FD9F41"/>
<path d="M13.8873 49.7559C14.4591 50.3599 14.9033 51.1247 15.2499 51.7271C15.3362 51.8787 15.4077 52.0242 15.4766 52.1508C15.5491 52.2779 15.6083 52.3918 15.6568 52.4878C15.7533 52.6782 15.8039 52.7951 15.8039 52.7951C15.8039 52.7951 15.7217 52.8217 15.5772 52.8441C15.4322 52.8676 15.2259 52.8885 14.9758 52.8753C14.7256 52.861 14.4321 52.815 14.1114 52.6986C13.797 52.5771 13.4672 52.3847 13.1297 52.088C12.4696 51.4892 12.0004 50.5748 11.7405 49.8243C11.6711 49.638 11.6206 49.4603 11.5756 49.299C11.5322 49.1377 11.494 48.9932 11.4674 48.8732C11.4184 48.6328 11.3975 48.4878 11.3975 48.4878C11.3975 48.4878 11.7451 48.4914 12.2235 48.6598C12.4604 48.7436 12.7407 48.8666 13.024 49.0448C13.3048 49.2224 13.605 49.4537 13.8873 49.7559Z" fill="#FD9F41"/>
<path d="M15.5051 55.8522C16.2137 56.4189 16.8034 57.1714 17.2736 57.7636C17.3297 57.8407 17.3833 57.9137 17.4364 57.9821C17.489 58.0516 17.5396 58.1179 17.5876 58.1817C17.6815 58.3068 17.7617 58.4202 17.827 58.5156C17.9597 58.7055 18.0394 58.8199 18.0394 58.8199C18.0394 58.8199 17.9536 58.8597 17.802 58.9082C17.6493 58.9567 17.4273 59.0134 17.1546 59.0399C16.6201 59.0869 15.8528 59.0231 15.0528 58.483C14.2543 57.9449 13.5942 57.031 13.199 56.2361C13.0928 56.0396 13.0168 55.8466 12.9417 55.6745C12.8692 55.5005 12.808 55.3468 12.7615 55.2161C12.6752 54.9537 12.6318 54.7919 12.6318 54.7919C12.6318 54.7919 12.7258 54.7832 12.8871 54.7893C13.0484 54.797 13.2777 54.821 13.5477 54.8817C13.8132 54.946 14.1374 55.043 14.4682 55.1998C14.6341 55.2779 14.8036 55.3703 14.9747 55.479C15.1523 55.5857 15.3295 55.7072 15.5051 55.8522Z" fill="#FD9F41"/>
<path d="M18.1934 61.6969C18.3047 61.7479 18.4099 61.8066 18.5202 61.8633C18.6299 61.9215 18.7382 61.9812 18.8433 62.045C19.0547 62.1722 19.2563 62.3075 19.459 62.4412C19.5576 62.5086 19.6546 62.5775 19.749 62.6465C19.7955 62.6807 19.8414 62.7174 19.8874 62.7516C19.9354 62.7843 19.9818 62.8185 20.0283 62.8517C20.2105 62.986 20.3811 63.1197 20.5383 63.2479C20.8655 63.4914 21.1229 63.7272 21.3214 63.8824C21.5139 64.0412 21.6227 64.1438 21.6227 64.1438C21.6227 64.1438 21.5451 64.2092 21.4001 64.3016C21.2546 64.394 21.0401 64.5104 20.7624 64.6115C20.4852 64.7105 20.138 64.7978 19.7454 64.806C19.3513 64.8162 18.8929 64.7656 18.4053 64.5819C17.4195 64.2219 16.4877 63.423 15.8695 62.6868C15.7107 62.5045 15.5795 62.3233 15.458 62.1609C15.3385 61.9971 15.2313 61.8521 15.1547 61.7244C14.9955 61.4707 14.9092 61.3119 14.9092 61.3119C14.9092 61.3119 15.0052 61.2782 15.1762 61.243C15.3482 61.2114 15.5953 61.1766 15.895 61.1756C16.0456 61.1736 16.2059 61.1812 16.3815 61.196C16.5577 61.2114 16.7445 61.2374 16.9391 61.2772C17.1341 61.3165 17.3368 61.3696 17.543 61.4421C17.7539 61.509 17.9734 61.5922 18.1934 61.6969Z" fill="#FD9F41"/>
<path d="M15.3185 38.1252C14.8866 38.6138 14.6512 39.302 14.5323 39.8605C14.4792 40.1393 14.4424 40.3843 14.4332 40.561C14.4205 40.7376 14.4189 40.8438 14.4189 40.8438C14.4189 40.8438 14.7033 40.806 15.075 40.6365C15.4477 40.4686 15.9117 40.1755 16.2936 39.6849C16.6689 39.1922 16.9211 38.6016 17.0854 38.1339C17.1273 38.017 17.163 37.9088 17.1927 37.8102C17.2228 37.7117 17.2519 37.6259 17.2718 37.5524C17.3131 37.4074 17.331 37.3196 17.331 37.3196C17.331 37.3196 17.0487 37.2854 16.6541 37.362C16.4575 37.4013 16.2283 37.4692 15.9975 37.5892C15.7708 37.7092 15.5299 37.8802 15.3185 38.1252Z" fill="#FD9F41"/>
<path d="M15.0861 43.7632C14.6797 44.3549 14.501 45.1386 14.4438 45.7629C14.4295 45.9202 14.4229 46.0667 14.4183 46.1984C14.4157 46.3302 14.4198 46.4465 14.4229 46.5441C14.4295 46.7391 14.4418 46.856 14.4418 46.856C14.4418 46.856 14.7481 46.7764 15.1376 46.5461C15.3326 46.4302 15.5466 46.2781 15.7564 46.081C15.9708 45.8834 16.1709 45.6435 16.3532 45.353C16.7075 44.7674 16.9061 44.0848 17.0276 43.5416C17.0858 43.2695 17.1297 43.0342 17.1542 42.8662C17.1767 42.6983 17.19 42.5972 17.19 42.5972C17.19 42.5972 17.1118 42.5987 16.9786 42.6166C16.8459 42.6339 16.6605 42.6692 16.4507 42.7422C16.2393 42.8121 16.0014 42.9219 15.763 43.0837C15.5241 43.2471 15.2938 43.4686 15.0861 43.7632Z" fill="#FD9F41"/>
<path d="M15.4912 49.3776C15.2334 50.1118 15.2778 50.9904 15.4325 51.6597C15.4718 51.8256 15.5081 51.9849 15.5504 52.1217C15.5959 52.258 15.6383 52.3795 15.676 52.4781C15.7511 52.6787 15.8037 52.7951 15.8037 52.7951C15.8037 52.7951 15.8767 52.7492 15.9885 52.6532C16.1033 52.5593 16.2555 52.4168 16.4178 52.23C16.5812 52.0446 16.7527 51.8124 16.9023 51.5423C17.058 51.2717 17.2025 50.9593 17.2924 50.6116C17.4879 49.9142 17.4976 49.1775 17.4787 48.5909C17.4711 48.4459 17.466 48.3096 17.4573 48.1871C17.4486 48.0651 17.4363 47.9584 17.4277 47.868C17.4129 47.6878 17.3955 47.5801 17.3955 47.5801C17.3955 47.5801 17.0616 47.6674 16.6491 47.9303C16.4413 48.063 16.2233 48.2387 16.016 48.4761C15.8057 48.7135 15.6245 49.0085 15.4912 49.3776Z" fill="#FD9F41"/>
<path d="M17.1765 55.206C17.0054 56.0284 17.1867 56.9683 17.4603 57.6606C17.4925 57.7484 17.5226 57.8326 17.5568 57.9113C17.5941 57.9909 17.6283 58.0649 17.6615 58.1359C17.7289 58.2778 17.7927 58.3998 17.8468 58.503C17.8999 58.6071 17.952 58.6832 17.9852 58.7358C18.0194 58.7909 18.0393 58.82 18.0393 58.82C18.0393 58.82 18.1097 58.7577 18.2149 58.6382C18.3201 58.5193 18.4605 58.3442 18.6049 58.119C18.9021 57.6626 19.1956 57.0224 19.2982 56.2403C19.4024 55.4597 19.2962 54.6791 19.2002 54.0757C19.1711 53.9261 19.1543 53.7826 19.1272 53.6601C19.1037 53.535 19.0756 53.4268 19.0542 53.3364C19.02 53.1542 18.9878 53.0454 18.9878 53.0454C18.9878 53.0454 18.9016 53.0806 18.7622 53.1547C18.6223 53.2297 18.4308 53.3451 18.2251 53.5105C18.0137 53.678 17.8054 53.8919 17.613 54.1727C17.517 54.3105 17.4271 54.4662 17.3506 54.6388C17.2801 54.8108 17.2199 54.9972 17.1765 55.206Z" fill="#FD9F41"/>
<path d="M19.7834 60.5939C19.788 60.7082 19.7926 60.8236 19.8104 60.9349C19.8273 61.0482 19.8482 61.1616 19.8758 61.2744C19.9263 61.4995 19.9937 61.7247 20.0836 61.9366C20.127 62.0433 20.1724 62.1479 20.2194 62.2511C20.2454 62.3016 20.2694 62.3542 20.2934 62.4047C20.3204 62.4527 20.3465 62.5007 20.3735 62.5492C20.4823 62.7401 20.5956 62.9224 20.7069 63.0904C20.9438 63.411 21.1618 63.6882 21.3395 63.8633C21.513 64.042 21.6238 64.1436 21.6238 64.1436C21.6238 64.1436 21.681 64.0598 21.7601 63.9062C21.8393 63.753 21.9388 63.5294 22.0297 63.2558C22.1216 62.9816 22.1982 62.661 22.2503 62.296C22.3003 61.933 22.3074 61.5435 22.2666 61.1212C22.1742 60.2845 21.874 59.5034 21.6233 58.8969C21.557 58.7493 21.5023 58.6059 21.4436 58.4839C21.3869 58.3603 21.3287 58.2557 21.2889 58.1632C21.2047 57.9825 21.1455 57.8794 21.1455 57.8794C21.1455 57.8794 21.0622 57.9376 20.9356 58.0494C20.8075 58.1627 20.636 58.3307 20.4619 58.5569C20.3746 58.6682 20.2842 58.7973 20.2025 58.9382C20.1229 59.0771 20.0478 59.2333 19.9825 59.4018C19.9181 59.5718 19.8645 59.7581 19.8257 59.9588C19.7931 60.1548 19.7777 60.3662 19.7834 60.5939Z" fill="#FD9F41"/>
<path d="M14.6679 34.4876C14.3391 35.3641 14.3509 36.2351 14.4443 36.8477C14.4698 37.0029 14.4948 37.1418 14.5244 37.2643C14.5556 37.3874 14.5857 37.4925 14.6128 37.5783C14.6674 37.7483 14.7072 37.8443 14.7072 37.8443C14.7072 37.8443 14.7761 37.7646 14.8849 37.6207C14.9374 37.5477 15.0008 37.4619 15.0717 37.3593C15.1437 37.2587 15.2228 37.1438 15.3045 37.0183C15.6364 36.5133 16.0315 35.8435 16.3195 35.0788C16.6038 34.3114 16.7427 33.565 16.8428 32.9759C16.8683 32.8309 16.8867 32.6926 16.904 32.571C16.9229 32.4511 16.9392 32.3464 16.95 32.2571C16.9729 32.0789 16.9796 31.9717 16.9796 31.9717C16.9796 31.9717 16.8846 32.0141 16.7223 32.1024C16.6421 32.1478 16.5441 32.2035 16.4343 32.2724C16.3292 32.3459 16.2117 32.4317 16.0856 32.5327C15.9575 32.6313 15.8299 32.7492 15.6997 32.883C15.6343 32.9499 15.5674 33.0188 15.5006 33.0918C15.4378 33.1678 15.375 33.247 15.3117 33.3287C15.2489 33.4109 15.1861 33.4971 15.1238 33.586C15.0676 33.6768 15.012 33.7703 14.9558 33.8668C14.9032 33.9648 14.8471 34.0633 14.8001 34.168C14.7537 34.2701 14.7098 34.3773 14.6679 34.4876Z" fill="#FD9F41"/>
<path d="M72.2944 37.918C72.0473 38.5557 71.9426 39.2791 71.8941 39.8509C71.8666 40.1368 71.861 40.3839 71.8507 40.5615C71.8436 40.7382 71.8461 40.8449 71.8461 40.8449C71.8461 40.8449 72.129 40.805 72.4955 40.6121C72.8641 40.4186 73.3124 40.0658 73.6141 39.4195C73.9215 38.7737 73.9878 37.9578 73.9618 37.3084C73.9531 37.1466 73.9424 36.994 73.9281 36.8582C73.9148 36.7213 73.8929 36.6008 73.8776 36.5003C73.8433 36.2991 73.8168 36.1802 73.8168 36.1802C73.8168 36.1802 73.5513 36.2899 73.2333 36.5666C73.0724 36.705 72.9035 36.8837 72.7386 37.1068C72.5701 37.3314 72.421 37.5984 72.2944 37.918Z" fill="#FD9F41"/>
<path d="M72.6849 43.7093C72.328 44.3725 72.131 45.1541 72.0023 45.7734C71.9691 45.9291 71.9421 46.0746 71.9211 46.2053C71.8976 46.3355 71.8777 46.4514 71.8645 46.5468C71.8354 46.7413 71.8262 46.8567 71.8262 46.8567C71.8262 46.8567 72.1402 46.8501 72.5664 46.6847C72.7783 46.6025 73.0213 46.4779 73.2618 46.2905C73.4966 46.1037 73.7422 45.8525 73.9444 45.5176C74.361 44.8452 74.5396 43.9661 74.5927 43.2626C74.6239 42.9103 74.6193 42.602 74.6116 42.383C74.6055 42.1629 74.5887 42.0322 74.5887 42.0322C74.5887 42.0322 74.5116 42.0527 74.388 42.1052C74.264 42.1568 74.0909 42.2431 73.8954 42.3692C73.7019 42.4968 73.4864 42.6663 73.2781 42.8863C73.0693 43.1069 72.8605 43.3785 72.6849 43.7093Z" fill="#FD9F41"/>
<path d="M72.3794 49.7559C71.8076 50.3599 71.3644 51.1247 71.0173 51.7271C70.931 51.8787 70.8585 52.0242 70.7901 52.1508C70.7186 52.2779 70.6594 52.3918 70.6114 52.4878C70.5144 52.6782 70.4639 52.7951 70.4639 52.7951C70.4639 52.7951 70.5461 52.8217 70.6905 52.8441C70.835 52.8676 71.0413 52.8885 71.292 52.8753C71.5421 52.861 71.8357 52.815 72.1558 52.6986C72.4703 52.5771 72.8011 52.3847 73.1375 52.088C73.7976 51.4892 74.2668 50.5748 74.5272 49.8243C74.5966 49.638 74.6472 49.4603 74.6926 49.299C74.735 49.1377 74.7738 48.9932 74.7993 48.8732C74.8493 48.6328 74.8703 48.4878 74.8703 48.4878C74.8703 48.4878 74.5226 48.4914 74.0442 48.6598C73.8068 48.7436 73.5271 48.8666 73.2432 49.0448C72.9629 49.2224 72.6617 49.4537 72.3794 49.7559Z" fill="#FD9F41"/>
<path d="M70.7618 55.8522C70.0547 56.4189 69.4635 57.1714 68.9933 57.7636C68.9387 57.8407 68.8835 57.9137 68.8315 57.9821C68.7789 58.0516 68.7283 58.1179 68.6803 58.1817C68.5864 58.3068 68.5062 58.4202 68.4399 58.5156C68.3076 58.7055 68.2285 58.8199 68.2285 58.8199C68.2285 58.8199 68.3127 58.8597 68.4654 58.9082C68.618 58.9567 68.8391 59.0134 69.1122 59.0399C69.6468 59.0869 70.4141 59.0231 71.2136 58.483C72.0126 57.9449 72.6732 57.031 73.0683 56.2361C73.1735 56.0396 73.2501 55.8466 73.3246 55.6745C73.3976 55.5005 73.4584 55.3468 73.5054 55.2161C73.5916 54.9537 73.635 54.7919 73.635 54.7919C73.635 54.7919 73.5411 54.7832 73.3808 54.7893C73.2179 54.797 72.9887 54.821 72.7191 54.8817C72.4537 54.946 72.1295 55.043 71.7987 55.1998C71.6332 55.2779 71.4632 55.3703 71.2927 55.479C71.1161 55.5857 70.9379 55.7072 70.7618 55.8522Z" fill="#FD9F41"/>
<path d="M68.0742 61.6969C67.9634 61.7479 67.8583 61.8066 67.7475 61.8633C67.6377 61.9215 67.53 61.9812 67.4243 62.045C67.2129 62.1722 67.0118 62.3075 66.8101 62.4412C66.7101 62.5086 66.6131 62.5775 66.5202 62.6465C66.4727 62.6807 66.4262 62.7174 66.3813 62.7516C66.3328 62.7843 66.2868 62.8185 66.2404 62.8517C66.0576 62.986 65.8866 63.1197 65.7293 63.2479C65.4026 63.4914 65.1448 63.7272 64.9472 63.8824C64.7547 64.0412 64.646 64.1438 64.646 64.1438C64.646 64.1438 64.7236 64.2092 64.8681 64.3016C65.0146 64.394 65.2285 64.5104 65.5068 64.6115C65.7835 64.7105 66.1301 64.7978 66.5232 64.806C66.9174 64.8162 67.3763 64.7656 67.8644 64.5819C68.8497 64.2219 69.7819 63.423 70.3992 62.6868C70.558 62.5045 70.6897 62.3233 70.8117 62.1609C70.9312 61.9971 71.0378 61.8521 71.1149 61.7244C71.2742 61.4707 71.36 61.3119 71.36 61.3119C71.36 61.3119 71.265 61.2782 71.093 61.243C70.9209 61.2114 70.6738 61.1766 70.3747 61.1756C70.2241 61.1736 70.0638 61.1812 69.8876 61.196C69.7115 61.2114 69.5246 61.2374 69.3301 61.2772C69.1366 61.3165 68.9329 61.3696 68.7277 61.4421C68.5133 61.509 68.2948 61.5922 68.0742 61.6969Z" fill="#FD9F41"/>
<path d="M70.9481 38.1257C71.38 38.6143 71.6154 39.3025 71.7338 39.861C71.7879 40.1398 71.8237 40.3848 71.8344 40.5615C71.8461 40.7381 71.8472 40.8443 71.8472 40.8443C71.8472 40.8443 71.5628 40.8065 71.1911 40.637C70.8195 40.4691 70.3544 40.176 69.9735 39.6854C69.5967 39.1927 69.3445 38.602 69.1806 38.1344C69.1403 38.0175 69.1036 37.9093 69.0739 37.8107C69.0438 37.7122 69.0147 37.6264 68.9948 37.5529C68.9535 37.4079 68.9346 37.3201 68.9346 37.3201C68.9346 37.3201 69.2174 37.2859 69.6115 37.3625C69.8086 37.4018 70.0388 37.4697 70.2691 37.5897C70.4953 37.7097 70.7373 37.8807 70.9481 38.1257Z" fill="#FD9F41"/>
<path d="M71.181 43.7632C71.5864 44.3549 71.7656 45.1386 71.8228 45.7629C71.8371 45.9202 71.8442 46.0667 71.8493 46.1984C71.8514 46.3302 71.8473 46.4465 71.8447 46.5441C71.8381 46.7391 71.8264 46.856 71.8264 46.856C71.8264 46.856 71.5185 46.7764 71.13 46.5461C70.9345 46.4302 70.7211 46.2781 70.5112 46.081C70.2958 45.8834 70.0967 45.6435 69.9139 45.353C69.5601 44.7674 69.3625 44.0848 69.2405 43.5416C69.1818 43.2695 69.1379 43.0342 69.1129 42.8662C69.0914 42.6983 69.0771 42.5972 69.0771 42.5972C69.0771 42.5972 69.1568 42.5987 69.289 42.6166C69.4218 42.6339 69.6076 42.6692 69.8169 42.7422C70.0272 42.8121 70.2657 42.9219 70.5041 43.0837C70.743 43.2471 70.9738 43.4686 71.181 43.7632Z" fill="#FD9F41"/>
<path d="M70.7772 49.3776C71.0355 50.1118 70.9916 50.9904 70.8359 51.6597C70.7976 51.8256 70.7613 51.9849 70.7179 52.1217C70.6735 52.258 70.6301 52.3795 70.5923 52.4781C70.5173 52.6787 70.4657 52.7951 70.4657 52.7951C70.4657 52.7951 70.3922 52.7492 70.2799 52.6532C70.1661 52.5593 70.0129 52.4168 69.8505 52.23C69.6877 52.0446 69.5167 51.8124 69.3661 51.5423C69.2103 51.2717 69.0664 50.9593 68.976 50.6116C68.7805 49.9142 68.7713 49.1775 68.7897 48.5909C68.7978 48.4459 68.8029 48.3096 68.8111 48.1871C68.8198 48.0651 68.8325 47.9584 68.8407 47.868C68.856 47.6878 68.8739 47.5801 68.8739 47.5801C68.8739 47.5801 69.2088 47.6674 69.6198 47.9303C69.8276 48.063 70.0461 48.2387 70.2528 48.4761C70.4632 48.7135 70.6449 49.0085 70.7772 49.3776Z" fill="#FD9F41"/>
<path d="M69.0909 55.206C69.2624 56.0284 69.0822 56.9683 68.8081 57.6606C68.7744 57.7484 68.7447 57.8326 68.7111 57.9113C68.6738 57.9909 68.6391 58.0649 68.6069 58.1359C68.539 58.2778 68.4747 58.3998 68.4211 58.503C68.368 58.6071 68.3149 58.6832 68.2812 58.7358C68.248 58.7909 68.2286 58.82 68.2286 58.82C68.2286 58.82 68.1571 58.7577 68.052 58.6382C67.9468 58.5193 67.8064 58.3442 67.6624 58.119C67.3663 57.6626 67.0717 57.0224 66.9686 56.2403C66.8645 55.4597 66.9712 54.6791 67.0666 54.0757C67.0957 53.9261 67.1131 53.7826 67.1396 53.6601C67.1631 53.535 67.1917 53.4268 67.2126 53.3364C67.2479 53.1542 67.279 53.0454 67.279 53.0454C67.279 53.0454 67.3663 53.0806 67.5052 53.1547C67.644 53.2297 67.836 53.3451 68.0433 53.5105C68.2541 53.678 68.4619 53.8919 68.6549 54.1727C68.7499 54.3105 68.8397 54.4662 68.9173 54.6388C68.9883 54.8108 69.048 54.9972 69.0909 55.206Z" fill="#FD9F41"/>
<path d="M66.4832 60.5939C66.4786 60.7082 66.4745 60.8236 66.4562 60.9349C66.4393 61.0482 66.4184 61.1616 66.3913 61.2744C66.3408 61.4995 66.2734 61.7247 66.1835 61.9366C66.1401 62.0433 66.0947 62.1479 66.0472 62.2511C66.0217 62.3016 65.9987 62.3542 65.9732 62.4047C65.9467 62.4527 65.9201 62.5007 65.893 62.5492C65.7848 62.7401 65.6715 62.9224 65.5602 63.0904C65.3233 63.411 65.1053 63.6882 64.9271 63.8633C64.7535 64.042 64.6438 64.1436 64.6438 64.1436C64.6438 64.1436 64.5856 64.0598 64.508 63.9062C64.4283 63.753 64.3283 63.5294 64.2374 63.2558C64.1455 62.9816 64.0694 62.661 64.0174 62.296C63.9673 61.933 63.9592 61.5435 64.001 61.1212C64.0929 60.2845 64.3931 59.5034 64.6438 58.8969C64.7101 58.7493 64.7658 58.6059 64.8235 58.4839C64.8807 58.3603 64.9389 58.2557 64.9782 58.1632C65.064 57.9825 65.1227 57.8794 65.1227 57.8794C65.1227 57.8794 65.2059 57.9376 65.333 58.0494C65.4596 58.1627 65.6311 58.3307 65.8063 58.5569C65.8925 58.6682 65.9839 58.7973 66.0656 58.9382C66.1453 59.0771 66.2193 59.2333 66.2851 59.4018C66.35 59.5718 66.4041 59.7581 66.4419 59.9588C66.4735 60.1548 66.4894 60.3662 66.4832 60.5939Z" fill="#FD9F41"/>
<path d="M71.5998 34.4876C71.9285 35.3641 71.9183 36.2351 71.8239 36.8477C71.7983 37.0029 71.7733 37.1418 71.7427 37.2643C71.7121 37.3874 71.6814 37.4925 71.6544 37.5783C71.6003 37.7483 71.5604 37.8443 71.5604 37.8443C71.5604 37.8443 71.491 37.7646 71.3838 37.6207C71.3307 37.5477 71.2664 37.4619 71.1969 37.3593C71.125 37.2587 71.0443 37.1438 70.9626 37.0183C70.6308 36.5133 70.2356 35.8435 69.9477 35.0788C69.6643 34.3114 69.526 33.565 69.4254 32.9759C69.3999 32.8309 69.3815 32.6926 69.3641 32.571C69.3447 32.4511 69.3289 32.3464 69.3182 32.2571C69.2947 32.0789 69.2886 31.9717 69.2886 31.9717C69.2886 31.9717 69.383 32.0141 69.5449 32.1024C69.625 32.1478 69.723 32.2035 69.8338 32.2724C69.9385 32.3459 70.0559 32.4317 70.1825 32.5327C70.3102 32.6313 70.4378 32.7492 70.568 32.883C70.6343 32.9499 70.7007 33.0188 70.7686 33.0918C70.8299 33.1678 70.8937 33.247 70.957 33.3287C71.0203 33.4109 71.0826 33.4971 71.1449 33.586C71.201 33.6768 71.2567 33.7703 71.3123 33.8668C71.3654 33.9648 71.4216 34.0633 71.468 34.168C71.514 34.2701 71.5584 34.3773 71.5998 34.4876Z" fill="#FD9F41"/>
<path d="M41.4502 71.7322C41.4502 70.8 42.2058 70.0439 43.138 70.0439C44.0697 70.0439 44.8258 70.8 44.8258 71.7322C44.8258 72.664 44.0697 73.4196 43.138 73.4196C42.2058 73.4196 41.4502 72.664 41.4502 71.7322Z" fill="#FD9F41"/>
<path d="M48.876 70.4705C48.876 69.7732 49.4406 69.208 50.138 69.208C50.8349 69.208 51.4 69.7732 51.4 70.4705C51.4 71.1669 50.8349 71.7326 50.138 71.7326C49.4406 71.7326 48.876 71.1669 48.876 70.4705Z" fill="#FD9F41"/>
<path d="M34.3091 70.4705C34.3091 69.7732 34.8742 69.208 35.5711 69.208C36.268 69.208 36.8331 69.7732 36.8331 70.4705C36.8331 71.1669 36.268 71.7326 35.5711 71.7326C34.8742 71.7326 34.3091 71.1669 34.3091 70.4705Z" fill="#FD9F41"/>
<path d="M29.3452 66.9947C29.3452 66.4372 29.7975 65.9849 30.355 65.9849C30.9125 65.9849 31.3649 66.4372 31.3649 66.9947C31.3649 67.5522 30.9125 68.0045 30.355 68.0045C29.7975 68.0045 29.3452 67.5527 29.3452 66.9947Z" fill="#FD9F41"/>
<path d="M54.9116 66.9947C54.9116 66.4372 55.3634 65.9849 55.9209 65.9849C56.4789 65.9849 56.9308 66.4372 56.9308 66.9947C56.9308 67.5522 56.4789 68.0045 55.9209 68.0045C55.3634 68.0045 54.9116 67.5527 54.9116 66.9947Z" fill="#FD9F41"/>
</svg>
