<svg width="91" height="90" viewBox="0 0 91 90" fill="none" xmlns="http://www.w3.org/2000/svg">
<path d="M45.2705 90.0007C70.1233 90.0007 90.2705 69.8532 90.2705 45.0001C90.2705 20.147 70.1233 -0.000488281 45.2705 -0.000488281C20.4177 -0.000488281 0.270508 20.147 0.270508 45.0001C0.270508 69.8532 20.4177 90.0007 45.2705 90.0007Z" fill="white"/>
<path d="M52.6864 25.3091H38.0893C37.6488 25.3091 37.2925 24.9527 37.2925 24.5128V24.4964C37.2925 24.0565 37.6488 23.7002 38.0893 23.7002H52.6864C53.1269 23.7002 53.4832 24.0565 53.4832 24.4964V24.5128C53.4832 24.9527 53.1269 25.3091 52.6864 25.3091Z" fill="#FD9F41"/>
<path d="M53.7972 12.7794L50.7507 14.4764C49.5981 15.1173 48.147 14.7767 47.3969 13.6994L45.8429 11.4638L45.3861 10.8101L44.9158 11.4573L43.2597 13.7409C42.4891 14.8036 41.0438 15.1103 39.9064 14.4636L36.9826 12.7864L36.2798 12.3844C36.382 12.6368 36.4848 12.8886 36.5801 13.141C37.8886 16.4667 38.8707 19.7458 38.932 22.8951H51.8478C51.8069 19.6301 52.7001 16.3721 54.1583 13.1281C54.2675 12.8822 54.3838 12.6298 54.4994 12.385L53.7972 12.7794ZM41.3038 18.845C41.3038 18.845 41.031 18.7772 40.7587 18.5938C40.4719 18.4168 40.1722 18.1235 39.9543 17.7823C39.7428 17.4418 39.6003 17.0463 39.5588 16.7121C39.5109 16.385 39.5653 16.1116 39.5653 16.1116C39.5653 16.1116 39.8316 16.1805 40.1109 16.3639C40.3907 16.5479 40.6898 16.8342 40.9083 17.1754C41.1268 17.5159 41.2629 17.9109 41.3038 18.2456C41.3581 18.5727 41.3038 18.845 41.3038 18.845ZM46.041 20.195C45.7682 20.6793 45.3867 20.9994 45.3867 20.9994C45.3867 20.9994 45.0052 20.6793 44.7394 20.195C44.4327 19.7107 44.2557 19.064 44.2557 18.4226C44.2557 17.7753 44.4391 17.1339 44.7394 16.6508C45.0052 16.1665 45.3867 15.8399 45.3867 15.8399C45.3867 15.8399 45.7687 16.1665 46.041 16.6508C46.3412 17.1339 46.5183 17.7753 46.5247 18.4226C46.5247 19.0635 46.3412 19.7107 46.041 20.195ZM51.2145 16.7121C51.1736 17.0457 51.0369 17.4412 50.8255 17.7823C50.6 18.1235 50.3073 18.4168 50.021 18.5938C49.7418 18.7772 49.476 18.845 49.476 18.845C49.476 18.845 49.4211 18.5727 49.469 18.2456C49.5099 17.9114 49.653 17.5165 49.8645 17.1754C50.083 16.8342 50.3826 16.5479 50.6689 16.3639C50.9411 16.1805 51.2145 16.1116 51.2145 16.1116C51.2145 16.1116 51.2619 16.3844 51.2145 16.7121Z" fill="#FD9F41"/>
<path d="M44.5879 10.8061C44.5879 10.3645 44.946 10.0063 45.3876 10.0063C45.8293 10.0063 46.1868 10.3645 46.1868 10.8061C46.1868 11.2477 45.8287 11.6053 45.3876 11.6053C44.9466 11.6053 44.5879 11.2477 44.5879 10.8061Z" fill="#FD9F41"/>
<path d="M35.478 12.4047C35.478 11.9631 35.8361 11.605 36.2772 11.605C36.7183 11.605 37.0764 11.9631 37.0764 12.4047C37.0764 12.8464 36.7183 13.2039 36.2772 13.2039C35.8355 13.2039 35.478 12.8464 35.478 12.4047Z" fill="#FD9F41"/>
<path d="M53.6992 12.4047C53.6992 11.9631 54.0573 11.605 54.499 11.605C54.9406 11.605 55.2981 11.9631 55.2981 12.4047C55.2981 12.8464 54.9406 13.2039 54.499 13.2039C54.0573 13.2039 53.6992 12.8464 53.6992 12.4047Z" fill="#FD9F41"/>
<path d="M35.416 73.3885C34.9481 73.0345 34.5175 72.7839 34.0607 72.6191C33.6015 72.4591 33.1324 72.3714 32.6347 72.351C31.6427 72.306 30.5632 72.4912 29.5309 72.7412C28.4963 72.9954 27.5137 73.3038 26.7776 73.5562C26.0468 73.7998 25.5684 73.9885 25.5684 73.9885C25.5684 73.9885 26.0363 74.2607 26.787 74.5808C27.5382 74.9021 28.5793 75.2661 29.7138 75.4624C30.8395 75.6592 32.0709 75.6832 33.1418 75.3765C34.2067 75.0751 35.114 74.4214 35.416 73.3885Z" fill="#FD9F41"/>
<path d="M32.2556 68.8001C32.6581 69.7038 33.2428 70.5877 34.0105 71.1637C34.3919 71.447 34.8196 71.6638 35.2787 71.7526C35.7362 71.8414 36.2245 71.818 36.7018 71.6159C36.7252 70.5345 36.4308 69.6793 35.9681 68.9304C35.5031 68.1855 34.8459 67.5406 34.1647 66.9856C33.4841 66.4336 32.786 65.9721 32.2614 65.6414C31.7351 65.3119 31.377 65.1191 31.377 65.1191C31.377 65.1191 31.3799 65.2377 31.4003 65.4399C31.4196 65.6414 31.4552 65.9312 31.5113 66.2787C31.6282 66.9698 31.8496 67.8975 32.2556 68.8001Z" fill="#FD9F41"/>
<path d="M24.8169 71.2139C25.8521 71.1631 26.7686 70.7664 27.4124 69.9013C26.8995 68.9817 26.1173 68.4852 25.1832 68.196C24.249 67.9092 23.1607 67.8327 22.0899 67.7988C21.0214 67.7666 19.9611 67.7906 19.1654 67.7941C18.3482 67.8099 17.8364 67.8175 17.8364 67.8175C17.8364 67.8175 17.9352 67.9279 18.1209 68.1084C18.3044 68.279 18.5748 68.5325 18.9072 68.8065C19.5826 69.3621 20.5336 70.0117 21.584 70.4854C22.6349 70.9621 23.7811 71.263 24.8169 71.2139Z" fill="#FD9F41"/>
<path d="M26.7868 67.1256C27.3739 67.8716 28.1947 68.3623 29.2159 68.3091C29.63 67.3154 29.5594 66.365 29.2778 65.4934C28.998 64.6235 28.4996 63.8255 27.9978 63.1303C27.4908 62.4345 26.9773 61.8416 26.5981 61.4163C26.4141 61.2025 26.2546 61.0319 26.1419 60.9157C26.0373 60.7965 25.9724 60.7334 25.9724 60.7334C25.9724 60.7334 25.9374 60.8391 25.8854 61.0313C25.8358 61.2241 25.7785 61.4987 25.7248 61.8358C25.6143 62.5146 25.5659 63.4429 25.7107 64.4155C25.8521 65.3841 26.1985 66.3778 26.7868 67.1256Z" fill="#FD9F41"/>
<path d="M14.1085 59.7011C13.3748 59.4715 12.9004 59.3359 12.9004 59.3359C12.9004 59.3359 12.9448 59.4569 13.0371 59.6625C13.1358 59.8629 13.2848 60.1491 13.4735 60.4868C13.6639 60.8239 13.8929 61.2147 14.1628 61.6248C14.2966 61.8292 14.4391 62.0396 14.5916 62.2504L14.7125 62.4129L14.8609 62.6097C14.9661 62.7412 15.0706 62.8714 15.1729 63.0023C16.0299 64.024 17.0896 64.8045 18.1312 65.1328C19.1728 65.467 20.184 65.3595 21.0463 64.7105C20.805 63.6759 20.2226 62.9719 19.438 62.3579C19.2464 62.2014 19.0314 62.0606 18.8176 61.9134C18.6026 61.7673 18.3731 61.6283 18.14 61.4898C17.9069 61.3426 17.6685 61.203 17.4238 61.064C17.1907 60.9372 16.9646 60.8239 16.728 60.7129C15.7985 60.273 14.8411 59.9353 14.1085 59.7011Z" fill="#FD9F41"/>
<path d="M21.2989 61.5385C21.5758 62.4323 22.2213 63.166 23.1993 63.3927C23.8834 62.5573 24.0983 61.6436 24.1544 60.782C24.2029 59.9179 24.0925 59.1001 23.9996 58.4137C23.9669 58.1227 23.8506 57.6314 23.7426 57.2482C23.6322 56.8521 23.5101 56.4958 23.3991 56.199C23.2886 55.8987 23.1841 55.6557 23.1122 55.4875C23.0503 55.3157 23.0123 55.2188 23.0123 55.2188C23.0123 55.2188 22.9399 55.3163 22.8295 55.4904C22.7103 55.6668 22.5701 55.9157 22.4048 56.2265C22.0806 56.8469 21.6886 57.715 21.4175 58.676C21.3486 58.9178 21.2896 59.1643 21.2411 59.4132C21.1938 59.6445 21.1581 59.8829 21.1359 60.1248C21.1242 60.3637 21.1336 60.6026 21.1558 60.8439C21.1792 61.0828 21.2352 61.3118 21.2989 61.5385Z" fill="#FD9F41"/>
<path d="M12.9849 56.074C13.1538 56.2819 13.3512 56.4636 13.5545 56.6354C13.7537 56.8071 13.9594 56.9614 14.1749 57.0998C15.0284 57.6484 15.9771 57.8779 17.01 57.5765C17.0964 57.0607 17.0585 56.5886 16.9224 56.1511C16.8546 55.9355 16.7617 55.7252 16.6455 55.5219C16.535 55.318 16.3919 55.1282 16.2611 54.9319C15.7061 54.1608 14.8491 53.4942 13.9868 52.9001C13.1479 52.3001 12.2652 51.7831 11.5911 51.4092C10.9017 51.0394 10.4653 50.8081 10.4653 50.8081C10.4653 50.8081 10.4864 50.9395 10.5436 51.1627C10.6026 51.3847 10.6955 51.6972 10.8234 52.0752C11.0799 52.8236 11.438 53.8313 12.0327 54.7484C12.319 55.2117 12.6385 55.6662 12.9849 56.074Z" fill="#FD9F41"/>
<path d="M18.567 55.6696C18.7674 56.075 19.0641 56.4343 19.4719 56.7228C20.4084 56.1854 20.9464 55.3815 21.2291 54.5094C21.3016 54.2909 21.3547 54.0665 21.3974 53.8399C21.4178 53.7289 21.4354 53.6144 21.4506 53.5022C21.4652 53.3871 21.4844 53.2726 21.502 53.1564C21.561 52.6937 21.5762 52.2328 21.561 51.79C21.502 50.9067 21.4506 50.0736 21.3366 49.4678C21.287 49.1658 21.2291 48.9175 21.1912 48.7446C21.162 48.5705 21.1444 48.4741 21.1444 48.4741C21.1444 48.4741 21.0568 48.5536 20.9143 48.6996C20.7635 48.8462 20.5766 49.0566 20.3581 49.3247C19.9194 49.8627 19.3732 50.6309 18.9292 51.5236C18.5074 52.4051 18.2369 53.4017 18.2428 54.3487C18.2404 54.5888 18.2778 54.8149 18.3345 55.0345C18.3882 55.2554 18.4671 55.468 18.567 55.6696Z" fill="#FD9F41"/>
<path d="M11.1879 47.5686C11.3187 47.8058 11.4572 48.036 11.6149 48.2498C11.7785 48.4589 11.9549 48.6546 12.1366 48.8328C12.875 49.5473 13.763 49.9574 14.8355 49.8569C15.0166 49.3667 15.0715 48.8988 15.019 48.4461C14.9921 48.22 14.9413 47.998 14.8706 47.7783C14.8017 47.5575 14.7275 47.3379 14.6264 47.124C14.4284 46.6906 14.155 46.267 13.8377 45.8552C13.6748 45.6507 13.5123 45.4468 13.3517 45.2441C13.1864 45.0438 13.017 44.8469 12.8446 44.6541C12.1436 43.8812 11.3672 43.1738 10.8298 42.6468C10.276 42.1228 9.88396 41.7881 9.88396 41.7881C9.88396 41.7881 9.86936 42.3232 9.91668 43.1282C9.94472 43.529 10.0271 43.9963 10.12 44.497C10.1655 44.7476 10.2216 45.0052 10.2847 45.2669C10.3466 45.5257 10.4103 45.7939 10.512 46.0521C10.7012 46.5737 10.9256 47.0902 11.1879 47.5686Z" fill="#FD9F41"/>
<path d="M17.3852 49.2839C18.4058 48.9316 19.0899 48.254 19.5379 47.4758C19.6507 47.2801 19.7471 47.0786 19.8324 46.8724C19.9305 46.6656 20.0181 46.4541 20.0929 46.2415C20.2413 45.8156 20.3494 45.3833 20.4195 44.9615C20.5007 44.5421 20.5883 44.1331 20.6286 43.7557C20.6526 43.5659 20.6672 43.386 20.6806 43.2136C20.6923 43.0424 20.6981 42.8806 20.7186 42.7334C20.7846 42.1475 20.7747 41.7607 20.7747 41.7607C20.7747 41.7607 20.378 41.9792 19.8137 42.3864C19.6735 42.4875 19.5222 42.602 19.3633 42.727C19.2026 42.8538 19.039 42.991 18.886 43.1412C18.5711 43.4379 18.2451 43.7809 17.9373 44.1582C17.7824 44.3475 17.6364 44.545 17.4921 44.7506C17.4243 44.854 17.3548 44.9598 17.2906 45.0655C17.2304 45.1706 17.1743 45.2799 17.1223 45.3891C16.9103 45.8226 16.7467 46.2777 16.6573 46.7392C16.6187 46.967 16.5866 47.1984 16.5919 47.4239C16.6041 47.6482 16.6398 47.8719 16.6976 48.0863C16.8191 48.5204 17.0394 48.9287 17.3852 49.2839Z" fill="#FD9F41"/>
<path d="M13.6743 36.3694C13.4348 35.909 13.1772 35.4615 12.9272 35.0432C12.6678 34.6226 12.4347 34.2435 12.2407 33.9234C11.8382 33.2767 11.545 32.8555 11.545 32.8555C11.545 32.8555 11.3937 33.3643 11.233 34.1529C11.1723 34.5543 11.1168 35.0234 11.08 35.531C11.0595 35.7857 11.0443 36.0475 11.0391 36.3168C11.0391 36.5861 11.0566 36.8636 11.08 37.1411C11.1279 37.6943 11.1991 38.2539 11.3411 38.7826C11.4982 39.3137 11.705 39.8155 11.9668 40.2489C12.4738 41.1235 13.2911 41.7322 14.3537 41.8817C14.4922 41.6656 14.595 41.4494 14.6727 41.2286C14.7481 41.0096 14.8217 40.7881 14.8526 40.5656C14.9257 40.1187 14.8906 39.6589 14.7831 39.1921C14.6932 38.726 14.5506 38.2545 14.3502 37.7802C14.1481 37.3058 13.9016 36.8279 13.6743 36.3694Z" fill="#FD9F41"/>
<path d="M19.4476 40.4485C19.7701 40.1342 20.0412 39.7808 20.2684 39.4121C20.519 39.0464 20.7434 38.669 20.9198 38.2887C21.0139 38.1012 21.0834 37.9131 21.1733 37.7314C21.2604 37.5503 21.3398 37.3721 21.4093 37.1992C21.5548 36.8546 21.6565 36.5315 21.7528 36.2563C21.9643 35.7119 22.0531 35.3433 22.0531 35.3433C22.0531 35.3433 21.6161 35.449 20.9648 35.6938C20.2988 35.9333 19.4991 36.3387 18.7034 36.9048C18.5089 37.0456 18.3026 37.1963 18.1274 37.3628C17.951 37.5246 17.7786 37.6958 17.6197 37.8781C17.3043 38.2408 17.0139 38.6357 16.8235 39.0552C16.6441 39.4758 16.5425 39.9169 16.5425 40.3608C16.5448 40.5799 16.5629 40.8019 16.6324 41.0216C16.7078 41.2406 16.8048 41.4591 16.9403 41.6706C18.0158 41.5695 18.7887 41.0741 19.4476 40.4485Z" fill="#FD9F41"/>
<path d="M16.3147 33.5447C16.4578 33.3584 16.5706 33.1615 16.6605 32.9553C16.7511 32.7485 16.8171 32.5329 16.8615 32.3092C16.9059 32.086 16.9234 31.8541 16.9485 31.621C16.9801 31.1537 16.9485 30.6589 16.8697 30.15C16.7914 29.6412 16.7067 29.137 16.5741 28.6282C16.3147 27.6123 16.0314 26.6566 15.7813 25.9269C15.529 25.1973 15.3566 24.7317 15.3566 24.7317C15.3566 24.7317 15.2877 24.8404 15.1785 25.0425C15.0716 25.2464 14.9267 25.539 14.766 25.8995C14.4225 26.6139 14.0825 27.6322 13.867 28.7018C13.7787 29.2469 13.7215 29.8042 13.7215 30.3446C13.7157 30.6133 13.7425 30.8867 13.7852 31.1484C13.8226 31.413 13.8757 31.6666 13.9482 31.9096C14.0971 32.398 14.3004 32.8303 14.6229 33.2042C14.9419 33.5775 15.3426 33.8777 15.8368 34.0886C16.0285 33.9186 16.1868 33.7364 16.3147 33.5447Z" fill="#FD9F41"/>
<path d="M24.7756 29.6782C24.8667 29.5333 24.9158 29.4492 24.9158 29.4492C24.9158 29.4492 24.8001 29.4492 24.5992 29.4574C24.393 29.4644 24.1131 29.486 23.7731 29.5281C23.4326 29.5701 23.0359 29.6362 22.6036 29.7349C22.391 29.784 22.1614 29.8365 21.9429 29.9066C21.7267 29.9762 21.5024 30.0544 21.2787 30.1438C20.8364 30.3232 20.3761 30.5376 19.9771 30.8034C19.5828 31.0733 19.2188 31.3858 18.9215 31.7369C18.7678 31.9104 18.6516 32.1014 18.5499 32.3001C18.4524 32.4969 18.3747 32.7031 18.3168 32.9158C18.2637 33.1296 18.2339 33.3487 18.2339 33.5742C18.2462 33.8032 18.2906 34.0368 18.3653 34.274C18.8928 34.3616 19.3859 34.3359 19.8357 34.2372C20.2803 34.1356 20.7167 33.9685 21.1011 33.7483C21.2956 33.6378 21.4773 33.514 21.6537 33.3826C21.7437 33.3171 21.8261 33.247 21.9073 33.1769C21.9949 33.1086 22.0808 33.0385 22.1631 32.9649C22.5002 32.6769 22.7993 32.3614 23.0657 32.0395C23.3484 31.7275 23.6055 31.4092 23.8211 31.1042C23.8742 31.0294 23.9245 30.9541 23.9759 30.8811C24.0319 30.8075 24.0804 30.7374 24.1342 30.669C24.2323 30.5305 24.3252 30.3985 24.4047 30.2776C24.5665 30.0317 24.6886 29.8231 24.7756 29.6782Z" fill="#FD9F41"/>
<path d="M19.221 26.9809C19.6813 26.7479 20.0207 26.4417 20.2836 26.0819C20.5623 25.7314 20.7521 25.3195 20.8801 24.865C21.1582 23.9759 21.2026 22.9133 21.1909 21.8868C21.1885 21.6269 21.1757 21.3687 21.1617 21.1163C21.1529 20.8686 21.136 20.6244 21.1184 20.3884C21.0834 19.914 21.0361 19.4718 20.9934 19.0932C20.9169 18.3467 20.8328 17.8501 20.8328 17.8501C20.8328 17.8501 20.7457 17.9477 20.5973 18.113C20.4507 18.2818 20.2416 18.5242 20.0149 18.842C19.7847 19.1569 19.5172 19.5209 19.2648 19.9479C19.0206 20.3738 18.7612 20.8324 18.5515 21.3313C18.347 21.8331 18.1584 22.3448 18.045 22.87C17.9317 23.3975 17.8785 23.9221 17.9019 24.421C17.9673 25.4317 18.3652 26.3343 19.221 26.9809Z" fill="#FD9F41"/>
<path d="M26.7141 26.4388C27.0599 26.1876 27.3888 25.9346 27.6681 25.6787C27.9584 25.4281 28.2213 25.1968 28.4299 24.9871C28.639 24.775 28.8201 24.605 28.9399 24.4794C29.059 24.3567 29.1227 24.2819 29.1227 24.2819C29.1227 24.2819 28.6776 24.1832 27.9824 24.1149C27.636 24.0821 27.2364 24.064 26.7947 24.067C26.3525 24.0699 25.8752 24.0979 25.4038 24.175C24.4469 24.3147 23.483 24.64 22.7451 25.1863C22.387 25.4684 22.0868 25.7997 21.8741 26.1829C21.6767 26.5731 21.5756 27.0206 21.5984 27.5107C22.5903 27.943 23.5268 27.9045 24.3803 27.6568C24.8167 27.5341 25.2291 27.3553 25.6106 27.141C26.0008 26.9324 26.3764 26.6952 26.7141 26.4388Z" fill="#FD9F41"/>
<path d="M24.8075 66.9673C27.6274 69.307 31.0659 70.9082 34.4396 72.27C37.2004 73.3863 40.7424 75.2096 44.3503 76.909C41.1081 77.919 37.9079 78.7433 35.3357 79.1756C34.9986 79.2294 36.7296 80.993 37.055 80.8943C40.0413 79.9953 43.0727 78.904 46.0608 77.6982C49.3247 79.1815 52.5482 80.4527 55.2033 80.8978C55.5381 80.9527 56.5762 79.1756 56.242 79.1184C53.7271 78.6984 50.8056 77.9506 47.7631 76.9966C52.7743 74.893 57.5979 72.5124 61.7684 70.2428C66.2959 67.7758 69.6947 64.2754 71.9292 59.62C74.0007 55.311 75.4606 50.5452 75.6762 45.759C75.973 39.1278 73.7472 32.6258 70.2941 27.0369C69.284 25.4012 68.1519 23.769 66.8982 22.253C67.0086 21.833 67.0232 21.4235 66.9496 21.0385C66.8661 20.5817 66.6873 20.1418 66.4151 19.7492C65.8899 18.9465 65.0387 18.3004 64.1683 17.8167C63.2914 17.3377 62.3812 17.0362 61.7007 16.8726C61.3572 16.7885 61.0756 16.7418 60.8793 16.7143C60.7817 16.7021 60.7029 16.6939 60.6532 16.691C60.6077 16.688 60.5808 16.688 60.5808 16.688C60.5808 16.688 60.5901 16.7114 60.6106 16.757C60.6351 16.8014 60.6649 16.8703 60.7087 16.9562C60.7993 17.132 60.9272 17.3797 61.0884 17.6823C61.4132 18.2817 61.8549 19.0704 62.3777 19.8386C62.6342 20.2276 62.9286 20.5957 63.2307 20.9462C63.3825 21.1185 63.5444 21.2833 63.7138 21.4346C63.8768 21.5905 64.0479 21.7348 64.2314 21.861C64.5977 22.1087 64.9826 22.3126 65.4155 22.4242C65.7427 22.5042 66.0891 22.5398 66.46 22.5171C68.8675 25.3644 70.8374 28.6709 72.3387 31.9897C74.2484 36.2163 75.2661 40.8226 75.1557 45.4639C75.0394 50.5242 73.3511 55.6615 71.0821 60.1551C69.3156 63.6532 66.744 66.5064 63.455 68.6334C60.513 70.5343 57.2871 71.9609 54.0794 73.3484C51.6766 74.3906 48.824 75.4567 45.9317 76.406C39.737 74.3362 33.2636 71.5374 28.7759 69.0032C26.431 67.6812 24.3092 66.0595 22.5519 64.0096C20.7976 61.9631 19.5317 59.5329 18.517 57.0507C16.5897 52.3427 15.3682 47.47 15.6673 42.3549C16.0166 36.3915 18.3586 30.6869 21.6243 25.7394C22.462 24.4729 23.3698 23.2087 24.3571 22.0182C24.7117 22.0357 25.0464 21.9983 25.366 21.9206C25.7983 21.812 26.1809 21.6081 26.5507 21.358C26.7289 21.2313 26.9024 21.0887 27.066 20.9327C27.2365 20.7826 27.3972 20.6179 27.5491 20.445C27.8534 20.0933 28.1426 19.7264 28.4038 19.3362C28.9248 18.5685 29.3671 17.7776 29.6895 17.1788C29.8502 16.8791 29.9811 16.6285 30.0681 16.452C30.1125 16.3656 30.1464 16.299 30.1703 16.2522C30.1873 16.209 30.1966 16.1851 30.1966 16.1851C30.1966 16.1851 30.1733 16.1851 30.1259 16.1868C30.0739 16.1891 29.9998 16.1997 29.9022 16.2113C29.7042 16.2382 29.4202 16.2879 29.0808 16.3702C28.4008 16.5344 27.4901 16.8353 26.612 17.3149C25.741 17.7986 24.891 18.4429 24.3653 19.248C24.0942 19.6423 23.9114 20.081 23.8325 20.5343C23.7571 20.9135 23.7723 21.3154 23.8769 21.729C21.5723 24.4671 19.6661 27.6199 18.1881 30.7775C16.366 34.6804 15.2636 38.9023 15.0977 43.2142C14.909 48.167 16.2556 52.9129 18.1174 57.455C19.6117 61.1085 21.7493 64.4313 24.8075 66.9673Z" fill="#FD9F41"/>
<path d="M61.0702 75.9646C62.2012 75.7701 63.2428 75.4067 63.9958 75.0842C64.7436 74.7618 65.2127 74.4936 65.2127 74.4936C65.2127 74.4936 64.7354 74.302 64.0017 74.0572C63.2668 73.8066 62.2853 73.4958 61.2496 73.2429C60.2144 72.9934 59.1377 72.8071 58.1458 72.8532C57.6486 72.8731 57.1772 72.9596 56.7198 73.122C56.2594 73.285 55.8341 73.5367 55.3662 73.889C55.6665 74.9248 56.5737 75.5779 57.6387 75.8793C58.7101 76.1884 59.9398 76.1644 61.0702 75.9646Z" fill="#FD9F41"/>
<path d="M55.5054 72.253C55.9628 72.1665 56.3852 71.9504 56.7713 71.6665C57.5372 71.0893 58.1226 70.2077 58.5257 69.3052C58.9305 68.402 59.149 67.4726 59.2682 66.7797C59.326 66.4321 59.3587 66.143 59.3786 65.9414C59.3967 65.7405 59.4025 65.623 59.4025 65.623C59.4025 65.623 59.0444 65.8147 58.5198 66.143C57.994 66.4742 57.2989 66.9351 56.6154 67.4895C55.9371 68.0439 55.2758 68.6883 54.8108 69.4331C54.3481 70.182 54.0549 71.0367 54.0829 72.1186C54.5538 72.3196 55.0462 72.3435 55.5054 72.253Z" fill="#FD9F41"/>
<path d="M68.6925 68.3016C67.6216 68.3372 66.528 68.412 65.5974 68.6983C64.6633 68.9874 63.8823 69.4858 63.3711 70.4018C64.0102 71.2675 64.9297 71.6689 65.9637 71.715C66.9995 71.7658 68.1457 71.465 69.196 70.9883C70.2464 70.5122 71.1986 69.8661 71.8699 69.3087C72.2069 69.0359 72.4757 68.7836 72.6614 68.6106C72.8449 68.4301 72.9442 68.3226 72.9442 68.3226C72.9442 68.3226 72.4313 68.3139 71.6169 68.2981C70.8201 68.2934 69.7603 68.2706 68.6925 68.3016Z" fill="#FD9F41"/>
<path d="M61.5666 68.8118C62.583 68.8661 63.4062 68.3754 63.9962 67.6288C64.5786 66.8816 64.9332 65.8879 65.0728 64.9199C65.216 63.9467 65.1687 63.0172 65.0553 62.3396C65.0033 62.0013 64.9449 61.7279 64.8935 61.534C64.8433 61.3423 64.8065 61.2349 64.8065 61.2349C64.8065 61.2349 64.7445 61.2979 64.637 61.4177C64.5231 61.534 64.366 61.704 64.1831 61.9189C63.804 62.3448 63.2911 62.9366 62.7828 63.6312C62.2822 64.3275 61.7839 65.125 61.5 65.9948C61.2231 66.8693 61.1506 67.8181 61.5666 68.8118Z" fill="#FD9F41"/>
<path d="M75.6066 63.503C75.7141 63.3745 75.8187 63.2436 75.9209 63.1122L76.0693 62.9124L76.1885 62.7506C76.3404 62.5426 76.4835 62.3317 76.6161 62.1284C76.8842 61.7189 77.1173 61.3281 77.3089 60.9904C77.4959 60.6522 77.6419 60.3682 77.7401 60.1655C77.8365 59.9605 77.8803 59.8384 77.8803 59.8384C77.8803 59.8384 77.4059 59.9762 76.6693 60.2058C75.9414 60.4372 74.9839 60.7766 74.0527 61.2147C73.8173 61.3251 73.5877 61.4402 73.3569 61.567C73.1127 61.7054 72.8709 61.8462 72.6413 61.9888C72.4088 62.1313 72.1786 62.2686 71.9636 62.4176C71.7486 62.5619 71.5337 62.7044 71.3421 62.8615C70.5581 63.4738 69.9762 64.1783 69.7344 65.2135C70.5961 65.8613 71.609 65.9718 72.6501 65.6359C73.687 65.3081 74.7508 64.5265 75.6066 63.503Z" fill="#FD9F41"/>
<path d="M69.3648 59.1784C69.0926 58.2168 68.6994 57.3499 68.3764 56.7289C68.2128 56.417 68.0685 56.1698 67.9517 55.9934C67.8389 55.8193 67.7711 55.7212 67.7711 55.7212C67.7711 55.7212 67.7326 55.8193 67.6695 55.987C67.5971 56.1582 67.4931 56.4018 67.3821 56.7009C67.2699 57.0006 67.1496 57.3552 67.0403 57.7501C66.9328 58.1327 66.8137 58.6252 66.7821 58.9167C66.691 59.6014 66.5806 60.4204 66.6273 61.2844C66.6834 62.1467 66.899 63.0621 67.5795 63.8957C68.5621 63.6667 69.203 62.9353 69.4828 62.0386C69.5459 61.8137 69.6037 61.5841 69.6271 61.3457C69.6481 61.1056 69.6569 60.8667 69.6417 60.6266C69.6218 60.3848 69.5874 60.1464 69.5401 59.9151C69.4898 59.6662 69.4297 59.4191 69.3648 59.1784Z" fill="#FD9F41"/>
<path d="M80.2384 51.6651C80.2938 51.442 80.3149 51.3105 80.3149 51.3105C80.3149 51.3105 79.8802 51.5419 79.1909 51.9123C78.5162 52.2856 77.6329 52.8014 76.7975 53.4043C75.9294 53.9949 75.0753 54.6655 74.5203 55.4349C74.3854 55.6289 74.2446 55.8216 74.1318 56.0244C74.0179 56.2277 73.9227 56.4362 73.8579 56.6541C73.7206 57.0911 73.6844 57.5631 73.7708 58.0784C74.8013 58.3792 75.7524 58.1479 76.607 57.5993C76.8209 57.4638 77.0271 57.3066 77.2304 57.1372C77.4267 56.9655 77.627 56.782 77.7982 56.5764C78.1446 56.1692 78.4659 55.7142 78.7498 55.2515C79.3434 54.3325 79.7015 53.326 79.9579 52.5777C80.0824 52.2026 80.1776 51.8854 80.2384 51.6651Z" fill="#FD9F41"/>
<path d="M71.3064 57.2278C71.7159 56.9398 72.0132 56.577 72.213 56.1716C72.3147 55.9706 72.3889 55.7568 72.4467 55.5378C72.4993 55.3164 72.5419 55.0909 72.539 54.8525C72.5448 53.9044 72.2726 52.9095 71.8532 52.0233C71.4051 51.1336 70.8583 50.3665 70.4236 49.8297C70.2028 49.5609 70.0176 49.3495 69.8687 49.2023C69.7255 49.0568 69.6391 48.9756 69.6391 48.9756C69.6391 48.9756 69.6181 49.0743 69.5906 49.2478C69.552 49.4213 69.4965 49.669 69.4446 49.9734C69.3312 50.5792 69.2786 51.4081 69.2208 52.2932C69.2033 52.7366 69.2208 53.1981 69.281 53.659C69.2985 53.777 69.316 53.8921 69.3312 54.0054C69.3464 54.1188 69.3651 54.2315 69.3826 54.3454C69.4241 54.5721 69.4802 54.7947 69.552 55.0132C69.836 55.8836 70.3687 56.6886 71.3064 57.2278Z" fill="#FD9F41"/>
<path d="M77.9405 45.1547C77.7641 45.3475 77.5941 45.5461 77.4305 45.7471C77.2687 45.948 77.1045 46.1519 76.9404 46.357C76.6243 46.77 76.3521 47.1918 76.1529 47.6241C76.0512 47.839 75.9765 48.0599 75.9116 48.2801C75.8369 48.5003 75.7849 48.7229 75.7615 48.9496C75.7112 49.4017 75.7615 49.8703 75.9473 50.3581C77.0152 50.4591 77.9078 50.0496 78.6445 49.3357C78.8256 49.1581 79.0026 48.9613 79.1667 48.7515C79.3256 48.5389 79.46 48.3087 79.5938 48.0704C79.8561 47.5931 80.0798 47.0767 80.2685 46.5527C80.3701 46.295 80.4356 46.0275 80.4981 45.7646C80.56 45.5052 80.6143 45.2476 80.6622 44.9976C80.7545 44.4981 80.8352 44.0313 80.8649 43.6294C80.9123 42.8238 80.8971 42.291 80.8971 42.291C80.8971 42.291 80.5039 42.6222 79.9519 43.148C79.4156 43.6761 78.6386 44.3824 77.9405 45.1547Z" fill="#FD9F41"/>
<path d="M74.0819 48.5892C74.1403 48.3731 74.1777 48.1505 74.1894 47.9274C74.1952 47.7007 74.1625 47.4711 74.1204 47.2409C74.0328 46.7829 73.8692 46.3261 73.6578 45.8903C73.6046 45.7816 73.5468 45.6741 73.4913 45.5678C73.4276 45.4621 73.3569 45.3581 73.288 45.2547C73.1478 45.0485 72.9959 44.8493 72.8428 44.6612C72.5367 44.2814 72.2107 43.9397 71.8935 43.6423C71.7422 43.494 71.5775 43.3561 71.4168 43.2293C71.2585 43.1061 71.106 42.9892 70.9658 42.8882C70.3992 42.4816 70.0031 42.2607 70.0031 42.2607C70.0031 42.2607 69.9972 42.6486 70.0586 43.2369C70.0831 43.3847 70.0895 43.5436 70.0983 43.7154C70.1135 43.8877 70.1287 44.0676 70.1515 44.2563C70.1947 44.6337 70.2794 45.0426 70.3606 45.4627C70.433 45.8845 70.537 46.3185 70.6889 46.7444C70.7631 46.9553 70.8496 47.1673 70.9483 47.3741C71.0359 47.5809 71.1311 47.7831 71.2451 47.977C71.6914 48.7552 72.372 49.4334 73.3925 49.7845C73.7413 49.4281 73.9621 49.0204 74.0819 48.5892Z" fill="#FD9F41"/>
<path d="M75.9939 39.6944C75.8864 40.1617 75.8566 40.6174 75.9262 41.0672C75.9589 41.291 76.0313 41.5106 76.1078 41.7309C76.1826 41.9505 76.2907 42.1696 76.4274 42.3846C77.4894 42.2339 78.3102 41.6269 78.8138 40.7524C79.0778 40.316 79.2788 39.8171 79.4418 39.286C79.5814 38.7568 79.6539 38.2006 79.7006 37.6433C79.721 37.367 79.7391 37.0878 79.7415 36.8173C79.7321 36.5485 79.7181 36.2862 79.7006 36.0345C79.6626 35.5256 79.6077 35.0559 79.5487 34.6552C79.3869 33.8683 79.235 33.3589 79.235 33.3589C79.235 33.3589 78.9435 33.7777 78.5398 34.4268C78.3424 34.7463 78.1093 35.1266 77.8534 35.5455C77.6028 35.9632 77.3463 36.4113 77.108 36.8722C76.8813 37.3296 76.6301 37.8075 76.4326 38.2807C76.2299 38.7562 76.0868 39.2294 75.9939 39.6944Z" fill="#FD9F41"/>
<path d="M73.9595 39.5576C73.7679 39.1388 73.4793 38.7433 73.1621 38.3805C73.0014 38.2 72.8309 38.0259 72.655 37.8623C72.4786 37.6976 72.2718 37.5498 72.0796 37.4061C71.2828 36.8406 70.4824 36.4351 69.8135 36.1945C69.1668 35.9503 68.7246 35.8457 68.7246 35.8457C68.7246 35.8457 68.8175 36.2149 69.0296 36.7564C69.1207 37.0328 69.2253 37.357 69.3731 37.7011C69.4408 37.8728 69.522 38.0522 69.6091 38.2321C69.6944 38.415 69.7668 38.6054 69.862 38.7923C70.0379 39.1697 70.2587 39.5489 70.5122 39.9157C70.7389 40.2838 71.0123 40.6372 71.3336 40.9533C71.9931 41.5772 72.7666 42.0702 73.8438 42.1725C73.9741 41.9604 74.0769 41.7442 74.1476 41.5263C74.2195 41.3049 74.2341 41.0824 74.2399 40.8621C74.2393 40.4211 74.1342 39.9782 73.9595 39.5576Z" fill="#FD9F41"/>
<path d="M75.424 25.2358C75.424 25.2358 75.2488 25.7009 74.9982 26.4305C74.7475 27.1613 74.466 28.1159 74.2042 29.1335C74.0763 29.6406 73.9887 30.1465 73.911 30.6536C73.8345 31.1636 73.7971 31.659 73.8345 32.1252C73.8578 32.3577 73.8753 32.5902 73.9197 32.8128C73.9659 33.0382 74.0302 33.2526 74.1207 33.4589C74.2101 33.6633 74.324 33.8602 74.4642 34.0483C74.5951 34.2376 74.754 34.4216 74.9409 34.5934C75.441 34.383 75.84 34.0822 76.1572 33.7101C76.4808 33.3368 76.6818 32.9027 76.8296 32.4149C76.9049 32.1719 76.9587 31.9178 77.0008 31.6543C77.0364 31.3914 77.0656 31.118 77.0598 30.8511C77.0568 30.3095 77.0008 29.7493 76.9137 29.2071C76.6987 28.1363 76.3558 27.1163 76.0152 26.4066C75.8546 26.0455 75.7085 25.7499 75.604 25.5455C75.4935 25.3457 75.424 25.2358 75.424 25.2358Z" fill="#FD9F41"/>
<path d="M72.2315 32.8018C72.1293 32.6037 72.013 32.4121 71.8582 32.2404C71.5597 31.8893 71.1987 31.5755 70.802 31.3057C70.4042 31.0369 69.9444 30.8254 69.5039 30.6461C69.2796 30.5579 69.0565 30.4773 68.8374 30.4089C68.6201 30.3388 68.3899 30.2833 68.1749 30.236C67.7455 30.1373 67.3477 30.0736 67.0083 30.0315C66.6677 29.9895 66.3879 29.9673 66.184 29.962C65.9784 29.9515 65.8662 29.9527 65.8662 29.9527C65.8662 29.9527 65.9129 30.0362 66.0058 30.1793C66.0929 30.3254 66.2103 30.5345 66.3756 30.7793C66.4568 30.9014 66.545 31.0328 66.6467 31.1701C66.6987 31.2385 66.7518 31.3103 66.8062 31.3816C66.8535 31.4564 66.9061 31.5311 66.961 31.6077C67.176 31.912 67.4289 32.2298 67.7152 32.543C67.9786 32.8654 68.2795 33.1803 68.6136 33.4683C68.6978 33.5413 68.7877 33.6114 68.8701 33.6798C68.9536 33.7522 69.0383 33.8177 69.126 33.8866C69.3006 34.0169 69.4841 34.1401 69.6786 34.2482C70.0613 34.4708 70.4994 34.6408 70.9475 34.7418C71.395 34.8412 71.8845 34.8651 72.4167 34.7757C72.4903 34.5397 72.5359 34.306 72.5446 34.0759C72.5446 33.8515 72.5166 33.6319 72.464 33.4192C72.4109 33.2048 72.3297 32.9992 72.2315 32.8018Z" fill="#FD9F41"/>
<path d="M71.5601 27.4813C72.4171 26.8364 72.8138 25.9344 72.8763 24.9249C72.9026 24.4254 72.8459 23.9008 72.7355 23.3721C72.6222 22.8469 72.4382 22.3358 72.2284 21.8334C72.0193 21.3356 71.7599 20.8759 71.5122 20.45C71.2651 20.0247 70.9923 19.6584 70.7668 19.3441C70.5401 19.0275 70.331 18.7839 70.1809 18.6139C70.0348 18.4474 69.9478 18.3528 69.9478 18.3528C69.9478 18.3528 69.8654 18.8511 69.7871 19.5953C69.7427 19.9745 69.6972 20.4173 69.6615 20.8893C69.644 21.1271 69.6294 21.3701 69.6206 21.6196C69.6054 21.8708 69.5926 22.1296 69.5897 22.3889C69.5774 23.4142 69.623 24.4762 69.8975 25.3683C70.029 25.8222 70.2171 26.2311 70.494 26.5834C70.7569 26.9438 71.1004 27.25 71.5601 27.4813Z" fill="#FD9F41"/>
<path d="M68.0356 25.6915C67.2989 25.1435 66.3356 24.8169 65.3764 24.6767C64.9043 24.5996 64.4276 24.5727 63.9854 24.5687C63.5449 24.5675 63.1442 24.5844 62.7978 24.6177C62.1026 24.689 61.6592 24.7836 61.6592 24.7836C61.6592 24.7836 61.7211 24.8572 61.8403 24.9823C61.9595 25.1079 62.1423 25.2761 62.3468 25.4893C62.5594 25.7002 62.8258 25.9316 63.1115 26.1816C63.3913 26.4351 63.7202 26.6904 64.0631 26.9416C64.4037 27.1963 64.7793 27.4353 65.1713 27.6427C65.5557 27.8594 65.9641 28.0399 66.3999 28.1591C67.2528 28.4097 68.1869 28.4488 69.1812 28.0142C69.2045 27.5235 69.1064 27.0766 68.9078 26.6852C68.6957 26.3025 68.3937 25.9713 68.0356 25.6915Z" fill="#FD9F41"/>
<path d="M45.3978 86.6961C40.9691 86.6961 36.5702 85.9892 32.3237 84.5936C21.6944 81.1019 13.0625 73.6821 8.01743 63.7007C2.97122 53.7187 2.1148 42.3668 5.60649 31.7357C6.68432 28.4544 8.1588 25.3231 9.98848 22.4314C17.5794 10.3977 31.1425 2.92188 45.3838 2.92188C49.8137 2.92188 54.2144 3.62933 58.462 5.02436C76.7406 11.0292 88.5424 28.6121 87.1625 47.784C86.9195 51.2003 86.25 54.5956 85.1728 57.8746C79.5091 75.1128 63.5257 86.6961 45.3978 86.6961ZM45.3838 3.34483C31.2868 3.34483 17.861 10.7447 10.3472 22.6557C8.53678 25.5194 7.07747 28.6191 6.01016 31.8689C2.55411 42.3913 3.40118 53.6282 8.39657 63.5091C13.3908 73.3906 21.9363 80.735 32.4569 84.1911C36.6619 85.5721 41.0164 86.2731 45.3996 86.2731C63.3429 86.2731 79.165 74.8067 84.7703 57.7408C85.837 54.4945 86.5007 51.1349 86.7413 47.7524C88.1072 28.7751 76.4246 11.3716 58.3311 5.42745C54.1232 4.04527 49.7687 3.34483 45.3838 3.34483Z" fill="#FD9F41"/>
</svg>
